solid WRAP
facet normal 0.9874163961225 0.1541433208531 0.0353369113667
outer loop
vertex 98.1793300000000 163.1558000000000 42.8401900000000
vertex 98.0406500000000 163.7666000000000 44.0509400000000
vertex 98.2053700000000 162.6226300000000 44.4383000000000
endloop
endfacet
facet normal 0.9916169216976 0.1171702823863 0.0544702260743
outer loop
vertex 98.0406500000000 163.7666000000000 44.0509400000000
vertex 98.1793300000000 163.1558000000000 42.8401900000000
vertex 98.0135800000000 164.4538300000000 43.0654500000000
endloop
endfacet
facet normal 0.7887232282891 0.1792872177645 -0.5880236072672
outer loop
vertex 98.3419000000000 148.9525800000000 34.1615300000000
vertex 97.7713000000000 150.1840500000000 33.7716500000000
vertex 98.8757400000000 149.9799200000000 35.1908100000000
endloop
endfacet
facet normal 0.5304875940383 0.3521008382057 -0.7711082364404
outer loop
vertex 96.4338400000000 159.9639100000000 33.6975100000000
vertex 95.5567200000000 161.6751900000000 33.8754900000000
vertex 97.2138200000000 161.3513300000000 34.8676200000000
endloop
endfacet
facet normal 0.6950386724325 0.0195365423231 -0.7187068716364
outer loop
vertex 96.9746400000000 151.7477000000000 33.2447100000000
vertex 96.9439400000000 153.6484900000000 33.2666900000000
vertex 97.9356200000000 152.8618800000000 34.2043300000000
endloop
endfacet
facet normal 0.8229398473875 -0.0522713206551 -0.5657187610632
outer loop
vertex 97.9356200000000 152.8618800000000 34.2043300000000
vertex 98.2304500000000 154.3288300000000 34.4976700000000
vertex 98.8740400000000 153.0407900000000 35.5529000000000
endloop
endfacet
facet normal 0.6990193950026 -0.0290199824130 -0.7145136290029
outer loop
vertex 98.2304500000000 154.3288300000000 34.4976700000000
vertex 96.9439400000000 153.6484900000000 33.2666900000000
vertex 97.1573200000000 155.5412100000000 33.3985700000000
endloop
endfacet
facet normal 0.7376944233730 0.1419451681755 -0.6600443219633
outer loop
vertex 96.4338400000000 159.9639100000000 33.6975100000000
vertex 97.2138200000000 161.3513300000000 34.8676200000000
vertex 97.9512300000000 159.6179900000000 35.3190200000000
endloop
endfacet
facet normal 0.7688682262193 0.0759870092433 -0.6348760706914
outer loop
vertex 97.1573200000000 155.5412100000000 33.3985700000000
vertex 97.2955100000000 157.8155800000000 33.8381400000000
vertex 98.4722000000000 156.1508900000000 35.0639300000000
endloop
endfacet
facet normal 0.7096728746196 -0.0053117888782 -0.7045113171043
outer loop
vertex 96.9746400000000 151.7477000000000 33.2447100000000
vertex 97.9356200000000 152.8618800000000 34.2043300000000
vertex 98.4121300000000 151.5436700000000 34.6942700000000
endloop
endfacet
facet normal 0.7130898011768 0.1312291293560 -0.6886812405359
outer loop
vertex 97.7713000000000 150.1840500000000 33.7716500000000
vertex 96.9746400000000 151.7477000000000 33.2447100000000
vertex 98.4121300000000 151.5436700000000 34.6942700000000
endloop
endfacet
facet normal 0.7327866029370 0.2525507405877 -0.6318559313520
outer loop
vertex 96.4338400000000 159.9639100000000 33.6975100000000
vertex 97.9512300000000 159.6179900000000 35.3190200000000
vertex 97.2955100000000 157.8155800000000 33.8381400000000
endloop
endfacet
facet normal 0.8615024191477 0.2516605715431 -0.4409994767948
outer loop
vertex 97.9512300000000 159.6179900000000 35.3190200000000
vertex 97.2138200000000 161.3513300000000 34.8676200000000
vertex 98.1392500000000 161.0798400000000 36.5205400000000
endloop
endfacet
facet normal 0.7913609784728 0.0409302309400 -0.6099774733101
outer loop
vertex 98.8757400000000 149.9799200000000 35.1908100000000
vertex 97.7713000000000 150.1840500000000 33.7716500000000
vertex 98.4121300000000 151.5436700000000 34.6942700000000
endloop
endfacet
facet normal 0.3173874287409 0.4042057545112 -0.8578361895474
outer loop
vertex 95.3851600000000 164.1705400000001 35.0796800000000
vertex 95.9649300000000 165.6084100000000 35.9717000000000
vertex 97.1235400000000 164.1902000000000 35.7321200000000
endloop
endfacet
facet normal 0.3098759657173 0.4470624789293 -0.8391138336390
outer loop
vertex 95.3851600000000 164.1705400000001 35.0796800000000
vertex 97.1235400000000 164.1902000000000 35.7321200000000
vertex 96.4320000000000 162.8981800000000 34.7883800000000
endloop
endfacet
facet normal 0.5325587317418 0.2274059859198 -0.8152715589381
outer loop
vertex 97.2138200000000 161.3513300000000 34.8676200000000
vertex 95.5567200000000 161.6751900000000 33.8754900000000
vertex 96.4320000000000 162.8981800000000 34.7883800000000
endloop
endfacet
facet normal 0.7635510482248 0.0970962895323 -0.6384059110894
outer loop
vertex 98.2304500000000 154.3288300000000 34.4976700000000
vertex 97.1573200000000 155.5412100000000 33.3985700000000
vertex 98.4722000000000 156.1508900000000 35.0639300000000
endloop
endfacet
facet normal 0.9620822483118 0.0883565439010 -0.2580520657411
outer loop
vertex 97.9512300000000 159.6179900000000 35.3190200000000
vertex 98.1392500000000 161.0798400000000 36.5205400000000
vertex 98.6314400000000 159.3533800000000 37.7644100000000
endloop
endfacet
facet normal 0.8758017133249 0.0733444504542 -0.4770659813115
outer loop
vertex 97.2955100000000 157.8155800000000 33.8381400000000
vertex 97.9512300000000 159.6179900000000 35.3190200000000
vertex 98.5025300000000 157.8784300000000 36.0636600000000
endloop
endfacet
facet normal 0.8749146237126 0.0490563557955 -0.4817861301136
outer loop
vertex 98.1392500000000 161.0798400000000 36.5205400000000
vertex 97.2138200000000 161.3513300000000 34.8676200000000
vertex 97.7471800000000 162.6122400000000 35.9645800000000
endloop
endfacet
facet normal 0.8469147256856 0.2551138566350 -0.4665322792366
outer loop
vertex 98.4722000000000 156.1508900000000 35.0639300000000
vertex 97.2955100000000 157.8155800000000 33.8381400000000
vertex 98.5025300000000 157.8784300000000 36.0636600000000
endloop
endfacet
facet normal 0.8132233215852 0.0797102463832 -0.5764669165282
outer loop
vertex 97.9356200000000 152.8618800000000 34.2043300000000
vertex 98.8740400000000 153.0407900000000 35.5529000000000
vertex 98.4121300000000 151.5436700000000 34.6942700000000
endloop
endfacet
facet normal 0.6709031905084 0.3044551187771 -0.6761626946350
outer loop
vertex 97.2138200000000 161.3513300000000 34.8676200000000
vertex 96.4320000000000 162.8981800000000 34.7883800000000
vertex 97.7471800000000 162.6122400000000 35.9645800000000
endloop
endfacet
facet normal 0.8755441467219 0.0432573389736 -0.4811977241902
outer loop
vertex 98.8740400000000 153.0407900000000 35.5529000000000
vertex 98.2304500000000 154.3288300000000 34.4976700000000
vertex 99.1393100000000 154.7179500000000 36.1863300000000
endloop
endfacet
facet normal 0.8788947964380 0.0024075832836 -0.4770095809698
outer loop
vertex 98.4121300000000 151.5436700000000 34.6942700000000
vertex 98.8740400000000 153.0407900000000 35.5529000000000
vertex 99.4664100000000 151.4047500000000 36.6360900000000
endloop
endfacet
facet normal 0.8766819433783 0.1113023242371 -0.4680176949367
outer loop
vertex 98.8757400000000 149.9799200000000 35.1908100000000
vertex 98.4121300000000 151.5436700000000 34.6942700000000
vertex 99.4664100000000 151.4047500000000 36.6360900000000
endloop
endfacet
facet normal 0.8769310992343 0.0326696758351 -0.4795044728430
outer loop
vertex 98.2304500000000 154.3288300000000 34.4976700000000
vertex 98.4722000000000 156.1508900000000 35.0639300000000
vertex 99.1393100000000 154.7179500000000 36.1863300000000
endloop
endfacet
facet normal 0.4068892137682 0.5607923663709 -0.7210777278069
outer loop
vertex 97.7456900000000 165.5447800000000 36.9270600000000
vertex 95.9649300000000 165.6084100000000 35.9717000000000
vertex 96.4327900000000 166.9068000000000 37.2454800000000
endloop
endfacet
facet normal 0.7480069887404 0.2114189744214 -0.6291164932269
outer loop
vertex 97.1235400000000 164.1902000000000 35.7321200000000
vertex 97.7456900000000 165.5447800000000 36.9270600000000
vertex 98.4037300000000 163.7739300000000 37.1143500000000
endloop
endfacet
facet normal 0.6771546934778 0.1618784498334 -0.7178139651613
outer loop
vertex 96.4320000000000 162.8981800000000 34.7883800000000
vertex 97.1235400000000 164.1902000000000 35.7321200000000
vertex 97.7471800000000 162.6122400000000 35.9645800000000
endloop
endfacet
facet normal 0.9561087092117 0.1277359362049 -0.2637037481177
outer loop
vertex 99.6418100000000 153.3779800000000 37.3591700000000
vertex 99.1393100000000 154.7179500000000 36.1863300000000
vertex 99.5726900000000 154.8962300000000 37.8439900000000
endloop
endfacet
facet normal 0.3030808425067 0.8203393936081 -0.4849590520860
outer loop
vertex 96.5880100000000 167.7682000000000 38.7996000000000
vertex 96.4327900000000 166.9068000000000 37.2454800000000
vertex 95.0655200000000 167.8206000000000 37.9367400000000
endloop
endfacet
facet normal 0.0471787471740 0.6908150246623 -0.7214906565687
outer loop
vertex 96.4327900000000 166.9068000000000 37.2454800000000
vertex 95.9649300000000 165.6084100000000 35.9717000000000
vertex 94.6013200000000 166.5822000000000 36.8149200000000
endloop
endfacet
facet normal 0.7481205443502 0.2025847075237 -0.6318821784151
outer loop
vertex 97.7471800000000 162.6122400000000 35.9645800000000
vertex 97.1235400000000 164.1902000000000 35.7321200000000
vertex 98.4037300000000 163.7739300000000 37.1143500000000
endloop
endfacet
facet normal 0.9201513362448 0.0023460504666 -0.3915558893109
outer loop
vertex 98.8740400000000 153.0407900000000 35.5529000000000
vertex 99.1393100000000 154.7179500000000 36.1863300000000
vertex 99.6418100000000 153.3779800000000 37.3591700000000
endloop
endfacet
facet normal 0.9138622221416 0.0655978992254 -0.4006903474749
outer loop
vertex 99.4664100000000 151.4047500000000 36.6360900000000
vertex 98.8740400000000 153.0407900000000 35.5529000000000
vertex 99.6418100000000 153.3779800000000 37.3591700000000
endloop
endfacet
facet normal 0.9347724963415 0.2117779403760 -0.2852200625017
outer loop
vertex 99.1393100000000 154.7179500000000 36.1863300000000
vertex 98.4722000000000 156.1508900000000 35.0639300000000
vertex 99.0707600000000 156.4113800000000 37.2190500000000
endloop
endfacet
facet normal 0.0599528931973 0.6577171234321 -0.7508753799010
outer loop
vertex 95.0655200000000 167.8206000000000 37.9367400000000
vertex 96.4327900000000 166.9068000000000 37.2454800000000
vertex 94.6013200000000 166.5822000000000 36.8149200000000
endloop
endfacet
facet normal 0.8720442698508 0.0463478045045 -0.4872275366172
outer loop
vertex 98.1392500000000 161.0798400000000 36.5205400000000
vertex 97.7471800000000 162.6122400000000 35.9645800000000
vertex 98.4935200000000 162.3067900000000 37.2713300000000
endloop
endfacet
facet normal 0.9883604064341 0.1220824416596 -0.0907721566999
outer loop
vertex 98.6314400000000 159.3533800000000 37.7644100000000
vertex 98.9602200000000 157.5044200000000 38.8575600000000
vertex 98.7981900000000 157.7876400000000 37.4742300000000
endloop
endfacet
facet normal 0.9485098156406 0.1460123303999 -0.2810863372785
outer loop
vertex 98.4722000000000 156.1508900000000 35.0639300000000
vertex 98.5025300000000 157.8784300000000 36.0636600000000
vertex 99.0707600000000 156.4113800000000 37.2190500000000
endloop
endfacet
facet normal 0.9421031015854 0.2015622823153 -0.2679820746451
outer loop
vertex 99.5726900000000 154.8962300000000 37.8439900000000
vertex 99.1393100000000 154.7179500000000 36.1863300000000
vertex 99.0707600000000 156.4113800000000 37.2190500000000
endloop
endfacet
facet normal 0.6564892008408 0.6300572748874 -0.4147888131820
outer loop
vertex 96.4327900000000 166.9068000000000 37.2454800000000
vertex 96.5880100000000 167.7682000000000 38.7996000000000
vertex 97.6682400000000 166.4814000000000 38.5546600000000
endloop
endfacet
facet normal 0.9207264092618 0.3182593751524 -0.2257738900215
outer loop
vertex 98.4037300000000 163.7739300000000 37.1143500000000
vertex 97.7456900000000 165.5447800000000 36.9270600000000
vertex 98.4170300000000 164.8946800000000 38.7484400000000
endloop
endfacet
facet normal 0.8969327168000 0.4003485016419 -0.1877039657727
outer loop
vertex 97.7456900000000 165.5447800000000 36.9270600000000
vertex 97.6682400000000 166.4814000000000 38.5546600000000
vertex 98.4170300000000 164.8946800000000 38.7484400000000
endloop
endfacet
facet normal 0.9510756511301 0.0282025185930 -0.3076682040322
outer loop
vertex 99.4664100000000 151.4047500000000 36.6360900000000
vertex 99.6418100000000 153.3779800000000 37.3591700000000
vertex 100.1348000000000 152.1093500000000 38.7668300000000
endloop
endfacet
facet normal 0.8683583315847 0.0000801953946 -0.4959372959722
outer loop
vertex 97.7471800000000 162.6122400000000 35.9645800000000
vertex 98.4037300000000 163.7739300000000 37.1143500000000
vertex 98.4935200000000 162.3067900000000 37.2713300000000
endloop
endfacet
facet normal 0.9416515894590 -0.0704967917110 -0.3291238162572
outer loop
vertex 98.1392500000000 161.0798400000000 36.5205400000000
vertex 98.4935200000000 162.3067900000000 37.2713300000000
vertex 98.6787300000000 161.2675600000000 38.0238300000000
endloop
endfacet
facet normal 0.9400686860013 0.0228834777120 -0.3402164194268
outer loop
vertex 98.6314400000000 159.3533800000000 37.7644100000000
vertex 98.1392500000000 161.0798400000000 36.5205400000000
vertex 98.6787300000000 161.2675600000000 38.0238300000000
endloop
endfacet
facet normal 0.9783086754584 0.0254952681343 -0.2055775445560
outer loop
vertex 98.6787300000000 161.2675600000000 38.0238300000000
vertex 98.4935200000000 162.3067900000000 37.2713300000000
vertex 98.8448600000000 162.8310900000000 39.0083200000000
endloop
endfacet
facet normal 0.9772064634574 0.0374473281673 -0.2089622582912
outer loop
vertex 98.4935200000000 162.3067900000000 37.2713300000000
vertex 98.4037300000000 163.7739300000000 37.1143500000000
vertex 98.8448600000000 162.8310900000000 39.0083200000000
endloop
endfacet
facet normal 0.9734880368846 0.1848615835447 -0.1347116809039
outer loop
vertex 98.4037300000000 163.7739300000000 37.1143500000000
vertex 98.4170300000000 164.8946800000000 38.7484400000000
vertex 98.8448600000000 162.8310900000000 39.0083200000000
endloop
endfacet
facet normal 0.9650457900398 0.2433717306436 -0.0972462022397
outer loop
vertex 99.0707600000000 156.4113800000000 37.2190500000000
vertex 98.9602200000000 157.5044200000000 38.8575600000000
vertex 99.4200200000000 155.8156700000000 39.1941700000000
endloop
endfacet
facet normal 0.9047000211429 0.4259764566096 -0.0078695716787
outer loop
vertex 98.4170300000000 164.8946800000000 38.7484400000000
vertex 97.6682400000000 166.4814000000000 38.5546600000000
vertex 97.9824300000000 165.8392000000000 39.9125000000000
endloop
endfacet
facet normal 0.9666647672027 0.2174387857042 0.1352020795714
outer loop
vertex 98.8448600000000 162.8310900000000 39.0083200000000
vertex 98.4170300000000 164.8946800000000 38.7484400000000
vertex 98.1909100000000 164.4391400000000 41.0977700000000
endloop
endfacet
facet normal 0.9954467562985 -0.0337084141915 -0.0891599584314
outer loop
vertex 98.6314400000000 159.3533800000000 37.7644100000000
vertex 98.8522900000000 160.8065900000000 39.6807300000000
vertex 98.8415300000000 158.8953600000000 40.2831700000000
endloop
endfacet
facet normal 0.9677515934370 0.1623227630757 -0.1926348202888
outer loop
vertex 100.1348000000000 152.1093500000000 38.7668300000000
vertex 99.6418100000000 153.3779800000000 37.3591700000000
vertex 99.9401800000000 154.0332500000000 39.4102700000000
endloop
endfacet
facet normal 0.9557389256219 0.2819834763898 -0.0839548991669
outer loop
vertex 99.5726900000000 154.8962300000000 37.8439900000000
vertex 99.0707600000000 156.4113800000000 37.2190500000000
vertex 99.4200200000000 155.8156700000000 39.1941700000000
endloop
endfacet
facet normal 0.9882086060398 0.1422868590073 -0.0565526365673
outer loop
vertex 98.9602200000000 157.5044200000000 38.8575600000000
vertex 98.6314400000000 159.3533800000000 37.7644100000000
vertex 98.8415300000000 158.8953600000000 40.2831700000000
endloop
endfacet
facet normal 0.9795247464116 0.1003302955572 -0.1745425534380
outer loop
vertex 99.6418100000000 153.3779800000000 37.3591700000000
vertex 99.5726900000000 154.8962300000000 37.8439900000000
vertex 99.9401800000000 154.0332500000000 39.4102700000000
endloop
endfacet
facet normal 0.9599495601350 0.2719912133045 -0.0672132567408
outer loop
vertex 99.9401800000000 154.0332500000000 39.4102700000000
vertex 99.4200200000000 155.8156700000000 39.1941700000000
vertex 99.6913300000000 155.2144900000000 40.6362700000000
endloop
endfacet
facet normal 0.9541633011787 0.2630035415286 0.1428339309380
outer loop
vertex 98.4170300000000 164.8946800000000 38.7484400000000
vertex 97.9824300000000 165.8392000000000 39.9125000000000
vertex 98.1909100000000 164.4391400000000 41.0977700000000
endloop
endfacet
facet normal 0.3545215330683 0.7325923462785 -0.5810532994185
outer loop
vertex 96.5880100000000 167.7682000000000 38.7996000000000
vertex 95.0655200000000 167.8206000000000 37.9367400000000
vertex 95.3074300000000 168.7624000000000 39.2717600000000
endloop
endfacet
facet normal 0.9942139685905 -0.0100684012098 -0.1069449014993
outer loop
vertex 98.6314400000000 159.3533800000000 37.7644100000000
vertex 98.6787300000000 161.2675600000000 38.0238300000000
vertex 98.8522900000000 160.8065900000000 39.6807300000000
endloop
endfacet
facet normal 0.9947119418157 0.0257401297346 0.0994263472655
outer loop
vertex 98.8415300000000 158.8953600000000 40.2831700000000
vertex 98.8522900000000 160.8065900000000 39.6807300000000
vertex 98.6566600000000 160.3134100000000 41.7655900000000
endloop
endfacet
facet normal 0.9281795483376 0.3720412431571 0.0082486021821
outer loop
vertex 97.9824300000000 165.8392000000000 39.9125000000000
vertex 97.4724100000000 167.1084000000000 40.0574200000000
vertex 97.8293500000000 166.1943000000000 41.1216600000000
endloop
endfacet
facet normal 0.9876933373669 0.1035863299362 0.1171825224653
outer loop
vertex 98.6566600000000 160.3134100000000 41.7655900000000
vertex 98.8522900000000 160.8065900000000 39.6807300000000
vertex 98.5206300000000 162.1809900000000 41.2612500000000
endloop
endfacet
facet normal 0.9556185052469 0.2837102759219 -0.0793835736536
outer loop
vertex 99.9401800000000 154.0332500000000 39.4102700000000
vertex 99.6913300000000 155.2144900000000 40.6362700000000
vertex 100.0898400000000 154.0879700000000 41.4074400000000
endloop
endfacet
facet normal 0.9754025787009 0.2058902043269 -0.0787339394789
outer loop
vertex 99.9401800000000 154.0332500000000 39.4102700000000
vertex 100.0898400000000 154.0879700000000 41.4074400000000
vertex 100.3568000000000 152.5738400000000 40.7552300000000
endloop
endfacet
facet normal 0.9596252941693 0.2708401204726 -0.0759270961698
outer loop
vertex 99.5726900000000 154.8962300000000 37.8439900000000
vertex 99.4200200000000 155.8156700000000 39.1941700000000
vertex 99.9401800000000 154.0332500000000 39.4102700000000
endloop
endfacet
facet normal 0.7371674034743 0.6523540935702 -0.1761202880341
outer loop
vertex 97.6682400000000 166.4814000000000 38.5546600000000
vertex 96.5880100000000 167.7682000000000 38.7996000000000
vertex 97.4724100000000 167.1084000000000 40.0574200000000
endloop
endfacet
facet normal 0.9258325967439 0.3761857389098 -0.0363082999787
outer loop
vertex 97.9824300000000 165.8392000000000 39.9125000000000
vertex 97.6682400000000 166.4814000000000 38.5546600000000
vertex 97.4724100000000 167.1084000000000 40.0574200000000
endloop
endfacet
facet normal 0.4792654564824 0.7944634795543 -0.3730045601292
outer loop
vertex 96.5880100000000 167.7682000000000 38.7996000000000
vertex 95.3074300000000 168.7624000000000 39.2717600000000
vertex 96.6288900000000 168.4870000000000 40.3831000000000
endloop
endfacet
facet normal 0.9858320376167 0.0561185951004 0.1580692787753
outer loop
vertex 98.8522900000000 160.8065900000000 39.6807300000000
vertex 98.8448600000000 162.8310900000000 39.0083200000000
vertex 98.5206300000000 162.1809900000000 41.2612500000000
endloop
endfacet
facet normal 0.9634371254469 0.2575438856562 -0.0738921665115
outer loop
vertex 99.6913300000000 155.2144900000000 40.6362700000000
vertex 99.4200200000000 155.8156700000000 39.1941700000000
vertex 99.3017500000000 156.8377800000000 41.2145800000000
endloop
endfacet
facet normal 0.4967158694334 0.7703874458683 -0.3997205627705
outer loop
vertex 96.6288900000000 168.4870000000000 40.3831000000000
vertex 95.3074300000000 168.7624000000000 39.2717600000000
vertex 95.2915500000000 169.5522000000000 40.7742200000000
endloop
endfacet
facet normal 0.9705385343134 0.1550627049598 0.1844193887404
outer loop
vertex 98.8448600000000 162.8310900000000 39.0083200000000
vertex 98.1909100000000 164.4391400000000 41.0977700000000
vertex 98.5206300000000 162.1809900000000 41.2612500000000
endloop
endfacet
facet normal 0.9798125037684 0.1776294006471 -0.0917346907386
outer loop
vertex 98.9602200000000 157.5044200000000 38.8575600000000
vertex 98.8415300000000 158.8953600000000 40.2831700000000
vertex 99.3017500000000 156.8377800000000 41.2145800000000
endloop
endfacet
facet normal 0.9775452295988 0.2004895851191 0.0648787357101
outer loop
vertex 98.1909100000000 164.4391400000000 41.0977700000000
vertex 97.9824300000000 165.8392000000000 39.9125000000000
vertex 97.8293500000000 166.1943000000000 41.1216600000000
endloop
endfacet
facet normal 0.9557037837200 0.2706066585365 -0.1157683641542
outer loop
vertex 99.6913300000000 155.2144900000000 40.6362700000000
vertex 99.3017500000000 156.8377800000000 41.2145800000000
vertex 99.8213500000000 155.3191900000000 41.9543600000000
endloop
endfacet
facet normal 0.9586433637045 0.2602380825401 -0.1152347240255
outer loop
vertex 100.0898400000000 154.0879700000000 41.4074400000000
vertex 99.6913300000000 155.2144900000000 40.6362700000000
vertex 99.8213500000000 155.3191900000000 41.9543600000000
endloop
endfacet
facet normal 0.9589954729877 0.2364162814003 -0.1563170645772
outer loop
vertex 100.3568000000000 152.5738400000000 40.7552300000000
vertex 100.0898400000000 154.0879700000000 41.4074400000000
vertex 100.5132800000000 153.0043600000000 42.3663500000000
endloop
endfacet
facet normal 0.5810203231141 0.7944254102258 -0.1769283801881
outer loop
vertex 96.6288900000000 168.4870000000000 40.3831000000000
vertex 95.2915500000000 169.5522000000000 40.7742200000000
vertex 96.4445600000000 169.0154000000000 42.1503400000000
endloop
endfacet
facet normal 0.6169377849352 0.7549253599775 -0.2224308215651
outer loop
vertex 96.4445600000000 169.0154000000000 42.1503400000000
vertex 95.2915500000000 169.5522000000000 40.7742200000000
vertex 94.9279900000000 170.3782000000000 42.5692700000000
endloop
endfacet
facet normal 0.7918696179502 0.5481277730907 -0.2692553667694
outer loop
vertex 97.4724100000000 167.1084000000000 40.0574200000000
vertex 96.5880100000000 167.7682000000000 38.7996000000000
vertex 96.6288900000000 168.4870000000000 40.3831000000000
endloop
endfacet
facet normal 0.9350823572310 0.3543085380091 -0.0092975851273
outer loop
vertex 97.8293500000000 166.1943000000000 41.1216600000000
vertex 97.4724100000000 167.1084000000000 40.0574200000000
vertex 97.3423400000000 167.4944000000000 41.6854700000000
endloop
endfacet
facet normal 0.9489424158368 0.2543922873308 -0.1865284310030
outer loop
vertex 96.5120500000000 170.3169000000000 46.3481100000000
vertex 96.9774100000000 170.3345000000000 48.7395800000000
vertex 97.2238200000000 168.6718000000000 47.7255300000000
endloop
endfacet
facet normal 0.9659671377877 0.2491532377726 -0.0694993008714
outer loop
vertex 99.4200200000000 155.8156700000000 39.1941700000000
vertex 98.9602200000000 157.5044200000000 38.8575600000000
vertex 99.3017500000000 156.8377800000000 41.2145800000000
endloop
endfacet
facet normal 0.9412246203787 0.3354698719977 0.0394484343776
outer loop
vertex 97.8293500000000 166.1943000000000 41.1216600000000
vertex 97.3423400000000 167.4944000000000 41.6854700000000
vertex 97.8224700000000 166.0083000000000 42.8675600000000
endloop
endfacet
facet normal 0.8453430814659 0.5310259157475 -0.0583656698948
outer loop
vertex 97.4724100000000 167.1084000000000 40.0574200000000
vertex 96.6288900000000 168.4870000000000 40.3831000000000
vertex 97.3423400000000 167.4944000000000 41.6854700000000
endloop
endfacet
facet normal 0.9791888365132 0.2013667291488 0.0253113184128
outer loop
vertex 98.1909100000000 164.4391400000000 41.0977700000000
vertex 97.8293500000000 166.1943000000000 41.1216600000000
vertex 97.8224700000000 166.0083000000000 42.8675600000000
endloop
endfacet
facet normal 0.9898395789208 0.0995218903382 0.1015529484816
outer loop
vertex 98.6566600000000 160.3134100000000 41.7655900000000
vertex 98.5206300000000 162.1809900000000 41.2612500000000
vertex 98.3863100000000 161.5474400000000 43.1913500000000
endloop
endfacet
facet normal 0.8902215524499 0.4200197270506 -0.1763207771137
outer loop
vertex 96.9774100000000 170.3345000000000 48.7395800000000
vertex 96.5120500000000 170.3169000000000 46.3481100000000
vertex 96.0887600000000 171.8109000000000 47.7698800000000
endloop
endfacet
facet normal 0.9866973679003 0.1598093433303 -0.0298207639574
outer loop
vertex 98.8415300000000 158.8953600000000 40.2831700000000
vertex 98.6566600000000 160.3134100000000 41.7655900000000
vertex 98.9534000000000 158.6035200000000 42.4207100000000
endloop
endfacet
facet normal 0.8500360500615 0.5223779709731 -0.0675275428093
outer loop
vertex 96.6288900000000 168.4870000000000 40.3831000000000
vertex 96.4445600000000 169.0154000000000 42.1503400000000
vertex 97.3423400000000 167.4944000000000 41.6854700000000
endloop
endfacet
facet normal 0.9812719611631 0.1520896919646 0.1182119445457
outer loop
vertex 98.5206300000000 162.1809900000000 41.2612500000000
vertex 98.1793300000000 163.1558000000000 42.8401900000000
vertex 98.3863100000000 161.5474400000000 43.1913500000000
endloop
endfacet
facet normal 0.9779519344435 0.2087763884455 0.0047364064383
outer loop
vertex 98.6566600000000 160.3134100000000 41.7655900000000
vertex 98.3863100000000 161.5474400000000 43.1913500000000
vertex 98.7331400000000 159.9091200000000 43.7950700000000
endloop
endfacet
facet normal 0.6206560774789 0.7553446577604 -0.2103342137677
outer loop
vertex 96.4445600000000 169.0154000000000 42.1503400000000
vertex 94.9279900000000 170.3782000000000 42.5692700000000
vertex 96.3907900000000 169.6056000000000 44.1111800000000
endloop
endfacet
facet normal 0.9812907128195 0.1518505255010 0.1183636550608
outer loop
vertex 98.1909100000000 164.4391400000000 41.0977700000000
vertex 98.1793300000000 163.1558000000000 42.8401900000000
vertex 98.5206300000000 162.1809900000000 41.2612500000000
endloop
endfacet
facet normal 0.8544730708065 0.5176673774462 -0.0435460399400
outer loop
vertex 97.3423400000000 167.4944000000000 41.6854700000000
vertex 96.4445600000000 169.0154000000000 42.1503400000000
vertex 97.2110100000000 167.8699000000000 43.5723500000000
endloop
endfacet
facet normal 0.9505419492462 0.3105656728490 0.0043549478715
outer loop
vertex 97.8224700000000 166.0083000000000 42.8675600000000
vertex 97.3423400000000 167.4944000000000 41.6854700000000
vertex 97.2110100000000 167.8699000000000 43.5723500000000
endloop
endfacet
facet normal 0.6880187534145 0.6470933910224 -0.3284818689747
outer loop
vertex 96.3907900000000 169.6056000000000 44.1111800000000
vertex 94.9279900000000 170.3782000000000 42.5692700000000
vertex 95.2279900000000 171.1081000000000 44.6355000000000
endloop
endfacet
facet normal 0.9872600288749 0.1325765750708 0.0879834480366
outer loop
vertex 98.0135800000000 164.4538300000000 43.0654500000000
vertex 98.1909100000000 164.4391400000000 41.0977700000000
vertex 97.8224700000000 166.0083000000000 42.8675600000000
endloop
endfacet
facet normal 0.9515029430883 0.3073332529426 0.0137266503538
outer loop
vertex 97.8224700000000 166.0083000000000 42.8675600000000
vertex 97.2110100000000 167.8699000000000 43.5723500000000
vertex 97.6181800000000 166.5442000000000 45.0299700000000
endloop
endfacet
facet normal 0.9911066606352 0.1269337162622 0.0399426954579
outer loop
vertex 98.0135800000000 164.4538300000000 43.0654500000000
vertex 97.8224700000000 166.0083000000000 42.8675600000000
vertex 97.8951100000000 164.9267000000000 44.5023400000000
endloop
endfacet
facet normal 0.8912280075450 0.4462784736194 -0.0809207176895
outer loop
vertex 97.2110100000000 167.8699000000000 43.5723500000000
vertex 96.3907900000000 169.6056000000000 44.1111800000000
vertex 97.1553800000000 168.3547000000000 45.6333400000000
endloop
endfacet
facet normal 0.9654273221606 0.2583508085443 -0.0347123227432
outer loop
vertex 97.6181800000000 166.5442000000000 45.0299700000000
vertex 97.2110100000000 167.8699000000000 43.5723500000000
vertex 97.1553800000000 168.3547000000000 45.6333400000000
endloop
endfacet
facet normal 0.9869907928763 0.1507519117417 0.0558841290848
outer loop
vertex 97.8224700000000 166.0083000000000 42.8675600000000
vertex 97.6181800000000 166.5442000000000 45.0299700000000
vertex 97.8951100000000 164.9267000000000 44.5023400000000
endloop
endfacet
facet normal 0.9676923176937 0.2517845034096 -0.0132718544085
outer loop
vertex 97.6181800000000 166.5442000000000 45.0299700000000
vertex 97.1553800000000 168.3547000000000 45.6333400000000
vertex 97.5336800000000 166.9758000000000 47.0568300000000
endloop
endfacet
facet normal 0.7236939147125 0.6453777611764 -0.2444476696288
outer loop
vertex 96.5120500000000 170.3169000000000 46.3481100000000
vertex 96.3907900000000 169.6056000000000 44.1111800000000
vertex 95.2279900000000 171.1081000000000 44.6355000000000
endloop
endfacet
facet normal 0.9874387215444 0.1578214794838 0.0075598815040
outer loop
vertex 97.6181800000000 166.5442000000000 45.0299700000000
vertex 97.5336800000000 166.9758000000000 47.0568300000000
vertex 97.8394100000000 165.0860400000000 46.5746900000000
endloop
endfacet
facet normal 0.9863064260712 0.1643385192273 0.0138738959531
outer loop
vertex 97.8951100000000 164.9267000000000 44.5023400000000
vertex 97.6181800000000 166.5442000000000 45.0299700000000
vertex 97.8394100000000 165.0860400000000 46.5746900000000
endloop
endfacet
facet normal 0.7580411712701 0.5785593213019 -0.3010692518244
outer loop
vertex 96.5120500000000 170.3169000000000 46.3481100000000
vertex 95.2279900000000 171.1081000000000 44.6355000000000
vertex 95.3638200000000 171.7438000000000 46.1991100000000
endloop
endfacet
facet normal 0.9179782765395 0.3608998509365 -0.1645210667228
outer loop
vertex 96.3907900000000 169.6056000000000 44.1111800000000
vertex 96.5120500000000 170.3169000000000 46.3481100000000
vertex 97.1553800000000 168.3547000000000 45.6333400000000
endloop
endfacet
facet normal 0.7430957193030 0.5596626331053 -0.3668603127338
outer loop
vertex 96.0887600000000 171.8109000000000 47.7698800000000
vertex 96.5120500000000 170.3169000000000 46.3481100000000
vertex 95.3638200000000 171.7438000000000 46.1991100000000
endloop
endfacet
facet normal 0.9378440624868 0.3372796540483 -0.0817982238398
outer loop
vertex 96.5120500000000 170.3169000000000 46.3481100000000
vertex 97.2238200000000 168.6718000000000 47.7255300000000
vertex 97.1553800000000 168.3547000000000 45.6333400000000
endloop
endfacet
facet normal 0.9771089822827 0.2032677948367 -0.0627713336218
outer loop
vertex 97.1553800000000 168.3547000000000 45.6333400000000
vertex 97.2238200000000 168.6718000000000 47.7255300000000
vertex 97.5336800000000 166.9758000000000 47.0568300000000
endloop
endfacet
facet normal 0.9818028555954 0.1884906625869 -0.0231175877264
outer loop
vertex 97.5336800000000 166.9758000000000 47.0568300000000
vertex 97.2238200000000 168.6718000000000 47.7255300000000
vertex 97.5015400000000 167.3547000000000 48.7812300000000
endloop
endfacet
facet normal 0.9863880095531 0.1636564632515 -0.0159767532946
outer loop
vertex 97.8394100000000 165.0860400000000 46.5746900000000
vertex 97.5336800000000 166.9758000000000 47.0568300000000
vertex 97.7494700000000 165.8269300000000 48.6111300000000
endloop
endfacet
facet normal 0.9866356871054 0.1620300021290 -0.0172133477285
outer loop
vertex 97.5336800000000 166.9758000000000 47.0568300000000
vertex 97.5015400000000 167.3547000000000 48.7812300000000
vertex 97.7494700000000 165.8269300000000 48.6111300000000
endloop
endfacet
facet normal 0.9821234744862 0.1797108734539 -0.0560132379504
outer loop
vertex 97.2238200000000 168.6718000000000 47.7255300000000
vertex 96.9774100000000 170.3345000000000 48.7395800000000
vertex 97.3510200000000 168.6364000000000 49.8422500000000
endloop
endfacet
facet normal 0.9850999104343 0.1624440756795 -0.0564808705583
outer loop
vertex 97.5015400000000 167.3547000000000 48.7812300000000
vertex 97.2238200000000 168.6718000000000 47.7255300000000
vertex 97.3510200000000 168.6364000000000 49.8422500000000
endloop
endfacet
facet normal 0.9865356141955 0.1623216740856 -0.0199788900071
outer loop
vertex 97.7494700000000 165.8269300000000 48.6111300000000
vertex 97.5015400000000 167.3547000000000 48.7812300000000
vertex 97.6523900000000 166.6711000000000 50.6760200000000
endloop
endfacet
facet normal 0.9887219393544 0.1490635872543 -0.0144559189981
outer loop
vertex 97.7494700000000 165.8269300000000 48.6111300000000
vertex 97.6523900000000 166.6711000000000 50.6760200000000
vertex 97.9450700000000 164.6834000000000 50.1977000000000
endloop
endfacet
facet normal 0.8845552200618 0.4527822081296 -0.1120282761752
outer loop
vertex 96.4445600000000 169.0154000000000 42.1503400000000
vertex 96.3907900000000 169.6056000000000 44.1111800000000
vertex 97.2110100000000 167.8699000000000 43.5723500000000
endloop
endfacet
facet normal 0.9897818289717 0.1397361151302 -0.0283857211603
outer loop
vertex 97.5015400000000 167.3547000000000 48.7812300000000
vertex 97.3510200000000 168.6364000000000 49.8422500000000
vertex 97.6523900000000 166.6711000000000 50.6760200000000
endloop
endfacet
facet normal 0.9929561742101 -0.0340481729407 -0.1134846157743
outer loop
vertex 98.6787300000000 161.2675600000000 38.0238300000000
vertex 98.8448600000000 162.8310900000000 39.0083200000000
vertex 98.8522900000000 160.8065900000000 39.6807300000000
endloop
endfacet
facet normal 0.4281669859510 0.4792223643252 -0.7661716241628
outer loop
vertex 97.1235400000000 164.1902000000000 35.7321200000000
vertex 95.9649300000000 165.6084100000000 35.9717000000000
vertex 97.7456900000000 165.5447800000000 36.9270600000000
endloop
endfacet
facet normal 0.9623947387700 0.2564636753808 -0.0895698051687
outer loop
vertex 98.7331400000000 159.9091200000000 43.7950700000000
vertex 99.0470200000000 159.5033600000000 46.0057900000000
vertex 99.1896500000000 158.3730500000000 44.3019000000000
endloop
endfacet
facet normal 0.9474161934641 0.2974487300064 -0.1180119035500
outer loop
vertex 99.1896500000000 158.3730500000000 44.3019000000000
vertex 99.0470200000000 159.5033600000000 46.0057900000000
vertex 99.5257000000000 157.8997400000000 45.8067800000000
endloop
endfacet
facet normal 0.9757728544139 0.2066017334457 -0.0719934741921
outer loop
vertex 98.9602200000000 157.5044200000000 38.8575600000000
vertex 99.0707600000000 156.4113800000000 37.2190500000000
vertex 98.7981900000000 157.7876400000000 37.4742300000000
endloop
endfacet
facet normal 0.9709316231023 0.1394566388017 -0.1945343906716
outer loop
vertex 98.5025300000000 157.8784300000000 36.0636600000000
vertex 98.6314400000000 159.3533800000000 37.7644100000000
vertex 98.7981900000000 157.7876400000000 37.4742300000000
endloop
endfacet
facet normal 0.9498310254628 0.1970507841392 -0.2428827114853
outer loop
vertex 97.9512300000000 159.6179900000000 35.3190200000000
vertex 98.6314400000000 159.3533800000000 37.7644100000000
vertex 98.5025300000000 157.8784300000000 36.0636600000000
endloop
endfacet
facet normal 0.6255657486198 0.6886996633111 -0.3665518625091
outer loop
vertex 97.7456900000000 165.5447800000000 36.9270600000000
vertex 96.4327900000000 166.9068000000000 37.2454800000000
vertex 97.6682400000000 166.4814000000000 38.5546600000000
endloop
endfacet
facet normal 0.9649728349436 0.2457245287058 -0.0919069301696
outer loop
vertex 99.0470200000000 159.5033600000000 46.0057900000000
vertex 98.7331400000000 159.9091200000000 43.7950700000000
vertex 98.5277500000000 161.1932400000000 45.0718400000000
endloop
endfacet
facet normal 0.9580956796806 0.2830708609459 -0.0438583659142
outer loop
vertex 98.6616100000000 161.1983100000000 46.9418100000000
vertex 98.5849600000000 161.7427700000000 48.7814300000000
vertex 99.0906600000000 159.9615500000000 48.3322000000000
endloop
endfacet
facet normal 0.9729105048358 0.2295523962208 -0.0274015869857
outer loop
vertex 98.5849600000000 161.7427700000000 48.7814300000000
vertex 98.6616100000000 161.1983100000000 46.9418100000000
vertex 98.4006700000000 162.3596200000000 47.4056600000000
endloop
endfacet
facet normal 0.9756827919916 0.2176514147507 -0.0259027231867
outer loop
vertex 98.4006700000000 162.3596200000000 47.4056600000000
vertex 98.1457400000000 163.4558600000000 47.0144800000000
vertex 98.2847500000000 162.9789000000000 48.2428700000000
endloop
endfacet
facet normal 0.9765031353547 0.2103183277009 -0.0469875268089
outer loop
vertex 98.1457400000000 163.4558600000000 47.0144800000000
vertex 98.4006700000000 162.3596200000000 47.4056600000000
vertex 98.3223700000000 162.4205900000000 46.0513200000000
endloop
endfacet
facet normal 0.9786513937582 0.1470292564858 -0.1436100526853
outer loop
vertex 100.1348000000000 152.1093500000000 38.7668300000000
vertex 99.9401800000000 154.0332500000000 39.4102700000000
vertex 100.3568000000000 152.5738400000000 40.7552300000000
endloop
endfacet
facet normal 0.9716108966151 0.2365804106941 0.0014052952288
outer loop
vertex 98.5849600000000 161.7427700000000 48.7814300000000
vertex 98.2847500000000 162.9789000000000 48.2428700000000
vertex 98.2440300000000 163.1378700000000 49.6339000000000
endloop
endfacet
facet normal 0.9625941379296 0.2541166496134 -0.0940066700444
outer loop
vertex 99.3017500000000 156.8377800000000 41.2145800000000
vertex 98.9534000000000 158.6035200000000 42.4207100000000
vertex 99.3509600000000 157.3683400000000 43.1526700000000
endloop
endfacet
facet normal 0.9531639719881 0.2846869917281 -0.1021359840837
outer loop
vertex 99.3017500000000 156.8377800000000 41.2145800000000
vertex 99.3509600000000 157.3683400000000 43.1526700000000
vertex 99.7450800000000 156.0655400000000 43.1993800000000
endloop
endfacet
facet normal 0.9496483074851 0.2895078814494 -0.1198051696272
outer loop
vertex 99.3509600000000 157.3683400000000 43.1526700000000
vertex 99.1896500000000 158.3730500000000 44.3019000000000
vertex 99.6556900000000 156.9759300000000 44.6198900000000
endloop
endfacet
facet normal 0.9555083769260 0.2751106120568 -0.1063855852922
outer loop
vertex 99.8213500000000 155.3191900000000 41.9543600000000
vertex 99.3017500000000 156.8377800000000 41.2145800000000
vertex 99.7450800000000 156.0655400000000 43.1993800000000
endloop
endfacet
facet normal 0.9835474428336 0.1796178723279 -0.0192833512626
outer loop
vertex 98.1457400000000 163.4558600000000 47.0144800000000
vertex 97.8394100000000 165.0860400000000 46.5746900000000
vertex 98.0374500000000 164.1953300000000 48.3790600000000
endloop
endfacet
facet normal 0.9800671184196 0.1985761587258 0.0059960468929
outer loop
vertex 98.2440300000000 163.1378700000000 49.6339000000000
vertex 98.2847500000000 162.9789000000000 48.2428700000000
vertex 98.0374500000000 164.1953300000000 48.3790600000000
endloop
endfacet
facet normal 0.9932215622166 0.1063601091794 0.0468876905317
outer loop
vertex 98.0406500000000 163.7666000000000 44.0509400000000
vertex 98.0135800000000 164.4538300000000 43.0654500000000
vertex 97.8951100000000 164.9267000000000 44.5023400000000
endloop
endfacet
facet normal 0.9840544393391 0.1766464810642 -0.0208057959388
outer loop
vertex 97.8394100000000 165.0860400000000 46.5746900000000
vertex 97.7494700000000 165.8269300000000 48.6111300000000
vertex 98.0374500000000 164.1953300000000 48.3790600000000
endloop
endfacet
facet normal 0.9854813658273 0.1697511272415 -0.0033215068027
outer loop
vertex 98.9534000000000 158.6035200000000 42.4207100000000
vertex 98.6566600000000 160.3134100000000 41.7655900000000
vertex 98.7331400000000 159.9091200000000 43.7950700000000
endloop
endfacet
facet normal 0.9623308971707 0.2567630304530 -0.0893979336633
outer loop
vertex 98.9534000000000 158.6035200000000 42.4207100000000
vertex 99.1896500000000 158.3730500000000 44.3019000000000
vertex 99.3509600000000 157.3683400000000 43.1526700000000
endloop
endfacet
facet normal 0.9623953606551 0.2565075719247 -0.0894373262952
outer loop
vertex 98.9534000000000 158.6035200000000 42.4207100000000
vertex 98.7331400000000 159.9091200000000 43.7950700000000
vertex 99.1896500000000 158.3730500000000 44.3019000000000
endloop
endfacet
facet normal 0.9803312715801 0.1938159221213 -0.0372288368654
outer loop
vertex 98.7331400000000 159.9091200000000 43.7950700000000
vertex 98.3863100000000 161.5474400000000 43.1913500000000
vertex 98.5277500000000 161.1932400000000 45.0718400000000
endloop
endfacet
facet normal 0.9848576109374 0.1733296376444 0.0035103977991
outer loop
vertex 97.7494700000000 165.8269300000000 48.6111300000000
vertex 97.9450700000000 164.6834000000000 50.1977000000000
vertex 98.0374500000000 164.1953300000000 48.3790600000000
endloop
endfacet
facet normal 0.9898757297930 0.1110632812059 0.0883797891747
outer loop
vertex 98.0135800000000 164.4538300000000 43.0654500000000
vertex 98.1793300000000 163.1558000000000 42.8401900000000
vertex 98.1909100000000 164.4391400000000 41.0977700000000
endloop
endfacet
facet normal 0.9817171252908 0.1903418251687 -0.0012147025116
outer loop
vertex 97.9450700000000 164.6834000000000 50.1977000000000
vertex 98.2440300000000 163.1378700000000 49.6339000000000
vertex 98.0374500000000 164.1953300000000 48.3790600000000
endloop
endfacet
facet normal 0.9896989771493 0.1423050385913 0.0156592024408
outer loop
vertex 97.8951100000000 164.9267000000000 44.5023400000000
vertex 97.8394100000000 165.0860400000000 46.5746900000000
vertex 98.0552900000000 163.7096700000000 45.4385000000000
endloop
endfacet
facet normal 0.9637292744172 0.2576232337353 -0.0696861182097
outer loop
vertex 99.0470200000000 159.5033600000000 46.0057900000000
vertex 98.5277500000000 161.1932400000000 45.0718400000000
vertex 98.6616100000000 161.1983100000000 46.9418100000000
endloop
endfacet
facet normal 0.9639278411034 0.2571379280907 -0.0687255635325
outer loop
vertex 99.0470200000000 159.5033600000000 46.0057900000000
vertex 98.6616100000000 161.1983100000000 46.9418100000000
vertex 99.0906600000000 159.9615500000000 48.3322000000000
endloop
endfacet
facet normal 0.9742566969008 0.2233899562186 -0.0303449502303
outer loop
vertex 98.5849600000000 161.7427700000000 48.7814300000000
vertex 98.4006700000000 162.3596200000000 47.4056600000000
vertex 98.2847500000000 162.9789000000000 48.2428700000000
endloop
endfacet
facet normal 0.9352224707411 0.3436502420553 -0.0852258256414
outer loop
vertex 99.0470200000000 159.5033600000000 46.0057900000000
vertex 99.0906600000000 159.9615500000000 48.3322000000000
vertex 99.7570400000000 158.0098300000000 47.7749100000000
endloop
endfacet
facet normal 0.9458948568761 0.2982173299887 -0.1278645526709
outer loop
vertex 99.5257000000000 157.8997400000000 45.8067800000000
vertex 99.0470200000000 159.5033600000000 46.0057900000000
vertex 99.7570400000000 158.0098300000000 47.7749100000000
endloop
endfacet
facet normal 0.9316418949873 0.3398910330856 -0.1285202907423
outer loop
vertex 99.5257000000000 157.8997400000000 45.8067800000000
vertex 99.7570400000000 158.0098300000000 47.7749100000000
vertex 100.0570300000000 156.6364100000000 46.3173200000000
endloop
endfacet
facet normal 0.9314924056193 0.3293865794429 -0.1543579591611
outer loop
vertex 99.6556900000000 156.9759300000000 44.6198900000000
vertex 99.5257000000000 157.8997400000000 45.8067800000000
vertex 100.0570300000000 156.6364100000000 46.3173200000000
endloop
endfacet
facet normal 0.9706250293291 0.2362596774726 -0.0454798553251
outer loop
vertex 98.4006700000000 162.3596200000000 47.4056600000000
vertex 98.6616100000000 161.1983100000000 46.9418100000000
vertex 98.3223700000000 162.4205900000000 46.0513200000000
endloop
endfacet
facet normal 0.9345589705542 0.3192417440062 -0.1571121874347
outer loop
vertex 99.6556900000000 156.9759300000000 44.6198900000000
vertex 100.0570300000000 156.6364100000000 46.3173200000000
vertex 100.1987800000000 155.5338800000000 44.9202300000000
endloop
endfacet
facet normal 0.9781137713526 0.2051173069887 -0.0349333746442
outer loop
vertex 98.3863100000000 161.5474400000000 43.1913500000000
vertex 98.2053700000000 162.6226300000000 44.4383000000000
vertex 98.5277500000000 161.1932400000000 45.0718400000000
endloop
endfacet
facet normal 0.9786426976765 0.2003818550403 -0.0458866261025
outer loop
vertex 98.5277500000000 161.1932400000000 45.0718400000000
vertex 98.2053700000000 162.6226300000000 44.4383000000000
vertex 98.3223700000000 162.4205900000000 46.0513200000000
endloop
endfacet
facet normal 0.9823880637852 0.1804046637829 -0.0486605529951
outer loop
vertex 98.3223700000000 162.4205900000000 46.0513200000000
vertex 98.2053700000000 162.6226300000000 44.4383000000000
vertex 98.0552900000000 163.7096700000000 45.4385000000000
endloop
endfacet
facet normal 0.9906134698984 0.1336966505803 0.0284632900324
outer loop
vertex 98.1793300000000 163.1558000000000 42.8401900000000
vertex 98.2053700000000 162.6226300000000 44.4383000000000
vertex 98.3863100000000 161.5474400000000 43.1913500000000
endloop
endfacet
facet normal 0.9837554965841 0.1773319900081 -0.0279014024810
outer loop
vertex 97.8394100000000 165.0860400000000 46.5746900000000
vertex 98.1457400000000 163.4558600000000 47.0144800000000
vertex 98.0552900000000 163.7096700000000 45.4385000000000
endloop
endfacet
facet normal 0.9787409601183 0.2025721606071 -0.0321037806746
outer loop
vertex 98.2847500000000 162.9789000000000 48.2428700000000
vertex 98.1457400000000 163.4558600000000 47.0144800000000
vertex 98.0374500000000 164.1953300000000 48.3790600000000
endloop
endfacet
facet normal 0.9419245381626 0.2971052186692 -0.1565460106382
outer loop
vertex 99.7450800000000 156.0655400000000 43.1993800000000
vertex 100.1987800000000 155.5338800000000 44.9202300000000
vertex 100.2959400000000 154.3797100000000 43.3143600000000
endloop
endfacet
facet normal 0.9458356475343 0.3007169831729 -0.1223283445677
outer loop
vertex 99.8213500000000 155.3191900000000 41.9543600000000
vertex 99.7450800000000 156.0655400000000 43.1993800000000
vertex 100.2959400000000 154.3797100000000 43.3143600000000
endloop
endfacet
facet normal 0.9353574149076 0.3215969233719 -0.1472478361645
outer loop
vertex 99.7450800000000 156.0655400000000 43.1993800000000
vertex 99.6556900000000 156.9759300000000 44.6198900000000
vertex 100.1987800000000 155.5338800000000 44.9202300000000
endloop
endfacet
facet normal 0.9512393409006 0.2834008454006 -0.1217689498569
outer loop
vertex 99.7450800000000 156.0655400000000 43.1993800000000
vertex 99.3509600000000 157.3683400000000 43.1526700000000
vertex 99.6556900000000 156.9759300000000 44.6198900000000
endloop
endfacet
facet normal 0.9495811529721 0.2891925813218 -0.1210920510545
outer loop
vertex 99.1896500000000 158.3730500000000 44.3019000000000
vertex 99.5257000000000 157.8997400000000 45.8067800000000
vertex 99.6556900000000 156.9759300000000 44.6198900000000
endloop
endfacet
facet normal 0.9732091546309 0.2189235065966 -0.0702598007547
outer loop
vertex 98.6616100000000 161.1983100000000 46.9418100000000
vertex 98.5277500000000 161.1932400000000 45.0718400000000
vertex 98.3223700000000 162.4205900000000 46.0513200000000
endloop
endfacet
facet normal 0.9812267353890 0.1911605450276 -0.0255291947122
outer loop
vertex 98.1457400000000 163.4558600000000 47.0144800000000
vertex 98.3223700000000 162.4205900000000 46.0513200000000
vertex 98.0552900000000 163.7096700000000 45.4385000000000
endloop
endfacet
facet normal 0.9515060714863 0.2716355628790 -0.1443963881273
outer loop
vertex 100.0898400000000 154.0879700000000 41.4074400000000
vertex 99.8213500000000 155.3191900000000 41.9543600000000
vertex 100.2959400000000 154.3797100000000 43.3143600000000
endloop
endfacet
facet normal 0.9580791106834 0.2490377851966 -0.1416495648297
outer loop
vertex 100.5132800000000 153.0043600000000 42.3663500000000
vertex 100.0898400000000 154.0879700000000 41.4074400000000
vertex 100.2959400000000 154.3797100000000 43.3143600000000
endloop
endfacet
facet normal 0.9919528279809 0.1264980305041 -0.0052759206989
outer loop
vertex 98.0406500000000 163.7666000000000 44.0509400000000
vertex 97.8951100000000 164.9267000000000 44.5023400000000
vertex 98.0552900000000 163.7096700000000 45.4385000000000
endloop
endfacet
facet normal 0.9777763674226 0.2084161417833 -0.0227175516741
outer loop
vertex 99.3017500000000 156.8377800000000 41.2145800000000
vertex 98.8415300000000 158.8953600000000 40.2831700000000
vertex 98.9534000000000 158.6035200000000 42.4207100000000
endloop
endfacet
facet normal 0.6896128868860 0.0062061181644 -0.7241516072882
outer loop
vertex 97.9356200000000 152.8618800000000 34.2043300000000
vertex 96.9439400000000 153.6484900000000 33.2666900000000
vertex 98.2304500000000 154.3288300000000 34.4976700000000
endloop
endfacet
facet normal 0.9900026318265 0.1409718389925 -0.0046615005737
outer loop
vertex 98.2053700000000 162.6226300000000 44.4383000000000
vertex 98.0406500000000 163.7666000000000 44.0509400000000
vertex 98.0552900000000 163.7096700000000 45.4385000000000
endloop
endfacet
facet normal 0.9566613718730 0.2239744334904 -0.1861033925232
outer loop
vertex 99.0707600000000 156.4113800000000 37.2190500000000
vertex 98.5025300000000 157.8784300000000 36.0636600000000
vertex 98.7981900000000 157.7876400000000 37.4742300000000
endloop
endfacet
endsolid WRAP
