solid WRAP
facet normal -0.9491543716624 -0.3092422607584 -0.0589508516924
outer loop
vertex 77.5072371055802 203.1529830607212 88.9590376160387
vertex 78.7628097303908 199.3045399874234 88.9313703416017
vertex 78.7941156961567 198.5858401488899 92.1974498481974
endloop
endfacet
facet normal -0.9484295675202 -0.3089186800876 -0.0710676054646
outer loop
vertex 77.5072371055802 203.1529830607212 88.9590376160387
vertex 78.4603588831305 201.0080482193231 85.5628568439462
vertex 78.7628097303908 199.3045399874234 88.9313703416017
endloop
endfacet
facet normal -0.9979303846646 0.0630653233788 0.0125583577868
outer loop
vertex 75.5722211138454 216.0107153464442 110.7139483432071
vertex 75.4635931744313 215.9458082570040 102.4079471485660
vertex 75.2954468037475 212.5213995068235 106.2430881481024
endloop
endfacet
facet normal -0.9694825039657 -0.2353914686064 0.0685166476979
outer loop
vertex 82.1809544761658 191.4469492258127 134.9560342229288
vertex 82.3176617742055 189.8256360169713 131.3203052131750
vertex 83.3674552469905 186.4968021571343 134.7381214884426
endloop
endfacet
facet normal -0.9828786935911 -0.0580238436658 0.1748791218269
outer loop
vertex 77.4887480898177 205.6424086927731 123.5909146408265
vertex 76.7695204085685 211.8345483193294 121.6031312024089
vertex 76.1536865106463 205.8229853898520 116.1473398266339
endloop
endfacet
facet normal -0.9640497650130 -0.2612043670824 -0.0487886174783
outer loop
vertex 77.5072371055802 203.1529830607212 88.9590376160387
vertex 77.6648578283973 201.8137543007292 93.0144544338485
vertex 76.6946790789780 205.6875620857726 91.4453401762648
endloop
endfacet
facet normal -0.9611289298576 -0.2675406339369 -0.0682142901701
outer loop
vertex 76.6845710614387 203.3898663598276 99.9598302500105
vertex 77.1488165755791 202.6467538188917 96.3332148693966
vertex 77.4838483580702 200.4161875070282 100.3610862414406
endloop
endfacet
facet normal -0.9415850690012 -0.2991326259195 0.1547166117280
outer loop
vertex 81.6315185879733 190.2982130887646 126.3302832372331
vertex 80.6753612522050 195.4349796194818 130.4427762849224
vertex 78.6170911983805 197.2243272789169 121.3759794430304
endloop
endfacet
facet normal -0.9253371241920 -0.3627078452563 -0.1104274675141
outer loop
vertex 78.3659395634346 198.8200429845197 96.3437559812524
vertex 80.3769624212307 194.7346711207377 92.9109354098143
vertex 79.8236087064896 194.8285440381569 97.2394806731881
endloop
endfacet
facet normal -0.9717159097750 -0.1392271128261 0.1907459088535
outer loop
vertex 77.4887480898177 205.6424086927731 123.5909146408265
vertex 77.2274500534771 201.5156267718935 119.2476110481475
vertex 78.8539617020442 200.7207674069383 126.9533662105845
endloop
endfacet
facet normal -0.9064758187556 -0.4177961116496 0.0612209041249
outer loop
vertex 83.8454629732537 182.7448245545397 116.6192031958294
vertex 84.6190422782554 181.5472491221399 119.9005754277736
vertex 81.1613771808868 188.9388908880852 119.1477180131392
endloop
endfacet
facet normal -0.9908258374131 0.0151305644814 0.1342952937859
outer loop
vertex 75.9451898091442 211.6901722090639 115.5375160831424
vertex 76.7695204085685 211.8345483193294 121.6031312024089
vertex 76.2962039585290 216.5370166900059 117.5812094086531
endloop
endfacet
facet normal -0.9835345915061 -0.1728697590918 -0.0526854221057
outer loop
vertex 75.4842931561094 208.4982544222693 104.3487205272953
vertex 76.0956262156110 205.7107546440085 102.0825757182953
vertex 75.7688807523204 205.3442139134088 109.3849614292465
endloop
endfacet
facet normal -0.9928001402270 -0.1014549308510 0.0636771432413
outer loop
vertex 75.7688807523204 205.3442139134088 109.3849614292465
vertex 76.1536865106463 205.8229853898520 116.1473398266339
vertex 75.4760319683941 209.3272126245749 111.1651063808506
endloop
endfacet
facet normal -0.8848911617560 -0.4652654617963 0.0222639148768
outer loop
vertex 86.5828452066901 177.5847815778867 117.5846922579909
vertex 83.8454629732537 182.7448245545397 116.6192031958294
vertex 85.0168546187227 180.3983955697390 114.1417300532802
endloop
endfacet
facet normal -0.9314441160571 -0.3508596149878 -0.0964851762357
outer loop
vertex 79.3776341376880 193.5410116274450 106.0321162372726
vertex 80.2314393160507 190.2519134058533 109.7501995743775
vertex 78.7424927980857 193.7540183778343 111.3890344434733
endloop
endfacet
facet normal -0.9771446812158 -0.2055911962523 -0.0540419466275
outer loop
vertex 75.7688807523204 205.3442139134088 109.3849614292465
vertex 76.0956262156110 205.7107546440085 102.0825757182953
vertex 76.6685161433166 202.4399415972229 104.1671420275573
endloop
endfacet
facet normal -0.9986883479031 0.0176183469768 0.0480747086556
outer loop
vertex 75.5722211138454 216.0107153464442 110.7139483432071
vertex 75.2954468037475 212.5213995068235 106.2430881481024
vertex 75.4760319683941 209.3272126245749 111.1651063808506
endloop
endfacet
facet normal -0.9733376705901 -0.1536208347263 0.1703361915397
outer loop
vertex 77.4887480898177 205.6424086927731 123.5909146408265
vertex 78.8539617020442 200.7207674069383 126.9533662105845
vertex 78.5226741660117 204.7465866495429 128.6910772114766
endloop
endfacet
facet normal -0.9586039174342 -0.2639495182454 0.1068137692337
outer loop
vertex 81.6315185879733 190.2982130887646 126.3302832372331
vertex 82.3176617742055 189.8256360169713 131.3203052131750
vertex 80.6753612522050 195.4349796194818 130.4427762849224
endloop
endfacet
facet normal -0.9926423310170 -0.0229168879999 0.1188949911374
outer loop
vertex 76.1536865106463 205.8229853898520 116.1473398266339
vertex 75.9451898091442 211.6901722090639 115.5375160831424
vertex 75.4760319683941 209.3272126245749 111.1651063808506
endloop
endfacet
facet normal -0.9777281071467 -0.1196026476705 0.1724614599428
outer loop
vertex 77.4887480898177 205.6424086927731 123.5909146408265
vertex 76.1536865106463 205.8229853898520 116.1473398266339
vertex 77.2274500534771 201.5156267718935 119.2476110481475
endloop
endfacet
facet normal -0.9952070044045 0.0207735705350 0.0955587628184
outer loop
vertex 75.9451898091442 211.6901722090639 115.5375160831424
vertex 75.5722211138454 216.0107153464442 110.7139483432071
vertex 75.4760319683941 209.3272126245749 111.1651063808506
endloop
endfacet
facet normal -0.9585282232435 -0.2213764575931 0.1794884655601
outer loop
vertex 77.2274500534771 201.5156267718935 119.2476110481475
vertex 78.6170911983805 197.2243272789169 121.3759794430304
vertex 78.8539617020442 200.7207674069383 126.9533662105845
endloop
endfacet
facet normal -0.9450247797367 -0.2975915026972 0.1355266143823
outer loop
vertex 78.6170911983805 197.2243272789169 121.3759794430304
vertex 77.5716405238634 197.9747795337507 115.7339246873832
vertex 79.2639958004198 192.9568898469957 116.5163270273010
endloop
endfacet
facet normal -0.9606715631745 -0.2150862225231 0.1756361710716
outer loop
vertex 78.6170911983805 197.2243272789169 121.3759794430304
vertex 80.6753612522050 195.4349796194818 130.4427762849224
vertex 78.8539617020442 200.7207674069383 126.9533662105845
endloop
endfacet
facet normal -0.8844546557317 -0.4656433806778 -0.0302688616465
outer loop
vertex 83.9717299441825 182.7369928758361 108.7042288561832
vertex 85.0168546187227 180.3983955697390 114.1417300532802
vertex 82.4688676444785 185.3366590828717 112.6256249762303
endloop
endfacet
facet normal -0.9653100269512 -0.2598178557017 0.0259081787503
outer loop
vertex 77.5716405238634 197.9747795337507 115.7339246873832
vertex 76.5727424635885 200.9883454511478 108.7373665518836
vertex 77.6888048630843 196.9191106766847 109.5126573078407
endloop
endfacet
facet normal -0.9975163608932 -0.0547635656260 -0.0442951648635
outer loop
vertex 75.4842931561094 208.4982544222693 104.3487205272953
vertex 75.4644928302280 212.7438128375355 99.5456958962534
vertex 75.7566917588116 209.0008583155488 97.5929844306950
endloop
endfacet
facet normal -0.9046646424538 -0.4243916085241 0.0383881141541
outer loop
vertex 84.1436880365833 182.9439702227862 124.1394015088930
vertex 84.6190422782554 181.5472491221399 119.9005754277736
vertex 87.2242679348203 176.0991567125773 121.0658016185179
endloop
endfacet
facet normal -0.9426418374318 -0.3245588121590 -0.0780252765012
outer loop
vertex 77.4838483580702 200.4161875070282 100.3610862414406
vertex 78.3659395634346 198.8200429845197 96.3437559812524
vertex 78.8602581137218 196.2602812045950 101.0195214836997
endloop
endfacet
facet normal -0.9245139100374 -0.3648053382829 -0.1104132931659
outer loop
vertex 80.2314393160507 190.2519134058533 109.7501995743775
vertex 79.3776341376880 193.5410116274450 106.0321162372726
vertex 81.5277393655263 187.9642523818253 106.4544327048188
endloop
endfacet
facet normal -0.9543278681941 -0.2810494808047 -0.1013385875546
outer loop
vertex 77.6888048630843 196.9191106766847 109.5126573078407
vertex 76.5727424635885 200.9883454511478 108.7373665518836
vertex 77.7194868984446 198.4703170744208 104.9216472560067
endloop
endfacet
facet normal -0.9800296211659 -0.1521821666431 0.1279942568762
outer loop
vertex 77.2274500534771 201.5156267718935 119.2476110481475
vertex 76.1536865106463 205.8229853898520 116.1473398266339
vertex 76.4847236885884 202.1623633779128 114.3296399186381
endloop
endfacet
facet normal -0.9701307805515 -0.2400266416533 0.0351209328349
outer loop
vertex 76.5727424635885 200.9883454511478 108.7373665518836
vertex 77.5716405238634 197.9747795337507 115.7339246873832
vertex 76.4847236885884 202.1623633779128 114.3296399186381
endloop
endfacet
facet normal -0.9322112315604 -0.3409370318211 -0.1214255330879
outer loop
vertex 79.3776341376880 193.5410116274450 106.0321162372726
vertex 77.6888048630843 196.9191106766847 109.5126573078407
vertex 77.7194868984446 198.4703170744208 104.9216472560067
endloop
endfacet
facet normal -0.9204921939330 -0.3753609707286 -0.1086198074111
outer loop
vertex 79.3776341376880 193.5410116274450 106.0321162372726
vertex 78.8602581137218 196.2602812045950 101.0195214836997
vertex 80.8873765885419 191.1587848369270 101.4702302232386
endloop
endfacet
facet normal -0.8978193341438 -0.4375848316981 -0.0493959340974
outer loop
vertex 82.4688676444785 185.3366590828717 112.6256249762303
vertex 80.2314393160507 190.2519134058533 109.7501995743775
vertex 81.5277393655263 187.9642523818253 106.4544327048188
endloop
endfacet
facet normal -0.8673858415483 -0.4974907150189 -0.0120328862560
outer loop
vertex 86.5828452066901 177.5847815778867 117.5846922579909
vertex 85.0168546187227 180.3983955697390 114.1417300532802
vertex 87.5421730007900 176.0238651047258 112.9668563949717
endloop
endfacet
facet normal -0.9601006996969 -0.2383991578845 0.1461933239290
outer loop
vertex 78.6170911983805 197.2243272789169 121.3759794430304
vertex 77.2274500534771 201.5156267718935 119.2476110481475
vertex 77.5716405238634 197.9747795337507 115.7339246873832
endloop
endfacet
facet normal -0.9779542142119 -0.2028595598691 -0.0495333612306
outer loop
vertex 76.0956262156110 205.7107546440085 102.0825757182953
vertex 76.6845710614387 203.3898663598276 99.9598302500105
vertex 76.6685161433166 202.4399415972229 104.1671420275573
endloop
endfacet
facet normal -0.9825718526523 -0.1702307511915 -0.0746595320389
outer loop
vertex 75.7688807523204 205.3442139134088 109.3849614292465
vertex 76.6685161433166 202.4399415972229 104.1671420275573
vertex 76.5727424635885 200.9883454511478 108.7373665518836
endloop
endfacet
facet normal -0.9261816638804 -0.3648347280734 -0.0953055438228
outer loop
vertex 79.3776341376880 193.5410116274450 106.0321162372726
vertex 78.7424927980857 193.7540183778343 111.3890344434733
vertex 77.6888048630843 196.9191106766847 109.5126573078407
endloop
endfacet
facet normal -0.9213617336038 -0.3792359032244 0.0852800419569
outer loop
vertex 81.1613771808868 188.9388908880852 119.1477180131392
vertex 79.2639958004198 192.9568898469957 116.5163270273010
vertex 80.7700039233971 189.0817999667315 115.5548481873691
endloop
endfacet
facet normal -0.9825018477551 -0.1847860002361 0.0233292364771
outer loop
vertex 75.7688807523204 205.3442139134088 109.3849614292465
vertex 76.5727424635885 200.9883454511478 108.7373665518836
vertex 76.4847236885884 202.1623633779128 114.3296399186381
endloop
endfacet
facet normal -0.9616195038242 -0.2667836235586 -0.0641438076972
outer loop
vertex 76.6685161433166 202.4399415972229 104.1671420275573
vertex 77.4838483580702 200.4161875070282 100.3610862414406
vertex 77.7194868984446 198.4703170744208 104.9216472560067
endloop
endfacet
facet normal -0.9539374936099 -0.2982246168311 0.0326394883734
outer loop
vertex 78.7424927980857 193.7540183778343 111.3890344434733
vertex 77.5716405238634 197.9747795337507 115.7339246873832
vertex 77.6888048630843 196.9191106766847 109.5126573078407
endloop
endfacet
facet normal -0.9906021558680 -0.0211570962591 0.1351286278611
outer loop
vertex 76.1536865106463 205.8229853898520 116.1473398266339
vertex 76.7695204085685 211.8345483193294 121.6031312024089
vertex 75.9451898091442 211.6901722090639 115.5375160831424
endloop
endfacet
facet normal -0.9784534881010 -0.1994391573432 -0.0534115543801
outer loop
vertex 76.6845710614387 203.3898663598276 99.9598302500105
vertex 76.0956262156110 205.7107546440085 102.0825757182953
vertex 76.4264405369296 205.3393510125596 97.4091674602003
endloop
endfacet
facet normal -0.9903486777258 0.1322884697764 0.0413431649856
outer loop
vertex 76.3662632332960 222.9150045461978 107.6425993036094
vertex 75.5722211138454 216.0107153464442 110.7139483432071
vertex 76.5530474137170 221.9697938984081 115.1413463497180
endloop
endfacet
facet normal -0.9943051760923 0.0287375280766 0.1026224696451
outer loop
vertex 75.5722211138454 216.0107153464442 110.7139483432071
vertex 75.9451898091442 211.6901722090639 115.5375160831424
vertex 76.2962039585290 216.5370166900059 117.5812094086531
endloop
endfacet
facet normal -0.8899898171344 -0.4558492625181 0.0109350472720
outer loop
vertex 85.0168546187227 180.3983955697390 114.1417300532802
vertex 83.8454629732537 182.7448245545397 116.6192031958294
vertex 82.4688676444785 185.3366590828717 112.6256249762303
endloop
endfacet
facet normal -0.9835209389333 -0.1729956226515 -0.0525269190336
outer loop
vertex 76.0956262156110 205.7107546440085 102.0825757182953
vertex 75.4842931561094 208.4982544222693 104.3487205272953
vertex 75.7566917588116 209.0008583155488 97.5929844306950
endloop
endfacet
facet normal -0.9469485327225 -0.3143248275513 -0.0669953667018
outer loop
vertex 77.5072371055802 203.1529830607212 88.9590376160387
vertex 78.7941156961567 198.5858401488899 92.1974498481974
vertex 77.6648578283973 201.8137543007292 93.0144544338485
endloop
endfacet
facet normal -0.8857661110380 -0.4623998221503 0.0400599676982
outer loop
vertex 84.6190422782554 181.5472491221399 119.9005754277736
vertex 83.8454629732537 182.7448245545397 116.6192031958294
vertex 86.5828452066901 177.5847815778867 117.5846922579909
endloop
endfacet
facet normal -0.9702531286478 -0.2294586392467 -0.0771854858393
outer loop
vertex 77.1488165755791 202.6467538188917 96.3332148693966
vertex 76.6845710614387 203.3898663598276 99.9598302500105
vertex 76.4264405369296 205.3393510125596 97.4091674602003
endloop
endfacet
facet normal -0.9587007822483 -0.2727541924956 -0.0806099286222
outer loop
vertex 76.6946790789780 205.6875620857726 91.4453401762648
vertex 77.6648578283973 201.8137543007292 93.0144544338485
vertex 77.1488165755791 202.6467538188917 96.3332148693966
endloop
endfacet
facet normal -0.9272441803035 -0.3609717020838 -0.0995874509564
outer loop
vertex 78.3659395634346 198.8200429845197 96.3437559812524
vertex 79.8236087064896 194.8285440381569 97.2394806731881
vertex 78.8602581137218 196.2602812045950 101.0195214836997
endloop
endfacet
facet normal -0.8702657460423 -0.4906362123660 -0.0437451526528
outer loop
vertex 85.0168546187227 180.3983955697390 114.1417300532802
vertex 83.9717299441825 182.7369928758361 108.7042288561832
vertex 87.5421730007900 176.0238651047258 112.9668563949717
endloop
endfacet
facet normal -0.9504384750991 -0.3024942454827 -0.0718605350746
outer loop
vertex 77.1488165755791 202.6467538188917 96.3332148693966
vertex 77.6648578283973 201.8137543007292 93.0144544338485
vertex 78.3659395634346 198.8200429845197 96.3437559812524
endloop
endfacet
facet normal -0.9192576747033 -0.3936114613732 0.0059451639854
outer loop
vertex 78.7424927980857 193.7540183778343 111.3890344434733
vertex 80.2314393160507 190.2519134058533 109.7501995743775
vertex 80.7700039233971 189.0817999667315 115.5548481873691
endloop
endfacet
facet normal -0.9630856533843 -0.2667796969127 0.0359807943292
outer loop
vertex 83.3674552469905 186.4968021571343 134.7381214884426
vertex 82.3176617742055 189.8256360169713 131.3203052131750
vertex 83.4357629796744 185.6482377675048 130.2748083152060
endloop
endfacet
facet normal -0.9283226662214 -0.3699390283055 0.0369072176675
outer loop
vertex 79.2639958004198 192.9568898469957 116.5163270273010
vertex 78.7424927980857 193.7540183778343 111.3890344434733
vertex 80.7700039233971 189.0817999667315 115.5548481873691
endloop
endfacet
facet normal -0.9384765070004 -0.3347823947012 -0.0847501858785
outer loop
vertex 78.8602581137218 196.2602812045950 101.0195214836997
vertex 79.3776341376880 193.5410116274450 106.0321162372726
vertex 77.7194868984446 198.4703170744208 104.9216472560067
endloop
endfacet
facet normal -0.9970019182660 -0.0769464964685 0.0081493346445
outer loop
vertex 75.4842931561094 208.4982544222693 104.3487205272953
vertex 75.7688807523204 205.3442139134088 109.3849614292465
vertex 75.4760319683941 209.3272126245749 111.1651063808506
endloop
endfacet
facet normal -0.9990575495696 -0.0344827735876 -0.0263619228002
outer loop
vertex 75.2954468037475 212.5213995068235 106.2430881481024
vertex 75.4644928302280 212.7438128375355 99.5456958962534
vertex 75.4842931561094 208.4982544222693 104.3487205272953
endloop
endfacet
facet normal -0.9826527654846 -0.1769570346072 -0.0554954988135
outer loop
vertex 76.0956262156110 205.7107546440085 102.0825757182953
vertex 75.7566917588116 209.0008583155488 97.5929844306950
vertex 76.4264405369296 205.3393510125596 97.4091674602003
endloop
endfacet
facet normal -0.9697583132523 -0.2372052748811 -0.0574671336220
outer loop
vertex 76.6946790789780 205.6875620857726 91.4453401762648
vertex 77.1488165755791 202.6467538188917 96.3332148693966
vertex 76.4264405369296 205.3393510125596 97.4091674602003
endloop
endfacet
facet normal -0.9176703587430 -0.3906351425191 -0.0727000558021
outer loop
vertex 78.3659395634346 198.8200429845197 96.3437559812524
vertex 78.7941156961567 198.5858401488899 92.1974498481974
vertex 80.3769624212307 194.7346711207377 92.9109354098143
endloop
endfacet
facet normal -0.9390684705062 -0.3212501228418 0.1222651474265
outer loop
vertex 81.6315185879733 190.2982130887646 126.3302832372331
vertex 78.6170911983805 197.2243272789169 121.3759794430304
vertex 81.1613771808868 188.9388908880852 119.1477180131392
endloop
endfacet
facet normal -0.9538650365497 -0.2814613037436 0.1045037154509
outer loop
vertex 82.3176617742055 189.8256360169713 131.3203052131750
vertex 81.6315185879733 190.2982130887646 126.3302832372331
vertex 83.4357629796744 185.6482377675048 130.2748083152060
endloop
endfacet
facet normal -0.9487101621567 -0.3124956341589 0.0479114480289
outer loop
vertex 77.5716405238634 197.9747795337507 115.7339246873832
vertex 78.7424927980857 193.7540183778343 111.3890344434733
vertex 79.2639958004198 192.9568898469957 116.5163270273010
endloop
endfacet
facet normal -0.9491610667607 -0.3021334211897 -0.0883666517745
outer loop
vertex 77.4838483580702 200.4161875070282 100.3610862414406
vertex 77.1488165755791 202.6467538188917 96.3332148693966
vertex 78.3659395634346 198.8200429845197 96.3437559812524
endloop
endfacet
facet normal -0.9826964337998 -0.1770132609599 -0.0545346169106
outer loop
vertex 75.7566917588116 209.0008583155488 97.5929844306950
vertex 76.6946790789780 205.6875620857726 91.4453401762648
vertex 76.4264405369296 205.3393510125596 97.4091674602003
endloop
endfacet
facet normal -0.9904208478334 -0.1218341011155 0.0649845826513
outer loop
vertex 76.1536865106463 205.8229853898520 116.1473398266339
vertex 75.7688807523204 205.3442139134088 109.3849614292465
vertex 76.4847236885884 202.1623633779128 114.3296399186381
endloop
endfacet
facet normal -0.9700433496582 -0.2120031813547 0.1186193528874
outer loop
vertex 77.5716405238634 197.9747795337507 115.7339246873832
vertex 77.2274500534771 201.5156267718935 119.2476110481475
vertex 76.4847236885884 202.1623633779128 114.3296399186381
endloop
endfacet
facet normal -0.9224304825060 -0.3747632788928 -0.0931369407767
outer loop
vertex 78.8602581137218 196.2602812045950 101.0195214836997
vertex 79.8236087064896 194.8285440381569 97.2394806731881
vertex 80.8873765885419 191.1587848369270 101.4702302232386
endloop
endfacet
facet normal -0.9103734536675 -0.4137862539453 0.0010539940237
outer loop
vertex 80.2314393160507 190.2519134058533 109.7501995743775
vertex 82.4688676444785 185.3366590828717 112.6256249762303
vertex 80.7700039233971 189.0817999667315 115.5548481873691
endloop
endfacet
facet normal -0.8960767156349 -0.4409488836013 -0.0510940480656
outer loop
vertex 83.9717299441825 182.7369928758361 108.7042288561832
vertex 82.4688676444785 185.3366590828717 112.6256249762303
vertex 81.5277393655263 187.9642523818253 106.4544327048188
endloop
endfacet
facet normal -0.9615485490295 -0.2670807942658 -0.0639705963201
outer loop
vertex 76.6845710614387 203.3898663598276 99.9598302500105
vertex 77.4838483580702 200.4161875070282 100.3610862414406
vertex 76.6685161433166 202.4399415972229 104.1671420275573
endloop
endfacet
facet normal -0.9994656395689 0.0216275560864 -0.0245088583759
outer loop
vertex 75.2954468037475 212.5213995068235 106.2430881481024
vertex 75.4635931744313 215.9458082570040 102.4079471485660
vertex 75.4644928302280 212.7438128375355 99.5456958962534
endloop
endfacet
facet normal -0.9410315126489 -0.3259975536264 -0.0904725772332
outer loop
vertex 77.4838483580702 200.4161875070282 100.3610862414406
vertex 78.8602581137218 196.2602812045950 101.0195214836997
vertex 77.7194868984446 198.4703170744208 104.9216472560067
endloop
endfacet
facet normal -0.9987812326330 -0.0491259108649 0.0047638452701
outer loop
vertex 75.2954468037475 212.5213995068235 106.2430881481024
vertex 75.4842931561094 208.4982544222693 104.3487205272953
vertex 75.4760319683941 209.3272126245749 111.1651063808506
endloop
endfacet
facet normal -0.9019643586050 -0.4240719171253 0.0813836894711
outer loop
vertex 83.8454629732537 182.7448245545397 116.6192031958294
vertex 81.1613771808868 188.9388908880852 119.1477180131392
vertex 80.7700039233971 189.0817999667315 115.5548481873691
endloop
endfacet
facet normal -0.9937093848926 0.0814821035010 0.0768265916556
outer loop
vertex 76.5530474137170 221.9697938984081 115.1413463497180
vertex 76.2962039585290 216.5370166900059 117.5812094086531
vertex 76.7363911211932 220.4214503320079 119.1549651614799
endloop
endfacet
facet normal -0.9910938650179 0.0906600552454 0.0975382238243
outer loop
vertex 75.5722211138454 216.0107153464442 110.7139483432071
vertex 76.2962039585290 216.5370166900059 117.5812094086531
vertex 76.5530474137170 221.9697938984081 115.1413463497180
endloop
endfacet
facet normal -0.9420914357169 -0.3331789187566 0.0381514723838
outer loop
vertex 81.6315185879733 190.2982130887646 126.3302832372331
vertex 84.1436880365833 182.9439702227862 124.1394015088930
vertex 83.4357629796744 185.6482377675048 130.2748083152060
endloop
endfacet
facet normal -0.9470177412341 -0.3109995623714 -0.0802288600984
outer loop
vertex 77.6648578283973 201.8137543007292 93.0144544338485
vertex 78.7941156961567 198.5858401488899 92.1974498481974
vertex 78.3659395634346 198.8200429845197 96.3437559812524
endloop
endfacet
facet normal -0.9263048824042 -0.3544683353334 0.1277163422594
outer loop
vertex 84.1436880365833 182.9439702227862 124.1394015088930
vertex 81.6315185879733 190.2982130887646 126.3302832372331
vertex 81.1613771808868 188.9388908880852 119.1477180131392
endloop
endfacet
facet normal -0.9012153825211 -0.4323269578791 0.0300705137687
outer loop
vertex 82.4688676444785 185.3366590828717 112.6256249762303
vertex 83.8454629732537 182.7448245545397 116.6192031958294
vertex 80.7700039233971 189.0817999667315 115.5548481873691
endloop
endfacet
facet normal -0.9559444622578 -0.2734022617678 -0.1068708956588
outer loop
vertex 76.5727424635885 200.9883454511478 108.7373665518836
vertex 76.6685161433166 202.4399415972229 104.1671420275573
vertex 77.7194868984446 198.4703170744208 104.9216472560067
endloop
endfacet
facet normal -0.9292430635622 -0.3300237440520 0.1661073664335
outer loop
vertex 81.1613771808868 188.9388908880852 119.1477180131392
vertex 78.6170911983805 197.2243272789169 121.3759794430304
vertex 79.2639958004198 192.9568898469957 116.5163270273010
endloop
endfacet
facet normal -0.9238836659930 -0.3649242522645 -0.1151922819486
outer loop
vertex 81.5277393655263 187.9642523818253 106.4544327048188
vertex 79.3776341376880 193.5410116274450 106.0321162372726
vertex 80.8873765885419 191.1587848369270 101.4702302232386
endloop
endfacet
facet normal -0.9003441034530 -0.4347354939192 -0.0196353177758
outer loop
vertex 84.6190422782554 181.5472491221399 119.9005754277736
vertex 86.5828452066901 177.5847815778867 117.5846922579909
vertex 87.2242679348203 176.0991567125773 121.0658016185179
endloop
endfacet
facet normal -0.9066161471713 -0.4203454166821 0.0368360199087
outer loop
vertex 84.6190422782554 181.5472491221399 119.9005754277736
vertex 84.1436880365833 182.9439702227862 124.1394015088930
vertex 81.1613771808868 188.9388908880852 119.1477180131392
endloop
endfacet
facet normal -0.9598115364594 -0.2679649949048 0.0834060908159
outer loop
vertex 82.3176617742055 189.8256360169713 131.3203052131750
vertex 82.1809544761658 191.4469492258127 134.9560342229288
vertex 80.6753612522050 195.4349796194818 130.4427762849224
endloop
endfacet
facet normal -0.9810765018479 -0.1055403696305 0.1623272247655
outer loop
vertex 78.5226741660117 204.7465866495429 128.6910772114766
vertex 78.4507002744512 207.9973677706431 130.3696418992295
vertex 77.7659315745458 208.8266081108017 126.7701708338587
endloop
endfacet
facet normal -0.9690907324223 -0.2355150160799 0.0734563103760
outer loop
vertex 82.1809544761658 191.4469492258127 134.9560342229288
vertex 83.3674552469905 186.4968021571343 134.7381214884426
vertex 83.1964210837259 188.3934967631512 138.5628771377434
endloop
endfacet
facet normal -0.9906272976880 0.0162824516563 0.1356187260060
outer loop
vertex 76.2962039585290 216.5370166900059 117.5812094086531
vertex 76.7695204085685 211.8345483193294 121.6031312024089
vertex 76.8286089388940 217.8792422980715 121.3090145450705
endloop
endfacet
facet normal -0.9862068826466 -0.0657939484554 0.1518787047847
outer loop
vertex 76.7695204085685 211.8345483193294 121.6031312024089
vertex 77.4887480898177 205.6424086927731 123.5909146408265
vertex 77.7659315745458 208.8266081108017 126.7701708338587
endloop
endfacet
facet normal -0.9726849196146 -0.1574488054994 0.1705694017141
outer loop
vertex 78.5226741660117 204.7465866495429 128.6910772114766
vertex 79.7713396924173 200.8593228017638 132.2234404116102
vertex 79.1150313444458 205.1002822875901 132.3955273875303
endloop
endfacet
facet normal -0.9800279645117 -0.1079384481307 0.1670164069490
outer loop
vertex 78.4507002744512 207.9973677706431 130.3696418992295
vertex 78.5226741660117 204.7465866495429 128.6910772114766
vertex 79.1150313444458 205.1002822875901 132.3955273875303
endloop
endfacet
facet normal -0.9726024200569 -0.1548722791747 0.1733756316286
outer loop
vertex 78.5226741660117 204.7465866495429 128.6910772114766
vertex 78.8539617020442 200.7207674069383 126.9533662105845
vertex 79.7713396924173 200.8593228017638 132.2234404116102
endloop
endfacet
facet normal -0.9607540294580 -0.2168920680727 0.1729437067007
outer loop
vertex 78.8539617020442 200.7207674069383 126.9533662105845
vertex 80.6753612522050 195.4349796194818 130.4427762849224
vertex 79.7713396924173 200.8593228017638 132.2234404116102
endloop
endfacet
facet normal -0.9786827522827 -0.0960551263577 0.1815309424993
outer loop
vertex 77.4887480898177 205.6424086927731 123.5909146408265
vertex 78.5226741660117 204.7465866495429 128.6910772114766
vertex 77.7659315745458 208.8266081108017 126.7701708338587
endloop
endfacet
facet normal -0.9908850825676 0.0643379572205 0.1183527794589
outer loop
vertex 76.7363911211932 220.4214503320079 119.1549651614799
vertex 76.2962039585290 216.5370166900059 117.5812094086531
vertex 76.8286089388940 217.8792422980715 121.3090145450705
endloop
endfacet
facet normal -0.9850289354927 -0.0371161677679 0.1683460315314
outer loop
vertex 76.7695204085685 211.8345483193294 121.6031312024089
vertex 77.7659315745458 208.8266081108017 126.7701708338587
vertex 78.0724120090259 212.8192998997748 129.4437444863887
endloop
endfacet
facet normal -0.9866711915499 0.0163747177500 0.1619006744401
outer loop
vertex 76.7695204085685 211.8345483193294 121.6031312024089
vertex 78.0724120090259 212.8192998997748 129.4437444863887
vertex 77.6055031713182 219.8442614321871 125.8877539784125
endloop
endfacet
facet normal -0.9869660701079 0.0174320844031 0.1599815579658
outer loop
vertex 76.8286089388940 217.8792422980715 121.3090145450705
vertex 76.7695204085685 211.8345483193294 121.6031312024089
vertex 77.6055031713182 219.8442614321871 125.8877539784125
endloop
endfacet
facet normal -0.9832442054633 -0.0431271951097 0.1771182584173
outer loop
vertex 77.7659315745458 208.8266081108017 126.7701708338587
vertex 78.4507002744512 207.9973677706431 130.3696418992295
vertex 78.0724120090259 212.8192998997748 129.4437444863887
endloop
endfacet
facet normal -0.9724772099580 -0.1574639888598 0.1717357514459
outer loop
vertex 79.1150313444458 205.1002822875901 132.3955273875303
vertex 79.7713396924173 200.8593228017638 132.2234404116102
vertex 80.0454610216680 203.3998203823616 136.1050644914942
endloop
endfacet
facet normal -0.9689413102821 -0.1977256697539 0.1485169914497
outer loop
vertex 80.6753612522050 195.4349796194818 130.4427762849224
vertex 82.1809544761658 191.4469492258127 134.9560342229288
vertex 81.7254946846502 196.4478614874313 138.6424468939144
endloop
endfacet
facet normal -0.9661395671197 -0.2101573169158 0.1496938174828
outer loop
vertex 79.7713396924173 200.8593228017638 132.2234404116102
vertex 80.6753612522050 195.4349796194818 130.4427762849224
vertex 81.7254946846502 196.4478614874313 138.6424468939144
endloop
endfacet
facet normal -0.9760610804649 -0.1794667373705 0.1228676417099
outer loop
vertex 82.1809544761658 191.4469492258127 134.9560342229288
vertex 83.1964210837259 188.3934967631512 138.5628771377434
vertex 81.7254946846502 196.4478614874313 138.6424468939144
endloop
endfacet
facet normal -0.9692441519609 -0.1689006060597 0.1789926232065
outer loop
vertex 80.0454610216680 203.3998203823616 136.1050644914942
vertex 79.7713396924173 200.8593228017638 132.2234404116102
vertex 81.7254946846502 196.4478614874313 138.6424468939144
endloop
endfacet
endsolid WRAP
