solid WRAP
facet normal -0.9067846492432 0.1809763172682 0.3807744378040
outer loop
vertex 93.5591900000000 162.4932200000000 71.5700200000000
vertex 93.8925400000000 162.5249800000000 72.3487720000000
vertex 93.8246500000000 163.3684600000000 71.7862040000000
endloop
endfacet
facet normal -0.8973348251511 0.1717397553922 0.4065656994741
outer loop
vertex 93.5422600000000 163.3416700000000 71.1742550000000
vertex 93.5591900000000 162.4932200000000 71.5700200000000
vertex 93.8246500000000 163.3684600000000 71.7862040000000
endloop
endfacet
facet normal 0.7838772551430 0.2154680774673 0.5823314833168
outer loop
vertex 94.3100500000000 165.2627600000000 70.8913630000000
vertex 95.0061400000000 165.3850900000000 69.9090920000000
vertex 94.5480000000000 166.4813000000000 70.1201870000000
endloop
endfacet
facet normal 0.7541176832420 0.3188892086735 0.5741221058393
outer loop
vertex 95.0061400000000 165.3850900000000 69.9090920000000
vertex 94.3100500000000 165.2627600000000 70.8913630000000
vertex 94.9590400000000 164.3053700000000 70.5706760000000
endloop
endfacet
facet normal 0.8544548948021 0.3112235390508 0.4159888718337
outer loop
vertex 97.0890000000000 164.1410900000000 66.4373330000000
vertex 96.0947600000000 164.2952600000000 68.3641920000000
vertex 96.6651200000000 162.9856300000000 68.1724580000000
endloop
endfacet
facet normal 0.8780530360204 0.2374667748218 0.4154905495809
outer loop
vertex 96.1378800000000 165.3814100000000 67.5515840000000
vertex 95.5953100000000 166.3255000000000 68.1586140000000
vertex 95.5351400000000 165.3489900000000 68.8438790000000
endloop
endfacet
facet normal 0.8617066310193 0.2815877887043 0.4221018826183
outer loop
vertex 96.0947600000000 164.2952600000000 68.3641920000000
vertex 97.0890000000000 164.1410900000000 66.4373330000000
vertex 96.1378800000000 165.3814100000000 67.5515840000000
endloop
endfacet
facet normal 0.8689727003542 0.2738676821614 0.4121685804458
outer loop
vertex 96.0947600000000 164.2952600000000 68.3641920000000
vertex 96.1378800000000 165.3814100000000 67.5515840000000
vertex 95.5351400000000 165.3489900000000 68.8438790000000
endloop
endfacet
facet normal 0.8970993697907 0.1837772424963 0.4017942830127
outer loop
vertex 95.5953100000000 166.3255000000000 68.1586140000000
vertex 95.1963700000000 167.3910000000000 68.5619900000000
vertex 95.1039700000000 166.4148000000000 69.2148000000000
endloop
endfacet
facet normal 0.8909785101658 0.2227485456699 0.3956518416799
outer loop
vertex 95.5351400000000 165.3489900000000 68.8438790000000
vertex 95.5953100000000 166.3255000000000 68.1586140000000
vertex 95.1039700000000 166.4148000000000 69.2148000000000
endloop
endfacet
facet normal 0.8324176414631 0.2937340342679 0.4698948683415
outer loop
vertex 96.6651200000000 162.9856300000000 68.1724580000000
vertex 96.0947600000000 164.2952600000000 68.3641920000000
vertex 95.9594600000000 163.4250100000000 69.1478740000000
endloop
endfacet
facet normal 0.8737131291097 0.2105468803874 0.4385149703037
outer loop
vertex 95.1963700000000 167.3910000000000 68.5619900000000
vertex 94.7057500000000 167.4577000000000 69.5074940000000
vertex 95.1039700000000 166.4148000000000 69.2148000000000
endloop
endfacet
facet normal 0.8587357224378 0.2532828963290 0.4454444223877
outer loop
vertex 96.0947600000000 164.2952600000000 68.3641920000000
vertex 95.5351400000000 165.3489900000000 68.8438790000000
vertex 95.4786800000000 164.3571200000000 69.5167080000000
endloop
endfacet
facet normal 0.8791645238390 0.2061479412493 0.4296193272441
outer loop
vertex 95.0061400000000 165.3850900000000 69.9090920000000
vertex 95.5351400000000 165.3489900000000 68.8438790000000
vertex 95.1039700000000 166.4148000000000 69.2148000000000
endloop
endfacet
facet normal 0.8559739565476 0.2661042631954 0.4432799418217
outer loop
vertex 95.9594600000000 163.4250100000000 69.1478740000000
vertex 96.0947600000000 164.2952600000000 68.3641920000000
vertex 95.4786800000000 164.3571200000000 69.5167080000000
endloop
endfacet
facet normal 0.8311979263764 0.3092943248492 0.4620032768322
outer loop
vertex 96.1429700000000 162.3466600000000 69.5396340000000
vertex 96.6651200000000 162.9856300000000 68.1724580000000
vertex 95.9594600000000 163.4250100000000 69.1478740000000
endloop
endfacet
facet normal 0.8729079031414 0.2388811141377 0.4254028748630
outer loop
vertex 95.5351400000000 165.3489900000000 68.8438790000000
vertex 95.0061400000000 165.3850900000000 69.9090920000000
vertex 95.4786800000000 164.3571200000000 69.5167080000000
endloop
endfacet
facet normal 0.7235553268551 0.2792235695826 0.6312700588252
outer loop
vertex 94.5480000000000 166.4813000000000 70.1201870000000
vertex 94.7057500000000 167.4577000000000 69.5074940000000
vertex 94.0481300000000 167.6936000000000 70.1569080000000
endloop
endfacet
facet normal 0.8440131219338 0.1805409039436 0.5050216153858
outer loop
vertex 94.7057500000000 167.4577000000000 69.5074940000000
vertex 94.5480000000000 166.4813000000000 70.1201870000000
vertex 95.1039700000000 166.4148000000000 69.2148000000000
endloop
endfacet
facet normal 0.8429884067688 0.3045491742975 0.4434189288789
outer loop
vertex 96.1429700000000 162.3466600000000 69.5396340000000
vertex 95.9594600000000 163.4250100000000 69.1478740000000
vertex 95.4695200000000 163.3485200000000 70.1318390000000
endloop
endfacet
facet normal 0.8549547147288 0.2644008215305 0.4462562507539
outer loop
vertex 95.9594600000000 163.4250100000000 69.1478740000000
vertex 95.4786800000000 164.3571200000000 69.5167080000000
vertex 95.4695200000000 163.3485200000000 70.1318390000000
endloop
endfacet
facet normal 0.8399780448239 0.2956955463339 0.4549736564815
outer loop
vertex 96.1429700000000 162.3466600000000 69.5396340000000
vertex 95.4695200000000 163.3485200000000 70.1318390000000
vertex 95.4697700000000 162.4107100000000 70.7408770000000
endloop
endfacet
facet normal 0.8325928969200 0.2530918581790 0.4926799968762
outer loop
vertex 94.5480000000000 166.4813000000000 70.1201870000000
vertex 95.0061400000000 165.3850900000000 69.9090920000000
vertex 95.1039700000000 166.4148000000000 69.2148000000000
endloop
endfacet
facet normal -0.9625238026035 0.0804347867195 0.2589945453229
outer loop
vertex 93.5571200000000 164.9327200000001 70.3189790000000
vertex 93.4971000000000 163.7918900000000 70.4502240000000
vertex 93.7182700000000 164.1893300000000 71.1487460000000
endloop
endfacet
facet normal 0.8612304849259 0.2588974741754 0.4373261365387
outer loop
vertex 95.4786800000000 164.3571200000000 69.5167080000000
vertex 94.9590400000000 164.3053700000000 70.5706760000000
vertex 95.4695200000000 163.3485200000000 70.1318390000000
endloop
endfacet
facet normal 0.0828038450058 0.0039565712201 0.9965580107532
outer loop
vertex 94.5480000000000 166.4813000000000 70.1201870000000
vertex 94.0481300000000 167.6936000000000 70.1569080000000
vertex 93.6237700000000 166.3428000000000 70.1975310000000
endloop
endfacet
facet normal -0.0096984109622 0.5360983344575 0.8440998262153
outer loop
vertex 94.3100500000000 165.2627600000000 70.8913630000000
vertex 94.5480000000000 166.4813000000000 70.1201870000000
vertex 93.6237700000000 166.3428000000000 70.1975310000000
endloop
endfacet
facet normal 0.7609552328651 0.3284049366524 0.5595510085395
outer loop
vertex 94.9590400000000 164.3053700000000 70.5706760000000
vertex 94.3100500000000 165.2627600000000 70.8913630000000
vertex 94.4387200000000 164.0113400000001 71.4508480000000
endloop
endfacet
facet normal 0.7725681997875 0.3030451950591 0.5579444295167
outer loop
vertex 94.9590400000000 164.3053700000000 70.5706760000000
vertex 94.4387200000000 164.0113400000001 71.4508480000000
vertex 94.9448400000000 163.2776300000000 71.1485510000000
endloop
endfacet
facet normal 0.8543130689199 0.2457226615330 0.4580060631496
outer loop
vertex 95.4695200000000 163.3485200000000 70.1318390000000
vertex 94.9590400000000 164.3053700000000 70.5706760000000
vertex 94.9448400000000 163.2776300000000 71.1485510000000
endloop
endfacet
facet normal 0.8404794440434 0.2952724716935 0.4543219911038
outer loop
vertex 95.4697700000000 162.4107100000000 70.7408770000000
vertex 95.4695200000000 163.3485200000000 70.1318390000000
vertex 94.9448400000000 163.2776300000000 71.1485510000000
endloop
endfacet
facet normal 0.7729645074463 0.3741699677489 0.5123696960819
outer loop
vertex 94.9956500000000 162.3675800000000 71.7364840000000
vertex 94.9448400000000 163.2776300000000 71.1485510000000
vertex 94.4967700000000 163.0579500000000 71.9849390000000
endloop
endfacet
facet normal 0.8505451237590 0.3180631259793 0.4188183858692
outer loop
vertex 95.4697700000000 162.4107100000000 70.7408770000000
vertex 94.9448400000000 163.2776300000000 71.1485510000000
vertex 94.9956500000000 162.3675800000000 71.7364840000000
endloop
endfacet
facet normal -0.6287586432201 0.0961786809745 0.7716295937184
outer loop
vertex 93.5571200000000 164.9327200000001 70.3189790000000
vertex 94.3100500000000 165.2627600000000 70.8913630000000
vertex 93.6237700000000 166.3428000000000 70.1975310000000
endloop
endfacet
facet normal -0.6526301971408 0.4969345061216 0.5719527274222
outer loop
vertex 94.3100500000000 165.2627600000000 70.8913630000000
vertex 93.5571200000000 164.9327200000001 70.3189790000000
vertex 93.7182700000000 164.1893300000000 71.1487460000000
endloop
endfacet
facet normal -0.9606202096754 0.2051065326407 0.1874569898173
outer loop
vertex 93.4971000000000 163.7918900000000 70.4502240000000
vertex 93.5422600000000 163.3416700000000 71.1742550000000
vertex 93.7182700000000 164.1893300000000 71.1487460000000
endloop
endfacet
facet normal 0.7911527988458 0.3348796192542 0.5117937958658
outer loop
vertex 94.9448400000000 163.2776300000000 71.1485510000000
vertex 94.4387200000000 164.0113400000001 71.4508480000000
vertex 94.4967700000000 163.0579500000000 71.9849390000000
endloop
endfacet
facet normal -0.2809741659468 0.3674797416451 0.8865732668826
outer loop
vertex 94.3100500000000 165.2627600000000 70.8913630000000
vertex 93.7182700000000 164.1893300000000 71.1487460000000
vertex 94.4387200000000 164.0113400000001 71.4508480000000
endloop
endfacet
facet normal 0.7905002368682 0.4063063724632 0.4582843082706
outer loop
vertex 94.9956500000000 162.3675800000000 71.7364840000000
vertex 94.4967700000000 163.0579500000000 71.9849390000000
vertex 94.5635400000000 162.2277100000000 72.6058420000000
endloop
endfacet
facet normal -0.8933392532955 0.1976402908051 0.4035880250600
outer loop
vertex 93.5422600000000 163.3416700000000 71.1742550000000
vertex 93.8246500000000 163.3684600000000 71.7862040000000
vertex 93.7182700000000 164.1893300000000 71.1487460000000
endloop
endfacet
facet normal -0.1850923948873 0.5876698899498 0.7876451649069
outer loop
vertex 93.7182700000000 164.1893300000000 71.1487460000000
vertex 93.8246500000000 163.3684600000000 71.7862040000000
vertex 94.4387200000000 164.0113400000001 71.4508480000000
endloop
endfacet
facet normal -0.0331194444222 0.4869337666191 0.8728107522982
outer loop
vertex 94.4387200000000 164.0113400000001 71.4508480000000
vertex 93.8246500000000 163.3684600000000 71.7862040000000
vertex 94.4967700000000 163.0579500000000 71.9849390000000
endloop
endfacet
facet normal 0.0107455132450 0.5554359524415 0.8314898897043
outer loop
vertex 93.8246500000000 163.3684600000000 71.7862040000000
vertex 93.8925400000000 162.5249800000000 72.3487720000000
vertex 94.4967700000000 163.0579500000000 71.9849390000000
endloop
endfacet
facet normal -0.0430593213042 0.5961238385723 0.8017370291652
outer loop
vertex 94.4967700000000 163.0579500000000 71.9849390000000
vertex 93.8925400000000 162.5249800000000 72.3487720000000
vertex 94.5635400000000 162.2277100000000 72.6058420000000
endloop
endfacet
facet normal 0.8680328598017 0.2313255252291 0.4393261381730
outer loop
vertex 95.0061400000000 165.3850900000000 69.9090920000000
vertex 94.9590400000000 164.3053700000000 70.5706760000000
vertex 95.4786800000000 164.3571200000000 69.5167080000000
endloop
endfacet
endsolid WRAP
