solid WRAP
facet normal -0.9691284614888 -0.2369451166144 0.0681691781153
outer loop
vertex 84.7129645833375 181.8623455935921 138.7921755916721
vertex 85.5833011750544 177.3246504519248 135.3930332108880
vertex 86.5988921053517 174.8923987493576 141.3770852965784
endloop
endfacet
facet normal -0.9091853030026 -0.3406703788288 -0.2394280221541
outer loop
vertex 88.0613395897937 168.2302603916902 130.2484408794218
vertex 89.9261841710415 166.2365001224559 126.0038490797761
vertex 90.2111129809394 163.3706119865392 128.9996141708018
endloop
endfacet
facet normal -0.9030718563666 -0.3532976952873 -0.2442170361447
outer loop
vertex 93.8207113748886 155.6553339316216 127.9857063070311
vertex 92.9687236462067 156.2679596731241 130.2499499729324
vertex 92.5307828743418 158.6874410129217 128.3692245224672
endloop
endfacet
facet normal -0.8733913445786 -0.3257700065758 -0.3620241180237
outer loop
vertex 93.8207113748886 155.6553339316216 127.9857063070311
vertex 92.5307828743418 158.6874410129217 128.3692245224672
vertex 94.2932870611786 157.7965399781836 124.9188271499366
endloop
endfacet
facet normal -0.8313491173018 -0.5246521536266 -0.1832996531816
outer loop
vertex 92.1278820585632 168.5998007432961 115.9386940790398
vertex 93.7455111024572 165.4715018559808 117.5560144913207
vertex 90.5421594849989 169.8682362356591 119.5000846091505
endloop
endfacet
facet normal -0.9089100873489 -0.3606646129145 -0.2092928333860
outer loop
vertex 88.8392924079804 172.3003038656253 121.7007876158736
vertex 89.4758113696852 169.9210796886642 123.0365402893667
vertex 87.7682759349784 173.5264753335073 124.2389587018285
endloop
endfacet
facet normal -0.9143051063597 -0.3592957941276 0.1869564248875
outer loop
vertex 92.1846495473204 157.6579538551104 139.6310292136039
vertex 91.2096064683638 158.7704428573883 137.0006074627865
vertex 92.9513877390682 154.4631632812151 137.2409419372123
endloop
endfacet
facet normal -0.9312757862667 -0.3609993103076 -0.0490398600200
outer loop
vertex 86.2603334917370 177.4447648960391 124.4254681839129
vertex 85.1109703348124 179.7002703016306 129.6485292153470
vertex 84.1436880365833 182.9439702227862 124.1394015088930
endloop
endfacet
facet normal -0.9289980691129 -0.3122498082444 -0.1986520698000
outer loop
vertex 92.9687236462067 156.2679596731241 130.2499499729324
vertex 92.8523086400062 155.1281379635577 132.5859861727472
vertex 91.7785792947184 158.1595492688826 132.8423886848165
endloop
endfacet
facet normal -0.9729593525627 -0.2304684594125 -0.0153097183782
outer loop
vertex 85.5833011750544 177.3246504519248 135.3930332108880
vertex 85.1109703348124 179.7002703016306 129.6485292153470
vertex 86.4096070192480 174.1399811172260 130.8210246245652
endloop
endfacet
facet normal -0.9405915084617 -0.3247841911589 -0.0990093095774
outer loop
vertex 91.7785792947184 158.1595492688826 132.8423886848165
vertex 92.8523086400062 155.1281379635577 132.5859861727472
vertex 92.5039711296290 155.3219057480959 135.2595791136077
endloop
endfacet
facet normal -0.9428036792924 -0.3251811638660 -0.0733378004812
outer loop
vertex 88.0613395897937 168.2302603916902 130.2484408794218
vertex 89.5034742424802 163.7004952286595 131.7939528858125
vertex 88.5386252745037 165.8165557734039 134.8150433025595
endloop
endfacet
facet normal -0.9279453261337 -0.3184747628882 -0.1936266952410
outer loop
vertex 92.5307828743418 158.6874410129217 128.3692245224672
vertex 92.9687236462067 156.2679596731241 130.2499499729324
vertex 91.7785792947184 158.1595492688826 132.8423886848165
endloop
endfacet
facet normal -0.9694883887549 -0.2406564604731 0.0466554616527
outer loop
vertex 84.7129645833375 181.8623455935921 138.7921755916721
vertex 83.3674552469905 186.4968021571343 134.7381214884426
vertex 84.4770662495066 181.9644811064797 134.4171010060828
endloop
endfacet
facet normal -0.9714344171779 -0.2257676327046 0.0731036876300
outer loop
vertex 86.5988921053517 174.8923987493576 141.3770852965784
vertex 85.5833011750544 177.3246504519248 135.3930332108880
vertex 86.8383984175861 171.9420862387175 135.4482407952772
endloop
endfacet
facet normal -0.8532784052096 -0.4020682798557 -0.3320497877380
outer loop
vertex 94.2932870611786 157.7965399781836 124.9188271499366
vertex 92.5307828743418 158.6874410129217 128.3692245224672
vertex 91.8814557930126 162.8030830727559 125.0543229994711
endloop
endfacet
facet normal -0.9622714302633 -0.2719478712679 0.0088345804615
outer loop
vertex 84.1436880365833 182.9439702227862 124.1394015088930
vertex 85.1109703348124 179.7002703016306 129.6485292153470
vertex 83.4357629796744 185.6482377675048 130.2748083152060
endloop
endfacet
facet normal -0.8277130527342 -0.4626133151015 -0.3176161567430
outer loop
vertex 90.5421594849989 169.8682362356591 119.5000846091505
vertex 93.7455111024572 165.4715018559808 117.5560144913207
vertex 91.6958052520651 166.7670431026505 121.0106046699639
endloop
endfacet
facet normal -0.9638744873136 -0.2635508695185 -0.0385604963914
outer loop
vertex 88.0613395897937 168.2302603916902 130.2484408794218
vertex 88.5386252745037 165.8165557734039 134.8150433025595
vertex 86.8383984175861 171.9420862387175 135.4482407952772
endloop
endfacet
facet normal -0.9620794293743 -0.2705932355436 0.0343870971860
outer loop
vertex 86.8383984175861 171.9420862387175 135.4482407952772
vertex 88.5386252745037 165.8165557734039 134.8150433025595
vertex 87.9434682929063 168.6749371497868 140.6564894334431
endloop
endfacet
facet normal -0.9736818599433 -0.2272230472123 -0.0177009161586
outer loop
vertex 85.5833011750544 177.3246504519248 135.3930332108880
vertex 86.4096070192480 174.1399811172260 130.8210246245652
vertex 86.8383984175861 171.9420862387175 135.4482407952772
endloop
endfacet
facet normal -0.8975679876973 -0.4025568654706 -0.1797767435557
outer loop
vertex 90.2111129809394 163.3706119865392 128.9996141708018
vertex 91.7785792947184 158.1595492688826 132.8423886848165
vertex 89.5034742424802 163.7004952286595 131.7939528858125
endloop
endfacet
facet normal -0.9633553875272 -0.2656748929738 -0.0369221961106
outer loop
vertex 86.4096070192480 174.1399811172260 130.8210246245652
vertex 88.0613395897937 168.2302603916902 130.2484408794218
vertex 86.8383984175861 171.9420862387175 135.4482407952772
endloop
endfacet
facet normal -0.8675232764410 -0.3877706245303 -0.3115081180074
outer loop
vertex 92.5307828743418 158.6874410129217 128.3692245224672
vertex 90.2111129809394 163.3706119865392 128.9996141708018
vertex 91.8814557930126 162.8030830727559 125.0543229994711
endloop
endfacet
facet normal -0.8368074939224 -0.5135943064944 -0.1896684118454
outer loop
vertex 92.1278820585632 168.5998007432961 115.9386940790398
vertex 90.5421594849989 169.8682362356591 119.5000846091505
vertex 89.5292233888581 172.4418928676770 117.0000221456803
endloop
endfacet
facet normal -0.8857164987441 -0.3836784873537 -0.2613371427762
outer loop
vertex 88.8392924079804 172.3003038656253 121.7007876158736
vertex 90.5421594849989 169.8682362356591 119.5000846091505
vertex 89.4758113696852 169.9210796886642 123.0365402893667
endloop
endfacet
facet normal -0.8352363517008 -0.5452667372070 -0.0711647531657
outer loop
vertex 92.1278820585632 168.5998007432961 115.9386940790398
vertex 89.5292233888581 172.4418928676770 117.0000221456803
vertex 90.5495815227857 171.3942811841764 113.0512639727520
endloop
endfacet
facet normal -0.9588772394661 -0.2561592382959 -0.1222165466274
outer loop
vertex 88.0613395897937 168.2302603916902 130.2484408794218
vertex 86.4096070192480 174.1399811172260 130.8210246245652
vertex 87.3057227180172 172.1164608537317 128.0315370509681
endloop
endfacet
facet normal -0.9018577257954 -0.3705203033787 -0.2221876396368
outer loop
vertex 89.9261841710415 166.2365001224559 126.0038490797761
vertex 88.0613395897937 168.2302603916902 130.2484408794218
vertex 88.4570447493507 169.4573236187461 126.5960253095734
endloop
endfacet
facet normal -0.9717537201667 -0.2353528113334 -0.0174287561138
outer loop
vertex 85.1109703348124 179.7002703016306 129.6485292153470
vertex 85.5833011750544 177.3246504519248 135.3930332108880
vertex 84.4770662495066 181.9644811064797 134.4171010060828
endloop
endfacet
facet normal -0.8536603004477 -0.3909871461025 -0.3440830466940
outer loop
vertex 91.8814557930126 162.8030830727559 125.0543229994711
vertex 89.9261841710415 166.2365001224559 126.0038490797761
vertex 91.6958052520651 166.7670431026505 121.0106046699639
endloop
endfacet
facet normal -0.9632430177267 -0.2471613864303 -0.1052337296626
outer loop
vertex 85.1109703348124 179.7002703016306 129.6485292153470
vertex 86.2603334917370 177.4447648960391 124.4254681839129
vertex 86.4096070192480 174.1399811172260 130.8210246245652
endloop
endfacet
facet normal -0.9016787528324 -0.4075074594158 -0.1446136135053
outer loop
vertex 88.8392924079804 172.3003038656253 121.7007876158736
vertex 87.2242679348203 176.0991567125773 121.0658016185179
vertex 89.5292233888581 172.4418928676770 117.0000221456803
endloop
endfacet
facet normal -0.9278725844180 -0.3511108972993 -0.1255930128754
outer loop
vertex 87.7682759349784 173.5264753335073 124.2389587018285
vertex 86.2603334917370 177.4447648960391 124.4254681839129
vertex 87.2242679348203 176.0991567125773 121.0658016185179
endloop
endfacet
facet normal -0.9572289689992 -0.2655490566797 -0.1148755822849
outer loop
vertex 86.4096070192480 174.1399811172260 130.8210246245652
vertex 86.2603334917370 177.4447648960391 124.4254681839129
vertex 87.3057227180172 172.1164608537317 128.0315370509681
endloop
endfacet
facet normal -0.9103916088047 -0.3390758671379 -0.2370963410573
outer loop
vertex 86.2603334917370 177.4447648960391 124.4254681839129
vertex 87.7682759349784 173.5264753335073 124.2389587018285
vertex 87.3057227180172 172.1164608537317 128.0315370509681
endloop
endfacet
facet normal -0.8665401628494 -0.4786002984704 -0.1415976711426
outer loop
vertex 90.5421594849989 169.8682362356591 119.5000846091505
vertex 88.8392924079804 172.3003038656253 121.7007876158736
vertex 89.5292233888581 172.4418928676770 117.0000221456803
endloop
endfacet
facet normal -0.8682443817575 -0.4959735796944 -0.0127240634870
outer loop
vertex 86.5828452066901 177.5847815778867 117.5846922579909
vertex 87.5421730007900 176.0238651047258 112.9668563949717
vertex 89.5292233888581 172.4418928676770 117.0000221456803
endloop
endfacet
facet normal -0.8690469376640 -0.4922038635302 -0.0499277163777
outer loop
vertex 87.2242679348203 176.0991567125773 121.0658016185179
vertex 86.5828452066901 177.5847815778867 117.5846922579909
vertex 89.5292233888581 172.4418928676770 117.0000221456803
endloop
endfacet
facet normal -0.8358461576555 -0.5442763806034 -0.0715850700203
outer loop
vertex 89.5292233888581 172.4418928676770 117.0000221456803
vertex 87.5421730007900 176.0238651047258 112.9668563949717
vertex 90.5495815227857 171.3942811841764 113.0512639727520
endloop
endfacet
facet normal -0.9329042880309 -0.2852453195882 -0.2198287902588
outer loop
vertex 87.3057227180172 172.1164608537317 128.0315370509681
vertex 87.7682759349784 173.5264753335073 124.2389587018285
vertex 88.4570447493507 169.4573236187461 126.5960253095734
endloop
endfacet
facet normal -0.9299826836008 -0.3652931551816 -0.0411475270234
outer loop
vertex 89.5034742424802 163.7004952286595 131.7939528858125
vertex 91.2096064683638 158.7704428573883 137.0006074627865
vertex 88.5386252745037 165.8165557734039 134.8150433025595
endloop
endfacet
facet normal -0.9150185414986 -0.3560329040964 -0.1896882703663
outer loop
vertex 88.0613395897937 168.2302603916902 130.2484408794218
vertex 90.2111129809394 163.3706119865392 128.9996141708018
vertex 89.5034742424802 163.7004952286595 131.7939528858125
endloop
endfacet
facet normal -0.8256477388119 -0.4686461511007 -0.3141283120848
outer loop
vertex 91.6958052520651 166.7670431026505 121.0106046699639
vertex 93.7455111024572 165.4715018559808 117.5560144913207
vertex 94.3846149629501 163.1574027085534 119.3285990690364
endloop
endfacet
facet normal -0.9402450153443 -0.3229702995081 0.1078401444538
outer loop
vertex 88.5386252745037 165.8165557734039 134.8150433025595
vertex 91.2096064683638 158.7704428573883 137.0006074627865
vertex 90.2962595987846 162.5190969885664 140.2640870128132
endloop
endfacet
facet normal -0.9292313099562 -0.3603620211874 0.0816601878697
outer loop
vertex 87.9434682929063 168.6749371497868 140.6564894334431
vertex 88.5386252745037 165.8165557734039 134.8150433025595
vertex 90.2962595987846 162.5190969885664 140.2640870128132
endloop
endfacet
facet normal -0.9723932844302 -0.2234279275414 0.0673146461740
outer loop
vertex 83.3674552469905 186.4968021571343 134.7381214884426
vertex 84.7129645833375 181.8623455935921 138.7921755916721
vertex 83.1964210837259 188.3934967631512 138.5628771377434
endloop
endfacet
facet normal -0.8611652478356 -0.4057286695775 -0.3062330201058
outer loop
vertex 90.2111129809394 163.3706119865392 128.9996141708018
vertex 89.9261841710415 166.2365001224559 126.0038490797761
vertex 91.8814557930126 162.8030830727559 125.0543229994711
endloop
endfacet
facet normal -0.9269285601058 -0.3721529005597 0.0480173204715
outer loop
vertex 92.9513877390682 154.4631632812151 137.2409419372123
vertex 91.2096064683638 158.7704428573883 137.0006074627865
vertex 92.5039711296290 155.3219057480959 135.2595791136077
endloop
endfacet
facet normal -0.9703508155863 -0.2397395245952 0.0307287330990
outer loop
vertex 84.4770662495066 181.9644811064797 134.4171010060828
vertex 83.3674552469905 186.4968021571343 134.7381214884426
vertex 83.4357629796744 185.6482377675048 130.2748083152060
endloop
endfacet
facet normal -0.9625296363505 -0.2711753094460 0.0008066559788
outer loop
vertex 85.1109703348124 179.7002703016306 129.6485292153470
vertex 84.4770662495066 181.9644811064797 134.4171010060828
vertex 83.4357629796744 185.6482377675048 130.2748083152060
endloop
endfacet
facet normal -0.8886666145855 -0.4134907880486 -0.1982347505360
outer loop
vertex 90.2111129809394 163.3706119865392 128.9996141708018
vertex 92.5307828743418 158.6874410129217 128.3692245224672
vertex 91.7785792947184 158.1595492688826 132.8423886848165
endloop
endfacet
facet normal -0.8942467078111 -0.4101304975742 -0.1792088182222
outer loop
vertex 88.8392924079804 172.3003038656253 121.7007876158736
vertex 87.7682759349784 173.5264753335073 124.2389587018285
vertex 87.2242679348203 176.0991567125773 121.0658016185179
endloop
endfacet
facet normal -0.9243766212968 -0.3620460771293 -0.1202102326562
outer loop
vertex 86.2603334917370 177.4447648960391 124.4254681839129
vertex 84.1436880365833 182.9439702227862 124.1394015088930
vertex 87.2242679348203 176.0991567125773 121.0658016185179
endloop
endfacet
facet normal -0.9460910129495 -0.3129590963609 -0.0834769382588
outer loop
vertex 91.2096064683638 158.7704428573883 137.0006074627865
vertex 91.7785792947184 158.1595492688826 132.8423886848165
vertex 92.5039711296290 155.3219057480959 135.2595791136077
endloop
endfacet
facet normal -0.9092373896773 -0.3763699763821 0.1778567122460
outer loop
vertex 91.2096064683638 158.7704428573883 137.0006074627865
vertex 92.1846495473204 157.6579538551104 139.6310292136039
vertex 90.2962595987846 162.5190969885664 140.2640870128132
endloop
endfacet
facet normal -0.8172225045195 -0.4298709627085 -0.3838728090488
outer loop
vertex 91.8814557930126 162.8030830727559 125.0543229994711
vertex 91.6958052520651 166.7670431026505 121.0106046699639
vertex 94.3846149629501 163.1574027085534 119.3285990690364
endloop
endfacet
facet normal -0.8235294179799 -0.3854597833343 -0.4161971325629
outer loop
vertex 94.2932870611786 157.7965399781836 124.9188271499366
vertex 91.8814557930126 162.8030830727559 125.0543229994711
vertex 95.1705838680098 160.1293063623523 121.0224347270710
endloop
endfacet
facet normal -0.9338709550530 -0.2960283181387 -0.2006296941343
outer loop
vertex 88.0613395897937 168.2302603916902 130.2484408794218
vertex 87.3057227180172 172.1164608537317 128.0315370509681
vertex 88.4570447493507 169.4573236187461 126.5960253095734
endloop
endfacet
facet normal -0.9738447749206 -0.2222321487072 0.0473204653487
outer loop
vertex 85.5833011750544 177.3246504519248 135.3930332108880
vertex 84.7129645833375 181.8623455935921 138.7921755916721
vertex 84.4770662495066 181.9644811064797 134.4171010060828
endloop
endfacet
facet normal -0.8971181648047 -0.3251204250540 -0.2991249029923
outer loop
vertex 87.7682759349784 173.5264753335073 124.2389587018285
vertex 89.4758113696852 169.9210796886642 123.0365402893667
vertex 88.4570447493507 169.4573236187461 126.5960253095734
endloop
endfacet
facet normal -0.9733542375855 -0.2185426446905 0.0694308333954
outer loop
vertex 86.5988921053517 174.8923987493576 141.3770852965784
vertex 86.8383984175861 171.9420862387175 135.4482407952772
vertex 87.9434682929063 168.6749371497868 140.6564894334431
endloop
endfacet
facet normal -0.9182826975686 -0.3899798219862 -0.0683566075061
outer loop
vertex 91.7785792947184 158.1595492688826 132.8423886848165
vertex 91.2096064683638 158.7704428573883 137.0006074627865
vertex 89.5034742424802 163.7004952286595 131.7939528858125
endloop
endfacet
facet normal -0.8183827835744 -0.4273427655123 -0.3842236071786
outer loop
vertex 91.8814557930126 162.8030830727559 125.0543229994711
vertex 94.3846149629501 163.1574027085534 119.3285990690364
vertex 95.1705838680098 160.1293063623523 121.0224347270710
endloop
endfacet
facet normal -0.8876225754300 -0.3497902612451 -0.2996213222137
outer loop
vertex 89.4758113696852 169.9210796886642 123.0365402893667
vertex 89.9261841710415 166.2365001224559 126.0038490797761
vertex 88.4570447493507 169.4573236187461 126.5960253095734
endloop
endfacet
facet normal -0.8574467586736 -0.3822405211966 -0.3444956313155
outer loop
vertex 89.9261841710415 166.2365001224559 126.0038490797761
vertex 89.4758113696852 169.9210796886642 123.0365402893667
vertex 91.6958052520651 166.7670431026505 121.0106046699639
endloop
endfacet
facet normal -0.8601259098028 -0.4430680056154 -0.2527333806325
outer loop
vertex 89.4758113696852 169.9210796886642 123.0365402893667
vertex 90.5421594849989 169.8682362356591 119.5000846091505
vertex 91.6958052520651 166.7670431026505 121.0106046699639
endloop
endfacet
endsolid WRAP
