solid WRAP
facet normal -0.6102986581660 0.5429287750006 0.5768569087020
outer loop
vertex 176.9143000000000 156.9126800000000 66.9603277000000
vertex 175.7489000000000 155.4846600000000 67.0713970000000
vertex 177.2504000000000 155.7499900000000 68.4102180000000
endloop
endfacet
facet normal -0.6259123599479 0.5535349447212 0.5493931039220
outer loop
vertex 175.7489000000000 155.4846600000000 67.0713970000000
vertex 176.9143000000000 156.9126800000000 66.9603277000000
vertex 175.5663000000000 156.5406500000000 65.7994135000000
endloop
endfacet
facet normal -0.6386798556235 0.5064495481766 0.5793072562747
outer loop
vertex 176.9143000000000 156.9126800000000 66.9603277000000
vertex 176.3827000000000 157.6717000000000 65.7106842000000
vertex 175.5663000000000 156.5406500000000 65.7994135000000
endloop
endfacet
facet normal -0.7000547035338 0.4381044786454 0.5639041388844
outer loop
vertex 176.3827000000000 157.6717000000000 65.7106842000000
vertex 176.9143000000000 156.9126800000000 66.9603277000000
vertex 177.5342000000000 158.5069800000000 66.4912656000000
endloop
endfacet
facet normal 0.9686363540891 0.2242480817147 0.1070346270336
outer loop
vertex 182.8560000000000 156.3256400000000 80.8612400000000
vertex 183.0693000000000 155.2733500000000 81.1355800000000
vertex 183.0869000000000 155.7496400000000 79.9784300000000
endloop
endfacet
facet normal 0.8996121920701 0.2715185109135 0.3420169617287
outer loop
vertex 183.0693000000000 155.2733500000000 81.1355800000000
vertex 182.8560000000000 156.3256400000000 80.8612400000000
vertex 182.6520000000000 155.6628200000000 81.9240200000000
endloop
endfacet
facet normal -0.9589284594643 0.2440034569427 0.1446323706139
outer loop
vertex 180.3560000000000 156.8106200000000 73.6859950000000
vertex 180.4043000000000 157.9986000000000 72.0020360000000
vertex 179.8641000000000 156.0345800000000 71.7338700000000
endloop
endfacet
facet normal 0.1755767749425 0.8927065679637 0.4150274444122
outer loop
vertex 182.0421000000000 157.3240000000000 78.9221400000000
vertex 181.9181000000000 156.7592600000000 80.1893300000000
vertex 182.8883000000000 156.8472200000000 79.5896900000000
endloop
endfacet
facet normal -0.9538667786358 0.1408133034271 0.2651599181494
outer loop
vertex 179.8112000000000 157.0878800000000 70.3521000000000
vertex 180.4043000000000 157.9986000000000 72.0020360000000
vertex 179.9684000000000 158.4188000000000 70.2108140000000
endloop
endfacet
facet normal -0.9490905642823 0.2319433428996 0.2131417051512
outer loop
vertex 179.8641000000000 156.0345800000000 71.7338700000000
vertex 180.4043000000000 157.9986000000000 72.0020360000000
vertex 179.8112000000000 157.0878800000000 70.3521000000000
endloop
endfacet
facet normal -0.5704072870807 0.6418440060679 0.5125151692584
outer loop
vertex 177.2504000000000 155.7499900000000 68.4102180000000
vertex 175.7489000000000 155.4846600000000 67.0713970000000
vertex 175.8294000000000 154.4319200000000 68.4793800000000
endloop
endfacet
facet normal -0.7763257240097 0.2840096609214 0.5627227405606
outer loop
vertex 178.7338000000000 159.7801400000000 67.5036480000000
vertex 177.5342000000000 158.5069800000000 66.4912656000000
vertex 178.7176000000000 157.6845400000000 68.5389610000000
endloop
endfacet
facet normal -0.6846372933258 0.4829089432970 0.5459585415316
outer loop
vertex 176.9143000000000 156.9126800000000 66.9603277000000
vertex 177.2504000000000 155.7499900000000 68.4102180000000
vertex 178.7176000000000 157.6845400000000 68.5389610000000
endloop
endfacet
facet normal -0.5853447503582 0.6560533852006 0.4764089409268
outer loop
vertex 177.2504000000000 155.7499900000000 68.4102180000000
vertex 175.8294000000000 154.4319200000000 68.4793800000000
vertex 177.1314000000000 154.5650500000000 69.8957650000000
endloop
endfacet
facet normal -0.8584617384548 0.2324903250379 0.4571560919127
outer loop
vertex 178.7338000000000 159.7801400000000 67.5036480000000
vertex 178.7176000000000 157.6845400000000 68.5389610000000
vertex 179.6573000000000 159.6824100000000 69.2875260000000
endloop
endfacet
facet normal -0.8242337475606 0.1874823377139 0.5343118026280
outer loop
vertex 178.7176000000000 157.6845400000000 68.5389610000000
vertex 179.9684000000000 158.4188000000000 70.2108140000000
vertex 179.6573000000000 159.6824100000000 69.2875260000000
endloop
endfacet
facet normal -0.6476096968840 0.4502507270750 0.6147161648031
outer loop
vertex 178.7176000000000 157.6845400000000 68.5389610000000
vertex 177.2504000000000 155.7499900000000 68.4102180000000
vertex 178.7245000000000 155.7966500000000 69.9290210000000
endloop
endfacet
facet normal -0.5363159713619 0.6802445594728 0.4996323830276
outer loop
vertex 177.2504000000000 155.7499900000000 68.4102180000000
vertex 177.1314000000000 154.5650500000000 69.8957650000000
vertex 178.7245000000000 155.7966500000000 69.9290210000000
endloop
endfacet
facet normal -0.5338221004799 0.7328682229474 0.4218271361980
outer loop
vertex 177.1314000000000 154.5650500000000 69.8957650000000
vertex 175.8294000000000 154.4319200000000 68.4793800000000
vertex 175.6099000000000 153.4660700000000 69.8796380000000
endloop
endfacet
facet normal -0.7126430367349 0.4142569964524 0.5661546105823
outer loop
vertex 179.8112000000000 157.0878800000000 70.3521000000000
vertex 178.7176000000000 157.6845400000000 68.5389610000000
vertex 178.7245000000000 155.7966500000000 69.9290210000000
endloop
endfacet
facet normal -0.8224970280633 0.1552345377999 0.5471753622936
outer loop
vertex 179.8112000000000 157.0878800000000 70.3521000000000
vertex 179.9684000000000 158.4188000000000 70.2108140000000
vertex 178.7176000000000 157.6845400000000 68.5389610000000
endloop
endfacet
facet normal -0.5583558543459 0.7684366266755 0.3126401936751
outer loop
vertex 177.1314000000000 154.5650500000000 69.8957650000000
vertex 175.6099000000000 153.4660700000000 69.8796380000000
vertex 176.6950000000000 153.6305900000000 71.4131860000000
endloop
endfacet
facet normal -0.5749192247035 0.7339020792751 0.3617397173411
outer loop
vertex 178.7245000000000 155.7966500000000 69.9290210000000
vertex 177.1314000000000 154.5650500000000 69.8957650000000
vertex 178.3504000000000 154.7121700000000 71.5346640000000
endloop
endfacet
facet normal -0.5336142933888 0.7800037852719 0.3268790003238
outer loop
vertex 177.1314000000000 154.5650500000000 69.8957650000000
vertex 176.6950000000000 153.6305900000000 71.4131860000000
vertex 178.3504000000000 154.7121700000000 71.5346640000000
endloop
endfacet
facet normal -0.7589817447790 0.5034851078800 0.4128552497368
outer loop
vertex 179.8641000000000 156.0345800000000 71.7338700000000
vertex 179.8112000000000 157.0878800000000 70.3521000000000
vertex 178.7245000000000 155.7966500000000 69.9290210000000
endloop
endfacet
facet normal -0.6472578958158 0.6930852153874 0.3173170347074
outer loop
vertex 179.8641000000000 156.0345800000000 71.7338700000000
vertex 178.7245000000000 155.7966500000000 69.9290210000000
vertex 178.3504000000000 154.7121700000000 71.5346640000000
endloop
endfacet
facet normal -0.6619054609533 0.7444339861820 0.0877450909013
outer loop
vertex 179.8641000000000 156.0345800000000 71.7338700000000
vertex 178.3504000000000 154.7121700000000 71.5346640000000
vertex 179.1834000000000 155.2178400000000 73.5282720000000
endloop
endfacet
facet normal -0.5449429121751 0.8095241207688 0.2184214283526
outer loop
vertex 178.3504000000000 154.7121700000000 71.5346640000000
vertex 176.6950000000000 153.6305900000000 71.4131860000000
vertex 177.7184000000000 153.8941800000000 72.9895520000000
endloop
endfacet
facet normal -0.5438426505590 0.8104997124216 0.2175439900283
outer loop
vertex 176.6950000000000 153.6305900000000 71.4131860000000
vertex 176.2334000000000 152.9245200000000 72.8898150000000
vertex 177.7184000000000 153.8941800000000 72.9895520000000
endloop
endfacet
facet normal -0.6877002703194 0.7183408712184 0.1051414805855
outer loop
vertex 179.1834000000000 155.2178400000000 73.5282720000000
vertex 178.3504000000000 154.7121700000000 71.5346640000000
vertex 177.7184000000000 153.8941800000000 72.9895520000000
endloop
endfacet
facet normal -0.8032265792287 0.5947015388900 -0.0340167908907
outer loop
vertex 180.3560000000000 156.8106200000000 73.6859950000000
vertex 179.8641000000000 156.0345800000000 71.7338700000000
vertex 179.1834000000000 155.2178400000000 73.5282720000000
endloop
endfacet
facet normal -0.5482018740442 0.8261793167478 0.1300093914786
outer loop
vertex 177.7184000000000 153.8941800000000 72.9895520000000
vertex 176.2334000000000 152.9245200000000 72.8898150000000
vertex 177.0771000000000 153.3008300000000 74.0560260000000
endloop
endfacet
facet normal -0.6909531226933 0.4378851948731 0.5751872202607
outer loop
vertex 177.5342000000000 158.5069800000000 66.4912656000000
vertex 176.9143000000000 156.9126800000000 66.9603277000000
vertex 178.7176000000000 157.6845400000000 68.5389610000000
endloop
endfacet
facet normal -0.7959579177475 0.5642774010824 0.2191848712907
outer loop
vertex 180.3560000000000 156.8106200000000 73.6859950000000
vertex 179.1834000000000 155.2178400000000 73.5282720000000
vertex 180.0490000000000 155.9792500000000 74.7114500000000
endloop
endfacet
facet normal -0.6863056467193 0.7211572013598 0.0944290750146
outer loop
vertex 179.1834000000000 155.2178400000000 73.5282720000000
vertex 177.7184000000000 153.8941800000000 72.9895520000000
vertex 178.2044000000000 154.1508700000000 74.5614270000000
endloop
endfacet
facet normal -0.6772386385142 0.7275509839831 0.1096238669658
outer loop
vertex 179.1834000000000 155.2178400000000 73.5282720000000
vertex 178.2044000000000 154.1508700000000 74.5614270000000
vertex 179.4177000000000 155.1500500000000 75.4256480000000
endloop
endfacet
facet normal -0.7401041802352 0.6625750904546 0.1150654244657
outer loop
vertex 180.0490000000000 155.9792500000000 74.7114500000000
vertex 179.1834000000000 155.2178400000000 73.5282720000000
vertex 179.4177000000000 155.1500500000000 75.4256480000000
endloop
endfacet
facet normal -0.9175524957743 0.3368228221913 0.2113002696389
outer loop
vertex 180.4043000000000 157.9986000000000 72.0020360000000
vertex 180.3560000000000 156.8106200000000 73.6859950000000
vertex 181.0447000000000 158.4800300000000 74.0154930000000
endloop
endfacet
facet normal -0.8976409854216 0.3974812858065 0.1903924597375
outer loop
vertex 180.3560000000000 156.8106200000000 73.6859950000000
vertex 180.5872000000000 156.7292100000000 74.9459900000000
vertex 180.9252000000000 157.5426300000000 74.8413820000000
endloop
endfacet
facet normal -0.6188407231982 0.7829473239511 0.0634795024346
outer loop
vertex 177.7184000000000 153.8941800000000 72.9895520000000
vertex 177.0771000000000 153.3008300000000 74.0560260000000
vertex 178.2044000000000 154.1508700000000 74.5614270000000
endloop
endfacet
facet normal -0.6361555126719 0.7579893723124 0.1440773235405
outer loop
vertex 178.2044000000000 154.1508700000000 74.5614270000000
vertex 177.0771000000000 153.3008300000000 74.0560260000000
vertex 177.0135000000000 152.9478400000000 75.6322850000000
endloop
endfacet
facet normal -0.8248981370383 0.5338545083811 0.1858559318176
outer loop
vertex 180.3560000000000 156.8106200000000 73.6859950000000
vertex 180.0490000000000 155.9792500000000 74.7114500000000
vertex 180.5872000000000 156.7292100000000 74.9459900000000
endloop
endfacet
facet normal -0.9130446189448 0.3932907611925 0.1080365724024
outer loop
vertex 180.9252000000000 157.5426300000000 74.8413820000000
vertex 180.5872000000000 156.7292100000000 74.9459900000000
vertex 180.8680000000000 157.2033900000000 75.5929220000000
endloop
endfacet
facet normal -0.9375490117898 0.2894694641007 0.1928970705980
outer loop
vertex 181.0447000000000 158.4800300000000 74.0154930000000
vertex 180.9252000000000 157.5426300000000 74.8413820000000
vertex 181.3072000000000 158.2327700000000 75.6623860000000
endloop
endfacet
facet normal -0.7617013031938 0.6436838602501 0.0740419662518
outer loop
vertex 180.0490000000000 155.9792500000000 74.7114500000000
vertex 179.4177000000000 155.1500500000000 75.4256480000000
vertex 180.3971000000000 156.2481500000000 75.9548210000000
endloop
endfacet
facet normal -0.8234992009489 0.5565123687763 0.1101955055139
outer loop
vertex 180.5872000000000 156.7292100000000 74.9459900000000
vertex 180.0490000000000 155.9792500000000 74.7114500000000
vertex 180.3971000000000 156.2481500000000 75.9548210000000
endloop
endfacet
facet normal -0.6726176536647 0.7337390211875 0.0959819814623
outer loop
vertex 179.4177000000000 155.1500500000000 75.4256480000000
vertex 178.2044000000000 154.1508700000000 74.5614270000000
vertex 178.4479000000000 154.2167500000000 75.7641910000000
endloop
endfacet
facet normal -0.9129708670982 0.3290060050692 0.2413280846864
outer loop
vertex 181.0447000000000 158.4800300000000 74.0154930000000
vertex 180.3560000000000 156.8106200000000 73.6859950000000
vertex 180.9252000000000 157.5426300000000 74.8413820000000
endloop
endfacet
facet normal -0.9173271212611 0.3843935548523 0.1036944915932
outer loop
vertex 180.9252000000000 157.5426300000000 74.8413820000000
vertex 180.8680000000000 157.2033900000000 75.5929220000000
vertex 181.3072000000000 158.2327700000000 75.6623860000000
endloop
endfacet
facet normal -0.8880634704083 0.4569337410929 0.0505453140967
outer loop
vertex 180.8680000000000 157.2033900000000 75.5929220000000
vertex 180.5872000000000 156.7292100000000 74.9459900000000
vertex 180.3971000000000 156.2481500000000 75.9548210000000
endloop
endfacet
facet normal -0.6644815584176 0.7413797844789 0.0939163121554
outer loop
vertex 178.2044000000000 154.1508700000000 74.5614270000000
vertex 177.0135000000000 152.9478400000000 75.6322850000000
vertex 178.4479000000000 154.2167500000000 75.7641910000000
endloop
endfacet
facet normal -0.6530353092157 0.7551507855718 0.0573774865940
outer loop
vertex 179.1057000000000 154.7104000000000 76.7538900000000
vertex 178.4479000000000 154.2167500000000 75.7641910000000
vertex 178.1273000000000 153.8844000000000 76.4894100000000
endloop
endfacet
facet normal -0.6642912784148 0.7459199861467 0.0481712745199
outer loop
vertex 178.4479000000000 154.2167500000000 75.7641910000000
vertex 177.0135000000000 152.9478400000000 75.6322850000000
vertex 178.1273000000000 153.8844000000000 76.4894100000000
endloop
endfacet
facet normal -0.6756526052056 0.7324495370309 0.0837331044580
outer loop
vertex 179.4177000000000 155.1500500000000 75.4256480000000
vertex 178.4479000000000 154.2167500000000 75.7641910000000
vertex 179.1057000000000 154.7104000000000 76.7538900000000
endloop
endfacet
facet normal -0.7448208516028 0.6610128117471 0.0911260759817
outer loop
vertex 177.0135000000000 152.9478400000000 75.6322850000000
vertex 176.4467000000000 152.0963300000000 77.1762400000000
vertex 177.4388000000000 153.2341500000000 77.0316400000000
endloop
endfacet
facet normal -0.7551674114268 0.6410231742450 -0.1371549153323
outer loop
vertex 177.4388000000000 153.2341500000000 77.0316400000000
vertex 176.4467000000000 152.0963300000000 77.1762400000000
vertex 176.9474000000000 152.7899700000000 77.6612900000000
endloop
endfacet
facet normal -0.6511940656729 0.7576379772569 0.0439429658821
outer loop
vertex 179.7024000000000 155.1718100000000 77.6410800000000
vertex 179.1057000000000 154.7104000000000 76.7538900000000
vertex 179.0113000000000 154.5739400000000 77.7077300000000
endloop
endfacet
facet normal -0.6766729824955 0.7359146278949 0.0233095519254
outer loop
vertex 178.1273000000000 153.8844000000000 76.4894100000000
vertex 177.4388000000000 153.2341500000000 77.0316400000000
vertex 178.4023000000000 154.1108200000000 77.3242300000000
endloop
endfacet
facet normal -0.9149783530184 0.3815250829958 0.1313515304544
outer loop
vertex 181.3072000000000 158.2327700000000 75.6623860000000
vertex 180.8680000000000 157.2033900000000 75.5929220000000
vertex 181.0378000000000 157.2603400000000 76.6103100000000
endloop
endfacet
facet normal -0.8761799148649 0.4382636619961 0.2005834473758
outer loop
vertex 181.6027000000000 158.2420500000000 76.9329000000000
vertex 181.3072000000000 158.2327700000000 75.6623860000000
vertex 181.0378000000000 157.2603400000000 76.6103100000000
endloop
endfacet
facet normal -0.8719598220297 0.4749086963608 0.1189445202056
outer loop
vertex 180.8680000000000 157.2033900000000 75.5929220000000
vertex 180.3971000000000 156.2481500000000 75.9548210000000
vertex 181.0378000000000 157.2603400000000 76.6103100000000
endloop
endfacet
facet normal -0.7680863696795 0.6301132583134 0.1140202193048
outer loop
vertex 180.3971000000000 156.2481500000000 75.9548210000000
vertex 179.4177000000000 155.1500500000000 75.4256480000000
vertex 179.8867000000000 155.4915700000000 76.6976700000000
endloop
endfacet
facet normal -0.6459865076259 0.7633270480904 0.0057662482554
outer loop
vertex 179.1057000000000 154.7104000000000 76.7538900000000
vertex 178.1273000000000 153.8844000000000 76.4894100000000
vertex 178.4023000000000 154.1108200000000 77.3242300000000
endloop
endfacet
facet normal -0.6242308068002 0.7796535969912 0.0497611147399
outer loop
vertex 179.0113000000000 154.5739400000000 77.7077300000000
vertex 179.1057000000000 154.7104000000000 76.7538900000000
vertex 178.4023000000000 154.1108200000000 77.3242300000000
endloop
endfacet
facet normal -0.7029975205464 0.7078217654680 0.0691580395572
outer loop
vertex 179.4177000000000 155.1500500000000 75.4256480000000
vertex 179.1057000000000 154.7104000000000 76.7538900000000
vertex 179.8867000000000 155.4915700000000 76.6976700000000
endloop
endfacet
facet normal -0.6648653067770 0.7453162090082 0.0495769344957
outer loop
vertex 178.1273000000000 153.8844000000000 76.4894100000000
vertex 177.0135000000000 152.9478400000000 75.6322850000000
vertex 177.4388000000000 153.2341500000000 77.0316400000000
endloop
endfacet
facet normal -0.6997141785189 0.7069695231949 0.1029279439859
outer loop
vertex 179.1057000000000 154.7104000000000 76.7538900000000
vertex 179.7024000000000 155.1718100000000 77.6410800000000
vertex 179.8867000000000 155.4915700000000 76.6976700000000
endloop
endfacet
facet normal -0.8749065735234 0.4306369829981 0.2215632561590
outer loop
vertex 181.6027000000000 158.2420500000000 76.9329000000000
vertex 181.0378000000000 157.2603400000000 76.6103100000000
vertex 181.3871000000000 157.3199100000000 77.8738400000000
endloop
endfacet
facet normal -0.8734516577562 0.4696369183796 0.1285432474226
outer loop
vertex 181.0378000000000 157.2603400000000 76.6103100000000
vertex 180.3971000000000 156.2481500000000 75.9548210000000
vertex 180.5843000000000 156.1695700000000 77.5139400000000
endloop
endfacet
facet normal -0.8315515483525 0.5160136663595 0.2055527148026
outer loop
vertex 181.3871000000000 157.3199100000000 77.8738400000000
vertex 181.0378000000000 157.2603400000000 76.6103100000000
vertex 180.5843000000000 156.1695700000000 77.5139400000000
endloop
endfacet
facet normal -0.6700486727985 0.7421202334559 -0.0170978120318
outer loop
vertex 178.4023000000000 154.1108200000000 77.3242300000000
vertex 177.4388000000000 153.2341500000000 77.0316400000000
vertex 177.7310000000000 153.5172100000000 77.8666200000000
endloop
endfacet
facet normal -0.6785901985494 0.7344270393527 -0.0115007086913
outer loop
vertex 177.4388000000000 153.2341500000000 77.0316400000000
vertex 176.9474000000000 152.7899700000000 77.6612900000000
vertex 177.7310000000000 153.5172100000000 77.8666200000000
endloop
endfacet
facet normal -0.7968371540501 0.6028940478777 -0.0396146053748
outer loop
vertex 176.9474000000000 152.7899700000000 77.6612900000000
vertex 176.4467000000000 152.0963300000000 77.1762400000000
vertex 176.4132000000000 152.1200600000000 78.2112300000000
endloop
endfacet
facet normal -0.5310746723041 0.7322823793966 0.4262888800594
outer loop
vertex 182.3614000000000 158.7668500000000 76.9765900000000
vertex 181.6027000000000 158.2420500000000 76.9329000000000
vertex 182.1676000000000 158.0909200000000 77.8962700000000
endloop
endfacet
facet normal -0.6284697048019 0.6226427047265 0.4661994126950
outer loop
vertex 181.6027000000000 158.2420500000000 76.9329000000000
vertex 181.3871000000000 157.3199100000000 77.8738400000000
vertex 182.1676000000000 158.0909200000000 77.8962700000000
endloop
endfacet
facet normal -0.7621753729565 0.6354733548080 0.1235407470746
outer loop
vertex 180.3971000000000 156.2481500000000 75.9548210000000
vertex 179.8867000000000 155.4915700000000 76.6976700000000
vertex 180.5843000000000 156.1695700000000 77.5139400000000
endloop
endfacet
facet normal -0.7416894758020 0.6658596284032 0.0807940390582
outer loop
vertex 179.8867000000000 155.4915700000000 76.6976700000000
vertex 179.7024000000000 155.1718100000000 77.6410800000000
vertex 180.5843000000000 156.1695700000000 77.5139400000000
endloop
endfacet
facet normal -0.6310685895139 0.7730034957899 0.0649463688400
outer loop
vertex 178.4023000000000 154.1108200000000 77.3242300000000
vertex 177.7310000000000 153.5172100000000 77.8666200000000
vertex 178.5172000000000 154.1205700000000 78.3246400000000
endloop
endfacet
facet normal -0.6295638205992 0.7742450202890 0.0647614418479
outer loop
vertex 179.0113000000000 154.5739400000000 77.7077300000000
vertex 178.4023000000000 154.1108200000000 77.3242300000000
vertex 178.5172000000000 154.1205700000000 78.3246400000000
endloop
endfacet
facet normal -0.6878117720558 0.7230694793910 0.0639178706989
outer loop
vertex 177.7310000000000 153.5172100000000 77.8666200000000
vertex 176.9474000000000 152.7899700000000 77.6612900000000
vertex 177.0868000000000 152.8455100000000 78.5330600000000
endloop
endfacet
facet normal -0.7475160124208 0.6597069854968 0.0775016416680
outer loop
vertex 176.9474000000000 152.7899700000000 77.6612900000000
vertex 176.4132000000000 152.1200600000000 78.2112300000000
vertex 177.0868000000000 152.8455100000000 78.5330600000000
endloop
endfacet
facet normal -0.6313709066470 0.7729683252101 0.0623758483835
outer loop
vertex 179.0113000000000 154.5739400000000 77.7077300000000
vertex 178.5172000000000 154.1205700000000 78.3246400000000
vertex 179.3057000000000 154.7487100000000 78.5218900000000
endloop
endfacet
facet normal -0.6485879916148 0.7577388825452 0.0718707382197
outer loop
vertex 179.7024000000000 155.1718100000000 77.6410800000000
vertex 179.0113000000000 154.5739400000000 77.7077300000000
vertex 179.3057000000000 154.7487100000000 78.5218900000000
endloop
endfacet
facet normal 0.3717549479864 0.7089152842171 0.5993641451164
outer loop
vertex 182.3614000000000 158.7668500000000 76.9765900000000
vertex 182.1676000000000 158.0909200000000 77.8962700000000
vertex 182.8223000000000 158.1527600000000 77.4170500000000
endloop
endfacet
facet normal -0.8316486309483 0.5169311548986 0.2028367218651
outer loop
vertex 181.3871000000000 157.3199100000000 77.8738400000000
vertex 180.5843000000000 156.1695700000000 77.5139400000000
vertex 181.0986000000000 156.3765600000000 79.0951000000000
endloop
endfacet
facet normal -0.7277502913868 0.6694443450056 0.1490764311566
outer loop
vertex 181.0986000000000 156.3765600000000 79.0951000000000
vertex 180.5843000000000 156.1695700000000 77.5139400000000
vertex 180.1504000000000 155.4448400000000 78.6502400000000
endloop
endfacet
facet normal -0.7321208492702 0.6655759742592 0.1449402792630
outer loop
vertex 180.5843000000000 156.1695700000000 77.5139400000000
vertex 179.7024000000000 155.1718100000000 77.6410800000000
vertex 180.1504000000000 155.4448400000000 78.6502400000000
endloop
endfacet
facet normal -0.6398922274474 0.7627418005985 0.0936102711891
outer loop
vertex 178.5172000000000 154.1205700000000 78.3246400000000
vertex 177.7310000000000 153.5172100000000 77.8666200000000
vertex 177.8849000000000 153.5025200000000 79.0383300000000
endloop
endfacet
facet normal -0.6684661410929 0.7373840255441 0.0970454382479
outer loop
vertex 177.7310000000000 153.5172100000000 77.8666200000000
vertex 177.0868000000000 152.8455100000000 78.5330600000000
vertex 177.8849000000000 153.5025200000000 79.0383300000000
endloop
endfacet
facet normal -0.6490099409456 0.6452744111037 0.4029975569760
outer loop
vertex 181.3871000000000 157.3199100000000 77.8738400000000
vertex 182.0421000000000 157.3240000000000 78.9221400000000
vertex 182.1676000000000 158.0909200000000 77.8962700000000
endloop
endfacet
facet normal 0.3968596527504 0.7112137273099 0.5802391318283
outer loop
vertex 182.1676000000000 158.0909200000000 77.8962700000000
vertex 182.0421000000000 157.3240000000000 78.9221400000000
vertex 182.9184000000001 157.3659400000000 78.2713800000000
endloop
endfacet
facet normal 0.3761128603983 0.7022595581710 0.6044589557616
outer loop
vertex 182.8223000000000 158.1527600000000 77.4170500000000
vertex 182.1676000000000 158.0909200000000 77.8962700000000
vertex 182.9184000000001 157.3659400000000 78.2713800000000
endloop
endfacet
facet normal -0.6183746360178 0.6858490432278 0.3836976667031
outer loop
vertex 182.0421000000000 157.3240000000000 78.9221400000000
vertex 181.3871000000000 157.3199100000000 77.8738400000000
vertex 181.0986000000000 156.3765600000000 79.0951000000000
endloop
endfacet
facet normal -0.6410714844952 0.7635046509282 0.0780256353907
outer loop
vertex 179.7024000000000 155.1718100000000 77.6410800000000
vertex 179.3057000000000 154.7487100000000 78.5218900000000
vertex 180.1504000000000 155.4448400000000 78.6502400000000
endloop
endfacet
facet normal -0.6831450658235 0.7147944725447 0.1496050836724
outer loop
vertex 177.8849000000000 153.5025200000000 79.0383300000000
vertex 177.0868000000000 152.8455100000000 78.5330600000000
vertex 177.2220000000000 152.7446800000000 79.6321800000000
endloop
endfacet
facet normal -0.7583891190753 0.6299651680720 0.1673016170999
outer loop
vertex 177.0868000000000 152.8455100000000 78.5330600000000
vertex 176.4132000000000 152.1200600000000 78.2112300000000
vertex 176.6778000000000 152.2109600000000 79.0684000000000
endloop
endfacet
facet normal 0.8925315390029 0.3264880167709 0.3111157771475
outer loop
vertex 183.0693000000000 155.2733500000000 81.1355800000000
vertex 182.6520000000000 155.6628200000000 81.9240200000000
vertex 182.9091000000000 154.7494300000000 82.1449700000000
endloop
endfacet
facet normal -0.6233307300774 0.7773771011864 0.0845200774503
outer loop
vertex 179.3057000000000 154.7487100000000 78.5218900000000
vertex 178.8199000000000 154.2549600000000 79.4804300000000
vertex 179.6379000000000 154.9262200000000 79.3391900000000
endloop
endfacet
facet normal -0.6192988893105 0.7775773609814 0.1088224856728
outer loop
vertex 179.6379000000000 154.9262200000000 79.3391900000000
vertex 178.8199000000000 154.2549600000000 79.4804300000000
vertex 179.5708000000000 154.7479900000000 80.2308500000000
endloop
endfacet
facet normal -0.6416723518107 0.7610062119027 0.0955308241731
outer loop
vertex 180.1504000000000 155.4448400000000 78.6502400000000
vertex 179.3057000000000 154.7487100000000 78.5218900000000
vertex 179.6379000000000 154.9262200000000 79.3391900000000
endloop
endfacet
facet normal -0.6328605123606 0.7705116275182 0.0761538164108
outer loop
vertex 179.3057000000000 154.7487100000000 78.5218900000000
vertex 178.5172000000000 154.1205700000000 78.3246400000000
vertex 178.8199000000000 154.2549600000000 79.4804300000000
endloop
endfacet
facet normal -0.6480051274876 0.7572453738135 0.0816627123471
outer loop
vertex 178.5172000000000 154.1205700000000 78.3246400000000
vertex 177.8849000000000 153.5025200000000 79.0383300000000
vertex 178.8199000000000 154.2549600000000 79.4804300000000
endloop
endfacet
facet normal -0.7676746323263 0.6226620148082 0.1515508963931
outer loop
vertex 177.2220000000000 152.7446800000000 79.6321800000000
vertex 177.0868000000000 152.8455100000000 78.5330600000000
vertex 176.6778000000000 152.2109600000000 79.0684000000000
endloop
endfacet
facet normal -0.7082715610241 0.6986788857066 0.1009911407610
outer loop
vertex 177.8849000000000 153.5025200000000 79.0383300000000
vertex 177.2220000000000 152.7446800000000 79.6321800000000
vertex 178.0408000000000 153.4689100000000 80.3642100000000
endloop
endfacet
facet normal 0.1510990652126 0.9132134442588 0.3784313381801
outer loop
vertex 181.9181000000000 156.7592600000000 80.1893300000000
vertex 182.8560000000000 156.3256400000000 80.8612400000000
vertex 182.8883000000000 156.8472200000000 79.5896900000000
endloop
endfacet
facet normal 0.2249309717615 0.9049496456155 0.3612093532050
outer loop
vertex 182.0421000000000 157.3240000000000 78.9221400000000
vertex 182.8883000000000 156.8472200000000 79.5896900000000
vertex 182.9184000000001 157.3659400000000 78.2713800000000
endloop
endfacet
facet normal -0.6629677747577 0.7057893234223 0.2496701034885
outer loop
vertex 181.9181000000000 156.7592600000000 80.1893300000000
vertex 182.0421000000000 157.3240000000000 78.9221400000000
vertex 181.0986000000000 156.3765600000000 79.0951000000000
endloop
endfacet
facet normal -0.7251531303959 0.6764024897285 0.1289674740628
outer loop
vertex 181.0986000000000 156.3765600000000 79.0951000000000
vertex 180.1504000000000 155.4448400000000 78.6502400000000
vertex 180.3399000000000 155.4271200000000 79.8086900000000
endloop
endfacet
facet normal 0.9835235645623 0.1594469872675 0.0851942263418
outer loop
vertex 182.9184000000001 157.3659400000000 78.2713800000000
vertex 182.8883000000000 156.8472200000000 79.5896900000000
vertex 183.0625000000000 156.2099800000000 78.7712800000000
endloop
endfacet
facet normal -0.6265409992473 0.7709642009043 0.1142828822974
outer loop
vertex 180.1504000000000 155.4448400000000 78.6502400000000
vertex 179.6379000000000 154.9262200000000 79.3391900000000
vertex 180.3399000000000 155.4271200000000 79.8086900000000
endloop
endfacet
facet normal -0.6511316700242 0.7529137665445 0.0956473127661
outer loop
vertex 178.8199000000000 154.2549600000000 79.4804300000000
vertex 177.8849000000000 153.5025200000000 79.0383300000000
vertex 178.0408000000000 153.4689100000000 80.3642100000000
endloop
endfacet
facet normal -0.6838476844351 0.7003197173040 0.2047062237647
outer loop
vertex 181.0986000000000 156.3765600000000 79.0951000000000
vertex 180.3399000000000 155.4271200000000 79.8086900000000
vertex 181.0987000000000 155.9519400000000 80.5481000000000
endloop
endfacet
facet normal -0.6353931876421 0.7411757635673 0.2166425272159
outer loop
vertex 181.9181000000000 156.7592600000000 80.1893300000000
vertex 181.0986000000000 156.3765600000000 79.0951000000000
vertex 181.0987000000000 155.9519400000000 80.5481000000000
endloop
endfacet
facet normal 0.9789106899256 0.1966846125792 0.0552179710231
outer loop
vertex 182.8883000000000 156.8472200000000 79.5896900000000
vertex 183.0869000000000 155.7496400000000 79.9784300000000
vertex 183.0625000000000 156.2099800000000 78.7712800000000
endloop
endfacet
facet normal -0.6241798511742 0.7738212195351 0.1077043805306
outer loop
vertex 179.6379000000000 154.9262200000000 79.3391900000000
vertex 179.5708000000000 154.7479900000000 80.2308500000000
vertex 180.3399000000000 155.4271200000000 79.8086900000000
endloop
endfacet
facet normal 0.9699280520142 0.2155429558122 0.1130522362256
outer loop
vertex 182.8560000000000 156.3256400000000 80.8612400000000
vertex 183.0869000000000 155.7496400000000 79.9784300000000
vertex 182.8883000000000 156.8472200000000 79.5896900000000
endloop
endfacet
facet normal -0.6167654863281 0.7801680851063 0.1045853424533
outer loop
vertex 179.5708000000000 154.7479900000000 80.2308500000000
vertex 178.8199000000000 154.2549600000000 79.4804300000000
vertex 178.8937000000000 154.1699500000000 80.5497900000000
endloop
endfacet
facet normal -0.8013716453806 0.5354501864787 0.2666394265294
outer loop
vertex 177.2220000000000 152.7446800000000 79.6321800000000
vertex 176.6778000000000 152.2109600000000 79.0684000000000
vertex 176.6604000000000 151.7289900000000 79.9839700000000
endloop
endfacet
facet normal -0.6449858205639 0.7569895829385 0.1046903175761
outer loop
vertex 178.8199000000000 154.2549600000000 79.4804300000000
vertex 178.0408000000000 153.4689100000000 80.3642100000000
vertex 178.8937000000000 154.1699500000000 80.5497900000000
endloop
endfacet
facet normal -0.6096627160083 0.7795791083583 0.1434147360654
outer loop
vertex 180.3399000000000 155.4271200000000 79.8086900000000
vertex 179.5708000000000 154.7479900000000 80.2308500000000
vertex 180.2890000000000 155.1784300000000 80.9441500000000
endloop
endfacet
facet normal -0.6491709142928 0.7485924979227 0.1348569467624
outer loop
vertex 181.0987000000000 155.9519400000000 80.5481000000000
vertex 180.3399000000000 155.4271200000000 79.8086900000000
vertex 180.2890000000000 155.1784300000000 80.9441500000000
endloop
endfacet
facet normal -0.6033847163880 0.7862717508330 0.1330549430552
outer loop
vertex 180.2890000000000 155.1784300000000 80.9441500000000
vertex 179.5708000000000 154.7479900000000 80.2308500000000
vertex 179.4705000000000 154.4983400000000 81.2512800000000
endloop
endfacet
facet normal -0.6068653396135 0.7837506597670 0.1320960366195
outer loop
vertex 179.5708000000000 154.7479900000000 80.2308500000000
vertex 178.8937000000000 154.1699500000000 80.5497900000000
vertex 179.4705000000000 154.4983400000000 81.2512800000000
endloop
endfacet
facet normal -0.8404133773415 0.5188725825874 0.1564499863362
outer loop
vertex 177.2220000000000 152.7446800000000 79.6321800000000
vertex 176.6604000000000 151.7289900000000 79.9839700000000
vertex 177.2652000000000 152.4759000000000 80.7556600000000
endloop
endfacet
facet normal -0.7382631188525 0.6490273535755 0.1836601798238
outer loop
vertex 178.0408000000000 153.4689100000000 80.3642100000000
vertex 177.2220000000000 152.7446800000000 79.6321800000000
vertex 177.2652000000000 152.4759000000000 80.7556600000000
endloop
endfacet
facet normal 0.0559925862274 0.8726972892572 0.4850404845069
outer loop
vertex 182.8560000000000 156.3256400000000 80.8612400000000
vertex 181.9181000000000 156.7592600000000 80.1893300000000
vertex 181.8943000000000 156.1090900000000 81.3618800000000
endloop
endfacet
facet normal -0.5504718757105 0.7348113082473 0.3962739649834
outer loop
vertex 181.9181000000000 156.7592600000000 80.1893300000000
vertex 181.0987000000000 155.9519400000000 80.5481000000000
vertex 181.8943000000000 156.1090900000000 81.3618800000000
endloop
endfacet
facet normal -0.8784507126371 0.4525168024062 0.1534695051383
outer loop
vertex 177.2343000000000 152.0461200000000 81.8460300000000
vertex 177.2652000000000 152.4759000000000 80.7556600000000
vertex 176.8749000000000 151.6267500000000 81.0253900000000
endloop
endfacet
facet normal -0.6114971312113 0.7791055332484 0.1380790591730
outer loop
vertex 179.4705000000000 154.4983400000000 81.2512800000000
vertex 178.8937000000000 154.1699500000000 80.5497900000000
vertex 178.6501000000000 153.8235200000000 81.4257000000000
endloop
endfacet
facet normal -0.6457773020276 0.7542408954787 0.1187111948108
outer loop
vertex 178.8937000000000 154.1699500000000 80.5497900000000
vertex 178.0408000000000 153.4689100000000 80.3642100000000
vertex 178.6501000000000 153.8235200000000 81.4257000000000
endloop
endfacet
facet normal -0.8572109232295 0.4645760418232 0.2221678069835
outer loop
vertex 177.2652000000000 152.4759000000000 80.7556600000000
vertex 176.6604000000000 151.7289900000000 79.9839700000000
vertex 176.8749000000000 151.6267500000000 81.0253900000000
endloop
endfacet
facet normal 0.7789187900476 0.3458041416878 0.5231682464583
outer loop
vertex 182.9091000000000 154.7494300000000 82.1449700000000
vertex 182.6520000000000 155.6628200000000 81.9240200000000
vertex 182.3584000000000 155.0602400000000 82.7594400000000
endloop
endfacet
facet normal -0.6823804048190 0.7148303597068 0.1528873440170
outer loop
vertex 178.6501000000000 153.8235200000000 81.4257000000000
vertex 178.0408000000000 153.4689100000000 80.3642100000000
vertex 177.8583000000000 153.0220500000000 81.6389700000000
endloop
endfacet
facet normal -0.7602987896971 0.6392686883773 0.1152444985476
outer loop
vertex 178.0408000000000 153.4689100000000 80.3642100000000
vertex 177.2652000000000 152.4759000000000 80.7556600000000
vertex 177.8583000000000 153.0220500000000 81.6389700000000
endloop
endfacet
facet normal 0.0924984706227 0.8367998364299 0.5396388298514
outer loop
vertex 182.6520000000000 155.6628200000000 81.9240200000000
vertex 182.8560000000000 156.3256400000000 80.8612400000000
vertex 181.8943000000000 156.1090900000000 81.3618800000000
endloop
endfacet
facet normal -0.4700465179898 0.8303869271165 0.2991886064002
outer loop
vertex 181.8943000000000 156.1090900000000 81.3618800000000
vertex 181.0987000000000 155.9519400000000 80.5481000000000
vertex 181.0418000000000 155.5072200000000 81.6930100000000
endloop
endfacet
facet normal -0.5950859651797 0.7586731315167 0.2651184142241
outer loop
vertex 181.0987000000000 155.9519400000000 80.5481000000000
vertex 180.2890000000000 155.1784300000000 80.9441500000000
vertex 181.0418000000000 155.5072200000000 81.6930100000000
endloop
endfacet
facet normal -0.5773991685725 0.7892719440990 0.2089497508733
outer loop
vertex 180.2890000000000 155.1784300000000 80.9441500000000
vertex 179.4705000000000 154.4983400000000 81.2512800000000
vertex 180.1973000000000 154.8180700000000 82.0519500000000
endloop
endfacet
facet normal -0.5615743530197 0.7993933600214 0.2135521060168
outer loop
vertex 181.0418000000000 155.5072200000000 81.6930100000000
vertex 180.2890000000000 155.1784300000000 80.9441500000000
vertex 180.1973000000000 154.8180700000000 82.0519500000000
endloop
endfacet
facet normal 0.7677055187936 0.4408857924862 0.4650246814930
outer loop
vertex 182.9091000000000 154.7494300000000 82.1449700000000
vertex 182.3584000000000 155.0602400000000 82.7594400000000
vertex 182.6263000000000 154.2406100000000 83.0942500000000
endloop
endfacet
facet normal -0.5115390607741 0.7957335898843 0.3242465778264
outer loop
vertex 181.0418000000000 155.5072200000000 81.6930100000000
vertex 180.1973000000000 154.8180700000000 82.0519500000000
vertex 181.0024000000000 155.0727600000001 82.6970600000000
endloop
endfacet
facet normal -0.6774546636475 0.7151140811232 0.1722411962382
outer loop
vertex 178.6501000000000 153.8235200000000 81.4257000000000
vertex 177.8583000000000 153.0220500000000 81.6389700000000
vertex 178.5194000000000 153.4517200000000 82.4552800000000
endloop
endfacet
facet normal -0.6000269327248 0.7778112048881 0.1870224840907
outer loop
vertex 179.4705000000000 154.4983400000000 81.2512800000000
vertex 178.6501000000000 153.8235200000000 81.4257000000000
vertex 179.3227000000000 154.1379100000000 82.2760900000000
endloop
endfacet
facet normal 0.0854356100740 0.8332133456387 0.5463115202710
outer loop
vertex 182.6520000000000 155.6628200000000 81.9240200000000
vertex 181.8943000000000 156.1090900000000 81.3618800000000
vertex 181.8020000000000 155.4992100000000 82.3064800000000
endloop
endfacet
facet normal -0.3760621047576 0.7947539690408 0.4763857912021
outer loop
vertex 181.8943000000000 156.1090900000000 81.3618800000000
vertex 181.0418000000000 155.5072200000000 81.6930100000000
vertex 181.8020000000000 155.4992100000000 82.3064800000000
endloop
endfacet
facet normal 0.1229670051527 0.7838769994681 0.6086180783945
outer loop
vertex 182.3584000000000 155.0602400000000 82.7594400000000
vertex 182.6520000000000 155.6628200000000 81.9240200000000
vertex 181.8020000000000 155.4992100000000 82.3064800000000
endloop
endfacet
facet normal -0.5694967219940 0.7976870121915 0.1984160130106
outer loop
vertex 180.1973000000000 154.8180700000000 82.0519500000000
vertex 179.4705000000000 154.4983400000000 81.2512800000000
vertex 179.3227000000000 154.1379100000000 82.2760900000000
endloop
endfacet
facet normal -0.6103812195499 0.7666115966360 0.1993525187301
outer loop
vertex 178.6501000000000 153.8235200000000 81.4257000000000
vertex 178.5194000000000 153.4517200000000 82.4552800000000
vertex 179.3227000000000 154.1379100000000 82.2760900000000
endloop
endfacet
facet normal -0.6996073859237 0.6840233728519 0.2065466798409
outer loop
vertex 178.5194000000000 153.4517200000000 82.4552800000000
vertex 177.8583000000000 153.0220500000000 81.6389700000000
vertex 177.7966000000000 152.5659000000000 82.9406200000000
endloop
endfacet
facet normal -0.8168593134190 0.5553692789022 0.1559032588894
outer loop
vertex 177.8583000000000 153.0220500000000 81.6389700000000
vertex 177.2343000000000 152.0461200000000 81.8460300000000
vertex 177.7966000000000 152.5659000000000 82.9406200000000
endloop
endfacet
facet normal -0.2084251171973 0.8623937534227 0.4613415053718
outer loop
vertex 181.0024000000000 155.0727600000001 82.6970600000000
vertex 181.1992000000000 154.7147900000000 83.4551300000000
vertex 181.6977000000000 155.0693700000000 83.0175200000000
endloop
endfacet
facet normal 0.0060814416586 0.7735490617558 0.6337072392865
outer loop
vertex 181.6977000000000 155.0693700000000 83.0175200000000
vertex 181.1992000000000 154.7147900000000 83.4551300000000
vertex 181.9674000000000 154.6164900000000 83.5677500000000
endloop
endfacet
facet normal -0.2896877940604 0.8825033075133 0.3704981703065
outer loop
vertex 181.0418000000000 155.5072200000000 81.6930100000000
vertex 181.0024000000000 155.0727600000001 82.6970600000000
vertex 181.8020000000000 155.4992100000000 82.3064800000000
endloop
endfacet
facet normal -0.5082382252539 0.8002136178264 0.3183584021758
outer loop
vertex 181.0024000000000 155.0727600000001 82.6970600000000
vertex 180.1973000000000 154.8180700000000 82.0519500000000
vertex 180.1390000000000 154.2741200000000 83.3261300000000
endloop
endfacet
facet normal -0.4995227543865 0.8190907239793 0.2820769464901
outer loop
vertex 180.1390000000000 154.2741200000000 83.3261300000000
vertex 179.3227000000000 154.1379100000000 82.2760900000000
vertex 179.1300000000000 153.7425200000000 83.0829700000000
endloop
endfacet
facet normal -0.5322569992832 0.7871235697454 0.3116712573615
outer loop
vertex 180.1973000000000 154.8180700000000 82.0519500000000
vertex 179.3227000000000 154.1379100000000 82.2760900000000
vertex 180.1390000000000 154.2741200000000 83.3261300000000
endloop
endfacet
facet normal -0.2177091560037 0.8490645773369 0.4813440213649
outer loop
vertex 181.8020000000000 155.4992100000000 82.3064800000000
vertex 181.0024000000000 155.0727600000001 82.6970600000000
vertex 181.6977000000000 155.0693700000000 83.0175200000000
endloop
endfacet
facet normal 0.2176348316072 0.8208067363601 0.5281206127555
outer loop
vertex 182.3584000000000 155.0602400000000 82.7594400000000
vertex 181.8020000000000 155.4992100000000 82.3064800000000
vertex 181.6977000000000 155.0693700000000 83.0175200000000
endloop
endfacet
facet normal -0.6016343417981 0.7646382344132 0.2310075523500
outer loop
vertex 179.3227000000000 154.1379100000000 82.2760900000000
vertex 178.5194000000000 153.4517200000000 82.4552800000000
vertex 179.1300000000000 153.7425200000000 83.0829700000000
endloop
endfacet
facet normal -0.6925746338569 0.6864898776571 0.2215220630372
outer loop
vertex 178.5194000000000 153.4517200000000 82.4552800000000
vertex 177.7966000000000 152.5659000000000 82.9406200000000
vertex 178.5695000000000 153.2176500000000 83.3372900000000
endloop
endfacet
facet normal 0.2261592928527 0.8035815154169 0.5505531058278
outer loop
vertex 182.3584000000000 155.0602400000000 82.7594400000000
vertex 181.6977000000000 155.0693700000000 83.0175200000000
vertex 181.9674000000000 154.6164900000000 83.5677500000000
endloop
endfacet
facet normal 0.6760668957949 0.4570624794134 0.5779510726027
outer loop
vertex 182.6263000000000 154.2406100000000 83.0942500000000
vertex 182.3584000000000 155.0602400000000 82.7594400000000
vertex 181.9674000000000 154.6164900000000 83.5677500000000
endloop
endfacet
facet normal -0.8065272604351 0.5574548746725 0.1968701116954
outer loop
vertex 177.2652000000000 152.4759000000000 80.7556600000000
vertex 177.2343000000000 152.0461200000000 81.8460300000000
vertex 177.8583000000000 153.0220500000000 81.6389700000000
endloop
endfacet
facet normal -0.6049415638852 0.7604404435534 0.2361695071181
outer loop
vertex 179.1300000000000 153.7425200000000 83.0829700000000
vertex 178.5194000000000 153.4517200000000 82.4552800000000
vertex 178.5695000000000 153.2176500000000 83.3372900000000
endloop
endfacet
facet normal -0.5498960721558 0.7576060033733 0.3516353985030
outer loop
vertex 179.1300000000000 153.7425200000000 83.0829700000000
vertex 178.5695000000000 153.2176500000000 83.3372900000000
vertex 179.2484000000000 153.4279800000000 83.9458100000000
endloop
endfacet
facet normal -0.3865219448918 0.7911837971339 0.4739504038081
outer loop
vertex 181.1992000000000 154.7147900000000 83.4551300000000
vertex 181.0024000000000 155.0727600000001 82.6970600000000
vertex 180.1390000000000 154.2741200000000 83.3261300000000
endloop
endfacet
facet normal -0.0061815220409 0.7320963152415 0.6811730866638
outer loop
vertex 181.9674000000000 154.6164900000000 83.5677500000000
vertex 181.1992000000000 154.7147900000000 83.4551300000000
vertex 181.1694000000000 153.9940600000000 84.2294700000000
endloop
endfacet
facet normal -0.3627427192314 0.6890562542463 0.6273907858174
outer loop
vertex 181.1992000000000 154.7147900000000 83.4551300000000
vertex 180.1390000000000 154.2741200000000 83.3261300000000
vertex 181.1694000000000 153.9940600000000 84.2294700000000
endloop
endfacet
facet normal -0.6959566460214 0.6731470453344 0.2500348020098
outer loop
vertex 178.5695000000000 153.2176500000000 83.3372900000000
vertex 177.7966000000000 152.5659000000000 82.9406200000000
vertex 178.3516000000000 152.6775400000000 84.1848700000000
endloop
endfacet
facet normal 0.6741097913576 0.5163615241806 0.5281541115449
outer loop
vertex 182.6263000000000 154.2406100000000 83.0942500000000
vertex 181.9674000000000 154.6164900000000 83.5677500000000
vertex 182.2160000000000 153.7973700000000 84.0512800000000
endloop
endfacet
facet normal -0.3938962720705 0.7757053020975 0.4930791124625
outer loop
vertex 180.1390000000000 154.2741200000000 83.3261300000000
vertex 179.2484000000000 153.4279800000000 83.9458100000000
vertex 180.1130000000000 153.5702300000000 84.4127100000000
endloop
endfacet
facet normal -0.5012986304427 0.7885372398909 0.3562424798105
outer loop
vertex 180.1390000000000 154.2741200000000 83.3261300000000
vertex 179.1300000000000 153.7425200000000 83.0829700000000
vertex 179.2484000000000 153.4279800000000 83.9458100000000
endloop
endfacet
facet normal -0.2372259493479 0.8179076977567 0.5241668120993
outer loop
vertex 181.1694000000000 153.9940600000000 84.2294700000000
vertex 180.1390000000000 154.2741200000000 83.3261300000000
vertex 180.1130000000000 153.5702300000000 84.4127100000000
endloop
endfacet
facet normal -0.3872301607341 0.7892358946751 0.4766125314910
outer loop
vertex 180.1130000000000 153.5702300000000 84.4127100000000
vertex 179.2484000000000 153.4279800000000 83.9458100000000
vertex 179.3449000000000 152.7709300000000 85.1122400000000
endloop
endfacet
facet normal 0.2393344567014 0.5464107501172 0.8025922439146
outer loop
vertex 181.9674000000000 154.6164900000000 83.5677500000000
vertex 181.1694000000000 153.9940600000000 84.2294700000000
vertex 182.2160000000000 153.7973700000000 84.0512800000000
endloop
endfacet
facet normal -0.2520863984348 0.7630789504035 0.5951159241487
outer loop
vertex 180.1130000000000 153.5702300000000 84.4127100000000
vertex 179.3449000000000 152.7709300000000 85.1122400000000
vertex 180.6401000000000 153.1395100000000 85.1882700000000
endloop
endfacet
facet normal -0.2140681605496 0.7849386090885 0.5814174082370
outer loop
vertex 181.1694000000000 153.9940600000000 84.2294700000000
vertex 180.1130000000000 153.5702300000000 84.4127100000000
vertex 180.6401000000000 153.1395100000000 85.1882700000000
endloop
endfacet
facet normal 0.2453017642558 0.7598500329131 0.6020423340057
outer loop
vertex 182.2160000000000 153.7973700000000 84.0512800000000
vertex 181.1694000000000 153.9940600000000 84.2294700000000
vertex 181.7204000000000 153.2358800000000 84.9618800000000
endloop
endfacet
facet normal -0.5462585959696 0.7629340964741 0.3457356081843
outer loop
vertex 179.2484000000000 153.4279800000000 83.9458100000000
vertex 178.5695000000000 153.2176500000000 83.3372900000000
vertex 178.3516000000000 152.6775400000000 84.1848700000000
endloop
endfacet
facet normal -0.4960351075911 0.7383425154708 0.4569458413043
outer loop
vertex 179.2484000000000 153.4279800000000 83.9458100000000
vertex 178.3516000000000 152.6775400000000 84.1848700000000
vertex 179.3449000000000 152.7709300000000 85.1122400000000
endloop
endfacet
facet normal 0.0796512794232 0.7219097622740 0.6873877863475
outer loop
vertex 181.1694000000000 153.9940600000000 84.2294700000000
vertex 180.6401000000000 153.1395100000000 85.1882700000000
vertex 181.7204000000000 153.2358800000000 84.9618800000000
endloop
endfacet
endsolid WRAP
