solid WRAP
facet normal -0.9692443980461 0.0648637120199 0.2373983903048
outer loop
vertex 175.6165000000000 150.6749600000000 77.2643900000000
vertex 175.6883000000000 149.4760800000000 77.8851000000000
vertex 175.9073000000000 150.4864400000000 78.5031700000000
endloop
endfacet
facet normal -0.9767929305155 0.0494033325412 0.2084103683331
outer loop
vertex 175.6883000000000 149.4760800000000 77.8851000000000
vertex 175.6165000000000 150.6749600000000 77.2643900000000
vertex 175.4344000000000 149.4546200000000 76.7001900000000
endloop
endfacet
facet normal -0.9820991791272 -0.0782885933107 0.1713245414851
outer loop
vertex 175.8336000000000 147.5031300000000 78.0055100000000
vertex 175.8096000000000 148.4919400000000 78.3197800000000
vertex 175.6396000000000 148.4035000000000 77.3048600000000
endloop
endfacet
facet normal -0.9845124650035 -0.0467112269719 0.1689771213140
outer loop
vertex 175.8096000000000 148.4919400000000 78.3197800000000
vertex 175.6883000000000 149.4760800000000 77.8851000000000
vertex 175.6396000000000 148.4035000000000 77.3048600000000
endloop
endfacet
facet normal -0.9751849235069 -0.0694452172435 0.2102182836169
outer loop
vertex 175.6883000000000 149.4760800000000 77.8851000000000
vertex 175.4344000000000 149.4546200000000 76.7001900000000
vertex 175.6396000000000 148.4035000000000 77.3048600000000
endloop
endfacet
facet normal -0.9717994545227 0.0735952478116 0.2240302651182
outer loop
vertex 175.9073000000000 150.4864400000000 78.5031700000000
vertex 175.6883000000000 149.4760800000000 77.8851000000000
vertex 175.9767000000000 149.2966700000000 79.1950600000000
endloop
endfacet
facet normal -0.9212189867534 -0.3059933089776 0.2402575145670
outer loop
vertex 175.8566000000000 144.2162900000000 65.2433248000000
vertex 175.7260000000000 143.7714400000000 64.1760020000000
vertex 176.2159000000000 143.1109200000000 65.2131828000000
endloop
endfacet
facet normal -0.9453111699379 -0.2434050272219 0.2171192868302
outer loop
vertex 175.4730000000000 144.8740500000000 64.3105690000000
vertex 175.7260000000000 143.7714400000000 64.1760020000000
vertex 175.8566000000000 144.2162900000000 65.2433248000000
endloop
endfacet
facet normal 0.5600591057971 -0.8063739233873 0.1899865618795
outer loop
vertex 177.9087000000000 145.4538000000000 77.5528700000000
vertex 178.2903000000000 145.4059800000000 76.2249900000000
vertex 178.9149000000000 146.0234400000000 77.0044700000000
endloop
endfacet
facet normal 0.1903709776677 -0.9775860758026 0.0899130427621
outer loop
vertex 178.2903000000000 145.4059800000000 76.2249900000000
vertex 177.9087000000000 145.4538000000000 77.5528700000000
vertex 177.2363000000000 145.2275400000000 76.5165000000000
endloop
endfacet
facet normal -0.9269395747333 -0.3299020718205 0.1787390494600
outer loop
vertex 175.1953000000000 146.3003200000000 65.5029123000000
vertex 175.4730000000000 144.8740500000000 64.3105690000000
vertex 175.7780000000000 144.9306400000000 65.9967463040000
endloop
endfacet
facet normal -0.9391178157554 -0.2928585333303 0.1796986577199
outer loop
vertex 175.4730000000000 144.8740500000000 64.3105690000000
vertex 175.8566000000000 144.2162900000000 65.2433248000000
vertex 175.7780000000000 144.9306400000000 65.9967463040000
endloop
endfacet
facet normal -0.9283811198904 -0.3521744251846 0.1186662145553
outer loop
vertex 175.1953000000000 146.3003200000000 65.5029123000000
vertex 175.7780000000000 144.9306400000000 65.9967463040000
vertex 175.5418000000000 146.0581400000000 67.4950080000000
endloop
endfacet
facet normal -0.9452577445577 -0.2802775493453 0.1671295655673
outer loop
vertex 175.7780000000000 144.9306400000000 65.9967463040000
vertex 175.8566000000000 144.2162900000000 65.2433248000000
vertex 176.1882000000000 143.7108700000000 66.2712075000000
endloop
endfacet
facet normal -0.9389265977522 -0.3093100839978 0.1508115246617
outer loop
vertex 175.8566000000000 144.2162900000000 65.2433248000000
vertex 176.2159000000000 143.1109200000000 65.2131828000000
vertex 176.1882000000000 143.7108700000000 66.2712075000000
endloop
endfacet
facet normal -0.8108413483566 -0.5179665387450 0.2724829765983
outer loop
vertex 176.2159000000000 143.1109200000000 65.2131828000000
vertex 176.7885000000000 142.7985400000000 66.3232902000000
vertex 176.1882000000000 143.7108700000000 66.2712075000000
endloop
endfacet
facet normal -0.8274716995345 -0.5346735152489 0.1715074883520
outer loop
vertex 176.1882000000000 143.7108700000000 66.2712075000000
vertex 176.7885000000000 142.7985400000000 66.3232902000000
vertex 176.6218000000000 143.3785100000000 67.3270660000000
endloop
endfacet
facet normal -0.9497580174921 -0.2975622710519 0.0970381525784
outer loop
vertex 175.7780000000000 144.9306400000000 65.9967463040000
vertex 176.1882000000000 143.7108700000000 66.2712075000000
vertex 176.0938000000000 144.3185300000000 67.2106270000000
endloop
endfacet
facet normal -0.9453015343819 -0.3142537474218 0.0874619421606
outer loop
vertex 175.5418000000000 146.0581400000000 67.4950080000000
vertex 175.7780000000000 144.9306400000000 65.9967463040000
vertex 176.0938000000000 144.3185300000000 67.2106270000000
endloop
endfacet
facet normal -0.8743923460785 -0.4759830339521 0.0942240760590
outer loop
vertex 174.6420000000000 147.5398400000000 66.6298982000000
vertex 175.1953000000000 146.3003200000000 65.5029123000000
vertex 175.5418000000000 146.0581400000000 67.4950080000000
endloop
endfacet
facet normal -0.8633021983678 -0.4588863192377 0.2100777482499
outer loop
vertex 176.1882000000000 143.7108700000000 66.2712075000000
vertex 176.6218000000000 143.3785100000000 67.3270660000000
vertex 176.0938000000000 144.3185300000000 67.2106270000000
endloop
endfacet
facet normal -0.9448967477632 -0.3146178673756 0.0904750440429
outer loop
vertex 175.5418000000000 146.0581400000000 67.4950080000000
vertex 176.0938000000000 144.3185300000000 67.2106270000000
vertex 175.9629000000000 144.9620100000000 68.0811800000000
endloop
endfacet
facet normal -0.3574073497709 -0.8331559594242 0.4220321475975
outer loop
vertex 176.6218000000000 143.3785100000000 67.3270660000000
vertex 176.7885000000000 142.7985400000000 66.3232902000000
vertex 177.5326000000000 142.9704700000000 67.2928640000000
endloop
endfacet
facet normal -0.8804447442293 -0.4530955552221 0.1397192549258
outer loop
vertex 174.6420000000000 147.5398400000000 66.6298982000000
vertex 175.5418000000000 146.0581400000000 67.4950080000000
vertex 174.7753000000000 147.8011500000000 68.3172940000000
endloop
endfacet
facet normal -0.6065828716245 -0.7293111904385 0.3164844504126
outer loop
vertex 176.4124000000000 143.9604900000000 68.2668470000000
vertex 176.6218000000000 143.3785100000000 67.3270660000000
vertex 177.2110000000000 143.3139300000000 68.3075240000000
endloop
endfacet
facet normal -0.8593013349007 -0.4552161888852 0.2331939905202
outer loop
vertex 174.1099000000000 148.5960500000000 67.4170660000000
vertex 174.7753000000000 147.8011500000000 68.3172940000000
vertex 174.0765000000000 149.3124200000000 68.6924100000000
endloop
endfacet
facet normal -0.9124095216030 -0.3825223668552 0.1455524089242
outer loop
vertex 175.9629000000000 144.9620100000000 68.0811800000000
vertex 176.0938000000000 144.3185300000000 67.2106270000000
vertex 176.4124000000000 143.9604900000000 68.2668470000000
endloop
endfacet
facet normal -0.9422442329301 -0.3293055087653 0.0611039066418
outer loop
vertex 175.5418000000000 146.0581400000000 67.4950080000000
vertex 175.9629000000000 144.9620100000000 68.0811800000000
vertex 175.7871000000000 145.5891600000000 68.7501620000000
endloop
endfacet
facet normal 0.1708745808703 -0.9155608465652 0.3640744619569
outer loop
vertex 177.5326000000000 142.9704700000000 67.2928640000000
vertex 178.2911000000000 143.5009400000000 68.2708760000000
vertex 177.2110000000000 143.3139300000000 68.3075240000000
endloop
endfacet
facet normal -0.3966329846591 -0.9003460896146 0.1790508151229
outer loop
vertex 176.6218000000000 143.3785100000000 67.3270660000000
vertex 177.5326000000000 142.9704700000000 67.2928640000000
vertex 177.2110000000000 143.3139300000000 68.3075240000000
endloop
endfacet
facet normal -0.9304610885221 -0.3634879514065 0.0460290335400
outer loop
vertex 175.5418000000000 146.0581400000000 67.4950080000000
vertex 175.7871000000000 145.5891600000000 68.7501620000000
vertex 175.3810000000000 146.7313500000000 69.5607820000000
endloop
endfacet
facet normal -0.9298545194459 -0.3567320244846 0.0900712794020
outer loop
vertex 175.7871000000000 145.5891600000000 68.7501620000000
vertex 175.9629000000000 144.9620100000000 68.0811800000000
vertex 176.1892000000000 144.6708200000000 69.2641240000000
endloop
endfacet
facet normal -0.8344674619338 -0.5307780948274 0.1481170787761
outer loop
vertex 174.1099000000000 148.5960500000000 67.4170660000000
vertex 174.6420000000000 147.5398400000000 66.6298982000000
vertex 174.7753000000000 147.8011500000000 68.3172940000000
endloop
endfacet
facet normal -0.9006437072308 -0.4289356633938 0.0696786143260
outer loop
vertex 174.7753000000000 147.8011500000000 68.3172940000000
vertex 175.5418000000000 146.0581400000000 67.4950080000000
vertex 175.3810000000000 146.7313500000000 69.5607820000000
endloop
endfacet
facet normal 0.1735130619738 -0.9751457091571 0.1377826666782
outer loop
vertex 177.2110000000000 143.3139300000000 68.3075240000000
vertex 178.2911000000000 143.5009400000000 68.2708760000000
vertex 177.6856000000000 143.5101900000000 69.0988630000000
endloop
endfacet
facet normal -0.8726961249585 -0.4776329362195 0.1013323823898
outer loop
vertex 176.0938000000000 144.3185300000000 67.2106270000000
vertex 176.6218000000000 143.3785100000000 67.3270660000000
vertex 176.4124000000000 143.9604900000000 68.2668470000000
endloop
endfacet
facet normal -0.9148693715431 -0.3962464097255 0.0774778406520
outer loop
vertex 175.9629000000000 144.9620100000000 68.0811800000000
vertex 176.4124000000000 143.9604900000000 68.2668470000000
vertex 176.1892000000000 144.6708200000000 69.2641240000000
endloop
endfacet
facet normal -0.6262704840629 -0.7636745702201 0.1568006109387
outer loop
vertex 176.4124000000000 143.9604900000000 68.2668470000000
vertex 177.2110000000000 143.3139300000000 68.3075240000000
vertex 176.9116000000000 143.7445700000000 69.2090730000000
endloop
endfacet
facet normal -0.7536118903747 -0.6032701129047 0.2610254576892
outer loop
vertex 176.1892000000000 144.6708200000000 69.2641240000000
vertex 176.4124000000000 143.9604900000000 68.2668470000000
vertex 176.9116000000000 143.7445700000000 69.2090730000000
endloop
endfacet
facet normal -0.2233673261223 -0.9063185540292 0.3587390642840
outer loop
vertex 177.2110000000000 143.3139300000000 68.3075240000000
vertex 177.6856000000000 143.5101900000000 69.0988630000000
vertex 176.9116000000000 143.7445700000000 69.2090730000000
endloop
endfacet
facet normal -0.9102910861952 -0.3942151737159 0.1263508417291
outer loop
vertex 175.7510000000000 145.8195000000000 69.6910110000000
vertex 176.1892000000000 144.6708200000000 69.2641240000000
vertex 176.2387000000000 145.0035800000000 70.6589580000000
endloop
endfacet
facet normal -0.9257426649024 -0.3739790029377 0.0560376992840
outer loop
vertex 175.7871000000000 145.5891600000000 68.7501620000000
vertex 176.1892000000000 144.6708200000000 69.2641240000000
vertex 175.7510000000000 145.8195000000000 69.6910110000000
endloop
endfacet
facet normal -0.2459152475089 -0.9339853293070 0.2592240260508
outer loop
vertex 176.9116000000000 143.7445700000000 69.2090730000000
vertex 177.6856000000000 143.5101900000000 69.0988630000000
vertex 177.5431000000000 143.7910800000000 69.9757270000000
endloop
endfacet
facet normal -0.8921736675537 -0.4389633484519 0.1064768784279
outer loop
vertex 174.0765000000000 149.3124200000000 68.6924100000000
vertex 174.7753000000000 147.8011500000000 68.3172940000000
vertex 174.6750000000000 148.4545800000000 70.1707180000000
endloop
endfacet
facet normal -0.9091787368197 -0.4056972100948 0.0938285576799
outer loop
vertex 174.7753000000000 147.8011500000000 68.3172940000000
vertex 175.3810000000000 146.7313500000000 69.5607820000000
vertex 174.6750000000000 148.4545800000000 70.1707180000000
endloop
endfacet
facet normal -0.7785473819681 -0.6147183706373 0.1264329815814
outer loop
vertex 176.1892000000000 144.6708200000000 69.2641240000000
vertex 176.9116000000000 143.7445700000000 69.2090730000000
vertex 176.7428000000000 144.1341300000000 70.0636830000000
endloop
endfacet
facet normal 0.2979150775059 -0.9269105514769 0.2282179575657
outer loop
vertex 177.6856000000000 143.5101900000000 69.0988630000000
vertex 178.2911000000000 143.5009400000000 68.2708760000000
vertex 178.4157000000000 143.8534500000000 69.5399480000000
endloop
endfacet
facet normal -0.9279323158103 -0.3687184154805 0.0546657786967
outer loop
vertex 175.3810000000000 146.7313500000000 69.5607820000000
vertex 175.7871000000000 145.5891600000000 68.7501620000000
vertex 175.7510000000000 145.8195000000000 69.6910110000000
endloop
endfacet
facet normal -0.9384825798842 -0.2566967334851 0.2309918489299
outer loop
vertex 174.1597000000000 150.5388600000000 70.3933570000000
vertex 174.0765000000000 149.3124200000000 68.6924100000000
vertex 174.6750000000000 148.4545800000000 70.1707180000000
endloop
endfacet
facet normal -0.7994963639465 -0.5772531026309 0.1660855789627
outer loop
vertex 176.2387000000000 145.0035800000000 70.6589580000000
vertex 176.1892000000000 144.6708200000000 69.2641240000000
vertex 176.7428000000000 144.1341300000000 70.0636830000000
endloop
endfacet
facet normal 0.2305283259957 -0.9151740416633 0.3306254139948
outer loop
vertex 177.6856000000000 143.5101900000000 69.0988630000000
vertex 178.4157000000000 143.8534500000000 69.5399480000000
vertex 177.5431000000000 143.7910800000000 69.9757270000000
endloop
endfacet
facet normal -0.3402088984805 -0.8791975982139 0.3335708151048
outer loop
vertex 176.9116000000000 143.7445700000000 69.2090730000000
vertex 177.5431000000000 143.7910800000000 69.9757270000000
vertex 176.7428000000000 144.1341300000000 70.0636830000000
endloop
endfacet
facet normal -0.9146228539191 -0.3986255624753 0.0675477314955
outer loop
vertex 174.6750000000000 148.4545800000000 70.1707180000000
vertex 175.3810000000000 146.7313500000000 69.5607820000000
vertex 175.3904000000000 147.0752500000000 71.7175500000000
endloop
endfacet
facet normal -0.9279150104624 -0.3699002626528 0.0463414398570
outer loop
vertex 175.3810000000000 146.7313500000000 69.5607820000000
vertex 175.7510000000000 145.8195000000000 69.6910110000000
vertex 175.6662000000000 146.1636000000000 70.7396510000000
endloop
endfacet
facet normal -0.9360269760694 -0.3468808147604 0.0593902384360
outer loop
vertex 175.3904000000000 147.0752500000000 71.7175500000000
vertex 175.3810000000000 146.7313500000000 69.5607820000000
vertex 175.6662000000000 146.1636000000000 70.7396510000000
endloop
endfacet
facet normal -0.8922233995490 -0.4454850805061 0.0740300502750
outer loop
vertex 175.7510000000000 145.8195000000000 69.6910110000000
vertex 176.2387000000000 145.0035800000000 70.6589580000000
vertex 175.6662000000000 146.1636000000000 70.7396510000000
endloop
endfacet
facet normal -0.9193402989215 0.3801161499092 0.1016126338461
outer loop
vertex 175.0170000000000 152.3500700000000 71.3743400000000
vertex 174.1597000000000 150.5388600000000 70.3933570000000
vertex 174.5140000000000 150.9984900000000 71.8794860000000
endloop
endfacet
facet normal -0.8944794667903 -0.4446838497288 0.0465054543138
outer loop
vertex 175.6662000000000 146.1636000000000 70.7396510000000
vertex 176.2387000000000 145.0035800000000 70.6589580000000
vertex 175.9208000000000 145.7413100000000 71.5986670000000
endloop
endfacet
facet normal -0.5988528333215 0.7791172898564 0.1853416646888
outer loop
vertex 176.6950000000000 153.6305900000000 71.4131860000000
vertex 175.0170000000000 152.3500700000000 71.3743400000000
vertex 176.2334000000000 152.9245200000000 72.8898150000000
endloop
endfacet
facet normal 0.1918128301685 -0.9495327141793 0.2481843324751
outer loop
vertex 177.5431000000000 143.7910800000000 69.9757270000000
vertex 178.4157000000000 143.8534500000000 69.5399480000000
vertex 178.2890000000000 144.1378200000000 70.7258460000000
endloop
endfacet
facet normal -0.3536771015349 -0.8948837185255 0.2722051398631
outer loop
vertex 176.7428000000000 144.1341300000000 70.0636830000000
vertex 177.5431000000000 143.7910800000000 69.9757270000000
vertex 177.2065000000000 144.2312000000000 70.9852910000000
endloop
endfacet
facet normal -0.6506747656581 -0.6481393770597 0.3956484515834
outer loop
vertex 176.2387000000000 145.0035800000000 70.6589580000000
vertex 176.7428000000000 144.1341300000000 70.0636830000000
vertex 177.2065000000000 144.2312000000000 70.9852910000000
endloop
endfacet
facet normal -0.8268757204834 -0.5429603031714 0.1465286731498
outer loop
vertex 175.9208000000000 145.7413100000000 71.5986670000000
vertex 176.2387000000000 145.0035800000000 70.6589580000000
vertex 176.6020000000000 144.8460400000000 72.1253330000000
endloop
endfacet
facet normal 0.0181072527374 -0.9143022081848 0.4046277295325
outer loop
vertex 177.5431000000000 143.7910800000000 69.9757270000000
vertex 178.2890000000000 144.1378200000000 70.7258460000000
vertex 177.2065000000000 144.2312000000000 70.9852910000000
endloop
endfacet
facet normal -0.8353915700974 0.4359930711341 0.3347102725243
outer loop
vertex 175.0170000000000 152.3500700000000 71.3743400000000
vertex 174.5140000000000 150.9984900000000 71.8794860000000
vertex 175.2487000000000 151.3948200000000 73.1969390000000
endloop
endfacet
facet normal -0.8234653391865 -0.5536701214746 0.1239121936888
outer loop
vertex 175.9208000000000 145.7413100000000 71.5986670000000
vertex 176.6020000000000 144.8460400000000 72.1253330000000
vertex 175.8631000000000 146.0274900000000 72.4939410000000
endloop
endfacet
facet normal -0.6374338609968 -0.7667925584691 0.0755463111680
outer loop
vertex 176.2387000000000 145.0035800000000 70.6589580000000
vertex 177.2065000000000 144.2312000000000 70.9852910000000
vertex 176.6020000000000 144.8460400000000 72.1253330000000
endloop
endfacet
facet normal -0.0293775478065 -0.9732807367935 0.2277313484602
outer loop
vertex 177.2065000000000 144.2312000000000 70.9852910000000
vertex 178.2890000000000 144.1378200000000 70.7258460000000
vertex 178.0042000000000 144.4673300000000 72.0973700000000
endloop
endfacet
facet normal -0.7394367811395 0.5530619718238 0.3838693814573
outer loop
vertex 176.2334000000000 152.9245200000000 72.8898150000000
vertex 175.0170000000000 152.3500700000000 71.3743400000000
vertex 175.2487000000000 151.3948200000000 73.1969390000000
endloop
endfacet
facet normal -0.8743869753546 0.0081646437762 0.4851605465434
outer loop
vertex 175.2487000000000 151.3948200000000 73.1969390000000
vertex 174.5140000000000 150.9984900000000 71.8794860000000
vertex 174.7310000000000 149.4258300000000 72.2970430000000
endloop
endfacet
facet normal -0.9227768356072 -0.3748646985108 0.0892152984478
outer loop
vertex 175.3904000000000 147.0752500000000 71.7175500000000
vertex 175.6662000000000 146.1636000000000 70.7396510000000
vertex 175.9208000000000 145.7413100000000 71.5986670000000
endloop
endfacet
facet normal -0.9386807327954 -0.3036086701418 0.1634021336869
outer loop
vertex 174.6750000000000 148.4545800000000 70.1707180000000
vertex 175.3904000000000 147.0752500000000 71.7175500000000
vertex 174.7310000000000 149.4258300000000 72.2970430000000
endloop
endfacet
facet normal -0.2598250669581 -0.9648791734426 0.0387184095365
outer loop
vertex 176.6020000000000 144.8460400000000 72.1253330000000
vertex 178.0042000000000 144.4673300000000 72.0973700000000
vertex 177.3393000000000 144.6943400000000 73.2926550000000
endloop
endfacet
facet normal -0.9657291507133 -0.0666512841749 0.2508481887125
outer loop
vertex 174.5140000000000 150.9984900000000 71.8794860000000
vertex 174.1597000000000 150.5388600000000 70.3933570000000
vertex 174.7310000000000 149.4258300000000 72.2970430000000
endloop
endfacet
facet normal -0.9575905716813 -0.2517226082376 0.1401999483921
outer loop
vertex 174.1597000000000 150.5388600000000 70.3933570000000
vertex 174.6750000000000 148.4545800000000 70.1707180000000
vertex 174.7310000000000 149.4258300000000 72.2970430000000
endloop
endfacet
facet normal -0.9257420711377 -0.3734133034590 0.0597002724074
outer loop
vertex 175.3904000000000 147.0752500000000 71.7175500000000
vertex 175.9208000000000 145.7413100000000 71.5986670000000
vertex 175.8631000000000 146.0274900000000 72.4939410000000
endloop
endfacet
facet normal -0.2364262335638 -0.9020489698805 0.3611236519813
outer loop
vertex 176.6020000000000 144.8460400000000 72.1253330000000
vertex 177.2065000000000 144.2312000000000 70.9852910000000
vertex 178.0042000000000 144.4673300000000 72.0973700000000
endloop
endfacet
facet normal 0.0666560058999 -0.9728033467311 0.2218346804856
outer loop
vertex 177.3393000000000 144.6943400000000 73.2926550000000
vertex 178.0042000000000 144.4673300000000 72.0973700000000
vertex 178.2769000000000 144.7464300000000 73.2393570000000
endloop
endfacet
facet normal -0.9547263752606 -0.2870660358732 0.0780425488419
outer loop
vertex 174.7310000000000 149.4258300000000 72.2970430000000
vertex 175.3904000000000 147.0752500000000 71.7175500000000
vertex 175.3485000000000 147.7880900000000 73.8270290000000
endloop
endfacet
facet normal -0.8496731130104 -0.5271322622647 -0.0136813415628
outer loop
vertex 175.8631000000000 146.0274900000000 72.4939410000000
vertex 176.6020000000000 144.8460400000000 72.1253330000000
vertex 176.3264000000000 145.2555100000000 73.4647530000000
endloop
endfacet
facet normal -0.4545370311020 -0.8736556227010 0.1735567350463
outer loop
vertex 176.6020000000000 144.8460400000000 72.1253330000000
vertex 177.3393000000000 144.6943400000000 73.2926550000000
vertex 176.3264000000000 145.2555100000000 73.4647530000000
endloop
endfacet
facet normal -0.8270287507177 0.5528410970118 0.1019321683333
outer loop
vertex 176.2334000000000 152.9245200000000 72.8898150000000
vertex 175.2487000000000 151.3948200000000 73.1969390000000
vertex 176.1247000000000 152.5235600000000 74.1825290000000
endloop
endfacet
facet normal -0.6057326031546 0.7729419645655 0.1888087203738
outer loop
vertex 177.0771000000000 153.3008300000000 74.0560260000000
vertex 176.2334000000000 152.9245200000000 72.8898150000000
vertex 176.1247000000000 152.5235600000000 74.1825290000000
endloop
endfacet
facet normal 0.0639453247209 -0.9846172951933 0.1626031286676
outer loop
vertex 177.3393000000000 144.6943400000000 73.2926550000000
vertex 178.2769000000000 144.7464300000000 73.2393570000000
vertex 177.9683000000000 144.8872300000000 74.2133090000000
endloop
endfacet
facet normal -0.0522962035079 -0.9696392677485 0.2388823926931
outer loop
vertex 177.3393000000000 144.6943400000000 73.2926550000000
vertex 177.9683000000000 144.8872300000000 74.2133090000000
vertex 176.9437000000000 144.9977300000000 74.4375300000000
endloop
endfacet
facet normal -0.8694018611931 -0.4935976451432 0.0224001889069
outer loop
vertex 175.8631000000000 146.0274900000000 72.4939410000000
vertex 176.3264000000000 145.2555100000000 73.4647530000000
vertex 175.7532000000000 146.2735400000000 73.6502900000000
endloop
endfacet
facet normal -0.8691495605074 -0.4939197248633 0.0249468807819
outer loop
vertex 175.7532000000000 146.2735400000000 73.6502900000000
vertex 176.3264000000000 145.2555100000000 73.4647530000000
vertex 176.0930000000000 145.7225300000000 74.5795570000000
endloop
endfacet
facet normal -0.9693227575089 0.1768432028240 0.1707040520615
outer loop
vertex 175.2487000000000 151.3948200000000 73.1969390000000
vertex 174.7310000000000 149.4258300000000 72.2970430000000
vertex 175.2131000000000 149.8216400000000 74.6245460000000
endloop
endfacet
facet normal -0.9117366973197 -0.4107744236942 0.0007533918519
outer loop
vertex 175.3904000000000 147.0752500000000 71.7175500000000
vertex 175.8631000000000 146.0274900000000 72.4939410000000
vertex 175.7532000000000 146.2735400000000 73.6502900000000
endloop
endfacet
facet normal -0.9616173432913 -0.2651800125834 0.0705099000682
outer loop
vertex 175.3485000000000 147.7880900000000 73.8270290000000
vertex 175.3904000000000 147.0752500000000 71.7175500000000
vertex 175.7532000000000 146.2735400000000 73.6502900000000
endloop
endfacet
facet normal 0.4080700155881 -0.9023128905451 0.1389615412047
outer loop
vertex 177.9683000000000 144.8872300000000 74.2133090000000
vertex 178.8796000000000 145.2396400000000 73.8255030000000
vertex 178.6400000000000 145.3143300000000 75.0140860000000
endloop
endfacet
facet normal -0.8523540760872 0.4797637467406 0.2081328332840
outer loop
vertex 176.1247000000000 152.5235600000000 74.1825290000000
vertex 175.2487000000000 151.3948200000000 73.1969390000000
vertex 175.7299000000000 151.4805500000000 74.9699540000000
endloop
endfacet
facet normal 0.4436506217824 -0.8563202527136 0.2643666971926
outer loop
vertex 177.9683000000000 144.8872300000000 74.2133090000000
vertex 178.2769000000000 144.7464300000000 73.2393570000000
vertex 178.8796000000000 145.2396400000000 73.8255030000000
endloop
endfacet
facet normal 0.3138472333637 -0.9216191683919 0.2282937199367
outer loop
vertex 177.9683000000000 144.8872300000000 74.2133090000000
vertex 178.6400000000000 145.3143300000000 75.0140860000000
vertex 177.6137000000000 145.0489000000000 75.3534560000000
endloop
endfacet
facet normal -0.0816027713500 -0.9900079384830 0.1150011715102
outer loop
vertex 176.9437000000000 144.9977300000000 74.4375300000000
vertex 177.9683000000000 144.8872300000000 74.2133090000000
vertex 177.6137000000000 145.0489000000000 75.3534560000000
endloop
endfacet
facet normal -0.9393014448228 0.2419769823962 0.2432281557392
outer loop
vertex 175.2487000000000 151.3948200000000 73.1969390000000
vertex 175.2131000000000 149.8216400000000 74.6245460000000
vertex 175.7299000000000 151.4805500000000 74.9699540000000
endloop
endfacet
facet normal -0.9623081717860 -0.1524091750324 0.2252430373613
outer loop
vertex 174.7310000000000 149.4258300000000 72.2970430000000
vertex 175.3485000000000 147.7880900000000 73.8270290000000
vertex 175.2131000000000 149.8216400000000 74.6245460000000
endloop
endfacet
facet normal -0.9651970123251 -0.2605456080177 0.0225989721303
outer loop
vertex 175.3485000000000 147.7880900000000 73.8270290000000
vertex 175.7532000000000 146.2735400000000 73.6502900000000
vertex 175.6451000000000 146.7592100000000 74.6326970000000
endloop
endfacet
facet normal -0.6181209241752 -0.7627453330144 0.1901212246474
outer loop
vertex 176.3264000000000 145.2555100000000 73.4647530000000
vertex 176.9437000000000 144.9977300000000 74.4375300000000
vertex 176.0930000000000 145.7225300000000 74.5795570000000
endloop
endfacet
facet normal -0.4745363356721 -0.8775602216662 0.0685807806611
outer loop
vertex 176.3264000000000 145.2555100000000 73.4647530000000
vertex 177.3393000000000 144.6943400000000 73.2926550000000
vertex 176.9437000000000 144.9977300000000 74.4375300000000
endloop
endfacet
facet normal -0.9118479738015 -0.3989322418670 0.0968831206818
outer loop
vertex 175.7532000000000 146.2735400000000 73.6502900000000
vertex 176.0930000000000 145.7225300000000 74.5795570000000
vertex 175.6451000000000 146.7592100000000 74.6326970000000
endloop
endfacet
facet normal -0.6132729433211 0.7756967330771 0.1489660205675
outer loop
vertex 177.0771000000000 153.3008300000000 74.0560260000000
vertex 176.1247000000000 152.5235600000000 74.1825290000000
vertex 177.0135000000000 152.9478400000000 75.6322850000000
endloop
endfacet
facet normal -0.7798909201197 0.5374276890088 0.3208451835410
outer loop
vertex 176.1247000000000 152.5235600000000 74.1825290000000
vertex 175.7299000000000 151.4805500000000 74.9699540000000
vertex 177.0135000000000 152.9478400000000 75.6322850000000
endloop
endfacet
facet normal -0.9562663155110 0.2900606536355 0.0376769296993
outer loop
vertex 175.7299000000000 151.4805500000000 74.9699540000000
vertex 175.2131000000000 149.8216400000000 74.6245460000000
vertex 175.4970000000000 150.5862500000000 75.9436750000000
endloop
endfacet
facet normal -0.9970525812103 -0.0741342956434 0.0197549110673
outer loop
vertex 175.2131000000000 149.8216400000000 74.6245460000000
vertex 175.3485000000000 147.7880900000000 73.8270290000000
vertex 175.3214000000000 148.5647100000000 75.3736850000000
endloop
endfacet
facet normal -0.9772735813763 -0.1958134365024 0.0812000321992
outer loop
vertex 175.3214000000000 148.5647100000000 75.3736850000000
vertex 175.3485000000000 147.7880900000000 73.8270290000000
vertex 175.5572000000000 147.4345600000000 75.4862780000000
endloop
endfacet
facet normal -0.9722706536716 -0.2214704179605 0.0751041275659
outer loop
vertex 175.3485000000000 147.7880900000000 73.8270290000000
vertex 175.6451000000000 146.7592100000000 74.6326970000000
vertex 175.5572000000000 147.4345600000000 75.4862780000000
endloop
endfacet
facet normal -0.9171899405047 -0.3976042802960 0.0259509022436
outer loop
vertex 175.6451000000000 146.7592100000000 74.6326970000000
vertex 176.0930000000000 145.7225300000000 74.5795570000000
vertex 175.8759000000000 146.2930800000000 75.6481590000000
endloop
endfacet
facet normal 0.6436072948553 -0.7264703952090 0.2408535133518
outer loop
vertex 178.2903000000000 145.4059800000000 76.2249900000000
vertex 178.6400000000000 145.3143300000000 75.0140860000000
vertex 179.2002000000000 146.0696300000001 75.7952840000000
endloop
endfacet
facet normal -0.7933721311762 -0.5891042376632 0.1533520741309
outer loop
vertex 175.8759000000000 146.2930800000000 75.6481590000000
vertex 176.0930000000000 145.7225300000000 74.5795570000000
vertex 176.5753000000000 145.3333100000000 75.5795580000000
endloop
endfacet
facet normal -0.6469752835152 -0.7623572266152 0.0153114841847
outer loop
vertex 176.0930000000000 145.7225300000000 74.5795570000000
vertex 176.9437000000000 144.9977300000000 74.4375300000000
vertex 176.5753000000000 145.3333100000000 75.5795580000000
endloop
endfacet
facet normal -0.2152792242142 -0.9535407954804 0.2107482075280
outer loop
vertex 176.9437000000000 144.9977300000000 74.4375300000000
vertex 177.6137000000000 145.0489000000000 75.3534560000000
vertex 176.5753000000000 145.3333100000000 75.5795580000000
endloop
endfacet
facet normal 0.2955387388797 -0.9423954929820 0.1566767009755
outer loop
vertex 178.6400000000000 145.3143300000000 75.0140860000000
vertex 178.2903000000000 145.4059800000000 76.2249900000000
vertex 177.6137000000000 145.0489000000000 75.3534560000000
endloop
endfacet
facet normal -0.9022824321588 0.4026912427992 0.1540330340883
outer loop
vertex 175.7299000000000 151.4805500000000 74.9699540000000
vertex 175.4970000000000 150.5862500000000 75.9436750000000
vertex 175.9658000000000 151.5416100000000 76.1921600000000
endloop
endfacet
facet normal -0.9617948178730 -0.2540702185173 0.1019757440531
outer loop
vertex 175.5572000000000 147.4345600000000 75.4862780000000
vertex 175.6451000000000 146.7592100000000 74.6326970000000
vertex 175.8759000000000 146.2930800000000 75.6481590000000
endloop
endfacet
facet normal -0.9705158617325 -0.1873892095910 0.1516055614233
outer loop
vertex 175.3214000000000 148.5647100000000 75.3736850000000
vertex 175.5572000000000 147.4345600000000 75.4862780000000
vertex 175.4842000000000 148.3659100000000 76.1701400000000
endloop
endfacet
facet normal -0.9794009229785 -0.1636365947585 0.1183084820488
outer loop
vertex 175.4842000000000 148.3659100000000 76.1701400000000
vertex 175.5572000000000 147.4345600000000 75.4862780000000
vertex 175.7578000000000 147.1475900000000 76.7500000000000
endloop
endfacet
facet normal -0.7731890651770 0.6230807471543 0.1181061049071
outer loop
vertex 177.0135000000000 152.9478400000000 75.6322850000000
vertex 175.7299000000000 151.4805500000000 74.9699540000000
vertex 175.9658000000000 151.5416100000000 76.1921600000000
endloop
endfacet
facet normal -0.9622280756940 -0.2552105834864 0.0947875963552
outer loop
vertex 175.5572000000000 147.4345600000000 75.4862780000000
vertex 175.8759000000000 146.2930800000000 75.6481590000000
vertex 175.7578000000000 147.1475900000000 76.7500000000000
endloop
endfacet
facet normal 0.6206657467272 -0.7753230501365 0.1168255056339
outer loop
vertex 178.9149000000000 146.0234400000000 77.0044700000000
vertex 178.2903000000000 145.4059800000000 76.2249900000000
vertex 179.2002000000000 146.0696300000001 75.7952840000000
endloop
endfacet
facet normal -0.9334576415015 -0.3249202027212 0.1519331872439
outer loop
vertex 175.7578000000000 147.1475900000000 76.7500000000000
vertex 175.8759000000000 146.2930800000000 75.6481590000000
vertex 176.2447000000000 145.7794300000000 76.8155400000000
endloop
endfacet
facet normal -0.8083009726666 -0.5887579133807 -0.0036955402637
outer loop
vertex 175.8759000000000 146.2930800000000 75.6481590000000
vertex 176.5753000000000 145.3333100000000 75.5795580000000
vertex 176.2447000000000 145.7794300000000 76.8155400000000
endloop
endfacet
facet normal -0.2499135674284 -0.9659286570394 0.0672684051042
outer loop
vertex 177.6137000000000 145.0489000000000 75.3534560000000
vertex 177.2363000000000 145.2275400000000 76.5165000000000
vertex 176.5753000000000 145.3333100000000 75.5795580000000
endloop
endfacet
facet normal 0.2211681001401 -0.9506089261930 0.2177781920271
outer loop
vertex 178.2903000000000 145.4059800000000 76.2249900000000
vertex 177.2363000000000 145.2275400000000 76.5165000000000
vertex 177.6137000000000 145.0489000000000 75.3534560000000
endloop
endfacet
facet normal -0.9815080592904 0.1409099934971 0.1295619669530
outer loop
vertex 175.2131000000000 149.8216400000000 74.6245460000000
vertex 175.4344000000000 149.4546200000000 76.7001900000000
vertex 175.4970000000000 150.5862500000000 75.9436750000000
endloop
endfacet
facet normal -0.8524503304915 0.5060470414285 0.1313195564509
outer loop
vertex 175.9658000000000 151.5416100000000 76.1921600000000
vertex 175.6165000000000 150.6749600000000 77.2643900000000
vertex 176.4467000000000 152.0963300000000 77.1762400000000
endloop
endfacet
facet normal -0.9018504922543 0.4288100254873 0.0527982164687
outer loop
vertex 175.4970000000000 150.5862500000000 75.9436750000000
vertex 175.6165000000000 150.6749600000000 77.2643900000000
vertex 175.9658000000000 151.5416100000000 76.1921600000000
endloop
endfacet
facet normal -0.4287142794530 -0.8803209664340 0.2030740324361
outer loop
vertex 176.5753000000000 145.3333100000000 75.5795580000000
vertex 177.2363000000000 145.2275400000000 76.5165000000000
vertex 176.2447000000000 145.7794300000000 76.8155400000000
endloop
endfacet
facet normal -0.9945089571755 -0.0251431089117 0.1015862105400
outer loop
vertex 175.4344000000000 149.4546200000000 76.7001900000000
vertex 175.2131000000000 149.8216400000000 74.6245460000000
vertex 175.3214000000000 148.5647100000000 75.3736850000000
endloop
endfacet
facet normal -0.9858293910789 -0.1361046017309 0.0980609457059
outer loop
vertex 175.8336000000000 147.5031300000000 78.0055100000000
vertex 175.6396000000000 148.4035000000000 77.3048600000000
vertex 175.7578000000000 147.1475900000000 76.7500000000000
endloop
endfacet
facet normal -0.7925474850792 0.6081865076775 0.0444708418378
outer loop
vertex 177.0135000000000 152.9478400000000 75.6322850000000
vertex 175.9658000000000 151.5416100000000 76.1921600000000
vertex 176.4467000000000 152.0963300000000 77.1762400000000
endloop
endfacet
facet normal -0.9905465230335 0.1097824530074 0.0822520438522
outer loop
vertex 175.4344000000000 149.4546200000000 76.7001900000000
vertex 175.6165000000000 150.6749600000000 77.2643900000000
vertex 175.4970000000000 150.5862500000000 75.9436750000000
endloop
endfacet
facet normal -0.9775839940950 -0.1266163475718 0.1682196035449
outer loop
vertex 175.4344000000000 149.4546200000000 76.7001900000000
vertex 175.3214000000000 148.5647100000000 75.3736850000000
vertex 175.4842000000000 148.3659100000000 76.1701400000000
endloop
endfacet
facet normal -0.9420408590690 -0.3354681052085 -0.0044911281867
outer loop
vertex 175.7578000000000 147.1475900000000 76.7500000000000
vertex 176.2447000000000 145.7794300000000 76.8155400000000
vertex 175.9999000000000 146.4537800000000 77.7927300000000
endloop
endfacet
facet normal -0.9783121349433 -0.1535128344157 0.1390653669768
outer loop
vertex 175.6396000000000 148.4035000000000 77.3048600000000
vertex 175.4842000000000 148.3659100000000 76.1701400000000
vertex 175.7578000000000 147.1475900000000 76.7500000000000
endloop
endfacet
facet normal -0.4905278159254 -0.8712252390837 -0.0186827349978
outer loop
vertex 176.2447000000000 145.7794300000000 76.8155400000000
vertex 177.2363000000000 145.2275400000000 76.5165000000000
vertex 176.9146000000000 145.3889600000000 77.4355100000000
endloop
endfacet
facet normal -0.8663376567940 -0.4853435394040 0.1179012857417
outer loop
vertex 175.9999000000000 146.4537800000000 77.7927300000000
vertex 176.2447000000000 145.7794300000000 76.8155400000000
vertex 176.4115000000000 145.7278100000000 77.8286900000000
endloop
endfacet
facet normal -0.9781037438112 -0.1771557491076 0.1092195353431
outer loop
vertex 175.8336000000000 147.5031300000000 78.0055100000000
vertex 175.7578000000000 147.1475900000000 76.7500000000000
vertex 175.9999000000000 146.4537800000000 77.7927300000000
endloop
endfacet
facet normal -0.8662055391850 -0.4851897236258 0.1194943344811
outer loop
vertex 175.9999000000000 146.4537800000000 77.7927300000000
vertex 176.4115000000000 145.7278100000000 77.8286900000000
vertex 176.3246000000000 146.0797400000000 78.6277200000000
endloop
endfacet
facet normal 0.0419307335221 -0.9814521332381 0.1870655600280
outer loop
vertex 177.2363000000000 145.2275400000000 76.5165000000000
vertex 177.9087000000000 145.4538000000000 77.5528700000000
vertex 176.9146000000000 145.3889600000000 77.4355100000000
endloop
endfacet
facet normal 0.5427789057327 -0.8289889643084 0.1347900461699
outer loop
vertex 177.9087000000000 145.4538000000000 77.5528700000000
vertex 178.9149000000000 146.0234400000000 77.0044700000000
vertex 178.8033000000000 146.1434200000000 78.1917700000000
endloop
endfacet
facet normal -0.9807847029372 -0.1217631356729 0.1524306572692
outer loop
vertex 175.9858000000000 147.7910200000000 79.2147800000000
vertex 175.8336000000000 147.5031300000000 78.0055100000000
vertex 176.0131000000000 146.8552200000000 78.6429100000000
endloop
endfacet
facet normal -0.9770259637511 -0.0270525266038 0.2113963740479
outer loop
vertex 175.6883000000000 149.4760800000000 77.8851000000000
vertex 175.8096000000000 148.4919400000000 78.3197800000000
vertex 175.9767000000000 149.2966700000000 79.1950600000000
endloop
endfacet
facet normal -0.9796705352354 -0.1751073537677 0.0978930898888
outer loop
vertex 175.8336000000000 147.5031300000000 78.0055100000000
vertex 175.9999000000000 146.4537800000000 77.7927300000000
vertex 176.0131000000000 146.8552200000000 78.6429100000000
endloop
endfacet
facet normal -0.5337239790481 -0.8444689052645 0.0448439765242
outer loop
vertex 176.2447000000000 145.7794300000000 76.8155400000000
vertex 176.9146000000000 145.3889600000000 77.4355100000000
vertex 176.4115000000000 145.7278100000000 77.8286900000000
endloop
endfacet
facet normal -0.8639175787648 0.5026513538340 -0.0314330016065
outer loop
vertex 176.4467000000000 152.0963300000000 77.1762400000000
vertex 175.6165000000000 150.6749600000000 77.2643900000000
vertex 175.9761000000000 151.3424600000000 78.0551200000000
endloop
endfacet
facet normal -0.9445823106999 0.2085931441898 0.2534820674326
outer loop
vertex 175.6165000000000 150.6749600000000 77.2643900000000
vertex 175.9073000000000 150.4864400000000 78.5031700000000
vertex 175.9761000000000 151.3424600000000 78.0551200000000
endloop
endfacet
facet normal -0.4460807700249 -0.8758645800259 0.1840466899187
outer loop
vertex 176.4115000000000 145.7278100000000 77.8286900000000
vertex 176.9146000000000 145.3889600000000 77.4355100000000
vertex 177.0130000000000 145.5306000000000 78.3480600000000
endloop
endfacet
facet normal 0.0469276459194 -0.9878336568349 0.1482648389629
outer loop
vertex 176.9146000000000 145.3889600000000 77.4355100000000
vertex 177.9087000000000 145.4538000000000 77.5528700000000
vertex 177.0130000000000 145.5306000000000 78.3480600000000
endloop
endfacet
facet normal -0.8663885349605 0.4393596317692 0.2373478891009
outer loop
vertex 176.4132000000000 152.1200600000000 78.2112300000000
vertex 175.9761000000000 151.3424600000000 78.0551200000000
vertex 176.2620000000000 151.4381900000000 78.9215300000000
endloop
endfacet
facet normal -0.9091651471699 -0.3689811527141 0.1930586545932
outer loop
vertex 176.0131000000000 146.8552200000000 78.6429100000000
vertex 176.3246000000000 146.0797400000000 78.6277200000000
vertex 176.2747000000000 146.6608200000000 79.5033100000000
endloop
endfacet
facet normal -0.9100229053027 -0.3692359348639 0.1884758239923
outer loop
vertex 175.9999000000000 146.4537800000000 77.7927300000000
vertex 176.3246000000000 146.0797400000000 78.6277200000000
vertex 176.0131000000000 146.8552200000000 78.6429100000000
endloop
endfacet
facet normal 0.5225435949193 -0.8354687443224 0.1701181021206
outer loop
vertex 177.9087000000000 145.4538000000000 77.5528700000000
vertex 178.8033000000000 146.1434200000000 78.1917700000000
vertex 177.9271000000000 145.7474400000000 78.9384500000000
endloop
endfacet
facet normal 0.0985543005436 -0.9737750166709 0.2050591786582
outer loop
vertex 177.0130000000000 145.5306000000000 78.3480600000000
vertex 177.9087000000000 145.4538000000000 77.5528700000000
vertex 177.9271000000000 145.7474400000000 78.9384500000000
endloop
endfacet
facet normal -0.9839632375936 -0.1124282662053 0.1384782727446
outer loop
vertex 175.6396000000000 148.4035000000000 77.3048600000000
vertex 175.4344000000000 149.4546200000000 76.7001900000000
vertex 175.4842000000000 148.3659100000000 76.1701400000000
endloop
endfacet
facet normal -0.9876731378941 -0.0686777675043 0.1406596492713
outer loop
vertex 175.8096000000000 148.4919400000000 78.3197800000000
vertex 175.8336000000000 147.5031300000000 78.0055100000000
vertex 175.9858000000000 147.7910200000000 79.2147800000000
endloop
endfacet
facet normal -0.9517367568472 -0.1797775147090 0.2487512630541
outer loop
vertex 175.9858000000000 147.7910200000000 79.2147800000000
vertex 176.0131000000000 146.8552200000000 78.6429100000000
vertex 176.2747000000000 146.6608200000000 79.5033100000000
endloop
endfacet
facet normal -0.9327553010279 0.2231634327107 0.2831353575680
outer loop
vertex 175.9761000000000 151.3424600000000 78.0551200000000
vertex 175.9073000000000 150.4864400000000 78.5031700000000
vertex 176.2620000000000 151.4381900000000 78.9215300000000
endloop
endfacet
facet normal -0.5189780941957 -0.8016622347306 0.2966469267526
outer loop
vertex 176.3246000000000 146.0797400000000 78.6277200000000
vertex 176.4115000000000 145.7278100000000 77.8286900000000
vertex 177.0130000000000 145.5306000000000 78.3480600000000
endloop
endfacet
facet normal -0.9816674827621 -0.0034371351879 0.1905705627562
outer loop
vertex 175.9767000000000 149.2966700000000 79.1950600000000
vertex 175.8096000000000 148.4919400000000 78.3197800000000
vertex 175.9858000000000 147.7910200000000 79.2147800000000
endloop
endfacet
facet normal -0.6610363842728 -0.6420125318228 0.3883951694473
outer loop
vertex 176.2747000000000 146.6608200000000 79.5033100000000
vertex 176.3246000000000 146.0797400000000 78.6277200000000
vertex 176.9477000000000 145.9252400000000 79.4328300000000
endloop
endfacet
facet normal -0.5353484832235 -0.8035803347488 0.2601166029212
outer loop
vertex 176.3246000000000 146.0797400000000 78.6277200000000
vertex 177.0130000000000 145.5306000000000 78.3480600000000
vertex 176.9477000000000 145.9252400000000 79.4328300000000
endloop
endfacet
facet normal -0.8676372161446 0.4956305099049 -0.0394469113140
outer loop
vertex 176.4132000000000 152.1200600000000 78.2112300000000
vertex 176.4467000000000 152.0963300000000 77.1762400000000
vertex 175.9761000000000 151.3424600000000 78.0551200000000
endloop
endfacet
facet normal -0.7195610382264 -0.6742625086111 0.1661384415117
outer loop
vertex 176.2747000000000 146.6608200000000 79.5033100000000
vertex 176.9477000000000 145.9252400000000 79.4328300000000
vertex 176.7415000000000 146.4064600000000 80.4927600000000
endloop
endfacet
facet normal -0.8752684071986 0.4282309025992 0.2247743522270
outer loop
vertex 176.4132000000000 152.1200600000000 78.2112300000000
vertex 176.2620000000000 151.4381900000000 78.9215300000000
vertex 176.6778000000000 152.2109600000000 79.0684000000000
endloop
endfacet
facet normal -0.9399760470244 0.2466591788900 0.2358055989363
outer loop
vertex 176.2620000000000 151.4381900000000 78.9215300000000
vertex 175.9073000000000 150.4864400000000 78.5031700000000
vertex 176.2197000000000 150.5881000000000 79.6421300000000
endloop
endfacet
facet normal -0.9623182588135 0.0925584620478 0.2556882865083
outer loop
vertex 175.9073000000000 150.4864400000000 78.5031700000000
vertex 175.9767000000000 149.2966700000000 79.1950600000000
vertex 176.2197000000000 150.5881000000000 79.6421300000000
endloop
endfacet
facet normal -0.9689341535568 -0.2177314754938 0.1173013667885
outer loop
vertex 175.9858000000000 147.7910200000000 79.2147800000000
vertex 176.2747000000000 146.6608200000000 79.5033100000000
vertex 176.2324000000000 147.3523600000000 80.4375200000000
endloop
endfacet
facet normal 0.0020342393905 -0.9397025451384 0.3419868250833
outer loop
vertex 177.0130000000000 145.5306000000000 78.3480600000000
vertex 177.9271000000000 145.7474400000000 78.9384500000000
vertex 176.9477000000000 145.9252400000000 79.4328300000000
endloop
endfacet
facet normal -0.9225033531402 0.2752688442649 0.2705820149644
outer loop
vertex 176.2620000000000 151.4381900000000 78.9215300000000
vertex 176.2197000000000 150.5881000000000 79.6421300000000
vertex 176.6604000000000 151.7289900000000 79.9839700000000
endloop
endfacet
facet normal -0.9934188502294 -0.0045051420199 0.1144495159639
outer loop
vertex 175.9767000000000 149.2966700000000 79.1950600000000
vertex 175.9858000000000 147.7910200000000 79.2147800000000
vertex 176.1121000000000 148.5231500000000 80.3398800000000
endloop
endfacet
facet normal -0.9821341793992 -0.0869995106877 0.1668638330974
outer loop
vertex 175.9858000000000 147.7910200000000 79.2147800000000
vertex 176.2324000000000 147.3523600000000 80.4375200000000
vertex 176.1121000000000 148.5231500000000 80.3398800000000
endloop
endfacet
facet normal 0.5431599695310 -0.8140499521936 0.2056694504118
outer loop
vertex 177.9271000000000 145.7474400000000 78.9384500000000
vertex 178.8033000000000 146.1434200000000 78.1917700000000
vertex 178.8415000000000 146.4858800000000 79.4463600000000
endloop
endfacet
facet normal -0.8502187316844 -0.4407954484993 0.2877976387589
outer loop
vertex 176.2747000000000 146.6608200000000 79.5033100000000
vertex 176.7415000000000 146.4064600000000 80.4927600000000
vertex 176.2324000000000 147.3523600000000 80.4375200000000
endloop
endfacet
facet normal -0.9779699126449 0.1265471459407 0.1660140651139
outer loop
vertex 176.2197000000000 150.5881000000000 79.6421300000000
vertex 175.9767000000000 149.2966700000000 79.1950600000000
vertex 176.2426000000000 149.6966300000000 80.4565700000000
endloop
endfacet
facet normal -0.9798603573225 0.0913091129525 0.1775847010294
outer loop
vertex 175.9767000000000 149.2966700000000 79.1950600000000
vertex 176.1121000000000 148.5231500000000 80.3398800000000
vertex 176.2426000000000 149.6966300000000 80.4565700000000
endloop
endfacet
facet normal -0.0650427078916 -0.9730783509080 0.2211062394967
outer loop
vertex 176.9477000000000 145.9252400000000 79.4328300000000
vertex 177.9271000000000 145.7474400000000 78.9384500000000
vertex 177.8665000000000 146.0794400000000 80.3817400000000
endloop
endfacet
facet normal 0.5409923342560 -0.8143758823774 0.2100457485365
outer loop
vertex 177.9271000000000 145.7474400000000 78.9384500000000
vertex 178.8415000000000 146.4858800000000 79.4463600000000
vertex 177.8665000000000 146.0794400000000 80.3817400000000
endloop
endfacet
facet normal -0.9319948927203 0.2983175252316 0.2058935989361
outer loop
vertex 176.6604000000000 151.7289900000000 79.9839700000000
vertex 176.2197000000000 150.5881000000000 79.6421300000000
vertex 176.5247000000000 150.7798800000000 80.7448700000000
endloop
endfacet
facet normal -0.9546860561129 0.1869993710247 0.2315291979427
outer loop
vertex 176.2197000000000 150.5881000000000 79.6421300000000
vertex 176.2426000000000 149.6966300000000 80.4565700000000
vertex 176.5247000000000 150.7798800000000 80.7448700000000
endloop
endfacet
facet normal 0.5203551757935 -0.8348408366799 0.1796420564247
outer loop
vertex 177.8665000000000 146.0794400000000 80.3817400000000
vertex 178.8415000000000 146.4858800000000 79.4463600000000
vertex 178.9926000000000 146.8640200000000 80.7659900000000
endloop
endfacet
facet normal -0.2263126389126 -0.9027464469550 0.3658297991942
outer loop
vertex 176.7415000000000 146.4064600000000 80.4927600000000
vertex 176.9477000000000 145.9252400000000 79.4328300000000
vertex 177.8665000000000 146.0794400000000 80.3817400000000
endloop
endfacet
facet normal -0.8696868064197 -0.4572183998313 0.1860005204167
outer loop
vertex 176.2324000000000 147.3523600000000 80.4375200000000
vertex 176.7415000000000 146.4064600000000 80.4927600000000
vertex 176.6367000000001 147.0082100000000 81.4819400000000
endloop
endfacet
facet normal -0.9877642858085 -0.0909271880231 0.1267042310239
outer loop
vertex 176.1121000000000 148.5231500000000 80.3398800000000
vertex 176.2324000000000 147.3523600000000 80.4375200000000
vertex 176.2957000000000 148.0483200000000 81.4304400000000
endloop
endfacet
facet normal -0.9209808116488 -0.2890062503367 0.2612847715443
outer loop
vertex 176.2324000000000 147.3523600000000 80.4375200000000
vertex 176.6367000000001 147.0082100000000 81.4819400000000
vertex 176.2957000000000 148.0483200000000 81.4304400000000
endloop
endfacet
facet normal -0.9249496876981 0.3093233218778 0.2208781514087
outer loop
vertex 176.6604000000000 151.7289900000000 79.9839700000000
vertex 176.5247000000000 150.7798800000000 80.7448700000000
vertex 176.8749000000000 151.6267500000000 81.0253900000000
endloop
endfacet
facet normal -0.9896180902650 0.0997656977539 0.1034545357729
outer loop
vertex 176.2426000000000 149.6966300000000 80.4565700000000
vertex 176.1121000000000 148.5231500000000 80.3398800000000
vertex 176.2578000000000 149.0244100000000 81.2502200000000
endloop
endfacet
facet normal -0.9866747612975 -0.0083092152764 0.1624926840197
outer loop
vertex 176.1121000000000 148.5231500000000 80.3398800000000
vertex 176.2957000000000 148.0483200000000 81.4304400000000
vertex 176.2578000000000 149.0244100000000 81.2502200000000
endloop
endfacet
facet normal 0.5157694710053 -0.8347359830967 0.1928670301076
outer loop
vertex 177.8665000000000 146.0794400000000 80.3817400000000
vertex 178.9926000000000 146.8640200000000 80.7659900000000
vertex 178.1920000000000 146.5856900000000 81.7023500000000
endloop
endfacet
facet normal -0.9664450675094 0.2137780215620 0.1424180079338
outer loop
vertex 176.5247000000000 150.7798800000000 80.7448700000000
vertex 176.2426000000000 149.6966300000000 80.4565700000000
vertex 176.4620000000000 149.9493400000000 81.5660800000000
endloop
endfacet
facet normal -0.9744259614442 0.1619196259496 0.1558078316258
outer loop
vertex 176.2426000000000 149.6966300000000 80.4565700000000
vertex 176.2578000000000 149.0244100000000 81.2502200000000
vertex 176.4620000000000 149.9493400000000 81.5660800000000
endloop
endfacet
facet normal -0.5867461967470 -0.7179289519450 0.3745756539900
outer loop
vertex 176.6367000000001 147.0082100000000 81.4819400000000
vertex 176.7415000000000 146.4064600000000 80.4927600000000
vertex 177.2923000000000 146.4050100000000 81.3527700000000
endloop
endfacet
facet normal -0.2602458845878 -0.9513270447728 0.1650725096407
outer loop
vertex 176.7415000000000 146.4064600000000 80.4927600000000
vertex 177.8665000000000 146.0794400000000 80.3817400000000
vertex 177.2923000000000 146.4050100000000 81.3527700000000
endloop
endfacet
facet normal 0.0537383392510 -0.9367485247096 0.3458531369655
outer loop
vertex 177.8665000000000 146.0794400000000 80.3817400000000
vertex 178.1920000000000 146.5856900000000 81.7023500000000
vertex 177.2923000000000 146.4050100000000 81.3527700000000
endloop
endfacet
facet normal -0.9034947673437 0.3776349861608 0.2027042737828
outer loop
vertex 177.2343000000000 152.0461200000000 81.8460300000000
vertex 176.8749000000000 151.6267500000000 81.0253900000000
vertex 176.7927000000000 151.0157400000000 81.7973100000000
endloop
endfacet
facet normal -0.8770010843378 0.4318451748458 0.2106628658136
outer loop
vertex 176.6778000000000 152.2109600000000 79.0684000000000
vertex 176.2620000000000 151.4381900000000 78.9215300000000
vertex 176.6604000000000 151.7289900000000 79.9839700000000
endloop
endfacet
facet normal -0.9296635778706 0.3305587704156 0.1626546380593
outer loop
vertex 176.8749000000000 151.6267500000000 81.0253900000000
vertex 176.5247000000000 150.7798800000000 80.7448700000000
vertex 176.7927000000000 151.0157400000000 81.7973100000000
endloop
endfacet
facet normal -0.9493085053693 0.2543312220862 0.1847403342687
outer loop
vertex 176.5247000000000 150.7798800000000 80.7448700000000
vertex 176.4620000000000 149.9493400000000 81.5660800000000
vertex 176.7927000000000 151.0157400000000 81.7973100000000
endloop
endfacet
facet normal 0.5126387209841 -0.8374582840415 0.1893810028436
outer loop
vertex 178.1920000000000 146.5856900000000 81.7023500000000
vertex 178.9926000000000 146.8640200000000 80.7659900000000
vertex 179.2007000000000 147.2885100000000 82.0798100000000
endloop
endfacet
facet normal -0.9758941996143 0.1677939096183 0.1395554192931
outer loop
vertex 176.4620000000000 149.9493400000000 81.5660800000000
vertex 176.2578000000000 149.0244100000000 81.2502200000000
vertex 176.4112000000000 148.9441400000000 82.4194400000000
endloop
endfacet
facet normal -0.9915257323001 -0.0146667353632 0.1290798553627
outer loop
vertex 176.2578000000000 149.0244100000000 81.2502200000000
vertex 176.2957000000000 148.0483200000000 81.4304400000000
vertex 176.4112000000000 148.9441400000000 82.4194400000000
endloop
endfacet
facet normal 0.4927054466726 -0.8363026885190 0.2404977255506
outer loop
vertex 178.1920000000000 146.5856900000000 81.7023500000000
vertex 179.2007000000000 147.2885100000000 82.0798100000000
vertex 178.3344000000000 147.0303300000000 82.9568000000000
endloop
endfacet
facet normal -0.9577262494324 -0.1485223581510 0.2463768257717
outer loop
vertex 176.4112000000000 148.9441400000000 82.4194400000000
vertex 176.2957000000000 148.0483200000000 81.4304400000000
vertex 176.6362000000000 147.6591600000000 82.5194500000000
endloop
endfacet
facet normal -0.5892748524493 -0.7192656732785 0.3679837489808
outer loop
vertex 176.6367000000001 147.0082100000000 81.4819400000000
vertex 177.2923000000000 146.4050100000000 81.3527700000000
vertex 177.3462000000000 146.8558700000000 82.3203400000000
endloop
endfacet
facet normal -0.0524399538032 -0.9393569256560 0.3389079778750
outer loop
vertex 178.1920000000000 146.5856900000000 81.7023500000000
vertex 178.3344000000000 147.0303300000000 82.9568000000000
vertex 177.3462000000000 146.8558700000000 82.3203400000000
endloop
endfacet
facet normal 0.0183198720033 -0.9066626764383 0.4214583887450
outer loop
vertex 177.2923000000000 146.4050100000000 81.3527700000000
vertex 178.1920000000000 146.5856900000000 81.7023500000000
vertex 177.3462000000000 146.8558700000000 82.3203400000000
endloop
endfacet
facet normal -0.9141449007634 0.3859145304824 0.1241332975911
outer loop
vertex 177.2343000000000 152.0461200000000 81.8460300000000
vertex 176.7927000000000 151.0157400000000 81.7973100000000
vertex 177.0996000000000 151.3903000000000 82.8929300000000
endloop
endfacet
facet normal -0.8462847903296 0.4936256604879 0.2003391149143
outer loop
vertex 177.7966000000000 152.5659000000000 82.9406200000000
vertex 177.2343000000000 152.0461200000000 81.8460300000000
vertex 177.0996000000000 151.3903000000000 82.8929300000000
endloop
endfacet
facet normal -0.6292397437752 -0.6584945564685 0.4128465380201
outer loop
vertex 176.6362000000000 147.6591600000000 82.5194500000000
vertex 176.6367000000001 147.0082100000000 81.4819400000000
vertex 177.3462000000000 146.8558700000000 82.3203400000000
endloop
endfacet
facet normal -0.9348554612580 0.3207426863466 0.1522149654644
outer loop
vertex 177.0996000000000 151.3903000000000 82.8929300000000
vertex 176.7927000000000 151.0157400000000 81.7973100000000
vertex 176.6741000000000 150.2323700000000 82.7196000000000
endloop
endfacet
facet normal -0.9558872319721 0.2728337988338 0.1088178200789
outer loop
vertex 176.7927000000000 151.0157400000000 81.7973100000000
vertex 176.4620000000000 149.9493400000000 81.5660800000000
vertex 176.6741000000000 150.2323700000000 82.7196000000000
endloop
endfacet
facet normal -0.9761863002724 0.1669402692173 0.1385325004258
outer loop
vertex 176.4620000000000 149.9493400000000 81.5660800000000
vertex 176.4112000000000 148.9441400000000 82.4194400000000
vertex 176.6741000000000 150.2323700000000 82.7196000000000
endloop
endfacet
facet normal -0.8902836190240 0.4255338804553 0.1622220523917
outer loop
vertex 177.0996000000000 151.3903000000000 82.8929300000000
vertex 176.9129000000000 150.6137700000000 83.9052700000000
vertex 177.4828000000000 151.7312300000000 84.1016400000000
endloop
endfacet
facet normal -0.8935850834236 0.4409513911556 0.0840688367996
outer loop
vertex 177.4828000000000 151.7312300000000 84.1016400000000
vertex 176.9129000000000 150.6137700000000 83.9052700000000
vertex 177.1807000000000 150.9322700000000 85.0812000000000
endloop
endfacet
facet normal -0.9362840265839 -0.2977336523228 0.1863515329647
outer loop
vertex 176.2957000000000 148.0483200000000 81.4304400000000
vertex 176.6367000000001 147.0082100000000 81.4819400000000
vertex 176.6362000000000 147.6591600000000 82.5194500000000
endloop
endfacet
facet normal 0.4729598925425 -0.8542723708645 0.2157027037933
outer loop
vertex 178.3344000000000 147.0303300000000 82.9568000000000
vertex 179.2007000000000 147.2885100000000 82.0798100000000
vertex 179.3773000000000 147.7260200000000 83.4253100000000
endloop
endfacet
facet normal 0.3990255486878 -0.8422642960886 0.3624492613164
outer loop
vertex 178.3344000000000 147.0303300000000 82.9568000000000
vertex 179.3773000000000 147.7260200000000 83.4253100000000
vertex 178.3965000000000 147.6132800000000 84.2431000000000
endloop
endfacet
facet normal -0.9803656952906 0.1829020463280 0.0736881601506
outer loop
vertex 176.6741000000000 150.2323700000000 82.7196000000000
vertex 176.4112000000000 148.9441400000000 82.4194400000000
vertex 176.6056000000000 149.4739500000000 83.6907400000000
endloop
endfacet
facet normal -0.6563622368371 -0.6673568825064 0.3518855004480
outer loop
vertex 176.6362000000000 147.6591600000000 82.5194500000000
vertex 177.3462000000000 146.8558700000000 82.3203400000000
vertex 177.3747000000000 147.4316200000000 83.4654200000000
endloop
endfacet
facet normal -0.9738800583418 -0.1578207257712 0.1632490443501
outer loop
vertex 176.4112000000000 148.9441400000000 82.4194400000000
vertex 176.6362000000000 147.6591600000000 82.5194500000000
vertex 176.7071000000000 148.3409800000000 83.6015600000000
endloop
endfacet
facet normal -0.7045120549057 -0.5787127033847 0.4107972388340
outer loop
vertex 176.6362000000000 147.6591600000000 82.5194500000000
vertex 177.3747000000000 147.4316200000000 83.4654200000000
vertex 176.7071000000000 148.3409800000000 83.6015600000000
endloop
endfacet
facet normal -0.1323629000457 -0.8842361171055 0.4478912277525
outer loop
vertex 177.3462000000000 146.8558700000000 82.3203400000000
vertex 178.3344000000000 147.0303300000000 82.9568000000000
vertex 177.3747000000000 147.4316200000000 83.4654200000000
endloop
endfacet
facet normal -0.9393805576056 0.3328993725439 0.0821107529649
outer loop
vertex 177.0996000000000 151.3903000000000 82.8929300000000
vertex 176.6741000000000 150.2323700000000 82.7196000000000
vertex 176.9129000000000 150.6137700000000 83.9052700000000
endloop
endfacet
facet normal -0.9641597030935 0.2377892769788 0.1176959076800
outer loop
vertex 176.9129000000000 150.6137700000000 83.9052700000000
vertex 176.6741000000000 150.2323700000000 82.7196000000000
vertex 176.6056000000000 149.4739500000000 83.6907400000000
endloop
endfacet
facet normal -0.1556236530164 -0.8968843443198 0.4139803757860
outer loop
vertex 178.3344000000000 147.0303300000000 82.9568000000000
vertex 178.3965000000000 147.6132800000000 84.2431000000000
vertex 177.3747000000000 147.4316200000000 83.4654200000000
endloop
endfacet
facet normal -0.9760248303433 -0.1025515687351 0.1919862138364
outer loop
vertex 176.6056000000000 149.4739500000000 83.6907400000000
vertex 176.4112000000000 148.9441400000000 82.4194400000000
vertex 176.7071000000000 148.3409800000000 83.6015600000000
endloop
endfacet
facet normal -0.8552231481963 0.5017948941294 0.1295964930656
outer loop
vertex 177.7966000000000 152.5659000000000 82.9406200000000
vertex 177.0996000000000 151.3903000000000 82.8929300000000
vertex 177.4828000000000 151.7312300000000 84.1016400000000
endloop
endfacet
facet normal -0.7218558495440 0.6394573370895 0.2646099894589
outer loop
vertex 177.7966000000000 152.5659000000000 82.9406200000000
vertex 177.4828000000000 151.7312300000000 84.1016400000000
vertex 178.3516000000000 152.6775400000000 84.1848700000000
endloop
endfacet
facet normal -0.7126148166640 -0.5818424719309 0.3919686989141
outer loop
vertex 176.7071000000000 148.3409800000000 83.6015600000000
vertex 177.3747000000000 147.4316200000000 83.4654200000000
vertex 177.3915000000000 148.1582700000000 84.5746100000000
endloop
endfacet
facet normal -0.7579796831686 -0.4785082479620 0.4432794339196
outer loop
vertex 176.7071000000000 148.3409800000000 83.6015600000000
vertex 177.3915000000000 148.1582700000000 84.5746100000000
vertex 176.8534000000000 148.9235200000000 84.4805600000000
endloop
endfacet
facet normal -0.9674167918193 -0.1048101288416 0.2304768704193
outer loop
vertex 176.6056000000000 149.4739500000000 83.6907400000000
vertex 176.7071000000000 148.3409800000000 83.6015600000000
vertex 176.8534000000000 148.9235200000000 84.4805600000000
endloop
endfacet
facet normal -0.9605354590041 0.2299852308064 0.1564558263753
outer loop
vertex 177.1807000000000 150.9322700000000 85.0812000000000
vertex 176.9129000000000 150.6137700000000 83.9052700000000
vertex 176.8745000000000 149.8480800000000 84.7950600000000
endloop
endfacet
facet normal -0.9606764820259 0.2296159806981 0.1561319899650
outer loop
vertex 176.9129000000000 150.6137700000000 83.9052700000000
vertex 176.6056000000000 149.4739500000000 83.6907400000000
vertex 176.8745000000000 149.8480800000000 84.7950600000000
endloop
endfacet
facet normal -0.2614540436136 -0.8055658701185 0.5317004908576
outer loop
vertex 177.3747000000000 147.4316200000000 83.4654200000000
vertex 178.3965000000000 147.6132800000000 84.2431000000000
vertex 177.3915000000000 148.1582700000000 84.5746100000000
endloop
endfacet
facet normal -0.4259334174468 0.8241912705536 0.3732150498645
outer loop
vertex 179.3449000000000 152.7709300000000 85.1122400000000
vertex 178.3516000000000 152.6775400000000 84.1848700000000
vertex 178.0168000000000 151.9431100000000 85.4246600000000
endloop
endfacet
facet normal 0.3648872912988 -0.8754494788208 0.3169313406419
outer loop
vertex 178.3965000000000 147.6132800000000 84.2431000000000
vertex 179.3773000000000 147.7260200000000 83.4253100000000
vertex 179.4761000000000 148.2450100000000 84.7451500000000
endloop
endfacet
facet normal -0.9642123720523 -0.0653960401146 0.2569394082630
outer loop
vertex 176.6056000000000 149.4739500000000 83.6907400000000
vertex 176.8534000000000 148.9235200000000 84.4805600000000
vertex 176.8745000000000 149.8480800000000 84.7950600000000
endloop
endfacet
facet normal -0.7552301002434 -0.4756249531552 0.4510082034981
outer loop
vertex 176.8534000000000 148.9235200000000 84.4805600000000
vertex 177.3915000000000 148.1582700000000 84.5746100000000
vertex 177.3020000000000 149.0789300000000 85.3956500000000
endloop
endfacet
facet normal -0.7314444450793 0.6547907214289 0.1903631657994
outer loop
vertex 178.3516000000000 152.6775400000000 84.1848700000000
vertex 177.4828000000000 151.7312300000000 84.1016400000000
vertex 178.0168000000000 151.9431100000000 85.4246600000000
endloop
endfacet
facet normal -0.2602900731364 0.8045556185636 0.5337970910978
outer loop
vertex 180.6401000000000 153.1395100000000 85.1882700000000
vertex 179.3449000000000 152.7709300000000 85.1122400000000
vertex 180.0797000000000 152.3675500000000 86.0785300000000
endloop
endfacet
facet normal -0.8805311694864 -0.1345090707199 0.4545021116089
outer loop
vertex 176.8745000000000 149.8480800000000 84.7950600000000
vertex 176.8534000000000 148.9235200000000 84.4805600000000
vertex 177.3020000000000 149.0789300000000 85.3956500000000
endloop
endfacet
facet normal 0.2325263713122 -0.8168807875412 0.5278610286718
outer loop
vertex 178.3965000000000 147.6132800000000 84.2431000000000
vertex 179.4761000000000 148.2450100000000 84.7451500000000
vertex 178.4225000000000 148.4628100000000 85.5463200000000
endloop
endfacet
facet normal -0.7869974122266 0.5924072192080 0.1723042651210
outer loop
vertex 178.0168000000000 151.9431100000000 85.4246600000000
vertex 177.1807000000000 150.9322700000000 85.0812000000000
vertex 177.4769000000000 151.0427800000000 86.0541400000000
endloop
endfacet
facet normal -0.7869643405780 0.5742470201670 0.2256711910898
outer loop
vertex 177.4828000000000 151.7312300000000 84.1016400000000
vertex 177.1807000000000 150.9322700000000 85.0812000000000
vertex 178.0168000000000 151.9431100000000 85.4246600000000
endloop
endfacet
facet normal -0.9374313579756 0.1872901691652 0.2935044149890
outer loop
vertex 177.1807000000000 150.9322700000000 85.0812000000000
vertex 176.8745000000000 149.8480800000000 84.7950600000000
vertex 177.2547000000000 150.1304900000000 85.8291800000000
endloop
endfacet
facet normal 0.1258495730702 -0.2619471233202 0.9568414652085
outer loop
vertex 179.1108000000000 149.3822800000000 86.3677800000000
vertex 179.8519000000000 150.3171200000000 86.5262300000000
vertex 178.7213000000000 150.3753700000000 86.6908800000000
endloop
endfacet
facet normal -0.2620572782969 -0.8060503725866 0.5306682388693
outer loop
vertex 177.3915000000000 148.1582700000000 84.5746100000000
vertex 178.3965000000000 147.6132800000000 84.2431000000000
vertex 178.4225000000000 148.4628100000000 85.5463200000000
endloop
endfacet
facet normal -0.0410883913293 0.7675398756162 0.6396829554061
outer loop
vertex 180.6401000000000 153.1395100000000 85.1882700000000
vertex 180.0797000000000 152.3675500000000 86.0785300000000
vertex 181.2328000000000 152.6050800000000 85.8675900000000
endloop
endfacet
facet normal -0.4306466370829 -0.6236536139629 0.6523799841812
outer loop
vertex 177.3020000000000 149.0789300000000 85.3956500000000
vertex 177.3915000000000 148.1582700000000 84.5746100000000
vertex 178.4225000000000 148.4628100000000 85.5463200000000
endloop
endfacet
facet normal -0.4319760594984 -0.6270967373416 0.6481869838525
outer loop
vertex 177.3020000000000 149.0789300000000 85.3956500000000
vertex 178.4225000000000 148.4628100000000 85.5463200000000
vertex 177.9894000000000 149.5423700000000 86.3021200000000
endloop
endfacet
facet normal -0.1607017416918 0.8614174540144 0.4818038191386
outer loop
vertex 180.0797000000000 152.3675500000000 86.0785300000000
vertex 179.3449000000000 152.7709300000000 85.1122400000000
vertex 178.9697000000000 152.1088100000000 86.1709000000000
endloop
endfacet
facet normal 0.1713357308973 -0.8702289822577 0.4618934787986
outer loop
vertex 178.4225000000000 148.4628100000000 85.5463200000000
vertex 179.4761000000000 148.2450100000000 84.7451500000000
vertex 179.5628000000000 148.7864300000000 85.7330500000000
endloop
endfacet
facet normal -0.4292573757575 0.8262945524379 0.3646579465324
outer loop
vertex 179.3449000000000 152.7709300000000 85.1122400000000
vertex 178.0168000000000 151.9431100000000 85.4246600000000
vertex 178.9697000000000 152.1088100000000 86.1709000000000
endloop
endfacet
facet normal -0.9486747736523 0.1644501319706 0.2701339074062
outer loop
vertex 177.4769000000000 151.0427800000000 86.0541400000000
vertex 177.1807000000000 150.9322700000000 85.0812000000000
vertex 177.2547000000000 150.1304900000000 85.8291800000000
endloop
endfacet
facet normal 0.2916134207721 -0.3799656307952 0.8778312663832
outer loop
vertex 179.8519000000000 150.3171200000000 86.5262300000000
vertex 179.1108000000000 149.3822800000000 86.3677800000000
vertex 180.0276000000000 149.4648700000000 86.0989700000000
endloop
endfacet
facet normal -0.9008036660428 -0.1995216164484 0.3856732811769
outer loop
vertex 176.8745000000000 149.8480800000000 84.7950600000000
vertex 177.3020000000000 149.0789300000000 85.3956500000000
vertex 177.2547000000000 150.1304900000000 85.8291800000000
endloop
endfacet
facet normal -0.6764469864735 -0.3065168720119 0.6696766993580
outer loop
vertex 177.2547000000000 150.1304900000000 85.8291800000000
vertex 177.3020000000000 149.0789300000000 85.3956500000000
vertex 177.9894000000000 149.5423700000000 86.3021200000000
endloop
endfacet
facet normal 0.0812152261366 -0.6971652885695 0.7122953372425
outer loop
vertex 179.1108000000000 149.3822800000000 86.3677800000000
vertex 178.4225000000000 148.4628100000000 85.5463200000000
vertex 179.5628000000000 148.7864300000000 85.7330500000000
endloop
endfacet
facet normal -0.1321987847192 -0.6035284996399 0.7863058129259
outer loop
vertex 178.4225000000000 148.4628100000000 85.5463200000000
vertex 179.1108000000000 149.3822800000000 86.3677800000000
vertex 177.9894000000000 149.5423700000000 86.3021200000000
endloop
endfacet
facet normal 0.2749660355427 -0.5955018851636 0.7548318912609
outer loop
vertex 179.1108000000000 149.3822800000000 86.3677800000000
vertex 179.5628000000000 148.7864300000000 85.7330500000000
vertex 180.0276000000000 149.4648700000000 86.0989700000000
endloop
endfacet
facet normal -0.5066465440962 0.7098279761524 0.4893398855875
outer loop
vertex 178.9697000000000 152.1088100000000 86.1709000000000
vertex 178.0168000000000 151.9431100000000 85.4246600000000
vertex 178.2715000000000 151.3331400000000 86.5731800000000
endloop
endfacet
facet normal -0.0469579958319 0.5084107117387 0.8598334110842
outer loop
vertex 180.0797000000000 152.3675500000000 86.0785300000000
vertex 178.9697000000000 152.1088100000000 86.1709000000000
vertex 179.4540000000000 151.3635900000000 86.6379900000000
endloop
endfacet
facet normal -0.6689045213120 -0.2828001109414 0.6874524264412
outer loop
vertex 177.2547000000000 150.1304900000000 85.8291800000000
vertex 177.9894000000000 149.5423700000000 86.3021200000000
vertex 177.8104000000000 150.4703100000000 86.5096800000000
endloop
endfacet
facet normal -0.7831428390013 0.0376875191794 0.6206987551293
outer loop
vertex 177.4769000000000 151.0427800000000 86.0541400000000
vertex 177.2547000000000 150.1304900000000 85.8291800000000
vertex 177.8104000000000 150.4703100000000 86.5096800000000
endloop
endfacet
facet normal -0.0602147052431 0.5017328225377 0.8629243095781
outer loop
vertex 178.9697000000000 152.1088100000000 86.1709000000000
vertex 178.2715000000000 151.3331400000000 86.5731800000000
vertex 179.4540000000000 151.3635900000000 86.6379900000000
endloop
endfacet
facet normal 0.1942316762776 0.3823549302950 0.9033707783682
outer loop
vertex 180.0797000000000 152.3675500000000 86.0785300000000
vertex 179.4540000000000 151.3635900000000 86.6379900000000
vertex 180.7884000000000 151.3846500000000 86.3421700000000
endloop
endfacet
facet normal -0.5608062853201 0.6732391008029 0.4819184822099
outer loop
vertex 178.0168000000000 151.9431100000000 85.4246600000000
vertex 177.4769000000000 151.0427800000000 86.0541400000000
vertex 178.2715000000000 151.3331400000000 86.5731800000000
endloop
endfacet
facet normal 0.1044066271523 0.3271913961054 0.9391725328827
outer loop
vertex 181.2328000000000 152.6050800000000 85.8675900000000
vertex 180.0797000000000 152.3675500000000 86.0785300000000
vertex 180.7884000000000 151.3846500000000 86.3421700000000
endloop
endfacet
facet normal -0.5929428451516 0.2608035196504 0.7618400793615
outer loop
vertex 178.2715000000000 151.3331400000000 86.5731800000000
vertex 177.4769000000000 151.0427800000000 86.0541400000000
vertex 177.8104000000000 150.4703100000000 86.5096800000000
endloop
endfacet
facet normal -0.1037858857587 -0.3442911214507 0.9331088433873
outer loop
vertex 179.1108000000000 149.3822800000000 86.3677800000000
vertex 178.7213000000000 150.3753700000000 86.6908800000000
vertex 177.9894000000000 149.5423700000000 86.3021200000000
endloop
endfacet
facet normal -0.2140211127231 -0.2523626252542 0.9436673506504
outer loop
vertex 177.9894000000000 149.5423700000000 86.3021200000000
vertex 178.7213000000000 150.3753700000000 86.6908800000000
vertex 177.8104000000000 150.4703100000000 86.5096800000000
endloop
endfacet
facet normal -0.1919630501282 0.0303941906468 0.9809313842264
outer loop
vertex 178.7213000000000 150.3753700000000 86.6908800000000
vertex 178.2715000000000 151.3331400000000 86.5731800000000
vertex 177.8104000000000 150.4703100000000 86.5096800000000
endloop
endfacet
facet normal -0.0569248570233 0.0953952359576 0.9938104998487
outer loop
vertex 178.2715000000000 151.3331400000000 86.5731800000000
vertex 178.7213000000000 150.3753700000000 86.6908800000000
vertex 179.4540000000000 151.3635900000000 86.6379900000000
endloop
endfacet
facet normal 0.2167099244154 -0.0218333745278 0.9759918608352
outer loop
vertex 179.4540000000000 151.3635900000000 86.6379900000000
vertex 179.8519000000000 150.3171200000000 86.5262300000000
vertex 180.7884000000000 151.3846500000000 86.3421700000000
endloop
endfacet
facet normal 0.1413000119310 -0.0518538883655 0.9886078499029
outer loop
vertex 178.7213000000000 150.3753700000000 86.6908800000000
vertex 179.8519000000000 150.3171200000000 86.5262300000000
vertex 179.4540000000000 151.3635900000000 86.6379900000000
endloop
endfacet
endsolid WRAP
