solid WRAP
facet normal -0.7648119391358 -0.3538179366622 0.5384009337394
outer loop
vertex 120.7532306497356 160.8051340016118 79.6956950145226
vertex 118.7663393857218 160.7751113974320 76.8535366889072
vertex 120.2350568740911 158.5802105440143 77.4974757266428
endloop
endfacet
facet normal 0.4368240415499 -0.8869042468619 -0.1502851077863
outer loop
vertex 121.9733679880957 155.0617858113799 73.3412097037326
vertex 122.0454153537618 155.3652255543695 71.7598821938320
vertex 123.1033354212240 155.7820407252252 72.3750447716749
endloop
endfacet
facet normal 0.9584458634745 -0.1161464076348 0.2605600483230
outer loop
vertex 125.1741696218973 160.7447510619224 80.6491539406502
vertex 124.7701570423154 161.4686699558974 82.4579683298074
vertex 124.5523788606802 159.6016026948163 82.4267871955696
endloop
endfacet
facet normal 0.8969512415246 -0.3709042147876 0.2406419202472
outer loop
vertex 125.4313374657970 159.1940355786708 77.0164537341419
vertex 124.6601732569615 157.5071149925966 77.2907647896705
vertex 125.5537665818332 158.6684442774113 75.7500202872714
endloop
endfacet
facet normal 0.5044237431053 -0.0218321856734 0.8631801915361
outer loop
vertex 123.7178309545008 164.8416151736536 83.0725505666738
vertex 122.8676772374532 162.3182801404176 83.5055398832394
vertex 124.0069049581385 162.5459751087937 82.8455589917906
endloop
endfacet
facet normal 0.9343716792615 -0.3245432153368 0.1470417164376
outer loop
vertex 125.0711078051752 159.0352093350169 78.9549676472376
vertex 125.4313374657970 159.1940355786708 77.0164537341419
vertex 125.5894326799239 160.0767449684945 77.9601155481917
endloop
endfacet
facet normal -0.0890069457922 -0.9767267786681 0.1951475427295
outer loop
vertex 121.0138259346386 155.4374781500498 75.4511004354037
vertex 121.1632088331994 155.0958602738819 73.8094132909516
vertex 122.2698008356516 155.2408224126900 75.0396761673639
endloop
endfacet
facet normal -0.0863554126165 -0.9932736011381 -0.0771381617224
outer loop
vertex 121.9733679880957 155.0617858113799 73.3412097037326
vertex 121.1632088331994 155.0958602738819 73.8094132909516
vertex 121.1171172668678 155.2167447324810 72.3044372493460
endloop
endfacet
facet normal 0.9070386886949 -0.3227031905891 0.2704504908374
outer loop
vertex 125.1741696218973 160.7447510619224 80.6491539406502
vertex 125.0711078051752 159.0352093350169 78.9549676472376
vertex 125.6817695139422 161.0750455954334 79.3408714540168
endloop
endfacet
facet normal -0.3233903939786 0.2648399739379 0.9084483701823
outer loop
vertex 122.8676772374532 162.3182801404176 83.5055398832394
vertex 123.7178309545008 164.8416151736536 83.0725505666738
vertex 122.1259231238942 163.8196452695927 82.8037964736793
endloop
endfacet
facet normal 0.9436501195636 -0.3245076008147 0.0649558993551
outer loop
vertex 124.6601732569615 157.5071149925966 77.2907647896705
vertex 125.0711078051752 159.0352093350169 78.9549676472376
vertex 124.5514064854280 157.6026418409178 79.3481139550425
endloop
endfacet
facet normal 0.7865017730183 -0.6046378734631 0.1258093915928
outer loop
vertex 123.9584482794516 156.2762405307499 75.7620603289514
vertex 124.6601732569615 157.5071149925966 77.2907647896705
vertex 123.7626537874820 156.4882502155919 78.0049914528145
endloop
endfacet
facet normal 0.9091532561022 -0.3933818371683 0.1367153506557
outer loop
vertex 124.6601732569615 157.5071149925966 77.2907647896705
vertex 125.4313374657970 159.1940355786708 77.0164537341419
vertex 125.0711078051752 159.0352093350169 78.9549676472376
endloop
endfacet
facet normal 0.8645141038135 -0.4836116101098 0.1368764949671
outer loop
vertex 125.5537665818332 158.6684442774113 75.7500202872714
vertex 124.6601732569615 157.5071149925966 77.2907647896705
vertex 125.2272208103070 157.7468053001267 74.5561565434729
endloop
endfacet
facet normal 0.7724069468352 -0.6312425706134 0.0701450320846
outer loop
vertex 124.6601732569615 157.5071149925966 77.2907647896705
vertex 124.5514064854280 157.6026418409178 79.3481139550425
vertex 123.7626537874820 156.4882502155919 78.0049914528145
endloop
endfacet
facet normal 0.4940443719735 -0.8652420446462 0.0853015984480
outer loop
vertex 122.2698008356516 155.2408224126900 75.0396761673639
vertex 123.9584482794516 156.2762405307499 75.7620603289514
vertex 122.9670466961671 155.8528864668729 77.2097780622174
endloop
endfacet
facet normal 0.5392593702939 -0.8326931731849 0.1257831899794
outer loop
vertex 123.9584482794516 156.2762405307499 75.7620603289514
vertex 123.7626537874820 156.4882502155919 78.0049914528145
vertex 122.9670466961671 155.8528864668729 77.2097780622174
endloop
endfacet
facet normal 0.7739776365143 -0.6316816163664 0.0440108363978
outer loop
vertex 125.2272208103070 157.7468053001267 74.5561565434729
vertex 123.9584482794516 156.2762405307499 75.7620603289514
vertex 124.6760292419536 156.9473412250878 72.7748495240372
endloop
endfacet
facet normal 0.7726765320595 -0.0386691832089 0.6336210784645
outer loop
vertex 124.0069049581385 162.5459751087937 82.8455589917906
vertex 125.3833483056318 162.8445782337645 81.1852626899053
vertex 124.8613109608364 165.3343651741108 81.9738160532816
endloop
endfacet
facet normal 0.6101758836781 -0.7837512915246 -0.1158417196482
outer loop
vertex 123.1033354212240 155.7820407252252 72.3750447716749
vertex 124.6760292419536 156.9473412250878 72.7748495240372
vertex 123.1405852894758 155.5455706191981 74.1711396752637
endloop
endfacet
facet normal 0.7962535540690 -0.5943121886392 0.1130190252455
outer loop
vertex 124.6601732569615 157.5071149925966 77.2907647896705
vertex 123.9584482794516 156.2762405307499 75.7620603289514
vertex 125.2272208103070 157.7468053001267 74.5561565434729
endloop
endfacet
facet normal -0.6303180793427 -0.5587386935343 0.5389899731919
outer loop
vertex 123.9055440693667 158.8587528686469 82.3236596136781
vertex 122.7765587195289 159.6466170026594 81.8201072028831
vertex 123.6182394909900 157.7059475681813 80.7926289107813
endloop
endfacet
facet normal 0.4303509263524 -0.8025572084889 0.4131585740247
outer loop
vertex 123.7626537874820 156.4882502155919 78.0049914528145
vertex 124.5514064854280 157.6026418409178 79.3481139550425
vertex 123.9187447108314 157.3673196824871 79.5499906470525
endloop
endfacet
facet normal -0.3760959519528 -0.9133810176765 0.1558427138908
outer loop
vertex 121.1632088331994 155.0958602738819 73.8094132909516
vertex 121.0138259346386 155.4374781500498 75.4511004354037
vertex 120.1587286970787 155.6342197173619 74.5405760158856
endloop
endfacet
facet normal 0.9320885089168 -0.1739692161772 0.3177195671782
outer loop
vertex 125.1741696218973 160.7447510619224 80.6491539406502
vertex 125.6817695139422 161.0750455954334 79.3408714540168
vertex 125.3833483056318 162.8445782337645 81.1852626899053
endloop
endfacet
facet normal 0.5098608531601 -0.0645353071038 0.8578327952182
outer loop
vertex 124.0069049581385 162.5459751087937 82.8455589917906
vertex 122.8676772374532 162.3182801404176 83.5055398832394
vertex 123.0590039117143 160.7593286437393 83.2745421922282
endloop
endfacet
facet normal -0.8188824448846 -0.1450020859957 0.5553430800115
outer loop
vertex 122.8676772374532 162.3182801404176 83.5055398832394
vertex 122.1259231238942 163.8196452695927 82.8037964736793
vertex 122.0884517363367 161.6942346297685 82.1935905486840
endloop
endfacet
facet normal 0.7394278916178 -0.5825000483975 0.3375501247438
outer loop
vertex 123.6182394909900 157.7059475681813 80.7926289107813
vertex 123.9187447108314 157.3673196824871 79.5499906470525
vertex 124.4542377360347 158.4036948540662 80.1653958677092
endloop
endfacet
facet normal -0.7069024163566 -0.6545487300556 0.2680577059735
outer loop
vertex 118.5896743238733 156.8004544355414 73.2505147105160
vertex 120.1587286970787 155.6342197173619 74.5405760158856
vertex 119.9359070196728 156.1454557474871 75.2013132681836
endloop
endfacet
facet normal 0.4380074324764 -0.6154287250887 0.6552838876633
outer loop
vertex 123.9187447108314 157.3673196824871 79.5499906470525
vertex 124.5514064854280 157.6026418409178 79.3481139550425
vertex 124.4542377360347 158.4036948540662 80.1653958677092
endloop
endfacet
facet normal -0.8048042297419 -0.1824609868645 0.5647992033121
outer loop
vertex 123.0590039117143 160.7593286437393 83.2745421922282
vertex 122.8676772374532 162.3182801404176 83.5055398832394
vertex 122.0884517363367 161.6942346297685 82.1935905486840
endloop
endfacet
facet normal 0.3711074308545 -0.9267744341817 0.0580381160252
outer loop
vertex 122.0454153537618 155.3652255543695 71.7598821938320
vertex 121.5748013825688 155.0984717994625 70.5094587916574
vertex 122.9182990573966 155.6703832246643 71.0513598591456
endloop
endfacet
facet normal -0.7764056583913 -0.3698123538616 0.5103264411622
outer loop
vertex 120.2350568740911 158.5802105440143 77.4974757266428
vertex 118.7663393857218 160.7751113974320 76.8535366889072
vertex 118.3590251579660 159.3028171696566 75.1669423921995
endloop
endfacet
facet normal -0.6407412175942 -0.5681688420206 0.5163669809669
outer loop
vertex 120.9224514390744 156.4543357511265 76.8104783125809
vertex 122.1884264920760 156.0704473440775 77.9589811934109
vertex 121.6427185014730 157.0429940661378 78.3519442410368
endloop
endfacet
facet normal -0.7405763282015 -0.3642952435489 0.5646553618228
outer loop
vertex 120.2350568740911 158.5802105440143 77.4974757266428
vertex 121.6427185014730 157.0429940661378 78.3519442410368
vertex 122.0059993315972 158.3835679692875 79.6932967385631
endloop
endfacet
facet normal -0.5576598940691 -0.6822277743631 0.4728432154895
outer loop
vertex 119.9359070196728 156.1454557474871 75.2013132681836
vertex 121.0138259346386 155.4374781500498 75.4511004354037
vertex 120.9224514390744 156.4543357511265 76.8104783125809
endloop
endfacet
facet normal -0.5680479514050 -0.7324961270220 0.3751945479380
outer loop
vertex 120.1587286970787 155.6342197173619 74.5405760158856
vertex 121.0138259346386 155.4374781500498 75.4511004354037
vertex 119.9359070196728 156.1454557474871 75.2013132681836
endloop
endfacet
facet normal -0.6021106666868 -0.6653735843435 0.4412943896311
outer loop
vertex 122.1884264920760 156.0704473440775 77.9589811934109
vertex 120.9224514390744 156.4543357511265 76.8104783125809
vertex 121.8051790074766 155.5471685076134 76.6470829978066
endloop
endfacet
facet normal 0.5978828961919 -0.8014242706682 -0.0159743802729
outer loop
vertex 124.6760292419536 156.9473412250878 72.7748495240372
vertex 123.1033354212240 155.7820407252252 72.3750447716749
vertex 122.9182990573966 155.6703832246643 71.0513598591456
endloop
endfacet
facet normal 0.3612027175618 -0.9318233268691 0.0351835803838
outer loop
vertex 122.2698008356516 155.2408224126900 75.0396761673639
vertex 121.9733679880957 155.0617858113799 73.3412097037326
vertex 123.1405852894758 155.5455706191981 74.1711396752637
endloop
endfacet
facet normal 0.7749408443262 -0.1008107408367 0.6239422107270
outer loop
vertex 124.5523788606802 159.6016026948163 82.4267871955696
vertex 124.7701570423154 161.4686699558974 82.4579683298074
vertex 123.8765869184510 160.0638869495008 83.3408173520281
endloop
endfacet
facet normal -0.6142953714079 -0.5604891621897 0.5554215477768
outer loop
vertex 123.6182394909900 157.7059475681813 80.7926289107813
vertex 122.7765587195289 159.6466170026594 81.8201072028831
vertex 122.0059993315972 158.3835679692875 79.6932967385631
endloop
endfacet
facet normal -0.6202840405485 -0.5125390640863 0.5937604035521
outer loop
vertex 123.6182394909900 157.7059475681813 80.7926289107813
vertex 122.0059993315972 158.3835679692875 79.6932967385631
vertex 123.2070483560405 156.6362047249434 79.4396584373301
endloop
endfacet
facet normal 0.5873090098954 0.1286070121016 0.7990796977361
outer loop
vertex 124.7701570423154 161.4686699558974 82.4579683298074
vertex 124.0069049581385 162.5459751087937 82.8455589917906
vertex 123.8765869184510 160.0638869495008 83.3408173520281
endloop
endfacet
facet normal 0.6716990199397 -0.7408067762649 -0.0050741355972
outer loop
vertex 124.6760292419536 156.9473412250878 72.7748495240372
vertex 123.9584482794516 156.2762405307499 75.7620603289514
vertex 123.1405852894758 155.5455706191981 74.1711396752637
endloop
endfacet
facet normal -0.7873326919968 -0.2908764266238 0.5435974029993
outer loop
vertex 120.2350568740911 158.5802105440143 77.4974757266428
vertex 118.3590251579660 159.3028171696566 75.1669423921995
vertex 119.6206721684840 157.3158593965770 75.9310681182667
endloop
endfacet
facet normal -0.7205846178334 -0.1569792652239 0.6753631014733
outer loop
vertex 121.3529863218010 165.8822215807091 82.1168342012001
vertex 120.0468111592471 165.2234368162025 80.5700732420560
vertex 120.6831347472901 163.5313714908894 80.8557059892537
endloop
endfacet
facet normal -0.8031790260048 -0.4556305492598 0.3838023642022
outer loop
vertex 119.9359070196728 156.1454557474871 75.2013132681836
vertex 119.6206721684840 157.3158593965770 75.9310681182667
vertex 118.6142780728395 157.8414745923715 74.4489816534268
endloop
endfacet
facet normal -0.7929291214650 -0.0967830899470 0.6015782923552
outer loop
vertex 122.1259231238942 163.8196452695927 82.8037964736793
vertex 121.3529863218010 165.8822215807091 82.1168342012001
vertex 120.6831347472901 163.5313714908894 80.8557059892537
endloop
endfacet
facet normal -0.7268986946966 -0.2846211081434 0.6249872898289
outer loop
vertex 120.7532306497356 160.8051340016118 79.6956950145226
vertex 120.6831347472901 163.5313714908894 80.8557059892537
vertex 119.0289968979433 162.5378419192510 78.4793854538425
endloop
endfacet
facet normal -0.6743086608195 -0.0067547460739 0.7384187181737
outer loop
vertex 121.3529863218010 165.8822215807091 82.1168342012001
vertex 122.1259231238942 163.8196452695927 82.8037964736793
vertex 122.3076415153742 166.4609358659124 82.9938993638633
endloop
endfacet
facet normal -0.7819340828326 -0.1592433312625 0.6026779003358
outer loop
vertex 122.0884517363367 161.6942346297685 82.1935905486840
vertex 122.1259231238942 163.8196452695927 82.8037964736793
vertex 120.6831347472901 163.5313714908894 80.8557059892537
endloop
endfacet
facet normal 0.0501188754342 -0.9439692410402 0.3262057177537
outer loop
vertex 122.1884264920760 156.0704473440775 77.9589811934109
vertex 122.9670466961671 155.8528864668729 77.2097780622174
vertex 123.2070483560405 156.6362047249434 79.4396584373301
endloop
endfacet
facet normal -0.6220429646988 -0.5136923869526 0.5909168144973
outer loop
vertex 122.7765587195289 159.6466170026594 81.8201072028831
vertex 123.9055440693667 158.8587528686469 82.3236596136781
vertex 123.8765869184510 160.0638869495008 83.3408173520281
endloop
endfacet
facet normal 0.1443820343263 -0.9635167928080 0.2253646337402
outer loop
vertex 122.2698008356516 155.2408224126900 75.0396761673639
vertex 122.9670466961671 155.8528864668729 77.2097780622174
vertex 121.8051790074766 155.5471685076134 76.6470829978066
endloop
endfacet
facet normal -0.2406031678678 -0.9695256087304 0.0461541940444
outer loop
vertex 121.1171172668678 155.2167447324810 72.3044372493460
vertex 119.8984264891276 155.4728559989015 71.3312985947464
vertex 120.8863465754676 155.2187007442913 71.1425112971936
endloop
endfacet
facet normal 0.9561878767067 -0.2926783433914 -0.0066431730955
outer loop
vertex 124.4542377360347 158.4036948540662 80.1653958677092
vertex 125.1741696218973 160.7447510619224 80.6491539406502
vertex 124.4635535276985 158.4027160659150 81.5493906866394
endloop
endfacet
facet normal 0.9464349685812 -0.1651245735182 0.2774792342990
outer loop
vertex 124.7701570423154 161.4686699558974 82.4579683298074
vertex 125.1741696218973 160.7447510619224 80.6491539406502
vertex 125.3833483056318 162.8445782337645 81.1852626899053
endloop
endfacet
facet normal 0.9364437573585 -0.3110382437422 0.1622599773022
outer loop
vertex 125.0711078051752 159.0352093350169 78.9549676472376
vertex 125.5894326799239 160.0767449684945 77.9601155481917
vertex 125.6817695139422 161.0750455954334 79.3408714540168
endloop
endfacet
facet normal 0.8986690994260 -0.3348964970981 0.2832634568175
outer loop
vertex 125.0711078051752 159.0352093350169 78.9549676472376
vertex 125.1741696218973 160.7447510619224 80.6491539406502
vertex 124.4542377360347 158.4036948540662 80.1653958677092
endloop
endfacet
facet normal 0.5049153731520 -0.5338207454693 0.6783036765796
outer loop
vertex 124.5523788606802 159.6016026948163 82.4267871955696
vertex 123.9055440693667 158.8587528686469 82.3236596136781
vertex 124.4635535276985 158.4027160659150 81.5493906866394
endloop
endfacet
facet normal 0.0170399530931 -0.9946514660000 0.1018729659067
outer loop
vertex 121.1632088331994 155.0958602738819 73.8094132909516
vertex 121.9733679880957 155.0617858113799 73.3412097037326
vertex 122.2698008356516 155.2408224126900 75.0396761673639
endloop
endfacet
facet normal 0.4650297078199 -0.8705747541861 0.1607699232405
outer loop
vertex 123.9584482794516 156.2762405307499 75.7620603289514
vertex 122.2698008356516 155.2408224126900 75.0396761673639
vertex 123.1405852894758 155.5455706191981 74.1711396752637
endloop
endfacet
facet normal 0.3513482184407 -0.9357698121029 0.0298209348528
outer loop
vertex 123.1033354212240 155.7820407252252 72.3750447716749
vertex 122.0454153537618 155.3652255543695 71.7598821938320
vertex 122.9182990573966 155.6703832246643 71.0513598591456
endloop
endfacet
facet normal -0.8271927664291 -0.3571132274806 0.4338459057382
outer loop
vertex 122.7765587195289 159.6466170026594 81.8201072028831
vertex 123.0590039117143 160.7593286437393 83.2745421922282
vertex 122.0884517363367 161.6942346297685 82.1935905486840
endloop
endfacet
facet normal 0.0156577837747 -0.9790596552414 0.2029705034870
outer loop
vertex 121.5748013825688 155.0984717994625 70.5094587916574
vertex 122.0454153537618 155.3652255543695 71.7598821938320
vertex 120.8863465754676 155.2187007442913 71.1425112971936
endloop
endfacet
facet normal -0.1021409033360 -0.9821956887894 0.1576669426010
outer loop
vertex 121.0138259346386 155.4374781500498 75.4511004354037
vertex 122.2698008356516 155.2408224126900 75.0396761673639
vertex 121.8051790074766 155.5471685076134 76.6470829978066
endloop
endfacet
facet normal -0.5795247880540 -0.4925770546075 0.6492448423401
outer loop
vertex 122.0059993315972 158.3835679692875 79.6932967385631
vertex 121.6427185014730 157.0429940661378 78.3519442410368
vertex 123.2070483560405 156.6362047249434 79.4396584373301
endloop
endfacet
facet normal -0.7631284020285 -0.3953018238018 0.5112450587697
outer loop
vertex 122.7765587195289 159.6466170026594 81.8201072028831
vertex 120.7532306497356 160.8051340016118 79.6956950145226
vertex 122.0059993315972 158.3835679692875 79.6932967385631
endloop
endfacet
facet normal -0.6665979446966 -0.1266816397922 0.7345739869243
outer loop
vertex 120.6831347472901 163.5313714908894 80.8557059892537
vertex 120.0468111592471 165.2234368162025 80.5700732420560
vertex 119.2719814657016 164.2465445621563 79.6984739134016
endloop
endfacet
facet normal -0.8166210893604 -0.2436319596668 0.5232336616090
outer loop
vertex 120.7532306497356 160.8051340016118 79.6956950145226
vertex 122.0884517363367 161.6942346297685 82.1935905486840
vertex 120.6831347472901 163.5313714908894 80.8557059892537
endloop
endfacet
facet normal 0.1408908357268 -0.9895810991542 -0.0296482816534
outer loop
vertex 122.0454153537618 155.3652255543695 71.7598821938320
vertex 121.1171172668678 155.2167447324810 72.3044372493460
vertex 120.8863465754676 155.2187007442913 71.1425112971936
endloop
endfacet
facet normal 0.0477778928998 -0.9813616514986 -0.1861359232336
outer loop
vertex 122.0454153537618 155.3652255543695 71.7598821938320
vertex 121.9733679880957 155.0617858113799 73.3412097037326
vertex 121.1171172668678 155.2167447324810 72.3044372493460
endloop
endfacet
facet normal -0.5588329468512 -0.6026975206435 0.5696151649349
outer loop
vertex 123.0590039117143 160.7593286437393 83.2745421922282
vertex 122.7765587195289 159.6466170026594 81.8201072028831
vertex 123.8765869184510 160.0638869495008 83.3408173520281
endloop
endfacet
facet normal -0.3393190423919 -0.9384239527151 -0.0649851709307
outer loop
vertex 121.1171172668678 155.2167447324810 72.3044372493460
vertex 121.1632088331994 155.0958602738819 73.8094132909516
vertex 119.6670447455480 155.7144526266704 72.6887743159807
endloop
endfacet
facet normal 0.6531477159298 -0.6846266689433 0.3235496644215
outer loop
vertex 123.7626537874820 156.4882502155919 78.0049914528145
vertex 123.9187447108314 157.3673196824871 79.5499906470525
vertex 123.2070483560405 156.6362047249434 79.4396584373301
endloop
endfacet
facet normal 0.4331919685064 -0.8639263374111 0.2568579411834
outer loop
vertex 122.9670466961671 155.8528864668729 77.2097780622174
vertex 123.7626537874820 156.4882502155919 78.0049914528145
vertex 123.2070483560405 156.6362047249434 79.4396584373301
endloop
endfacet
facet normal -0.2940635968375 -0.9483906566459 0.1186666060938
outer loop
vertex 119.8984264891276 155.4728559989015 71.3312985947464
vertex 121.1171172668678 155.2167447324810 72.3044372493460
vertex 119.6670447455480 155.7144526266704 72.6887743159807
endloop
endfacet
facet normal 0.9100379357811 -0.2367617019311 0.3402570380433
outer loop
vertex 124.5514064854280 157.6026418409178 79.3481139550425
vertex 125.0711078051752 159.0352093350169 78.9549676472376
vertex 124.4542377360347 158.4036948540662 80.1653958677092
endloop
endfacet
facet normal -0.4282846650603 -0.9005511511675 0.0746985261244
outer loop
vertex 121.1632088331994 155.0958602738819 73.8094132909516
vertex 120.1587286970787 155.6342197173619 74.5405760158856
vertex 119.6670447455480 155.7144526266704 72.6887743159807
endloop
endfacet
facet normal -0.7999972815013 -0.4447488670577 0.4027440810756
outer loop
vertex 118.5896743238733 156.8004544355414 73.2505147105160
vertex 119.9359070196728 156.1454557474871 75.2013132681836
vertex 118.6142780728395 157.8414745923715 74.4489816534268
endloop
endfacet
facet normal -0.6640752399108 -0.7335613612114 0.1445399774287
outer loop
vertex 120.1587286970787 155.6342197173619 74.5405760158856
vertex 118.5896743238733 156.8004544355414 73.2505147105160
vertex 119.6670447455480 155.7144526266704 72.6887743159807
endloop
endfacet
facet normal 0.0830137118237 0.1908069000693 0.9781111647125
outer loop
vertex 124.0069049581385 162.5459751087937 82.8455589917906
vertex 123.0590039117143 160.7593286437393 83.2745421922282
vertex 123.8765869184510 160.0638869495008 83.3408173520281
endloop
endfacet
facet normal 0.1450085111426 -0.8033048158447 0.5776451372053
outer loop
vertex 123.9055440693667 158.8587528686469 82.3236596136781
vertex 123.6182394909900 157.7059475681813 80.7926289107813
vertex 124.4635535276985 158.4027160659150 81.5493906866394
endloop
endfacet
facet normal -0.7359740069974 -0.3813015293719 0.5594205973352
outer loop
vertex 120.7532306497356 160.8051340016118 79.6956950145226
vertex 120.2350568740911 158.5802105440143 77.4974757266428
vertex 122.0059993315972 158.3835679692875 79.6932967385631
endloop
endfacet
facet normal 0.6469804233596 -0.6814306003006 0.3421529902886
outer loop
vertex 123.9187447108314 157.3673196824871 79.5499906470525
vertex 123.6182394909900 157.7059475681813 80.7926289107813
vertex 123.2070483560405 156.6362047249434 79.4396584373301
endloop
endfacet
facet normal 0.6386190519875 -0.7695077995754 -0.0048428123181
outer loop
vertex 123.6182394909900 157.7059475681813 80.7926289107813
vertex 124.4542377360347 158.4036948540662 80.1653958677092
vertex 124.4635535276985 158.4027160659150 81.5493906866394
endloop
endfacet
facet normal 0.7151186571350 0.2755238839567 0.6424110020749
outer loop
vertex 124.0069049581385 162.5459751087937 82.8455589917906
vertex 124.7701570423154 161.4686699558974 82.4579683298074
vertex 125.3833483056318 162.8445782337645 81.1852626899053
endloop
endfacet
facet normal -0.6871050685901 -0.5085844278411 0.5188723392853
outer loop
vertex 119.9359070196728 156.1454557474871 75.2013132681836
vertex 120.9224514390744 156.4543357511265 76.8104783125809
vertex 119.6206721684840 157.3158593965770 75.9310681182667
endloop
endfacet
facet normal 0.0760690733585 -0.9335951260331 0.3501623005489
outer loop
vertex 122.9670466961671 155.8528864668729 77.2097780622174
vertex 122.1884264920760 156.0704473440775 77.9589811934109
vertex 121.8051790074766 155.5471685076134 76.6470829978066
endloop
endfacet
facet normal -0.5658413545208 -0.5614697093526 0.6038007345089
outer loop
vertex 121.6427185014730 157.0429940661378 78.3519442410368
vertex 122.1884264920760 156.0704473440775 77.9589811934109
vertex 123.2070483560405 156.6362047249434 79.4396584373301
endloop
endfacet
facet normal -0.7565843092242 -0.4094078960900 0.5098679806136
outer loop
vertex 120.2350568740911 158.5802105440143 77.4974757266428
vertex 120.9224514390744 156.4543357511265 76.8104783125809
vertex 121.6427185014730 157.0429940661378 78.3519442410368
endloop
endfacet
facet normal -0.5958737908157 -0.6617679191443 0.4549699403371
outer loop
vertex 120.9224514390744 156.4543357511265 76.8104783125809
vertex 121.0138259346386 155.4374781500498 75.4511004354037
vertex 121.8051790074766 155.5471685076134 76.6470829978066
endloop
endfacet
facet normal 0.5194583684783 -0.5438191841661 0.6591082599625
outer loop
vertex 123.9055440693667 158.8587528686469 82.3236596136781
vertex 124.5523788606802 159.6016026948163 82.4267871955696
vertex 123.8765869184510 160.0638869495008 83.3408173520281
endloop
endfacet
facet normal -0.6817101425130 -0.4151171814651 0.6024524937681
outer loop
vertex 120.9224514390744 156.4543357511265 76.8104783125809
vertex 120.2350568740911 158.5802105440143 77.4974757266428
vertex 119.6206721684840 157.3158593965770 75.9310681182667
endloop
endfacet
facet normal -0.8266022879251 -0.3578049193032 0.4344010788654
outer loop
vertex 119.6206721684840 157.3158593965770 75.9310681182667
vertex 118.3590251579660 159.3028171696566 75.1669423921995
vertex 118.6142780728395 157.8414745923715 74.4489816534268
endloop
endfacet
facet normal -0.1269942043580 -0.0625117483407 0.9899316912691
outer loop
vertex 122.1259231238942 163.8196452695927 82.8037964736793
vertex 123.7178309545008 164.8416151736536 83.0725505666738
vertex 122.3076415153742 166.4609358659124 82.9938993638633
endloop
endfacet
facet normal -0.7659801085376 -0.3551493924252 0.5358576139095
outer loop
vertex 120.7532306497356 160.8051340016118 79.6956950145226
vertex 122.7765587195289 159.6466170026594 81.8201072028831
vertex 122.0884517363367 161.6942346297685 82.1935905486840
endloop
endfacet
facet normal -0.6936652291020 -0.3503673190691 0.6293419512976
outer loop
vertex 119.0289968979433 162.5378419192510 78.4793854538425
vertex 120.6831347472901 163.5313714908894 80.8557059892537
vertex 119.2719814657016 164.2465445621563 79.6984739134016
endloop
endfacet
facet normal -0.7566214934430 -0.3788135648765 0.5329392073452
outer loop
vertex 118.7663393857218 160.7751113974320 76.8535366889072
vertex 120.7532306497356 160.8051340016118 79.6956950145226
vertex 119.0289968979433 162.5378419192510 78.4793854538425
endloop
endfacet
facet normal -0.6378388799165 -0.7411305421462 0.2094924408303
outer loop
vertex 119.6670447455480 155.7144526266704 72.6887743159807
vertex 118.5896743238733 156.8004544355414 73.2505147105160
vertex 118.2353158671309 156.4132649606963 70.8018270895709
endloop
endfacet
facet normal 0.9566920523406 -0.2147265707975 0.1965523258112
outer loop
vertex 125.1741696218973 160.7447510619224 80.6491539406502
vertex 124.5523788606802 159.6016026948163 82.4267871955696
vertex 124.4635535276985 158.4027160659150 81.5493906866394
endloop
endfacet
facet normal -0.5070818928795 -0.8593281141256 0.0665067379073
outer loop
vertex 119.8984264891276 155.4728559989015 71.3312985947464
vertex 119.6670447455480 155.7144526266704 72.6887743159807
vertex 118.2353158671309 156.4132649606963 70.8018270895709
endloop
endfacet
facet normal 0.4547132138832 -0.8817486660036 -0.1255196523291
outer loop
vertex 121.9733679880957 155.0617858113799 73.3412097037326
vertex 123.1033354212240 155.7820407252252 72.3750447716749
vertex 123.1405852894758 155.5455706191981 74.1711396752637
endloop
endfacet
facet normal 0.6893660072366 0.0151932634954 0.7242538731764
outer loop
vertex 123.7178309545008 164.8416151736536 83.0725505666738
vertex 124.0069049581385 162.5459751087937 82.8455589917906
vertex 124.8613109608364 165.3343651741108 81.9738160532816
endloop
endfacet
endsolid WRAP
