solid WRAP
facet normal 0.4989536890747 0.4424368324315 -0.7451810957524
outer loop
vertex 93.6525181965525 144.2428363812043 85.7115129422657
vertex 92.5158770245948 144.4993880035442 85.1027704213604
vertex 91.7286440062643 146.5282402474492 85.7802515658569
endloop
endfacet
facet normal -0.4463743629334 -0.2516096821939 -0.8587447210563
outer loop
vertex 91.0927742531923 142.5876809967641 85.5843603329521
vertex 89.4468924459760 144.2920598613234 85.9405095018620
vertex 91.5011426980707 144.1249337347159 84.9216804196800
endloop
endfacet
facet normal -0.4614442949449 -0.2765739959216 -0.8429566936936
outer loop
vertex 88.0301019799929 146.6037662050785 86.4226362884317
vertex 87.0300526135399 148.9696050071726 86.1938434953601
vertex 88.1379529814853 149.6983410627984 85.3482677352233
endloop
endfacet
facet normal -0.3017231669532 -0.3712773695432 -0.8781322482342
outer loop
vertex 92.7828494876787 140.1402558159890 85.3587461356932
vertex 94.1310219889114 139.6914367689520 85.0852810375042
vertex 92.9687605215014 139.0058947225774 85.7744795718717
endloop
endfacet
facet normal -0.5888689341879 -0.1974481241245 -0.7837395081454
outer loop
vertex 89.4468924459760 144.2920598613234 85.9405095018620
vertex 88.0301019799929 146.6037662050785 86.4226362884317
vertex 89.4616800636354 146.7396839161189 85.3127668122075
endloop
endfacet
facet normal 0.3741349155040 0.4210806577600 -0.8262651781730
outer loop
vertex 91.7286440062643 146.5282402474492 85.7802515658569
vertex 92.5158770245948 144.4993880035442 85.1027704213604
vertex 90.8063211259817 146.2333167234328 85.2123227740358
endloop
endfacet
facet normal -0.0263331835906 -0.0547490731725 -0.9981528452240
outer loop
vertex 94.5395422378826 141.0802495709556 84.9983265667017
vertex 94.1310219889114 139.6914367689520 85.0852810375042
vertex 92.5205857021362 141.8928796729581 85.0070174282688
endloop
endfacet
facet normal -0.4532432912334 -0.2594889762640 -0.8527813261026
outer loop
vertex 89.4468924459760 144.2920598613234 85.9405095018620
vertex 91.0927742531923 142.5876809967641 85.5843603329521
vertex 90.4474838090639 142.1082035291555 86.0732226815391
endloop
endfacet
facet normal 0.4247047505838 0.3098821783086 -0.8506461722704
outer loop
vertex 91.7286440062643 146.5282402474492 85.7802515658569
vertex 90.8063211259817 146.2333167234328 85.2123227740358
vertex 90.4437966143574 148.9406624729628 86.0175839253095
endloop
endfacet
facet normal -0.4632898112365 -0.2441682329946 -0.8519063474354
outer loop
vertex 91.0927742531923 142.5876809967641 85.5843603329521
vertex 91.5011426980707 144.1249337347159 84.9216804196800
vertex 92.5205857021362 141.8928796729581 85.0070174282688
endloop
endfacet
facet normal -0.3762068925168 -0.2570850833315 -0.8901548370656
outer loop
vertex 92.9687605215014 139.0058947225774 85.7744795718717
vertex 94.1310219889114 139.6914367689520 85.0852810375042
vertex 94.6175360927362 138.1891899460360 85.3135281716298
endloop
endfacet
facet normal 0.1113509894226 0.1716309666609 -0.9788481845709
outer loop
vertex 92.5158770245948 144.4993880035442 85.1027704213604
vertex 91.5011426980707 144.1249337347159 84.9216804196800
vertex 90.8063211259817 146.2333167234328 85.2123227740358
endloop
endfacet
facet normal 0.6374755537400 0.2903864482469 -0.7136530172699
outer loop
vertex 89.1920200931949 152.1538041115262 86.2068577795229
vertex 90.4437966143574 148.9406624729628 86.0175839253095
vertex 88.8310834570965 151.1363902357976 85.4704614202078
endloop
endfacet
facet normal 0.0258009348254 0.0367456784019 -0.9989915249295
outer loop
vertex 92.5205857021362 141.8928796729581 85.0070174282688
vertex 92.5158770245948 144.4993880035442 85.1027704213604
vertex 94.0083667981537 142.9748994819060 85.0852420108271
endloop
endfacet
facet normal 0.4946605230230 0.4925108850205 -0.7160614464548
outer loop
vertex 92.5158770245948 144.4993880035442 85.1027704213604
vertex 93.6525181965525 144.2428363812043 85.7115129422657
vertex 94.0083667981537 142.9748994819060 85.0852420108271
endloop
endfacet
facet normal -0.5022304533359 -0.2098436264871 -0.8388862999029
outer loop
vertex 88.1379529814853 149.6983410627984 85.3482677352233
vertex 87.0300526135399 148.9696050071726 86.1938434953601
vertex 85.5780195850535 152.1586392268787 86.2654344851138
endloop
endfacet
facet normal -0.4949998274305 -0.2415727045798 -0.8346363275378
outer loop
vertex 92.5205857021362 141.8928796729581 85.0070174282688
vertex 92.7828494876787 140.1402558159890 85.3587461356932
vertex 91.5480084903276 140.5204753971911 85.9810475990862
endloop
endfacet
facet normal 0.0159385617290 0.0502787522539 -0.9986080358788
outer loop
vertex 94.5395422378826 141.0802495709556 84.9983265667017
vertex 92.5205857021362 141.8928796729581 85.0070174282688
vertex 94.0083667981537 142.9748994819060 85.0852420108271
endloop
endfacet
facet normal -0.2658327014642 -0.2277679558197 -0.9367255377825
outer loop
vertex 94.1310219889114 139.6914367689520 85.0852810375042
vertex 92.7828494876787 140.1402558159890 85.3587461356932
vertex 92.5205857021362 141.8928796729581 85.0070174282688
endloop
endfacet
facet normal 0.5960963455220 0.4837987526218 -0.6407869488503
outer loop
vertex 93.6525181965525 144.2428363812043 85.7115129422657
vertex 95.7154721198218 142.0899960460813 86.0051797003859
vertex 94.0083667981537 142.9748994819060 85.0852420108271
endloop
endfacet
facet normal -0.4508243846453 -0.2629657749883 -0.8529984615426
outer loop
vertex 90.4474838090639 142.1082035291555 86.0732226815391
vertex 91.0927742531923 142.5876809967641 85.5843603329521
vertex 91.5480084903276 140.5204753971911 85.9810475990862
endloop
endfacet
facet normal -0.0257928048191 0.1281676024666 -0.9914170650627
outer loop
vertex 91.5011426980707 144.1249337347159 84.9216804196800
vertex 89.4616800636354 146.7396839161189 85.3127668122075
vertex 90.8063211259817 146.2333167234328 85.2123227740358
endloop
endfacet
facet normal -0.4477517123378 -0.2195963785384 -0.8667732313768
outer loop
vertex 91.5011426980707 144.1249337347159 84.9216804196800
vertex 89.4468924459760 144.2920598613234 85.9405095018620
vertex 89.4616800636354 146.7396839161189 85.3127668122075
endloop
endfacet
facet normal 0.1624928409443 0.0365165961590 -0.9860337797696
outer loop
vertex 91.5011426980707 144.1249337347159 84.9216804196800
vertex 92.5158770245948 144.4993880035442 85.1027704213604
vertex 92.5205857021362 141.8928796729581 85.0070174282688
endloop
endfacet
facet normal -0.5784304719155 -0.2494754774606 -0.7766467506566
outer loop
vertex 88.0301019799929 146.6037662050785 86.4226362884317
vertex 88.1379529814853 149.6983410627984 85.3482677352233
vertex 89.4616800636354 146.7396839161189 85.3127668122075
endloop
endfacet
facet normal 0.0568873390078 0.0572751910808 -0.9967363659199
outer loop
vertex 88.1379529814853 149.6983410627984 85.3482677352233
vertex 88.8310834570965 151.1363902357976 85.4704614202078
vertex 89.4352241628067 148.6724784245101 85.3633588138280
endloop
endfacet
facet normal 0.5066033267327 0.1610351233075 -0.8470069411786
outer loop
vertex 88.8310834570965 151.1363902357976 85.4704614202078
vertex 90.4437966143574 148.9406624729628 86.0175839253095
vertex 89.4352241628067 148.6724784245101 85.3633588138280
endloop
endfacet
facet normal -0.0650195485581 0.0252218582826 -0.9975651939448
outer loop
vertex 90.8063211259817 146.2333167234328 85.2123227740358
vertex 89.4616800636354 146.7396839161189 85.3127668122075
vertex 89.4352241628067 148.6724784245101 85.3633588138280
endloop
endfacet
facet normal 0.4582960402532 0.3092141206073 -0.8332774850584
outer loop
vertex 90.4437966143574 148.9406624729628 86.0175839253095
vertex 90.8063211259817 146.2333167234328 85.2123227740358
vertex 89.4352241628067 148.6724784245101 85.3633588138280
endloop
endfacet
facet normal 0.0326569850696 0.0265993494019 -0.9991126042332
outer loop
vertex 89.4616800636354 146.7396839161189 85.3127668122075
vertex 88.1379529814853 149.6983410627984 85.3482677352233
vertex 89.4352241628067 148.6724784245101 85.3633588138280
endloop
endfacet
facet normal 0.5988259853315 0.5594544638118 -0.5730777802470
outer loop
vertex 94.0083667981537 142.9748994819060 85.0852420108271
vertex 95.7154721198218 142.0899960460813 86.0051797003859
vertex 96.0293707446594 141.0751035688443 85.3424154361652
endloop
endfacet
facet normal 0.2240882661786 0.1072602838856 -0.9686483781341
outer loop
vertex 94.5395422378826 141.0802495709556 84.9983265667017
vertex 94.0083667981537 142.9748994819060 85.0852420108271
vertex 96.0293707446594 141.0751035688443 85.3424154361652
endloop
endfacet
facet normal -0.1104697028547 -0.0297049007142 -0.9934354853863
outer loop
vertex 96.3356912046550 138.5937794671310 84.8729437945827
vertex 94.1310219889114 139.6914367689520 85.0852810375042
vertex 94.5395422378826 141.0802495709556 84.9983265667017
endloop
endfacet
facet normal -0.4695139159278 -0.2650121369922 -0.8422144916807
outer loop
vertex 91.0927742531923 142.5876809967641 85.5843603329521
vertex 92.5205857021362 141.8928796729581 85.0070174282688
vertex 91.5480084903276 140.5204753971911 85.9810475990862
endloop
endfacet
facet normal 0.2087232900539 0.3874992816984 -0.8979303396547
outer loop
vertex 96.9630888262680 139.6507678380701 84.9447895326530
vertex 94.5395422378826 141.0802495709556 84.9983265667017
vertex 96.0293707446594 141.0751035688443 85.3424154361652
endloop
endfacet
facet normal -0.5063666767524 -0.3686798572822 -0.7795305969037
outer loop
vertex 92.7828494876787 140.1402558159890 85.3587461356932
vertex 92.9687605215014 139.0058947225774 85.7744795718717
vertex 91.5480084903276 140.5204753971911 85.9810475990862
endloop
endfacet
facet normal -0.1963965486704 -0.2091539122892 -0.9579577426194
outer loop
vertex 94.1310219889114 139.6914367689520 85.0852810375042
vertex 96.3356912046550 138.5937794671310 84.8729437945827
vertex 94.6175360927362 138.1891899460360 85.3135281716298
endloop
endfacet
facet normal 0.0133083544727 0.0599444012873 -0.9981129978392
outer loop
vertex 96.3356912046550 138.5937794671310 84.8729437945827
vertex 94.5395422378826 141.0802495709556 84.9983265667017
vertex 96.9630888262680 139.6507678380701 84.9447895326530
endloop
endfacet
endsolid WRAP
