solid WRAP
facet normal 0.4741858451146 -0.2209777090038 -0.8522421231178
outer loop
vertex 192.1269870168975 158.4465840567078 87.8178216222361
vertex 193.6900187243417 159.0639530018104 88.5274119131081
vertex 192.4346841768077 157.3387043726459 88.2762856451335
endloop
endfacet
facet normal 0.4571416298041 -0.2287086073572 -0.8594846730575
outer loop
vertex 192.1269870168975 158.4465840567078 87.8178216222361
vertex 192.4346841768077 157.3387043726459 88.2762856451335
vertex 191.0403375753193 156.6531901775302 87.7170774403870
endloop
endfacet
facet normal -0.2958301334076 0.2015670188623 -0.9337319042825
outer loop
vertex 187.9990450199816 154.0268916864087 87.5723775008480
vertex 189.1912448917241 155.5921956167245 87.5325641453351
vertex 188.8347586757674 153.8624590409795 87.2721055714660
endloop
endfacet
facet normal 0.6425512790045 -0.1611959903926 -0.7490952586494
outer loop
vertex 191.0277770239350 155.1355975807549 87.8752366865196
vertex 191.8536999465438 154.9012737107256 88.6341119991312
vertex 190.2321884754693 152.1324440529356 87.8390461862498
endloop
endfacet
facet normal 0.1632145677828 0.0306273432185 -0.9861150899925
outer loop
vertex 190.3905225249520 157.5756338355656 87.6381745974433
vertex 191.0403375753193 156.6531901775302 87.7170774403870
vertex 190.0344365471552 154.7858722681589 87.4925917892709
endloop
endfacet
facet normal 0.0797167182428 0.1323400886500 -0.9879935960160
outer loop
vertex 188.8347586757674 153.8624590409795 87.2721055714660
vertex 189.1912448917241 155.5921956167245 87.5325641453351
vertex 190.0344365471552 154.7858722681589 87.4925917892709
endloop
endfacet
facet normal -0.3061881495458 0.1580912450412 -0.9387523503667
outer loop
vertex 187.9990450199816 154.0268916864087 87.5723775008480
vertex 188.8347586757674 153.8624590409795 87.2721055714660
vertex 187.7237069500573 151.3534398150900 87.2119586101441
endloop
endfacet
facet normal 0.0839805414345 -0.0133030391043 -0.9963785916061
outer loop
vertex 187.7237069500573 151.3534398150900 87.2119586101441
vertex 188.8347586757674 153.8624590409795 87.2721055714660
vertex 188.9683141682269 151.8864698108928 87.3097446023342
endloop
endfacet
facet normal 0.0022222898876 0.0518307526093 -0.9986534106043
outer loop
vertex 189.1912448917241 155.5921956167245 87.5325641453351
vertex 190.3905225249520 157.5756338355656 87.6381745974433
vertex 190.0344365471552 154.7858722681589 87.4925917892709
endloop
endfacet
facet normal 0.4115123185141 -0.0978410206771 -0.9061372668553
outer loop
vertex 191.0403375753193 156.6531901775302 87.7170774403870
vertex 192.4346841768077 157.3387043726459 88.2762856451335
vertex 191.0277770239350 155.1355975807549 87.8752366865196
endloop
endfacet
facet normal 0.3877818276449 -0.0987193277795 -0.9164495340558
outer loop
vertex 191.0403375753193 156.6531901775302 87.7170774403870
vertex 191.0277770239350 155.1355975807549 87.8752366865196
vertex 190.0344365471552 154.7858722681589 87.4925917892709
endloop
endfacet
facet normal -0.2043537633296 0.1748459705671 -0.9631554526604
outer loop
vertex 190.3905225249520 157.5756338355656 87.6381745974433
vertex 189.1912448917241 155.5921956167245 87.5325641453351
vertex 189.8346275191509 158.4204625134656 87.9094850342789
endloop
endfacet
facet normal -0.4506616065496 -0.0098693448464 -0.8926403040500
outer loop
vertex 190.3905225249520 157.5756338355656 87.6381745974433
vertex 189.8346275191509 158.4204625134656 87.9094850342789
vertex 190.6202091764223 160.5694752050556 87.4891132032380
endloop
endfacet
facet normal 0.6208483266843 -0.3496125594385 -0.7016540554548
outer loop
vertex 192.4346841768077 157.3387043726459 88.2762856451335
vertex 193.6900187243417 159.0639530018104 88.5274119131081
vertex 192.7315983363682 155.9533313730241 89.2292944022386
endloop
endfacet
facet normal 0.8091130598518 -0.5124794761152 -0.2875775424785
outer loop
vertex 191.8536999465438 154.9012737107256 88.6341119991312
vertex 192.7315983363682 155.9533313730241 89.2292944022386
vertex 191.1494483920860 152.6411869924394 90.6802694360368
endloop
endfacet
facet normal 0.3994860108968 -0.0893549378110 -0.9123741678646
outer loop
vertex 190.0344365471552 154.7858722681589 87.4925917892709
vertex 190.2321884754693 152.1324440529356 87.8390461862498
vertex 188.9683141682269 151.8864698108928 87.3097446023342
endloop
endfacet
facet normal 0.1853631602622 -0.0061891774302 -0.9826505955325
outer loop
vertex 188.8347586757674 153.8624590409795 87.2721055714660
vertex 190.0344365471552 154.7858722681589 87.4925917892709
vertex 188.9683141682269 151.8864698108928 87.3097446023342
endloop
endfacet
facet normal 0.0458714721439 0.0756256960641 -0.9960806002218
outer loop
vertex 187.7237069500573 151.3534398150900 87.2119586101441
vertex 188.9683141682269 151.8864698108928 87.3097446023342
vertex 188.3870633783118 150.0135624048483 87.1407796052984
endloop
endfacet
facet normal 0.8694545486243 -0.4518084211945 -0.1997947407071
outer loop
vertex 190.2321884754693 152.1324440529356 87.8390461862498
vertex 191.8536999465438 154.9012737107256 88.6341119991312
vertex 191.1494483920860 152.6411869924394 90.6802694360368
endloop
endfacet
facet normal 0.7391555094793 -0.2669639729992 -0.6183683125185
outer loop
vertex 191.8536999465438 154.9012737107256 88.6341119991312
vertex 192.4346841768077 157.3387043726459 88.2762856451335
vertex 192.7315983363682 155.9533313730241 89.2292944022386
endloop
endfacet
facet normal 0.6136804410375 -0.2559285493094 -0.7469249587050
outer loop
vertex 191.0277770239350 155.1355975807549 87.8752366865196
vertex 192.4346841768077 157.3387043726459 88.2762856451335
vertex 191.8536999465438 154.9012737107256 88.6341119991312
endloop
endfacet
facet normal 0.0294036148956 -0.0646076270386 -0.9974774593741
outer loop
vertex 191.0403375753193 156.6531901775302 87.7170774403870
vertex 190.3905225249520 157.5756338355656 87.6381745974433
vertex 191.4833376854166 159.0187699946043 87.5769151814791
endloop
endfacet
facet normal 0.3857424382512 -0.0911261910395 -0.9180951958477
outer loop
vertex 191.0277770239350 155.1355975807549 87.8752366865196
vertex 190.2321884754693 152.1324440529356 87.8390461862498
vertex 190.0344365471552 154.7858722681589 87.4925917892709
endloop
endfacet
facet normal 0.2642875736701 -0.1062887992430 -0.9585691261245
outer loop
vertex 192.1269870168975 158.4465840567078 87.8178216222361
vertex 191.0403375753193 156.6531901775302 87.7170774403870
vertex 191.4833376854166 159.0187699946043 87.5769151814791
endloop
endfacet
facet normal 0.2648963656987 -0.1047453107279 -0.9585709860621
outer loop
vertex 186.7752962222483 148.6307450833965 86.8464794062727
vertex 188.3870633783118 150.0135624048483 87.1407796052984
vertex 188.2029922105153 148.3187664236154 87.2751067966777
endloop
endfacet
facet normal 0.6746348514098 -0.3786651276476 -0.6336249193071
outer loop
vertex 188.3870633783118 150.0135624048483 87.1407796052984
vertex 190.2321884754693 152.1324440529356 87.8390461862498
vertex 189.1457702785333 148.1725770962427 89.0487965044715
endloop
endfacet
facet normal 0.5473427520105 -0.2338167516495 -0.8035830003613
outer loop
vertex 188.2029922105153 148.3187664236154 87.2751067966777
vertex 187.6680585349800 146.3325316567743 87.4886788744945
vertex 186.2499330919336 145.8598337643822 86.6602940073643
endloop
endfacet
facet normal 0.8389959049266 -0.2763598551846 -0.4687335084659
outer loop
vertex 188.2029922105153 148.3187664236154 87.2751067966777
vertex 189.1457702785333 148.1725770962427 89.0487965044715
vertex 187.6680585349800 146.3325316567743 87.4886788744945
endloop
endfacet
facet normal -0.1181521158410 0.2036895698088 -0.9718799497229
outer loop
vertex 186.7752962222483 148.6307450833965 86.8464794062727
vertex 185.3105259156564 146.1795357097886 86.5108205916532
vertex 185.1498794074369 147.2075606611835 86.7458071092946
endloop
endfacet
facet normal 0.1684077988206 0.0342631090624 -0.9851217450923
outer loop
vertex 186.7752962222483 148.6307450833965 86.8464794062727
vertex 186.2499330919336 145.8598337643822 86.6602940073643
vertex 185.3105259156564 146.1795357097886 86.5108205916532
endloop
endfacet
facet normal -0.3963020701531 0.1626331828138 -0.9036011935806
outer loop
vertex 187.9990450199816 154.0268916864087 87.5723775008480
vertex 187.7237069500573 151.3534398150900 87.2119586101441
vertex 186.5764314165034 150.9409100190099 87.6408830493711
endloop
endfacet
facet normal -0.1999380632760 0.1984436869045 -0.9595024095755
outer loop
vertex 187.7237069500573 151.3534398150900 87.2119586101441
vertex 186.7752962222483 148.6307450833965 86.8464794062727
vertex 186.2458346874083 149.2871239914316 87.0925587928543
endloop
endfacet
facet normal 0.8707174708353 -0.1321135644881 -0.4737057019505
outer loop
vertex 188.2029922105153 148.3187664236154 87.2751067966777
vertex 188.3870633783118 150.0135624048483 87.1407796052984
vertex 189.1457702785333 148.1725770962427 89.0487965044715
endloop
endfacet
facet normal 0.9157712161598 -0.3238539055066 -0.2376588469661
outer loop
vertex 190.2321884754693 152.1324440529356 87.8390461862498
vertex 191.1494483920860 152.6411869924394 90.6802694360368
vertex 189.1457702785333 148.1725770962427 89.0487965044715
endloop
endfacet
facet normal 0.0107720663581 -0.0505492279772 -0.9986634759203
outer loop
vertex 190.3905225249520 157.5756338355656 87.6381745974433
vertex 190.6202091764223 160.5694752050556 87.4891132032380
vertex 191.4833376854166 159.0187699946043 87.5769151814791
endloop
endfacet
facet normal 0.0952493824525 0.0997724722561 -0.9904408154566
outer loop
vertex 187.7237069500573 151.3534398150900 87.2119586101441
vertex 188.3870633783118 150.0135624048483 87.1407796052984
vertex 186.7752962222483 148.6307450833965 86.8464794062727
endloop
endfacet
facet normal -0.1497514606766 0.2388983169241 -0.9594280036543
outer loop
vertex 186.7752962222483 148.6307450833965 86.8464794062727
vertex 185.1498794074369 147.2075606611835 86.7458071092946
vertex 186.2458346874083 149.2871239914316 87.0925587928543
endloop
endfacet
facet normal 0.3924224115030 -0.0388824740822 -0.9189628959645
outer loop
vertex 188.9683141682269 151.8864698108928 87.3097446023342
vertex 190.2321884754693 152.1324440529356 87.8390461862498
vertex 188.3870633783118 150.0135624048483 87.1407796052984
endloop
endfacet
facet normal -0.4376069029242 0.3605821783643 -0.8236993936863
outer loop
vertex 186.5764314165034 150.9409100190099 87.6408830493711
vertex 187.7237069500573 151.3534398150900 87.2119586101441
vertex 186.2458346874083 149.2871239914316 87.0925587928543
endloop
endfacet
facet normal 0.2894227634596 0.0094395672969 -0.9571548247596
outer loop
vertex 186.7752962222483 148.6307450833965 86.8464794062727
vertex 188.2029922105153 148.3187664236154 87.2751067966777
vertex 186.2499330919336 145.8598337643822 86.6602940073643
endloop
endfacet
endsolid WRAP
