solid WRAP
facet normal 0.9750890239344 -0.2050079203952 -0.0846944388844
outer loop
vertex 182.0227000000000 154.0835800000000 72.1727770000000
vertex 181.9729000000000 153.1762800000000 73.7956020000000
vertex 181.6633000000000 152.3351600000000 72.2671510000000
endloop
endfacet
facet normal 0.9704211463493 -0.2221804389253 -0.0944386111557
outer loop
vertex 181.9729000000000 153.1762800000000 73.7956020000000
vertex 182.0227000000000 154.0835800000000 72.1727770000000
vertex 182.4348000000000 155.1420200000000 73.9172530000000
endloop
endfacet
facet normal 0.9746831932514 -0.2099319360799 -0.0769496914027
outer loop
vertex 181.3926000000000 151.6823300000000 70.7708850000000
vertex 181.5739000000000 152.9321600000000 69.6575710000000
vertex 181.7246000000000 153.1328400000000 71.0189230000000
endloop
endfacet
facet normal 0.9938402912115 -0.1084711000735 -0.0227045372865
outer loop
vertex 185.7194000000000 162.3819900000000 55.4244500000000
vertex 185.6712000000000 161.5206800000000 57.4295180000000
vertex 185.5665000000000 160.8116000000000 56.2341450000000
endloop
endfacet
facet normal 0.9924152467916 -0.1197919668408 -0.0276018589216
outer loop
vertex 185.6712000000000 161.5206800000000 57.4295180000000
vertex 185.7194000000000 162.3819900000000 55.4244500000000
vertex 185.8925000000000 163.3250100000000 57.5554970000000
endloop
endfacet
facet normal 0.9762835144888 -0.2067804203595 0.0641276624664
outer loop
vertex 185.4179000000000 160.4817600000000 58.9812960000000
vertex 185.0688000000000 158.7122600000000 58.5902420000000
vertex 185.4096000000000 159.9232300000000 57.3066690000000
endloop
endfacet
facet normal 0.9638474137992 -0.2608817003987 -0.0542116344499
outer loop
vertex 181.4823000000000 151.3794800000000 73.7197640000000
vertex 181.9729000000000 153.1762800000000 73.7956020000000
vertex 181.7821000000000 152.1595300000000 75.2961910000000
endloop
endfacet
facet normal 0.9495067662333 -0.3132962872849 0.0168028941149
outer loop
vertex 183.6350000000000 153.9354400000000 58.5229050000000
vertex 184.1418000000000 155.4050900000000 57.2865620000000
vertex 184.1761000000001 155.6129600000000 59.2241340000000
endloop
endfacet
facet normal 0.9816858374857 -0.1864474127577 -0.0391187775374
outer loop
vertex 184.8093000000000 157.9152600000000 51.6423300000000
vertex 185.0375000000000 159.3582100000000 50.4916400000000
vertex 185.1422000000000 159.5657400000000 52.1299600000000
endloop
endfacet
facet normal 0.9755610209727 -0.2194076633119 -0.0118731478007
outer loop
vertex 185.0634000000000 158.3514900000000 56.6057810000000
vertex 185.2001000000000 159.0493800000000 54.9412500000000
vertex 185.3663000000000 159.7299600000000 56.0204730000000
endloop
endfacet
facet normal 0.9829629171531 -0.1747445167656 -0.0569934852619
outer loop
vertex 185.2001000000000 159.0493800000000 54.9412500000000
vertex 185.2926000000000 159.9887800000000 53.6563500000000
vertex 185.4711000000000 160.5433800000000 55.0345000000000
endloop
endfacet
facet normal 0.9906310001823 -0.1281980024525 -0.0470690306351
outer loop
vertex 185.1422000000000 159.5657400000000 52.1299600000000
vertex 185.0375000000000 159.3582100000000 50.4916400000000
vertex 185.2399000000000 160.6935300000000 51.1145200000000
endloop
endfacet
facet normal 0.9954056348600 -0.0596899318429 -0.0748647722600
outer loop
vertex 185.4080000000000 162.4530300000000 51.0626300000000
vertex 185.5961000000000 164.2824300000000 52.1050300000000
vertex 185.5788000000000 162.6432400000000 53.1819400000000
endloop
endfacet
facet normal 0.9918953559623 -0.1057380727887 -0.0704490083910
outer loop
vertex 185.4080000000000 162.4530300000000 51.0626300000000
vertex 185.5788000000000 162.6432400000000 53.1819400000000
vertex 185.3680000000000 161.1110000000000 52.5137200000000
endloop
endfacet
facet normal 0.9933719425254 -0.0967361801039 -0.0620829707901
outer loop
vertex 185.2399000000000 160.6935300000000 51.1145200000000
vertex 185.4080000000000 162.4530300000000 51.0626300000000
vertex 185.3680000000000 161.1110000000000 52.5137200000000
endloop
endfacet
facet normal 0.9899334967903 -0.1319204716374 -0.0512704700145
outer loop
vertex 185.1422000000000 159.5657400000000 52.1299600000000
vertex 185.2399000000000 160.6935300000000 51.1145200000000
vertex 185.3680000000000 161.1110000000000 52.5137200000000
endloop
endfacet
facet normal 0.9915540423769 -0.1008529409481 -0.0815430275880
outer loop
vertex 185.3680000000000 161.1110000000000 52.5137200000000
vertex 185.5788000000000 162.6432400000000 53.1819400000000
vertex 185.5092000000000 161.3305300000000 53.9591800000000
endloop
endfacet
facet normal 0.9960350547630 -0.0340922829717 -0.0821698601980
outer loop
vertex 185.5961000000000 164.2824300000000 52.1050300000000
vertex 185.7244000000000 165.8850300000000 52.9953200000000
vertex 185.7604000000000 164.3176400000000 54.0820100000000
endloop
endfacet
facet normal 0.9518451896340 -0.3063857548286 0.0108859638422
outer loop
vertex 181.5410000000000 147.2633800000000 54.3835300000000
vertex 182.0102000000000 148.6796300000000 53.2180900000000
vertex 182.0658000000000 148.9236800000000 55.2253400000000
endloop
endfacet
facet normal 0.9946115287704 -0.0640525441569 -0.0815179638121
outer loop
vertex 185.5788000000000 162.6432400000000 53.1819400000000
vertex 185.5961000000000 164.2824300000000 52.1050300000000
vertex 185.7604000000000 164.3176400000000 54.0820100000000
endloop
endfacet
facet normal 0.9926581815824 -0.0961102397185 -0.0734340272538
outer loop
vertex 185.5788000000000 162.6432400000000 53.1819400000000
vertex 185.7194000000000 162.3819900000000 55.4244500000000
vertex 185.5092000000000 161.3305300000000 53.9591800000000
endloop
endfacet
facet normal 0.9896854237619 -0.1292986525044 -0.0616816054732
outer loop
vertex 185.2926000000000 159.9887800000000 53.6563500000000
vertex 185.1422000000000 159.5657400000000 52.1299600000000
vertex 185.3680000000000 161.1110000000000 52.5137200000000
endloop
endfacet
facet normal 0.9825074478899 -0.1802315726285 -0.0468582444053
outer loop
vertex 185.1422000000000 159.5657400000000 52.1299600000000
vertex 185.2926000000000 159.9887800000000 53.6563500000000
vertex 184.9825000000000 158.3606400000000 53.4166200000000
endloop
endfacet
facet normal 0.9933594120862 -0.0002418862343 -0.1150522486127
outer loop
vertex 185.7244000000000 165.8850300000000 52.9953200000000
vertex 185.8061000000000 167.2390000000000 53.6978700000000
vertex 185.9306000000000 166.0980000000000 54.7752000000000
endloop
endfacet
facet normal 0.9926821574215 -0.0525715028607 -0.1087123333573
outer loop
vertex 185.7604000000000 164.3176400000000 54.0820100000000
vertex 185.7244000000000 165.8850300000000 52.9953200000000
vertex 185.9306000000000 166.0980000000000 54.7752000000000
endloop
endfacet
facet normal 0.9950496432247 -0.0700000792683 -0.0705421605907
outer loop
vertex 185.7194000000000 162.3819900000000 55.4244500000000
vertex 185.5788000000000 162.6432400000000 53.1819400000000
vertex 185.7604000000000 164.3176400000000 54.0820100000000
endloop
endfacet
facet normal 0.9869731671604 -0.1424508398421 -0.0747778411942
outer loop
vertex 185.2926000000000 159.9887800000000 53.6563500000000
vertex 185.3680000000000 161.1110000000000 52.5137200000000
vertex 185.5092000000000 161.3305300000000 53.9591800000000
endloop
endfacet
facet normal 0.9821697839169 -0.1782853543421 -0.0596393157886
outer loop
vertex 185.2926000000000 159.9887800000000 53.6563500000000
vertex 185.2001000000000 159.0493800000000 54.9412500000000
vertex 184.9825000000000 158.3606400000000 53.4166200000000
endloop
endfacet
facet normal 0.9737947107711 -0.2242886726221 -0.0376623500010
outer loop
vertex 184.9825000000000 158.3606400000000 53.4166200000000
vertex 185.2001000000000 159.0493800000000 54.9412500000000
vertex 184.8182000000000 157.3845200000000 54.9815300000000
endloop
endfacet
facet normal 0.9742426229128 -0.2225261709036 -0.0365159549098
outer loop
vertex 184.9825000000000 158.3606400000000 53.4166200000000
vertex 184.8182000000000 157.3845200000000 54.9815300000000
vertex 184.5023000000000 156.2970000000000 53.1806300000000
endloop
endfacet
facet normal 0.9742084450940 -0.2221971949009 -0.0393231749180
outer loop
vertex 184.8093000000000 157.9152600000000 51.6423300000000
vertex 184.9825000000000 158.3606400000000 53.4166200000000
vertex 184.5023000000000 156.2970000000000 53.1806300000000
endloop
endfacet
facet normal 0.9475166338852 -0.3189037534805 0.0226412130179
outer loop
vertex 183.0753000000000 151.7150300000000 52.4389500000000
vertex 183.5525000000000 153.1566000000000 52.7731700000000
vertex 183.2418000000000 152.3376100000000 54.2401600000000
endloop
endfacet
facet normal 0.9469561821304 -0.3205204240527 0.0232518147701
outer loop
vertex 182.6097000000000 150.4430800000000 53.8675200000000
vertex 183.0753000000000 151.7150300000000 52.4389500000000
vertex 183.2418000000000 152.3376100000000 54.2401600000000
endloop
endfacet
facet normal 0.9562475114198 -0.2924249650915 0.0088508019206
outer loop
vertex 184.5023000000000 156.2970000000000 53.1806300000000
vertex 184.8182000000000 157.3845200000000 54.9815300000000
vertex 184.2665000000000 155.5913500000000 55.3424100000000
endloop
endfacet
facet normal 0.9925663520632 -0.0064482587315 -0.1215337677819
outer loop
vertex 185.8061000000000 167.2390000000000 53.6978700000000
vertex 186.0061000000000 168.0502000000000 55.2882300000000
vertex 185.9306000000000 166.0980000000000 54.7752000000000
endloop
endfacet
facet normal 0.9935235481782 -0.0782100408919 -0.0824266262754
outer loop
vertex 185.7194000000000 162.3819900000000 55.4244500000000
vertex 185.7604000000000 164.3176400000000 54.0820100000000
vertex 185.9488000000000 164.6290200000000 56.0574250000000
endloop
endfacet
facet normal 0.9463273180374 -0.3204586238297 0.0420817959379
outer loop
vertex 181.5410000000000 147.2633800000000 54.3835300000000
vertex 182.0658000000000 148.9236800000000 55.2253400000000
vertex 181.4230000000000 147.1834900000000 56.4287180000000
endloop
endfacet
facet normal 0.9557496925385 -0.2909052234383 0.0437798605405
outer loop
vertex 181.5410000000000 147.2633800000000 54.3835300000000
vertex 181.4230000000000 147.1834900000000 56.4287180000000
vertex 181.1174000000000 145.9914000000000 55.1791000000000
endloop
endfacet
facet normal 0.9944469617605 -0.0619419464942 -0.0850789957028
outer loop
vertex 185.7604000000000 164.3176400000000 54.0820100000000
vertex 185.9306000000000 166.0980000000000 54.7752000000000
vertex 185.9488000000000 164.6290200000000 56.0574250000000
endloop
endfacet
facet normal 0.9719861276986 -0.2316991618903 0.0394774105138
outer loop
vertex 185.4096000000000 159.9232300000000 57.3066690000000
vertex 185.0688000000000 158.7122600000000 58.5902420000000
vertex 185.0634000000000 158.3514900000000 56.6057810000000
endloop
endfacet
facet normal 0.9451740456023 -0.3262882585877 0.0134905829233
outer loop
vertex 182.0102000000000 148.6796300000000 53.2180900000000
vertex 182.6097000000000 150.4430800000000 53.8675200000000
vertex 182.0658000000000 148.9236800000000 55.2253400000000
endloop
endfacet
facet normal 0.9478389413304 -0.3178443236654 0.0240068159347
outer loop
vertex 182.0658000000000 148.9236800000000 55.2253400000000
vertex 182.6097000000000 150.4430800000000 53.8675200000000
vertex 182.7274000000000 150.9703400000000 56.2012720000000
endloop
endfacet
facet normal 0.9871593404326 -0.1435377191293 -0.0700953620710
outer loop
vertex 185.4711000000000 160.5433800000000 55.0345000000000
vertex 185.2926000000000 159.9887800000000 53.6563500000000
vertex 185.5092000000000 161.3305300000000 53.9591800000000
endloop
endfacet
facet normal 0.9554437369444 -0.2933970887579 0.0323328600968
outer loop
vertex 183.2418000000000 152.3376100000000 54.2401600000000
vertex 183.8368000000000 154.2446100000000 53.9624000000000
vertex 183.5394000000000 153.5269000000000 56.2379470000000
endloop
endfacet
facet normal 0.9522148482369 -0.3029896962643 0.0385243657281
outer loop
vertex 182.7274000000000 150.9703400000000 56.2012720000000
vertex 183.2418000000000 152.3376100000000 54.2401600000000
vertex 183.5394000000000 153.5269000000000 56.2379470000000
endloop
endfacet
facet normal 0.9468350643240 -0.3207684172242 0.0247180799822
outer loop
vertex 182.6097000000000 150.4430800000000 53.8675200000000
vertex 183.2418000000000 152.3376100000000 54.2401600000000
vertex 182.7274000000000 150.9703400000000 56.2012720000000
endloop
endfacet
facet normal 0.9866854296956 -0.1623401256955 0.0098765588976
outer loop
vertex 185.5665000000000 160.8116000000000 56.2341450000000
vertex 185.6712000000000 161.5206800000000 57.4295180000000
vertex 185.4096000000000 159.9232300000000 57.3066690000000
endloop
endfacet
facet normal 0.9425031182818 -0.3238297902302 0.0825962407656
outer loop
vertex 180.6463000000000 144.5400800000000 54.8647100000000
vertex 181.1174000000000 145.9914000000000 55.1791000000000
vertex 180.7408000000000 145.2419400000000 56.5381110000000
endloop
endfacet
facet normal 0.9839000966972 -0.1743536496148 -0.0392607257357
outer loop
vertex 185.5665000000000 160.8116000000000 56.2341450000000
vertex 185.3663000000000 159.7299600000000 56.0204730000000
vertex 185.4711000000000 160.5433800000000 55.0345000000000
endloop
endfacet
facet normal 0.9484173956941 -0.3163606514580 0.0205032132586
outer loop
vertex 182.0658000000000 148.9236800000000 55.2253400000000
vertex 182.7274000000000 150.9703400000000 56.2012720000000
vertex 182.0429000000000 148.9893800000000 57.2983640000000
endloop
endfacet
facet normal 0.9562320494490 -0.2924851018858 0.0085283516193
outer loop
vertex 184.2665000000000 155.5913500000000 55.3424100000000
vertex 184.8182000000000 157.3845200000000 54.9815300000000
vertex 184.6088000000000 156.7425400000000 56.4431730000000
endloop
endfacet
facet normal 0.9495735478120 -0.3120066670783 0.0310147867050
outer loop
vertex 184.1418000000000 155.4050900000000 57.2865620000000
vertex 184.2665000000000 155.5913500000000 55.3424100000000
vertex 184.6088000000000 156.7425400000000 56.4431730000000
endloop
endfacet
facet normal 0.9554886868635 -0.2924235691120 0.0391129838250
outer loop
vertex 183.2418000000000 152.3376100000000 54.2401600000000
vertex 183.5525000000000 153.1566000000000 52.7731700000000
vertex 183.8368000000000 154.2446100000000 53.9624000000000
endloop
endfacet
facet normal 0.9458758585890 -0.3238164949624 0.0214880834124
outer loop
vertex 183.8368000000000 154.2446100000000 53.9624000000000
vertex 184.2665000000000 155.5913500000000 55.3424100000000
vertex 183.5394000000000 153.5269000000000 56.2379470000000
endloop
endfacet
facet normal 0.9528307843149 -0.3029055205773 0.0190195180189
outer loop
vertex 182.7274000000000 150.9703400000000 56.2012720000000
vertex 183.5394000000000 153.5269000000000 56.2379470000000
vertex 183.0646000000000 152.1525500000000 58.1363050000000
endloop
endfacet
facet normal 0.9835755596559 -0.1758816260253 -0.0405557896510
outer loop
vertex 185.3663000000000 159.7299600000000 56.0204730000000
vertex 185.2001000000000 159.0493800000000 54.9412500000000
vertex 185.4711000000000 160.5433800000000 55.0345000000000
endloop
endfacet
facet normal 0.9942117819129 -0.0103474450230 -0.1069385949372
outer loop
vertex 185.9306000000000 166.0980000000000 54.7752000000000
vertex 186.0061000000000 168.0502000000000 55.2882300000000
vertex 186.1306000000000 166.4867000000000 56.5969960000000
endloop
endfacet
facet normal 0.9891019025215 -0.0398769353063 -0.1417295186575
outer loop
vertex 186.1306000000000 166.4867000000000 56.5969960000000
vertex 186.0061000000000 168.0502000000000 55.2882300000000
vertex 186.2700000000000 168.0018000000000 57.1435530000000
endloop
endfacet
facet normal 0.9947747197102 -0.0783355315128 -0.0654736704950
outer loop
vertex 185.9488000000000 164.6290200000000 56.0574250000000
vertex 186.1306000000000 166.4867000000000 56.5969960000000
vertex 186.1188000000000 165.1929300000000 57.9656350000000
endloop
endfacet
facet normal 0.9745189395453 -0.2238782728700 -0.0138331270595
outer loop
vertex 185.2001000000000 159.0493800000000 54.9412500000000
vertex 185.0634000000000 158.3514900000000 56.6057810000000
vertex 184.8182000000000 157.3845200000000 54.9815300000000
endloop
endfacet
facet normal 0.9617076086444 -0.2735087555212 0.0176475530486
outer loop
vertex 184.8182000000000 157.3845200000000 54.9815300000000
vertex 185.0634000000000 158.3514900000000 56.6057810000000
vertex 184.6088000000000 156.7425400000000 56.4431730000000
endloop
endfacet
facet normal 0.9467944075939 -0.3204350261700 0.0300290484759
outer loop
vertex 184.2665000000000 155.5913500000000 55.3424100000000
vertex 184.1418000000000 155.4050900000000 57.2865620000000
vertex 183.5394000000000 153.5269000000000 56.2379470000000
endloop
endfacet
facet normal 0.9568456187766 -0.2904004163969 0.0106798869151
outer loop
vertex 182.7274000000000 150.9703400000000 56.2012720000000
vertex 183.0646000000000 152.1525500000000 58.1363050000000
vertex 182.5273000000000 150.3942900000000 58.4653080000000
endloop
endfacet
facet normal 0.9452526516217 -0.3263390311316 0.0005112359990
outer loop
vertex 182.0429000000000 148.9893800000000 57.2983640000000
vertex 182.7274000000000 150.9703400000000 56.2012720000000
vertex 182.5273000000000 150.3942900000000 58.4653080000000
endloop
endfacet
facet normal 0.9379569253086 -0.3437806977289 0.0452950122495
outer loop
vertex 181.4230000000000 147.1834900000000 56.4287180000000
vertex 182.0429000000000 148.9893800000000 57.2983640000000
vertex 181.5122000000000 147.6629900000000 58.2209040000000
endloop
endfacet
facet normal 0.9373542403254 -0.3369753327195 0.0884005276152
outer loop
vertex 180.0297000000000 143.2147500000000 56.3507770000000
vertex 180.6463000000000 144.5400800000000 54.8647100000000
vertex 180.7408000000000 145.2419400000000 56.5381110000000
endloop
endfacet
facet normal 0.9910838285490 -0.1229584740076 -0.0513230791986
outer loop
vertex 185.7194000000000 162.3819900000000 55.4244500000000
vertex 185.5665000000000 160.8116000000000 56.2341450000000
vertex 185.4711000000000 160.5433800000000 55.0345000000000
endloop
endfacet
facet normal 0.9950941292380 -0.0900447989001 -0.0409830226702
outer loop
vertex 185.8925000000000 163.3250100000000 57.5554970000000
vertex 185.7194000000000 162.3819900000000 55.4244500000000
vertex 185.9488000000000 164.6290200000000 56.0574250000000
endloop
endfacet
facet normal 0.9801646828342 -0.1659131815842 0.1083974663039
outer loop
vertex 185.9280000000000 164.0163000000000 59.3886070000000
vertex 185.6014000000000 163.0053900000000 60.7945300000000
vertex 185.6596000000000 162.2695800000000 59.1420360000000
endloop
endfacet
facet normal 0.9337218121602 -0.3556863917529 0.0406296470329
outer loop
vertex 182.0429000000000 148.9893800000000 57.2983640000000
vertex 182.5273000000000 150.3942900000000 58.4653080000000
vertex 181.8890000000000 148.8130800000000 59.2917920000000
endloop
endfacet
facet normal 0.9513717696651 -0.3076695392995 0.0152056065825
outer loop
vertex 183.5394000000000 153.5269000000000 56.2379470000000
vertex 183.6350000000000 153.9354400000000 58.5229050000000
vertex 183.0646000000000 152.1525500000000 58.1363050000000
endloop
endfacet
facet normal 0.9494020972429 -0.3136370078010 0.0163549713695
outer loop
vertex 184.1418000000000 155.4050900000000 57.2865620000000
vertex 183.6350000000000 153.9354400000000 58.5229050000000
vertex 183.5394000000000 153.5269000000000 56.2379470000000
endloop
endfacet
facet normal 0.9576626316717 -0.2848962634218 0.0414294941783
outer loop
vertex 182.5273000000000 150.3942900000000 58.4653080000000
vertex 183.0646000000000 152.1525500000000 58.1363050000000
vertex 182.7735000000000 151.3812300000000 59.5611210000000
endloop
endfacet
facet normal 0.9373126557577 -0.3459777849073 0.0417655085822
outer loop
vertex 181.5122000000000 147.6629900000000 58.2209040000000
vertex 182.0429000000000 148.9893800000000 57.2983640000000
vertex 181.8890000000000 148.8130800000000 59.2917920000000
endloop
endfacet
facet normal 0.9925590930227 -0.1078304838865 -0.0565600000238
outer loop
vertex 185.8925000000000 163.3250100000000 57.5554970000000
vertex 185.9488000000000 164.6290200000000 56.0574250000000
vertex 186.1188000000000 165.1929300000000 57.9656350000000
endloop
endfacet
facet normal 0.9878802919133 -0.1396462939390 0.0677601759030
outer loop
vertex 185.4179000000000 160.4817600000000 58.9812960000000
vertex 185.6712000000000 161.5206800000000 57.4295180000000
vertex 185.6596000000000 162.2695800000000 59.1420360000000
endloop
endfacet
facet normal 0.9417730952357 -0.3263454712716 0.0810066075746
outer loop
vertex 181.1174000000000 145.9914000000000 55.1791000000000
vertex 181.4230000000000 147.1834900000000 56.4287180000000
vertex 180.7408000000000 145.2419400000000 56.5381110000000
endloop
endfacet
facet normal 0.9368490890867 -0.3372028068294 0.0927795847362
outer loop
vertex 180.0297000000000 143.2147500000000 56.3507770000000
vertex 180.7408000000000 145.2419400000000 56.5381110000000
vertex 180.2547000000000 144.3504100000000 58.2063220000000
endloop
endfacet
facet normal 0.9409487692601 -0.3279683202116 0.0839773455488
outer loop
vertex 182.5273000000000 150.3942900000000 58.4653080000000
vertex 182.7735000000000 151.3812300000000 59.5611210000000
vertex 182.2798000000000 150.1629100000000 60.3348540000000
endloop
endfacet
facet normal 0.9327271382561 -0.3505561387757 0.0844421643926
outer loop
vertex 180.2547000000000 144.3504100000000 58.2063220000000
vertex 180.7408000000000 145.2419400000000 56.5381110000000
vertex 180.9358000000000 146.1654100000000 58.2179150000000
endloop
endfacet
facet normal 0.9383757227565 -0.3355779375173 0.0826949260406
outer loop
vertex 181.8890000000000 148.8130800000000 59.2917920000000
vertex 182.5273000000000 150.3942900000000 58.4653080000000
vertex 182.2798000000000 150.1629100000000 60.3348540000000
endloop
endfacet
facet normal 0.9856369070245 -0.1687182816058 -0.0073504396612
outer loop
vertex 185.9280000000000 164.0163000000000 59.3886070000000
vertex 186.1188000000000 165.1929300000000 57.9656350000000
vertex 186.2314000000000 165.7693000000000 59.8347150000000
endloop
endfacet
facet normal 0.9199408587545 -0.3689054899124 0.1327311414347
outer loop
vertex 181.8890000000000 148.8130800000000 59.2917920000000
vertex 182.2798000000000 150.1629100000000 60.3348540000000
vertex 181.4757000000000 148.5925700000000 61.5434430000000
endloop
endfacet
facet normal 0.9915739236013 -0.1263780414410 0.0284560129942
outer loop
vertex 185.8925000000000 163.3250100000000 57.5554970000000
vertex 186.1188000000000 165.1929300000000 57.9656350000000
vertex 185.9280000000000 164.0163000000000 59.3886070000000
endloop
endfacet
facet normal 0.9901418198781 -0.1257480589559 0.0616976676815
outer loop
vertex 185.6712000000000 161.5206800000000 57.4295180000000
vertex 185.8925000000000 163.3250100000000 57.5554970000000
vertex 185.6596000000000 162.2695800000000 59.1420360000000
endloop
endfacet
facet normal 0.9603214821809 -0.2756325195731 0.0425366314554
outer loop
vertex 184.6088000000000 156.7425400000000 56.4431730000000
vertex 185.0634000000000 158.3514900000000 56.6057810000000
vertex 184.6196000000000 157.0223700000000 58.0126150000000
endloop
endfacet
facet normal 0.9519652261205 -0.3025171402897 0.0473876364499
outer loop
vertex 184.1418000000000 155.4050900000000 57.2865620000000
vertex 184.6088000000000 156.7425400000000 56.4431730000000
vertex 184.6196000000000 157.0223700000000 58.0126150000000
endloop
endfacet
facet normal 0.9423454650687 -0.3271411913384 0.0704532851909
outer loop
vertex 180.7408000000000 145.2419400000000 56.5381110000000
vertex 181.4230000000000 147.1834900000000 56.4287180000000
vertex 180.9358000000000 146.1654100000000 58.2179150000000
endloop
endfacet
facet normal 0.9492946533807 -0.3120340462220 0.0383981127274
outer loop
vertex 183.0646000000000 152.1525500000000 58.1363050000000
vertex 183.6350000000000 153.9354400000000 58.5229050000000
vertex 183.1705000000000 152.6891600000000 59.8788460000000
endloop
endfacet
facet normal 0.9278579194001 -0.3471272323228 0.1363171522090
outer loop
vertex 181.8890000000000 148.8130800000000 59.2917920000000
vertex 181.4757000000000 148.5925700000000 61.5434430000000
vertex 181.1844000000000 147.1684000000000 59.8996060000000
endloop
endfacet
facet normal 0.9867324310885 -0.1572968305671 0.0402096571941
outer loop
vertex 185.8925000000000 163.3250100000000 57.5554970000000
vertex 185.9280000000000 164.0163000000000 59.3886070000000
vertex 185.6596000000000 162.2695800000000 59.1420360000000
endloop
endfacet
facet normal 0.9849876061533 -0.1651634133509 0.0502042091330
outer loop
vertex 185.6712000000000 161.5206800000000 57.4295180000000
vertex 185.4179000000000 160.4817600000000 58.9812960000000
vertex 185.4096000000000 159.9232300000000 57.3066690000000
endloop
endfacet
facet normal 0.9613007518019 -0.2715067558725 0.0467434070291
outer loop
vertex 185.0634000000000 158.3514900000000 56.6057810000000
vertex 185.0688000000000 158.7122600000000 58.5902420000000
vertex 184.6196000000000 157.0223700000000 58.0126150000000
endloop
endfacet
facet normal 0.9571939349933 -0.2891051088314 0.0140714910220
outer loop
vertex 184.1761000000001 155.6129600000000 59.2241340000000
vertex 184.1418000000000 155.4050900000000 57.2865620000000
vertex 184.6196000000000 157.0223700000000 58.0126150000000
endloop
endfacet
facet normal 0.9451588978243 -0.2977369304360 0.1342660721037
outer loop
vertex 182.2798000000000 150.1629100000000 60.3348540000000
vertex 182.7735000000000 151.3812300000000 59.5611210000000
vertex 182.6202000000000 151.5512500000000 61.0172900000000
endloop
endfacet
facet normal 0.9305005884336 -0.3582901165581 0.0761370297647
outer loop
vertex 180.9358000000000 146.1654100000000 58.2179150000000
vertex 181.5122000000000 147.6629900000000 58.2209040000000
vertex 181.1844000000000 147.1684000000000 59.8996060000000
endloop
endfacet
facet normal 0.9320777322057 -0.3588442104454 0.0496178773832
outer loop
vertex 181.4230000000000 147.1834900000000 56.4287180000000
vertex 181.5122000000000 147.6629900000000 58.2209040000000
vertex 180.9358000000000 146.1654100000000 58.2179150000000
endloop
endfacet
facet normal 0.9333008402745 -0.3507244271191 0.0770838359505
outer loop
vertex 180.2547000000000 144.3504100000000 58.2063220000000
vertex 180.9358000000000 146.1654100000000 58.2179150000000
vertex 180.4878000000000 145.3724400000000 60.0341820000000
endloop
endfacet
facet normal 0.9407840641823 -0.3277763897189 0.0865331319409
outer loop
vertex 180.0297000000000 143.2147500000000 56.3507770000000
vertex 180.2547000000000 144.3504100000000 58.2063220000000
vertex 179.5642000000000 142.3715000000000 58.2175480000000
endloop
endfacet
facet normal 0.9922854065626 -0.1219770559634 -0.0221646055992
outer loop
vertex 186.1188000000000 165.1929300000000 57.9656350000000
vertex 186.3500000000000 166.9889000000000 58.4325620000000
vertex 186.2314000000000 165.7693000000000 59.8347150000000
endloop
endfacet
facet normal 0.9616236800324 -0.2720630687053 0.0355187928793
outer loop
vertex 184.1761000000001 155.6129600000000 59.2241340000000
vertex 184.6196000000000 157.0223700000000 58.0126150000000
vertex 184.6314000000000 157.3161400000000 59.9433340000000
endloop
endfacet
facet normal 0.9540407847802 -0.2977738370291 0.0337182881665
outer loop
vertex 182.7735000000000 151.3812300000000 59.5611210000000
vertex 183.0646000000000 152.1525500000000 58.1363050000000
vertex 183.1705000000000 152.6891600000000 59.8788460000000
endloop
endfacet
facet normal 0.9316050829532 -0.3557622401800 0.0744660854200
outer loop
vertex 180.9358000000000 146.1654100000000 58.2179150000000
vertex 181.1844000000000 147.1684000000000 59.8996060000000
vertex 180.4878000000000 145.3724400000000 60.0341820000000
endloop
endfacet
facet normal 0.9302079338670 -0.3578753403934 0.0814766255391
outer loop
vertex 180.2547000000000 144.3504100000000 58.2063220000000
vertex 180.4878000000000 145.3724400000000 60.0341820000000
vertex 179.8475000000000 143.6729700000000 59.8797050000000
endloop
endfacet
facet normal 0.9399660016550 -0.3274362533593 0.0961738827263
outer loop
vertex 179.5642000000000 142.3715000000000 58.2175480000000
vertex 180.2547000000000 144.3504100000000 58.2063220000000
vertex 179.8475000000000 143.6729700000000 59.8797050000000
endloop
endfacet
facet normal 0.9784042135944 -0.1454751917653 0.1468406054247
outer loop
vertex 185.4179000000000 160.4817600000000 58.9812960000000
vertex 185.6596000000000 162.2695800000000 59.1420360000000
vertex 185.2794000000000 161.2967700000000 60.7115580000000
endloop
endfacet
facet normal 0.9546270203023 -0.2876895902697 0.0769542185929
outer loop
vertex 184.1761000000001 155.6129600000000 59.2241340000000
vertex 184.6314000000000 157.3161400000000 59.9433340000000
vertex 184.0905000000000 155.8487900000000 61.1676520000000
endloop
endfacet
facet normal 0.9502924689336 -0.3085166115015 0.0419728950135
outer loop
vertex 183.1705000000000 152.6891600000000 59.8788460000000
vertex 183.6350000000000 153.9354400000000 58.5229050000000
vertex 183.6451000000000 154.2291300000000 60.4529670000000
endloop
endfacet
facet normal 0.9383567189279 -0.3178345497225 0.1358965306606
outer loop
vertex 182.7735000000000 151.3812300000000 59.5611210000000
vertex 183.1705000000000 152.6891600000000 59.8788460000000
vertex 182.6202000000000 151.5512500000000 61.0172900000000
endloop
endfacet
facet normal 0.9424726763497 -0.3336238873027 0.0209846647623
outer loop
vertex 181.4230000000000 147.1834900000000 56.4287180000000
vertex 182.0658000000000 148.9236800000000 55.2253400000000
vertex 182.0429000000000 148.9893800000000 57.2983640000000
endloop
endfacet
facet normal 0.9746910169549 -0.1894499873410 0.1186849769936
outer loop
vertex 185.6596000000000 162.2695800000000 59.1420360000000
vertex 185.6014000000000 163.0053900000000 60.7945300000000
vertex 185.2794000000000 161.2967700000000 60.7115580000000
endloop
endfacet
facet normal 0.9628280766333 -0.2678546278973 0.0348710934803
outer loop
vertex 184.6196000000000 157.0223700000000 58.0126150000000
vertex 185.0688000000000 158.7122600000000 58.5902420000000
vertex 184.6314000000000 157.3161400000000 59.9433340000000
endloop
endfacet
facet normal 0.9452282033233 -0.3233951068978 0.0442633988396
outer loop
vertex 183.6350000000000 153.9354400000000 58.5229050000000
vertex 184.1761000000001 155.6129600000000 59.2241340000000
vertex 183.6451000000000 154.2291300000000 60.4529670000000
endloop
endfacet
facet normal 0.9519643983055 -0.2961438313101 0.0778627994353
outer loop
vertex 184.1761000000001 155.6129600000000 59.2241340000000
vertex 184.0905000000000 155.8487900000000 61.1676520000000
vertex 183.6451000000000 154.2291300000000 60.4529670000000
endloop
endfacet
facet normal 0.9789264780616 -0.1430487748416 0.1457394886989
outer loop
vertex 185.4179000000000 160.4817600000000 58.9812960000000
vertex 185.2794000000000 161.2967700000000 60.7115580000000
vertex 184.9770000000000 159.2534400000000 60.7371620000000
endloop
endfacet
facet normal 0.9724217200766 -0.2128953322850 0.0952448204074
outer loop
vertex 185.0688000000000 158.7122600000000 58.5902420000000
vertex 185.4179000000000 160.4817600000000 58.9812960000000
vertex 184.9770000000000 159.2534400000000 60.7371620000000
endloop
endfacet
facet normal 0.9275928950806 -0.3419611051137 0.1504460819873
outer loop
vertex 183.1705000000000 152.6891600000000 59.8788460000000
vertex 183.6451000000000 154.2291300000000 60.4529670000000
vertex 182.9924000000000 152.9635000000000 61.6005120000000
endloop
endfacet
facet normal 0.9218912387954 -0.3276674029162 0.2067622230931
outer loop
vertex 182.2798000000000 150.1629100000000 60.3348540000000
vertex 182.6202000000000 151.5512500000000 61.0172900000000
vertex 181.9574000000000 150.3750200000000 62.1084820000000
endloop
endfacet
facet normal 0.9328458066078 -0.3431670032038 0.1097046444155
outer loop
vertex 179.3978000000000 142.3864300000000 59.6791910000000
vertex 179.5642000000000 142.3715000000000 58.2175480000000
vertex 179.8475000000000 143.6729700000000 59.8797050000000
endloop
endfacet
facet normal 0.9684800292617 -0.1903198193104 0.1607009623459
outer loop
vertex 185.2794000000000 161.2967700000000 60.7115580000000
vertex 185.6014000000000 163.0053900000000 60.7945300000000
vertex 185.2012000000000 162.2456100000000 62.3065590000000
endloop
endfacet
facet normal 0.9725231058699 -0.2124770176446 0.0951437098391
outer loop
vertex 184.6314000000000 157.3161400000000 59.9433340000000
vertex 185.0688000000000 158.7122600000000 58.5902420000000
vertex 184.9770000000000 159.2534400000000 60.7371620000000
endloop
endfacet
facet normal 0.9753981531112 -0.1651268728718 0.1460532737152
outer loop
vertex 185.2794000000000 161.2967700000000 60.7115580000000
vertex 185.2012000000000 162.2456100000000 62.3065590000000
vertex 184.8985000000000 160.5116000000000 62.3676420000000
endloop
endfacet
facet normal 0.9772210200440 -0.1426536818412 0.1571273529383
outer loop
vertex 184.9770000000000 159.2534400000000 60.7371620000000
vertex 185.2794000000000 161.2967700000000 60.7115580000000
vertex 184.8985000000000 160.5116000000000 62.3676420000000
endloop
endfacet
facet normal 0.9400051959002 -0.3081766991459 0.1463466903764
outer loop
vertex 182.6202000000000 151.5512500000000 61.0172900000000
vertex 183.1705000000000 152.6891600000000 59.8788460000000
vertex 182.9924000000000 152.9635000000000 61.6005120000000
endloop
endfacet
facet normal 0.9220713040373 -0.3602581054209 0.1414164338027
outer loop
vertex 179.8475000000000 143.6729700000000 59.8797050000000
vertex 180.4878000000000 145.3724400000000 60.0341820000000
vertex 179.8563000000000 144.4898700000000 61.9033780000000
endloop
endfacet
facet normal 0.9310182619772 -0.3443017218792 0.1210839385549
outer loop
vertex 179.3978000000000 142.3864300000000 59.6791910000000
vertex 179.8475000000000 143.6729700000000 59.8797050000000
vertex 179.4644000000000 143.0860200000000 61.1563830000000
endloop
endfacet
facet normal 0.9155594374661 -0.3778810208098 0.1376838791526
outer loop
vertex 179.0424000000000 141.9606000000000 60.8737880000000
vertex 179.3978000000000 142.3864300000000 59.6791910000000
vertex 179.4644000000000 143.0860200000000 61.1563830000000
endloop
endfacet
facet normal 0.9665188640786 -0.2466838862074 -0.0706282214538
outer loop
vertex 181.7246000000000 153.1328400000000 71.0189230000000
vertex 181.5739000000000 152.9321600000000 69.6575710000000
vertex 182.0436000000000 154.6108700000000 70.2219800000000
endloop
endfacet
facet normal 0.9696551660859 -0.2384255322132 -0.0540566783266
outer loop
vertex 182.0227000000000 154.0835800000000 72.1727770000000
vertex 181.7246000000000 153.1328400000000 71.0189230000000
vertex 182.0436000000000 154.6108700000000 70.2219800000000
endloop
endfacet
facet normal 0.9659451192712 -0.2111374769068 0.1495693564926
outer loop
vertex 185.2012000000000 162.2456100000000 62.3065590000000
vertex 185.6014000000000 163.0053900000000 60.7945300000000
vertex 185.5290000000000 163.6572600000000 62.1823050000000
endloop
endfacet
facet normal 0.9633361279847 -0.2290803021955 0.1396628786234
outer loop
vertex 184.6314000000000 157.3161400000000 59.9433340000000
vertex 184.9770000000000 159.2534400000000 60.7371620000000
vertex 184.4002000000000 157.5564400000000 61.9322040000000
endloop
endfacet
facet normal 0.9057936198959 -0.3420174600639 0.2501239196224
outer loop
vertex 182.6202000000000 151.5512500000000 61.0172900000000
vertex 182.9924000000000 152.9635000000000 61.6005120000000
vertex 182.2765000000000 151.8061300000000 62.6104790000000
endloop
endfacet
facet normal 0.9262213912373 -0.3156452826963 0.2061115958068
outer loop
vertex 181.4757000000000 148.5925700000000 61.5434430000000
vertex 182.2798000000000 150.1629100000000 60.3348540000000
vertex 181.9574000000000 150.3750200000000 62.1084820000000
endloop
endfacet
facet normal 0.9279241897338 -0.3399257590351 0.1529940405743
outer loop
vertex 179.8563000000000 144.4898700000000 61.9033780000000
vertex 180.4878000000000 145.3724400000000 60.0341820000000
vertex 180.5584000000000 146.4850500000000 62.0780090000000
endloop
endfacet
facet normal 0.9219073147331 -0.3374736875351 0.1902588060067
outer loop
vertex 183.6451000000000 154.2291300000000 60.4529670000000
vertex 184.0905000000000 155.8487900000000 61.1676520000000
vertex 183.3503000000000 154.4656200000000 62.3009100000000
endloop
endfacet
facet normal 0.9319444115465 -0.3098594800281 0.1883260906617
outer loop
vertex 182.9924000000000 152.9635000000000 61.6005120000000
vertex 183.6451000000000 154.2291300000000 60.4529670000000
vertex 183.3503000000000 154.4656200000000 62.3009100000000
endloop
endfacet
facet normal 0.9626013986040 -0.1940344821627 0.1890745015528
outer loop
vertex 184.4002000000000 157.5564400000000 61.9322040000000
vertex 184.9770000000000 159.2534400000000 60.7371620000000
vertex 184.5620000000000 159.0036500000000 62.5936350000000
endloop
endfacet
facet normal 0.9198569921405 -0.3621346333254 0.1507369276470
outer loop
vertex 181.1844000000000 147.1684000000000 59.8996060000000
vertex 181.4757000000000 148.5925700000000 61.5434430000000
vertex 180.5584000000000 146.4850500000000 62.0780090000000
endloop
endfacet
facet normal 0.9246844604834 -0.3469007235193 0.1569029526886
outer loop
vertex 180.4878000000000 145.3724400000000 60.0341820000000
vertex 181.1844000000000 147.1684000000000 59.8996060000000
vertex 180.5584000000000 146.4850500000000 62.0780090000000
endloop
endfacet
facet normal 0.9225869606697 -0.3471242238538 0.1683391612670
outer loop
vertex 179.4644000000000 143.0860200000000 61.1563830000000
vertex 179.8563000000000 144.4898700000000 61.9033780000000
vertex 179.4091000000000 143.4270200000000 62.1626160000000
endloop
endfacet
facet normal 0.9352126009977 -0.3297368643068 0.1290387199727
outer loop
vertex 179.8475000000000 143.6729700000000 59.8797050000000
vertex 179.8563000000000 144.4898700000000 61.9033780000000
vertex 179.4644000000000 143.0860200000000 61.1563830000000
endloop
endfacet
facet normal 0.9641283131651 -0.2173362007508 0.1523862578996
outer loop
vertex 185.6014000000000 163.0053900000000 60.7945300000000
vertex 185.9088000000000 164.5875300000000 61.1061280000000
vertex 185.5290000000000 163.6572600000000 62.1823050000000
endloop
endfacet
facet normal 0.9638275956572 -0.1865505879045 0.1903555725535
outer loop
vertex 184.9770000000000 159.2534400000000 60.7371620000000
vertex 184.8985000000000 160.5116000000000 62.3676420000000
vertex 184.5620000000000 159.0036500000000 62.5936350000000
endloop
endfacet
facet normal 0.9240848527217 -0.2923825759613 0.2461292632836
outer loop
vertex 181.9574000000000 150.3750200000000 62.1084820000000
vertex 182.6202000000000 151.5512500000000 61.0172900000000
vertex 182.2765000000000 151.8061300000000 62.6104790000000
endloop
endfacet
facet normal 0.9612622985260 -0.2371960555837 0.1404023669601
outer loop
vertex 184.0905000000000 155.8487900000000 61.1676520000000
vertex 184.6314000000000 157.3161400000000 59.9433340000000
vertex 184.4002000000000 157.5564400000000 61.9322040000000
endloop
endfacet
facet normal 0.9271987129062 -0.3400302763475 0.1571049265685
outer loop
vertex 179.8563000000000 144.4898700000000 61.9033780000000
vertex 180.5584000000000 146.4850500000000 62.0780090000000
vertex 179.9682000000000 145.4313900000000 63.2807490000000
endloop
endfacet
facet normal 0.9060238100447 -0.3291763209055 0.2660146713758
outer loop
vertex 181.4757000000000 148.5925700000000 61.5434430000000
vertex 181.9574000000000 150.3750200000000 62.1084820000000
vertex 181.2167000000000 149.4110600000000 63.4384050000000
endloop
endfacet
facet normal 0.9155554864841 -0.3468564717390 0.2035896342689
outer loop
vertex 180.5584000000000 146.4850500000000 62.0780090000000
vertex 181.4757000000000 148.5925700000000 61.5434430000000
vertex 180.7479000000000 147.8842200000000 63.6095870000000
endloop
endfacet
facet normal 0.9304168294605 -0.2764654010151 0.2406063288823
outer loop
vertex 184.0905000000000 155.8487900000000 61.1676520000000
vertex 184.4002000000000 157.5564400000000 61.9322040000000
vertex 183.6663000000000 156.0968600000000 63.0930610000000
endloop
endfacet
facet normal 0.9058573893524 -0.2954558188030 0.3035263568308
outer loop
vertex 182.2765000000000 151.8061300000000 62.6104790000000
vertex 182.9924000000000 152.9635000000000 61.6005120000000
vertex 182.4918000000000 153.1621000000000 63.2878440000000
endloop
endfacet
facet normal 0.9606331879592 -0.1596858998238 0.2273417946371
outer loop
vertex 185.2012000000000 162.2456100000000 62.3065590000000
vertex 184.7021000000000 161.5194700000000 63.9054630000000
vertex 184.8985000000000 160.5116000000000 62.3676420000000
endloop
endfacet
facet normal 0.9476444172334 -0.2853178312715 0.1434008146594
outer loop
vertex 180.5584000000000 146.4850500000000 62.0780090000000
vertex 180.7479000000000 147.8842200000000 63.6095870000000
vertex 180.2039000000000 146.4272700000000 64.3057110000000
endloop
endfacet
facet normal 0.8849824507504 -0.3526352626190 0.3040632062936
outer loop
vertex 182.9924000000000 152.9635000000000 61.6005120000000
vertex 183.3503000000000 154.4656200000000 62.3009100000000
vertex 182.4918000000000 153.1621000000000 63.2878440000000
endloop
endfacet
facet normal 0.9107138807191 -0.2766559228615 0.3066948447745
outer loop
vertex 181.2167000000000 149.4110600000000 63.4384050000000
vertex 181.9574000000000 150.3750200000000 62.1084820000000
vertex 181.5683000000000 150.8110300000000 63.6571990000000
endloop
endfacet
facet normal 0.9351943522180 -0.2602099524770 0.2402130392205
outer loop
vertex 181.4757000000000 148.5925700000000 61.5434430000000
vertex 181.2167000000000 149.4110600000000 63.4384050000000
vertex 180.7479000000000 147.8842200000000 63.6095870000000
endloop
endfacet
facet normal 0.9414497868490 -0.2683438787431 0.2041172740927
outer loop
vertex 181.2167000000000 149.4110600000000 63.4384050000000
vertex 181.5683000000000 150.8110300000000 63.6571990000000
vertex 181.0894000000000 149.9635800000000 64.7519240000000
endloop
endfacet
facet normal 0.9239651363107 -0.2963859773620 0.2417514825303
outer loop
vertex 183.3503000000000 154.4656200000000 62.3009100000000
vertex 184.0905000000000 155.8487900000000 61.1676520000000
vertex 183.6663000000000 156.0968600000000 63.0930610000000
endloop
endfacet
facet normal 0.8978353102491 -0.2976870108044 0.3244598577146
outer loop
vertex 181.5683000000000 150.8110300000000 63.6571990000000
vertex 182.2765000000000 151.8061300000000 62.6104790000000
vertex 181.8541000000000 152.0144100000000 63.9704250000000
endloop
endfacet
facet normal 0.9227907528398 -0.3599278468114 0.1375106234554
outer loop
vertex 179.9682000000000 145.4313900000000 63.2807490000000
vertex 180.5584000000000 146.4850500000000 62.0780090000000
vertex 180.2039000000000 146.4272700000000 64.3057110000000
endloop
endfacet
facet normal 0.9601261292708 -0.2120125200835 0.1822320148035
outer loop
vertex 181.2167000000000 149.4110600000000 63.4384050000000
vertex 181.0894000000000 149.9635800000000 64.7519240000000
vertex 180.7583000000000 148.7378100000000 65.0703048000000
endloop
endfacet
facet normal 0.9217994762982 -0.3444817211487 0.1778147049340
outer loop
vertex 179.4091000000000 143.4270200000000 62.1626160000000
vertex 179.8563000000000 144.4898700000000 61.9033780000000
vertex 179.3274000000000 143.7039500000000 63.1226510000000
endloop
endfacet
facet normal 0.9167704627407 -0.3648668781526 0.1624933225502
outer loop
vertex 179.3274000000000 143.7039500000000 63.1226510000000
vertex 179.8563000000000 144.4898700000000 61.9033780000000
vertex 179.6844000000000 144.7712900000000 63.5051280000000
endloop
endfacet
facet normal 0.9254403896001 -0.3435987825631 0.1596870749875
outer loop
vertex 179.8563000000000 144.4898700000000 61.9033780000000
vertex 179.9682000000000 145.4313900000000 63.2807490000000
vertex 179.6844000000000 144.7712900000000 63.5051280000000
endloop
endfacet
facet normal 0.9565155240620 -0.1789240031246 0.2303567957197
outer loop
vertex 184.5620000000000 159.0036500000000 62.5936350000000
vertex 184.8985000000000 160.5116000000000 62.3676420000000
vertex 184.3889000000000 159.7927500000000 63.9253160000000
endloop
endfacet
facet normal 0.8850792901651 -0.3550693100767 0.3009326090049
outer loop
vertex 182.4918000000000 153.1621000000000 63.2878440000000
vertex 183.3503000000000 154.4656200000000 62.3009100000000
vertex 182.7938000000000 154.6256400000000 64.1264510000000
endloop
endfacet
facet normal 0.9455458630543 -0.2109285444749 0.2478954819809
outer loop
vertex 184.5620000000000 159.0036500000000 62.5936350000000
vertex 184.3889000000000 159.7927500000000 63.9253160000000
vertex 183.9573000000000 157.9338400000000 63.9898610000000
endloop
endfacet
facet normal 0.8978838625526 -0.3204965495489 0.3018054523943
outer loop
vertex 183.3503000000000 154.4656200000000 62.3009100000000
vertex 183.6663000000000 156.0968600000000 63.0930610000000
vertex 182.7938000000000 154.6256400000000 64.1264510000000
endloop
endfacet
facet normal 0.8996449502075 -0.3602482349855 0.2466985463191
outer loop
vertex 182.7938000000000 154.6256400000000 64.1264510000000
vertex 183.6663000000000 156.0968600000000 63.0930610000000
vertex 183.1825000000000 156.2043400000000 65.0143034000000
endloop
endfacet
facet normal 0.8954706808946 -0.3044113687050 0.3247552590204
outer loop
vertex 182.2765000000000 151.8061300000000 62.6104790000000
vertex 182.4918000000000 153.1621000000000 63.2878440000000
vertex 181.8541000000000 152.0144100000000 63.9704250000000
endloop
endfacet
facet normal 0.9493212661425 -0.2742678511452 0.1535131247741
outer loop
vertex 180.7479000000000 147.8842200000000 63.6095870000000
vertex 181.2167000000000 149.4110600000000 63.4384050000000
vertex 180.7583000000000 148.7378100000000 65.0703048000000
endloop
endfacet
facet normal 0.9232815875426 -0.3583694031755 0.1382840589961
outer loop
vertex 179.3274000000000 143.7039500000000 63.1226510000000
vertex 179.6844000000000 144.7712900000000 63.5051280000000
vertex 179.2374000000000 143.8695700000000 64.1527660000000
endloop
endfacet
facet normal 0.9030172244245 -0.3639138356130 0.2283125328189
outer loop
vertex 181.8683000000000 153.0096900000000 65.2112617000000
vertex 182.7938000000000 154.6256400000000 64.1264510000000
vertex 182.3795000000000 154.7285300000000 65.9290814800000
endloop
endfacet
facet normal 0.9454002153252 -0.2168813787292 0.2432712486580
outer loop
vertex 184.4002000000000 157.5564400000000 61.9322040000000
vertex 184.5620000000000 159.0036500000000 62.5936350000000
vertex 183.9573000000000 157.9338400000000 63.9898610000000
endloop
endfacet
facet normal 0.9570416355704 -0.1708992932981 0.2342322337661
outer loop
vertex 184.8985000000000 160.5116000000000 62.3676420000000
vertex 184.7021000000000 161.5194700000000 63.9054630000000
vertex 184.3889000000000 159.7927500000000 63.9253160000000
endloop
endfacet
facet normal 0.9643542731213 -0.1726128000858 0.2005633494917
outer loop
vertex 184.3889000000000 159.7927500000000 63.9253160000000
vertex 184.7021000000000 161.5194700000000 63.9054630000000
vertex 184.2278000000000 160.6402100000000 65.4292793000000
endloop
endfacet
facet normal 0.9302884020793 -0.2690827410910 0.2493149963474
outer loop
vertex 183.6663000000000 156.0968600000000 63.0930610000000
vertex 183.9573000000000 157.9338400000000 63.9898610000000
vertex 183.1825000000000 156.2043400000000 65.0143034000000
endloop
endfacet
facet normal 0.9076014797124 -0.3520797219597 0.2286906718882
outer loop
vertex 182.7938000000000 154.6256400000000 64.1264510000000
vertex 183.1825000000000 156.2043400000000 65.0143034000000
vertex 182.3795000000000 154.7285300000000 65.9290814800000
endloop
endfacet
facet normal 0.9011457856292 -0.3431471109696 0.2649270338715
outer loop
vertex 181.8541000000000 152.0144100000000 63.9704250000000
vertex 182.4918000000000 153.1621000000000 63.2878440000000
vertex 181.8683000000000 153.0096900000000 65.2112617000000
endloop
endfacet
facet normal 0.9339412564324 -0.2797241946711 0.2225041672624
outer loop
vertex 181.5683000000000 150.8110300000000 63.6571990000000
vertex 181.8541000000000 152.0144100000000 63.9704250000000
vertex 181.3185000000000 151.1871600000000 65.1785691000000
endloop
endfacet
facet normal 0.9429587763036 -0.2522927849330 0.2172028933114
outer loop
vertex 181.0894000000000 149.9635800000000 64.7519240000000
vertex 181.5683000000000 150.8110300000000 63.6571990000000
vertex 181.3185000000000 151.1871600000000 65.1785691000000
endloop
endfacet
facet normal 0.9650720525752 -0.2291304298767 0.1270243261852
outer loop
vertex 180.7479000000000 147.8842200000000 63.6095870000000
vertex 180.7583000000000 148.7378100000000 65.0703048000000
vertex 180.4638000000000 147.5577500000000 65.1791506000000
endloop
endfacet
facet normal 0.9471779673394 -0.3017309898290 0.1086844421415
outer loop
vertex 180.2039000000000 146.4272700000000 64.3057110000000
vertex 180.7479000000000 147.8842200000000 63.6095870000000
vertex 180.4638000000000 147.5577500000000 65.1791506000000
endloop
endfacet
facet normal 0.9301802744875 -0.2692004567650 0.2495912078415
outer loop
vertex 183.6663000000000 156.0968600000000 63.0930610000000
vertex 184.4002000000000 157.5564400000000 61.9322040000000
vertex 183.9573000000000 157.9338400000000 63.9898610000000
endloop
endfacet
facet normal 0.9319255601335 -0.3426876245855 0.1186589327690
outer loop
vertex 179.9682000000000 145.4313900000000 63.2807490000000
vertex 180.2039000000000 146.4272700000000 64.3057110000000
vertex 179.6298000000000 144.9693300000000 64.6040490000000
endloop
endfacet
facet normal 0.9563219391408 -0.1986971023097 0.2144010500249
outer loop
vertex 184.3889000000000 159.7927500000000 63.9253160000000
vertex 184.2278000000000 160.6402100000000 65.4292793000000
vertex 183.9475000000000 159.1434200000000 65.2923826000000
endloop
endfacet
facet normal 0.9546759230596 -0.2144902641351 0.2063681383392
outer loop
vertex 183.9573000000000 157.9338400000000 63.9898610000000
vertex 184.3889000000000 159.7927500000000 63.9253160000000
vertex 183.9475000000000 159.1434200000000 65.2923826000000
endloop
endfacet
facet normal 0.9261490517691 -0.3604612813551 0.1109756664821
outer loop
vertex 179.6844000000000 144.7712900000000 63.5051280000000
vertex 179.9682000000000 145.4313900000000 63.2807490000000
vertex 179.6298000000000 144.9693300000000 64.6040490000000
endloop
endfacet
facet normal 0.9201631635563 -0.3747954047104 0.1132614543529
outer loop
vertex 179.2374000000000 143.8695700000000 64.1527660000000
vertex 179.6844000000000 144.7712900000000 63.5051280000000
vertex 179.6298000000000 144.9693300000000 64.6040490000000
endloop
endfacet
facet normal 0.9698493470628 -0.2189256350050 0.1070691848267
outer loop
vertex 181.0894000000000 149.9635800000000 64.7519240000000
vertex 181.3185000000000 151.1871600000000 65.1785691000000
vertex 180.8178000000000 149.6020500000000 66.4728944000000
endloop
endfacet
facet normal 0.9321086648986 -0.2858037129468 0.2224627485371
outer loop
vertex 183.1825000000000 156.2043400000000 65.0143034000000
vertex 183.9573000000000 157.9338400000000 63.9898610000000
vertex 183.4075000000000 157.7618200000000 66.0724990700000
endloop
endfacet
facet normal 0.9666634721966 -0.2342688999599 0.1033431857085
outer loop
vertex 180.7583000000000 148.7378100000000 65.0703048000000
vertex 181.0894000000000 149.9635800000000 64.7519240000000
vertex 180.8178000000000 149.6020500000000 66.4728944000000
endloop
endfacet
facet normal 0.9332119614370 -0.2854360386162 0.2182697938105
outer loop
vertex 181.8541000000000 152.0144100000000 63.9704250000000
vertex 181.8683000000000 153.0096900000000 65.2112617000000
vertex 181.3185000000000 151.1871600000000 65.1785691000000
endloop
endfacet
facet normal 0.9550552960746 -0.2843303443304 0.0838190714147
outer loop
vertex 180.2039000000000 146.4272700000000 64.3057110000000
vertex 180.4638000000000 147.5577500000000 65.1791506000000
vertex 180.1485000000000 146.6926800000000 65.8372739000000
endloop
endfacet
facet normal 0.9329724924340 -0.3517662025270 0.0763077133791
outer loop
vertex 179.6298000000000 144.9693300000000 64.6040490000000
vertex 180.2039000000000 146.4272700000000 64.3057110000000
vertex 179.8914000000000 145.8327400000000 65.3857898000000
endloop
endfacet
facet normal 0.9261543595072 -0.3702541186709 0.0717634306107
outer loop
vertex 181.5122000000000 147.6629900000000 58.2209040000000
vertex 181.8890000000000 148.8130800000000 59.2917920000000
vertex 181.1844000000000 147.1684000000000 59.8996060000000
endloop
endfacet
facet normal 0.9434835485147 -0.2392835257159 0.2293080635368
outer loop
vertex 183.9573000000000 157.9338400000000 63.9898610000000
vertex 183.9475000000000 159.1434200000000 65.2923826000000
vertex 183.4075000000000 157.7618200000000 66.0724990700000
endloop
endfacet
facet normal 0.9299908515789 -0.3374543100058 0.1457449986726
outer loop
vertex 181.8683000000000 153.0096900000000 65.2112617000000
vertex 182.3795000000000 154.7285300000000 65.9290814800000
vertex 181.7568000000000 153.5014600000000 67.0613690000000
endloop
endfacet
facet normal 0.9458194397933 -0.3177757753665 0.0666644125402
outer loop
vertex 179.8914000000000 145.8327400000000 65.3857898000000
vertex 180.1485000000000 146.6926800000000 65.8372739000000
vertex 179.8426000000000 145.8728500000000 66.2693493000000
endloop
endfacet
facet normal 0.9400052618523 -0.3288045393890 0.0909817705207
outer loop
vertex 180.2039000000000 146.4272700000000 64.3057110000000
vertex 180.1485000000000 146.6926800000000 65.8372739000000
vertex 179.8914000000000 145.8327400000000 65.3857898000000
endloop
endfacet
facet normal 0.9730316767966 -0.2125266335093 0.0896760057073
outer loop
vertex 180.7583000000000 148.7378100000000 65.0703048000000
vertex 180.8178000000000 149.6020500000000 66.4728944000000
vertex 180.4533000000000 147.8932900000000 66.3782541000000
endloop
endfacet
facet normal 0.9076307970698 -0.3587694997956 0.2179237991292
outer loop
vertex 182.3795000000000 154.7285300000000 65.9290814800000
vertex 183.1825000000000 156.2043400000000 65.0143034000000
vertex 182.7096000000000 156.1242500000000 66.8520318000000
endloop
endfacet
facet normal 0.9511642954341 -0.2888874505689 0.1087682122459
outer loop
vertex 181.3185000000000 151.1871600000000 65.1785691000000
vertex 181.8683000000000 153.0096900000000 65.2112617000000
vertex 181.2162000000000 151.5762600000000 67.1066160000000
endloop
endfacet
facet normal 0.9690901861572 -0.2267597859510 0.0971813282952
outer loop
vertex 180.8178000000000 149.6020500000000 66.4728944000000
vertex 181.3185000000000 151.1871600000000 65.1785691000000
vertex 181.2162000000000 151.5762600000000 67.1066160000000
endloop
endfacet
facet normal 0.9026352164118 -0.3385463451590 0.2657744123739
outer loop
vertex 182.4918000000000 153.1621000000000 63.2878440000000
vertex 182.7938000000000 154.6256400000000 64.1264510000000
vertex 181.8683000000000 153.0096900000000 65.2112617000000
endloop
endfacet
facet normal 0.9554753879218 -0.2818782771886 0.0872434520465
outer loop
vertex 180.1485000000000 146.6926800000000 65.8372739000000
vertex 180.4638000000000 147.5577500000000 65.1791506000000
vertex 180.4533000000000 147.8932900000000 66.3782541000000
endloop
endfacet
facet normal 0.9302353917987 -0.2884825126143 0.2268037825101
outer loop
vertex 183.1825000000000 156.2043400000000 65.0143034000000
vertex 183.4075000000000 157.7618200000000 66.0724990700000
vertex 182.7096000000000 156.1242500000000 66.8520318000000
endloop
endfacet
facet normal 0.9308556592797 -0.3324169581926 0.1516796212185
outer loop
vertex 181.7568000000000 153.5014600000000 67.0613690000000
vertex 182.3795000000000 154.7285300000000 65.9290814800000
vertex 182.1745000000000 154.8116600000000 67.3693490000000
endloop
endfacet
facet normal 0.9556088736788 -0.2653258156051 0.1281167128822
outer loop
vertex 181.8683000000000 153.0096900000000 65.2112617000000
vertex 181.7568000000000 153.5014600000000 67.0613690000000
vertex 181.2162000000000 151.5762600000000 67.1066160000000
endloop
endfacet
facet normal 0.9793689354788 -0.1882208547598 0.0735486101338
outer loop
vertex 185.9280000000000 164.0163000000000 59.3886070000000
vertex 186.2314000000000 165.7693000000000 59.8347150000000
vertex 185.9088000000000 164.5875300000000 61.1061280000000
endloop
endfacet
facet normal 0.9449355629580 -0.3221085408017 0.0578175561566
outer loop
vertex 179.8426000000000 145.8728500000000 66.2693493000000
vertex 180.1485000000000 146.6926800000000 65.8372739000000
vertex 180.0092000000001 146.5244600000000 67.1767360000000
endloop
endfacet
facet normal 0.9691513314201 -0.2350162416370 0.0742500031889
outer loop
vertex 180.4638000000000 147.5577500000000 65.1791506000000
vertex 180.7583000000000 148.7378100000000 65.0703048000000
vertex 180.4533000000000 147.8932900000000 66.3782541000000
endloop
endfacet
facet normal 0.9554991836873 -0.1988619550968 0.2178881198871
outer loop
vertex 183.9475000000000 159.1434200000000 65.2923826000000
vertex 184.2278000000000 160.6402100000000 65.4292793000000
vertex 183.6458000000000 159.6052100000000 67.0368860000000
endloop
endfacet
facet normal 0.9643409756237 -0.2093646227977 0.1619040995589
outer loop
vertex 183.4075000000000 157.7618200000000 66.0724990700000
vertex 183.6458000000000 159.6052100000000 67.0368860000000
vertex 182.9931000000000 157.5503500000000 68.2673080000000
endloop
endfacet
facet normal 0.9436962610206 -0.2407121870578 0.2269251196709
outer loop
vertex 183.4075000000000 157.7618200000000 66.0724990700000
vertex 183.9475000000000 159.1434200000000 65.2923826000000
vertex 183.6458000000000 159.6052100000000 67.0368860000000
endloop
endfacet
facet normal 0.9332307686362 -0.3289335328437 0.1445097347642
outer loop
vertex 182.7096000000000 156.1242500000000 66.8520318000000
vertex 183.4075000000000 157.7618200000000 66.0724990700000
vertex 182.9931000000000 157.5503500000000 68.2673080000000
endloop
endfacet
facet normal 0.9347568379859 -0.3213234096122 0.1515945918354
outer loop
vertex 182.3795000000000 154.7285300000000 65.9290814800000
vertex 182.7096000000000 156.1242500000000 66.8520318000000
vertex 182.1745000000000 154.8116600000000 67.3693490000000
endloop
endfacet
facet normal 0.9931208611339 -0.0538692993402 -0.1039665992964
outer loop
vertex 186.1306000000000 166.4867000000000 56.5969960000000
vertex 186.2700000000000 168.0018000000000 57.1435530000000
vertex 186.3500000000000 166.9889000000000 58.4325620000000
endloop
endfacet
facet normal 0.9571400919961 -0.2867387214069 0.0407890909387
outer loop
vertex 180.0092000000001 146.5244600000000 67.1767360000000
vertex 180.4533000000000 147.8932900000000 66.3782541000000
vertex 180.4435000000000 148.0509000000000 67.7161820000000
endloop
endfacet
facet normal 0.9476919649556 -0.3126964448447 0.0640380585288
outer loop
vertex 182.1745000000000 154.8116600000000 67.3693490000000
vertex 182.3554000000000 155.5942700000000 68.5136980000000
vertex 181.8427000000000 154.0412100000000 68.5175290000000
endloop
endfacet
facet normal 0.9466926002514 -0.3162380466777 0.0613727827524
outer loop
vertex 181.7568000000000 153.5014600000000 67.0613690000000
vertex 182.1745000000000 154.8116600000000 67.3693490000000
vertex 181.8427000000000 154.0412100000000 68.5175290000000
endloop
endfacet
facet normal 0.9706341296547 -0.2404354965071 -0.0077561826220
outer loop
vertex 180.4435000000000 148.0509000000000 67.7161820000000
vertex 180.8178000000000 149.6020500000000 66.4728944000000
vertex 180.8060000000000 149.4904500000000 68.4557150000000
endloop
endfacet
facet normal 0.9771364700827 -0.2102033764918 0.0319195762161
outer loop
vertex 180.4533000000000 147.8932900000000 66.3782541000000
vertex 180.8178000000000 149.6020500000000 66.4728944000000
vertex 180.4435000000000 148.0509000000000 67.7161820000000
endloop
endfacet
facet normal 0.9607279277364 -0.2772697086111 0.0111066445881
outer loop
vertex 179.9678000000000 146.4344600000000 68.5110600000000
vertex 180.0092000000001 146.5244600000000 67.1767360000000
vertex 180.4435000000000 148.0509000000000 67.7161820000000
endloop
endfacet
facet normal 0.9561651478139 -0.2920276144267 -0.0216352147735
outer loop
vertex 179.9678000000000 146.4344600000000 68.5110600000000
vertex 180.4435000000000 148.0509000000000 67.7161820000000
vertex 180.3290000000000 147.6102400000000 68.6038080000000
endloop
endfacet
facet normal 0.9340968962728 -0.3457941185594 0.0888223842464
outer loop
vertex 182.1745000000000 154.8116600000000 67.3693490000000
vertex 182.7096000000000 156.1242500000000 66.8520318000000
vertex 182.3554000000000 155.5942700000000 68.5136980000000
endloop
endfacet
facet normal 0.9805490096059 -0.1962052983638 -0.0052077494979
outer loop
vertex 180.8178000000000 149.6020500000000 66.4728944000000
vertex 181.2162000000000 151.5762600000000 67.1066160000000
vertex 180.8060000000000 149.4904500000000 68.4557150000000
endloop
endfacet
facet normal 0.9686459953232 -0.2474714238594 -0.0219733956736
outer loop
vertex 180.3290000000000 147.6102400000000 68.6038080000000
vertex 180.8060000000000 149.4904500000000 68.4557150000000
vertex 180.5415000000000 148.3486300000000 69.6553910000000
endloop
endfacet
facet normal 0.9495645208604 -0.3134902171608 -0.0071487388802
outer loop
vertex 182.3554000000000 155.5942700000000 68.5136980000000
vertex 182.0436000000000 154.6108700000000 70.2219800000000
vertex 181.8427000000000 154.0412100000000 68.5175290000000
endloop
endfacet
facet normal 0.9622963459773 -0.2693188248719 0.0381197204644
outer loop
vertex 181.2162000000000 151.5762600000000 67.1066160000000
vertex 181.7568000000000 153.5014600000000 67.0613690000000
vertex 181.4816000000000 152.6923300000000 68.2919660000000
endloop
endfacet
facet normal 0.9634119434016 -0.2648196955767 0.0413274260722
outer loop
vertex 181.7568000000000 153.5014600000000 67.0613690000000
vertex 181.8427000000000 154.0412100000000 68.5175290000000
vertex 181.4816000000000 152.6923300000000 68.2919660000000
endloop
endfacet
facet normal 0.9765413253685 -0.2146970460141 -0.0164990387715
outer loop
vertex 181.2162000000000 151.5762600000000 67.1066160000000
vertex 181.4816000000000 152.6923300000000 68.2919660000000
vertex 181.2027000000000 151.3601300000000 69.1200160000000
endloop
endfacet
facet normal 0.9791909160188 -0.2023743324092 -0.0151584817211
outer loop
vertex 180.8060000000000 149.4904500000000 68.4557150000000
vertex 181.2162000000000 151.5762600000000 67.1066160000000
vertex 181.2027000000000 151.3601300000000 69.1200160000000
endloop
endfacet
facet normal 0.9693470523165 -0.2456762687676 0.0030762200466
outer loop
vertex 180.4435000000000 148.0509000000000 67.7161820000000
vertex 180.8060000000000 149.4904500000000 68.4557150000000
vertex 180.3290000000000 147.6102400000000 68.6038080000000
endloop
endfacet
facet normal 0.9513053756369 -0.3075848365956 0.0202398265991
outer loop
vertex 182.3554000000000 155.5942700000000 68.5136980000000
vertex 182.9931000000000 157.5503500000000 68.2673080000000
vertex 182.5718000000000 156.3528500000000 69.8706870000000
endloop
endfacet
facet normal 0.9749111252500 -0.2209396903749 -0.0270915315321
outer loop
vertex 181.4816000000000 152.6923300000000 68.2919660000000
vertex 181.5739000000000 152.9321600000000 69.6575710000000
vertex 181.2027000000000 151.3601300000000 69.1200160000000
endloop
endfacet
facet normal 0.9597347597310 -0.2731638426309 0.0655034811535
outer loop
vertex 180.1485000000000 146.6926800000000 65.8372739000000
vertex 180.4533000000000 147.8932900000000 66.3782541000000
vertex 180.0092000000001 146.5244600000000 67.1767360000000
endloop
endfacet
facet normal 0.9755322002700 -0.2051237931973 0.0791274648946
outer loop
vertex 185.6014000000000 163.0053900000000 60.7945300000000
vertex 185.9280000000000 164.0163000000000 59.3886070000000
vertex 185.9088000000000 164.5875300000000 61.1061280000000
endloop
endfacet
facet normal 0.9559154622019 -0.2936419418464 -0.0001977677490
outer loop
vertex 179.9678000000000 146.4344600000000 68.5110600000000
vertex 180.3290000000000 147.6102400000000 68.6038080000000
vertex 180.1114000000000 146.9010300000000 69.8507100000000
endloop
endfacet
facet normal 0.9587799388237 -0.2840917982571 0.0057340275708
outer loop
vertex 180.3290000000000 147.6102400000000 68.6038080000000
vertex 180.5415000000000 148.3486300000000 69.6553910000000
vertex 180.1114000000000 146.9010300000000 69.8507100000000
endloop
endfacet
facet normal 0.9752396388776 -0.2049517798886 -0.0830807720371
outer loop
vertex 182.0227000000000 154.0835800000000 72.1727770000000
vertex 181.6633000000000 152.3351600000000 72.2671510000000
vertex 181.7246000000000 153.1328400000000 71.0189230000000
endloop
endfacet
facet normal 0.9574209414949 -0.2885664781928 0.0086329861834
outer loop
vertex 182.0436000000000 154.6108700000000 70.2219800000000
vertex 182.3554000000000 155.5942700000000 68.5136980000000
vertex 182.5718000000000 156.3528500000000 69.8706870000000
endloop
endfacet
facet normal 0.9759362727291 -0.2057918524857 -0.0720978850050
outer loop
vertex 181.5739000000000 152.9321600000000 69.6575710000000
vertex 181.3926000000000 151.6823300000000 70.7708850000000
vertex 181.2027000000000 151.3601300000000 69.1200160000000
endloop
endfacet
facet normal 0.9800145426928 -0.1961329990308 -0.0332166043079
outer loop
vertex 180.8060000000000 149.4904500000000 68.4557150000000
vertex 181.2027000000000 151.3601300000000 69.1200160000000
vertex 180.9242000000000 149.7464400000000 70.4315230000000
endloop
endfacet
facet normal 0.9649512870057 -0.2610901462160 -0.0264754462675
outer loop
vertex 182.0436000000000 154.6108700000000 70.2219800000000
vertex 181.5739000000000 152.9321600000000 69.6575710000000
vertex 181.8427000000000 154.0412100000000 68.5175290000000
endloop
endfacet
facet normal 0.9666329342155 -0.2553447495647 -0.0204897379110
outer loop
vertex 181.8427000000000 154.0412100000000 68.5175290000000
vertex 181.5739000000000 152.9321600000000 69.6575710000000
vertex 181.4816000000000 152.6923300000000 68.2919660000000
endloop
endfacet
facet normal 0.9723561929110 -0.2232997316607 -0.0682690555657
outer loop
vertex 181.2027000000000 151.3601300000000 69.1200160000000
vertex 181.3926000000000 151.6823300000000 70.7708850000000
vertex 180.9242000000000 149.7464400000000 70.4315230000000
endloop
endfacet
facet normal 0.9676949133542 -0.2508422493160 -0.0253913494409
outer loop
vertex 180.5415000000000 148.3486300000000 69.6553910000000
vertex 180.8060000000000 149.4904500000000 68.4557150000000
vertex 180.9242000000000 149.7464400000000 70.4315230000000
endloop
endfacet
facet normal 0.8978256688469 -0.3099216149694 0.3128220915062
outer loop
vertex 181.9574000000000 150.3750200000000 62.1084820000000
vertex 182.2765000000000 151.8061300000000 62.6104790000000
vertex 181.5683000000000 150.8110300000000 63.6571990000000
endloop
endfacet
facet normal 0.9566456317057 -0.2912006699281 -0.0055951024770
outer loop
vertex 182.0436000000000 154.6108700000000 70.2219800000000
vertex 182.5718000000000 156.3528500000000 69.8706870000000
vertex 182.4909000000000 156.0499600000000 71.8025800000000
endloop
endfacet
facet normal 0.9652002219672 -0.2601547513579 -0.0266089620296
outer loop
vertex 180.9242000000000 149.7464400000000 70.4315230000000
vertex 180.7329000000000 148.8771700000000 71.9912200000000
vertex 180.4417000000000 147.9087600000000 70.8964820000000
endloop
endfacet
facet normal 0.9662904717084 -0.2571042618686 -0.0134209841113
outer loop
vertex 180.5415000000000 148.3486300000000 69.6553910000000
vertex 180.9242000000000 149.7464400000000 70.4315230000000
vertex 180.4417000000000 147.9087600000000 70.8964820000000
endloop
endfacet
facet normal 0.9573576534550 -0.2878194752010 -0.0250254483691
outer loop
vertex 180.1114000000000 146.9010300000000 69.8507100000000
vertex 180.5415000000000 148.3486300000000 69.6553910000000
vertex 180.4417000000000 147.9087600000000 70.8964820000000
endloop
endfacet
facet normal 0.9689723504044 -0.2410252957107 -0.0547666958950
outer loop
vertex 182.0227000000000 154.0835800000000 72.1727770000000
vertex 182.0436000000000 154.6108700000000 70.2219800000000
vertex 182.4909000000000 156.0499600000000 71.8025800000000
endloop
endfacet
facet normal 0.9743109077332 -0.2084123448850 -0.0853378554429
outer loop
vertex 181.6633000000000 152.3351600000000 72.2671510000000
vertex 181.3926000000000 151.6823300000000 70.7708850000000
vertex 181.7246000000000 153.1328400000000 71.0189230000000
endloop
endfacet
facet normal 0.9698652697367 -0.2320637762998 -0.0742142997541
outer loop
vertex 181.3926000000000 151.6823300000000 70.7708850000000
vertex 181.6633000000000 152.3351600000000 72.2671510000000
vertex 181.2345000000000 150.5850400000000 72.1359260000000
endloop
endfacet
facet normal 0.9723899113141 -0.2235207845837 -0.0670545989000
outer loop
vertex 180.9242000000000 149.7464400000000 70.4315230000000
vertex 181.3926000000000 151.6823300000000 70.7708850000000
vertex 181.2345000000000 150.5850400000000 72.1359260000000
endloop
endfacet
facet normal 0.9491219855929 -0.2958233160536 0.1079630591601
outer loop
vertex 182.7096000000000 156.1242500000000 66.8520318000000
vertex 182.9931000000000 157.5503500000000 68.2673080000000
vertex 182.3554000000000 155.5942700000000 68.5136980000000
endloop
endfacet
facet normal 0.9662401249306 -0.2450457402077 -0.0795776738794
outer loop
vertex 182.4348000000000 155.1420200000000 73.9172530000000
vertex 182.0227000000000 154.0835800000000 72.1727770000000
vertex 182.4909000000000 156.0499600000000 71.8025800000000
endloop
endfacet
facet normal 0.9596524693849 -0.2786629337618 -0.0376046187419
outer loop
vertex 180.7329000000000 148.8771700000000 71.9912200000000
vertex 180.9242000000000 149.7464400000000 70.4315230000000
vertex 181.2345000000000 150.5850400000000 72.1359260000000
endloop
endfacet
facet normal 0.9681189306430 -0.2200807900084 -0.1196251729361
outer loop
vertex 181.9729000000000 153.1762800000000 73.7956020000000
vertex 182.4348000000000 155.1420200000000 73.9172530000000
vertex 182.3545000000000 153.9785200000000 75.4079430000000
endloop
endfacet
facet normal 0.9712985295316 -0.2354399684993 -0.0338701603594
outer loop
vertex 181.6633000000000 152.3351600000000 72.2671510000000
vertex 181.4823000000000 151.3794800000000 73.7197640000000
vertex 181.2345000000000 150.5850400000000 72.1359260000000
endloop
endfacet
facet normal 0.9588353158328 -0.2832784452047 0.0197017662715
outer loop
vertex 180.7329000000000 148.8771700000000 71.9912200000000
vertex 181.2345000000000 150.5850400000000 72.1359260000000
vertex 180.9041000000000 149.5716600000000 73.6449520000000
endloop
endfacet
facet normal 0.9834906429986 -0.1808617258756 -0.0059322211248
outer loop
vertex 185.5665000000000 160.8116000000000 56.2341450000000
vertex 185.4096000000000 159.9232300000000 57.3066690000000
vertex 185.3663000000000 159.7299600000000 56.0204730000000
endloop
endfacet
facet normal 0.9524169089946 -0.3047738865256 0.0038612890729
outer loop
vertex 181.2345000000000 150.5850400000000 72.1359260000000
vertex 181.4823000000000 151.3794800000000 73.7197640000000
vertex 180.9041000000000 149.5716600000000 73.6449520000000
endloop
endfacet
facet normal 0.9523024417102 -0.2948364619253 -0.0786862137362
outer loop
vertex 181.7821000000000 152.1595300000000 75.2961910000000
vertex 181.9729000000000 153.1762800000000 73.7956020000000
vertex 182.3545000000000 153.9785200000000 75.4079430000000
endloop
endfacet
facet normal 0.9525459060769 -0.3041466583745 -0.0122925593638
outer loop
vertex 180.9041000000000 149.5716600000000 73.6449520000000
vertex 181.4823000000000 151.3794800000000 73.7197640000000
vertex 181.2148000000000 150.4826100000000 75.1819480000000
endloop
endfacet
facet normal 0.9474873866968 -0.3190121453644 -0.0223361402337
outer loop
vertex 181.4823000000000 151.3794800000000 73.7197640000000
vertex 181.7821000000000 152.1595300000000 75.2961910000000
vertex 181.2148000000000 150.4826100000000 75.1819480000000
endloop
endfacet
facet normal 0.9570097378782 -0.2879751541119 0.0346795648836
outer loop
vertex 183.5525000000000 153.1566000000000 52.7731700000000
vertex 183.9943000000000 154.5343100000000 52.0217000000000
vertex 183.8368000000000 154.2446100000000 53.9624000000000
endloop
endfacet
facet normal 0.9768896562890 -0.2119071924648 -0.0279632118556
outer loop
vertex 184.4087000000000 156.1623300000000 50.9312700000000
vertex 184.8093000000000 157.9152600000000 51.6423300000000
vertex 184.5023000000000 156.2970000000000 53.1806300000000
endloop
endfacet
facet normal 0.9817924748251 -0.1833054862556 -0.0498260482622
outer loop
vertex 184.8093000000000 157.9152600000000 51.6423300000000
vertex 185.1422000000000 159.5657400000000 52.1299600000000
vertex 184.9825000000000 158.3606400000000 53.4166200000000
endloop
endfacet
facet normal 0.9516278642347 -0.3072329163046 0.0035132821084
outer loop
vertex 184.5023000000000 156.2970000000000 53.1806300000000
vertex 184.2665000000000 155.5913500000000 55.3424100000000
vertex 183.8368000000000 154.2446100000000 53.9624000000000
endloop
endfacet
facet normal 0.9543546501874 -0.2968312720872 0.0331420816617
outer loop
vertex 183.9943000000000 154.5343100000000 52.0217000000000
vertex 184.5023000000000 156.2970000000000 53.1806300000000
vertex 183.8368000000000 154.2446100000000 53.9624000000000
endloop
endfacet
facet normal 0.9647689122029 -0.2619590535273 -0.0244622223404
outer loop
vertex 183.9943000000000 154.5343100000000 52.0217000000000
vertex 184.4087000000000 156.1623300000000 50.9312700000000
vertex 184.5023000000000 156.2970000000000 53.1806300000000
endloop
endfacet
facet normal 0.9904916693761 -0.1041359760202 -0.0898996740535
outer loop
vertex 186.1188000000000 165.1929300000000 57.9656350000000
vertex 186.1306000000000 166.4867000000000 56.5969960000000
vertex 186.3500000000000 166.9889000000000 58.4325620000000
endloop
endfacet
facet normal 0.9766454369026 -0.2148565527878 -0.0005935498638
outer loop
vertex 185.4096000000000 159.9232300000000 57.3066690000000
vertex 185.0634000000000 158.3514900000000 56.6057810000000
vertex 185.3663000000000 159.7299600000000 56.0204730000000
endloop
endfacet
facet normal 0.9639525280286 -0.2610200100382 -0.0516147078541
outer loop
vertex 181.6633000000000 152.3351600000000 72.2671510000000
vertex 181.9729000000000 153.1762800000000 73.7956020000000
vertex 181.4823000000000 151.3794800000000 73.7197640000000
endloop
endfacet
facet normal 0.9931072028820 -0.0698514575088 -0.0941215037484
outer loop
vertex 185.9488000000000 164.6290200000000 56.0574250000000
vertex 185.9306000000000 166.0980000000000 54.7752000000000
vertex 186.1306000000000 166.4867000000000 56.5969960000000
endloop
endfacet
facet normal 0.9910016030464 -0.1222931184230 -0.0544078665798
outer loop
vertex 185.7194000000000 162.3819900000000 55.4244500000000
vertex 185.4711000000000 160.5433800000000 55.0345000000000
vertex 185.5092000000000 161.3305300000000 53.9591800000000
endloop
endfacet
endsolid WRAP
