solid WRAP
facet normal -0.3520657439160 0.5138044859884 0.7823392244666
outer loop
vertex 159.5586013793945 122.6058387756348 60.9494824409485
vertex 159.2585906982422 122.4375762939453 60.9249796867371
vertex 159.4706802368164 122.2547683715820 61.1404833793640
endloop
endfacet
facet normal -0.3014066408190 0.4122006587082 0.8597933785688
outer loop
vertex 159.2585906982422 122.4375762939453 60.9249796867371
vertex 159.5586013793945 122.6058387756348 60.9494824409485
vertex 159.2522506713868 122.7490005493164 60.7734546661377
endloop
endfacet
facet normal -0.0262577789267 0.4369323788346 0.8991110194919
outer loop
vertex 159.2585906982422 122.4375762939453 60.9249796867371
vertex 159.2522506713868 122.7490005493164 60.7734546661377
vertex 158.8757095336914 122.5317840576172 60.8680167198181
endloop
endfacet
facet normal -0.4168899605303 0.5426244394088 0.7292197738441
outer loop
vertex 159.2997817993164 121.8789138793945 61.3679590225220
vertex 159.0009078979492 121.5373153686523 61.4512839317322
vertex 159.3137435913086 121.5235939025879 61.6403403282166
endloop
endfacet
facet normal -0.2268116429694 0.4135345244787 0.8817855043477
outer loop
vertex 159.0009078979492 121.5373153686523 61.4512839317322
vertex 159.2997817993164 121.8789138793945 61.3679590225220
vertex 158.8630599975586 121.8723716735840 61.2586941719055
endloop
endfacet
facet normal -0.5179523216721 0.5922298611680 0.6172432130169
outer loop
vertex 159.8568038940430 122.4586296081543 61.2403903007507
vertex 159.9591598510742 122.2596778869629 61.5171704292297
vertex 160.1725769042969 122.4748039245605 61.4898486137390
endloop
endfacet
facet normal 0.2523705144245 0.2892615949220 0.9233833727940
outer loop
vertex 158.8757095336914 122.5317840576172 60.8680167198181
vertex 158.9287719726563 122.9700241088867 60.7162299156189
vertex 158.5432128906250 122.8802719116211 60.8497233390808
endloop
endfacet
facet normal -0.5091854819564 0.5984882708223 0.6184997450711
outer loop
vertex 159.9591598510742 122.2596778869629 61.5171704292297
vertex 159.8568038940430 122.4586296081543 61.2403903007507
vertex 159.6712799072266 122.1088447570801 61.4261236190796
endloop
endfacet
facet normal -0.5141190589098 0.6297314375545 0.5823400293825
outer loop
vertex 159.9322738647461 122.0118484497070 61.7614321708679
vertex 159.9591598510742 122.2596778869629 61.5171704292297
vertex 159.6712799072266 122.1088447570801 61.4261236190796
endloop
endfacet
facet normal -0.4578852333955 0.5106068399919 0.7277511717557
outer loop
vertex 159.5586013793945 122.6058387756348 60.9494824409485
vertex 159.4706802368164 122.2547683715820 61.1404833793640
vertex 159.8568038940430 122.4586296081543 61.2403903007507
endloop
endfacet
facet normal 0.3290862332770 -0.0329465946185 0.9437249456121
outer loop
vertex 158.6704483032227 123.2684860229492 60.7748789787292
vertex 158.4423675537109 123.5585403442383 60.8645391464233
vertex 158.3067321777344 123.2203292846680 60.9000291824341
endloop
endfacet
facet normal -0.5504860394937 0.4941779238024 0.6728694523820
outer loop
vertex 159.2997817993164 121.8789138793945 61.3679590225220
vertex 159.3137435913086 121.5235939025879 61.6403403282166
vertex 159.5861129760742 121.7953796386719 61.6635618209839
endloop
endfacet
facet normal 0.0521814845588 0.3211874860498 0.9455769093386
outer loop
vertex 158.8757095336914 122.5317840576172 60.8680167198181
vertex 159.2522506713868 122.7490005493164 60.7734546661377
vertex 158.9287719726563 122.9700241088867 60.7162299156189
endloop
endfacet
facet normal 0.3246246193035 0.1251146278470 0.9375314322415
outer loop
vertex 158.1084365844727 122.8355293273926 61.0200419425964
vertex 158.3067321777344 123.2203292846680 60.9000291824341
vertex 157.9546508789063 123.2641334533691 61.0160932540894
endloop
endfacet
facet normal -0.6031519935516 0.2848727341871 0.7450202668327
outer loop
vertex 159.8568038940430 122.4586296081543 61.2403903007507
vertex 160.1725769042969 122.4748039245605 61.4898486137390
vertex 160.1137008666992 122.7965164184570 61.3191709518433
endloop
endfacet
facet normal -0.3986789464752 -0.0348489851832 0.9164282000621
outer loop
vertex 159.2507705688477 123.0831184387207 60.7140188217163
vertex 159.5339431762695 122.9830970764160 60.8334054946899
vertex 159.4167098999023 123.3473320007324 60.7962555885315
endloop
endfacet
facet normal 0.3529651090802 0.1079697176712 0.9293859111467
outer loop
vertex 158.5432128906250 122.8802719116211 60.8497233390808
vertex 158.3067321777344 123.2203292846680 60.9000291824341
vertex 158.1084365844727 122.8355293273926 61.0200419425964
endloop
endfacet
facet normal -0.6023070767592 0.0566331490708 0.7962530199077
outer loop
vertex 159.7497711181641 123.2696228027344 60.9762845039368
vertex 159.5339431762695 122.9830970764160 60.8334054946899
vertex 159.8218536376953 122.8728752136230 61.0590281486511
endloop
endfacet
facet normal 0.0156558404815 -0.0250324548224 0.9995640404018
outer loop
vertex 158.9287719726563 122.9700241088867 60.7162299156189
vertex 159.2507705688477 123.0831184387207 60.7140188217163
vertex 159.0473403930664 123.3461990356445 60.7237935066223
endloop
endfacet
facet normal -0.4639070273572 0.0594047931777 0.8838898916246
outer loop
vertex 159.4167098999023 123.3473320007324 60.7962555885315
vertex 159.7497711181641 123.2696228027344 60.9762845039368
vertex 159.6437683105469 123.6491889953613 60.8951392173767
endloop
endfacet
facet normal -0.1887625477029 -0.1818188166196 0.9650443609015
outer loop
vertex 159.2507705688477 123.0831184387207 60.7140188217163
vertex 159.4167098999023 123.3473320007324 60.7962555885315
vertex 159.0473403930664 123.3461990356445 60.7237935066223
endloop
endfacet
facet normal -0.4876256981323 0.5679622459182 0.6630535919008
outer loop
vertex 160.1725769042969 122.4748039245605 61.4898486137390
vertex 159.9591598510742 122.2596778869629 61.5171704292297
vertex 160.1715621948242 122.2451667785645 61.6858062744141
endloop
endfacet
facet normal -0.1912739405843 -0.0988303599603 0.9765484317757
outer loop
vertex 159.0473403930664 123.3461990356445 60.7237935066223
vertex 159.4167098999023 123.3473320007324 60.7962555885315
vertex 159.2230148315430 123.7502250671387 60.7990913391113
endloop
endfacet
facet normal -0.4866081018593 -0.0677847933665 0.8709866686656
outer loop
vertex 159.4167098999023 123.3473320007324 60.7962555885315
vertex 159.5339431762695 122.9830970764160 60.8334054946899
vertex 159.7497711181641 123.2696228027344 60.9762845039368
endloop
endfacet
facet normal -0.4116945123645 0.0791153473538 0.9078812644295
outer loop
vertex 159.6437683105469 123.6491889953613 60.8951392173767
vertex 159.7497711181641 123.2696228027344 60.9762845039368
vertex 160.0289230346680 123.5944824218750 61.0745615959167
endloop
endfacet
facet normal -0.2495860252453 -0.1267481836864 0.9600217257617
outer loop
vertex 159.4167098999023 123.3473320007324 60.7962555885315
vertex 159.6437683105469 123.6491889953613 60.8951392173767
vertex 159.2230148315430 123.7502250671387 60.7990913391113
endloop
endfacet
facet normal -0.5973277604835 0.2788245447807 0.7519683635523
outer loop
vertex 159.8568038940430 122.4586296081543 61.2403903007507
vertex 160.1137008666992 122.7965164184570 61.3191709518433
vertex 159.8218536376953 122.8728752136230 61.0590281486511
endloop
endfacet
facet normal -0.6436746282457 0.0424164528290 0.7641229073141
outer loop
vertex 159.7497711181641 123.2696228027344 60.9762845039368
vertex 159.8218536376953 122.8728752136230 61.0590281486511
vertex 160.0420761108398 123.1778450012207 61.2276082038879
endloop
endfacet
facet normal -0.5511234842787 0.2122713492877 0.8069719817615
outer loop
vertex 159.5339431762695 122.9830970764160 60.8334054946899
vertex 159.5586013793945 122.6058387756348 60.9494824409485
vertex 159.8218536376953 122.8728752136230 61.0590281486511
endloop
endfacet
facet normal -0.4429018111185 0.6532719601405 0.6140632962506
outer loop
vertex 159.9591598510742 122.2596778869629 61.5171704292297
vertex 159.9322738647461 122.0118484497070 61.7614321708679
vertex 160.1715621948242 122.2451667785645 61.6858062744141
endloop
endfacet
facet normal -0.5795231016694 0.2648222182356 0.7707283356412
outer loop
vertex 160.0289230346680 123.5944824218750 61.0745615959167
vertex 159.7497711181641 123.2696228027344 60.9762845039368
vertex 160.0420761108398 123.1778450012207 61.2276082038879
endloop
endfacet
facet normal 0.0365662898956 -0.1984348594087 0.9794317296344
outer loop
vertex 158.7971801757813 123.6402854919434 60.7927155494690
vertex 159.0473403930664 123.3461990356445 60.7237935066223
vertex 159.2230148315430 123.7502250671387 60.7990913391113
endloop
endfacet
facet normal -0.3935345464450 0.2467564132061 0.8855742957516
outer loop
vertex 159.2522506713868 122.7490005493164 60.7734546661377
vertex 159.5586013793945 122.6058387756348 60.9494824409485
vertex 159.5339431762695 122.9830970764160 60.8334054946899
endloop
endfacet
facet normal -0.2502663901984 0.6027885651991 0.7576362449106
outer loop
vertex 159.4706802368164 122.2547683715820 61.1404833793640
vertex 159.2585906982422 122.4375762939453 60.9249796867371
vertex 159.0805587768555 122.1674690246582 61.0810732841492
endloop
endfacet
facet normal 0.1537826811371 -0.0995801257325 0.9830740997206
outer loop
vertex 158.7971801757813 123.6402854919434 60.7927155494690
vertex 158.6704483032227 123.2684860229492 60.7748789787292
vertex 159.0473403930664 123.3461990356445 60.7237935066223
endloop
endfacet
facet normal 0.2239890086491 -0.1227315636579 0.9668329159097
outer loop
vertex 158.6704483032227 123.2684860229492 60.7748789787292
vertex 158.7971801757813 123.6402854919434 60.7927155494690
vertex 158.4423675537109 123.5585403442383 60.8645391464233
endloop
endfacet
facet normal 0.3091847797893 0.3448074708206 0.8862914757646
outer loop
vertex 157.9932250976563 121.7425422668457 61.5093264579773
vertex 158.2762145996094 121.6668319702148 61.4400596618652
vertex 158.1241073608398 122.0225639343262 61.3547267913818
endloop
endfacet
facet normal -0.5406704964310 0.5963352431066 0.5933461823573
outer loop
vertex 159.9322738647461 122.0118484497070 61.7614321708679
vertex 159.6712799072266 122.1088447570801 61.4261236190796
vertex 159.5861129760742 121.7953796386719 61.6635618209839
endloop
endfacet
facet normal -0.4739424958248 0.6035514277066 0.6411740674455
outer loop
vertex 159.4706802368164 122.2547683715820 61.1404833793640
vertex 159.2997817993164 121.8789138793945 61.3679590225220
vertex 159.6712799072266 122.1088447570801 61.4261236190796
endloop
endfacet
facet normal -0.6558624891794 0.0575405117706 0.7526841866232
outer loop
vertex 159.8218536376953 122.8728752136230 61.0590281486511
vertex 160.1137008666992 122.7965164184570 61.3191709518433
vertex 160.0420761108398 123.1778450012207 61.2276082038879
endloop
endfacet
facet normal 0.3125082103352 -0.0256850715568 0.9495677414341
outer loop
vertex 158.3067321777344 123.2203292846680 60.9000291824341
vertex 158.4423675537109 123.5585403442383 60.8645391464233
vertex 158.1592025756836 123.5016326904297 60.9561910629272
endloop
endfacet
facet normal -0.2481317804469 0.5816649399246 0.7746589683176
outer loop
vertex 159.2997817993164 121.8789138793945 61.3679590225220
vertex 159.4706802368164 122.2547683715820 61.1404833793640
vertex 159.0805587768555 122.1674690246582 61.0810732841492
endloop
endfacet
facet normal 0.3091282073957 0.0813610289043 0.9475337114678
outer loop
vertex 158.5432128906250 122.8802719116211 60.8497233390808
vertex 158.9287719726563 122.9700241088867 60.7162299156189
vertex 158.6704483032227 123.2684860229492 60.7748789787292
endloop
endfacet
facet normal 0.3099077189864 -0.0272105039909 0.9503771852192
outer loop
vertex 157.9546508789063 123.2641334533691 61.0160932540894
vertex 158.3067321777344 123.2203292846680 60.9000291824341
vertex 158.1592025756836 123.5016326904297 60.9561910629272
endloop
endfacet
facet normal -0.3336032606740 0.1636735341431 0.9283963801571
outer loop
vertex 159.2507705688477 123.0831184387207 60.7140188217163
vertex 159.2522506713868 122.7490005493164 60.7734546661377
vertex 159.5339431762695 122.9830970764160 60.8334054946899
endloop
endfacet
facet normal 0.1567131910303 0.0653087787586 0.9854824905467
outer loop
vertex 158.1084365844727 122.8355293273926 61.0200419425964
vertex 157.9546508789063 123.2641334533691 61.0160932540894
vertex 157.6858978271484 122.9898223876953 61.0770096778870
endloop
endfacet
facet normal -0.5963682748672 0.2791809129508 0.7525974346062
outer loop
vertex 159.5586013793945 122.6058387756348 60.9494824409485
vertex 159.8568038940430 122.4586296081543 61.2403903007507
vertex 159.8218536376953 122.8728752136230 61.0590281486511
endloop
endfacet
facet normal 0.3149633687007 0.0791144727573 0.9458007065852
outer loop
vertex 158.5432128906250 122.8802719116211 60.8497233390808
vertex 158.6704483032227 123.2684860229492 60.7748789787292
vertex 158.3067321777344 123.2203292846680 60.9000291824341
endloop
endfacet
facet normal 0.1474344293818 -0.0663126854011 0.9868463491283
outer loop
vertex 158.6704483032227 123.2684860229492 60.7748789787292
vertex 158.9287719726563 122.9700241088867 60.7162299156189
vertex 159.0473403930664 123.3461990356445 60.7237935066223
endloop
endfacet
facet normal -0.4811197328914 0.5963708478720 0.6425461963399
outer loop
vertex 159.8568038940430 122.4586296081543 61.2403903007507
vertex 159.4706802368164 122.2547683715820 61.1404833793640
vertex 159.6712799072266 122.1088447570801 61.4261236190796
endloop
endfacet
facet normal -0.0545886116681 0.1746437777353 0.9831173044833
outer loop
vertex 158.9287719726563 122.9700241088867 60.7162299156189
vertex 159.2522506713868 122.7490005493164 60.7734546661377
vertex 159.2507705688477 123.0831184387207 60.7140188217163
endloop
endfacet
facet normal 0.2306698949913 0.2886062367331 0.9292458445769
outer loop
vertex 157.7606887817383 122.6008987426758 61.1792364120483
vertex 158.1084365844727 122.8355293273926 61.0200419425964
vertex 157.6858978271484 122.9898223876953 61.0770096778870
endloop
endfacet
facet normal 0.2071976955646 0.3729350369388 0.9044272072291
outer loop
vertex 158.2762145996094 121.6668319702148 61.4400596618652
vertex 158.6230926513672 121.5916252136230 61.3916034698486
vertex 158.4913177490234 121.9244728088379 61.2845444679260
endloop
endfacet
facet normal -0.0702272062244 0.4752350835299 0.8770517401432
outer loop
vertex 159.0009078979492 121.5373153686523 61.4512839317322
vertex 158.8630599975586 121.8723716735840 61.2586941719055
vertex 158.6230926513672 121.5916252136230 61.3916034698486
endloop
endfacet
facet normal -0.4764260254156 0.6094527627050 0.6337077972835
outer loop
vertex 159.6712799072266 122.1088447570801 61.4261236190796
vertex 159.2997817993164 121.8789138793945 61.3679590225220
vertex 159.5861129760742 121.7953796386719 61.6635618209839
endloop
endfacet
facet normal 0.2613959143563 0.3294088365822 0.9072827532470
outer loop
vertex 158.1241073608398 122.0225639343262 61.3547267913818
vertex 158.2762145996094 121.6668319702148 61.4400596618652
vertex 158.4913177490234 121.9244728088379 61.2845444679260
endloop
endfacet
facet normal 0.2981731820679 0.3507494458676 0.8877317048067
outer loop
vertex 157.8257904052734 121.9546508789063 61.4817590713501
vertex 157.9932250976563 121.7425422668457 61.5093264579773
vertex 158.1241073608398 122.0225639343262 61.3547267913818
endloop
endfacet
facet normal 0.2890063787830 0.3230504587134 0.9011735205541
outer loop
vertex 158.8757095336914 122.5317840576172 60.8680167198181
vertex 158.5432128906250 122.8802719116211 60.8497233390808
vertex 158.4480743408203 122.5022048950195 61.0157628059387
endloop
endfacet
facet normal 0.3183475766755 0.3128893792893 0.8948491810092
outer loop
vertex 158.5432128906250 122.8802719116211 60.8497233390808
vertex 158.1084365844727 122.8355293273926 61.0200419425964
vertex 158.4480743408203 122.5022048950195 61.0157628059387
endloop
endfacet
facet normal 0.1130923112881 0.3445276983231 0.9319392653042
outer loop
vertex 158.6230926513672 121.5916252136230 61.3916034698486
vertex 158.8630599975586 121.8723716735840 61.2586941719055
vertex 158.4913177490234 121.9244728088379 61.2845444679260
endloop
endfacet
facet normal -0.0048968838339 0.5027651995422 0.8644091477177
outer loop
vertex 159.2585906982422 122.4375762939453 60.9249796867371
vertex 158.8757095336914 122.5317840576172 60.8680167198181
vertex 159.0805587768555 122.1674690246582 61.0810732841492
endloop
endfacet
facet normal -0.2009735311142 0.6096495385289 0.7667705523577
outer loop
vertex 158.8630599975586 121.8723716735840 61.2586941719055
vertex 159.2997817993164 121.8789138793945 61.3679590225220
vertex 159.0805587768555 122.1674690246582 61.0810732841492
endloop
endfacet
facet normal 0.2766068602012 0.4155311592502 0.8665001445942
outer loop
vertex 158.1241073608398 122.0225639343262 61.3547267913818
vertex 158.4913177490234 121.9244728088379 61.2845444679260
vertex 158.1859664916992 122.1976203918457 61.2510313987732
endloop
endfacet
facet normal 0.2567634665517 0.4426646691472 0.8591394025030
outer loop
vertex 158.4480743408203 122.5022048950195 61.0157628059387
vertex 158.1859664916992 122.1976203918457 61.2510313987732
vertex 158.5546188354492 122.2613906860352 61.1079983711243
endloop
endfacet
facet normal 0.2996380177734 0.4082171383313 0.8623084287408
outer loop
vertex 158.1859664916992 122.1976203918457 61.2510313987732
vertex 158.4480743408203 122.5022048950195 61.0157628059387
vertex 158.0602416992188 122.4757690429688 61.1630430221558
endloop
endfacet
facet normal 0.2680464800837 0.3986090243713 0.8770757836154
outer loop
vertex 157.7985153198242 122.2428932189941 61.3488664627075
vertex 158.1859664916992 122.1976203918457 61.2510313987732
vertex 158.0602416992188 122.4757690429688 61.1630430221558
endloop
endfacet
facet normal 0.2742750372124 0.4165145264437 0.8667692041274
outer loop
vertex 157.8257904052734 121.9546508789063 61.4817590713501
vertex 158.1241073608398 122.0225639343262 61.3547267913818
vertex 158.1859664916992 122.1976203918457 61.2510313987732
endloop
endfacet
facet normal 0.2679892982651 0.4241716736461 0.8650203045545
outer loop
vertex 157.7985153198242 122.2428932189941 61.3488664627075
vertex 157.8257904052734 121.9546508789063 61.4817590713501
vertex 158.1859664916992 122.1976203918457 61.2510313987732
endloop
endfacet
facet normal 0.3184561555923 0.3130010119473 0.8947715035054
outer loop
vertex 158.4480743408203 122.5022048950195 61.0157628059387
vertex 158.1084365844727 122.8355293273926 61.0200419425964
vertex 158.0602416992188 122.4757690429688 61.1630430221558
endloop
endfacet
facet normal 0.2058544930099 0.5014005170883 0.8403698288083
outer loop
vertex 158.8757095336914 122.5317840576172 60.8680167198181
vertex 158.5546188354492 122.2613906860352 61.1079983711243
vertex 158.7729339599610 122.1514205932617 61.1201333999634
endloop
endfacet
facet normal 0.0787772475714 0.5358919983426 0.8406033020263
outer loop
vertex 159.0805587768555 122.1674690246582 61.0810732841492
vertex 158.8757095336914 122.5317840576172 60.8680167198181
vertex 158.7729339599610 122.1514205932617 61.1201333999634
endloop
endfacet
facet normal 0.0875338653512 0.4655666112869 0.8806733519708
outer loop
vertex 158.8630599975586 121.8723716735840 61.2586941719055
vertex 159.0805587768555 122.1674690246582 61.0810732841492
vertex 158.7729339599610 122.1514205932617 61.1201333999634
endloop
endfacet
facet normal 0.1918776606604 0.3402105723040 0.9205648971322
outer loop
vertex 158.1084365844727 122.8355293273926 61.0200419425964
vertex 157.7606887817383 122.6008987426758 61.1792364120483
vertex 158.0602416992188 122.4757690429688 61.1630430221558
endloop
endfacet
facet normal 0.2293485679468 0.4364570685193 0.8700025642033
outer loop
vertex 157.7606887817383 122.6008987426758 61.1792364120483
vertex 157.7985153198242 122.2428932189941 61.3488664627075
vertex 158.0602416992188 122.4757690429688 61.1630430221558
endloop
endfacet
facet normal 0.2683293694539 0.4070858871188 0.8730867253585
outer loop
vertex 158.1859664916992 122.1976203918457 61.2510313987732
vertex 158.4913177490234 121.9244728088379 61.2845444679260
vertex 158.5546188354492 122.2613906860352 61.1079983711243
endloop
endfacet
facet normal 0.1269960594675 0.4737376785240 0.8714611941024
outer loop
vertex 158.4913177490234 121.9244728088379 61.2845444679260
vertex 158.8630599975586 121.8723716735840 61.2586941719055
vertex 158.7729339599610 122.1514205932617 61.1201333999634
endloop
endfacet
facet normal 0.2648200039142 0.4448560717255 0.8555544640617
outer loop
vertex 158.8757095336914 122.5317840576172 60.8680167198181
vertex 158.4480743408203 122.5022048950195 61.0157628059387
vertex 158.5546188354492 122.2613906860352 61.1079983711243
endloop
endfacet
facet normal 0.1686042106722 0.4324580186845 0.8857497853339
outer loop
vertex 158.5546188354492 122.2613906860352 61.1079983711243
vertex 158.4913177490234 121.9244728088379 61.2845444679260
vertex 158.7729339599610 122.1514205932617 61.1201333999634
endloop
endfacet
endsolid WRAP
