solid WRAP
facet normal 0.4047107181934 -0.0787025058824 0.9110516726000
outer loop
vertex 154.2166366577148 114.2888679504395 64.0774732828140
vertex 154.4931182861328 114.2340164184570 63.9499151706696
vertex 154.4154357910156 114.5125083923340 64.0084815025330
endloop
endfacet
facet normal -0.2865876534855 0.4280129383577 0.8571303526699
outer loop
vertex 156.7041320800781 114.4184608459473 64.5720884799957
vertex 156.8340301513672 114.1908912658691 64.7291589975357
vertex 156.9956817626953 114.4262466430664 64.6656823158264
endloop
endfacet
facet normal -0.3244968872869 0.4048215135493 0.8548808760926
outer loop
vertex 156.8340301513672 114.1908912658691 64.7291589975357
vertex 156.7041320800781 114.4184608459473 64.5720884799957
vertex 156.6030120849609 114.2096405029297 64.6325902938843
endloop
endfacet
facet normal -0.3660912067725 0.1857504461153 0.9118519617196
outer loop
vertex 156.8340301513672 114.1908912658691 64.7291589975357
vertex 156.6030120849609 114.2096405029297 64.6325902938843
vertex 156.6406173706055 113.9767913818359 64.6951210498810
endloop
endfacet
facet normal -0.4135066666316 0.2336463781020 0.8800122764206
outer loop
vertex 156.8340301513672 114.1908912658691 64.7291589975357
vertex 156.6406173706055 113.9767913818359 64.6951210498810
vertex 156.9300613403320 113.9070014953613 64.8496565818787
endloop
endfacet
facet normal 0.4327504973885 -0.0683299286379 0.8989204791651
outer loop
vertex 154.4154357910156 114.5125083923340 64.0084815025330
vertex 154.4931182861328 114.2340164184570 63.9499151706696
vertex 154.6986083984375 114.4726524353027 63.8691294193268
endloop
endfacet
facet normal 0.4105564518919 -0.0848785557884 0.9078761097073
outer loop
vertex 154.2166366577148 114.2888679504395 64.0774732828140
vertex 154.4154357910156 114.5125083923340 64.0084815025330
vertex 154.1403808593750 114.5491600036621 64.1362924575806
endloop
endfacet
facet normal -0.2990803828439 0.2853243160997 0.9105717759958
outer loop
vertex 156.8340301513672 114.1908912658691 64.7291589975357
vertex 156.9300613403320 113.9070014953613 64.8496565818787
vertex 157.1828842163086 114.1732826232910 64.8492588996887
endloop
endfacet
facet normal 0.4456537045923 -0.0573206008979 0.8933684146509
outer loop
vertex 154.6986083984375 114.4726524353027 63.8691294193268
vertex 154.8785400390625 114.7250022888184 63.7955625057220
vertex 154.5974349975586 114.7485275268555 63.9373002052307
endloop
endfacet
facet normal 0.4522998275368 0.0353752965395 0.8911641007160
outer loop
vertex 154.8785400390625 114.7250022888184 63.7955625057220
vertex 154.7599792480469 114.9856376647949 63.8453905582428
vertex 154.5974349975586 114.7485275268555 63.9373002052307
endloop
endfacet
facet normal 0.4334892106608 -0.0631592148139 0.8989427222158
outer loop
vertex 154.4154357910156 114.5125083923340 64.0084815025330
vertex 154.6986083984375 114.4726524353027 63.8691294193268
vertex 154.5974349975586 114.7485275268555 63.9373002052307
endloop
endfacet
facet normal 0.4495367749867 0.0377728485877 0.8924628282703
outer loop
vertex 154.5974349975586 114.7485275268555 63.9373002052307
vertex 154.7599792480469 114.9856376647949 63.8453905582428
vertex 154.4731369018555 115.0060119628906 63.9890117645264
endloop
endfacet
facet normal 0.4302620411735 -0.0601411799754 0.9006984036826
outer loop
vertex 154.4154357910156 114.5125083923340 64.0084815025330
vertex 154.5974349975586 114.7485275268555 63.9373002052307
vertex 154.3245849609375 114.7729454040527 64.0692706108093
endloop
endfacet
facet normal 0.4497804189175 0.2057195920058 0.8691242858322
outer loop
vertex 154.7599792480469 114.9856376647949 63.8453905582428
vertex 154.6106948852539 115.2410621643066 63.8621883392334
vertex 154.4731369018555 115.0060119628906 63.9890117645264
endloop
endfacet
facet normal 0.4129696679371 -0.0679263179886 0.9082081637425
outer loop
vertex 154.1403808593750 114.5491600036621 64.1362924575806
vertex 154.4154357910156 114.5125083923340 64.0084815025330
vertex 154.3245849609375 114.7729454040527 64.0692706108093
endloop
endfacet
facet normal 0.3830946272295 -0.0389388360845 0.9228880070909
outer loop
vertex 154.1403808593750 114.5491600036621 64.1362924575806
vertex 154.3245849609375 114.7729454040527 64.0692706108093
vertex 154.0536575317383 114.8138771057129 64.1834607124329
endloop
endfacet
facet normal 0.4374354462280 0.0306730859568 0.8987265391548
outer loop
vertex 154.5974349975586 114.7485275268555 63.9373002052307
vertex 154.4731369018555 115.0060119628906 63.9890117645264
vertex 154.3245849609375 114.7729454040527 64.0692706108093
endloop
endfacet
facet normal 0.4000365417073 0.2427338324486 0.8837709272677
outer loop
vertex 154.4731369018555 115.0060119628906 63.9890117645264
vertex 154.6106948852539 115.2410621643066 63.8621883392334
vertex 154.2667312622070 115.2639579772949 64.0115940570831
endloop
endfacet
facet normal 0.4125553047857 0.0502566882086 0.9095451532406
outer loop
vertex 154.3245849609375 114.7729454040527 64.0692706108093
vertex 154.4731369018555 115.0060119628906 63.9890117645264
vertex 154.2298660278320 114.9943122863770 64.1000020503998
endloop
endfacet
facet normal 0.3937516828548 0.2373300761117 0.8880507008171
outer loop
vertex 154.4731369018555 115.0060119628906 63.9890117645264
vertex 154.2667312622070 115.2639579772949 64.0115940570831
vertex 154.2298660278320 114.9943122863770 64.1000020503998
endloop
endfacet
facet normal 0.3932915071025 0.0407695758597 0.9185094621860
outer loop
vertex 154.0536575317383 114.8138771057129 64.1834607124329
vertex 154.3245849609375 114.7729454040527 64.0692706108093
vertex 154.2298660278320 114.9943122863770 64.1000020503998
endloop
endfacet
facet normal 0.3591587218562 0.2460609178415 0.9002549845603
outer loop
vertex 154.2298660278320 114.9943122863770 64.1000020503998
vertex 154.2667312622070 115.2639579772949 64.0115940570831
vertex 153.9948348999023 115.0910491943359 64.1673277616501
endloop
endfacet
facet normal 0.3195796027472 0.1225128089179 0.9396060286945
outer loop
vertex 154.0536575317383 114.8138771057129 64.1834607124329
vertex 154.2298660278320 114.9943122863770 64.1000020503998
vertex 153.9948348999023 115.0910491943359 64.1673277616501
endloop
endfacet
facet normal -0.3242496512013 0.5643179534636 0.7592149966212
outer loop
vertex 156.7041320800781 114.4184608459473 64.5720884799957
vertex 156.6922836303711 114.6537628173828 64.3921302556992
vertex 156.4780120849609 114.4951591491699 64.4185067415237
endloop
endfacet
facet normal -0.3669366098949 0.4951468595509 0.7875195945471
outer loop
vertex 156.7041320800781 114.4184608459473 64.5720884799957
vertex 156.4780120849609 114.4951591491699 64.4185067415237
vertex 156.4940032958984 114.3197669982910 64.5362341403961
endloop
endfacet
facet normal -0.4567607675024 0.4666989824970 0.7573385379122
outer loop
vertex 156.4780120849609 114.4951591491699 64.4185067415237
vertex 156.3399124145508 114.3324813842773 64.4354648590088
vertex 156.4940032958984 114.3197669982910 64.5362341403961
endloop
endfacet
facet normal -0.2817118675491 0.6434240121246 0.7117892695900
outer loop
vertex 156.9305648803711 114.7712669372559 64.3802189826965
vertex 156.6922836303711 114.6537628173828 64.3921302556992
vertex 156.8812713623047 114.5925636291504 64.5222489833832
endloop
endfacet
facet normal -0.5222599476444 0.2137053872169 0.8255752870338
outer loop
vertex 156.3399124145508 114.3324813842773 64.4354648590088
vertex 156.3956756591797 114.1123733520508 64.5277171134949
vertex 156.4940032958984 114.3197669982910 64.5362341403961
endloop
endfacet
facet normal -0.5184067548655 0.2117584227432 0.8285003360935
outer loop
vertex 156.3956756591797 114.1123733520508 64.5277171134949
vertex 156.6030120849609 114.2096405029297 64.6325902938843
vertex 156.4940032958984 114.3197669982910 64.5362341403961
endloop
endfacet
facet normal -0.2538576703057 0.6437663655315 0.7218872140697
outer loop
vertex 157.1062316894531 114.6586723327637 64.5424035787582
vertex 156.9305648803711 114.7712669372559 64.3802189826965
vertex 156.8812713623047 114.5925636291504 64.5222489833832
endloop
endfacet
facet normal -0.3386006589132 0.5607941948990 0.7555524235625
outer loop
vertex 156.6922836303711 114.6537628173828 64.3921302556992
vertex 156.7041320800781 114.4184608459473 64.5720884799957
vertex 156.8812713623047 114.5925636291504 64.5222489833832
endloop
endfacet
facet normal -0.3367474848883 0.4088219724931 0.8482132551595
outer loop
vertex 156.6030120849609 114.2096405029297 64.6325902938843
vertex 156.7041320800781 114.4184608459473 64.5720884799957
vertex 156.4940032958984 114.3197669982910 64.5362341403961
endloop
endfacet
facet normal -0.5008329320316 0.1481247115614 0.8527751427062
outer loop
vertex 156.6406173706055 113.9767913818359 64.6951210498810
vertex 156.6030120849609 114.2096405029297 64.6325902938843
vertex 156.3956756591797 114.1123733520508 64.5277171134949
endloop
endfacet
facet normal -0.2310539200486 0.5393840932683 0.8097400113365
outer loop
vertex 156.9956817626953 114.4262466430664 64.6656823158264
vertex 157.1062316894531 114.6586723327637 64.5424035787582
vertex 156.8812713623047 114.5925636291504 64.5222489833832
endloop
endfacet
facet normal -0.2748402366439 0.5125121754732 0.8135072921082
outer loop
vertex 156.7041320800781 114.4184608459473 64.5720884799957
vertex 156.9956817626953 114.4262466430664 64.6656823158264
vertex 156.8812713623047 114.5925636291504 64.5222489833832
endloop
endfacet
facet normal -0.2356879783868 0.5404880039567 0.8076657070985
outer loop
vertex 157.1062316894531 114.6586723327637 64.5424035787582
vertex 156.9956817626953 114.4262466430664 64.6656823158264
vertex 157.2955703735352 114.4933357238770 64.7082980871201
endloop
endfacet
facet normal -0.2759231121718 0.4223794459804 0.8634014360555
outer loop
vertex 156.9956817626953 114.4262466430664 64.6656823158264
vertex 156.8340301513672 114.1908912658691 64.7291589975357
vertex 157.1828842163086 114.1732826232910 64.8492588996887
endloop
endfacet
facet normal -0.2246740253639 0.4579305128456 0.8601286111575
outer loop
vertex 156.9956817626953 114.4262466430664 64.6656823158264
vertex 157.1828842163086 114.1732826232910 64.8492588996887
vertex 157.2955703735352 114.4933357238770 64.7082980871201
endloop
endfacet
endsolid WRAP
