solid WRAP
facet normal -0.9508915168351 -0.0870109475825 0.2970427885201
outer loop
vertex 119.0692102214970 163.3543372481481 81.1646008437495
vertex 118.8865681184953 162.0825955705714 80.2074044875480
vertex 119.6211851490583 160.4302110783757 82.0750329353292
endloop
endfacet
facet normal 0.2277022320799 -0.6686270821064 -0.7078767679333
outer loop
vertex 112.5889077853819 158.3227048569990 98.6432154331469
vertex 109.7754323067818 157.6790234180446 98.3461979103666
vertex 111.3688566504637 158.6761023968226 97.9169597402961
endloop
endfacet
facet normal -0.1260631474434 -0.5544236844363 -0.8226314247540
outer loop
vertex 108.4893046354502 161.2262336599424 96.3761124366999
vertex 109.4813835518755 162.3647536586578 95.4567614121081
vertex 110.3025102438462 159.7066349468263 97.1224042667472
endloop
endfacet
facet normal -0.1781481036698 -0.3179041169429 -0.9312358592696
outer loop
vertex 108.1751046486192 159.9990778402217 97.0138794734156
vertex 106.2173168502414 158.9870267941702 97.7339026244688
vertex 106.6941893256198 160.9445357417440 96.9744236229600
endloop
endfacet
facet normal -0.8172313898886 -0.0542846815354 0.5737473561868
outer loop
vertex 117.3230260131304 160.2594890715598 76.8844345579593
vertex 115.5789110140063 159.7279492580530 74.3498695117269
vertex 117.4472624261302 158.1967029226793 76.8662248135755
endloop
endfacet
facet normal -0.3148992662317 -0.5946464469571 -0.7397526987096
outer loop
vertex 105.3972900122428 162.1353664205886 97.0128221756523
vertex 105.0378119078298 163.4140951170675 96.1379459017216
vertex 107.1690870609854 162.4862484028052 95.9765457066051
endloop
endfacet
facet normal -0.8736922459805 -0.4390154324114 0.2095884286361
outer loop
vertex 119.5319562786169 160.7495106542581 86.7856846391091
vertex 120.0360931533065 159.5309191830126 86.3347056229123
vertex 120.0980624867455 160.1382411040081 87.8651614021764
endloop
endfacet
facet normal -0.9421358897175 -0.2691667219819 -0.1998230244086
outer loop
vertex 119.8404444331286 160.8783029805021 84.6610293696765
vertex 119.3478142746769 161.7800906614101 85.7689763607510
vertex 119.2422954222523 163.1876275809767 84.3704938704362
endloop
endfacet
facet normal -0.8967849554317 -0.2728387873685 -0.3483328003772
outer loop
vertex 117.6074958159692 167.8664589340831 84.5723061799014
vertex 118.6295462321303 165.9197668155092 83.4658174441953
vertex 117.7412178416678 166.0295307344788 85.6668495625339
endloop
endfacet
facet normal -0.9904935772700 -0.1116971709800 0.0802883265612
outer loop
vertex 118.8499650562638 164.6986869334630 80.3300975700706
vertex 119.0692102214970 163.3543372481481 81.1646008437495
vertex 118.8998085508752 165.1338427069823 81.5503911583837
endloop
endfacet
facet normal -0.9508658505780 -0.2658154010132 -0.1587334457154
outer loop
vertex 119.2422954222523 163.1876275809767 84.3704938704362
vertex 118.6295462321303 165.9197668155092 83.4658174441953
vertex 119.1278759798288 164.4726643985297 82.9039785088960
endloop
endfacet
facet normal -0.7813011524418 -0.3749041284011 -0.4990144323574
outer loop
vertex 116.8211065614509 167.6333671116976 85.9025123347575
vertex 117.7412178416678 166.0295307344788 85.6668495625339
vertex 116.7679378702886 166.3214517640502 86.9713857080285
endloop
endfacet
facet normal -0.9870770789587 -0.1175714426139 0.1088843242895
outer loop
vertex 118.8998085508752 165.1338427069823 81.5503911583837
vertex 119.0692102214970 163.3543372481481 81.1646008437495
vertex 119.1278759798288 164.4726643985297 82.9039785088960
endloop
endfacet
facet normal -0.5985279656921 -0.4912888880790 -0.6327712878557
outer loop
vertex 116.8211065614509 167.6333671116976 85.9025123347575
vertex 116.7679378702886 166.3214517640502 86.9713857080285
vertex 115.2545671597053 168.5242871250839 86.6925585144024
endloop
endfacet
facet normal -0.9834911330102 0.0531253528465 -0.1729823348647
outer loop
vertex 119.0053788045524 166.0803599139542 81.3783416465287
vertex 118.6295462321303 165.9197668155092 83.4658174441953
vertex 118.9439734806700 167.5015049093603 82.1639156243066
endloop
endfacet
facet normal -0.1750017522464 -0.6837017075373 -0.7084676152241
outer loop
vertex 106.8848202541834 166.2903523772813 92.5007449786849
vertex 108.2994113702049 168.5228964455083 89.9968194957200
vertex 110.5865636407793 164.7790322295484 93.0448497173296
endloop
endfacet
facet normal -0.3992489437913 -0.4083407960321 -0.8208885887728
outer loop
vertex 106.6941893256198 160.9445357417440 96.9744236229600
vertex 105.3972900122428 162.1353664205886 97.0128221756523
vertex 107.1690870609854 162.4862484028052 95.9765457066051
endloop
endfacet
facet normal -0.7022057151895 -0.2797051069412 -0.6547306214820
outer loop
vertex 116.4912801231274 169.4583309301259 85.0894017622670
vertex 117.4231293947195 169.5146549334251 84.0659213054397
vertex 117.6074958159692 167.8664589340831 84.5723061799014
endloop
endfacet
facet normal -0.7982344122790 -0.4100697838234 -0.4412081090015
outer loop
vertex 118.5902188189419 162.4498311588282 87.2626816356292
vertex 117.4805099220521 163.3475119321374 88.4360419114134
vertex 117.5767119170465 164.5002436872476 87.1906155619240
endloop
endfacet
facet normal -0.9096812414769 -0.2993419736779 -0.2878791789963
outer loop
vertex 118.6295462321303 165.9197668155092 83.4658174441953
vertex 119.2422954222523 163.1876275809767 84.3704938704362
vertex 118.5766137838577 163.9876670350016 85.6421131356137
endloop
endfacet
facet normal -0.8207362682106 0.0191931505169 0.5709847642600
outer loop
vertex 116.1299294024192 161.1751102662025 75.1386939048143
vertex 117.3230260131304 160.2594890715598 76.8844345579593
vertex 117.4356543877426 161.4670755918599 77.0057351711504
endloop
endfacet
facet normal -0.1575988331630 -0.8097255626774 -0.5652496094049
outer loop
vertex 114.6678438714347 161.8253880464357 94.4675545506223
vertex 116.2257002076074 160.9193413847413 95.3311248990389
vertex 114.1007349150230 160.8491636081543 96.0241227954370
endloop
endfacet
facet normal -0.4821152685147 -0.7052924701201 -0.5197378179976
outer loop
vertex 115.5824069781973 162.2469886986105 92.8544624237888
vertex 113.3452950041175 163.8145585173290 92.8024182035837
vertex 115.2245074158481 163.2692032925580 91.7992930800078
endloop
endfacet
facet normal -0.9379443814806 0.0078191196796 0.3466975607305
outer loop
vertex 119.2414050725182 160.2107005889007 80.7348412978067
vertex 118.8935661570846 159.7592513280119 79.8039907319385
vertex 119.0793770348222 158.6222833667597 80.3323196794132
endloop
endfacet
facet normal -0.7796943340567 0.5808931122866 0.2337518717315
outer loop
vertex 117.8483149888700 156.9962400735713 80.2668881057752
vertex 119.0793770348222 158.6222833667597 80.3323196794132
vertex 117.9381653785750 157.6392828364226 78.9685743432702
endloop
endfacet
facet normal -0.5001877533994 -0.6291011322442 -0.5950159466421
outer loop
vertex 115.2245074158481 163.2692032925580 91.7992930800078
vertex 113.3452950041175 163.8145585173290 92.8024182035837
vertex 113.8194407153020 165.0216919874740 91.1275539978034
endloop
endfacet
facet normal -0.1996304106650 -0.6452876916441 -0.7373950733158
outer loop
vertex 110.5865636407793 164.7790322295484 93.0448497173296
vertex 109.4813835518755 162.3647536586578 95.4567614121081
vertex 106.5373378036176 164.5930094742711 94.3038584152306
endloop
endfacet
facet normal -0.1173582738663 -0.7117218321406 -0.6925886724525
outer loop
vertex 106.8848202541834 166.2903523772813 92.5007449786849
vertex 106.5373378036176 164.5930094742711 94.3038584152306
vertex 103.5914277354652 166.3679614968878 92.9790530561053
endloop
endfacet
facet normal -0.4614111014858 -0.5470324047300 -0.6984664226725
outer loop
vertex 113.5352327202757 167.9985335626467 88.2401264403440
vertex 115.2545671597053 168.5242871250839 86.6925585144024
vertex 115.9910199233257 165.0139355745559 88.9553280878221
endloop
endfacet
facet normal -0.2138236550764 -0.7869166891071 -0.5788277541156
outer loop
vertex 103.5914277354652 166.3679614968878 92.9790530561053
vertex 106.5373378036176 164.5930094742711 94.3038584152306
vertex 104.1972448053696 164.7372700376111 94.9721853751617
endloop
endfacet
facet normal -0.9939862468119 -0.0542500202451 0.0951224287547
outer loop
vertex 119.8404444331286 160.8783029805021 84.6610293696765
vertex 119.6776895112885 161.9819896074366 83.5897664363336
vertex 119.7764079079018 159.2229177325050 83.0477809424095
endloop
endfacet
facet normal -0.7175922398496 -0.6962327041904 -0.0179276022774
outer loop
vertex 119.5319562786169 160.7495106542581 86.7856846391091
vertex 120.0980624867455 160.1382411040081 87.8651614021764
vertex 119.1074258764442 161.1563456014109 87.9787012195220
endloop
endfacet
facet normal -0.9058968490636 -0.4116252710014 0.0995767800729
outer loop
vertex 120.0360931533065 159.5309191830126 86.3347056229123
vertex 119.5319562786169 160.7495106542581 86.7856846391091
vertex 119.8902528838132 159.6492184896980 85.4969474993233
endloop
endfacet
facet normal -0.7715184728778 -0.3661688092268 -0.5202688239341
outer loop
vertex 117.6074958159692 167.8664589340831 84.5723061799014
vertex 117.7412178416678 166.0295307344788 85.6668495625339
vertex 116.8211065614509 167.6333671116976 85.9025123347575
endloop
endfacet
facet normal -0.3899655348386 -0.3979234242589 -0.8304118436439
outer loop
vertex 105.3972900122428 162.1353664205886 97.0128221756523
vertex 106.6941893256198 160.9445357417440 96.9744236229600
vertex 105.3862777159392 160.7962238981091 97.6596946862567
endloop
endfacet
facet normal -0.7855163522014 -0.5067309652189 -0.3552292067279
outer loop
vertex 117.4805099220521 163.3475119321374 88.4360419114134
vertex 118.5902188189419 162.4498311588282 87.2626816356292
vertex 118.1340811859822 162.0086706764768 88.9006473083906
endloop
endfacet
facet normal -0.7695721831823 -0.3707340490503 -0.5199181856282
outer loop
vertex 116.4912801231274 169.4583309301259 85.0894017622670
vertex 117.6074958159692 167.8664589340831 84.5723061799014
vertex 116.8211065614509 167.6333671116976 85.9025123347575
endloop
endfacet
facet normal -0.0803514314816 -0.6738965709538 -0.7344433668538
outer loop
vertex 112.5410255322445 162.2486664049378 94.9106329184783
vertex 114.1007349150230 160.8491636081543 96.0241227954370
vertex 112.5458199789028 159.8578327048780 97.1038440825183
endloop
endfacet
facet normal 0.0480856482956 -0.7065896851974 -0.7059878095269
outer loop
vertex 114.9575811856060 159.9028494892322 97.2230567722239
vertex 112.5889077853819 158.3227048569990 98.6432154331469
vertex 112.5458199789028 159.8578327048780 97.1038440825183
endloop
endfacet
facet normal -0.7377933787628 -0.3936534586771 -0.5483592661069
outer loop
vertex 116.7679378702886 166.3214517640502 86.9713857080285
vertex 117.5767119170465 164.5002436872476 87.1906155619240
vertex 115.9910199233257 165.0139355745559 88.9553280878221
endloop
endfacet
facet normal -0.1502025922869 -0.8254264561223 -0.5441602216294
outer loop
vertex 116.2257002076074 160.9193413847413 95.3311248990389
vertex 114.9575811856060 159.9028494892322 97.2230567722239
vertex 114.1007349150230 160.8491636081543 96.0241227954370
endloop
endfacet
facet normal -0.0126759608197 -0.4276338270343 -0.9038631699507
outer loop
vertex 110.3025102438462 159.7066349468263 97.1224042667472
vertex 107.4299713375869 158.0190932403631 97.9610954913107
vertex 108.1751046486192 159.9990778402217 97.0138794734156
endloop
endfacet
facet normal -0.2760070497612 -0.7182067185883 -0.6387481646602
outer loop
vertex 113.3452950041175 163.8145585173290 92.8024182035837
vertex 114.6678438714347 161.8253880464357 94.4675545506223
vertex 112.5410255322445 162.2486664049378 94.9106329184783
endloop
endfacet
facet normal -0.2973143454551 -0.6826258461901 -0.6675523455878
outer loop
vertex 113.3452950041175 163.8145585173290 92.8024182035837
vertex 110.5865636407793 164.7790322295484 93.0448497173296
vertex 111.5616432824982 167.2174800314919 90.1170603498677
endloop
endfacet
facet normal 0.0283093582325 -0.5244817505316 -0.8509509231417
outer loop
vertex 110.3025102438462 159.7066349468263 97.1224042667472
vertex 109.4813835518755 162.3647536586578 95.4567614121081
vertex 112.5458199789028 159.8578327048780 97.1038440825183
endloop
endfacet
facet normal -0.7323120431500 -0.5161341330432 -0.4442123683164
outer loop
vertex 115.9910199233257 165.0139355745559 88.9553280878221
vertex 117.4805099220521 163.3475119321374 88.4360419114134
vertex 116.9220063502710 162.9748751849137 89.7897400051990
endloop
endfacet
facet normal -0.2153911684322 -0.4929926625718 -0.8429501048175
outer loop
vertex 109.4813835518755 162.3647536586578 95.4567614121081
vertex 108.4893046354502 161.2262336599424 96.3761124366999
vertex 107.1690870609854 162.4862484028052 95.9765457066051
endloop
endfacet
facet normal -0.1176126855304 -0.7096404185617 -0.6946781503300
outer loop
vertex 106.8848202541834 166.2903523772813 92.5007449786849
vertex 103.5914277354652 166.3679614968878 92.9790530561053
vertex 105.8289249413984 167.9625853020766 90.9712634643980
endloop
endfacet
facet normal -0.1138833448475 -0.7087157373629 -0.6962417592909
outer loop
vertex 108.2994113702049 168.5228964455083 89.9968194957200
vertex 106.8848202541834 166.2903523772813 92.5007449786849
vertex 105.8289249413984 167.9625853020766 90.9712634643980
endloop
endfacet
facet normal -0.3736662229021 -0.6488008268601 -0.6628959503027
outer loop
vertex 110.8198569769165 169.6223109384467 88.1814989796438
vertex 113.5352327202757 167.9985335626467 88.2401264403440
vertex 111.5616432824982 167.2174800314919 90.1170603498677
endloop
endfacet
facet normal -0.7346375557149 -0.5127859747804 -0.4442501612850
outer loop
vertex 117.4805099220521 163.3475119321374 88.4360419114134
vertex 118.1340811859822 162.0086706764768 88.9006473083906
vertex 116.9220063502710 162.9748751849137 89.7897400051990
endloop
endfacet
facet normal -0.7058276284986 -0.6118691057437 -0.3569643627653
outer loop
vertex 117.5035349528742 161.6360560668929 90.7861249373408
vertex 118.1340811859822 162.0086706764768 88.9006473083906
vertex 118.8689952916132 161.0373169578279 89.1124854041518
endloop
endfacet
facet normal -0.7532698260944 -0.6186250832501 -0.2233552673868
outer loop
vertex 118.1340811859822 162.0086706764768 88.9006473083906
vertex 119.1074258764442 161.1563456014109 87.9787012195220
vertex 118.8689952916132 161.0373169578279 89.1124854041518
endloop
endfacet
facet normal -0.8377519409488 -0.3375529949875 -0.4292198283065
outer loop
vertex 117.5767119170465 164.5002436872476 87.1906155619240
vertex 117.7412178416678 166.0295307344788 85.6668495625339
vertex 118.5766137838577 163.9876670350016 85.6421131356137
endloop
endfacet
facet normal -0.8817653368103 -0.4427010055044 -0.1628057447550
outer loop
vertex 118.5902188189419 162.4498311588282 87.2626816356292
vertex 119.5319562786169 160.7495106542581 86.7856846391091
vertex 119.1074258764442 161.1563456014109 87.9787012195220
endloop
endfacet
facet normal -0.7113325028685 -0.6676420441991 -0.2196819773681
outer loop
vertex 119.1074258764442 161.1563456014109 87.9787012195220
vertex 120.0980624867455 160.1382411040081 87.8651614021764
vertex 118.8689952916132 161.0373169578279 89.1124854041518
endloop
endfacet
facet normal -0.7832909852044 -0.5099852452618 -0.3554859801915
outer loop
vertex 118.5902188189419 162.4498311588282 87.2626816356292
vertex 119.1074258764442 161.1563456014109 87.9787012195220
vertex 118.1340811859822 162.0086706764768 88.9006473083906
endloop
endfacet
facet normal -0.1831945100585 -0.6979534984073 -0.6923154523376
outer loop
vertex 106.8848202541834 166.2903523772813 92.5007449786849
vertex 110.5865636407793 164.7790322295484 93.0448497173296
vertex 106.5373378036176 164.5930094742711 94.3038584152306
endloop
endfacet
facet normal -0.9568995109698 -0.2513114989153 -0.1455536204244
outer loop
vertex 119.2422954222523 163.1876275809767 84.3704938704362
vertex 119.1278759798288 164.4726643985297 82.9039785088960
vertex 119.6776895112885 161.9819896074366 83.5897664363336
endloop
endfacet
facet normal -0.9563337604921 -0.2635911550695 -0.1262752608870
outer loop
vertex 119.8404444331286 160.8783029805021 84.6610293696765
vertex 119.2422954222523 163.1876275809767 84.3704938704362
vertex 119.6776895112885 161.9819896074366 83.5897664363336
endloop
endfacet
facet normal -0.9882041042443 0.1518965509635 0.0194957985269
outer loop
vertex 119.6432915517936 158.1236250203957 84.8652310956627
vertex 119.8902528838132 159.6492184896980 85.4969474993233
vertex 119.7764079079018 159.2229177325050 83.0477809424095
endloop
endfacet
facet normal -0.2067751481978 -0.4859404175112 -0.8491795738929
outer loop
vertex 108.4893046354502 161.2262336599424 96.3761124366999
vertex 106.6941893256198 160.9445357417440 96.9744236229600
vertex 107.1690870609854 162.4862484028052 95.9765457066051
endloop
endfacet
facet normal -0.9453613128470 -0.2086746877295 -0.2504932391765
outer loop
vertex 119.8404444331286 160.8783029805021 84.6610293696765
vertex 119.8902528838132 159.6492184896980 85.4969474993233
vertex 119.3478142746769 161.7800906614101 85.7689763607510
endloop
endfacet
facet normal -0.8933770013930 -0.3296400363574 -0.3053112834671
outer loop
vertex 119.3478142746769 161.7800906614101 85.7689763607510
vertex 118.5902188189419 162.4498311588282 87.2626816356292
vertex 118.5766137838577 163.9876670350016 85.6421131356137
endloop
endfacet
facet normal -0.2552806213970 -0.6994331806371 -0.6675515187333
outer loop
vertex 110.5865636407793 164.7790322295484 93.0448497173296
vertex 108.2994113702049 168.5228964455083 89.9968194957200
vertex 111.5616432824982 167.2174800314919 90.1170603498677
endloop
endfacet
facet normal -0.2735748016137 -0.7668437877301 -0.5806095358688
outer loop
vertex 114.6678438714347 161.8253880464357 94.4675545506223
vertex 114.1007349150230 160.8491636081543 96.0241227954370
vertex 112.5410255322445 162.2486664049378 94.9106329184783
endloop
endfacet
facet normal -0.3330815857408 -0.6455418660066 -0.6872644007027
outer loop
vertex 107.1690870609854 162.4862484028052 95.9765457066051
vertex 105.0378119078298 163.4140951170675 96.1379459017216
vertex 106.5373378036176 164.5930094742711 94.3038584152306
endloop
endfacet
facet normal -0.7284562521687 -0.5835395258820 -0.3589332952092
outer loop
vertex 116.9220063502710 162.9748751849137 89.7897400051990
vertex 118.1340811859822 162.0086706764768 88.9006473083906
vertex 117.5035349528742 161.6360560668929 90.7861249373408
endloop
endfacet
facet normal -0.3570024447846 -0.6677028118012 -0.6532397795072
outer loop
vertex 113.5352327202757 167.9985335626467 88.2401264403440
vertex 113.8194407153020 165.0216919874740 91.1275539978034
vertex 111.5616432824982 167.2174800314919 90.1170603498677
endloop
endfacet
facet normal -0.6255987037063 -0.3597910260385 -0.6922258876286
outer loop
vertex 115.0990610365148 171.4275432268312 85.3241019461873
vertex 116.4912801231274 169.4583309301259 85.0894017622670
vertex 115.2545671597053 168.5242871250839 86.6925585144024
endloop
endfacet
facet normal -0.3537009316924 -0.4142363878743 -0.8386321397853
outer loop
vertex 115.0990610365148 171.4275432268312 85.3241019461873
vertex 115.2545671597053 168.5242871250839 86.6925585144024
vertex 112.9666500427310 170.5088297874173 86.6772581609936
endloop
endfacet
facet normal -0.7851997326388 0.5864681537250 0.1987875361545
outer loop
vertex 119.0793770348222 158.6222833667597 80.3323196794132
vertex 117.8483149888700 156.9962400735713 80.2668881057752
vertex 118.9383210915018 157.9682425622882 81.7047247071857
endloop
endfacet
facet normal -0.9043871806778 -0.0140986389866 0.4264798422016
outer loop
vertex 118.2365068329375 159.5230797465840 78.3672377198816
vertex 118.0967362755878 158.1647985289737 78.0259399551827
vertex 118.6478073039041 158.5250084870956 79.2064413388169
endloop
endfacet
facet normal -0.7745531247468 -0.4026836966236 -0.4877635671291
outer loop
vertex 116.7679378702886 166.3214517640502 86.9713857080285
vertex 117.7412178416678 166.0295307344788 85.6668495625339
vertex 117.5767119170465 164.5002436872476 87.1906155619240
endloop
endfacet
facet normal -0.6881972627009 -0.5208836325572 -0.5050393736581
outer loop
vertex 115.2245074158481 163.2692032925580 91.7992930800078
vertex 115.9910199233257 165.0139355745559 88.9553280878221
vertex 116.9220063502710 162.9748751849137 89.7897400051990
endloop
endfacet
facet normal -0.6331580559240 -0.5088158720005 -0.5832814797496
outer loop
vertex 115.2545671597053 168.5242871250839 86.6925585144024
vertex 116.7679378702886 166.3214517640502 86.9713857080285
vertex 115.9910199233257 165.0139355745559 88.9553280878221
endloop
endfacet
facet normal -0.7163766455615 -0.4835917314832 -0.5029349251496
outer loop
vertex 117.5767119170465 164.5002436872476 87.1906155619240
vertex 117.4805099220521 163.3475119321374 88.4360419114134
vertex 115.9910199233257 165.0139355745559 88.9553280878221
endloop
endfacet
facet normal -0.5868363158321 -0.4156596032083 -0.6948742567410
outer loop
vertex 116.4912801231274 169.4583309301259 85.0894017622670
vertex 116.8211065614509 167.6333671116976 85.9025123347575
vertex 115.2545671597053 168.5242871250839 86.6925585144024
endloop
endfacet
facet normal -0.5430263378380 -0.6425778160825 -0.5405702051472
outer loop
vertex 115.2245074158481 163.2692032925580 91.7992930800078
vertex 113.8194407153020 165.0216919874740 91.1275539978034
vertex 115.9910199233257 165.0139355745559 88.9553280878221
endloop
endfacet
facet normal -0.8734954267582 -0.3533192827000 -0.3349197275541
outer loop
vertex 117.7412178416678 166.0295307344788 85.6668495625339
vertex 118.6295462321303 165.9197668155092 83.4658174441953
vertex 118.5766137838577 163.9876670350016 85.6421131356137
endloop
endfacet
facet normal -0.9737930510298 -0.1749490120985 0.1453270000094
outer loop
vertex 119.1278759798288 164.4726643985297 82.9039785088960
vertex 119.0692102214970 163.3543372481481 81.1646008437495
vertex 119.6776895112885 161.9819896074366 83.5897664363336
endloop
endfacet
facet normal -0.9938168076493 0.1110277071260 0.0010005419450
outer loop
vertex 119.0053788045524 166.0803599139542 81.3783416465287
vertex 118.8499650562638 164.6986869334630 80.3300975700706
vertex 118.8998085508752 165.1338427069823 81.5503911583837
endloop
endfacet
facet normal -0.9454812283789 -0.3256765214155 0.0002240131366
outer loop
vertex 118.6295462321303 165.9197668155092 83.4658174441953
vertex 118.8998085508752 165.1338427069823 81.5503911583837
vertex 119.1278759798288 164.4726643985297 82.9039785088960
endloop
endfacet
facet normal -0.3967308102778 -0.6877246482337 -0.6079798289320
outer loop
vertex 113.8194407153020 165.0216919874740 91.1275539978034
vertex 113.3452950041175 163.8145585173290 92.8024182035837
vertex 111.5616432824982 167.2174800314919 90.1170603498677
endloop
endfacet
facet normal -0.2344975787278 -0.6523911266100 -0.7206918228282
outer loop
vertex 108.2994113702049 168.5228964455083 89.9968194957200
vertex 110.8198569769165 169.6223109384467 88.1814989796438
vertex 111.5616432824982 167.2174800314919 90.1170603498677
endloop
endfacet
facet normal -0.5105003584175 -0.8287169288235 -0.2293853437710
outer loop
vertex 116.6897877650168 161.4156166840761 93.3935281373432
vertex 115.5824069781973 162.2469886986105 92.8544624237888
vertex 117.5035349528742 161.6360560668929 90.7861249373408
endloop
endfacet
facet normal -0.9784535760782 0.0377508418455 0.2029863872277
outer loop
vertex 119.7764079079018 159.2229177325050 83.0477809424095
vertex 119.6211851490583 160.4302110783757 82.0750329353292
vertex 119.4185905555101 159.0887770614507 81.3479440741106
endloop
endfacet
facet normal -0.2324086829149 -0.4010114784405 -0.8861015733339
outer loop
vertex 108.4893046354502 161.2262336599424 96.3761124366999
vertex 108.1751046486192 159.9990778402217 97.0138794734156
vertex 106.6941893256198 160.9445357417440 96.9744236229600
endloop
endfacet
facet normal 0.0626018850485 -0.5276019897152 -0.8471818839169
outer loop
vertex 109.7754323067818 157.6790234180446 98.3461979103666
vertex 107.4299713375869 158.0190932403631 97.9610954913107
vertex 110.3025102438462 159.7066349468263 97.1224042667472
endloop
endfacet
facet normal -0.8739305241204 -0.4114401370995 -0.2587710428046
outer loop
vertex 119.3478142746769 161.7800906614101 85.7689763607510
vertex 119.5319562786169 160.7495106542581 86.7856846391091
vertex 118.5902188189419 162.4498311588282 87.2626816356292
endloop
endfacet
facet normal -0.9988245641407 -0.0079583854325 0.0478137445776
outer loop
vertex 119.8902528838132 159.6492184896980 85.4969474993233
vertex 119.8404444331286 160.8783029805021 84.6610293696765
vertex 119.7764079079018 159.2229177325050 83.0477809424095
endloop
endfacet
facet normal -0.7904255954882 0.5818782343966 0.1914290947915
outer loop
vertex 118.0967362755878 158.1647985289737 78.0259399551827
vertex 117.9381653785750 157.6392828364226 78.9685743432702
vertex 118.6478073039041 158.5250084870956 79.2064413388169
endloop
endfacet
facet normal 0.0459148463345 -0.7679036889209 -0.6389176405670
outer loop
vertex 114.1007349150230 160.8491636081543 96.0241227954370
vertex 114.9575811856060 159.9028494892322 97.2230567722239
vertex 112.5458199789028 159.8578327048780 97.1038440825183
endloop
endfacet
facet normal 0.0329906812606 -0.5886323158072 -0.8077274365387
outer loop
vertex 111.3688566504637 158.6761023968226 97.9169597402961
vertex 110.3025102438462 159.7066349468263 97.1224042667472
vertex 112.5458199789028 159.8578327048780 97.1038440825183
endloop
endfacet
facet normal 0.1084311846531 -0.5341999617386 -0.8383752614869
outer loop
vertex 111.3688566504637 158.6761023968226 97.9169597402961
vertex 109.7754323067818 157.6790234180446 98.3461979103666
vertex 110.3025102438462 159.7066349468263 97.1224042667472
endloop
endfacet
facet normal -0.7870361164766 0.5626067789911 0.2530765963000
outer loop
vertex 117.9381653785750 157.6392828364226 78.9685743432702
vertex 119.0793770348222 158.6222833667597 80.3323196794132
vertex 118.6478073039041 158.5250084870956 79.2064413388169
endloop
endfacet
facet normal -0.4649469409249 -0.5414233801833 -0.7004891615974
outer loop
vertex 115.2545671597053 168.5242871250839 86.6925585144024
vertex 113.5352327202757 167.9985335626467 88.2401264403440
vertex 112.9666500427310 170.5088297874173 86.6772581609936
endloop
endfacet
facet normal -0.0175443712657 -0.4575398375578 -0.8890160246500
outer loop
vertex 108.4893046354502 161.2262336599424 96.3761124366999
vertex 110.3025102438462 159.7066349468263 97.1224042667472
vertex 108.1751046486192 159.9990778402217 97.0138794734156
endloop
endfacet
facet normal -0.1365084764972 -0.3852415463965 -0.9126633479955
outer loop
vertex 107.4299713375869 158.0190932403631 97.9610954913107
vertex 106.2173168502414 158.9870267941702 97.7339026244688
vertex 108.1751046486192 159.9990778402217 97.0138794734156
endloop
endfacet
facet normal -0.1552545887165 -0.6679671082469 -0.7278158798644
outer loop
vertex 109.4813835518755 162.3647536586578 95.4567614121081
vertex 112.5410255322445 162.2486664049378 94.9106329184783
vertex 112.5458199789028 159.8578327048780 97.1038440825183
endloop
endfacet
facet normal 0.2129379485262 -0.6888561596419 -0.6929174708441
outer loop
vertex 112.5889077853819 158.3227048569990 98.6432154331469
vertex 111.3688566504637 158.6761023968226 97.9169597402961
vertex 112.5458199789028 159.8578327048780 97.1038440825183
endloop
endfacet
facet normal -0.9765378564743 -0.1311595246376 0.1707951813416
outer loop
vertex 119.0692102214970 163.3543372481481 81.1646008437495
vertex 119.6211851490583 160.4302110783757 82.0750329353292
vertex 119.6776895112885 161.9819896074366 83.5897664363336
endloop
endfacet
facet normal -0.9689626062882 -0.2382362309951 -0.0659921651138
outer loop
vertex 119.8902528838132 159.6492184896980 85.4969474993233
vertex 119.5319562786169 160.7495106542581 86.7856846391091
vertex 119.3478142746769 161.7800906614101 85.7689763607510
endloop
endfacet
facet normal -0.8197067612017 -0.4189060687369 -0.3906386197185
outer loop
vertex 118.5902188189419 162.4498311588282 87.2626816356292
vertex 117.5767119170465 164.5002436872476 87.1906155619240
vertex 118.5766137838577 163.9876670350016 85.6421131356137
endloop
endfacet
facet normal -0.9078210085084 -0.0219870234023 0.4187810732504
outer loop
vertex 118.8935661570846 159.7592513280119 79.8039907319385
vertex 118.2365068329375 159.5230797465840 78.3672377198816
vertex 118.6478073039041 158.5250084870956 79.2064413388169
endloop
endfacet
facet normal -0.5662690097090 -0.6010783110757 -0.5639541405093
outer loop
vertex 113.8194407153020 165.0216919874740 91.1275539978034
vertex 113.5352327202757 167.9985335626467 88.2401264403440
vertex 115.9910199233257 165.0139355745559 88.9553280878221
endloop
endfacet
facet normal -0.9340500252285 0.0131956829295 0.3568983389183
outer loop
vertex 119.0793770348222 158.6222833667597 80.3323196794132
vertex 118.8935661570846 159.7592513280119 79.8039907319385
vertex 118.6478073039041 158.5250084870956 79.2064413388169
endloop
endfacet
facet normal -0.1996600511655 -0.6453117899487 -0.7373659591558
outer loop
vertex 109.4813835518755 162.3647536586578 95.4567614121081
vertex 107.1690870609854 162.4862484028052 95.9765457066051
vertex 106.5373378036176 164.5930094742711 94.3038584152306
endloop
endfacet
facet normal -0.4983473779645 -0.7268901869712 -0.4725257103703
outer loop
vertex 115.5824069781973 162.2469886986105 92.8544624237888
vertex 114.6678438714347 161.8253880464357 94.4675545506223
vertex 113.3452950041175 163.8145585173290 92.8024182035837
endloop
endfacet
facet normal -0.4303738296554 -0.2334529002988 -0.8719392811944
outer loop
vertex 106.6941893256198 160.9445357417440 96.9744236229600
vertex 106.2173168502414 158.9870267941702 97.7339026244688
vertex 105.3862777159392 160.7962238981091 97.6596946862567
endloop
endfacet
facet normal -0.3134342923607 -0.5520407102781 -0.7726642210999
outer loop
vertex 113.5352327202757 167.9985335626467 88.2401264403440
vertex 110.8198569769165 169.6223109384467 88.1814989796438
vertex 112.9666500427310 170.5088297874173 86.6772581609936
endloop
endfacet
facet normal -0.9017105127460 0.0941286913201 0.4219691228913
outer loop
vertex 117.8957942328386 162.4853068864101 77.7618761756224
vertex 117.4356543877426 161.4670755918599 77.0057351711504
vertex 118.3179544105911 161.4758196322630 78.8891813708934
endloop
endfacet
facet normal -0.9154212369255 -0.0990610171624 0.3901164875580
outer loop
vertex 118.8935661570846 159.7592513280119 79.8039907319385
vertex 119.2414050725182 160.2107005889007 80.7348412978067
vertex 118.3179544105911 161.4758196322630 78.8891813708934
endloop
endfacet
facet normal -0.8623123213854 -0.0563772714153 0.5032286395415
outer loop
vertex 117.3230260131304 160.2594890715598 76.8844345579593
vertex 117.4472624261302 158.1967029226793 76.8662248135755
vertex 118.2365068329375 159.5230797465840 78.3672377198816
endloop
endfacet
facet normal -0.6435078881594 -0.6168251745458 -0.4532375777925
outer loop
vertex 115.2245074158481 163.2692032925580 91.7992930800078
vertex 116.9220063502710 162.9748751849137 89.7897400051990
vertex 117.5035349528742 161.6360560668929 90.7861249373408
endloop
endfacet
facet normal -0.9008937521467 0.4204459225281 0.1077760343145
outer loop
vertex 119.0793770348222 158.6222833667597 80.3323196794132
vertex 118.9383210915018 157.9682425622882 81.7047247071857
vertex 119.4185905555101 159.0887770614507 81.3479440741106
endloop
endfacet
facet normal -0.1560370919927 -0.6614393484030 -0.7335873596966
outer loop
vertex 109.4813835518755 162.3647536586578 95.4567614121081
vertex 110.5865636407793 164.7790322295484 93.0448497173296
vertex 112.5410255322445 162.2486664049378 94.9106329184783
endloop
endfacet
facet normal -0.9540234623284 0.0295627386270 0.2982704776070
outer loop
vertex 119.0692102214970 163.3543372481481 81.1646008437495
vertex 118.8499650562638 164.6986869334630 80.3300975700706
vertex 118.5557922201149 163.4164514005917 79.5162678015440
endloop
endfacet
facet normal -0.9074555506082 -0.0546393325333 0.4165800847505
outer loop
vertex 119.2414050725182 160.2107005889007 80.7348412978067
vertex 118.8865681184953 162.0825955705714 80.2074044875480
vertex 118.3179544105911 161.4758196322630 78.8891813708934
endloop
endfacet
facet normal -0.9150143240762 -0.0180872345775 0.4030156804402
outer loop
vertex 118.8865681184953 162.0825955705714 80.2074044875480
vertex 118.5557922201149 163.4164514005917 79.5162678015440
vertex 118.3179544105911 161.4758196322630 78.8891813708934
endloop
endfacet
facet normal -0.8094554770364 -0.2532994712646 -0.5297369239093
outer loop
vertex 117.6074958159692 167.8664589340831 84.5723061799014
vertex 117.4231293947195 169.5146549334251 84.0659213054397
vertex 118.2380313201973 168.4643825180733 83.3229234860154
endloop
endfacet
facet normal -0.8487302498652 -0.1589097242604 -0.5043854304985
outer loop
vertex 118.6295462321303 165.9197668155092 83.4658174441953
vertex 117.6074958159692 167.8664589340831 84.5723061799014
vertex 118.2380313201973 168.4643825180733 83.3229234860154
endloop
endfacet
facet normal -0.3030819547940 -0.7060389303911 -0.6400393405490
outer loop
vertex 110.5865636407793 164.7790322295484 93.0448497173296
vertex 113.3452950041175 163.8145585173290 92.8024182035837
vertex 112.5410255322445 162.2486664049378 94.9106329184783
endloop
endfacet
facet normal -0.6446579718889 -0.6466324889360 -0.4077775417216
outer loop
vertex 115.5824069781973 162.2469886986105 92.8544624237888
vertex 115.2245074158481 163.2692032925580 91.7992930800078
vertex 117.5035349528742 161.6360560668929 90.7861249373408
endloop
endfacet
facet normal -0.3440393880610 -0.8864937652018 -0.3094603427274
outer loop
vertex 116.2257002076074 160.9193413847413 95.3311248990389
vertex 114.6678438714347 161.8253880464357 94.4675545506223
vertex 116.6897877650168 161.4156166840761 93.3935281373432
endloop
endfacet
facet normal -0.3952285097939 -0.8088019054154 -0.4354697496296
outer loop
vertex 114.6678438714347 161.8253880464357 94.4675545506223
vertex 115.5824069781973 162.2469886986105 92.8544624237888
vertex 116.6897877650168 161.4156166840761 93.3935281373432
endloop
endfacet
facet normal -0.9020021373747 -0.0759738488986 0.4249942569670
outer loop
vertex 118.2365068329375 159.5230797465840 78.3672377198816
vertex 118.8935661570846 159.7592513280119 79.8039907319385
vertex 118.3179544105911 161.4758196322630 78.8891813708934
endloop
endfacet
facet normal -0.9048452078563 0.0418343181541 0.4236803507882
outer loop
vertex 117.4356543877426 161.4670755918599 77.0057351711504
vertex 117.3230260131304 160.2594890715598 76.8844345579593
vertex 118.3179544105911 161.4758196322630 78.8891813708934
endloop
endfacet
facet normal -0.8724108573136 -0.0327653963511 0.4876737893749
outer loop
vertex 117.4472624261302 158.1967029226793 76.8662248135755
vertex 118.0967362755878 158.1647985289737 78.0259399551827
vertex 118.2365068329375 159.5230797465840 78.3672377198816
endloop
endfacet
facet normal -0.8678323385822 -0.0941985430416 0.4878459455605
outer loop
vertex 117.3230260131304 160.2594890715598 76.8844345579593
vertex 118.2365068329375 159.5230797465840 78.3672377198816
vertex 118.3179544105911 161.4758196322630 78.8891813708934
endloop
endfacet
facet normal -0.9361558920901 0.0011233921278 0.3515833950787
outer loop
vertex 118.5557922201149 163.4164514005917 79.5162678015440
vertex 117.8957942328386 162.4853068864101 77.7618761756224
vertex 118.3179544105911 161.4758196322630 78.8891813708934
endloop
endfacet
facet normal -0.9522704841411 -0.0841021367850 0.2934412302690
outer loop
vertex 118.8865681184953 162.0825955705714 80.2074044875480
vertex 119.0692102214970 163.3543372481481 81.1646008437495
vertex 118.5557922201149 163.4164514005917 79.5162678015440
endloop
endfacet
facet normal -0.8243037087189 0.0052756060969 0.5661232761268
outer loop
vertex 115.5789110140063 159.7279492580530 74.3498695117269
vertex 117.3230260131304 160.2594890715598 76.8844345579593
vertex 116.1299294024192 161.1751102662025 75.1386939048143
endloop
endfacet
facet normal -0.9607633986074 0.2628353290503 0.0886074584862
outer loop
vertex 119.3451697095714 157.5853128348523 83.2295099454395
vertex 119.6432915517936 158.1236250203957 84.8652310956627
vertex 119.7764079079018 159.2229177325050 83.0477809424095
endloop
endfacet
facet normal -0.9943061916034 -0.0536606284246 0.0920637512611
outer loop
vertex 119.6776895112885 161.9819896074366 83.5897664363336
vertex 119.6211851490583 160.4302110783757 82.0750329353292
vertex 119.7764079079018 159.2229177325050 83.0477809424095
endloop
endfacet
facet normal -0.9821747083059 0.0785020832187 -0.1707930481448
outer loop
vertex 118.6295462321303 165.9197668155092 83.4658174441953
vertex 119.0053788045524 166.0803599139542 81.3783416465287
vertex 118.8998085508752 165.1338427069823 81.5503911583837
endloop
endfacet
facet normal -0.9053563036811 -0.3315292851115 -0.2653644597499
outer loop
vertex 119.2422954222523 163.1876275809767 84.3704938704362
vertex 119.3478142746769 161.7800906614101 85.7689763607510
vertex 118.5766137838577 163.9876670350016 85.6421131356137
endloop
endfacet
facet normal -0.8896502321742 0.4301310183825 0.1533289647053
outer loop
vertex 118.9383210915018 157.9682425622882 81.7047247071857
vertex 119.7764079079018 159.2229177325050 83.0477809424095
vertex 119.4185905555101 159.0887770614507 81.3479440741106
endloop
endfacet
facet normal -0.9528859353903 -0.0999330465016 0.2863944488852
outer loop
vertex 119.6211851490583 160.4302110783757 82.0750329353292
vertex 118.8865681184953 162.0825955705714 80.2074044875480
vertex 119.2414050725182 160.2107005889007 80.7348412978067
endloop
endfacet
facet normal -0.9619954489831 -0.0027120224931 0.2730520116567
outer loop
vertex 119.6211851490583 160.4302110783757 82.0750329353292
vertex 119.2414050725182 160.2107005889007 80.7348412978067
vertex 119.4185905555101 159.0887770614507 81.3479440741106
endloop
endfacet
facet normal -0.9097998074205 0.2741617752913 0.3116081375491
outer loop
vertex 119.3451697095714 157.5853128348523 83.2295099454395
vertex 119.7764079079018 159.2229177325050 83.0477809424095
vertex 118.9383210915018 157.9682425622882 81.7047247071857
endloop
endfacet
facet normal -0.9508772429699 0.0186904307302 0.3090034572640
outer loop
vertex 119.2414050725182 160.2107005889007 80.7348412978067
vertex 119.0793770348222 158.6222833667597 80.3323196794132
vertex 119.4185905555101 159.0887770614507 81.3479440741106
endloop
endfacet
facet normal -0.2308760640366 -0.7216501669793 -0.6526233826287
outer loop
vertex 106.5373378036176 164.5930094742711 94.3038584152306
vertex 105.0378119078298 163.4140951170675 96.1379459017216
vertex 104.1972448053696 164.7372700376111 94.9721853751617
endloop
endfacet
facet normal -0.8966836943619 -0.1611173151911 -0.4123100326346
outer loop
vertex 118.9439734806700 167.5015049093603 82.1639156243066
vertex 118.6295462321303 165.9197668155092 83.4658174441953
vertex 118.2380313201973 168.4643825180733 83.3229234860154
endloop
endfacet
endsolid WRAP
