solid WRAP
facet normal 0.0594765651896 -0.6713739452766 -0.7387283423539
outer loop
vertex 164.7220451459843 159.5006959777579 96.4254431125255
vertex 163.4351638344238 161.9332687359702 94.1110534349562
vertex 167.4037702014118 160.5963838401722 95.6455671352952
endloop
endfacet
facet normal 0.9838609559292 -0.0978771198859 0.1497921520003
outer loop
vertex 156.0484294589633 157.2157205104946 80.8975613252346
vertex 156.2197103013967 155.9439453661842 78.9415561692645
vertex 156.2833174406737 157.7535600974115 79.7062110301043
endloop
endfacet
facet normal 0.4287171000060 -0.5941200160013 -0.6806049182522
outer loop
vertex 163.2612252463408 166.1102574749201 88.9332005346538
vertex 159.6215077134354 163.2056347375037 89.1760512065353
vertex 161.0643202298629 167.3253166134542 86.4886961564690
endloop
endfacet
facet normal 0.8713225321908 0.3343582946115 -0.3591678934998
outer loop
vertex 157.0216491989985 163.5069371818629 81.3190614803528
vertex 157.2225727542716 161.8609106557123 80.2741646284801
vertex 156.9601187326895 162.4668084475463 80.2015101658894
endloop
endfacet
facet normal 0.2655917147021 0.6983824731987 -0.6646224207853
outer loop
vertex 157.0216491989985 163.5069371818629 81.3190614803528
vertex 156.9601187326895 162.4668084475463 80.2015101658894
vertex 156.4883707299206 163.2454518976576 80.8311888592015
endloop
endfacet
facet normal 0.1773072284972 -0.7791527843393 -0.6012346342144
outer loop
vertex 159.3308775036064 160.5229248330585 93.2806394980316
vertex 159.6994207692676 158.5243502298961 95.9793202782890
vertex 157.8209034642017 158.4480640943497 95.5241965602661
endloop
endfacet
facet normal 0.5816766067185 -0.6364513437917 -0.5065392503866
outer loop
vertex 167.7309057926664 152.7724948087063 103.0648346419258
vertex 166.8424974054273 152.6588901645412 102.1873852689691
vertex 167.3930156580143 153.5997258215764 101.6374327650058
endloop
endfacet
facet normal 0.6517126620037 -0.5790597950224 -0.4898574894524
outer loop
vertex 168.8892850142983 154.1780578994168 102.9444431600596
vertex 167.7309057926664 152.7724948087063 103.0648346419258
vertex 167.3930156580143 153.5997258215764 101.6374327650058
endloop
endfacet
facet normal 0.7210425971498 -0.6307284645360 0.2868434714605
outer loop
vertex 153.6670553763897 157.9219714316177 88.4559720624829
vertex 153.2578951086116 156.9205178901994 87.2824286290567
vertex 154.5575103941686 158.1906658753958 86.8084436655330
endloop
endfacet
facet normal 0.6541927024889 -0.7214258769385 -0.2271048482392
outer loop
vertex 155.8581267979237 158.7256695322811 93.4063451742230
vertex 155.2084661432649 158.7230637223765 91.5432261613223
vertex 156.7295338611807 160.2142194067983 91.1879413804848
endloop
endfacet
facet normal -0.2062014084981 -0.6530787091498 -0.7286763196294
outer loop
vertex 164.9159968083891 154.0207676542423 99.5215890573355
vertex 162.5749197330865 155.3207020406442 99.0189981663525
vertex 165.4508899381393 154.6777568073413 98.7813957365808
endloop
endfacet
facet normal -0.3184441920228 -0.8154400366368 -0.4833744337641
outer loop
vertex 162.8339218625517 153.8716326153940 101.1448345179827
vertex 164.9159968083891 154.0207676542423 99.5215890573355
vertex 164.7784634667759 152.8461149123337 101.5938036776737
endloop
endfacet
facet normal 0.0490198263533 -0.8003857958470 -0.5974777271419
outer loop
vertex 170.5611070593937 161.1848611002528 95.1162809020773
vertex 167.4037702014118 160.5963838401722 95.6455671352952
vertex 169.5182186943640 162.5893247069151 93.1492871971602
endloop
endfacet
facet normal -0.0798670131523 -0.7449137018806 -0.6623630703479
outer loop
vertex 169.5182186943640 162.5893247069151 93.1492871971602
vertex 167.4037702014118 160.5963838401722 95.6455671352952
vertex 165.9468223475698 164.7460808013956 91.1543685995737
endloop
endfacet
facet normal 0.6656754973603 0.2022121896753 -0.7183219073374
outer loop
vertex 156.9601187326895 162.4668084475463 80.2015101658894
vertex 157.2225727542716 161.8609106557123 80.2741646284801
vertex 156.6972310750389 161.9514035152838 79.8127999938529
endloop
endfacet
facet normal 0.8323235639110 -0.3295063265831 -0.4457163511699
outer loop
vertex 159.3832491206076 165.7103816523056 85.8214023988240
vertex 158.3612524412111 165.3648369140640 84.1683942935602
vertex 159.5380209746648 167.5583043543970 84.7443004281344
endloop
endfacet
facet normal 0.6703693318161 -0.7232932514119 -0.1656859421386
outer loop
vertex 156.7295338611807 160.2142194067983 91.1879413804848
vertex 155.2084661432649 158.7230637223765 91.5432261613223
vertex 155.9105062691391 160.1014834545597 88.3662787811360
endloop
endfacet
facet normal 0.5861694517923 -0.3223962593409 0.7432805834599
outer loop
vertex 154.5575103941686 158.1906658753958 86.8084436655330
vertex 153.2578951086116 156.9205178901994 87.2824286290567
vertex 154.2398276049976 156.4602769771735 86.3084239288548
endloop
endfacet
facet normal 0.8260340973732 0.0334653564193 0.5626257547399
outer loop
vertex 154.7636510991173 157.3790227431496 85.6848968845937
vertex 154.7696785807467 156.3835589123842 85.7352583305696
vertex 155.2153648341960 156.1290851748763 85.0960483677750
endloop
endfacet
facet normal 0.9295232044712 -0.3274626548221 0.1695724684215
outer loop
vertex 155.9294646068058 159.2662248527001 83.2967727093538
vertex 156.5933720412363 160.5365572339832 82.1106665347194
vertex 156.6972546231797 161.6291275399035 83.6510976255167
endloop
endfacet
facet normal 0.9993498617235 -0.0282590833025 -0.0223892403669
outer loop
vertex 155.5316508284011 155.6176737638280 83.0920142499932
vertex 155.5135887305104 155.8171209181924 82.0340708633040
vertex 155.5619023980879 156.9572015158070 82.7515862488269
endloop
endfacet
facet normal 0.2456812278383 -0.6344681278133 -0.7328648777755
outer loop
vertex 166.0088037593775 152.1832184273428 102.3197093588420
vertex 166.8424974054273 152.6588901645412 102.1873852689691
vertex 166.9280903234212 151.7453355132351 103.0069768480874
endloop
endfacet
facet normal 0.9350527641463 -0.3250485353107 0.1414912645877
outer loop
vertex 155.9294646068058 159.2662248527001 83.2967727093538
vertex 156.6972546231797 161.6291275399035 83.6510976255167
vertex 155.7958476502570 159.7517648550359 85.2952209667477
endloop
endfacet
facet normal 0.7931812792547 -0.4650498184828 -0.3931820501613
outer loop
vertex 158.3612524412111 165.3648369140640 84.1683942935602
vertex 159.3832491206076 165.7103816523056 85.8214023988240
vertex 157.6367453112672 162.9352105544940 85.5805437167430
endloop
endfacet
facet normal 0.9613926266044 -0.2508655968630 0.1130958435189
outer loop
vertex 156.6972546231797 161.6291275399035 83.6510976255167
vertex 156.5933720412363 160.5365572339832 82.1106665347194
vertex 157.0293133235958 162.2989374981279 82.3141208939189
endloop
endfacet
facet normal 0.9811293815516 -0.1906495640372 0.0322161510511
outer loop
vertex 156.5837723333469 159.4766289423318 80.7528041195118
vertex 156.2833174406737 157.7535600974115 79.7062110301043
vertex 156.6286470148408 159.5667434705234 79.9194465608864
endloop
endfacet
facet normal 0.9476689131631 -0.2548768542523 0.1922535310229
outer loop
vertex 156.5837723333469 159.4766289423318 80.7528041195118
vertex 156.5933720412363 160.5365572339832 82.1106665347194
vertex 156.1020647870680 158.5596888543970 81.9116512965106
endloop
endfacet
facet normal -0.1258200569552 -0.7740428344546 -0.6205054421174
outer loop
vertex 162.5537767044019 156.4655911161339 98.0368294974592
vertex 161.0636020813523 156.4696983965592 98.3338690275785
vertex 159.5710331200264 157.5896880676795 97.2393985817550
endloop
endfacet
facet normal 0.1906266417036 -0.5648311224871 -0.8028868454164
outer loop
vertex 162.5304763105609 157.9082594701126 97.0849080093411
vertex 159.6994207692676 158.5243502298961 95.9793202782890
vertex 161.5803430519084 159.8673441857571 95.4811045112470
endloop
endfacet
facet normal 0.5701611154976 -0.6999447421973 -0.4301088934734
outer loop
vertex 170.1297226976466 156.2515136904067 101.2145204425120
vertex 168.8892850142983 154.1780578994168 102.9444431600596
vertex 168.7343506361380 155.5918737888038 100.4382625800969
endloop
endfacet
facet normal 0.9616218732715 0.2207886745001 -0.1628979252733
outer loop
vertex 157.2225727542716 161.8609106557123 80.2741646284801
vertex 157.0216491989985 163.5069371818629 81.3190614803528
vertex 157.1932358220389 163.0685613774703 81.7378086005343
endloop
endfacet
facet normal 0.9847204222405 -0.1066493807711 0.1376648088784
outer loop
vertex 157.1932358220389 163.0685613774703 81.7378086005343
vertex 157.0293133235958 162.2989374981279 82.3141208939189
vertex 157.1180646029289 161.4442250468399 81.0171318349052
endloop
endfacet
facet normal 0.9569451441536 -0.1825736730821 0.2256609070669
outer loop
vertex 155.5135887305104 155.8171209181924 82.0340708633040
vertex 156.0484294589633 157.2157205104946 80.8975613252346
vertex 155.5619023980879 156.9572015158070 82.7515862488269
endloop
endfacet
facet normal 0.5420489725183 -0.0386306922553 -0.8394585046372
outer loop
vertex 157.6254237970061 166.7596220038081 83.1343786565588
vertex 158.3536103671009 167.8534778787581 83.5542402345852
vertex 158.4016647054093 166.5093942378606 83.6471223553467
endloop
endfacet
facet normal 0.6539936854840 -0.4210919915002 -0.6284694058118
outer loop
vertex 161.0643202298629 167.3253166134542 86.4886961564690
vertex 159.3832491206076 165.7103816523056 85.8214023988240
vertex 159.5380209746648 167.5583043543970 84.7443004281344
endloop
endfacet
facet normal 0.9805820181338 0.0059807361044 0.1960182045327
outer loop
vertex 155.5619023980879 156.9572015158070 82.7515862488269
vertex 155.2576775068773 157.8960266481377 84.2448281297177
vertex 155.2963177661398 156.4132518188808 84.0967711748959
endloop
endfacet
facet normal 0.9653539270574 -0.2607350845866 -0.0104408419377
outer loop
vertex 156.5837723333469 159.4766289423318 80.7528041195118
vertex 157.2225727542716 161.8609106557123 80.2741646284801
vertex 157.1180646029289 161.4442250468399 81.0171318349052
endloop
endfacet
facet normal 0.5763676001812 -0.6719642643857 -0.4650423817782
outer loop
vertex 170.1297226976466 156.2515136904067 101.2145204425120
vertex 168.7343506361380 155.5918737888038 100.4382625800969
vertex 169.2987079992191 156.8792608420595 99.2775064504019
endloop
endfacet
facet normal 0.5532725621312 -0.8018554519092 -0.2256486344659
outer loop
vertex 155.9105062691391 160.1014834545597 88.3662787811360
vertex 155.2084661432649 158.7230637223765 91.5432261613223
vertex 154.1129863150516 158.3685826095635 90.1168655756593
endloop
endfacet
facet normal -0.1049619529808 -0.7377427309090 -0.6668722901856
outer loop
vertex 164.7784634667759 152.8461149123337 101.5938036776737
vertex 164.8171506801482 151.9572147039126 102.5710807236487
vertex 163.5962125391177 152.1459309496961 102.5544778643864
endloop
endfacet
facet normal 0.3653592025004 -0.4824480757197 -0.7960882535138
outer loop
vertex 166.0088037593775 152.1832184273428 102.3197093588420
vertex 166.9280903234212 151.7453355132351 103.0069768480874
vertex 166.0686438175152 151.5561276745169 102.7272041830520
endloop
endfacet
facet normal 0.9345463195798 -0.3513973968296 0.0560628759620
outer loop
vertex 156.6972546231797 161.6291275399035 83.6510976255167
vertex 157.0293133235958 162.2989374981279 82.3141208939189
vertex 157.4144835649716 163.4755756480499 83.2685519766171
endloop
endfacet
facet normal 0.9668633250507 -0.2541079355874 0.0245859257200
outer loop
vertex 157.2225727542716 161.8609106557123 80.2741646284801
vertex 156.5837723333469 159.4766289423318 80.7528041195118
vertex 156.6286470148408 159.5667434705234 79.9194465608864
endloop
endfacet
facet normal 0.4924726654481 -0.5486848613195 -0.6755853733949
outer loop
vertex 168.1920440043665 157.2074440021310 98.2042580830961
vertex 169.2987079992191 156.8792608420595 99.2775064504019
vertex 167.8813450965583 155.4241041549511 99.4261330525129
endloop
endfacet
facet normal 0.7363324470382 0.0386334450850 0.6755160874173
outer loop
vertex 154.7636510991173 157.3790227431496 85.6848968845937
vertex 154.2398276049976 156.4602769771735 86.3084239288548
vertex 154.7696785807467 156.3835589123842 85.7352583305696
endloop
endfacet
facet normal 0.6279998207389 -0.6546638337177 -0.4207511021662
outer loop
vertex 169.2987079992191 156.8792608420595 99.2775064504019
vertex 168.7343506361380 155.5918737888038 100.4382625800969
vertex 167.8813450965583 155.4241041549511 99.4261330525129
endloop
endfacet
facet normal 0.4119220515641 -0.8232570916885 -0.3905995192264
outer loop
vertex 159.3308775036064 160.5229248330585 93.2806394980316
vertex 155.8581267979237 158.7256695322811 93.4063451742230
vertex 156.7295338611807 160.2142194067983 91.1879413804848
endloop
endfacet
facet normal -0.2579323585594 -0.6893019796390 -0.6770034558802
outer loop
vertex 160.2236749138874 155.1238279789906 100.8643727426679
vertex 162.8339218625517 153.8716326153940 101.1448345179827
vertex 161.2964822268032 153.5752081953506 102.0323947892361
endloop
endfacet
facet normal 0.3043028850902 0.2015339900799 -0.9310122474856
outer loop
vertex 157.0422849789481 165.7425236502565 82.7236099311517
vertex 157.6254237970061 166.7596220038081 83.1343786565588
vertex 157.4636107966896 164.8438730264956 82.6667922210352
endloop
endfacet
facet normal 0.9245626481738 -0.3514470117398 0.1472036261136
outer loop
vertex 155.9294646068058 159.2662248527001 83.2967727093538
vertex 155.7958476502570 159.7517648550359 85.2952209667477
vertex 155.2576775068773 157.8960266481377 84.2448281297177
endloop
endfacet
facet normal 0.5846790044909 -0.6362957241207 -0.5032675363792
outer loop
vertex 167.3930156580143 153.5997258215764 101.6374327650058
vertex 166.8424974054273 152.6588901645412 102.1873852689691
vertex 166.4610361012613 153.3973447175152 100.8105670957334
endloop
endfacet
facet normal -0.2334902938832 -0.7259466719413 -0.6469031706211
outer loop
vertex 162.8339218625517 153.8716326153940 101.1448345179827
vertex 164.7784634667759 152.8461149123337 101.5938036776737
vertex 161.2964822268032 153.5752081953506 102.0323947892361
endloop
endfacet
facet normal -0.3225584615331 -0.8175123667675 -0.4771054066720
outer loop
vertex 157.7331990648933 157.6700441315849 98.3442212100841
vertex 159.5710331200264 157.5896880676795 97.2393985817550
vertex 159.9302131123061 156.4006934761348 99.0338893272199
endloop
endfacet
facet normal -0.1967526189173 -0.9457611278011 -0.2585039575900
outer loop
vertex 159.5710331200264 157.5896880676795 97.2393985817550
vertex 157.7331990648933 157.6700441315849 98.3442212100841
vertex 157.7283663660739 158.0712675437570 96.8799857524308
endloop
endfacet
facet normal 0.3666240960591 -0.7199533258630 -0.5892825983921
outer loop
vertex 159.3308775036064 160.5229248330585 93.2806394980316
vertex 163.4351638344238 161.9332687359702 94.1110534349562
vertex 161.5803430519084 159.8673441857571 95.4811045112470
endloop
endfacet
facet normal -0.0016227284452 -0.7397952743204 -0.6728300817039
outer loop
vertex 164.7784634667759 152.8461149123337 101.5938036776737
vertex 166.0088037593775 152.1832184273428 102.3197093588420
vertex 164.8171506801482 151.9572147039126 102.5710807236487
endloop
endfacet
facet normal 0.8005736863965 -0.5980148745187 0.0382097174028
outer loop
vertex 155.9105062691391 160.1014834545597 88.3662787811360
vertex 154.5575103941686 158.1906658753958 86.8084436655330
vertex 155.7958476502570 159.7517648550359 85.2952209667477
endloop
endfacet
facet normal 0.8687060534587 -0.2252104363475 -0.4411689608805
outer loop
vertex 158.3612524412111 165.3648369140640 84.1683942935602
vertex 157.4144835649716 163.4755756480499 83.2685519766171
vertex 157.4636107966896 164.8438730264956 82.6667922210352
endloop
endfacet
facet normal 0.6538340720417 -0.0525611625952 -0.7548101287238
outer loop
vertex 156.6972310750389 161.9514035152838 79.8127999938529
vertex 157.2225727542716 161.8609106557123 80.2741646284801
vertex 156.6286470148408 159.5667434705234 79.9194465608864
endloop
endfacet
facet normal 0.9110864862866 -0.3733013438261 -0.1748356977380
outer loop
vertex 158.3612524412111 165.3648369140640 84.1683942935602
vertex 157.6367453112672 162.9352105544940 85.5805437167430
vertex 157.4144835649716 163.4755756480499 83.2685519766171
endloop
endfacet
facet normal 0.9043418829625 -0.3880837230464 -0.1776422883953
outer loop
vertex 157.6367453112672 162.9352105544940 85.5805437167430
vertex 156.6972546231797 161.6291275399035 83.6510976255167
vertex 157.4144835649716 163.4755756480499 83.2685519766171
endloop
endfacet
facet normal 0.9635287786847 -0.2581146215746 -0.0706338075983
outer loop
vertex 157.0293133235958 162.2989374981279 82.3141208939189
vertex 157.1932358220389 163.0685613774703 81.7378086005343
vertex 157.4144835649716 163.4755756480499 83.2685519766171
endloop
endfacet
facet normal 0.9369653243188 -0.2588621733111 0.2347048279282
outer loop
vertex 157.0293133235958 162.2989374981279 82.3141208939189
vertex 156.5933720412363 160.5365572339832 82.1106665347194
vertex 157.1180646029289 161.4442250468399 81.0171318349052
endloop
endfacet
facet normal -0.0420810970138 -0.7722635692191 -0.6339070601683
outer loop
vertex 166.0088037593775 152.1832184273428 102.3197093588420
vertex 164.7784634667759 152.8461149123337 101.5938036776737
vertex 166.4610361012613 153.3973447175152 100.8105670957334
endloop
endfacet
facet normal 0.3610411186804 -0.7764619679594 -0.5164843878905
outer loop
vertex 166.8424974054273 152.6588901645412 102.1873852689691
vertex 166.0088037593775 152.1832184273428 102.3197093588420
vertex 166.4610361012613 153.3973447175152 100.8105670957334
endloop
endfacet
facet normal 0.7056414763059 -0.0237093939701 -0.7081722753359
outer loop
vertex 158.3536103671009 167.8534778787581 83.5542402345852
vertex 159.5380209746648 167.5583043543970 84.7443004281344
vertex 158.4016647054093 166.5093942378606 83.6471223553467
endloop
endfacet
facet normal 0.0374706301060 -0.7718735089647 -0.6346709683277
outer loop
vertex 170.2634743639081 159.5048271287955 97.1419308785938
vertex 167.4037702014118 160.5963838401722 95.6455671352952
vertex 170.5611070593937 161.1848611002528 95.1162809020773
endloop
endfacet
facet normal -0.0659157488499 -0.5502893330253 -0.8323681661453
outer loop
vertex 162.5537767044019 156.4655911161339 98.0368294974592
vertex 162.5304763105609 157.9082594701126 97.0849080093411
vertex 164.8200171391531 156.4785503287506 97.8487970159640
endloop
endfacet
facet normal 0.8947816853863 -0.2675651097748 0.3574557980064
outer loop
vertex 154.5575103941686 158.1906658753958 86.8084436655330
vertex 154.2398276049976 156.4602769771735 86.3084239288548
vertex 154.7636510991173 157.3790227431496 85.6848968845937
endloop
endfacet
facet normal 0.7876191898739 -0.2781998612260 -0.5497825469731
outer loop
vertex 159.5380209746648 167.5583043543970 84.7443004281344
vertex 158.3612524412111 165.3648369140640 84.1683942935602
vertex 158.4016647054093 166.5093942378606 83.6471223553467
endloop
endfacet
facet normal 0.8771429443367 0.4546732294184 -0.1545720209180
outer loop
vertex 155.9052667178960 155.2118114085712 84.0183125072598
vertex 155.5316508284011 155.6176737638280 83.0920142499932
vertex 155.2963177661398 156.4132518188808 84.0967711748959
endloop
endfacet
facet normal 0.9889183431797 -0.0880683826345 -0.1195176577032
outer loop
vertex 157.4144835649716 163.4755756480499 83.2685519766171
vertex 157.1932358220389 163.0685613774703 81.7378086005343
vertex 157.4636107966896 164.8438730264956 82.6667922210352
endloop
endfacet
facet normal 0.4507129452303 0.5554527798164 -0.6988061608171
outer loop
vertex 157.0216491989985 163.5069371818629 81.3190614803528
vertex 156.7628293045077 164.4753376575029 81.9218713622048
vertex 157.4636107966896 164.8438730264956 82.6667922210352
endloop
endfacet
facet normal 0.9378837006729 0.0376428256490 -0.3449016985885
outer loop
vertex 157.1932358220389 163.0685613774703 81.7378086005343
vertex 157.0216491989985 163.5069371818629 81.3190614803528
vertex 157.4636107966896 164.8438730264956 82.6667922210352
endloop
endfacet
facet normal 0.9920892132317 -0.0863423948310 0.0911261973540
outer loop
vertex 157.2225727542716 161.8609106557123 80.2741646284801
vertex 157.1932358220389 163.0685613774703 81.7378086005343
vertex 157.1180646029289 161.4442250468399 81.0171318349052
endloop
endfacet
facet normal 0.9704060744282 -0.2239996738865 0.0902008692393
outer loop
vertex 156.0484294589633 157.2157205104946 80.8975613252346
vertex 156.2833174406737 157.7535600974115 79.7062110301043
vertex 156.5837723333469 159.4766289423318 80.7528041195118
endloop
endfacet
facet normal -0.2568629547141 -0.8285293903614 -0.4975544912900
outer loop
vertex 159.5710331200264 157.5896880676795 97.2393985817550
vertex 161.0636020813523 156.4696983965592 98.3338690275785
vertex 159.9302131123061 156.4006934761348 99.0338893272199
endloop
endfacet
facet normal 0.5777495407235 0.1471536607583 -0.8028395034621
outer loop
vertex 157.6254237970061 166.7596220038081 83.1343786565588
vertex 158.4016647054093 166.5093942378606 83.6471223553467
vertex 157.4636107966896 164.8438730264956 82.6667922210352
endloop
endfacet
facet normal 0.8683458286576 -0.2306293888127 -0.4390735779670
outer loop
vertex 158.4016647054093 166.5093942378606 83.6471223553467
vertex 158.3612524412111 165.3648369140640 84.1683942935602
vertex 157.4636107966896 164.8438730264956 82.6667922210352
endloop
endfacet
facet normal 0.9531451516531 -0.2043856277026 0.2230265344501
outer loop
vertex 155.9294646068058 159.2662248527001 83.2967727093538
vertex 155.5619023980879 156.9572015158070 82.7515862488269
vertex 156.1020647870680 158.5596888543970 81.9116512965106
endloop
endfacet
facet normal 0.9341482450277 -0.2570823225259 0.2475393620343
outer loop
vertex 156.5933720412363 160.5365572339832 82.1106665347194
vertex 155.9294646068058 159.2662248527001 83.2967727093538
vertex 156.1020647870680 158.5596888543970 81.9116512965106
endloop
endfacet
facet normal 0.9533111508313 -0.2052153942524 0.2215502012245
outer loop
vertex 155.5619023980879 156.9572015158070 82.7515862488269
vertex 156.0484294589633 157.2157205104946 80.8975613252346
vertex 156.1020647870680 158.5596888543970 81.9116512965106
endloop
endfacet
facet normal 0.9505055876366 -0.2104261523963 0.2286043793530
outer loop
vertex 156.0484294589633 157.2157205104946 80.8975613252346
vertex 156.5837723333469 159.4766289423318 80.7528041195118
vertex 156.1020647870680 158.5596888543970 81.9116512965106
endloop
endfacet
facet normal 0.9498461574879 -0.1333958036750 0.2828388881807
outer loop
vertex 156.0484294589633 157.2157205104946 80.8975613252346
vertex 155.5135887305104 155.8171209181924 82.0340708633040
vertex 155.9990473211777 155.6841256335594 80.3410505260954
endloop
endfacet
facet normal 0.3933028763913 0.5593368749222 -0.7296952156719
outer loop
vertex 157.0216491989985 163.5069371818629 81.3190614803528
vertex 156.4883707299206 163.2454518976576 80.8311888592015
vertex 156.7628293045077 164.4753376575029 81.9218713622048
endloop
endfacet
facet normal 0.6488267182678 -0.4735653323799 -0.5956171300675
outer loop
vertex 166.8424974054273 152.6588901645412 102.1873852689691
vertex 167.7309057926664 152.7724948087063 103.0648346419258
vertex 166.9280903234212 151.7453355132351 103.0069768480874
endloop
endfacet
facet normal -0.0717748117362 -0.5482823346073 -0.8332075719518
outer loop
vertex 164.8171506801482 151.9572147039126 102.5710807236487
vertex 166.0088037593775 152.1832184273428 102.3197093588420
vertex 166.0686438175152 151.5561276745169 102.7272041830520
endloop
endfacet
facet normal -0.2258849021241 -0.6337066064093 -0.7398594109597
outer loop
vertex 164.7784634667759 152.8461149123337 101.5938036776737
vertex 163.5962125391177 152.1459309496961 102.5544778643864
vertex 161.2964822268032 153.5752081953506 102.0323947892361
endloop
endfacet
facet normal 0.9866578605634 -0.0827563970272 0.1402057236330
outer loop
vertex 156.2197103013967 155.9439453661842 78.9415561692645
vertex 156.0484294589633 157.2157205104946 80.8975613252346
vertex 155.9990473211777 155.6841256335594 80.3410505260954
endloop
endfacet
facet normal 0.4365147553319 -0.6296533611767 -0.6426441574747
outer loop
vertex 169.2987079992191 156.8792608420595 99.2775064504019
vertex 168.1920440043665 157.2074440021310 98.2042580830961
vertex 169.4596257578153 158.0883980320108 98.2021145531659
endloop
endfacet
facet normal 0.0989938266579 -0.8441259265400 -0.5269266006063
outer loop
vertex 166.4610361012613 153.3973447175152 100.8105670957334
vertex 164.9159968083891 154.0207676542423 99.5215890573355
vertex 166.4656479005012 154.1526881654345 99.6013883458978
endloop
endfacet
facet normal 0.4474807398937 -0.6268373017989 -0.6378369576135
outer loop
vertex 170.8146441737084 158.0487920099374 99.1916639478679
vertex 169.2987079992191 156.8792608420595 99.2775064504019
vertex 169.4596257578153 158.0883980320108 98.2021145531659
endloop
endfacet
facet normal 0.1338125014249 -0.4657638426977 -0.8747332492240
outer loop
vertex 167.8624302948709 158.7503910148282 97.3322718343043
vertex 168.1920440043665 157.2074440021310 98.2042580830961
vertex 165.6301839221266 157.8945840542565 97.4464797573691
endloop
endfacet
facet normal -0.3347207949266 -0.7971119556766 -0.5025679253207
outer loop
vertex 162.5749197330865 155.3207020406442 99.0189981663525
vertex 164.9159968083891 154.0207676542423 99.5215890573355
vertex 162.8339218625517 153.8716326153940 101.1448345179827
endloop
endfacet
facet normal 0.4982020876391 -0.5474731098098 -0.6723599288381
outer loop
vertex 168.1920440043665 157.2074440021310 98.2042580830961
vertex 167.8813450965583 155.4241041549511 99.4261330525129
vertex 166.7393495801122 155.1080602549854 98.8372832465742
endloop
endfacet
facet normal 0.6249393009535 -0.6542346385495 -0.4259435500694
outer loop
vertex 168.8892850142983 154.1780578994168 102.9444431600596
vertex 167.3930156580143 153.5997258215764 101.6374327650058
vertex 167.3168800078871 154.4446963135725 100.2278818414472
endloop
endfacet
facet normal 0.6969181924188 -0.7171278249903 0.0057197640098
outer loop
vertex 153.6670553763897 157.9219714316177 88.4559720624829
vertex 155.9105062691391 160.1014834545597 88.3662787811360
vertex 154.1129863150516 158.3685826095635 90.1168655756593
endloop
endfacet
facet normal 0.3928107038489 -0.7917306904704 -0.4678271739745
outer loop
vertex 159.3308775036064 160.5229248330585 93.2806394980316
vertex 157.8209034642017 158.4480640943497 95.5241965602661
vertex 155.8581267979237 158.7256695322811 93.4063451742230
endloop
endfacet
facet normal -0.1925600810735 -0.9419825017858 -0.2749355951969
outer loop
vertex 157.8209034642017 158.4480640943497 95.5241965602661
vertex 159.5710331200264 157.5896880676795 97.2393985817550
vertex 157.7283663660739 158.0712675437570 96.8799857524308
endloop
endfacet
facet normal 0.8799971464282 0.4333231617646 0.1945149345334
outer loop
vertex 155.2153648341960 156.1290851748763 85.0960483677750
vertex 155.9052667178960 155.2118114085712 84.0183125072598
vertex 155.2963177661398 156.4132518188808 84.0967711748959
endloop
endfacet
facet normal 0.9123504105962 -0.3671376394392 0.1811813511151
outer loop
vertex 155.7958476502570 159.7517648550359 85.2952209667477
vertex 154.7636510991173 157.3790227431496 85.6848968845937
vertex 155.2576775068773 157.8960266481377 84.2448281297177
endloop
endfacet
facet normal 0.6790463551079 -0.6884843604254 0.2547259960513
outer loop
vertex 153.6670553763897 157.9219714316177 88.4559720624829
vertex 154.5575103941686 158.1906658753958 86.8084436655330
vertex 155.9105062691391 160.1014834545597 88.3662787811360
endloop
endfacet
facet normal 0.1426604468368 -0.6437151054792 -0.7518502908733
outer loop
vertex 170.2634743639081 159.5048271287955 97.1419308785938
vertex 169.4596257578153 158.0883980320108 98.2021145531659
vertex 167.8624302948709 158.7503910148282 97.3322718343043
endloop
endfacet
facet normal 0.6536504203719 -0.7396510394282 -0.1601794862661
outer loop
vertex 159.6215077134354 163.2056347375037 89.1760512065353
vertex 156.7295338611807 160.2142194067983 91.1879413804848
vertex 155.9105062691391 160.1014834545597 88.3662787811360
endloop
endfacet
facet normal 0.8657191169297 -0.4927343688897 -0.0879957515864
outer loop
vertex 155.7958476502570 159.7517648550359 85.2952209667477
vertex 156.6972546231797 161.6291275399035 83.6510976255167
vertex 157.6367453112672 162.9352105544940 85.5805437167430
endloop
endfacet
facet normal 0.6016128404452 0.3281083945497 -0.7282903759062
outer loop
vertex 156.7628293045077 164.4753376575029 81.9218713622048
vertex 157.0422849789481 165.7425236502565 82.7236099311517
vertex 157.4636107966896 164.8438730264956 82.6667922210352
endloop
endfacet
facet normal 0.4691849846917 -0.7053661510373 -0.5313417385362
outer loop
vertex 166.7393495801122 155.1080602549854 98.8372832465742
vertex 167.8813450965583 155.4241041549511 99.4261330525129
vertex 167.3168800078871 154.4446963135725 100.2278818414472
endloop
endfacet
facet normal 0.0572305562249 -0.8701494694742 -0.4894533320022
outer loop
vertex 164.7784634667759 152.8461149123337 101.5938036776737
vertex 164.9159968083891 154.0207676542423 99.5215890573355
vertex 166.4610361012613 153.3973447175152 100.8105670957334
endloop
endfacet
facet normal 0.6112990708339 -0.6815683958688 -0.4022163195974
outer loop
vertex 167.8813450965583 155.4241041549511 99.4261330525129
vertex 168.7343506361380 155.5918737888038 100.4382625800969
vertex 167.3168800078871 154.4446963135725 100.2278818414472
endloop
endfacet
facet normal 0.5622486759116 -0.7023320105872 -0.4365846691539
outer loop
vertex 166.4610361012613 153.3973447175152 100.8105670957334
vertex 166.4656479005012 154.1526881654345 99.6013883458978
vertex 167.3168800078871 154.4446963135725 100.2278818414472
endloop
endfacet
facet normal -0.0699163552116 -0.4779511160390 -0.8755994711916
outer loop
vertex 165.4508899381393 154.6777568073413 98.7813957365808
vertex 162.5537767044019 156.4655911161339 98.0368294974592
vertex 164.8200171391531 156.4785503287506 97.8487970159640
endloop
endfacet
facet normal 0.1744617134100 -0.3601859496374 -0.9164219509799
outer loop
vertex 168.1920440043665 157.2074440021310 98.2042580830961
vertex 164.8200171391531 156.4785503287506 97.8487970159640
vertex 165.6301839221266 157.8945840542565 97.4464797573691
endloop
endfacet
facet normal 0.4168744285501 -0.6843522144939 -0.5982288503060
outer loop
vertex 170.2634743639081 159.5048271287955 97.1419308785938
vertex 170.8146441737084 158.0487920099374 99.1916639478679
vertex 169.4596257578153 158.0883980320108 98.2021145531659
endloop
endfacet
facet normal 0.8644422429200 -0.5021149016099 0.0249045023367
outer loop
vertex 155.9105062691391 160.1014834545597 88.3662787811360
vertex 155.7958476502570 159.7517648550359 85.2952209667477
vertex 157.6367453112672 162.9352105544940 85.5805437167430
endloop
endfacet
facet normal 0.8674420246681 -0.3139702298499 0.3859624704653
outer loop
vertex 154.5575103941686 158.1906658753958 86.8084436655330
vertex 154.7636510991173 157.3790227431496 85.6848968845937
vertex 155.7958476502570 159.7517648550359 85.2952209667477
endloop
endfacet
facet normal 0.3703190022403 -0.7893478508649 -0.4896874584005
outer loop
vertex 159.6215077134354 163.2056347375037 89.1760512065353
vertex 163.4351638344238 161.9332687359702 94.1110534349562
vertex 159.3308775036064 160.5229248330585 93.2806394980316
endloop
endfacet
facet normal -0.1510568872274 -0.6452445365969 -0.7488933868135
outer loop
vertex 162.5537767044019 156.4655911161339 98.0368294974592
vertex 162.5749197330865 155.3207020406442 99.0189981663525
vertex 161.0636020813523 156.4696983965592 98.3338690275785
endloop
endfacet
facet normal 0.1261208634618 -0.7700278242944 -0.6254204007003
outer loop
vertex 163.4351638344238 161.9332687359702 94.1110534349562
vertex 163.2612252463408 166.1102574749201 88.9332005346538
vertex 165.9468223475698 164.7460808013956 91.1543685995737
endloop
endfacet
facet normal 0.4616554882331 -0.7571458947736 -0.4621734568447
outer loop
vertex 159.6215077134354 163.2056347375037 89.1760512065353
vertex 159.3308775036064 160.5229248330585 93.2806394980316
vertex 156.7295338611807 160.2142194067983 91.1879413804848
endloop
endfacet
facet normal 0.6492270660437 -0.6963206065954 -0.3060095252550
outer loop
vertex 159.6215077134354 163.2056347375037 89.1760512065353
vertex 155.9105062691391 160.1014834545597 88.3662787811360
vertex 157.6367453112672 162.9352105544940 85.5805437167430
endloop
endfacet
facet normal 0.1442156751697 -0.6477197771681 -0.7481048919106
outer loop
vertex 167.4037702014118 160.5963838401722 95.6455671352952
vertex 170.2634743639081 159.5048271287955 97.1419308785938
vertex 167.8624302948709 158.7503910148282 97.3322718343043
endloop
endfacet
facet normal 0.0557254838218 -0.6659089134680 -0.7439489158650
outer loop
vertex 164.7220451459843 159.5006959777579 96.4254431125255
vertex 167.4037702014118 160.5963838401722 95.6455671352952
vertex 167.8624302948709 158.7503910148282 97.3322718343043
endloop
endfacet
facet normal 0.1375658612041 -0.4748239004533 -0.8692628471236
outer loop
vertex 164.7220451459843 159.5006959777579 96.4254431125255
vertex 167.8624302948709 158.7503910148282 97.3322718343043
vertex 165.6301839221266 157.8945840542565 97.4464797573691
endloop
endfacet
facet normal 0.5265929915257 -0.7161834238003 -0.4580186947601
outer loop
vertex 170.8146441737084 158.0487920099374 99.1916639478679
vertex 170.1297226976466 156.2515136904067 101.2145204425120
vertex 169.2987079992191 156.8792608420595 99.2775064504019
endloop
endfacet
facet normal 0.2921646431860 -0.4224757414768 -0.8579942127635
outer loop
vertex 169.4596257578153 158.0883980320108 98.2021145531659
vertex 168.1920440043665 157.2074440021310 98.2042580830961
vertex 167.8624302948709 158.7503910148282 97.3322718343043
endloop
endfacet
facet normal 0.7039625309561 -0.5442288599318 -0.4563460343063
outer loop
vertex 161.0643202298629 167.3253166134542 86.4886961564690
vertex 159.6215077134354 163.2056347375037 89.1760512065353
vertex 159.3832491206076 165.7103816523056 85.8214023988240
endloop
endfacet
facet normal 0.4958011194292 -0.6677044969552 -0.5552944756780
outer loop
vertex 163.2612252463408 166.1102574749201 88.9332005346538
vertex 163.4351638344238 161.9332687359702 94.1110534349562
vertex 159.6215077134354 163.2056347375037 89.1760512065353
endloop
endfacet
facet normal 0.9782363616295 0.0300830869112 0.2053013118997
outer loop
vertex 155.5316508284011 155.6176737638280 83.0920142499932
vertex 155.5619023980879 156.9572015158070 82.7515862488269
vertex 155.2963177661398 156.4132518188808 84.0967711748959
endloop
endfacet
facet normal 0.0170628223648 -0.7316073892609 -0.6815126470373
outer loop
vertex 167.4037702014118 160.5963838401722 95.6455671352952
vertex 163.4351638344238 161.9332687359702 94.1110534349562
vertex 165.9468223475698 164.7460808013956 91.1543685995737
endloop
endfacet
facet normal -0.3288801053785 -0.7984965355935 -0.5042233224787
outer loop
vertex 160.2236749138874 155.1238279789906 100.8643727426679
vertex 162.5749197330865 155.3207020406442 99.0189981663525
vertex 162.8339218625517 153.8716326153940 101.1448345179827
endloop
endfacet
facet normal 0.1525360629454 -0.6376744617084 -0.7550523361901
outer loop
vertex 163.4351638344238 161.9332687359702 94.1110534349562
vertex 164.7220451459843 159.5006959777579 96.4254431125255
vertex 161.5803430519084 159.8673441857571 95.4811045112470
endloop
endfacet
facet normal 0.0986171892528 -0.4935644077691 -0.8641000088921
outer loop
vertex 162.5304763105609 157.9082594701126 97.0849080093411
vertex 164.7220451459843 159.5006959777579 96.4254431125255
vertex 165.6301839221266 157.8945840542565 97.4464797573691
endloop
endfacet
facet normal 0.1742408861116 -0.5717917939198 -0.8016821427555
outer loop
vertex 164.7220451459843 159.5006959777579 96.4254431125255
vertex 162.5304763105609 157.9082594701126 97.0849080093411
vertex 161.5803430519084 159.8673441857571 95.4811045112470
endloop
endfacet
facet normal -0.2042074031048 -0.6395597296436 -0.7411225868474
outer loop
vertex 165.4508899381393 154.6777568073413 98.7813957365808
vertex 162.5749197330865 155.3207020406442 99.0189981663525
vertex 162.5537767044019 156.4655911161339 98.0368294974592
endloop
endfacet
facet normal -0.3112277211340 -0.7541682696700 -0.5782452132276
outer loop
vertex 161.0636020813523 156.4696983965592 98.3338690275785
vertex 162.5749197330865 155.3207020406442 99.0189981663525
vertex 159.9302131123061 156.4006934761348 99.0338893272199
endloop
endfacet
facet normal 0.0156863069458 -0.5505013559514 -0.8346868855266
outer loop
vertex 162.5537767044019 156.4655911161339 98.0368294974592
vertex 159.5710331200264 157.5896880676795 97.2393985817550
vertex 162.5304763105609 157.9082594701126 97.0849080093411
endloop
endfacet
facet normal 0.9502231151210 0.2708499057087 0.1540011690456
outer loop
vertex 154.7636510991173 157.3790227431496 85.6848968845937
vertex 155.2153648341960 156.1290851748763 85.0960483677750
vertex 155.2963177661398 156.4132518188808 84.0967711748959
endloop
endfacet
facet normal 0.6081371016833 -0.6747248092018 -0.4182292402546
outer loop
vertex 168.7343506361380 155.5918737888038 100.4382625800969
vertex 168.8892850142983 154.1780578994168 102.9444431600596
vertex 167.3168800078871 154.4446963135725 100.2278818414472
endloop
endfacet
facet normal 0.9350380077309 -0.2826582483604 0.2140285932590
outer loop
vertex 156.5933720412363 160.5365572339832 82.1106665347194
vertex 156.5837723333469 159.4766289423318 80.7528041195118
vertex 157.1180646029289 161.4442250468399 81.0171318349052
endloop
endfacet
facet normal 0.9466835290548 -0.0074898638717 0.3220779373933
outer loop
vertex 155.2576775068773 157.8960266481377 84.2448281297177
vertex 154.7636510991173 157.3790227431496 85.6848968845937
vertex 155.2963177661398 156.4132518188808 84.0967711748959
endloop
endfacet
facet normal 0.9180312534773 -0.2234716028517 0.3275348231224
outer loop
vertex 155.5619023980879 156.9572015158070 82.7515862488269
vertex 155.9294646068058 159.2662248527001 83.2967727093538
vertex 155.2576775068773 157.8960266481377 84.2448281297177
endloop
endfacet
facet normal 0.5520202259842 -0.7016886326685 -0.4504516987294
outer loop
vertex 167.3930156580143 153.5997258215764 101.6374327650058
vertex 166.4610361012613 153.3973447175152 100.8105670957334
vertex 167.3168800078871 154.4446963135725 100.2278818414472
endloop
endfacet
facet normal -0.3289025233808 -0.7984709854896 -0.5042491600835
outer loop
vertex 162.5749197330865 155.3207020406442 99.0189981663525
vertex 160.2236749138874 155.1238279789906 100.8643727426679
vertex 159.9302131123061 156.4006934761348 99.0338893272199
endloop
endfacet
facet normal 0.7904292004272 -0.4625929932558 -0.4015338114064
outer loop
vertex 159.3832491206076 165.7103816523056 85.8214023988240
vertex 159.6215077134354 163.2056347375037 89.1760512065353
vertex 157.6367453112672 162.9352105544940 85.5805437167430
endloop
endfacet
facet normal 0.1805689682710 -0.3963707992465 -0.9001583400726
outer loop
vertex 164.8200171391531 156.4785503287506 97.8487970159640
vertex 168.1920440043665 157.2074440021310 98.2042580830961
vertex 166.7393495801122 155.1080602549854 98.8372832465742
endloop
endfacet
facet normal 0.3621919189253 -0.7247202759601 -0.5861719333758
outer loop
vertex 159.6994207692676 158.5243502298961 95.9793202782890
vertex 159.3308775036064 160.5229248330585 93.2806394980316
vertex 161.5803430519084 159.8673441857571 95.4811045112470
endloop
endfacet
facet normal 0.0557552767689 -0.8046300710552 -0.5911529394887
outer loop
vertex 159.5710331200264 157.5896880676795 97.2393985817550
vertex 159.6994207692676 158.5243502298961 95.9793202782890
vertex 162.5304763105609 157.9082594701126 97.0849080093411
endloop
endfacet
facet normal 0.1719047789751 -0.7995133822134 -0.5755233258759
outer loop
vertex 157.8209034642017 158.4480640943497 95.5241965602661
vertex 159.6994207692676 158.5243502298961 95.9793202782890
vertex 159.5710331200264 157.5896880676795 97.2393985817550
endloop
endfacet
facet normal 0.0981945286129 -0.7784464522221 -0.6199830284558
outer loop
vertex 164.9159968083891 154.0207676542423 99.5215890573355
vertex 165.4508899381393 154.6777568073413 98.7813957365808
vertex 166.4656479005012 154.1526881654345 99.6013883458978
endloop
endfacet
facet normal 0.1080064302229 -0.3283932104578 -0.9383456241469
outer loop
vertex 164.8200171391531 156.4785503287506 97.8487970159640
vertex 162.5304763105609 157.9082594701126 97.0849080093411
vertex 165.6301839221266 157.8945840542565 97.4464797573691
endloop
endfacet
facet normal 0.1739196834108 -0.4041352822051 -0.8980125931184
outer loop
vertex 165.4508899381393 154.6777568073413 98.7813957365808
vertex 164.8200171391531 156.4785503287506 97.8487970159640
vertex 166.7393495801122 155.1080602549854 98.8372832465742
endloop
endfacet
facet normal 0.2474837956497 -0.6474208044859 -0.7208315148560
outer loop
vertex 166.4656479005012 154.1526881654345 99.6013883458978
vertex 165.4508899381393 154.6777568073413 98.7813957365808
vertex 166.7393495801122 155.1080602549854 98.8372832465742
endloop
endfacet
facet normal 0.5979211798449 -0.5980985937348 -0.5336368942130
outer loop
vertex 166.4656479005012 154.1526881654345 99.6013883458978
vertex 166.7393495801122 155.1080602549854 98.8372832465742
vertex 167.3168800078871 154.4446963135725 100.2278818414472
endloop
endfacet
endsolid WRAP
