solid WRAP
facet normal 0.6687031306960 -0.4690573763696 0.5769066654760
outer loop
vertex 155.5384571180883 157.8302609502948 79.1534802357389
vertex 154.3777021272306 158.4828700880754 81.0295404220549
vertex 154.3944448845128 156.4692591927315 79.3729553364554
endloop
endfacet
facet normal -0.6839269263071 -0.6262796768157 0.3741894251308
outer loop
vertex 149.0658643400130 157.9172541473162 77.5008192636149
vertex 149.2649225862026 157.0075282571595 76.3420437534460
vertex 149.8525428559449 157.0840258768448 77.5441039915115
endloop
endfacet
facet normal -0.7525185546292 -0.6379702963603 0.1634311044466
outer loop
vertex 151.0868684439532 154.8883372821703 78.1707525493746
vertex 151.6451719123938 153.8070474173968 76.5205336557391
vertex 151.9063512916223 153.9722174832503 78.3678926749454
endloop
endfacet
facet normal 0.6231353437000 -0.6858965683043 0.3758300693402
outer loop
vertex 153.4277584564733 153.2886742442839 77.3593533713050
vertex 153.4426778378223 152.6340045163431 76.1398327661638
vertex 154.5826682237685 153.8445008917928 76.4588785761887
endloop
endfacet
facet normal -0.5720838625210 -0.7988794716490 0.1857730982165
outer loop
vertex 151.9063512916223 153.9722174832503 78.3678926749454
vertex 152.1357505436257 154.0801781831102 79.5385853053448
vertex 151.0197818668356 154.9875035928320 80.0037547711681
endloop
endfacet
facet normal -0.2863487489342 -0.9574551514951 0.0358333205178
outer loop
vertex 153.4426778378223 152.6340045163431 76.1398327661638
vertex 152.4574583188336 152.8930560058789 75.1885898158327
vertex 153.5194997773433 152.5446126090563 74.3652030376780
endloop
endfacet
facet normal 0.6571054858066 -0.5742484301976 0.4883145717039
outer loop
vertex 153.4277584564733 153.2886742442839 77.3593533713050
vertex 154.5826682237685 153.8445008917928 76.4588785761887
vertex 153.7732522321945 154.7119724305475 78.5682071062381
endloop
endfacet
facet normal -0.0489816503983 0.2617767557591 0.9638847068340
outer loop
vertex 153.3108062726157 163.1303989283657 83.8803554111903
vertex 152.5604408310512 163.2562613033680 83.8080418020670
vertex 152.2581560595259 161.4133910367258 84.2931767869584
endloop
endfacet
facet normal 0.7897309434795 -0.2682205735986 0.5517089457399
outer loop
vertex 154.8800020290269 162.5919514945636 82.3082189751285
vertex 154.3777021272306 158.4828700880754 81.0295404220549
vertex 155.3805694592987 159.9143285346843 80.2899316811459
endloop
endfacet
facet normal -0.9076773433498 0.1370044927692 0.3966756979329
outer loop
vertex 150.0921434787500 160.9024945452177 81.4789098545763
vertex 150.5695403555989 160.9905947834688 82.5408660133288
vertex 150.7962912406830 162.4624721672278 82.5513602952239
endloop
endfacet
facet normal -0.8520164273552 0.1276379103054 0.5077170189878
outer loop
vertex 150.7962912406830 162.4624721672278 82.5513602952239
vertex 150.5695403555989 160.9905947834688 82.5408660133288
vertex 151.1260063709891 161.4425266422976 83.3610759585188
endloop
endfacet
facet normal 0.0010249441178 -0.7774051676086 0.6289993281912
outer loop
vertex 151.6103530505643 155.2529492010991 81.2561381061607
vertex 151.3265475665976 156.5771198552911 82.8931954891742
vertex 150.5794648971921 156.2810750309119 82.5285193312707
endloop
endfacet
facet normal 0.3126282783745 -0.9488095592774 0.0449886628442
outer loop
vertex 153.5194997773433 152.5446126090563 74.3652030376780
vertex 154.4466486697290 152.8428798350682 74.2128498373197
vertex 154.0125532657238 152.7673679661826 75.6368556138136
endloop
endfacet
facet normal -0.8796390593842 -0.4541798437648 0.1412649805274
outer loop
vertex 151.0868684439532 154.8883372821703 78.1707525493746
vertex 149.8525428559449 157.0840258768448 77.5441039915115
vertex 150.5145118618158 155.3274179043870 76.0184453320437
endloop
endfacet
facet normal -0.9532733435989 0.0620441037571 0.2956695141078
outer loop
vertex 150.7234695826330 159.9158534557621 83.6109628138898
vertex 150.2697339215870 159.6732116136616 82.1989822235067
vertex 150.6388596417742 158.5688499421573 83.6208293181992
endloop
endfacet
facet normal 0.2660720360098 0.0680640090369 0.9615471711400
outer loop
vertex 153.3108062726157 163.1303989283657 83.8803554111903
vertex 152.2581560595259 161.4133910367258 84.2931767869584
vertex 152.7862690774935 160.4416135039638 84.2158295351600
endloop
endfacet
facet normal 0.7714730356340 -0.1626051972216 0.6151332417665
outer loop
vertex 154.8800020290269 162.5919514945636 82.3082189751285
vertex 154.0827151104744 163.0742565097185 83.4356343289886
vertex 153.3222548073663 159.3841634822512 83.4139257216938
endloop
endfacet
facet normal 0.7174871985798 -0.1518602375592 0.6798165841774
outer loop
vertex 154.0827151104744 163.0742565097185 83.4356343289886
vertex 152.7862690774935 160.4416135039638 84.2158295351600
vertex 153.3222548073663 159.3841634822512 83.4139257216938
endloop
endfacet
facet normal 0.8470443217033 -0.2495772372099 0.4692836239812
outer loop
vertex 154.3777021272306 158.4828700880754 81.0295404220549
vertex 154.8800020290269 162.5919514945636 82.3082189751285
vertex 153.3222548073663 159.3841634822512 83.4139257216938
endloop
endfacet
facet normal 0.6755474050728 -0.7266607374261 0.1248994643009
outer loop
vertex 154.4466486697290 152.8428798350682 74.2128498373197
vertex 155.1767844674544 153.3862005010845 73.4247636094970
vertex 154.8313487718412 153.3219206273244 74.9191537445362
endloop
endfacet
facet normal 0.5696623206704 -0.5759722029451 0.5862941768796
outer loop
vertex 153.7732522321945 154.7119724305475 78.5682071062381
vertex 152.1357505436257 154.0801781831102 79.5385853053448
vertex 152.5918689556874 153.4236151881760 78.4504020471116
endloop
endfacet
facet normal -0.4390454935602 0.2953886943701 0.8485190474131
outer loop
vertex 152.2581560595259 161.4133910367258 84.2931767869584
vertex 152.5604408310512 163.2562613033680 83.8080418020670
vertex 151.8421265691598 162.2048081598056 83.8024022487891
endloop
endfacet
facet normal -0.3401502338170 0.2274842254760 0.9124410915746
outer loop
vertex 151.8421265691598 162.2048081598056 83.8024022487891
vertex 152.5604408310512 163.2562613033680 83.8080418020670
vertex 152.0269910783634 164.0989034088143 83.3990939277737
endloop
endfacet
facet normal 0.6168877914632 -0.3789749330729 0.6898024737895
outer loop
vertex 153.3222548073663 159.3841634822512 83.4139257216938
vertex 152.1484516212848 157.6219534942892 83.4955018901829
vertex 152.9869629319076 157.6088297196447 82.7384141846610
endloop
endfacet
facet normal -0.8921610542949 -0.4513301064251 -0.0187026263844
outer loop
vertex 150.4378865958867 156.1897913382035 78.7480831253521
vertex 151.0197818668356 154.9875035928320 80.0037547711681
vertex 150.2475365859060 156.5077116528867 80.1562199071852
endloop
endfacet
facet normal -0.9521064130543 -0.3041001202354 0.0318825201901
outer loop
vertex 150.0918117692066 157.0830503782550 80.9934805362136
vertex 150.2475365859060 156.5077116528867 80.1562199071852
vertex 150.4403452563581 155.9793968011998 80.8749134600541
endloop
endfacet
facet normal -0.8916643501422 -0.4441962020600 -0.0873179292067
outer loop
vertex 150.2475365859060 156.5077116528867 80.1562199071852
vertex 151.0197818668356 154.9875035928320 80.0037547711681
vertex 150.4403452563581 155.9793968011998 80.8749134600541
endloop
endfacet
facet normal -0.9623780589777 -0.2623086687589 -0.0708705431909
outer loop
vertex 150.4378865958867 156.1897913382035 78.7480831253521
vertex 150.2475365859060 156.5077116528867 80.1562199071852
vertex 149.9502099093158 157.7715711418219 79.5158885636042
endloop
endfacet
facet normal -0.3802189696382 -0.7471477264057 0.5451640212395
outer loop
vertex 151.0197818668356 154.9875035928320 80.0037547711681
vertex 152.1357505436257 154.0801781831102 79.5385853053448
vertex 152.3504192579404 154.4975009896929 80.2602450043676
endloop
endfacet
facet normal -0.7462248514027 -0.6656371243161 0.0086999931738
outer loop
vertex 151.0868684439532 154.8883372821703 78.1707525493746
vertex 151.9063512916223 153.9722174832503 78.3678926749454
vertex 151.0197818668356 154.9875035928320 80.0037547711681
endloop
endfacet
facet normal -0.9033836565904 -0.3890411597303 0.1804021758213
outer loop
vertex 149.8525428559449 157.0840258768448 77.5441039915115
vertex 149.9502099093158 157.7715711418219 79.5158885636042
vertex 149.4736775045546 158.3845949158905 78.4515992587941
endloop
endfacet
facet normal -0.7571142491892 -0.5670540953310 0.3243881419580
outer loop
vertex 150.5145118618158 155.3274179043870 76.0184453320437
vertex 149.8525428559449 157.0840258768448 77.5441039915115
vertex 149.6089652051422 156.1152278048268 75.2820699354442
endloop
endfacet
facet normal -0.3499840267352 -0.9303789882288 0.1091151652732
outer loop
vertex 152.4574583188336 152.8930560058789 75.1885898158327
vertex 153.4426778378223 152.6340045163431 76.1398327661638
vertex 152.7406421805665 152.9725788249976 76.7749521495662
endloop
endfacet
facet normal 0.6570295200538 -0.7442751370553 0.1198612954179
outer loop
vertex 154.8313487718412 153.3219206273244 74.9191537445362
vertex 155.1767844674544 153.3862005010845 73.4247636094970
vertex 155.7121651745076 153.9960833765512 74.2770798752966
endloop
endfacet
facet normal 0.2991807945064 0.0869580869014 0.9502258380622
outer loop
vertex 152.7862690774935 160.4416135039638 84.2158295351600
vertex 152.2581560595259 161.4133910367258 84.2931767869584
vertex 151.7921930959265 159.7500083084065 84.5921075654342
endloop
endfacet
facet normal -0.9447647091818 -0.0350244252487 0.3258725731334
outer loop
vertex 150.0921434787500 160.9024945452177 81.4789098545763
vertex 149.6368833409341 159.7915918746926 80.0396281293968
vertex 149.9936110656635 158.9194254401463 80.9801081276764
endloop
endfacet
facet normal 0.2085205233605 -0.7424117981011 0.6366662495985
outer loop
vertex 151.3265475665976 156.5771198552911 82.8931954891742
vertex 151.6103530505643 155.2529492010991 81.2561381061607
vertex 152.3464608940231 155.6708582335860 81.5023691629857
endloop
endfacet
facet normal -0.3382442503522 0.2574219075629 0.9051656139129
outer loop
vertex 151.7921930959265 159.7500083084065 84.5921075654342
vertex 152.2581560595259 161.4133910367258 84.2931767869584
vertex 151.2779874246934 160.3279047925440 84.2356089068974
endloop
endfacet
facet normal -0.4922962741769 0.0956657654961 0.8651545756358
outer loop
vertex 151.7921930959265 159.7500083084065 84.5921075654342
vertex 151.2779874246934 160.3279047925440 84.2356089068974
vertex 151.2651103438718 159.0074199868641 84.3742960897773
endloop
endfacet
facet normal -0.9928366963385 -0.1187054964407 0.0135756958710
outer loop
vertex 150.0382975198357 157.6770467114347 82.2736888752018
vertex 150.0918117692066 157.0830503782550 80.9934805362136
vertex 150.1869073438887 156.3815555858201 81.8142921338719
endloop
endfacet
facet normal -0.4116175240505 -0.6175748427439 0.6702031986677
outer loop
vertex 151.3265475665976 156.5771198552911 82.8931954891742
vertex 151.1587256655651 157.7826199133944 83.9009616036439
vertex 150.6188216356746 157.2213090005768 83.0521362625338
endloop
endfacet
facet normal 0.5988962698292 -0.5978857015137 0.5327813302942
outer loop
vertex 153.4277584564733 153.2886742442839 77.3593533713050
vertex 153.7732522321945 154.7119724305475 78.5682071062381
vertex 152.5918689556874 153.4236151881760 78.4504020471116
endloop
endfacet
facet normal 0.4566957578779 -0.1827385204179 0.8706524093413
outer loop
vertex 152.7862690774935 160.4416135039638 84.2158295351600
vertex 151.7921930959265 159.7500083084065 84.5921075654342
vertex 151.9024217269697 158.9755910184261 84.3717477342401
endloop
endfacet
facet normal 0.5907272596693 -0.3600552205437 0.7220813962725
outer loop
vertex 152.1484516212848 157.6219534942892 83.4955018901829
vertex 153.3222548073663 159.3841634822512 83.4139257216938
vertex 151.9024217269697 158.9755910184261 84.3717477342401
endloop
endfacet
facet normal 0.5450106447181 -0.5714391493838 0.6135313322851
outer loop
vertex 152.9869629319076 157.6088297196447 82.7384141846610
vertex 152.1484516212848 157.6219534942892 83.4955018901829
vertex 152.3464608940231 155.6708582335860 81.5023691629857
endloop
endfacet
facet normal 0.2141162241233 -0.6087867018806 0.7638933133498
outer loop
vertex 151.3265475665976 156.5771198552911 82.8931954891742
vertex 152.1484516212848 157.6219534942892 83.4955018901829
vertex 151.1587256655651 157.7826199133944 83.9009616036439
endloop
endfacet
facet normal -0.7311396103338 -0.6516578079317 0.2019330868448
outer loop
vertex 150.5145118618158 155.3274179043870 76.0184453320437
vertex 149.6089652051422 156.1152278048268 75.2820699354442
vertex 150.9070184283426 154.4365291430315 74.5646096886670
endloop
endfacet
facet normal 0.2021755618845 -0.9410272464570 0.2712798621391
outer loop
vertex 153.4277584564733 153.2886742442839 77.3593533713050
vertex 152.5918689556874 153.4236151881760 78.4504020471116
vertex 152.7406421805665 152.9725788249976 76.7749521495662
endloop
endfacet
facet normal 0.4992640986835 -0.8061219136918 0.3176520423854
outer loop
vertex 152.1357505436257 154.0801781831102 79.5385853053448
vertex 153.7732522321945 154.7119724305475 78.5682071062381
vertex 152.3504192579404 154.4975009896929 80.2602450043676
endloop
endfacet
facet normal -0.7872472560977 0.0719979717181 0.6124198313536
outer loop
vertex 151.2779874246934 160.3279047925440 84.2356089068974
vertex 150.6388596417742 158.5688499421573 83.6208293181992
vertex 151.2651103438718 159.0074199868641 84.3742960897773
endloop
endfacet
facet normal 0.2609103770370 -0.4907232154217 0.8313341692728
outer loop
vertex 151.1587256655651 157.7826199133944 83.9009616036439
vertex 152.1484516212848 157.6219534942892 83.4955018901829
vertex 151.9024217269697 158.9755910184261 84.3717477342401
endloop
endfacet
facet normal 0.5908310147957 -0.2755585410467 0.7582784464902
outer loop
vertex 153.3222548073663 159.3841634822512 83.4139257216938
vertex 152.7862690774935 160.4416135039638 84.2158295351600
vertex 151.9024217269697 158.9755910184261 84.3717477342401
endloop
endfacet
facet normal -0.0142165741577 -0.3593652827010 0.9330886788556
outer loop
vertex 151.2651103438718 159.0074199868641 84.3742960897773
vertex 151.1587256655651 157.7826199133944 83.9009616036439
vertex 151.9024217269697 158.9755910184261 84.3717477342401
endloop
endfacet
facet normal 0.6443295287424 -0.7485161591529 0.1567259323714
outer loop
vertex 154.0125532657238 152.7673679661826 75.6368556138136
vertex 154.4466486697290 152.8428798350682 74.2128498373197
vertex 154.8313487718412 153.3219206273244 74.9191537445362
endloop
endfacet
facet normal 0.4997568958413 0.0105674024529 0.8661012498920
outer loop
vertex 153.3108062726157 163.1303989283657 83.8803554111903
vertex 152.7862690774935 160.4416135039638 84.2158295351600
vertex 154.0827151104744 163.0742565097185 83.4356343289886
endloop
endfacet
facet normal -0.8964317893668 -0.4430936144410 -0.0088371858766
outer loop
vertex 151.0868684439532 154.8883372821703 78.1707525493746
vertex 151.0197818668356 154.9875035928320 80.0037547711681
vertex 150.4378865958867 156.1897913382035 78.7480831253521
endloop
endfacet
facet normal 0.8072348805433 -0.3368667230275 0.4846572588448
outer loop
vertex 154.3777021272306 158.4828700880754 81.0295404220549
vertex 153.3222548073663 159.3841634822512 83.4139257216938
vertex 152.9869629319076 157.6088297196447 82.7384141846610
endloop
endfacet
facet normal 0.7972493834890 -0.4190588195778 0.4344918022938
outer loop
vertex 154.3777021272306 158.4828700880754 81.0295404220549
vertex 152.9869629319076 157.6088297196447 82.7384141846610
vertex 153.3865532249261 156.0903173003802 80.5406301720578
endloop
endfacet
facet normal 0.5816568847954 -0.7749376966034 0.2472788603037
outer loop
vertex 154.5826682237685 153.8445008917928 76.4588785761887
vertex 155.7121651745076 153.9960833765512 74.2770798752966
vertex 156.0084781761395 154.8181998010496 76.1564823859528
endloop
endfacet
facet normal 0.5488667028111 -0.6348273237605 0.5438194659557
outer loop
vertex 154.5826682237685 153.8445008917928 76.4588785761887
vertex 156.0084781761395 154.8181998010496 76.1564823859528
vertex 155.5716339925287 155.9120207472955 77.8742521775093
endloop
endfacet
facet normal -0.8155074463892 -0.5648701904594 0.1259733019892
outer loop
vertex 151.6451719123938 153.8070474173968 76.5205336557391
vertex 150.5145118618158 155.3274179043870 76.0184453320437
vertex 150.9070184283426 154.4365291430315 74.5646096886670
endloop
endfacet
facet normal 0.7128572588063 -0.6209882601036 0.3258958566484
outer loop
vertex 154.5826682237685 153.8445008917928 76.4588785761887
vertex 154.8313487718412 153.3219206273244 74.9191537445362
vertex 155.7121651745076 153.9960833765512 74.2770798752966
endloop
endfacet
facet normal 0.7508280746605 -0.4158948568647 0.5131166244970
outer loop
vertex 154.3944448845128 156.4692591927315 79.3729553364554
vertex 154.3777021272306 158.4828700880754 81.0295404220549
vertex 153.3865532249261 156.0903173003802 80.5406301720578
endloop
endfacet
facet normal -0.9339502613419 0.1208703843608 0.3363439601417
outer loop
vertex 150.6388596417742 158.5688499421573 83.6208293181992
vertex 150.2697339215870 159.6732116136616 82.1989822235067
vertex 150.0382975198357 157.6770467114347 82.2736888752018
endloop
endfacet
facet normal 0.7353028706472 -0.4793414254378 0.4791257520498
outer loop
vertex 153.7732522321945 154.7119724305475 78.5682071062381
vertex 154.3944448845128 156.4692591927315 79.3729553364554
vertex 153.3865532249261 156.0903173003802 80.5406301720578
endloop
endfacet
facet normal 0.6803317011781 -0.5314073639872 0.5047325924411
outer loop
vertex 152.3504192579404 154.4975009896929 80.2602450043676
vertex 153.7732522321945 154.7119724305475 78.5682071062381
vertex 153.3865532249261 156.0903173003802 80.5406301720578
endloop
endfacet
facet normal 0.6291044191943 -0.4237130954485 0.6516861533711
outer loop
vertex 155.5384571180883 157.8302609502948 79.1534802357389
vertex 154.3944448845128 156.4692591927315 79.3729553364554
vertex 155.5716339925287 155.9120207472955 77.8742521775093
endloop
endfacet
facet normal -0.9490336321413 -0.2853201365704 -0.1338939309013
outer loop
vertex 150.0918117692066 157.0830503782550 80.9934805362136
vertex 150.4403452563581 155.9793968011998 80.8749134600541
vertex 150.1869073438887 156.3815555858201 81.8142921338719
endloop
endfacet
facet normal -0.3485331106990 -0.8467844174248 0.4018467632730
outer loop
vertex 151.6103530505643 155.2529492010991 81.2561381061607
vertex 150.5794648971921 156.2810750309119 82.5285193312707
vertex 150.8307219346989 155.6064781940953 81.3249095556099
endloop
endfacet
facet normal -0.7386810079953 -0.6684335769783 0.0868730199486
outer loop
vertex 150.1869073438887 156.3815555858201 81.8142921338719
vertex 150.4403452563581 155.9793968011998 80.8749134600541
vertex 150.8307219346989 155.6064781940953 81.3249095556099
endloop
endfacet
facet normal -0.3603993638297 -0.8634425645935 0.3529578391243
outer loop
vertex 151.0197818668356 154.9875035928320 80.0037547711681
vertex 151.6103530505643 155.2529492010991 81.2561381061607
vertex 150.8307219346989 155.6064781940953 81.3249095556099
endloop
endfacet
facet normal -0.2322220435152 -0.4658025753127 0.8538740441879
outer loop
vertex 150.5794648971921 156.2810750309119 82.5285193312707
vertex 151.3265475665976 156.5771198552911 82.8931954891742
vertex 150.6188216356746 157.2213090005768 83.0521362625338
endloop
endfacet
facet normal 0.6067296762131 -0.6257833837961 0.4901777805726
outer loop
vertex 153.7732522321945 154.7119724305475 78.5682071062381
vertex 154.5826682237685 153.8445008917928 76.4588785761887
vertex 155.5716339925287 155.9120207472955 77.8742521775093
endloop
endfacet
facet normal 0.5812362099659 -0.4996077176351 0.6423056878962
outer loop
vertex 154.3944448845128 156.4692591927315 79.3729553364554
vertex 153.7732522321945 154.7119724305475 78.5682071062381
vertex 155.5716339925287 155.9120207472955 77.8742521775093
endloop
endfacet
facet normal 0.6780746243594 -0.5412535198349 0.4972518788967
outer loop
vertex 152.9869629319076 157.6088297196447 82.7384141846610
vertex 152.3464608940231 155.6708582335860 81.5023691629857
vertex 153.3865532249261 156.0903173003802 80.5406301720578
endloop
endfacet
facet normal -0.0098886176560 -0.2749734134059 0.9614009762637
outer loop
vertex 151.7921930959265 159.7500083084065 84.5921075654342
vertex 151.2651103438718 159.0074199868641 84.3742960897773
vertex 151.9024217269697 158.9755910184261 84.3717477342401
endloop
endfacet
facet normal -0.6891162576045 -0.2083650274176 0.6940481243072
outer loop
vertex 151.2651103438718 159.0074199868641 84.3742960897773
vertex 150.6388596417742 158.5688499421573 83.6208293181992
vertex 151.1587256655651 157.7826199133944 83.9009616036439
endloop
endfacet
facet normal -0.4039284758556 0.3192735028262 0.8572667127482
outer loop
vertex 152.2581560595259 161.4133910367258 84.2931767869584
vertex 151.8421265691598 162.2048081598056 83.8024022487891
vertex 151.2779874246934 160.3279047925440 84.2356089068974
endloop
endfacet
facet normal -0.6212389590752 -0.7678381963973 0.1564821391739
outer loop
vertex 151.9063512916223 153.9722174832503 78.3678926749454
vertex 151.6451719123938 153.8070474173968 76.5205336557391
vertex 152.7406421805665 152.9725788249976 76.7749521495662
endloop
endfacet
facet normal -0.7065191938366 -0.7076760278214 0.0050267670973
outer loop
vertex 152.4574583188336 152.8930560058789 75.1885898158327
vertex 150.9070184283426 154.4365291430315 74.5646096886670
vertex 152.0923757621939 153.2479844989428 73.8431032759076
endloop
endfacet
facet normal 0.1797581459426 -0.7148157208450 0.6758146892456
outer loop
vertex 151.6103530505643 155.2529492010991 81.2561381061607
vertex 152.3504192579404 154.4975009896929 80.2602450043676
vertex 152.3464608940231 155.6708582335860 81.5023691629857
endloop
endfacet
facet normal -0.9632407082854 -0.1968150426093 0.1828419451453
outer loop
vertex 149.6368833409341 159.7915918746926 80.0396281293968
vertex 149.9502099093158 157.7715711418219 79.5158885636042
vertex 149.9936110656635 158.9194254401463 80.9801081276764
endloop
endfacet
facet normal -0.6453536160120 -0.6745836276202 0.3584070864910
outer loop
vertex 149.8525428559449 157.0840258768448 77.5441039915115
vertex 149.2649225862026 157.0075282571595 76.3420437534460
vertex 149.6089652051422 156.1152278048268 75.2820699354442
endloop
endfacet
facet normal 0.7811869874798 -0.2522281123822 0.5710760631618
outer loop
vertex 154.3777021272306 158.4828700880754 81.0295404220549
vertex 155.5384571180883 157.8302609502948 79.1534802357389
vertex 155.3805694592987 159.9143285346843 80.2899316811459
endloop
endfacet
facet normal -0.3992930349335 -0.9074126175805 -0.1310244775194
outer loop
vertex 153.5194997773433 152.5446126090563 74.3652030376780
vertex 152.4574583188336 152.8930560058789 75.1885898158327
vertex 152.0923757621939 153.2479844989428 73.8431032759076
endloop
endfacet
facet normal 0.7093253987818 -0.6246656741662 0.3265735356111
outer loop
vertex 154.5826682237685 153.8445008917928 76.4588785761887
vertex 154.0125532657238 152.7673679661826 75.6368556138136
vertex 154.8313487718412 153.3219206273244 74.9191537445362
endloop
endfacet
facet normal -0.3827357968162 -0.8505130875460 0.3607503260546
outer loop
vertex 151.6103530505643 155.2529492010991 81.2561381061607
vertex 151.0197818668356 154.9875035928320 80.0037547711681
vertex 152.3504192579404 154.4975009896929 80.2602450043676
endloop
endfacet
facet normal 0.0030126510990 -0.8810527557367 0.4730084201599
outer loop
vertex 153.4426778378223 152.6340045163431 76.1398327661638
vertex 153.4277584564733 153.2886742442839 77.3593533713050
vertex 152.7406421805665 152.9725788249976 76.7749521495662
endloop
endfacet
facet normal -0.6554259284018 -0.7089099254570 0.2605063722199
outer loop
vertex 150.5794648971921 156.2810750309119 82.5285193312707
vertex 150.1869073438887 156.3815555858201 81.8142921338719
vertex 150.8307219346989 155.6064781940953 81.3249095556099
endloop
endfacet
facet normal -0.7770479779926 -0.6053650796295 0.1724226210878
outer loop
vertex 150.4403452563581 155.9793968011998 80.8749134600541
vertex 151.0197818668356 154.9875035928320 80.0037547711681
vertex 150.8307219346989 155.6064781940953 81.3249095556099
endloop
endfacet
facet normal -0.6287080171428 -0.7631148197707 0.1496061530377
outer loop
vertex 152.5918689556874 153.4236151881760 78.4504020471116
vertex 151.9063512916223 153.9722174832503 78.3678926749454
vertex 152.7406421805665 152.9725788249976 76.7749521495662
endloop
endfacet
facet normal -0.7284121306885 0.2099605042626 0.6521750949827
outer loop
vertex 150.7962912406830 162.4624721672278 82.5513602952239
vertex 151.8421265691598 162.2048081598056 83.8024022487891
vertex 152.0269910783634 164.0989034088143 83.3990939277737
endloop
endfacet
facet normal -0.8622060610799 -0.2542685871782 0.4381189265617
outer loop
vertex 150.5794648971921 156.2810750309119 82.5285193312707
vertex 150.0382975198357 157.6770467114347 82.2736888752018
vertex 150.1869073438887 156.3815555858201 81.8142921338719
endloop
endfacet
facet normal -0.9960892325070 -0.0527500386088 0.0708778830831
outer loop
vertex 149.9502099093158 157.7715711418219 79.5158885636042
vertex 150.0918117692066 157.0830503782550 80.9934805362136
vertex 149.9936110656635 158.9194254401463 80.9801081276764
endloop
endfacet
facet normal 0.2776137810731 -0.9587975658358 0.0603143126105
outer loop
vertex 153.4426778378223 152.6340045163431 76.1398327661638
vertex 153.5194997773433 152.5446126090563 74.3652030376780
vertex 154.0125532657238 152.7673679661826 75.6368556138136
endloop
endfacet
facet normal -0.8139146669130 -0.5723702196217 0.0996757075424
outer loop
vertex 151.6451719123938 153.8070474173968 76.5205336557391
vertex 151.0868684439532 154.8883372821703 78.1707525493746
vertex 150.5145118618158 155.3274179043870 76.0184453320437
endloop
endfacet
facet normal -0.7137341662465 -0.6990083425685 0.0443945599369
outer loop
vertex 152.4574583188336 152.8930560058789 75.1885898158327
vertex 151.6451719123938 153.8070474173968 76.5205336557391
vertex 150.9070184283426 154.4365291430315 74.5646096886670
endloop
endfacet
facet normal -0.9144779772386 -0.3658517037563 0.1728657282520
outer loop
vertex 149.8525428559449 157.0840258768448 77.5441039915115
vertex 150.4378865958867 156.1897913382035 78.7480831253521
vertex 149.9502099093158 157.7715711418219 79.5158885636042
endloop
endfacet
facet normal -0.8783164112405 -0.4719186187325 0.0765055490750
outer loop
vertex 149.8525428559449 157.0840258768448 77.5441039915115
vertex 151.0868684439532 154.8883372821703 78.1707525493746
vertex 150.4378865958867 156.1897913382035 78.7480831253521
endloop
endfacet
facet normal -0.8401514501173 -0.2366099461156 0.4880176987211
outer loop
vertex 150.0382975198357 157.6770467114347 82.2736888752018
vertex 150.5794648971921 156.2810750309119 82.5285193312707
vertex 150.6188216356746 157.2213090005768 83.0521362625338
endloop
endfacet
facet normal -0.7296651699555 -0.2566359947504 0.6338191429361
outer loop
vertex 151.1587256655651 157.7826199133944 83.9009616036439
vertex 150.6388596417742 158.5688499421573 83.6208293181992
vertex 150.6188216356746 157.2213090005768 83.0521362625338
endloop
endfacet
facet normal 0.6806134676504 -0.5315055459164 0.5042491073993
outer loop
vertex 152.3464608940231 155.6708582335860 81.5023691629857
vertex 152.3504192579404 154.4975009896929 80.2602450043676
vertex 153.3865532249261 156.0903173003802 80.5406301720578
endloop
endfacet
facet normal -0.6208858105315 -0.7695304712309 0.1494110575821
outer loop
vertex 151.6451719123938 153.8070474173968 76.5205336557391
vertex 152.4574583188336 152.8930560058789 75.1885898158327
vertex 152.7406421805665 152.9725788249976 76.7749521495662
endloop
endfacet
facet normal -0.9103810245053 0.1031944378282 0.4006960172276
outer loop
vertex 150.5695403555989 160.9905947834688 82.5408660133288
vertex 150.0921434787500 160.9024945452177 81.4789098545763
vertex 150.2697339215870 159.6732116136616 82.1989822235067
endloop
endfacet
facet normal -0.9491393458520 0.1432368382691 0.2803884989051
outer loop
vertex 150.5695403555989 160.9905947834688 82.5408660133288
vertex 150.2697339215870 159.6732116136616 82.1989822235067
vertex 150.7234695826330 159.9158534557621 83.6109628138898
endloop
endfacet
facet normal 0.5748905166370 -0.6665025464637 0.4746316987289
outer loop
vertex 154.5826682237685 153.8445008917928 76.4588785761887
vertex 153.4426778378223 152.6340045163431 76.1398327661638
vertex 154.0125532657238 152.7673679661826 75.6368556138136
endloop
endfacet
facet normal -0.8380568387857 -0.2015064890801 0.5070067749282
outer loop
vertex 150.6388596417742 158.5688499421573 83.6208293181992
vertex 150.0382975198357 157.6770467114347 82.2736888752018
vertex 150.6188216356746 157.2213090005768 83.0521362625338
endloop
endfacet
facet normal -0.9712600589100 -0.2373742476919 -0.0175318139059
outer loop
vertex 150.2475365859060 156.5077116528867 80.1562199071852
vertex 150.0918117692066 157.0830503782550 80.9934805362136
vertex 149.9502099093158 157.7715711418219 79.5158885636042
endloop
endfacet
facet normal -0.8583396146360 0.2950270299778 0.4197763184470
outer loop
vertex 151.1260063709891 161.4425266422976 83.3610759585188
vertex 150.5695403555989 160.9905947834688 82.5408660133288
vertex 150.7234695826330 159.9158534557621 83.6109628138898
endloop
endfacet
facet normal -0.7638030901036 0.0526891045946 0.6432951871460
outer loop
vertex 150.7234695826330 159.9158534557621 83.6109628138898
vertex 150.6388596417742 158.5688499421573 83.6208293181992
vertex 151.2779874246934 160.3279047925440 84.2356089068974
endloop
endfacet
facet normal 0.3383855933676 -0.6554224296097 0.6752159869004
outer loop
vertex 152.1484516212848 157.6219534942892 83.4955018901829
vertex 151.3265475665976 156.5771198552911 82.8931954891742
vertex 152.3464608940231 155.6708582335860 81.5023691629857
endloop
endfacet
facet normal -0.9741187654445 -0.0084147920445 0.2258801055509
outer loop
vertex 150.2697339215870 159.6732116136616 82.1989822235067
vertex 150.0921434787500 160.9024945452177 81.4789098545763
vertex 149.9936110656635 158.9194254401463 80.9801081276764
endloop
endfacet
facet normal -0.8028843234466 0.2963597458089 0.5172500983352
outer loop
vertex 151.1260063709891 161.4425266422976 83.3610759585188
vertex 150.7234695826330 159.9158534557621 83.6109628138898
vertex 151.2779874246934 160.3279047925440 84.2356089068974
endloop
endfacet
facet normal -0.7341373897121 0.3543455041391 0.5792076973963
outer loop
vertex 151.8421265691598 162.2048081598056 83.8024022487891
vertex 151.1260063709891 161.4425266422976 83.3610759585188
vertex 151.2779874246934 160.3279047925440 84.2356089068974
endloop
endfacet
facet normal -0.7050662735548 0.2869132508638 0.6485077766490
outer loop
vertex 150.7962912406830 162.4624721672278 82.5513602952239
vertex 151.1260063709891 161.4425266422976 83.3610759585188
vertex 151.8421265691598 162.2048081598056 83.8024022487891
endloop
endfacet
facet normal -0.9984239772645 -0.0535141256782 -0.0169056196651
outer loop
vertex 149.9936110656635 158.9194254401463 80.9801081276764
vertex 150.0918117692066 157.0830503782550 80.9934805362136
vertex 150.0382975198357 157.6770467114347 82.2736888752018
endloop
endfacet
facet normal -0.9816714508005 0.1193754468760 0.1485619916616
outer loop
vertex 150.2697339215870 159.6732116136616 82.1989822235067
vertex 149.9936110656635 158.9194254401463 80.9801081276764
vertex 150.0382975198357 157.6770467114347 82.2736888752018
endloop
endfacet
facet normal -0.6242385898916 -0.5611271953653 0.5435645808105
outer loop
vertex 149.0658643400130 157.9172541473162 77.5008192636149
vertex 149.8525428559449 157.0840258768448 77.5441039915115
vertex 149.4736775045546 158.3845949158905 78.4515992587941
endloop
endfacet
facet normal -0.9313236963894 -0.2197563943174 0.2904191792912
outer loop
vertex 149.4736775045546 158.3845949158905 78.4515992587941
vertex 149.9502099093158 157.7715711418219 79.5158885636042
vertex 149.6368833409341 159.7915918746926 80.0396281293968
endloop
endfacet
facet normal -0.6271596195698 -0.7547297139271 0.1924938193724
outer loop
vertex 152.1357505436257 154.0801781831102 79.5385853053448
vertex 151.9063512916223 153.9722174832503 78.3678926749454
vertex 152.5918689556874 153.4236151881760 78.4504020471116
endloop
endfacet
endsolid WRAP
