solid WRAP
facet normal -0.8383028385296 0.5438965897750 -0.0377471925347
outer loop
vertex 180.7788000000000 167.7414000000000 47.0776200000000
vertex 179.7609000000000 166.0962000000000 45.9779300000000
vertex 179.8486000000000 166.3787000000000 48.1007800000000
endloop
endfacet
facet normal -0.5267235834919 0.1291095778750 -0.8401743768376
outer loop
vertex 180.5152000000000 155.1489900000000 35.6607500000000
vertex 180.9006000000000 153.8682300000000 35.2223200000000
vertex 179.6383000000000 153.9132400000000 36.0206000000000
endloop
endfacet
facet normal -0.5204336662422 0.1858653222783 -0.8334283898548
outer loop
vertex 179.6383000000000 153.9132400000000 36.0206000000000
vertex 180.9006000000000 153.8682300000000 35.2223200000000
vertex 180.2896000000000 152.5380900000000 35.3072200000000
endloop
endfacet
facet normal -0.7288735015271 0.1350567736089 -0.6711952671719
outer loop
vertex 179.5298000000000 150.9331700000001 35.5950300000000
vertex 178.7050000000000 149.4146300000000 36.1851500000000
vertex 178.2611000000000 150.8921500000000 36.9645000000000
endloop
endfacet
facet normal -0.6425780686662 0.1364982939465 -0.7539639523339
outer loop
vertex 179.8958000000000 156.4508300000000 36.4243300000000
vertex 180.5152000000000 155.1489900000000 35.6607500000000
vertex 179.4084000000000 155.1386700000000 36.6021700000000
endloop
endfacet
facet normal -0.6313877843235 0.2326226372709 -0.7397541310707
outer loop
vertex 180.5152000000000 155.1489900000000 35.6607500000000
vertex 179.6383000000000 153.9132400000000 36.0206000000000
vertex 179.4084000000000 155.1386700000000 36.6021700000000
endloop
endfacet
facet normal -0.6395346393009 0.1682481681000 -0.7501253222397
outer loop
vertex 180.2896000000000 152.5380900000000 35.3072200000000
vertex 179.5298000000000 150.9331700000001 35.5950300000000
vertex 178.8826000000000 152.4716300000000 36.4918800000000
endloop
endfacet
facet normal -0.6439732455419 0.0891756388202 -0.7598329845876
outer loop
vertex 179.6383000000000 153.9132400000000 36.0206000000000
vertex 180.2896000000000 152.5380900000000 35.3072200000000
vertex 178.8826000000000 152.4716300000000 36.4918800000000
endloop
endfacet
facet normal -0.7321509753618 0.0859020991841 -0.6757039134358
outer loop
vertex 179.5298000000000 150.9331700000001 35.5950300000000
vertex 178.2611000000000 150.8921500000000 36.9645000000000
vertex 178.8826000000000 152.4716300000000 36.4918800000000
endloop
endfacet
facet normal -0.8136828010608 0.1008014197074 -0.5725027275419
outer loop
vertex 178.7050000000000 149.4146300000000 36.1851500000000
vertex 177.8637000000000 148.2180300000000 37.1701800000000
vertex 177.8426000000000 149.6110500000000 37.4454400000000
endloop
endfacet
facet normal -0.6439150996008 -0.0245042188677 -0.7647044447130
outer loop
vertex 179.0866000000000 147.6873700000000 35.8713100000000
vertex 179.3379000000000 145.9071400000000 35.7167500000000
vertex 177.9220000000000 146.4601500000000 36.8912800000000
endloop
endfacet
facet normal -0.5540694967650 0.2605961524271 -0.7906305319773
outer loop
vertex 177.9220000000000 146.4601500000000 36.8912800000000
vertex 179.3379000000000 145.9071400000000 35.7167500000000
vertex 177.9362000000000 144.6866700000000 36.2967800000000
endloop
endfacet
facet normal -0.7355337065487 -0.0396121834627 -0.6763290925667
outer loop
vertex 177.8637000000000 148.2180300000000 37.1701800000000
vertex 178.7050000000000 149.4146300000000 36.1851500000000
vertex 179.0866000000000 147.6873700000000 35.8713100000000
endloop
endfacet
facet normal -0.7336393977831 0.1838444612949 -0.6541975604293
outer loop
vertex 179.8958000000000 156.4508300000000 36.4243300000000
vertex 179.4084000000000 155.1386700000000 36.6021700000000
vertex 178.7803000000000 155.9787700000000 37.5426300000000
endloop
endfacet
facet normal -0.7070955574665 0.0878688975775 -0.7016373204510
outer loop
vertex 177.8637000000000 148.2180300000000 37.1701800000000
vertex 179.0866000000000 147.6873700000000 35.8713100000000
vertex 177.9220000000000 146.4601500000000 36.8912800000000
endloop
endfacet
facet normal -0.8464848345582 0.1708154008978 -0.5042673137128
outer loop
vertex 177.1559000000000 148.9405800000000 38.6030800000000
vertex 177.8637000000000 148.2180300000000 37.1701800000000
vertex 176.9145000000000 147.1591700000001 38.4048700000000
endloop
endfacet
facet normal -0.8770089054602 0.0803213938367 -0.4737128385801
outer loop
vertex 177.8426000000000 149.6110500000000 37.4454400000000
vertex 177.8637000000000 148.2180300000000 37.1701800000000
vertex 177.1559000000000 148.9405800000000 38.6030800000000
endloop
endfacet
facet normal -0.8039154137989 0.1251187889925 -0.5814338277892
outer loop
vertex 179.4084000000000 155.1386700000000 36.6021700000000
vertex 179.6383000000000 153.9132400000000 36.0206000000000
vertex 178.5036000000000 154.1493800000000 37.6403000000000
endloop
endfacet
facet normal -0.4648910490507 0.1591838562835 -0.8709401887680
outer loop
vertex 181.4517000000000 156.5197100000000 35.6064100000000
vertex 179.8958000000000 156.4508300000000 36.4243300000000
vertex 180.6454000000000 158.1810800000000 36.3404500000000
endloop
endfacet
facet normal -0.7834010975646 0.2207267995532 -0.5810012050707
outer loop
vertex 179.6383000000000 153.9132400000000 36.0206000000000
vertex 178.8826000000000 152.4716300000000 36.4918800000000
vertex 178.5036000000000 154.1493800000000 37.6403000000000
endloop
endfacet
facet normal -0.8168925599819 0.0638570042363 -0.5732441264035
outer loop
vertex 177.8637000000000 148.2180300000000 37.1701800000000
vertex 177.9220000000000 146.4601500000000 36.8912800000000
vertex 176.9145000000000 147.1591700000001 38.4048700000000
endloop
endfacet
facet normal -0.7248975864889 0.0975139116421 -0.6819197358478
outer loop
vertex 179.8958000000000 156.4508300000000 36.4243300000000
vertex 178.7803000000000 155.9787700000000 37.5426300000000
vertex 179.0924000000000 157.5891300000000 37.4411400000000
endloop
endfacet
facet normal -0.8201234954782 0.0540672739338 -0.5696263530192
outer loop
vertex 178.2611000000000 150.8921500000000 36.9645000000000
vertex 178.7050000000000 149.4146300000000 36.1851500000000
vertex 177.8426000000000 149.6110500000000 37.4454400000000
endloop
endfacet
facet normal -0.8957797587826 0.1334553420614 -0.4239909143255
outer loop
vertex 178.2611000000000 150.8921500000000 36.9645000000000
vertex 177.8426000000000 149.6110500000000 37.4454400000000
vertex 177.4923000000000 150.5680000000000 38.4867400000000
endloop
endfacet
facet normal -0.8947891906521 0.1538318517483 -0.4191516022632
outer loop
vertex 178.2611000000000 150.8921500000000 36.9645000000000
vertex 177.4923000000000 150.5680000000000 38.4867400000000
vertex 177.9268000000000 152.2435900000000 38.1741400000000
endloop
endfacet
facet normal -0.8899621482622 0.1109938550626 -0.4423208550350
outer loop
vertex 178.7803000000000 155.9787700000000 37.5426300000000
vertex 178.5036000000000 154.1493800000000 37.6403000000000
vertex 178.0088000000000 155.5564300000000 38.9889300000000
endloop
endfacet
facet normal -0.8631659171140 0.2010509198243 -0.4631664141220
outer loop
vertex 178.8826000000000 152.4716300000000 36.4918800000000
vertex 178.2611000000000 150.8921500000000 36.9645000000000
vertex 177.9268000000000 152.2435900000000 38.1741400000000
endloop
endfacet
facet normal -0.7271532090158 0.2129443177924 -0.6526123873617
outer loop
vertex 177.9220000000000 146.4601500000000 36.8912800000000
vertex 177.9362000000000 144.6866700000000 36.2967800000000
vertex 176.4978000000000 145.0792200000001 38.0275600000000
endloop
endfacet
facet normal -0.7437988138907 0.2606641082953 -0.6154815570766
outer loop
vertex 176.9145000000000 147.1591700000001 38.4048700000000
vertex 177.9220000000000 146.4601500000000 36.8912800000000
vertex 176.4978000000000 145.0792200000001 38.0275600000000
endloop
endfacet
facet normal -0.6197980491611 0.2321755039697 -0.7496298510682
outer loop
vertex 180.6454000000000 158.1810800000000 36.3404500000000
vertex 179.8958000000000 156.4508300000000 36.4243300000000
vertex 179.0924000000000 157.5891300000000 37.4411400000000
endloop
endfacet
facet normal -0.8724794156962 0.1395799080776 -0.4682917023048
outer loop
vertex 179.0924000000000 157.5891300000000 37.4411400000000
vertex 178.7803000000000 155.9787700000000 37.5426300000000
vertex 178.3854000000000 156.9206800000000 38.5591200000000
endloop
endfacet
facet normal -0.8898661098735 0.1058340148773 -0.4437763713781
outer loop
vertex 178.7803000000000 155.9787700000000 37.5426300000000
vertex 178.0088000000000 155.5564300000000 38.9889300000000
vertex 178.3854000000000 156.9206800000000 38.5591200000000
endloop
endfacet
facet normal -0.8695673218016 0.1297129770877 -0.4764737311016
outer loop
vertex 178.5036000000000 154.1493800000000 37.6403000000000
vertex 178.8826000000000 152.4716300000000 36.4918800000000
vertex 177.9268000000000 152.2435900000000 38.1741400000000
endloop
endfacet
facet normal -0.8861936399487 0.1518922094671 -0.4377094803837
outer loop
vertex 177.8426000000000 149.6110500000000 37.4454400000000
vertex 177.1559000000000 148.9405800000000 38.6030800000000
vertex 177.4923000000000 150.5680000000000 38.4867400000000
endloop
endfacet
facet normal -0.4795026809189 0.3720473217854 -0.7947691295866
outer loop
vertex 180.8742000000000 159.7524300000000 36.9379900000000
vertex 180.6454000000000 158.1810800000000 36.3404500000000
vertex 179.4858000000000 159.2969400000000 37.5624200000000
endloop
endfacet
facet normal -0.6156631918244 0.1960215564086 -0.7632394012731
outer loop
vertex 180.6454000000000 158.1810800000000 36.3404500000000
vertex 179.0924000000000 157.5891300000000 37.4411400000000
vertex 179.4858000000000 159.2969400000000 37.5624200000000
endloop
endfacet
facet normal -0.9112258464312 0.1659588829672 -0.3769948354554
outer loop
vertex 177.9268000000000 152.2435900000000 38.1741400000000
vertex 177.4923000000000 150.5680000000000 38.4867400000000
vertex 177.2337000000000 151.6758300000000 39.5994800000000
endloop
endfacet
facet normal -0.8705790121803 0.2511637576404 -0.4230944934634
outer loop
vertex 176.9145000000000 147.1591700000001 38.4048700000000
vertex 176.4978000000000 145.0792200000001 38.0275600000000
vertex 175.9180000000000 146.1824000000000 39.8754700000000
endloop
endfacet
facet normal -0.8708482770303 0.2723061927193 -0.4092341821013
outer loop
vertex 176.9145000000000 147.1591700000001 38.4048700000000
vertex 175.9180000000000 146.1824000000000 39.8754700000000
vertex 176.4079000000000 148.0191400000000 40.0551400000000
endloop
endfacet
facet normal -0.4833258491811 0.4209829608166 -0.7675737555541
outer loop
vertex 180.8742000000000 159.7524300000000 36.9379900000000
vertex 179.4858000000000 159.2969400000000 37.5624200000000
vertex 180.2994000000000 160.8461300000000 37.8997800000000
endloop
endfacet
facet normal -0.9249691432771 0.1667859715988 -0.3414886874600
outer loop
vertex 177.4923000000000 150.5680000000000 38.4867400000000
vertex 177.1559000000000 148.9405800000000 38.6030800000000
vertex 176.7429000000001 150.0286500000000 40.2531700000000
endloop
endfacet
facet normal -0.8482750319042 0.2293011566629 -0.4773368305516
outer loop
vertex 179.4858000000000 159.2969400000000 37.5624200000000
vertex 179.0924000000000 157.5891300000000 37.4411400000000
vertex 178.4401000000000 158.4827800000000 39.0296300000000
endloop
endfacet
facet normal -0.8753821817115 0.1672704018722 -0.4535709962062
outer loop
vertex 179.0924000000000 157.5891300000000 37.4411400000000
vertex 178.3854000000000 156.9206800000000 38.5591200000000
vertex 178.4401000000000 158.4827800000000 39.0296300000000
endloop
endfacet
facet normal -0.9111274429086 0.1330265639961 -0.3900650151581
outer loop
vertex 177.9268000000000 152.2435900000000 38.1741400000000
vertex 177.2337000000000 151.6758300000000 39.5994800000000
vertex 177.3708000000000 153.6869700000000 39.9651100000000
endloop
endfacet
facet normal -0.9155029930182 0.1648913188932 -0.3669674682153
outer loop
vertex 177.1559000000000 148.9405800000000 38.6030800000000
vertex 176.9145000000000 147.1591700000001 38.4048700000000
vertex 176.4079000000000 148.0191400000000 40.0551400000000
endloop
endfacet
facet normal -0.8996571697501 0.1583132205018 -0.4068831541505
outer loop
vertex 178.5036000000000 154.1493800000000 37.6403000000000
vertex 177.9268000000000 152.2435900000000 38.1741400000000
vertex 177.3708000000000 153.6869700000000 39.9651100000000
endloop
endfacet
facet normal -0.9022544042756 0.0874310906626 -0.4222473142021
outer loop
vertex 178.0088000000000 155.5564300000000 38.9889300000000
vertex 178.5036000000000 154.1493800000000 37.6403000000000
vertex 177.3708000000000 153.6869700000000 39.9651100000000
endloop
endfacet
facet normal -0.7069621093996 0.4898731222453 -0.5101263568715
outer loop
vertex 179.7785000000000 161.9970500000000 39.2843300000000
vertex 178.8911000000000 160.3621200000000 38.9441200000000
vertex 178.4452000000000 161.3178200000000 40.4798300000000
endloop
endfacet
facet normal -0.2962473168492 0.6526995509942 -0.6972953630934
outer loop
vertex 181.5548000000000 162.0063600000000 38.5383800000000
vertex 179.7785000000000 161.9970500000000 39.2843300000000
vertex 181.1292000000000 163.2595300000000 39.8922200000000
endloop
endfacet
facet normal -0.6249014737951 0.4647832347069 -0.6272756115011
outer loop
vertex 180.2994000000000 160.8461300000000 37.8997800000000
vertex 179.4858000000000 159.2969400000000 37.5624200000000
vertex 178.8911000000000 160.3621200000000 38.9441200000000
endloop
endfacet
facet normal -0.9462227562529 0.1345085892401 -0.2942276923911
outer loop
vertex 176.7186000000000 151.8608000000000 41.1689000000000
vertex 176.7429000000001 150.0286500000000 40.2531700000000
vertex 176.1885000000000 150.3955800000000 42.2038400000000
endloop
endfacet
facet normal -0.9340721757715 0.1496554721672 -0.3242104410717
outer loop
vertex 177.2337000000000 151.6758300000000 39.5994800000000
vertex 176.7429000000001 150.0286500000000 40.2531700000000
vertex 176.7186000000000 151.8608000000000 41.1689000000000
endloop
endfacet
facet normal -0.2865677670673 0.6809900569592 -0.6738927638733
outer loop
vertex 180.2994000000000 160.8461300000000 37.8997800000000
vertex 179.7785000000000 161.9970500000000 39.2843300000000
vertex 181.5548000000000 162.0063600000000 38.5383800000000
endloop
endfacet
facet normal -0.9457603982773 0.1748074282717 -0.2738240896479
outer loop
vertex 178.3854000000000 156.9206800000000 38.5591200000000
vertex 178.0088000000000 155.5564300000000 38.9889300000000
vertex 177.9918000000000 156.9531300000000 39.9392900000000
endloop
endfacet
facet normal -0.9385917024869 0.1226166090451 -0.3225070281544
outer loop
vertex 177.3708000000000 153.6869700000000 39.9651100000000
vertex 177.2337000000000 151.6758300000000 39.5994800000000
vertex 176.7186000000000 151.8608000000000 41.1689000000000
endloop
endfacet
facet normal -0.9262620326243 0.1365954457746 -0.3512553645318
outer loop
vertex 177.2337000000000 151.6758300000000 39.5994800000000
vertex 177.4923000000000 150.5680000000000 38.4867400000000
vertex 176.7429000000001 150.0286500000000 40.2531700000000
endloop
endfacet
facet normal -0.9401036039756 0.1849418355974 -0.2863594441221
outer loop
vertex 176.7429000000001 150.0286500000000 40.2531700000000
vertex 176.4079000000000 148.0191400000000 40.0551400000000
vertex 176.0519000000000 148.7569100000000 41.7003500000000
endloop
endfacet
facet normal -0.9168558247348 0.2730362333700 -0.2912500848360
outer loop
vertex 176.4079000000000 148.0191400000000 40.0551400000000
vertex 175.9180000000000 146.1824000000000 39.8754700000000
vertex 175.6578000000000 147.0679600000000 41.5247600000000
endloop
endfacet
facet normal -0.7082845822616 0.4811396781827 -0.5165632203407
outer loop
vertex 179.7785000000000 161.9970500000000 39.2843300000000
vertex 178.4452000000000 161.3178200000000 40.4798300000000
vertex 179.3475000000000 163.2003200000000 40.9960500000000
endloop
endfacet
facet normal -0.8455048938365 0.1800294386072 -0.5027035664618
outer loop
vertex 179.4858000000000 159.2969400000000 37.5624200000000
vertex 178.4401000000000 158.4827800000000 39.0296300000000
vertex 178.8911000000000 160.3621200000000 38.9441200000000
endloop
endfacet
facet normal -0.9544175385075 0.1162263534498 -0.2749156178775
outer loop
vertex 178.4401000000000 158.4827800000000 39.0296300000000
vertex 178.3854000000000 156.9206800000000 38.5591200000000
vertex 177.9918000000000 156.9531300000000 39.9392900000000
endloop
endfacet
facet normal -0.9165796386786 0.1875985105731 -0.3531126800195
outer loop
vertex 177.1559000000000 148.9405800000000 38.6030800000000
vertex 176.4079000000000 148.0191400000000 40.0551400000000
vertex 176.7429000000001 150.0286500000000 40.2531700000000
endloop
endfacet
facet normal -0.9385560937583 0.2571625064436 -0.2301736391266
outer loop
vertex 177.2230000000000 154.9540500000000 41.9834300000000
vertex 177.3708000000000 153.6869700000000 39.9651100000000
vertex 176.7702000000000 153.3236000000000 42.0081400000000
endloop
endfacet
facet normal -0.9524251864565 0.1762479916598 -0.2486421316654
outer loop
vertex 177.3708000000000 153.6869700000000 39.9651100000000
vertex 176.7186000000000 151.8608000000000 41.1689000000000
vertex 176.7702000000000 153.3236000000000 42.0081400000000
endloop
endfacet
facet normal -0.8842192540120 0.2355524296096 -0.4033253819679
outer loop
vertex 178.4452000000000 161.3178200000000 40.4798300000000
vertex 178.8911000000000 160.3621200000000 38.9441200000000
vertex 178.1644000000000 159.7474200000000 40.1782800000000
endloop
endfacet
facet normal -0.8845226209242 0.1929407332795 -0.4247276851289
outer loop
vertex 178.8911000000000 160.3621200000000 38.9441200000000
vertex 178.4401000000000 158.4827800000000 39.0296300000000
vertex 178.1644000000000 159.7474200000000 40.1782800000000
endloop
endfacet
facet normal -0.9390091988263 0.1701065881643 -0.2988736742886
outer loop
vertex 176.1885000000000 150.3955800000000 42.2038400000000
vertex 176.7429000000001 150.0286500000000 40.2531700000000
vertex 176.0519000000000 148.7569100000000 41.7003500000000
endloop
endfacet
facet normal -0.9184785261062 0.2464711547196 -0.3092719951321
outer loop
vertex 176.0519000000000 148.7569100000000 41.7003500000000
vertex 176.4079000000000 148.0191400000000 40.0551400000000
vertex 175.6578000000000 147.0679600000000 41.5247600000000
endloop
endfacet
facet normal -0.3908833129101 0.7038139450106 -0.5931746509225
outer loop
vertex 181.1292000000000 163.2595300000000 39.8922200000000
vertex 179.7785000000000 161.9970500000000 39.2843300000000
vertex 179.3475000000000 163.2003200000000 40.9960500000000
endloop
endfacet
facet normal -0.4565417936600 0.2784180504497 -0.8450165559476
outer loop
vertex 180.5152000000000 155.1489900000000 35.6607500000000
vertex 179.8958000000000 156.4508300000000 36.4243300000000
vertex 181.4517000000000 156.5197100000000 35.6064100000000
endloop
endfacet
facet normal -0.9555537767372 0.0547941753128 -0.2896801306874
outer loop
vertex 178.1644000000000 159.7474200000000 40.1782800000000
vertex 178.4401000000000 158.4827800000000 39.0296300000000
vertex 177.8737000000000 158.4121700000000 40.8846300000000
endloop
endfacet
facet normal -0.9476603548217 0.1716481776998 -0.2692150719993
outer loop
vertex 177.9918000000000 156.9531300000000 39.9392900000000
vertex 178.0088000000000 155.5564300000000 38.9889300000000
vertex 177.5877000000000 155.5955800000000 40.4962000000000
endloop
endfacet
facet normal -0.9519013516809 0.1085896363037 -0.2865172028963
outer loop
vertex 178.4401000000000 158.4827800000000 39.0296300000000
vertex 177.9918000000000 156.9531300000000 39.9392900000000
vertex 177.8737000000000 158.4121700000000 40.8846300000000
endloop
endfacet
facet normal -0.9807939243342 0.0437634214635 -0.1900737775996
outer loop
vertex 177.8737000000000 158.4121700000000 40.8846300000000
vertex 177.9918000000000 156.9531300000000 39.9392900000000
vertex 177.6493000000000 156.7757800000000 41.6657800000000
endloop
endfacet
facet normal -0.4159304229337 0.6494983719741 -0.6365168875066
outer loop
vertex 181.1292000000000 163.2595300000000 39.8922200000000
vertex 179.3475000000000 163.2003200000000 40.9960500000000
vertex 180.8034000000000 164.2468900000000 41.1126100000000
endloop
endfacet
facet normal -0.9574039364747 0.1547190978448 -0.2438025906032
outer loop
vertex 176.1885000000000 150.3955800000000 42.2038400000000
vertex 176.0519000000000 148.7569100000000 41.7003500000000
vertex 175.7682000000000 149.2320700000000 43.1159700000000
endloop
endfacet
facet normal -0.9457397548119 0.1823162284299 -0.2689555893067
outer loop
vertex 178.0088000000000 155.5564300000000 38.9889300000000
vertex 177.3708000000000 153.6869700000000 39.9651100000000
vertex 177.5877000000000 155.5955800000000 40.4962000000000
endloop
endfacet
facet normal -0.9652789285071 0.2039430343838 -0.1632293751337
outer loop
vertex 178.4452000000000 161.3178200000000 40.4798300000000
vertex 178.1644000000000 159.7474200000000 40.1782800000000
vertex 177.9623000000000 160.0577500000000 41.7611600000000
endloop
endfacet
facet normal -0.9794807988152 0.1332668931178 -0.1511863087422
outer loop
vertex 178.1644000000000 159.7474200000000 40.1782800000000
vertex 177.8737000000000 158.4121700000000 40.8846300000000
vertex 177.9623000000000 160.0577500000000 41.7611600000000
endloop
endfacet
facet normal -0.9695029640863 0.1353916850107 -0.2042867941346
outer loop
vertex 176.2362000000000 152.0442400000000 43.0701200000000
vertex 176.1885000000000 150.3955800000000 42.2038400000000
vertex 175.8178000000000 150.4541000000000 44.0018900000000
endloop
endfacet
facet normal -0.9615045555482 0.2171100825714 -0.1684404990074
outer loop
vertex 177.9918000000000 156.9531300000000 39.9392900000000
vertex 177.5877000000000 155.5955800000000 40.4962000000000
vertex 177.6493000000000 156.7757800000000 41.6657800000000
endloop
endfacet
facet normal -0.9726377581352 0.1579435685683 -0.1703808105325
outer loop
vertex 177.3708000000000 153.6869700000000 39.9651100000000
vertex 177.2230000000000 154.9540500000000 41.9834300000000
vertex 177.5877000000000 155.5955800000000 40.4962000000000
endloop
endfacet
facet normal -0.9608974348870 0.1870326204184 -0.2041933361472
outer loop
vertex 176.1885000000000 150.3955800000000 42.2038400000000
vertex 175.7682000000000 149.2320700000000 43.1159700000000
vertex 175.8178000000000 150.4541000000000 44.0018900000000
endloop
endfacet
facet normal -0.4554793907857 0.6976176407050 -0.5530534801868
outer loop
vertex 180.8034000000000 164.2468900000000 41.1126100000000
vertex 179.9291000000000 164.4124300000000 42.0414700000000
vertex 181.2096000000000 165.4448000000000 42.2891100000000
endloop
endfacet
facet normal -0.7214460003764 0.6171123392534 -0.3141465092629
outer loop
vertex 179.9291000000000 164.4124300000000 42.0414700000000
vertex 179.3475000000000 163.2003200000000 40.9960500000000
vertex 178.8856000000000 163.7042700000000 43.0467800000000
endloop
endfacet
facet normal -0.9524958004876 0.1628005220056 -0.2573863634466
outer loop
vertex 176.7186000000000 151.8608000000000 41.1689000000000
vertex 176.1885000000000 150.3955800000000 42.2038400000000
vertex 176.2362000000000 152.0442400000000 43.0701200000000
endloop
endfacet
facet normal -0.8666326402586 0.4029649283261 -0.2942229314270
outer loop
vertex 178.8856000000000 163.7042700000000 43.0467800000000
vertex 179.3475000000000 163.2003200000000 40.9960500000000
vertex 178.2901000000000 161.8994800000000 42.3290000000000
endloop
endfacet
facet normal -0.9680453649297 0.2001962465187 -0.1510285877509
outer loop
vertex 177.5877000000000 155.5955800000000 40.4962000000000
vertex 177.2230000000000 154.9540500000000 41.9834300000000
vertex 177.6493000000000 156.7757800000000 41.6657800000000
endloop
endfacet
facet normal -0.9733940281879 0.2130958450301 -0.0842272326455
outer loop
vertex 177.6493000000000 156.7757800000000 41.6657800000000
vertex 177.2230000000000 154.9540500000000 41.9834300000000
vertex 177.3709000000000 156.3606900000000 43.8330000000000
endloop
endfacet
facet normal -0.9930495921494 0.0923396384038 -0.0729787552053
outer loop
vertex 177.9623000000000 160.0577500000000 41.7611600000000
vertex 177.8737000000000 158.4121700000000 40.8846300000000
vertex 177.7309000000000 158.4183000000000 42.8355200000000
endloop
endfacet
facet normal -0.9921844237008 0.1012389805392 -0.0729433902758
outer loop
vertex 177.8737000000000 158.4121700000000 40.8846300000000
vertex 177.6493000000000 156.7757800000000 41.6657800000000
vertex 177.7309000000000 158.4183000000000 42.8355200000000
endloop
endfacet
facet normal -0.4738187400622 0.7210136330522 -0.5056037406099
outer loop
vertex 180.4021000000000 166.1184000000000 44.0064300000000
vertex 181.2096000000000 165.4448000000000 42.2891100000000
vertex 179.7854000000000 165.0602700000000 43.0754200000000
endloop
endfacet
facet normal -0.4762199115782 0.7138452649354 -0.5134584048837
outer loop
vertex 181.2096000000000 165.4448000000000 42.2891100000000
vertex 179.9291000000000 164.4124300000000 42.0414700000000
vertex 179.7854000000000 165.0602700000000 43.0754200000000
endloop
endfacet
facet normal -0.8549372753991 0.4699824452040 -0.2195421516095
outer loop
vertex 179.3475000000000 163.2003200000000 40.9960500000000
vertex 178.4452000000000 161.3178200000000 40.4798300000000
vertex 178.2901000000000 161.8994800000000 42.3290000000000
endloop
endfacet
facet normal -0.9645099177706 0.2177263255709 -0.1493849579962
outer loop
vertex 178.4452000000000 161.3178200000000 40.4798300000000
vertex 177.9623000000000 160.0577500000000 41.7611600000000
vertex 178.2901000000000 161.8994800000000 42.3290000000000
endloop
endfacet
facet normal -0.9870625248981 0.1226128742170 -0.1033133825698
outer loop
vertex 177.6493000000000 156.7757800000000 41.6657800000000
vertex 177.3709000000000 156.3606900000000 43.8330000000000
vertex 177.7309000000000 158.4183000000000 42.8355200000000
endloop
endfacet
facet normal -0.9507520201081 0.2689462751473 -0.1540730260130
outer loop
vertex 176.7702000000000 153.3236000000000 42.0081400000000
vertex 176.2362000000000 152.0442400000000 43.0701200000000
vertex 176.6517000000000 154.0082400000000 43.9344700000000
endloop
endfacet
facet normal -0.9384289047983 0.3380213876724 -0.0713633807712
outer loop
vertex 178.8856000000000 163.7042700000000 43.0467800000000
vertex 178.2901000000000 161.8994800000000 42.3290000000000
vertex 178.3165000000000 162.3083600000000 43.9185500000000
endloop
endfacet
facet normal -0.9584688165060 0.2570983134903 -0.1234422333969
outer loop
vertex 176.6517000000000 154.0082400000000 43.9344700000000
vertex 176.2362000000000 152.0442400000000 43.0701200000000
vertex 175.9735000000000 152.1119500000000 45.2508800000000
endloop
endfacet
facet normal -0.9863558217252 0.1626474348587 -0.0254559400280
outer loop
vertex 178.3165000000000 162.3083600000000 43.9185500000000
vertex 178.2901000000000 161.8994800000000 42.3290000000000
vertex 178.0114000000000 160.4566700000000 43.9093000000000
endloop
endfacet
facet normal -0.9839004903651 0.1784001096764 -0.0106407672103
outer loop
vertex 178.2901000000000 161.8994800000000 42.3290000000000
vertex 177.9623000000000 160.0577500000000 41.7611600000000
vertex 178.0114000000000 160.4566700000000 43.9093000000000
endloop
endfacet
facet normal -0.9485482415703 0.2839507201359 -0.1401007564157
outer loop
vertex 177.3709000000000 156.3606900000000 43.8330000000000
vertex 177.2230000000000 154.9540500000000 41.9834300000000
vertex 176.6517000000000 154.0082400000000 43.9344700000000
endloop
endfacet
facet normal -0.9751032408959 0.1843862222766 -0.1231884354508
outer loop
vertex 176.2362000000000 152.0442400000000 43.0701200000000
vertex 175.8178000000000 150.4541000000000 44.0018900000000
vertex 175.9735000000000 152.1119500000000 45.2508800000000
endloop
endfacet
facet normal -0.9255308460321 0.3662742588423 -0.0961031755596
outer loop
vertex 179.2293000000000 164.9372100000000 44.4358000000000
vertex 178.8856000000000 163.7042700000000 43.0467800000000
vertex 178.6066000000000 163.4783300000000 44.8726000000000
endloop
endfacet
facet normal -0.7310927359652 0.6382504071704 -0.2411220213204
outer loop
vertex 180.4021000000000 166.1184000000000 44.0064300000000
vertex 179.7854000000000 165.0602700000000 43.0754200000000
vertex 179.2293000000000 164.9372100000000 44.4358000000000
endloop
endfacet
facet normal -0.7511614382191 0.5073670085960 -0.4222975400367
outer loop
vertex 179.9291000000000 164.4124300000000 42.0414700000000
vertex 178.8856000000000 163.7042700000000 43.0467800000000
vertex 179.7854000000000 165.0602700000000 43.0754200000000
endloop
endfacet
facet normal -0.9904478913770 0.1378557291377 -0.0029618255798
outer loop
vertex 177.9623000000000 160.0577500000000 41.7611600000000
vertex 177.7309000000000 158.4183000000000 42.8355200000000
vertex 178.0114000000000 160.4566700000000 43.9093000000000
endloop
endfacet
facet normal -0.9529491489187 0.2623465000895 -0.1518625479373
outer loop
vertex 177.2230000000000 154.9540500000000 41.9834300000000
vertex 176.7702000000000 153.3236000000000 42.0081400000000
vertex 176.6517000000000 154.0082400000000 43.9344700000000
endloop
endfacet
facet normal -0.9856234964420 0.1621626744709 0.0474298457716
outer loop
vertex 178.3165000000000 162.3083600000000 43.9185500000000
vertex 178.0114000000000 160.4566700000000 43.9093000000000
vertex 178.3210000000000 161.8901100000000 45.4420600000000
endloop
endfacet
facet normal -0.7977559140410 0.5352314652630 -0.2776918799769
outer loop
vertex 179.7854000000000 165.0602700000000 43.0754200000000
vertex 178.8856000000000 163.7042700000000 43.0467800000000
vertex 179.2293000000000 164.9372100000000 44.4358000000000
endloop
endfacet
facet normal -0.9880822267990 0.1511907897318 -0.0288939125785
outer loop
vertex 178.0114000000000 160.4566700000000 43.9093000000000
vertex 177.7309000000000 158.4183000000000 42.8355200000000
vertex 177.6722000000000 158.4401900000000 44.9574200000000
endloop
endfacet
facet normal -0.7311169178291 0.6421159627973 -0.2305539910413
outer loop
vertex 179.7609000000000 166.0962000000000 45.9779300000000
vertex 180.4021000000000 166.1184000000000 44.0064300000000
vertex 179.2293000000000 164.9372100000000 44.4358000000000
endloop
endfacet
facet normal -0.6468453648135 0.7353558755379 -0.2020960423441
outer loop
vertex 180.4021000000000 166.1184000000000 44.0064300000000
vertex 179.7609000000000 166.0962000000000 45.9779300000000
vertex 181.2904000000000 167.2372000000000 45.2341800000000
endloop
endfacet
facet normal -0.9420435896026 0.3187998726012 -0.1045012751989
outer loop
vertex 178.8856000000000 163.7042700000000 43.0467800000000
vertex 178.3165000000000 162.3083600000000 43.9185500000000
vertex 178.6066000000000 163.4783300000000 44.8726000000000
endloop
endfacet
facet normal -0.9848472992799 0.1683998897956 0.0414400074561
outer loop
vertex 178.3210000000000 161.8901100000000 45.4420600000000
vertex 178.0114000000000 160.4566700000000 43.9093000000000
vertex 178.0526000000000 160.1561100000000 46.1098300000000
endloop
endfacet
facet normal -0.9562718717978 0.2771625638773 -0.0934078176241
outer loop
vertex 176.6517000000000 154.0082400000000 43.9344700000000
vertex 175.9735000000000 152.1119500000000 45.2508800000000
vertex 176.4164000000000 153.9126400000000 46.0597100000000
endloop
endfacet
facet normal -0.9811923340929 0.1879415393050 0.0440406780267
outer loop
vertex 178.0114000000000 160.4566700000000 43.9093000000000
vertex 177.6722000000000 158.4401900000000 44.9574200000000
vertex 178.0526000000000 160.1561100000000 46.1098300000000
endloop
endfacet
facet normal -0.9554626679025 0.2896756642518 -0.0563835063192
outer loop
vertex 177.3709000000000 156.3606900000000 43.8330000000000
vertex 176.6517000000000 154.0082400000000 43.9344700000000
vertex 176.9496000000000 155.2718600000000 45.3782900000000
endloop
endfacet
facet normal -0.9416463896076 0.3244423681759 -0.0896617347109
outer loop
vertex 176.6517000000000 154.0082400000000 43.9344700000000
vertex 176.4164000000000 153.9126400000000 46.0597100000000
vertex 176.9496000000000 155.2718600000000 45.3782900000000
endloop
endfacet
facet normal -0.9255218705959 0.3664789787130 -0.0954066308499
outer loop
vertex 179.2293000000000 164.9372100000000 44.4358000000000
vertex 178.6066000000000 163.4783300000000 44.8726000000000
vertex 178.9375000000000 164.5676600000000 45.8469700000000
endloop
endfacet
facet normal -0.9869120345026 0.1586417498477 -0.0289384063007
outer loop
vertex 177.7309000000000 158.4183000000000 42.8355200000000
vertex 177.3709000000000 156.3606900000000 43.8330000000000
vertex 177.6722000000000 158.4401900000000 44.9574200000000
endloop
endfacet
facet normal -0.8769657391357 0.4772362633388 -0.0563617009736
outer loop
vertex 179.7609000000000 166.0962000000000 45.9779300000000
vertex 179.2293000000000 164.9372100000000 44.4358000000000
vertex 178.9375000000000 164.5676600000000 45.8469700000000
endloop
endfacet
facet normal -0.9185503695980 0.3952017255894 0.0089896942419
outer loop
vertex 180.5249000000000 167.9287000000000 49.0633200000000
vertex 179.8486000000000 166.3787000000000 48.1007800000000
vertex 179.9274000000000 166.5203000000000 49.9274500000000
endloop
endfacet
facet normal -0.6641047871700 0.6535672725884 -0.3630628759033
outer loop
vertex 179.7609000000000 166.0962000000000 45.9779300000000
vertex 180.7788000000000 167.7414000000000 47.0776200000000
vertex 181.2904000000000 167.2372000000000 45.2341800000000
endloop
endfacet
facet normal -0.9788780457966 0.1963941888988 0.0568075173205
outer loop
vertex 178.6066000000000 163.4783300000000 44.8726000000000
vertex 178.3165000000000 162.3083600000000 43.9185500000000
vertex 178.3210000000000 161.8901100000000 45.4420600000000
endloop
endfacet
facet normal -0.9848586002673 0.1672878466318 -0.0454787186374
outer loop
vertex 177.6722000000000 158.4401900000000 44.9574200000000
vertex 177.3709000000000 156.3606900000000 43.8330000000000
vertex 177.3405000000000 156.7788600000000 46.0295100000000
endloop
endfacet
facet normal -0.9585482213585 0.2771728078382 -0.0660343995625
outer loop
vertex 177.3709000000000 156.3606900000000 43.8330000000000
vertex 176.9496000000000 155.2718600000000 45.3782900000000
vertex 177.3405000000000 156.7788600000000 46.0295100000000
endloop
endfacet
facet normal -0.9856055216233 0.1361041516796 0.1002866673155
outer loop
vertex 178.6268000000000 163.2742200000000 46.5689800000000
vertex 178.3210000000000 161.8901100000000 45.4420600000000
vertex 178.4730000000000 161.6505700000000 47.2609900000000
endloop
endfacet
facet normal -0.9814094330659 0.1888169041757 0.0344049616591
outer loop
vertex 178.6066000000000 163.4783300000000 44.8726000000000
vertex 178.3210000000000 161.8901100000000 45.4420600000000
vertex 178.6268000000000 163.2742200000000 46.5689800000000
endloop
endfacet
facet normal -0.9125998851996 0.4085141833053 -0.0166616797474
outer loop
vertex 179.8486000000000 166.3787000000000 48.1007800000000
vertex 179.7609000000000 166.0962000000000 45.9779300000000
vertex 179.1464000000000 164.7807900000000 47.3840900000000
endloop
endfacet
facet normal -0.9658592322643 0.2555982386793 0.0422549859044
outer loop
vertex 178.9375000000000 164.5676600000000 45.8469700000000
vertex 178.6066000000000 163.4783300000000 44.8726000000000
vertex 178.6268000000000 163.2742200000000 46.5689800000000
endloop
endfacet
facet normal -0.9764898055771 0.2155592573676 0.0013660772984
outer loop
vertex 178.0526000000000 160.1561100000000 46.1098300000000
vertex 177.6722000000000 158.4401900000000 44.9574200000000
vertex 177.6797000000000 158.4611100000000 47.0174600000000
endloop
endfacet
facet normal -0.9755364157501 0.1921385300248 0.1068245609651
outer loop
vertex 178.3210000000000 161.8901100000000 45.4420600000000
vertex 178.0526000000000 160.1561100000000 46.1098300000000
vertex 178.4730000000000 161.6505700000000 47.2609900000000
endloop
endfacet
facet normal -0.9555789000773 0.2803366424109 0.0909963331614
outer loop
vertex 178.9375000000000 164.5676600000000 45.8469700000000
vertex 178.6268000000000 163.2742200000000 46.5689800000000
vertex 179.1464000000000 164.7807900000000 47.3840900000000
endloop
endfacet
facet normal -0.9804484852003 0.1967696594562 0.0015713007336
outer loop
vertex 177.6722000000000 158.4401900000000 44.9574200000000
vertex 177.3405000000000 156.7788600000000 46.0295100000000
vertex 177.6797000000000 158.4611100000000 47.0174600000000
endloop
endfacet
facet normal -0.9744805259441 0.1595879397620 0.1578587787812
outer loop
vertex 178.6268000000000 163.2742200000000 46.5689800000000
vertex 178.4730000000000 161.6505700000000 47.2609900000000
vertex 178.9263000000000 163.1444200000000 48.5490500000000
endloop
endfacet
facet normal -0.9279355872741 0.3486333032345 0.1318725359813
outer loop
vertex 179.8486000000000 166.3787000000000 48.1007800000000
vertex 179.1464000000000 164.7807900000000 47.3840900000000
vertex 179.4775000000000 164.9759100000000 49.1980700000000
endloop
endfacet
facet normal -0.9566281355901 0.2430251793850 0.1606280560250
outer loop
vertex 179.1464000000000 164.7807900000000 47.3840900000000
vertex 178.6268000000000 163.2742200000000 46.5689800000000
vertex 178.9263000000000 163.1444200000000 48.5490500000000
endloop
endfacet
facet normal -0.9681890838388 0.2436052339455 0.0571523221732
outer loop
vertex 178.0526000000000 160.1561100000000 46.1098300000000
vertex 177.6797000000000 158.4611100000000 47.0174600000000
vertex 178.1428000000000 160.0556600000000 48.0660200000000
endloop
endfacet
facet normal -0.9682240980538 0.2388163594096 -0.0742215765544
outer loop
vertex 177.6797000000000 158.4611100000000 47.0174600000000
vertex 177.3405000000000 156.7788600000000 46.0295100000000
vertex 177.2197000000000 156.8836700000000 47.9425900000000
endloop
endfacet
facet normal -0.9716089982097 0.2297231264954 0.0565971708755
outer loop
vertex 178.4730000000000 161.6505700000000 47.2609900000000
vertex 178.0526000000000 160.1561100000000 46.1098300000000
vertex 178.1428000000000 160.0556600000000 48.0660200000000
endloop
endfacet
facet normal -0.9593026821237 0.2817304950653 0.0191387622520
outer loop
vertex 178.1428000000000 160.0556600000000 48.0660200000000
vertex 178.2359000000000 160.2297300000000 50.1701400000000
vertex 178.5636000000000 161.4352000000000 48.8506100000000
endloop
endfacet
facet normal -0.8810220391840 0.4699164390197 0.0545775302756
outer loop
vertex 179.7609000000000 166.0962000000000 45.9779300000000
vertex 178.9375000000000 164.5676600000000 45.8469700000000
vertex 179.1464000000000 164.7807900000000 47.3840900000000
endloop
endfacet
facet normal -0.8663504533328 0.4745985099239 -0.1555414619580
outer loop
vertex 180.7788000000000 167.7414000000000 47.0776200000000
vertex 179.8486000000000 166.3787000000000 48.1007800000000
vertex 180.5249000000000 167.9287000000000 49.0633200000000
endloop
endfacet
facet normal -0.9624516625926 0.2706751656755 0.0205365980460
outer loop
vertex 179.9274000000000 166.5203000000000 49.9274500000000
vertex 179.8486000000000 166.3787000000000 48.1007800000000
vertex 179.4775000000000 164.9759100000000 49.1980700000000
endloop
endfacet
facet normal -0.9601603344920 0.2358525597879 0.1498856300976
outer loop
vertex 179.1464000000000 164.7807900000000 47.3840900000000
vertex 178.9263000000000 163.1444200000000 48.5490500000000
vertex 179.4775000000000 164.9759100000000 49.1980700000000
endloop
endfacet
facet normal -0.9656547592994 0.2444178104500 0.0881522533871
outer loop
vertex 178.4730000000000 161.6505700000000 47.2609900000000
vertex 178.1428000000000 160.0556600000000 48.0660200000000
vertex 178.5636000000000 161.4352000000000 48.8506100000000
endloop
endfacet
facet normal -0.9627467700722 0.2702911437141 0.0078329014576
outer loop
vertex 178.5636000000000 161.4352000000000 48.8506100000000
vertex 178.2359000000000 160.2297300000000 50.1701400000000
vertex 178.7798000000000 162.1656000000000 50.2198600000000
endloop
endfacet
facet normal -0.9613030717891 0.2701146403480 0.0541708892164
outer loop
vertex 179.4775000000000 164.9759100000000 49.1980700000000
vertex 178.9263000000000 163.1444200000000 48.5490500000000
vertex 179.2110000000000 163.7884100000000 50.3901100000000
endloop
endfacet
facet normal -0.9610063112252 0.2764509228966 -0.0064619668042
outer loop
vertex 177.6797000000000 158.4611100000000 47.0174600000000
vertex 177.2197000000000 156.8836700000000 47.9425900000000
vertex 177.6676000000000 158.4651300000000 48.9889200000000
endloop
endfacet
facet normal -0.9591529715728 0.2828140721861 -0.0064635668622
outer loop
vertex 178.1428000000000 160.0556600000000 48.0660200000000
vertex 177.6797000000000 158.4611100000000 47.0174600000000
vertex 177.6676000000000 158.4651300000000 48.9889200000000
endloop
endfacet
facet normal -0.9662042636685 0.2502400608105 0.0618807953598
outer loop
vertex 178.9263000000000 163.1444200000000 48.5490500000000
vertex 178.7798000000000 162.1656000000000 50.2198600000000
vertex 179.2110000000000 163.7884100000000 50.3901100000000
endloop
endfacet
facet normal -0.9759882999893 0.2141419916939 0.0398753768300
outer loop
vertex 178.9263000000000 163.1444200000000 48.5490500000000
vertex 178.5636000000000 161.4352000000000 48.8506100000000
vertex 178.7798000000000 162.1656000000000 50.2198600000000
endloop
endfacet
facet normal -0.9684884627812 0.2472685496976 0.0298053986735
outer loop
vertex 179.4775000000000 164.9759100000000 49.1980700000000
vertex 179.2110000000000 163.7884100000000 50.3901100000000
vertex 179.6123000000000 165.3039900000000 50.8564400000000
endloop
endfacet
facet normal -0.9629121213538 0.2686429844960 0.0251235632609
outer loop
vertex 179.9274000000000 166.5203000000000 49.9274500000000
vertex 179.4775000000000 164.9759100000000 49.1980700000000
vertex 179.6123000000000 165.3039900000000 50.8564400000000
endloop
endfacet
facet normal -0.6244056314891 0.4689043120704 -0.6246970093465
outer loop
vertex 179.7785000000000 161.9970500000000 39.2843300000000
vertex 180.2994000000000 160.8461300000000 37.8997800000000
vertex 178.8911000000000 160.3621200000000 38.9441200000000
endloop
endfacet
facet normal -0.9551189996093 0.2956871501272 0.0177990402834
outer loop
vertex 178.2359000000000 160.2297300000000 50.1701400000000
vertex 178.1428000000000 160.0556600000000 48.0660200000000
vertex 177.6676000000000 158.4651300000000 48.9889200000000
endloop
endfacet
facet normal -0.9409442749704 0.3289393273419 -0.0801423129707
outer loop
vertex 176.9496000000000 155.2718600000000 45.3782900000000
vertex 176.4164000000000 153.9126400000000 46.0597100000000
vertex 176.8400000000000 155.3573200000000 47.0158600000000
endloop
endfacet
facet normal -0.9561697079550 0.2820348758763 -0.0787135209391
outer loop
vertex 177.3405000000000 156.7788600000000 46.0295100000000
vertex 176.9496000000000 155.2718600000000 45.3782900000000
vertex 176.8400000000000 155.3573200000000 47.0158600000000
endloop
endfacet
facet normal -0.9558534803555 0.2838696676961 -0.0759087337164
outer loop
vertex 177.2197000000000 156.8836700000000 47.9425900000000
vertex 177.3405000000000 156.7788600000000 46.0295100000000
vertex 176.8400000000000 155.3573200000000 47.0158600000000
endloop
endfacet
facet normal -0.7906732909054 0.0872379001769 -0.6059911681053
outer loop
vertex 178.7803000000000 155.9787700000000 37.5426300000000
vertex 179.4084000000000 155.1386700000000 36.6021700000000
vertex 178.5036000000000 154.1493800000000 37.6403000000000
endloop
endfacet
facet normal -0.9488394720241 0.1816493982351 -0.2582772782301
outer loop
vertex 176.7702000000000 153.3236000000000 42.0081400000000
vertex 176.7186000000000 151.8608000000000 41.1689000000000
vertex 176.2362000000000 152.0442400000000 43.0701200000000
endloop
endfacet
facet normal -0.9714855445196 0.2212078783688 0.0853399750241
outer loop
vertex 178.9263000000000 163.1444200000000 48.5490500000000
vertex 178.4730000000000 161.6505700000000 47.2609900000000
vertex 178.5636000000000 161.4352000000000 48.8506100000000
endloop
endfacet
facet normal -0.4563676885467 0.6965271668609 -0.5536952579490
outer loop
vertex 180.8034000000000 164.2468900000000 41.1126100000000
vertex 179.3475000000000 163.2003200000000 40.9960500000000
vertex 179.9291000000000 164.4124300000000 42.0414700000000
endloop
endfacet
endsolid WRAP
