solid WRAP
facet normal 0.4344438971692 0.2670163440061 -0.8602097257332
outer loop
vertex 89.1920200931949 152.1538041115262 86.2068577795229
vertex 87.4169008635083 154.1707701551915 85.9364274296185
vertex 87.5720575266123 156.5218612225756 86.7445868654309
endloop
endfacet
facet normal -0.7784927073771 -0.1953209467554 -0.5964887528857
outer loop
vertex 82.3642295249817 161.4386352625519 87.1509505498665
vertex 83.7178592601526 158.1538101208899 86.4599136799677
vertex 82.6856874035195 158.9584630294918 87.5435429891610
endloop
endfacet
facet normal -0.6264533106473 -0.2288862316554 -0.7450955257802
outer loop
vertex 83.9158409491184 155.9241923829396 86.9783740708911
vertex 83.7178592601526 158.1538101208899 86.4599136799677
vertex 85.8784878007402 155.1930009914609 85.5528562159778
endloop
endfacet
facet normal -0.6020571094968 0.0999956328296 -0.7921667187653
outer loop
vertex 82.3642295249817 161.4386352625519 87.1509505498665
vertex 83.2838200056347 164.3198884582917 86.8157518552452
vertex 83.2959857113446 161.5416192629364 86.4558033378175
endloop
endfacet
facet normal 0.1020159239082 0.0453623243660 -0.9937479614053
outer loop
vertex 83.2959857113446 161.5416192629364 86.4558033378175
vertex 84.5071612273059 162.3635372317331 86.6176585617026
vertex 85.2834143075036 160.4243517043414 86.6088275622166
endloop
endfacet
facet normal 0.2059840828878 0.2363529257913 -0.9495829885096
outer loop
vertex 83.2959857113446 161.5416192629364 86.4558033378175
vertex 85.2834143075036 160.4243517043414 86.6088275622166
vertex 84.7444982186998 158.3379892546469 85.9726261844935
endloop
endfacet
facet normal 0.4467861556572 0.2138792102696 -0.8686989205286
outer loop
vertex 85.2834143075036 160.4243517043414 86.6088275622166
vertex 86.7509347356053 159.4261971336516 87.1178454608976
vertex 86.0458864194509 157.9807134940509 86.3993402213114
endloop
endfacet
facet normal 0.4624709665328 0.2949084438496 -0.8361516697708
outer loop
vertex 87.4169008635083 154.1707701551915 85.9364274296185
vertex 89.1920200931949 152.1538041115262 86.2068577795229
vertex 87.0251320111940 152.8144908573439 85.2413861375283
endloop
endfacet
facet normal -0.6127431220889 -0.1226628012919 -0.7807046198864
outer loop
vertex 83.9158409491184 155.9241923829396 86.9783740708911
vertex 85.8784878007402 155.1930009914609 85.5528562159778
vertex 85.5780195850535 152.1586392268787 86.2654344851138
endloop
endfacet
facet normal 0.4261274378720 0.2393243220395 -0.8724329633691
outer loop
vertex 87.5720575266123 156.5218612225756 86.7445868654309
vertex 85.8784878007402 155.1930009914609 85.5528562159778
vertex 86.0458864194509 157.9807134940509 86.3993402213114
endloop
endfacet
facet normal 0.3447456128188 0.1943221028308 -0.9183623374211
outer loop
vertex 84.9448575558092 165.1649113351693 87.4403071137161
vertex 84.5541198430337 163.9351496296006 87.0334143464251
vertex 83.9948566074424 165.4412990916974 87.1421672642023
endloop
endfacet
facet normal -0.7804879317458 -0.2065166782465 -0.5900758002199
outer loop
vertex 82.6856874035195 158.9584630294918 87.5435429891610
vertex 83.7178592601526 158.1538101208899 86.4599136799677
vertex 83.9158409491184 155.9241923829396 86.9783740708911
endloop
endfacet
facet normal -0.4238793198905 -0.0320252309804 -0.9051523113542
outer loop
vertex 85.8784878007402 155.1930009914609 85.5528562159778
vertex 83.7178592601526 158.1538101208899 86.4599136799677
vertex 84.7444982186998 158.3379892546469 85.9726261844935
endloop
endfacet
facet normal 0.3630741294155 0.2506924209626 -0.8974020763410
outer loop
vertex 85.8784878007402 155.1930009914609 85.5528562159778
vertex 84.7444982186998 158.3379892546469 85.9726261844935
vertex 86.0458864194509 157.9807134940509 86.3993402213114
endloop
endfacet
facet normal 0.0451543850418 0.1285481061714 -0.9906747528383
outer loop
vertex 83.2959857113446 161.5416192629364 86.4558033378175
vertex 83.2838200056347 164.3198884582917 86.8157518552452
vertex 84.5071612273059 162.3635372317331 86.6176585617026
endloop
endfacet
facet normal 0.1407072072922 0.0162951104408 -0.9899171435993
outer loop
vertex 88.1379529814853 149.6983410627984 85.3482677352233
vertex 87.0251320111940 152.8144908573439 85.2413861375283
vertex 88.8310834570965 151.1363902357976 85.4704614202078
endloop
endfacet
facet normal 0.4002052331365 0.2741713894835 -0.8744517256881
outer loop
vertex 87.5720575266123 156.5218612225756 86.7445868654309
vertex 87.4169008635083 154.1707701551915 85.9364274296185
vertex 85.8784878007402 155.1930009914609 85.5528562159778
endloop
endfacet
facet normal -0.5271273696839 -0.1444589172449 -0.8374176719884
outer loop
vertex 85.8784878007402 155.1930009914609 85.5528562159778
vertex 87.0251320111940 152.8144908573439 85.2413861375283
vertex 85.5780195850535 152.1586392268787 86.2654344851138
endloop
endfacet
facet normal 0.4210368539827 0.3143912907384 -0.8508149527930
outer loop
vertex 85.8784878007402 155.1930009914609 85.5528562159778
vertex 87.4169008635083 154.1707701551915 85.9364274296185
vertex 87.0251320111940 152.8144908573439 85.2413861375283
endloop
endfacet
facet normal 0.4720541628220 0.4008361381686 -0.7851721197932
outer loop
vertex 87.0251320111940 152.8144908573439 85.2413861375283
vertex 89.1920200931949 152.1538041115262 86.2068577795229
vertex 88.8310834570965 151.1363902357976 85.4704614202078
endloop
endfacet
facet normal -0.5006219269362 -0.2076043498689 -0.8404035460338
outer loop
vertex 85.5780195850535 152.1586392268787 86.2654344851138
vertex 87.0251320111940 152.8144908573439 85.2413861375283
vertex 88.1379529814853 149.6983410627984 85.3482677352233
endloop
endfacet
facet normal -0.5197018584370 0.0667809620074 -0.8517336916258
outer loop
vertex 83.2838200056347 164.3198884582917 86.8157518552452
vertex 82.3642295249817 161.4386352625519 87.1509505498665
vertex 81.2172769428918 164.3202150994158 88.0767188619701
endloop
endfacet
facet normal -0.5910047642574 -0.0745705412267 -0.8032139210735
outer loop
vertex 83.7178592601526 158.1538101208899 86.4599136799677
vertex 82.3642295249817 161.4386352625519 87.1509505498665
vertex 83.2959857113446 161.5416192629364 86.4558033378175
endloop
endfacet
facet normal 0.3523307382788 0.1885211847969 -0.9166912314115
outer loop
vertex 84.7444982186998 158.3379892546469 85.9726261844935
vertex 85.2834143075036 160.4243517043414 86.6088275622166
vertex 86.0458864194509 157.9807134940509 86.3993402213114
endloop
endfacet
facet normal -0.4203403239603 -0.0534426730596 -0.9057913075037
outer loop
vertex 83.7178592601526 158.1538101208899 86.4599136799677
vertex 83.2959857113446 161.5416192629364 86.4558033378175
vertex 84.7444982186998 158.3379892546469 85.9726261844935
endloop
endfacet
facet normal 0.3909455219224 0.1606221325708 -0.9062903118853
outer loop
vertex 85.2834143075036 160.4243517043414 86.6088275622166
vertex 84.5071612273059 162.3635372317331 86.6176585617026
vertex 86.0023989332388 162.4073749137168 87.2704270836130
endloop
endfacet
facet normal 0.4133948459088 0.1497670233006 -0.8981506221719
outer loop
vertex 86.7509347356053 159.4261971336516 87.1178454608976
vertex 85.2834143075036 160.4243517043414 86.6088275622166
vertex 86.0023989332388 162.4073749137168 87.2704270836130
endloop
endfacet
facet normal 0.3842498613320 0.2253626238718 -0.8953009169145
outer loop
vertex 84.5071612273059 162.3635372317331 86.6176585617026
vertex 84.5541198430337 163.9351496296006 87.0334143464251
vertex 86.0023989332388 162.4073749137168 87.2704270836130
endloop
endfacet
facet normal -0.5159850879001 -0.1368849037238 -0.8455896831190
outer loop
vertex 83.2838200056347 164.3198884582917 86.8157518552452
vertex 81.2172769428918 164.3202150994158 88.0767188619701
vertex 82.1067160035716 165.7417415480884 87.3038584356655
endloop
endfacet
facet normal 0.2272239408241 0.1365873756666 -0.9642163499572
outer loop
vertex 83.9948566074424 165.4412990916974 87.1421672642023
vertex 83.2838200056347 164.3198884582917 86.8157518552452
vertex 83.0521591819164 166.3795317693894 87.0529210231216
endloop
endfacet
facet normal 0.2103780160988 0.1478950747929 -0.9663685307347
outer loop
vertex 84.5541198430337 163.9351496296006 87.0334143464251
vertex 83.2838200056347 164.3198884582917 86.8157518552452
vertex 83.9948566074424 165.4412990916974 87.1421672642023
endloop
endfacet
facet normal -0.3029625997175 0.0753194577014 -0.9500213905297
outer loop
vertex 83.2838200056347 164.3198884582917 86.8157518552452
vertex 82.1067160035716 165.7417415480884 87.3038584356655
vertex 83.0521591819164 166.3795317693894 87.0529210231216
endloop
endfacet
facet normal 0.3518384534114 0.1913819360664 -0.9162874315675
outer loop
vertex 84.5541198430337 163.9351496296006 87.0334143464251
vertex 84.9448575558092 165.1649113351693 87.4403071137161
vertex 86.0023989332388 162.4073749137168 87.2704270836130
endloop
endfacet
facet normal 0.2346273905157 0.2420465221423 -0.9414687826681
outer loop
vertex 84.5071612273059 162.3635372317331 86.6176585617026
vertex 83.2838200056347 164.3198884582917 86.8157518552452
vertex 84.5541198430337 163.9351496296006 87.0334143464251
endloop
endfacet
facet normal 0.4197930897902 0.2314732251453 -0.8776069210103
outer loop
vertex 86.7509347356053 159.4261971336516 87.1178454608976
vertex 87.5720575266123 156.5218612225756 86.7445868654309
vertex 86.0458864194509 157.9807134940509 86.3993402213114
endloop
endfacet
endsolid WRAP
