solid WRAP
facet normal 0.4552199401068 -0.2173263754482 -0.8634489288103
outer loop
vertex 185.0286973062510 142.2388915081489 86.8671827069519
vertex 185.1839144991265 143.8355135929679 86.5471520482878
vertex 186.3155560455358 144.4024714508729 87.0010652880997
endloop
endfacet
facet normal 0.8604386043397 -0.5016101927388 -0.0896249000143
outer loop
vertex 182.1647031620915 135.3820329714167 89.7782170879575
vertex 183.3872425021827 137.7571241790938 88.2222888258956
vertex 184.1942827017261 138.8663610543176 89.7620843530901
endloop
endfacet
facet normal 0.7774090479159 -0.3590011744471 -0.5164816830868
outer loop
vertex 184.4221562687055 140.3381570097949 87.2753974289938
vertex 185.0286973062510 142.2388915081489 86.8671827069519
vertex 185.9988813599011 142.8345122610695 87.9134953436325
endloop
endfacet
facet normal 0.2738447736863 -0.3195612234114 -0.9071326608697
outer loop
vertex 182.8462189574940 138.2020171682929 86.7552697671363
vertex 181.3860819196395 136.1502817343342 87.0372618061672
vertex 182.1472718906044 138.7848136672111 86.3389666398922
endloop
endfacet
facet normal -0.0248544122257 -0.0311802773347 -0.9992047080044
outer loop
vertex 182.1472718906044 138.7848136672111 86.3389666398922
vertex 181.0560602816826 139.7215026678551 86.3368801808853
vertex 182.4162912114680 140.9172464745564 86.2657322337272
endloop
endfacet
facet normal 0.7327362474860 -0.5721057081926 -0.3685005431116
outer loop
vertex 182.8462189574940 138.2020171682929 86.7552697671363
vertex 182.1647031620915 135.3820329714167 89.7782170879575
vertex 181.3860819196395 136.1502817343342 87.0372618061672
endloop
endfacet
facet normal -0.2563332308294 0.1771447542980 -0.9502173492403
outer loop
vertex 183.8640343598105 145.0072829785813 86.6824922959880
vertex 185.1498794074369 147.2075606611835 86.7458071092946
vertex 185.3105259156564 146.1795357097886 86.5108205916532
endloop
endfacet
facet normal 0.7709293323143 -0.4294276754889 -0.4703826485975
outer loop
vertex 185.0286973062510 142.2388915081489 86.8671827069519
vertex 186.3155560455358 144.4024714508729 87.0010652880997
vertex 185.9988813599011 142.8345122610695 87.9134953436325
endloop
endfacet
facet normal 0.1463964287150 -0.0320902412970 -0.9887053666654
outer loop
vertex 184.0446519478620 143.7019719663347 86.4037980010010
vertex 185.3105259156564 146.1795357097886 86.5108205916532
vertex 186.2499330919336 145.8598337643822 86.6602940073643
endloop
endfacet
facet normal -0.2500673809276 0.1689507854365 -0.9533739754663
outer loop
vertex 183.8640343598105 145.0072829785813 86.6824922959880
vertex 185.3105259156564 146.1795357097886 86.5108205916532
vertex 184.0446519478620 143.7019719663347 86.4037980010010
endloop
endfacet
facet normal 0.7762809424884 -0.4267691993953 -0.4639568393470
outer loop
vertex 185.9988813599011 142.8345122610695 87.9134953436325
vertex 186.3155560455358 144.4024714508729 87.0010652880997
vertex 187.6680585349800 146.3325316567743 87.4886788744945
endloop
endfacet
facet normal -0.2243583380279 0.0134633329489 -0.9744137082488
outer loop
vertex 179.3641862469863 138.5122577697173 86.7097254896295
vertex 181.0560602816826 139.7215026678551 86.3368801808853
vertex 180.5113988728967 137.6130380729607 86.4331558867964
endloop
endfacet
facet normal 0.8500893046552 -0.4836646427480 -0.2083667139117
outer loop
vertex 184.1942827017261 138.8663610543176 89.7620843530901
vertex 184.4221562687055 140.3381570097949 87.2753974289938
vertex 185.9988813599011 142.8345122610695 87.9134953436325
endloop
endfacet
facet normal -0.2558239941106 0.1678687488115 -0.9520368518129
outer loop
vertex 181.4222509338852 141.2368119951284 86.6737978240951
vertex 183.8640343598105 145.0072829785813 86.6824922959880
vertex 184.0446519478620 143.7019719663347 86.4037980010010
endloop
endfacet
facet normal 0.3565288440549 -0.2208752117705 -0.9078002666788
outer loop
vertex 182.8462189574940 138.2020171682929 86.7552697671363
vertex 182.1472718906044 138.7848136672111 86.3389666398922
vertex 183.7784039158764 140.2241570520204 86.6293723053426
endloop
endfacet
facet normal 0.5384980139280 -0.1687881016688 -0.8255485847184
outer loop
vertex 186.3155560455358 144.4024714508729 87.0010652880997
vertex 186.2499330919336 145.8598337643822 86.6602940073643
vertex 187.6680585349800 146.3325316567743 87.4886788744945
endloop
endfacet
facet normal -0.2886302676200 0.2737438304280 -0.9174730971076
outer loop
vertex 181.0560602816826 139.7215026678551 86.3368801808853
vertex 181.4222509338852 141.2368119951284 86.6737978240951
vertex 182.4162912114680 140.9172464745564 86.2657322337272
endloop
endfacet
facet normal -0.3070928988378 0.2254130474055 -0.9245987830096
outer loop
vertex 182.4162912114680 140.9172464745564 86.2657322337272
vertex 181.4222509338852 141.2368119951284 86.6737978240951
vertex 184.0446519478620 143.7019719663347 86.4037980010010
endloop
endfacet
facet normal 0.2921496209287 -0.3230059514035 -0.9001754019907
outer loop
vertex 182.1472718906044 138.7848136672111 86.3389666398922
vertex 181.3860819196395 136.1502817343342 87.0372618061672
vertex 180.4935069282634 136.4133322678760 86.6531896214904
endloop
endfacet
facet normal 0.2452890482274 -0.4336504795399 -0.8670527921727
outer loop
vertex 180.4935069282634 136.4133322678760 86.6531896214904
vertex 181.3860819196395 136.1502817343342 87.0372618061672
vertex 179.1808549566032 134.4507893345786 87.2633929864250
endloop
endfacet
facet normal -0.2072679163693 0.0362508583171 -0.9776123393837
outer loop
vertex 179.3641862469863 138.5122577697173 86.7097254896295
vertex 180.5113988728967 137.6130380729607 86.4331558867964
vertex 178.8727482816925 136.3575677760497 86.7340193333717
endloop
endfacet
facet normal 0.0731585931437 -0.1809694494088 -0.9807639260443
outer loop
vertex 180.5113988728967 137.6130380729607 86.4331558867964
vertex 182.1472718906044 138.7848136672111 86.3389666398922
vertex 180.4935069282634 136.4133322678760 86.6531896214904
endloop
endfacet
facet normal 0.6631053836659 -0.4773934322064 -0.5765299307404
outer loop
vertex 184.4221562687055 140.3381570097949 87.2753974289938
vertex 183.3872425021827 137.7571241790938 88.2222888258956
vertex 183.7784039158764 140.2241570520204 86.6293723053426
endloop
endfacet
facet normal -0.2557296275673 0.0631157281778 -0.9646858361357
outer loop
vertex 177.6613729460796 134.6383679636326 86.9426634409528
vertex 178.0636742144700 136.5522815665169 86.9612370495919
vertex 178.8727482816925 136.3575677760497 86.7340193333717
endloop
endfacet
facet normal 0.1903803820475 -0.1231344070403 -0.9739575082796
outer loop
vertex 177.6613729460796 134.6383679636326 86.9426634409528
vertex 179.1808549566032 134.4507893345786 87.2633929864250
vertex 176.4203324210072 132.6658758195614 86.9494521162246
endloop
endfacet
facet normal 0.3705335755931 -0.4280815395342 -0.8242882171111
outer loop
vertex 179.1808549566032 134.4507893345786 87.2633929864250
vertex 178.3080612413351 132.6010520528875 87.8316881500371
vertex 176.4203324210072 132.6658758195614 86.9494521162246
endloop
endfacet
facet normal 0.3911549003437 -0.4339170955839 -0.8116118518708
outer loop
vertex 180.8156196066445 134.2360971476501 88.1660471458981
vertex 178.3080612413351 132.6010520528875 87.8316881500371
vertex 179.1808549566032 134.4507893345786 87.2633929864250
endloop
endfacet
facet normal 0.6565474748266 -0.6196765201509 -0.4300539776266
outer loop
vertex 183.3872425021827 137.7571241790938 88.2222888258956
vertex 182.1647031620915 135.3820329714167 89.7782170879575
vertex 182.8462189574940 138.2020171682929 86.7552697671363
endloop
endfacet
facet normal 0.8948244412249 -0.4376704540701 -0.0879419866765
outer loop
vertex 185.9988813599011 142.8345122610695 87.9134953436325
vertex 187.6680585349800 146.3325316567743 87.4886788744945
vertex 186.4817641126648 143.3035962658965 90.4923668087887
endloop
endfacet
facet normal -0.0428340830406 -0.1796137824421 -0.9828042177804
outer loop
vertex 180.5113988728967 137.6130380729607 86.4331558867964
vertex 180.4935069282634 136.4133322678760 86.6531896214904
vertex 178.8727482816925 136.3575677760497 86.7340193333717
endloop
endfacet
facet normal -0.3988773518350 0.2898303194097 -0.8699972667451
outer loop
vertex 179.3641862469863 138.5122577697173 86.7097254896295
vertex 181.4222509338852 141.2368119951284 86.6737978240951
vertex 181.0560602816826 139.7215026678551 86.3368801808853
endloop
endfacet
facet normal 0.1741538912809 -0.1669111837722 -0.9704695146595
outer loop
vertex 183.7784039158764 140.2241570520204 86.6293723053426
vertex 182.4162912114680 140.9172464745564 86.2657322337272
vertex 183.7996723602667 141.6513809487342 86.3877205643926
endloop
endfacet
facet normal 0.2278135747064 -0.0621120228088 -0.9717217049146
outer loop
vertex 182.1472718906044 138.7848136672111 86.3389666398922
vertex 182.4162912114680 140.9172464745564 86.2657322337272
vertex 183.7784039158764 140.2241570520204 86.6293723053426
endloop
endfacet
facet normal -0.0304807647324 -0.0377339407409 -0.9988228435000
outer loop
vertex 181.0560602816826 139.7215026678551 86.3368801808853
vertex 182.1472718906044 138.7848136672111 86.3389666398922
vertex 180.5113988728967 137.6130380729607 86.4331558867964
endloop
endfacet
facet normal -0.2592794849683 0.0482603264488 -0.9645958166847
outer loop
vertex 178.0636742144700 136.5522815665169 86.9612370495919
vertex 179.3641862469863 138.5122577697173 86.7097254896295
vertex 178.8727482816925 136.3575677760497 86.7340193333717
endloop
endfacet
facet normal 0.4442768732831 -0.1849650881097 -0.8765876887376
outer loop
vertex 186.3155560455358 144.4024714508729 87.0010652880997
vertex 185.1839144991265 143.8355135929679 86.5471520482878
vertex 186.2499330919336 145.8598337643822 86.6602940073643
endloop
endfacet
facet normal 0.1261037511885 -0.0109651857768 -0.9919564550105
outer loop
vertex 185.1839144991265 143.8355135929679 86.5471520482878
vertex 184.0446519478620 143.7019719663347 86.4037980010010
vertex 186.2499330919336 145.8598337643822 86.6602940073643
endloop
endfacet
facet normal 0.8912436804267 -0.4453193133466 -0.0858802146011
outer loop
vertex 184.1942827017261 138.8663610543176 89.7620843530901
vertex 185.9988813599011 142.8345122610695 87.9134953436325
vertex 186.4817641126648 143.3035962658965 90.4923668087887
endloop
endfacet
facet normal 0.4232979643936 -0.1573746079728 -0.8922174993272
outer loop
vertex 185.0286973062510 142.2388915081489 86.8671827069519
vertex 183.7784039158764 140.2241570520204 86.6293723053426
vertex 183.7996723602667 141.6513809487342 86.3877205643926
endloop
endfacet
facet normal 0.0893487964809 -0.0028653028652 -0.9959962764021
outer loop
vertex 182.4162912114680 140.9172464745564 86.2657322337272
vertex 184.0446519478620 143.7019719663347 86.4037980010010
vertex 183.7996723602667 141.6513809487342 86.3877205643926
endloop
endfacet
facet normal 0.8373128872776 -0.5136494342821 -0.1872735631651
outer loop
vertex 186.4817641126648 143.3035962658965 90.4923668087887
vertex 187.6680585349800 146.3325316567743 87.4886788744945
vertex 189.1457702785333 148.1725770962427 89.0487965044715
endloop
endfacet
facet normal 0.3467717204689 -0.5509643909539 -0.7590702298100
outer loop
vertex 181.3860819196395 136.1502817343342 87.0372618061672
vertex 180.8156196066445 134.2360971476501 88.1660471458981
vertex 179.1808549566032 134.4507893345786 87.2633929864250
endloop
endfacet
facet normal 0.1724569438125 -0.2375309261753 -0.9559485664204
outer loop
vertex 179.1808549566032 134.4507893345786 87.2633929864250
vertex 177.6613729460796 134.6383679636326 86.9426634409528
vertex 178.8727482816925 136.3575677760497 86.7340193333717
endloop
endfacet
facet normal -0.0385413827505 -0.2730876750756 -0.9612167723971
outer loop
vertex 180.4935069282634 136.4133322678760 86.6531896214904
vertex 179.1808549566032 134.4507893345786 87.2633929864250
vertex 178.8727482816925 136.3575677760497 86.7340193333717
endloop
endfacet
facet normal 0.6926451505055 -0.3557794778178 -0.6274262176902
outer loop
vertex 185.0286973062510 142.2388915081489 86.8671827069519
vertex 184.4221562687055 140.3381570097949 87.2753974289938
vertex 183.7784039158764 140.2241570520204 86.6293723053426
endloop
endfacet
facet normal 0.8927092965875 -0.4188942986868 -0.1661254896576
outer loop
vertex 184.1942827017261 138.8663610543176 89.7620843530901
vertex 183.3872425021827 137.7571241790938 88.2222888258956
vertex 184.4221562687055 140.3381570097949 87.2753974289938
endloop
endfacet
facet normal 0.8151431036479 -0.4546159567263 -0.3589791811026
outer loop
vertex 181.3860819196395 136.1502817343342 87.0372618061672
vertex 182.1647031620915 135.3820329714167 89.7782170879575
vertex 180.8156196066445 134.2360971476501 88.1660471458981
endloop
endfacet
facet normal 0.1256777817903 -0.0072364283782 -0.9920447214055
outer loop
vertex 184.0446519478620 143.7019719663347 86.4037980010010
vertex 185.1839144991265 143.8355135929679 86.5471520482878
vertex 183.7996723602667 141.6513809487342 86.3877205643926
endloop
endfacet
facet normal 0.4431946113837 -0.2174029707455 -0.8696634318813
outer loop
vertex 185.1839144991265 143.8355135929679 86.5471520482878
vertex 185.0286973062510 142.2388915081489 86.8671827069519
vertex 183.7996723602667 141.6513809487342 86.3877205643926
endloop
endfacet
facet normal 0.8132429649112 -0.4011430140219 -0.4215686922956
outer loop
vertex 183.3872425021827 137.7571241790938 88.2222888258956
vertex 182.8462189574940 138.2020171682929 86.7552697671363
vertex 183.7784039158764 140.2241570520204 86.6293723053426
endloop
endfacet
endsolid WRAP
