solid WRAP
facet normal 0.0562894660841 0.4008107251038 0.9144300184540
outer loop
vertex 97.0618300000000 154.1916900000000 82.6085500000000
vertex 95.9606200000000 154.2607200000000 82.6460800000000
vertex 96.4667600000000 153.5006400000000 82.9480800000000
endloop
endfacet
facet normal 0.7030545913951 -0.6826241936803 0.1993450569253
outer loop
vertex 99.3165900000000 145.3767100000000 63.3011090000000
vertex 99.8954100000000 146.1886900000000 64.0402050000000
vertex 99.2326300000000 145.7182800000000 64.7668710000000
endloop
endfacet
facet normal 0.6899484717243 -0.7025051345898 0.1745211799190
outer loop
vertex 99.2326300000000 145.7182800000000 64.7668710000000
vertex 99.8954100000000 146.1886900000000 64.0402050000000
vertex 100.0704800000000 146.5799900000000 64.9231980000000
endloop
endfacet
facet normal 0.1035268061187 -0.9673458487047 0.2313529974060
outer loop
vertex 98.2378700000000 145.4518300000000 64.0979150000000
vertex 99.3165900000000 145.3767100000000 63.3011090000000
vertex 99.2326300000000 145.7182800000000 64.7668710000000
endloop
endfacet
facet normal 0.9056996126943 -0.4239127965861 0.0024804144801
outer loop
vertex 101.2308100000000 149.0004100000000 65.0156428000000
vertex 101.5744100000000 149.7395700000000 65.8788033000000
vertex 101.0373600000000 148.5936100000000 66.1283054000000
endloop
endfacet
facet normal 0.8898522588733 -0.4558038680351 0.0201442612755
outer loop
vertex 100.3946900000000 147.1725400000000 64.0091700000000
vertex 100.6499400000000 147.7220200000000 65.1668357000000
vertex 100.0704800000000 146.5799900000000 64.9231980000000
endloop
endfacet
facet normal 0.8917981190126 -0.4518273741913 0.0234123654724
outer loop
vertex 99.8954100000000 146.1886900000000 64.0402050000000
vertex 100.3946900000000 147.1725400000000 64.0091700000000
vertex 100.0704800000000 146.5799900000000 64.9231980000000
endloop
endfacet
facet normal 0.0615177632179 -0.9862629790717 0.1533000356206
outer loop
vertex 98.2256000000000 145.7043200000000 65.0811697000000
vertex 99.2326300000000 145.7182800000000 64.7668710000000
vertex 98.7684500000000 145.8544900000000 65.8294552000000
endloop
endfacet
facet normal 0.7158701035881 -0.6981384204970 0.0115213113231
outer loop
vertex 99.2326300000000 145.7182800000000 64.7668710000000
vertex 100.0704800000000 146.5799900000000 64.9231980000000
vertex 99.6667700000000 146.1794900000000 65.7390324000000
endloop
endfacet
facet normal 0.3514980658556 -0.8968551718862 0.2685142647251
outer loop
vertex 98.7684500000000 145.8544900000000 65.8294552000000
vertex 99.2326300000000 145.7182800000000 64.7668710000000
vertex 99.6667700000000 146.1794900000000 65.7390324000000
endloop
endfacet
facet normal 0.9118527947974 -0.4104905395847 0.0046901526238
outer loop
vertex 100.6499400000000 147.7220200000000 65.1668357000000
vertex 101.0373600000000 148.5936100000000 66.1283054000000
vertex 100.5464600000000 147.5056100000000 66.3446800000000
endloop
endfacet
facet normal 0.9007057163001 -0.4344292116477 -0.0006875256517
outer loop
vertex 100.6499400000000 147.7220200000000 65.1668357000000
vertex 100.5464600000000 147.5056100000000 66.3446800000000
vertex 100.2403100000000 146.8718100000000 65.7485994000000
endloop
endfacet
facet normal 0.8936675267860 -0.4480054834470 -0.0254840807086
outer loop
vertex 100.0704800000000 146.5799900000000 64.9231980000000
vertex 100.6499400000000 147.7220200000000 65.1668357000000
vertex 100.2403100000000 146.8718100000000 65.7485994000000
endloop
endfacet
facet normal 0.7678749166625 -0.6370612629211 0.0672388254355
outer loop
vertex 99.6667700000000 146.1794900000000 65.7390324000000
vertex 100.0704800000000 146.5799900000000 64.9231980000000
vertex 100.2403100000000 146.8718100000000 65.7485994000000
endloop
endfacet
facet normal 0.0910045620129 -0.9642820094824 0.2487536449611
outer loop
vertex 98.2378700000000 145.4518300000000 64.0979150000000
vertex 99.2326300000000 145.7182800000000 64.7668710000000
vertex 98.2256000000000 145.7043200000000 65.0811697000000
endloop
endfacet
facet normal -0.2596189394007 -0.8930271271267 0.3675602760368
outer loop
vertex 98.2256000000000 145.7043200000000 65.0811697000000
vertex 98.7684500000000 145.8544900000000 65.8294552000000
vertex 97.6645300000000 146.2070100000000 65.9062082800000
endloop
endfacet
facet normal 0.3473897426394 -0.9323667878625 0.1000626783565
outer loop
vertex 98.7684500000000 145.8544900000000 65.8294552000000
vertex 99.6667700000000 146.1794900000000 65.7390324000000
vertex 99.2947500000000 146.1208900000000 66.4845575000000
endloop
endfacet
facet normal 0.7676594680441 -0.6369323315112 0.0708247569568
outer loop
vertex 99.6667700000000 146.1794900000000 65.7390324000000
vertex 100.2403100000000 146.8718100000000 65.7485994000000
vertex 99.9727100000000 146.6358400000000 66.5269819000000
endloop
endfacet
facet normal 0.9395860111525 -0.3349509008548 0.0706117671714
outer loop
vertex 101.5744100000000 149.7395700000000 65.8788033000000
vertex 101.9052900000000 150.8377700000000 66.6853666000000
vertex 101.3566200000000 149.4053200000000 67.1912630000000
endloop
endfacet
facet normal 0.9082985031459 -0.4159168103143 0.0447999562597
outer loop
vertex 101.0373600000000 148.5936100000000 66.1283054000000
vertex 101.5744100000000 149.7395700000000 65.8788033000000
vertex 101.3566200000000 149.4053200000000 67.1912630000000
endloop
endfacet
facet normal 0.8740078912897 -0.4838296651058 0.0449339640681
outer loop
vertex 100.3202500000000 147.1872000000000 67.3161750000000
vertex 100.5464600000000 147.5056100000000 66.3446800000000
vertex 100.8684200000000 148.1636700000000 67.1679630000000
endloop
endfacet
facet normal 0.9094652871352 -0.4150938944055 -0.0238736323883
outer loop
vertex 100.5464600000000 147.5056100000000 66.3446800000000
vertex 101.0373600000000 148.5936100000000 66.1283054000000
vertex 100.8684200000000 148.1636700000000 67.1679630000000
endloop
endfacet
facet normal 0.8399799106854 -0.5270615600557 0.1289955873534
outer loop
vertex 100.2403100000000 146.8718100000000 65.7485994000000
vertex 100.5464600000000 147.5056100000000 66.3446800000000
vertex 99.9727100000000 146.6358400000000 66.5269819000000
endloop
endfacet
facet normal 0.5798643469502 -0.7821966638264 0.2278721532678
outer loop
vertex 99.2947500000000 146.1208900000000 66.4845575000000
vertex 99.6667700000000 146.1794900000000 65.7390324000000
vertex 99.9727100000000 146.6358400000000 66.5269819000000
endloop
endfacet
facet normal -0.3006310422618 -0.9364206138000 0.1809348238429
outer loop
vertex 97.6681200000000 146.4166000000000 66.9968975000000
vertex 97.6645300000000 146.2070100000000 65.9062082800000
vertex 98.4995200000000 146.1039700000000 66.7603011000000
endloop
endfacet
facet normal -0.2891429599995 -0.9422500793245 0.1690004044249
outer loop
vertex 97.6645300000000 146.2070100000000 65.9062082800000
vertex 98.7684500000000 145.8544900000000 65.8294552000000
vertex 98.4995200000000 146.1039700000000 66.7603011000000
endloop
endfacet
facet normal 0.1205294716595 -0.9496104834333 0.2893312568926
outer loop
vertex 98.7684500000000 145.8544900000000 65.8294552000000
vertex 99.2947500000000 146.1208900000000 66.4845575000000
vertex 98.4995200000000 146.1039700000000 66.7603011000000
endloop
endfacet
facet normal 0.8360843775784 -0.5483973648499 0.0149413451538
outer loop
vertex 99.9727100000000 146.6358400000000 66.5269819000000
vertex 100.5464600000000 147.5056100000000 66.3446800000000
vertex 100.3202500000000 147.1872000000000 67.3161750000000
endloop
endfacet
facet normal 0.9306477441885 -0.3659163391699 -0.0000946859423
outer loop
vertex 101.0373600000000 148.5936100000000 66.1283054000000
vertex 101.3566200000000 149.4053200000000 67.1912630000000
vertex 100.8684200000000 148.1636700000000 67.1679630000000
endloop
endfacet
facet normal 0.1030081263650 -0.9486778989989 0.2989976084415
outer loop
vertex 98.4995200000000 146.1039700000000 66.7603011000000
vertex 99.4018300000000 146.4150700000000 67.4365220000000
vertex 98.2859600000000 146.3851900000000 67.7261470000000
endloop
endfacet
facet normal 0.6439811688263 -0.7306332083579 0.2268553923575
outer loop
vertex 99.9727100000000 146.6358400000000 66.5269819000000
vertex 100.3202500000000 147.1872000000000 67.3161750000000
vertex 99.4018300000000 146.4150700000000 67.4365220000000
endloop
endfacet
facet normal 0.5881643094766 -0.7889870582813 0.1776574426320
outer loop
vertex 99.2947500000000 146.1208900000000 66.4845575000000
vertex 99.9727100000000 146.6358400000000 66.5269819000000
vertex 99.4018300000000 146.4150700000000 67.4365220000000
endloop
endfacet
facet normal 0.0745395241677 0.3873075431473 0.9189323839968
outer loop
vertex 97.0618300000000 154.1916900000000 82.6085500000000
vertex 96.4667600000000 153.5006400000000 82.9480800000000
vertex 97.3708800000000 153.0747600000000 83.0542400000000
endloop
endfacet
facet normal 0.9704608852779 -0.2273009438850 0.0808699638598
outer loop
vertex 101.9052900000000 150.8377700000000 66.6853666000000
vertex 101.9609600000000 151.4095400000000 67.6243840000000
vertex 101.7150000000000 150.4904900000000 67.9927980000000
endloop
endfacet
facet normal 0.9381253891469 -0.3433136726511 0.0453483892635
outer loop
vertex 101.3566200000000 149.4053200000000 67.1912630000000
vertex 101.9052900000000 150.8377700000000 66.6853666000000
vertex 101.7150000000000 150.4904900000000 67.9927980000000
endloop
endfacet
facet normal 0.9301765631120 -0.3649938026400 -0.0393838224605
outer loop
vertex 100.8684200000000 148.1636700000000 67.1679630000000
vertex 101.3566200000000 149.4053200000000 67.1912630000000
vertex 101.0764200000000 148.6089600000000 67.9537840000000
endloop
endfacet
facet normal -0.2921008051953 -0.9336593618905 0.2072614666515
outer loop
vertex 97.6681200000000 146.4166000000000 66.9968975000000
vertex 98.4995200000000 146.1039700000000 66.7603011000000
vertex 98.2859600000000 146.3851900000000 67.7261470000000
endloop
endfacet
facet normal 0.6435312516696 -0.7654198014888 0.0002358250299
outer loop
vertex 99.4018300000000 146.4150700000000 67.4365220000000
vertex 100.3202500000000 147.1872000000000 67.3161750000000
vertex 100.0720600000000 146.9788400000000 68.3133190000000
endloop
endfacet
facet normal 0.9138145664610 -0.4059590602175 -0.0118397445470
outer loop
vertex 100.8684200000000 148.1636700000000 67.1679630000000
vertex 101.0764200000000 148.6089600000000 67.9537840000000
vertex 100.7031500000000 147.7651300000000 68.0771710000000
endloop
endfacet
facet normal 0.8665434438997 -0.4955194791196 -0.0596900799762
outer loop
vertex 100.3202500000000 147.1872000000000 67.3161750000000
vertex 100.8684200000000 148.1636700000000 67.1679630000000
vertex 100.7031500000000 147.7651300000000 68.0771710000000
endloop
endfacet
facet normal 0.9654559320601 0.1263971365365 0.2278565494457
outer loop
vertex 101.7381100000000 152.2494400000000 69.1401110000000
vertex 101.8581900000000 153.1914200000000 68.1087800000000
vertex 101.4550000000000 153.8033100000000 69.4777160000000
endloop
endfacet
facet normal 0.9834755203835 0.0611821986256 0.1703896692226
outer loop
vertex 101.8581900000000 153.1914200000000 68.1087800000000
vertex 101.7381100000000 152.2494400000000 69.1401110000000
vertex 101.9336700000000 152.0994600000000 68.0652080000000
endloop
endfacet
facet normal 0.1177294336971 -0.9524349051568 0.2810827847454
outer loop
vertex 98.4995200000000 146.1039700000000 66.7603011000000
vertex 99.2947500000000 146.1208900000000 66.4845575000000
vertex 99.4018300000000 146.4150700000000 67.4365220000000
endloop
endfacet
facet normal 0.9509891609627 -0.3091526454491 -0.0066526343126
outer loop
vertex 101.3566200000000 149.4053200000000 67.1912630000000
vertex 101.7150000000000 150.4904900000000 67.9927980000000
vertex 101.3660800000000 149.4059000000000 68.5166100000000
endloop
endfacet
facet normal 0.9413057509121 -0.3374911906225 -0.0065711149707
outer loop
vertex 101.0764200000000 148.6089600000000 67.9537840000000
vertex 101.3566200000000 149.4053200000000 67.1912630000000
vertex 101.3660800000000 149.4059000000000 68.5166100000000
endloop
endfacet
facet normal -0.4261356757623 -0.8443941661261 0.3246642543532
outer loop
vertex 97.6681200000000 146.4166000000000 66.9968975000000
vertex 98.2859600000000 146.3851900000000 67.7261470000000
vertex 97.3944900000000 146.8536200000000 67.7743580000000
endloop
endfacet
facet normal 0.0629985698563 -0.9880333329838 0.1407881852603
outer loop
vertex 98.2859600000000 146.3851900000000 67.7261470000000
vertex 99.4018300000000 146.4150700000000 67.4365220000000
vertex 98.9897100000000 146.5713800000000 68.7178970000000
endloop
endfacet
facet normal 0.9638847542911 0.1616909651618 0.2116180810570
outer loop
vertex 101.4550000000000 153.8033100000000 69.4777160000000
vertex 101.8581900000000 153.1914200000000 68.1087800000000
vertex 101.5936700000000 154.8023700000000 68.0827460000000
endloop
endfacet
facet normal 0.9858691611324 -0.0607518362628 0.1561128166382
outer loop
vertex 101.9609600000000 151.4095400000000 67.6243840000000
vertex 101.9336700000000 152.0994600000000 68.0652080000000
vertex 101.8255900000000 151.3618800000000 68.4607130000000
endloop
endfacet
facet normal 0.4197081156243 -0.8748832133416 0.2417115237058
outer loop
vertex 99.4018300000000 146.4150700000000 67.4365220000000
vertex 100.0720600000000 146.9788400000000 68.3133190000000
vertex 98.9897100000000 146.5713800000000 68.7178970000000
endloop
endfacet
facet normal 0.9687488917314 -0.2009952024843 0.1453496245177
outer loop
vertex 101.7150000000000 150.4904900000000 67.9927980000000
vertex 101.9609600000000 151.4095400000000 67.6243840000000
vertex 101.8255900000000 151.3618800000000 68.4607130000000
endloop
endfacet
facet normal 0.9102670470995 -0.4105178949490 -0.0537490547947
outer loop
vertex 100.7031500000000 147.7651300000000 68.0771710000000
vertex 101.0764200000000 148.6089600000000 67.9537840000000
vertex 101.0055700000000 148.3380200000000 68.8232560000000
endloop
endfacet
facet normal 0.7650704902592 -0.6386988196489 -0.0820424445859
outer loop
vertex 100.0720600000000 146.9788400000000 68.3133190000000
vertex 100.7031500000000 147.7651300000000 68.0771710000000
vertex 100.5873100000000 147.5216400000000 68.8924930000000
endloop
endfacet
facet normal -0.4558809769175 -0.8807728685113 0.1281081144154
outer loop
vertex 97.3944900000000 146.8536200000000 67.7743580000000
vertex 98.2859600000000 146.3851900000000 67.7261470000000
vertex 97.9458400000000 146.6750300000000 68.5085250000000
endloop
endfacet
facet normal -0.1511408685500 -0.9465502613199 0.2849544536397
outer loop
vertex 98.2859600000000 146.3851900000000 67.7261470000000
vertex 98.9897100000000 146.5713800000000 68.7178970000000
vertex 97.9458400000000 146.6750300000000 68.5085250000000
endloop
endfacet
facet normal 0.9817472634955 -0.0447362874575 0.1848539293704
outer loop
vertex 101.9336700000000 152.0994600000000 68.0652080000000
vertex 101.7381100000000 152.2494400000000 69.1401110000000
vertex 101.8255900000000 151.3618800000000 68.4607130000000
endloop
endfacet
facet normal 0.9867097575255 -0.1536370574568 0.0529103863149
outer loop
vertex 101.7150000000000 150.4904900000000 67.9927980000000
vertex 101.8255900000000 151.3618800000000 68.4607130000000
vertex 101.6493800000000 150.5846600000000 69.4899690000000
endloop
endfacet
facet normal 0.9582913827198 -0.2795131127719 0.0595822590498
outer loop
vertex 101.3660800000000 149.4059000000000 68.5166100000000
vertex 101.7150000000000 150.4904900000000 67.9927980000000
vertex 101.6493800000000 150.5846600000000 69.4899690000000
endloop
endfacet
facet normal 0.9450152542085 -0.3260988351940 -0.0246113591315
outer loop
vertex 101.0764200000000 148.6089600000000 67.9537840000000
vertex 101.3660800000000 149.4059000000000 68.5166100000000
vertex 101.0055700000000 148.3380200000000 68.8232560000000
endloop
endfacet
facet normal 0.7879603594923 -0.6119309342655 0.0682568938476
outer loop
vertex 100.0720600000000 146.9788400000000 68.3133190000000
vertex 100.3202500000000 147.1872000000000 67.3161750000000
vertex 100.7031500000000 147.7651300000000 68.0771710000000
endloop
endfacet
facet normal 0.3589989798016 -0.9331093043073 0.0206581392345
outer loop
vertex 98.9897100000000 146.5713800000000 68.7178970000000
vertex 100.0720600000000 146.9788400000000 68.3133190000000
vertex 100.0255100000000 146.9850200000000 69.4014140000000
endloop
endfacet
facet normal 0.7063536066740 -0.7070308285423 0.0342343369936
outer loop
vertex 100.0720600000000 146.9788400000000 68.3133190000000
vertex 100.5873100000000 147.5216400000000 68.8924930000000
vertex 100.0255100000000 146.9850200000000 69.4014140000000
endloop
endfacet
facet normal -0.1373044455972 -0.9691270349310 0.2047932601064
outer loop
vertex 97.9458400000000 146.6750300000000 68.5085250000000
vertex 98.9897100000000 146.5713800000000 68.7178970000000
vertex 98.0501100000000 146.8604900000000 69.4560710000000
endloop
endfacet
facet normal 0.9107276149672 -0.4129418337507 0.0073656822343
outer loop
vertex 100.6499400000000 147.7220200000000 65.1668357000000
vertex 101.2308100000000 149.0004100000000 65.0156428000000
vertex 101.0373600000000 148.5936100000000 66.1283054000000
endloop
endfacet
facet normal 0.9878970787763 -0.0203377294371 0.1537717090579
outer loop
vertex 101.8255900000000 151.3618800000000 68.4607130000000
vertex 101.7381100000000 152.2494400000000 69.1401110000000
vertex 101.6493800000000 150.5846600000000 69.4899690000000
endloop
endfacet
facet normal 0.9974086045693 -0.0406914448321 0.0593319631277
outer loop
vertex 101.6493800000000 150.5846600000000 69.4899690000000
vertex 101.7381100000000 152.2494400000000 69.1401110000000
vertex 101.6510700000000 151.9201300000000 70.3774600000000
endloop
endfacet
facet normal 0.9761860165617 -0.2157258616778 -0.0228738644022
outer loop
vertex 101.3660800000000 149.4059000000000 68.5166100000000
vertex 101.6493800000000 150.5846600000000 69.4899690000000
vertex 101.3082000000000 149.0233500000000 69.6543400000000
endloop
endfacet
facet normal 0.9396338738749 -0.3359224436701 -0.0651482532816
outer loop
vertex 101.0055700000000 148.3380200000000 68.8232560000000
vertex 101.3660800000000 149.4059000000000 68.5166100000000
vertex 101.3082000000000 149.0233500000000 69.6543400000000
endloop
endfacet
facet normal 0.8840038163971 -0.4599794724878 -0.0834034620703
outer loop
vertex 100.5873100000000 147.5216400000000 68.8924930000000
vertex 101.0055700000000 148.3380200000000 68.8232560000000
vertex 100.8335000000000 147.8205900000000 69.8531490000000
endloop
endfacet
facet normal 0.7080056063072 -0.7051833853077 0.0380059801021
outer loop
vertex 100.0255100000000 146.9850200000000 69.4014140000000
vertex 100.5873100000000 147.5216400000000 68.8924930000000
vertex 100.8335000000000 147.8205900000000 69.8531490000000
endloop
endfacet
facet normal -0.1851451853003 -0.9719540586430 0.1450054076493
outer loop
vertex 98.0501100000000 146.8604900000000 69.4560710000000
vertex 98.9897100000000 146.5713800000000 68.7178970000000
vertex 99.0935700000000 146.7466100000000 70.0250530000000
endloop
endfacet
facet normal 0.3101071259754 -0.9452065272235 0.1020695415555
outer loop
vertex 98.9897100000000 146.5713800000000 68.7178970000000
vertex 100.0255100000000 146.9850200000000 69.4014140000000
vertex 99.0935700000000 146.7466100000000 70.0250530000000
endloop
endfacet
facet normal 0.9246818913466 0.3311096967495 0.1879621465457
outer loop
vertex 101.4211200000000 153.0739900000000 70.9291420000000
vertex 101.4550000000000 153.8033100000000 69.4777160000000
vertex 100.8713900000000 154.7367500000000 70.7044660000000
endloop
endfacet
facet normal 0.8896051295818 -0.4566215714307 -0.0099726589212
outer loop
vertex 100.7031500000000 147.7651300000000 68.0771710000000
vertex 101.0055700000000 148.3380200000000 68.8232560000000
vertex 100.5873100000000 147.5216400000000 68.8924930000000
endloop
endfacet
facet normal 0.9842635197687 0.1760681337040 0.0150111940376
outer loop
vertex 101.7381100000000 152.2494400000000 69.1401110000000
vertex 101.4550000000000 153.8033100000000 69.4777160000000
vertex 101.6278100000000 152.7922700000000 70.0054120000000
endloop
endfacet
facet normal 0.9955862001299 -0.0902098756869 0.0258900838061
outer loop
vertex 101.5253400000000 149.5611000000000 70.6934140000000
vertex 101.6493800000000 150.5846600000000 69.4899690000000
vertex 101.6284700000000 150.8058300000000 71.0646810000000
endloop
endfacet
facet normal 0.9998279853027 -0.0111266135931 0.0148390793371
outer loop
vertex 101.6493800000000 150.5846600000000 69.4899690000000
vertex 101.6510700000000 151.9201300000000 70.3774600000000
vertex 101.6284700000000 150.8058300000000 71.0646810000000
endloop
endfacet
facet normal 0.9606839427389 0.2384420264438 0.1422383991371
outer loop
vertex 101.4550000000000 153.8033100000000 69.4777160000000
vertex 101.4211200000000 153.0739900000000 70.9291420000000
vertex 101.6278100000000 152.7922700000000 70.0054120000000
endloop
endfacet
facet normal 0.8992141084161 0.3084394187673 0.3102887561222
outer loop
vertex 100.8616900000000 155.7024200000000 69.3093320000000
vertex 101.4550000000000 153.8033100000000 69.4777160000000
vertex 101.5936700000000 154.8023700000000 68.0827460000000
endloop
endfacet
facet normal 0.9284507158661 0.3084172437728 0.2070219117663
outer loop
vertex 101.4550000000000 153.8033100000000 69.4777160000000
vertex 100.8616900000000 155.7024200000000 69.3093320000000
vertex 100.8713900000000 154.7367500000000 70.7044660000000
endloop
endfacet
facet normal 0.9941911140060 0.0635658335393 0.0868528274609
outer loop
vertex 101.6510700000000 151.9201300000000 70.3774600000000
vertex 101.7381100000000 152.2494400000000 69.1401110000000
vertex 101.6278100000000 152.7922700000000 70.0054120000000
endloop
endfacet
facet normal 0.9279166171128 -0.3714471815228 -0.0315870705294
outer loop
vertex 101.0055700000000 148.3380200000000 68.8232560000000
vertex 101.3082000000000 149.0233500000000 69.6543400000000
vertex 100.8335000000000 147.8205900000000 69.8531490000000
endloop
endfacet
facet normal 0.7247401265860 -0.6886548931354 -0.0224986016650
outer loop
vertex 100.0255100000000 146.9850200000000 69.4014140000000
vertex 100.8335000000000 147.8205900000000 69.8531490000000
vertex 100.1310700000000 147.0576200000000 70.5795860000000
endloop
endfacet
facet normal -0.1934384546016 -0.9678047768182 0.1610449572298
outer loop
vertex 98.0501100000000 146.8604900000000 69.4560710000000
vertex 99.0935700000000 146.7466100000000 70.0250530000000
vertex 98.1474700000000 147.0388900000000 70.6451150000000
endloop
endfacet
facet normal 0.2696899634042 -0.9623060132409 0.0351348903422
outer loop
vertex 99.0935700000000 146.7466100000000 70.0250530000000
vertex 100.0255100000000 146.9850200000000 69.4014140000000
vertex 100.1310700000000 147.0576200000000 70.5795860000000
endloop
endfacet
facet normal -0.2182386741823 -0.9680710763484 0.1233299324120
outer loop
vertex 98.1474700000000 147.0388900000000 70.6451150000000
vertex 99.0935700000000 146.7466100000000 70.0250530000000
vertex 99.1867500000000 146.8823300000000 71.2552660000000
endloop
endfacet
facet normal 0.2424649977023 -0.9661405817413 0.0882218861840
outer loop
vertex 99.0935700000000 146.7466100000000 70.0250530000000
vertex 100.1310700000000 147.0576200000000 70.5795860000000
vertex 99.1867500000000 146.8823300000000 71.2552660000000
endloop
endfacet
facet normal 0.9767927200458 0.1055553631350 0.1863707256491
outer loop
vertex 101.4211200000000 153.0739900000000 70.9291420000000
vertex 101.6510700000000 151.9201300000000 70.3774600000000
vertex 101.6278100000000 152.7922700000000 70.0054120000000
endloop
endfacet
facet normal 0.9957013990987 0.0331449132612 0.0864877942709
outer loop
vertex 101.6284700000000 150.8058300000000 71.0646810000000
vertex 101.6510700000000 151.9201300000000 70.3774600000000
vertex 101.5551400000000 151.8925200000000 71.4924470000000
endloop
endfacet
facet normal 0.9674403838742 -0.2409507222512 -0.0774716276837
outer loop
vertex 101.3082000000000 149.0233500000000 69.6543400000000
vertex 101.5253400000000 149.5611000000000 70.6934140000000
vertex 101.2594200000000 148.5360600000000 70.5607510000000
endloop
endfacet
facet normal 0.9092860357653 -0.3849961675461 -0.1580406787416
outer loop
vertex 100.8335000000000 147.8205900000000 69.8531490000000
vertex 101.3082000000000 149.0233500000000 69.6543400000000
vertex 101.2594200000000 148.5360600000000 70.5607510000000
endloop
endfacet
facet normal 0.6934511464093 -0.7158948897983 -0.0813634703314
outer loop
vertex 100.1310700000000 147.0576200000000 70.5795860000000
vertex 100.8335000000000 147.8205900000000 69.8531490000000
vertex 100.9192800000000 147.7619500000000 71.1001990000000
endloop
endfacet
facet normal 0.9841292747551 0.1538206334694 0.0884804118948
outer loop
vertex 101.6510700000000 151.9201300000000 70.3774600000000
vertex 101.4211200000000 153.0739900000000 70.9291420000000
vertex 101.5551400000000 151.8925200000000 71.4924470000000
endloop
endfacet
facet normal 0.9949580589672 0.0293946329465 0.0958875197828
outer loop
vertex 101.6284700000000 150.8058300000000 71.0646810000000
vertex 101.5551400000000 151.8925200000000 71.4924470000000
vertex 101.4876900000000 151.0731900000000 72.4434970000000
endloop
endfacet
facet normal 0.9948523254886 0.0366792117378 0.0944642043116
outer loop
vertex 101.6284700000000 150.8058300000000 71.0646810000000
vertex 101.4876900000000 151.0731900000000 72.4434970000000
vertex 101.5877600000000 149.8172400000000 71.8772760000000
endloop
endfacet
facet normal 0.9967494153187 -0.0715242798616 -0.0370793804180
outer loop
vertex 101.5253400000000 149.5611000000000 70.6934140000000
vertex 101.6284700000000 150.8058300000000 71.0646810000000
vertex 101.5877600000000 149.8172400000000 71.8772760000000
endloop
endfacet
facet normal 0.9855342995659 -0.1687705763741 -0.0154478778324
outer loop
vertex 101.5253400000000 149.5611000000000 70.6934140000000
vertex 101.5877600000000 149.8172400000000 71.8772760000000
vertex 101.3911800000000 148.7016500000000 71.5239870000000
endloop
endfacet
facet normal 0.9667325955389 -0.2389965108958 -0.0911523806720
outer loop
vertex 101.2594200000000 148.5360600000000 70.5607510000000
vertex 101.5253400000000 149.5611000000000 70.6934140000000
vertex 101.3911800000000 148.7016500000000 71.5239870000000
endloop
endfacet
facet normal 0.8900212443292 -0.4484279479843 -0.0823077159764
outer loop
vertex 100.8335000000000 147.8205900000000 69.8531490000000
vertex 101.2594200000000 148.5360600000000 70.5607510000000
vertex 100.9192800000000 147.7619500000000 71.1001990000000
endloop
endfacet
facet normal 0.6610915519981 -0.7501745169291 0.0140054998786
outer loop
vertex 100.1310700000000 147.0576200000000 70.5795860000000
vertex 100.9192800000000 147.7619500000000 71.1001990000000
vertex 100.2136200000000 147.1534700000000 71.8170370000000
endloop
endfacet
facet normal 0.2237996938619 -0.9727606845354 0.0604181069670
outer loop
vertex 99.1867500000000 146.8823300000000 71.2552660000000
vertex 100.1310700000000 147.0576200000000 70.5795860000000
vertex 100.2136200000000 147.1534700000000 71.8170370000000
endloop
endfacet
facet normal 0.9348337001958 0.3275830108604 0.1370230782530
outer loop
vertex 101.4211200000000 153.0739900000000 70.9291420000000
vertex 100.8713900000000 154.7367500000000 70.7044660000000
vertex 101.0015000000000 153.9201900000000 71.7689580000000
endloop
endfacet
facet normal 0.9012994042346 -0.4303821829429 -0.0493007153267
outer loop
vertex 100.9192800000000 147.7619500000000 71.1001990000000
vertex 101.2594200000000 148.5360600000000 70.5607510000000
vertex 101.3911800000000 148.7016500000000 71.5239870000000
endloop
endfacet
facet normal 0.9969094332357 0.0534924923302 0.0575337743421
outer loop
vertex 101.5877600000000 149.8172400000000 71.8772760000000
vertex 101.4876900000000 151.0731900000000 72.4434970000000
vertex 101.5237200000000 149.9265300000000 72.8853080000000
endloop
endfacet
facet normal 0.9713614925868 0.1826465499925 0.1519772630869
outer loop
vertex 101.5551400000000 151.8925200000000 71.4924470000000
vertex 101.4211200000000 153.0739900000000 70.9291420000000
vertex 101.2609400000000 152.6795100000000 72.4270180000000
endloop
endfacet
facet normal 0.2213614594563 -0.9730230685072 0.0650016339811
outer loop
vertex 99.1867500000000 146.8823300000000 71.2552660000000
vertex 100.2136200000000 147.1534700000000 71.8170370000000
vertex 99.2515900000000 146.9821000000000 72.5279330000000
endloop
endfacet
facet normal 0.6600679050875 -0.7511067582003 0.0122064925051
outer loop
vertex 100.2136200000000 147.1534700000000 71.8170370000000
vertex 100.9192800000000 147.7619500000000 71.1001990000000
vertex 101.0344700000000 147.8824500000000 72.2860550000000
endloop
endfacet
facet normal -0.2249256032331 -0.9649038259530 0.1355325778977
outer loop
vertex 98.1474700000000 147.0388900000000 70.6451150000000
vertex 99.1867500000000 146.8823300000000 71.2552660000000
vertex 98.2559700000000 147.1837400000000 71.8564160000000
endloop
endfacet
facet normal 0.9063010406589 0.3297391866590 0.2643681003487
outer loop
vertex 101.2609400000000 152.6795100000000 72.4270180000000
vertex 101.0015000000000 153.9201900000000 71.7689580000000
vertex 100.6364600000000 154.1124200000000 72.7806170000000
endloop
endfacet
facet normal 0.8545302945097 0.4572767158550 0.2463249498163
outer loop
vertex 101.0015000000000 153.9201900000000 71.7689580000000
vertex 100.8713900000000 154.7367500000000 70.7044660000000
vertex 100.1616700000000 155.3814800000000 71.9696940000000
endloop
endfacet
facet normal 0.8582755851779 0.4628044091650 0.2217545912600
outer loop
vertex 101.0015000000000 153.9201900000000 71.7689580000000
vertex 100.1616700000000 155.3814800000000 71.9696940000000
vertex 100.6364600000000 154.1124200000000 72.7806170000000
endloop
endfacet
facet normal 0.9720998134835 0.1391599116647 0.1888292128108
outer loop
vertex 101.4876900000000 151.0731900000000 72.4434970000000
vertex 101.5551400000000 151.8925200000000 71.4924470000000
vertex 101.2609400000000 152.6795100000000 72.4270180000000
endloop
endfacet
facet normal 0.9251318322917 -0.3787629848624 0.0258784500825
outer loop
vertex 101.0344700000000 147.8824500000000 72.2860550000000
vertex 101.3911800000000 148.7016500000000 71.5239870000000
vertex 101.4515500000000 148.9255000000000 72.6421330000000
endloop
endfacet
facet normal 0.9005323386244 -0.4326059344693 -0.0435156587162
outer loop
vertex 100.9192800000000 147.7619500000000 71.1001990000000
vertex 101.3911800000000 148.7016500000000 71.5239870000000
vertex 101.0344700000000 147.8824500000000 72.2860550000000
endloop
endfacet
facet normal 0.9403300676727 0.2905560356547 0.1770778189816
outer loop
vertex 101.4211200000000 153.0739900000000 70.9291420000000
vertex 101.0015000000000 153.9201900000000 71.7689580000000
vertex 101.2609400000000 152.6795100000000 72.4270180000000
endloop
endfacet
facet normal 0.9793773614211 0.1397469536518 0.1459135801797
outer loop
vertex 101.4876900000000 151.0731900000000 72.4434970000000
vertex 101.2609400000000 152.6795100000000 72.4270180000000
vertex 101.2022100000000 151.8346900000000 73.6303320000000
endloop
endfacet
facet normal 0.9933417154492 -0.0892977954930 0.0727883237108
outer loop
vertex 101.5877600000000 149.8172400000000 71.8772760000000
vertex 101.5237200000000 149.9265300000000 72.8853080000000
vertex 101.4515500000000 148.9255000000000 72.6421330000000
endloop
endfacet
facet normal 0.9856834987120 -0.1674519562919 -0.0196947378976
outer loop
vertex 101.3911800000000 148.7016500000000 71.5239870000000
vertex 101.5877600000000 149.8172400000000 71.8772760000000
vertex 101.4515500000000 148.9255000000000 72.6421330000000
endloop
endfacet
facet normal -0.2546954391948 -0.9629661191500 0.0884674325531
outer loop
vertex 99.1867500000000 146.8823300000000 71.2552660000000
vertex 99.2515900000000 146.9821000000000 72.5279330000000
vertex 98.2559700000000 147.1837400000000 71.8564160000000
endloop
endfacet
facet normal -0.2817421256831 -0.9503159867023 0.1323665366833
outer loop
vertex 98.2559700000000 147.1837400000000 71.8564160000000
vertex 99.2515900000000 146.9821000000000 72.5279330000000
vertex 98.2775900000000 147.3465400000000 73.0712450000000
endloop
endfacet
facet normal 0.2385337206088 -0.9669830641298 0.0896962530910
outer loop
vertex 99.2515900000000 146.9821000000000 72.5279330000000
vertex 100.2136200000000 147.1534700000000 71.8170370000000
vertex 100.3099800000000 147.2964000000000 73.1016590000000
endloop
endfacet
facet normal 0.8610009568559 0.4603260989589 0.2162804542962
outer loop
vertex 100.6364600000000 154.1124200000000 72.7806170000000
vertex 100.1616700000000 155.3814800000000 71.9696940000000
vertex 100.0176900000000 155.1178300000000 73.1040170000000
endloop
endfacet
facet normal 0.9185439947089 0.3600170920047 0.1632930594016
outer loop
vertex 101.2609400000000 152.6795100000000 72.4270180000000
vertex 100.6364600000000 154.1124200000000 72.7806170000000
vertex 100.8320300000000 153.1699400000000 73.7584250000000
endloop
endfacet
facet normal 0.9460818505988 0.2415874102380 0.2157884500662
outer loop
vertex 101.2022100000000 151.8346900000000 73.6303320000000
vertex 101.2609400000000 152.6795100000000 72.4270180000000
vertex 100.8320300000000 153.1699400000000 73.7584250000000
endloop
endfacet
facet normal 0.9213473475532 -0.3855039736258 0.0500574817117
outer loop
vertex 101.0344700000000 147.8824500000000 72.2860550000000
vertex 101.4515500000000 148.9255000000000 72.6421330000000
vertex 101.0871800000000 148.1655400000000 73.4960260000000
endloop
endfacet
facet normal 0.6522531614761 -0.7571778787440 0.0353195878391
outer loop
vertex 100.2136200000000 147.1534700000000 71.8170370000000
vertex 101.0344700000000 147.8824500000000 72.2860550000000
vertex 100.3099800000000 147.2964000000000 73.1016590000000
endloop
endfacet
facet normal 0.8127473353702 0.5362361706832 0.2277993373556
outer loop
vertex 100.0176900000000 155.1178300000000 73.1040170000000
vertex 100.1616700000000 155.3814800000000 71.9696940000000
vertex 99.4131600000000 156.0692100000000 73.0213380000000
endloop
endfacet
facet normal -0.3053966877661 -0.9481057262919 0.0884782169465
outer loop
vertex 98.2775900000000 147.3465400000000 73.0712450000000
vertex 99.2515900000000 146.9821000000000 72.5279330000000
vertex 99.2570800000000 147.1150200000000 73.9712130000000
endloop
endfacet
facet normal 0.9800172421767 0.1191032946207 0.1593129318254
outer loop
vertex 101.4876900000000 151.0731900000000 72.4434970000000
vertex 101.2022100000000 151.8346900000000 73.6303320000000
vertex 101.3482500000000 150.5494200000000 73.6928390000000
endloop
endfacet
facet normal 0.9853160951356 0.0874604930597 0.1466385175201
outer loop
vertex 101.5237200000000 149.9265300000000 72.8853080000000
vertex 101.4876900000000 151.0731900000000 72.4434970000000
vertex 101.3482500000000 150.5494200000000 73.6928390000000
endloop
endfacet
facet normal 0.9791153429727 0.0127695039425 0.2029041274213
outer loop
vertex 101.5237200000000 149.9265300000000 72.8853080000000
vertex 101.3482500000000 150.5494200000000 73.6928390000000
vertex 101.3559700000000 149.3309800000000 73.7322670000000
endloop
endfacet
facet normal 0.9870634867666 -0.1013436244587 0.1242382504451
outer loop
vertex 101.4515500000000 148.9255000000000 72.6421330000000
vertex 101.5237200000000 149.9265300000000 72.8853080000000
vertex 101.3559700000000 149.3309800000000 73.7322670000000
endloop
endfacet
facet normal 0.9502816862099 -0.2553055384584 0.1782801135476
outer loop
vertex 101.0871800000000 148.1655400000000 73.4960260000000
vertex 101.4515500000000 148.9255000000000 72.6421330000000
vertex 101.3559700000000 149.3309800000000 73.7322670000000
endloop
endfacet
facet normal 0.7086262870530 -0.6932546604138 0.1313269245511
outer loop
vertex 100.3099800000000 147.2964000000000 73.1016590000000
vertex 101.0344700000000 147.8824500000000 72.2860550000000
vertex 101.0871800000000 148.1655400000000 73.4960260000000
endloop
endfacet
facet normal 0.8220833875803 0.5384540452430 0.1850571398945
outer loop
vertex 100.0176900000000 155.1178300000000 73.1040170000000
vertex 99.4131600000000 156.0692100000000 73.0213380000000
vertex 99.5561500000000 155.5158400000000 73.9962510000000
endloop
endfacet
facet normal 0.8913610614836 0.4020898679714 0.2092825748729
outer loop
vertex 100.8320300000000 153.1699400000000 73.7584250000000
vertex 100.6364600000000 154.1124200000000 72.7806170000000
vertex 100.2396100000000 154.4144100000000 73.8906450000000
endloop
endfacet
facet normal 0.8625259765299 0.4730404139674 0.1796711066494
outer loop
vertex 100.6364600000000 154.1124200000000 72.7806170000000
vertex 100.0176900000000 155.1178300000000 73.1040170000000
vertex 100.2396100000000 154.4144100000000 73.8906450000000
endloop
endfacet
facet normal 0.9520437865006 0.2465620218427 0.1811623525199
outer loop
vertex 101.2022100000000 151.8346900000000 73.6303320000000
vertex 100.8320300000000 153.1699400000000 73.7584250000000
vertex 100.8421800000000 152.3075800000000 74.8787570000000
endloop
endfacet
facet normal 0.7251043016560 -0.6841238303072 0.0787295149596
outer loop
vertex 100.3099800000000 147.2964000000000 73.1016590000000
vertex 101.0871800000000 148.1655400000000 73.4960260000000
vertex 100.4339000000000 147.5761500000000 74.3912480000000
endloop
endfacet
facet normal 0.2393597927390 -0.9669221336538 0.0881389645413
outer loop
vertex 99.2515900000000 146.9821000000000 72.5279330000000
vertex 100.3099800000000 147.2964000000000 73.1016590000000
vertex 99.2570800000000 147.1150200000000 73.9712130000000
endloop
endfacet
facet normal -0.3271967056084 -0.9379550343417 0.1148158063682
outer loop
vertex 98.2775900000000 147.3465400000000 73.0712450000000
vertex 99.2570800000000 147.1150200000000 73.9712130000000
vertex 98.1393700000000 147.5374500000000 74.2369370000000
endloop
endfacet
facet normal 0.8395221820091 0.5007184718388 0.2109111610944
outer loop
vertex 100.0176900000000 155.1178300000000 73.1040170000000
vertex 99.5561500000000 155.5158400000000 73.9962510000000
vertex 100.2396100000000 154.4144100000000 73.8906450000000
endloop
endfacet
facet normal 0.9587624512583 0.2019157818396 0.2000114474257
outer loop
vertex 101.2022100000000 151.8346900000000 73.6303320000000
vertex 100.8421800000000 152.3075800000000 74.8787570000000
vertex 101.1515700000000 151.1790700000000 74.5349390000000
endloop
endfacet
facet normal 0.9648387341342 -0.2428878314899 0.1004575454035
outer loop
vertex 101.0871800000000 148.1655400000000 73.4960260000000
vertex 101.3559700000000 149.3309800000000 73.7322670000000
vertex 101.0703000000000 148.5963400000000 74.6997440000000
endloop
endfacet
facet normal 0.9828972325802 0.1185366550882 0.1409329329386
outer loop
vertex 101.3482500000000 150.5494200000000 73.6928390000000
vertex 101.2022100000000 151.8346900000000 73.6303320000000
vertex 101.1515700000000 151.1790700000000 74.5349390000000
endloop
endfacet
facet normal 0.3048743752874 -0.9363935657806 0.1738352819708
outer loop
vertex 99.2570800000000 147.1150200000000 73.9712130000000
vertex 100.3099800000000 147.2964000000000 73.1016590000000
vertex 100.4339000000000 147.5761500000000 74.3912480000000
endloop
endfacet
facet normal 0.8980060572937 0.4107272145232 0.1577601860859
outer loop
vertex 100.8320300000000 153.1699400000000 73.7584250000000
vertex 100.2396100000000 154.4144100000000 73.8906450000000
vertex 100.4054800000000 153.6604800000000 74.9093260000000
endloop
endfacet
facet normal 0.9826152569306 0.0891085688266 0.1628708685090
outer loop
vertex 101.3482500000000 150.5494200000000 73.6928390000000
vertex 101.1515700000000 151.1790700000000 74.5349390000000
vertex 101.1953600000000 149.9967500000000 74.9176110000000
endloop
endfacet
facet normal 0.9916543888527 0.0104413152999 0.1285011751073
outer loop
vertex 101.3559700000000 149.3309800000000 73.7322670000000
vertex 101.3482500000000 150.5494200000000 73.6928390000000
vertex 101.1953600000000 149.9967500000000 74.9176110000000
endloop
endfacet
facet normal 0.7989061648259 -0.5626403107287 0.2125672141849
outer loop
vertex 100.4339000000000 147.5761500000000 74.3912480000000
vertex 101.0871800000000 148.1655400000000 73.4960260000000
vertex 101.0703000000000 148.5963400000000 74.6997440000000
endloop
endfacet
facet normal 0.3385157609048 -0.9374867440855 0.0807817076009
outer loop
vertex 99.2570800000000 147.1150200000000 73.9712130000000
vertex 100.4339000000000 147.5761500000000 74.3912480000000
vertex 99.6387700000000 147.3645400000000 75.2674670000000
endloop
endfacet
facet normal 0.8819288416520 0.4360307577370 0.1791052667281
outer loop
vertex 100.4054800000000 153.6604800000000 74.9093260000000
vertex 100.2396100000000 154.4144100000000 73.8906450000000
vertex 99.7969100000000 154.8496600000000 75.0109220000000
endloop
endfacet
facet normal 0.8476244051590 0.5129611944593 0.1356601664370
outer loop
vertex 100.2396100000000 154.4144100000000 73.8906450000000
vertex 99.5561500000000 155.5158400000000 73.9962510000000
vertex 99.7969100000000 154.8496600000000 75.0109220000000
endloop
endfacet
facet normal 0.9300179369181 0.2952539412422 0.2188418314481
outer loop
vertex 100.8421800000000 152.3075800000000 74.8787570000000
vertex 100.8320300000000 153.1699400000000 73.7584250000000
vertex 100.4054800000000 153.6604800000000 74.9093260000000
endloop
endfacet
facet normal -0.4778036881034 -0.8686679720750 0.1308418508192
outer loop
vertex 97.9988400000000 147.7839300000000 75.3601520000000
vertex 98.1393700000000 147.5374500000000 74.2369370000000
vertex 98.7503500000000 147.3148300000000 74.9901030000000
endloop
endfacet
facet normal 0.9658756013663 0.2149230153434 0.1445421051492
outer loop
vertex 100.8421800000000 152.3075800000000 74.8787570000000
vertex 100.7394300000000 152.0771200000000 75.9080410000000
vertex 100.9895900000000 151.2033900000000 75.5355630000000
endloop
endfacet
facet normal 0.9641438418529 0.2183943390012 0.1507665908261
outer loop
vertex 101.1515700000000 151.1790700000000 74.5349390000000
vertex 100.8421800000000 152.3075800000000 74.8787570000000
vertex 100.9895900000000 151.2033900000000 75.5355630000000
endloop
endfacet
facet normal -0.0044789348421 -0.9817171884273 0.1902926721895
outer loop
vertex 99.2570800000000 147.1150200000000 73.9712130000000
vertex 99.6387700000000 147.3645400000000 75.2674670000000
vertex 98.7503500000000 147.3148300000000 74.9901030000000
endloop
endfacet
facet normal 0.9731175914828 -0.1176994551152 0.1979620958980
outer loop
vertex 101.0703000000000 148.5963400000000 74.6997440000000
vertex 101.3559700000000 149.3309800000000 73.7322670000000
vertex 101.1953600000000 149.9967500000000 74.9176110000000
endloop
endfacet
facet normal -0.3517235419525 -0.9360640211649 0.0086428188081
outer loop
vertex 98.1393700000000 147.5374500000000 74.2369370000000
vertex 99.2570800000000 147.1150200000000 73.9712130000000
vertex 98.7503500000000 147.3148300000000 74.9901030000000
endloop
endfacet
facet normal 0.8111852972747 0.5582836030999 0.1740627243128
outer loop
vertex 99.7969100000000 154.8496600000000 75.0109220000000
vertex 99.5561500000000 155.5158400000000 73.9962510000000
vertex 98.9650200000000 156.0166100000000 75.1449420000000
endloop
endfacet
facet normal 0.9837142372095 0.0872883028254 0.1571211370290
outer loop
vertex 101.1953600000000 149.9967500000000 74.9176110000000
vertex 101.1515700000000 151.1790700000000 74.5349390000000
vertex 100.9895900000000 151.2033900000000 75.5355630000000
endloop
endfacet
facet normal 0.8862314964040 0.4415708528308 0.1400318417783
outer loop
vertex 100.4054800000000 153.6604800000000 74.9093260000000
vertex 99.7969100000000 154.8496600000000 75.0109220000000
vertex 100.0044200000000 154.1175000000000 76.0064000000000
endloop
endfacet
facet normal 0.9441758557205 0.3017831712914 0.1321320210991
outer loop
vertex 100.8421800000000 152.3075800000000 74.8787570000000
vertex 100.4054800000000 153.6604800000000 74.9093260000000
vertex 100.4811900000000 152.9976000000000 75.8823110000000
endloop
endfacet
facet normal 0.9499788058730 0.2708619737963 0.1554800937201
outer loop
vertex 100.7394300000000 152.0771200000000 75.9080410000000
vertex 100.8421800000000 152.3075800000000 74.8787570000000
vertex 100.4811900000000 152.9976000000000 75.8823110000000
endloop
endfacet
facet normal 0.9846506881565 0.0919339853010 0.1483616010278
outer loop
vertex 101.1953600000000 149.9967500000000 74.9176110000000
vertex 100.9895900000000 151.2033900000000 75.5355630000000
vertex 100.9722000000000 150.2150400000000 76.2634200000000
endloop
endfacet
facet normal 0.9816107989211 -0.1117388267903 0.1547729757711
outer loop
vertex 101.0703000000000 148.5963400000000 74.6997440000000
vertex 101.1953600000000 149.9967500000000 74.9176110000000
vertex 100.9322400000000 149.0197100000000 75.8810100000000
endloop
endfacet
facet normal 0.8760561969413 -0.4122551316153 0.2501424519301
outer loop
vertex 101.0703000000000 148.5963400000000 74.6997440000000
vertex 100.9322400000000 149.0197100000000 75.8810100000000
vertex 100.5199600000000 147.9689500000000 75.5931710000000
endloop
endfacet
facet normal 0.4874092267916 -0.8396809795797 0.2395163839291
outer loop
vertex 99.6387700000000 147.3645400000000 75.2674670000000
vertex 100.4339000000000 147.5761500000000 74.3912480000000
vertex 100.5199600000000 147.9689500000000 75.5931710000000
endloop
endfacet
facet normal 0.8253437669781 -0.5514836616071 0.1211339642333
outer loop
vertex 100.4339000000000 147.5761500000000 74.3912480000000
vertex 101.0703000000000 148.5963400000000 74.6997440000000
vertex 100.5199600000000 147.9689500000000 75.5931710000000
endloop
endfacet
facet normal 0.9801375184574 -0.0894001271495 0.1770255975212
outer loop
vertex 101.1953600000000 149.9967500000000 74.9176110000000
vertex 100.9722000000000 150.2150400000000 76.2634200000000
vertex 100.9322400000000 149.0197100000000 75.8810100000000
endloop
endfacet
facet normal 0.8137241697080 0.5638911464161 0.1409955695282
outer loop
vertex 99.7969100000000 154.8496600000000 75.0109220000000
vertex 98.9650200000000 156.0166100000000 75.1449420000000
vertex 99.3589500000000 155.2063000000000 76.1121800000000
endloop
endfacet
facet normal 0.8535751279586 0.4884096686639 0.1812884345071
outer loop
vertex 100.0044200000000 154.1175000000000 76.0064000000000
vertex 99.7969100000000 154.8496600000000 75.0109220000000
vertex 99.3589500000000 155.2063000000000 76.1121800000000
endloop
endfacet
facet normal 0.9120947930328 0.3683589827106 0.1799854115723
outer loop
vertex 100.4054800000000 153.6604800000000 74.9093260000000
vertex 100.0044200000000 154.1175000000000 76.0064000000000
vertex 100.4811900000000 152.9976000000000 75.8823110000000
endloop
endfacet
facet normal 0.9837457084397 0.0949372956284 0.1524181453281
outer loop
vertex 100.9722000000000 150.2150400000000 76.2634200000000
vertex 100.9895900000000 151.2033900000000 75.5355630000000
vertex 100.7890100000000 151.4367400000000 76.6848100000000
endloop
endfacet
facet normal 0.9549502824797 0.2712742803293 0.1203337975125
outer loop
vertex 100.7394300000000 152.0771200000000 75.9080410000000
vertex 100.4811900000000 152.9976000000000 75.8823110000000
vertex 100.5565600000000 152.4258500000000 76.5731100000000
endloop
endfacet
facet normal 0.9606433966132 0.2413010030462 0.1376157348280
outer loop
vertex 100.7890100000000 151.4367400000000 76.6848100000000
vertex 100.7394300000000 152.0771200000000 75.9080410000000
vertex 100.5565600000000 152.4258500000000 76.5731100000000
endloop
endfacet
facet normal 0.9667108273876 0.2242667742885 0.1231851864544
outer loop
vertex 100.9895900000000 151.2033900000000 75.5355630000000
vertex 100.7394300000000 152.0771200000000 75.9080410000000
vertex 100.7890100000000 151.4367400000000 76.6848100000000
endloop
endfacet
facet normal 0.8955906234334 -0.4030103745958 0.1884146310305
outer loop
vertex 100.5199600000000 147.9689500000000 75.5931710000000
vertex 100.9322400000000 149.0197100000000 75.8810100000000
vertex 100.4893500000000 148.3700200000000 76.5965400000000
endloop
endfacet
facet normal 0.8016048842015 0.5769144365842 0.1568417753180
outer loop
vertex 98.9650200000000 156.0166100000000 75.1449420000000
vertex 98.7351600000000 156.0280600000000 76.2776200000000
vertex 99.3589500000000 155.2063000000000 76.1121800000000
endloop
endfacet
facet normal 0.9173522509503 0.3760815375500 0.1304895581666
outer loop
vertex 100.4811900000000 152.9976000000000 75.8823110000000
vertex 100.0044200000000 154.1175000000000 76.0064000000000
vertex 100.1887900000000 153.3189500000000 77.0117500000000
endloop
endfacet
facet normal 0.9379771385138 0.3103535271432 0.1545301776846
outer loop
vertex 100.5565600000000 152.4258500000000 76.5731100000000
vertex 100.4811900000000 152.9976000000000 75.8823110000000
vertex 100.1887900000000 153.3189500000000 77.0117500000000
endloop
endfacet
facet normal 0.9810240721623 -0.0880573824550 0.1727358307742
outer loop
vertex 100.9322400000000 149.0197100000000 75.8810100000000
vertex 100.9722000000000 150.2150400000000 76.2634200000000
vertex 100.7450400000000 149.2767600000000 77.0752200000000
endloop
endfacet
facet normal 0.6094085496418 -0.7296367339240 0.3102441879104
outer loop
vertex 100.5199600000000 147.9689500000000 75.5931710000000
vertex 100.4893500000000 148.3700200000000 76.5965400000000
vertex 99.7873400000000 147.7196800000000 76.4460100000000
endloop
endfacet
facet normal -0.4537421893620 -0.8719563335045 0.1838754416834
outer loop
vertex 97.9988400000000 147.7839300000000 75.3601520000000
vertex 98.7503500000000 147.3148300000000 74.9901030000000
vertex 98.8315100000000 147.4841200000000 75.9931690000000
endloop
endfacet
facet normal -0.4104965354531 -0.9050416542495 0.1113202517708
outer loop
vertex 97.9875300000000 147.9360300000000 76.5550300000000
vertex 97.9988400000000 147.7839300000000 75.3601520000000
vertex 98.8315100000000 147.4841200000000 75.9931690000000
endloop
endfacet
facet normal 0.1053857829008 -0.9557333267864 0.2747137507154
outer loop
vertex 99.6387700000000 147.3645400000000 75.2674670000000
vertex 99.7873400000000 147.7196800000000 76.4460100000000
vertex 98.8315100000000 147.4841200000000 75.9931690000000
endloop
endfacet
facet normal 0.0033006191669 -0.9860935419781 0.1661584556449
outer loop
vertex 98.7503500000000 147.3148300000000 74.9901030000000
vertex 99.6387700000000 147.3645400000000 75.2674670000000
vertex 98.8315100000000 147.4841200000000 75.9931690000000
endloop
endfacet
facet normal 0.5067768546421 -0.8409837726589 0.1895349934011
outer loop
vertex 99.6387700000000 147.3645400000000 75.2674670000000
vertex 100.5199600000000 147.9689500000000 75.5931710000000
vertex 99.7873400000000 147.7196800000000 76.4460100000000
endloop
endfacet
facet normal 0.8577969833387 0.4951189513873 0.1379911567895
outer loop
vertex 100.0044200000000 154.1175000000000 76.0064000000000
vertex 99.3589500000000 155.2063000000000 76.1121800000000
vertex 99.5868600000000 154.5388700000000 77.0901900000000
endloop
endfacet
facet normal 0.8872177708733 0.4264506388379 0.1760240883554
outer loop
vertex 100.1887900000000 153.3189500000000 77.0117500000000
vertex 100.0044200000000 154.1175000000000 76.0064000000000
vertex 99.5868600000000 154.5388700000000 77.0901900000000
endloop
endfacet
facet normal 0.9624599660228 0.2404142661945 0.1259833100593
outer loop
vertex 100.7890100000000 151.4367400000000 76.6848100000000
vertex 100.5565600000000 152.4258500000000 76.5731100000000
vertex 100.4926200000000 152.2546900000000 77.3882100000000
endloop
endfacet
facet normal 0.9860772472874 0.1027673279617 0.1307307870614
outer loop
vertex 100.9722000000000 150.2150400000000 76.2634200000000
vertex 100.7890100000000 151.4367400000000 76.6848100000000
vertex 100.7931400000000 150.4533500000000 77.4267000000000
endloop
endfacet
facet normal 0.9813126888116 -0.0907963228972 0.1696509196137
outer loop
vertex 100.7450400000000 149.2767600000000 77.0752200000000
vertex 100.9722000000000 150.2150400000000 76.2634200000000
vertex 100.7931400000000 150.4533500000000 77.4267000000000
endloop
endfacet
facet normal 0.9018453483534 -0.3711107849461 0.2212504303951
outer loop
vertex 100.4893500000000 148.3700200000000 76.5965400000000
vertex 100.9322400000000 149.0197100000000 75.8810100000000
vertex 100.7450400000000 149.2767600000000 77.0752200000000
endloop
endfacet
facet normal -0.3414043401760 -0.9133707480041 0.2218038620028
outer loop
vertex 97.9875300000000 147.9360300000000 76.5550300000000
vertex 98.8315100000000 147.4841200000000 75.9931690000000
vertex 98.9057900000000 147.7365600000000 77.1470300000000
endloop
endfacet
facet normal 0.1426886333622 -0.9687763352384 0.2027618459948
outer loop
vertex 98.8315100000000 147.4841200000000 75.9931690000000
vertex 99.7873400000000 147.7196800000000 76.4460100000000
vertex 98.9057900000000 147.7365600000000 77.1470300000000
endloop
endfacet
facet normal 0.7456547295820 0.6394833975489 0.1872431801463
outer loop
vertex 98.7351600000000 156.0280600000000 76.2776200000000
vertex 98.1508300000000 156.4754600000000 77.0766000000000
vertex 98.9179700000000 155.5670900000000 77.1239500000000
endloop
endfacet
facet normal 0.8019844013777 0.5800488728041 0.1427036268130
outer loop
vertex 99.3589500000000 155.2063000000000 76.1121800000000
vertex 98.7351600000000 156.0280600000000 76.2776200000000
vertex 98.9179700000000 155.5670900000000 77.1239500000000
endloop
endfacet
facet normal 0.8284628787889 0.5333302431061 0.1709038041038
outer loop
vertex 99.5868600000000 154.5388700000000 77.0901900000000
vertex 99.3589500000000 155.2063000000000 76.1121800000000
vertex 98.9179700000000 155.5670900000000 77.1239500000000
endloop
endfacet
facet normal 0.9638293058359 0.2204724526953 0.1497496805155
outer loop
vertex 100.7890100000000 151.4367400000000 76.6848100000000
vertex 100.4926200000000 152.2546900000000 77.3882100000000
vertex 100.6438800000000 151.3979400000000 77.6760300000000
endloop
endfacet
facet normal 0.9821059946618 0.1160335592430 0.1483375487822
outer loop
vertex 100.7931400000000 150.4533500000000 77.4267000000000
vertex 100.7890100000000 151.4367400000000 76.6848100000000
vertex 100.6438800000000 151.3979400000000 77.6760300000000
endloop
endfacet
facet normal 0.6234964611342 -0.7348295728600 0.2669787665781
outer loop
vertex 99.7873400000000 147.7196800000000 76.4460100000000
vertex 100.4893500000000 148.3700200000000 76.5965400000000
vertex 99.9424800000000 148.3434800000000 77.8006400000000
endloop
endfacet
facet normal 0.2810313407822 -0.8835367785647 0.3746787242714
outer loop
vertex 98.9057900000000 147.7365600000000 77.1470300000000
vertex 99.7873400000000 147.7196800000000 76.4460100000000
vertex 99.9424800000000 148.3434800000000 77.8006400000000
endloop
endfacet
facet normal 0.7444202938225 0.6388098027538 0.1943205137164
outer loop
vertex 98.9179700000000 155.5670900000000 77.1239500000000
vertex 98.1508300000000 156.4754600000000 77.0766000000000
vertex 98.3479100000000 155.9618200000000 78.0101500000000
endloop
endfacet
facet normal 0.8289350424895 0.5337576740917 0.1672406669479
outer loop
vertex 99.5868600000000 154.5388700000000 77.0901900000000
vertex 98.9179700000000 155.5670900000000 77.1239500000000
vertex 99.0771600000000 154.9989400000000 78.1482000000000
endloop
endfacet
facet normal 0.8467740573423 0.4959955467475 0.1922553339148
outer loop
vertex 99.5868600000000 154.5388700000000 77.0901900000000
vertex 99.0771600000000 154.9989400000000 78.1482000000000
vertex 99.7484800000000 153.8635000000000 78.1207200000000
endloop
endfacet
facet normal 0.8912375981304 0.4305947568950 0.1424208517504
outer loop
vertex 100.1887900000000 153.3189500000000 77.0117500000000
vertex 99.5868600000000 154.5388700000000 77.0901900000000
vertex 99.7484800000000 153.8635000000000 78.1207200000000
endloop
endfacet
facet normal 0.6803731281642 0.6932200576542 0.2377779597396
outer loop
vertex 98.1508300000000 156.4754600000000 77.0766000000000
vertex 97.8669100000000 156.4929200000000 77.8381000000000
vertex 98.3479100000000 155.9618200000000 78.0101500000000
endloop
endfacet
facet normal 0.9378862267489 0.3173489176921 0.1402108773040
outer loop
vertex 100.5565600000000 152.4258500000000 76.5731100000000
vertex 100.1887900000000 153.3189500000000 77.0117500000000
vertex 100.4926200000000 152.2546900000000 77.3882100000000
endloop
endfacet
facet normal 0.8270181978921 -0.4265354821398 0.3662081140979
outer loop
vertex 100.4893500000000 148.3700200000000 76.5965400000000
vertex 100.7450400000000 149.2767600000000 77.0752200000000
vertex 99.9424800000000 148.3434800000000 77.8006400000000
endloop
endfacet
facet normal -0.2679524243602 -0.9589810260320 0.0925034593418
outer loop
vertex 97.9875300000000 147.9360300000000 76.5550300000000
vertex 98.9057900000000 147.7365600000000 77.1470300000000
vertex 98.1055500000000 148.0013600000000 77.5741700000000
endloop
endfacet
facet normal 0.8256148976784 -0.4820576856520 0.2932241948326
outer loop
vertex 99.9424800000000 148.3434800000000 77.8006400000000
vertex 100.7450400000000 149.2767600000000 77.0752200000000
vertex 100.5192400000000 149.6195100000000 78.2744700000000
endloop
endfacet
facet normal 0.9047671485289 0.3918850933846 0.1668007209989
outer loop
vertex 100.1887900000000 153.3189500000000 77.0117500000000
vertex 99.7484800000000 153.8635000000000 78.1207200000000
vertex 100.1883700000000 152.8938700000000 78.0127200000000
endloop
endfacet
facet normal 0.7623962679657 0.6088426574399 0.2192317246054
outer loop
vertex 98.9179700000000 155.5670900000000 77.1239500000000
vertex 98.3479100000000 155.9618200000000 78.0101500000000
vertex 99.0771600000000 154.9989400000000 78.1482000000000
endloop
endfacet
facet normal 0.9392776602214 0.3157147591414 0.1344680923835
outer loop
vertex 100.4926200000000 152.2546900000000 77.3882100000000
vertex 100.1887900000000 153.3189500000000 77.0117500000000
vertex 100.1883700000000 152.8938700000000 78.0127200000000
endloop
endfacet
facet normal 0.9601677032626 0.2251241629582 0.1655206720135
outer loop
vertex 100.6438800000000 151.3979400000000 77.6760300000000
vertex 100.4926200000000 152.2546900000000 77.3882100000000
vertex 100.3844300000000 151.9928400000000 78.3719500000000
endloop
endfacet
facet normal 0.8703145850203 -0.4593426410969 0.1776425094709
outer loop
vertex 99.9424800000000 148.3434800000000 77.8006400000000
vertex 100.5192400000000 149.6195100000000 78.2744700000000
vertex 100.0398900000000 148.9987300000000 79.0177300000000
endloop
endfacet
facet normal 0.5844309073439 -0.7239617707522 0.3664967517326
outer loop
vertex 100.0398900000000 148.9987300000000 79.0177300000000
vertex 99.5447500000000 149.0961500000000 79.9997400000000
vertex 99.2717200000000 148.4057000000000 79.0712400000000
endloop
endfacet
facet normal 0.9717085047465 -0.1031887302855 0.2124492121552
outer loop
vertex 100.7450400000000 149.2767600000000 77.0752200000000
vertex 100.7931400000000 150.4533500000000 77.4267000000000
vertex 100.5192400000000 149.6195100000000 78.2744700000000
endloop
endfacet
facet normal 0.3743662064716 -0.7934259103783 0.4799221480536
outer loop
vertex 99.2717200000000 148.4057000000000 79.0712400000000
vertex 99.5447500000000 149.0961500000000 79.9997400000000
vertex 98.6010700000000 148.6140700000000 79.9388700000000
endloop
endfacet
facet normal -0.1915999501121 -0.9536062673237 0.2322165929429
outer loop
vertex 98.1055500000000 148.0013600000000 77.5741700000000
vertex 98.9057900000000 147.7365600000000 77.1470300000000
vertex 98.7536700000000 148.0299100000000 78.2261700000000
endloop
endfacet
facet normal 0.3400439839184 -0.8942458956226 0.2910229667277
outer loop
vertex 98.9057900000000 147.7365600000000 77.1470300000000
vertex 99.9424800000000 148.3434800000000 77.8006400000000
vertex 98.7536700000000 148.0299100000000 78.2261700000000
endloop
endfacet
facet normal 0.9445631745287 0.2762669137590 0.1774175912538
outer loop
vertex 100.4926200000000 152.2546900000000 77.3882100000000
vertex 100.1883700000000 152.8938700000000 78.0127200000000
vertex 100.3844300000000 151.9928400000000 78.3719500000000
endloop
endfacet
facet normal 0.6716097866309 0.6930858135159 0.2618632269040
outer loop
vertex 98.3479100000000 155.9618200000000 78.0101500000000
vertex 97.8669100000000 156.4929200000000 77.8381000000000
vertex 97.5271200000000 156.5264900000000 78.6207200000000
endloop
endfacet
facet normal 0.6683727707671 0.7002328574517 0.2509019422845
outer loop
vertex 98.3479100000000 155.9618200000000 78.0101500000000
vertex 97.5271200000000 156.5264900000000 78.6207200000000
vertex 98.3310200000000 155.5384000000000 79.2368500000000
endloop
endfacet
facet normal 0.7620466095320 0.6087774590224 0.2206240473908
outer loop
vertex 99.0771600000000 154.9989400000000 78.1482000000000
vertex 98.3479100000000 155.9618200000000 78.0101500000000
vertex 98.3310200000000 155.5384000000000 79.2368500000000
endloop
endfacet
facet normal 0.8486535067792 0.4974050095780 0.1799318812163
outer loop
vertex 99.7484800000000 153.8635000000000 78.1207200000000
vertex 99.0771600000000 154.9989400000000 78.1482000000000
vertex 99.2387000000000 154.3135100000000 79.2811000000000
endloop
endfacet
facet normal 0.9023962062920 0.3886632275352 0.1860698321376
outer loop
vertex 100.1883700000000 152.8938700000000 78.0127200000000
vertex 99.7484800000000 153.8635000000000 78.1207200000000
vertex 99.9253700000000 152.9538900000000 79.1628400000000
endloop
endfacet
facet normal 0.9619571573913 0.1634240349683 0.2189315238569
outer loop
vertex 100.6438800000000 151.3979400000000 77.6760300000000
vertex 100.3844300000000 151.9928400000000 78.3719500000000
vertex 100.5515100000000 150.8504800000000 78.4905500000000
endloop
endfacet
facet normal 0.9774730590282 0.1063321114433 0.1823181311609
outer loop
vertex 100.7931400000000 150.4533500000000 77.4267000000000
vertex 100.6438800000000 151.3979400000000 77.6760300000000
vertex 100.5515100000000 150.8504800000000 78.4905500000000
endloop
endfacet
facet normal -0.2313847538735 -0.9343778718872 0.2709226609246
outer loop
vertex 97.8341700000000 148.3151800000000 78.4247200000000
vertex 98.1055500000000 148.0013600000000 77.5741700000000
vertex 98.7536700000000 148.0299100000000 78.2261700000000
endloop
endfacet
facet normal 0.5882665411821 -0.7307494360812 0.3463347198775
outer loop
vertex 99.9424800000000 148.3434800000000 77.8006400000000
vertex 100.0398900000000 148.9987300000000 79.0177300000000
vertex 99.2717200000000 148.4057000000000 79.0712400000000
endloop
endfacet
facet normal 0.3200821259047 -0.9228653613201 0.2141657245027
outer loop
vertex 99.9424800000000 148.3434800000000 77.8006400000000
vertex 99.2717200000000 148.4057000000000 79.0712400000000
vertex 98.7536700000000 148.0299100000000 78.2261700000000
endloop
endfacet
facet normal 0.7752879274188 0.5832662002527 0.2423410184871
outer loop
vertex 99.0771600000000 154.9989400000000 78.1482000000000
vertex 98.3310200000000 155.5384000000000 79.2368500000000
vertex 99.2387000000000 154.3135100000000 79.2811000000000
endloop
endfacet
facet normal 0.9378991302120 0.2836872687294 0.1996666098986
outer loop
vertex 100.3844300000000 151.9928400000000 78.3719500000000
vertex 100.1883700000000 152.8938700000000 78.0127200000000
vertex 99.9253700000000 152.9538900000000 79.1628400000000
endloop
endfacet
facet normal 0.9728453747412 0.1596822345172 0.1675513677179
outer loop
vertex 100.5515100000000 150.8504800000000 78.4905500000000
vertex 100.3844300000000 151.9928400000000 78.3719500000000
vertex 100.2620600000000 151.5761300000000 79.4796000000000
endloop
endfacet
facet normal 0.9670633403152 -0.0683890243515 0.2451763389210
outer loop
vertex 100.5192400000000 149.6195100000000 78.2744700000000
vertex 100.7931400000000 150.4533500000000 77.4267000000000
vertex 100.5515100000000 150.8504800000000 78.4905500000000
endloop
endfacet
facet normal -0.2664603957248 -0.9540878816011 0.1368034052651
outer loop
vertex 97.8341700000000 148.3151800000000 78.4247200000000
vertex 98.7536700000000 148.0299100000000 78.2261700000000
vertex 98.4253000000000 148.2440000000000 79.0796800000000
endloop
endfacet
facet normal 0.1816672705049 -0.9350487093964 0.3044354018235
outer loop
vertex 98.7536700000000 148.0299100000000 78.2261700000000
vertex 99.2717200000000 148.4057000000000 79.0712400000000
vertex 98.4253000000000 148.2440000000000 79.0796800000000
endloop
endfacet
facet normal 0.8781064842206 0.4242397678817 0.2212456140071
outer loop
vertex 99.7484800000000 153.8635000000000 78.1207200000000
vertex 99.2387000000000 154.3135100000000 79.2811000000000
vertex 99.9253700000000 152.9538900000000 79.1628400000000
endloop
endfacet
facet normal 0.9647422213392 0.0281438289720 0.2616875450919
outer loop
vertex 100.5515100000000 150.8504800000000 78.4905500000000
vertex 100.2620600000000 151.5761300000000 79.4796000000000
vertex 100.2675200000000 150.1275700000000 79.6152600000000
endloop
endfacet
facet normal 0.9764304415668 -0.0618924842820 0.2067677759496
outer loop
vertex 100.5192400000000 149.6195100000000 78.2744700000000
vertex 100.5515100000000 150.8504800000000 78.4905500000000
vertex 100.2675200000000 150.1275700000000 79.6152600000000
endloop
endfacet
facet normal -0.3653498143206 -0.9015568595931 0.2317644107633
outer loop
vertex 97.8341700000000 148.3151800000000 78.4247200000000
vertex 98.4253000000000 148.2440000000000 79.0796800000000
vertex 97.7020000000000 148.6392700000000 79.4770700000000
endloop
endfacet
facet normal 0.1786418083472 -0.9164072700648 0.3581687028244
outer loop
vertex 99.2717200000000 148.4057000000000 79.0712400000000
vertex 98.6010700000000 148.6140700000000 79.9388700000000
vertex 98.4253000000000 148.2440000000000 79.0796800000000
endloop
endfacet
facet normal 0.5734721907481 0.7457749034724 0.3390419439970
outer loop
vertex 97.5271200000000 156.5264900000000 78.6207200000000
vertex 96.6167200000000 156.8290400000000 79.4951100000000
vertex 97.4002700000000 156.1616100000000 79.6378900000000
endloop
endfacet
facet normal 0.9493507281185 0.2692415510887 0.1619943893727
outer loop
vertex 100.2620600000000 151.5761300000000 79.4796000000000
vertex 99.9253700000000 152.9538900000000 79.1628400000000
vertex 99.8754000000000 152.3677400000000 80.4298900000000
endloop
endfacet
facet normal 0.9381052967384 0.2770394038047 0.2078644293065
outer loop
vertex 100.3844300000000 151.9928400000000 78.3719500000000
vertex 99.9253700000000 152.9538900000000 79.1628400000000
vertex 100.2620600000000 151.5761300000000 79.4796000000000
endloop
endfacet
facet normal 0.8940786899651 -0.3366692009675 0.2954270557519
outer loop
vertex 100.0398900000000 148.9987300000000 79.0177300000000
vertex 100.5192400000000 149.6195100000000 78.2744700000000
vertex 100.2675200000000 150.1275700000000 79.6152600000000
endloop
endfacet
facet normal -0.2428519738369 -0.8718980864618 0.4252254056707
outer loop
vertex 98.4253000000000 148.2440000000000 79.0796800000000
vertex 98.6010700000000 148.6140700000000 79.9388700000000
vertex 97.7020000000000 148.6392700000000 79.4770700000000
endloop
endfacet
facet normal 0.4946291485284 0.6929121583618 0.5246091366155
outer loop
vertex 97.4002700000000 156.1616100000000 79.6378900000000
vertex 96.6167200000000 156.8290400000000 79.4951100000000
vertex 96.6447400000000 156.0742500000000 80.4656300000000
endloop
endfacet
facet normal 0.6194304117367 0.7112182487480 0.3323771467227
outer loop
vertex 98.3310200000000 155.5384000000000 79.2368500000000
vertex 97.5271200000000 156.5264900000000 78.6207200000000
vertex 97.4002700000000 156.1616100000000 79.6378900000000
endloop
endfacet
facet normal 0.6219236900182 0.6870846254413 0.3756669286434
outer loop
vertex 98.3310200000000 155.5384000000000 79.2368500000000
vertex 97.4002700000000 156.1616100000000 79.6378900000000
vertex 97.6757800000000 155.5879700000000 80.2309500000000
endloop
endfacet
facet normal 0.8856050175800 0.4325629592566 0.1690947637165
outer loop
vertex 99.9253700000000 152.9538900000000 79.1628400000000
vertex 99.2387000000000 154.3135100000000 79.2811000000000
vertex 99.4059200000000 153.5406400000000 80.3824000000000
endloop
endfacet
facet normal 0.9053141276074 0.3707629573026 0.2072224887569
outer loop
vertex 99.8754000000000 152.3677400000000 80.4298900000000
vertex 99.9253700000000 152.9538900000000 79.1628400000000
vertex 99.4059200000000 153.5406400000000 80.3824000000000
endloop
endfacet
facet normal 0.9534324408197 0.1553859550206 0.2584991020777
outer loop
vertex 100.2620600000000 151.5761300000000 79.4796000000000
vertex 99.8754000000000 152.3677400000000 80.4298900000000
vertex 100.0107100000000 151.1485600000000 80.6636800000000
endloop
endfacet
facet normal -0.0275266012219 -0.8229084279189 0.5675068329855
outer loop
vertex 97.7565600000000 149.0842100000000 80.5796300000000
vertex 98.6010700000000 148.6140700000000 79.9388700000000
vertex 98.7864100000000 149.2821200000000 80.9165600000000
endloop
endfacet
facet normal 0.9761371129384 0.0238927711533 0.2158366795310
outer loop
vertex 100.2675200000000 150.1275700000000 79.6152600000000
vertex 100.2620600000000 151.5761300000000 79.4796000000000
vertex 100.0107100000000 151.1485600000000 80.6636800000000
endloop
endfacet
facet normal 0.8030514775416 -0.3971183652800 0.4443031941992
outer loop
vertex 99.5447500000000 149.0961500000000 79.9997400000000
vertex 100.0398900000000 148.9987300000000 79.0177300000000
vertex 100.2675200000000 150.1275700000000 79.6152600000000
endloop
endfacet
facet normal 0.4600799109208 0.7353678129280 0.4975546756655
outer loop
vertex 97.4002700000000 156.1616100000000 79.6378900000000
vertex 96.6447400000000 156.0742500000000 80.4656300000000
vertex 97.6757800000000 155.5879700000000 80.2309500000000
endloop
endfacet
facet normal 0.3223230654269 0.7349328147902 0.5966419355345
outer loop
vertex 96.9455300000000 154.8137000000000 81.8944100000000
vertex 96.2107400000000 155.4205400000000 81.5438700000000
vertex 96.3544500000000 154.7801700000000 82.2550300000000
endloop
endfacet
facet normal 0.5063341269112 0.6877311697305 0.5202418573186
outer loop
vertex 96.6167200000000 156.8290400000000 79.4951100000000
vertex 95.8288600000000 156.8880500000000 80.1839000000000
vertex 96.6447400000000 156.0742500000000 80.4656300000000
endloop
endfacet
facet normal -0.3281994427283 0.1518853618493 0.9323175224401
outer loop
vertex 96.4667600000000 153.5006400000000 82.9480800000000
vertex 95.9606200000000 154.2607200000000 82.6460800000000
vertex 95.6076800000000 153.2750700000000 82.6824100000000
endloop
endfacet
facet normal -0.2706048032619 -0.0974155154148 0.9577490578476
outer loop
vertex 96.4667600000000 153.5006400000000 82.9480800000000
vertex 95.6076800000000 153.2750700000000 82.6824100000000
vertex 96.5188700000000 152.5588400000000 82.8670100000000
endloop
endfacet
facet normal 0.6181489141807 0.6919616324565 0.3729356769006
outer loop
vertex 98.3310200000000 155.5384000000000 79.2368500000000
vertex 97.6757800000000 155.5879700000000 80.2309500000000
vertex 98.4762400000000 154.7018000000000 80.5484100000000
endloop
endfacet
facet normal 0.7655241992562 0.5775222471298 0.2836207933551
outer loop
vertex 99.2387000000000 154.3135100000000 79.2811000000000
vertex 98.3310200000000 155.5384000000000 79.2368500000000
vertex 98.4762400000000 154.7018000000000 80.5484100000000
endloop
endfacet
facet normal 0.7675452755499 0.5736404104870 0.2860260992242
outer loop
vertex 99.4059200000000 153.5406400000000 80.3824000000000
vertex 99.2387000000000 154.3135100000000 79.2811000000000
vertex 98.4762400000000 154.7018000000000 80.5484100000000
endloop
endfacet
facet normal 0.9056502389362 0.3708327231476 0.2056228006756
outer loop
vertex 99.8754000000000 152.3677400000000 80.4298900000000
vertex 99.4059200000000 153.5406400000000 80.3824000000000
vertex 99.4749400000000 152.9080600000000 81.2192400000000
endloop
endfacet
facet normal 0.9209365461173 0.2646872792866 0.2860358757383
outer loop
vertex 99.8754000000000 152.3677400000000 80.4298900000000
vertex 99.4749400000000 152.9080600000000 81.2192400000000
vertex 99.6566300000000 151.9822200000000 81.4910000000000
endloop
endfacet
facet normal 0.9550368702589 0.1545171076700 0.2530396014131
outer loop
vertex 100.0107100000000 151.1485600000000 80.6636800000000
vertex 99.8754000000000 152.3677400000000 80.4298900000000
vertex 99.6566300000000 151.9822200000000 81.4910000000000
endloop
endfacet
facet normal 0.3764449504317 -0.7966161166735 0.4729608461073
outer loop
vertex 98.6010700000000 148.6140700000000 79.9388700000000
vertex 99.5447500000000 149.0961500000000 79.9997400000000
vertex 98.7864100000000 149.2821200000000 80.9165600000000
endloop
endfacet
facet normal -0.2176225900949 -0.9013265151870 0.3745008962622
outer loop
vertex 97.7020000000000 148.6392700000000 79.4770700000000
vertex 98.6010700000000 148.6140700000000 79.9388700000000
vertex 97.7565600000000 149.0842100000000 80.5796300000000
endloop
endfacet
facet normal 0.4584444834512 0.7217881914537 0.5185079191981
outer loop
vertex 97.6757800000000 155.5879700000000 80.2309500000000
vertex 96.6447400000000 156.0742500000000 80.4656300000000
vertex 97.3111500000000 155.1946300000000 81.1008900000000
endloop
endfacet
facet normal 0.5397241421388 -0.6178881602231 0.5717622511575
outer loop
vertex 98.7864100000000 149.2821200000000 80.9165600000000
vertex 99.5447500000000 149.0961500000000 79.9997400000000
vertex 99.6506700000000 150.0112600000000 80.8886900000000
endloop
endfacet
facet normal 0.5303460417980 0.6666688059050 0.5237229985234
outer loop
vertex 98.4762400000000 154.7018000000000 80.5484100000000
vertex 97.6757800000000 155.5879700000000 80.2309500000000
vertex 97.3111500000000 155.1946300000000 81.1008900000000
endloop
endfacet
facet normal 0.5510121481613 -0.6323067598326 0.5445858738975
outer loop
vertex 98.7864100000000 149.2821200000000 80.9165600000000
vertex 99.6506700000000 150.0112600000000 80.8886900000000
vertex 98.8957600000000 150.1105400000000 81.7677800000000
endloop
endfacet
facet normal 0.8888595240022 -0.1998156260445 0.4123135483816
outer loop
vertex 100.2675200000000 150.1275700000000 79.6152600000000
vertex 100.0107100000000 151.1485600000000 80.6636800000000
vertex 99.6506700000000 150.0112600000000 80.8886900000000
endloop
endfacet
facet normal 0.8221577998969 -0.4427472384428 0.3578148053392
outer loop
vertex 99.5447500000000 149.0961500000000 79.9997400000000
vertex 100.2675200000000 150.1275700000000 79.6152600000000
vertex 99.6506700000000 150.0112600000000 80.8886900000000
endloop
endfacet
facet normal -0.1876171140465 -0.0753804865883 0.9793454961139
outer loop
vertex 93.8976800000000 157.7970000000000 80.2079100000000
vertex 93.8126100000000 157.0530400000000 80.1343500000000
vertex 94.7639400000000 157.4426700000000 80.3465900000000
endloop
endfacet
facet normal -0.3638180469641 0.4415432972737 0.8201682420918
outer loop
vertex 94.7639400000000 157.4426700000000 80.3465900000000
vertex 93.8126100000000 157.0530400000000 80.1343500000000
vertex 94.4465200000000 156.2688500000000 80.8377200000000
endloop
endfacet
facet normal 0.3826982179023 0.7136595461218 0.5867129845534
outer loop
vertex 96.6447400000000 156.0742500000000 80.4656300000000
vertex 96.2107400000000 155.4205400000000 81.5438700000000
vertex 97.3111500000000 155.1946300000000 81.1008900000000
endloop
endfacet
facet normal 0.7606792923365 0.5627893415299 0.3234736021236
outer loop
vertex 99.4059200000000 153.5406400000000 80.3824000000000
vertex 98.4762400000000 154.7018000000000 80.5484100000000
vertex 98.8333000000000 153.6954200000000 81.4596800000000
endloop
endfacet
facet normal 0.7776087492714 0.5307594218274 0.3370742784581
outer loop
vertex 99.4749400000000 152.9080600000000 81.2192400000000
vertex 99.4059200000000 153.5406400000000 80.3824000000000
vertex 98.8333000000000 153.6954200000000 81.4596800000000
endloop
endfacet
facet normal 0.9110810908252 -0.2193753949106 0.3490067077415
outer loop
vertex 99.6506700000000 150.0112600000000 80.8886900000000
vertex 100.0107100000000 151.1485600000000 80.6636800000000
vertex 99.5461200000000 150.9081400000000 81.7253700000000
endloop
endfacet
facet normal 0.6351605584386 -0.4859871195906 0.6003229002762
outer loop
vertex 98.8957600000000 150.1105400000000 81.7677800000000
vertex 99.6506700000000 150.0112600000000 80.8886900000000
vertex 99.5461200000000 150.9081400000000 81.7253700000000
endloop
endfacet
facet normal -0.0329021210156 -0.8146160528410 0.5790666083332
outer loop
vertex 97.7565600000000 149.0842100000000 80.5796300000000
vertex 98.7864100000000 149.2821200000000 80.9165600000000
vertex 97.9331500000000 149.7827700000000 81.5723800000000
endloop
endfacet
facet normal 0.1055875907114 -0.7193787413676 0.6865460561071
outer loop
vertex 98.7864100000000 149.2821200000000 80.9165600000000
vertex 98.8957600000000 150.1105400000000 81.7677800000000
vertex 97.9331500000000 149.7827700000000 81.5723800000000
endloop
endfacet
facet normal -0.0707244106906 0.4012289320563 0.9132433420581
outer loop
vertex 94.7639400000000 157.4426700000000 80.3465900000000
vertex 94.4465200000000 156.2688500000000 80.8377200000000
vertex 95.4838800000000 156.3085600000000 80.9006100000000
endloop
endfacet
facet normal 0.4163079939170 0.5985966476959 0.6843754142049
outer loop
vertex 95.8288600000000 156.8880500000000 80.1839000000000
vertex 94.7639400000000 157.4426700000000 80.3465900000000
vertex 95.4838800000000 156.3085600000000 80.9006100000000
endloop
endfacet
facet normal 0.3819334877505 0.6201348447144 0.6852441793301
outer loop
vertex 96.6447400000000 156.0742500000000 80.4656300000000
vertex 95.8288600000000 156.8880500000000 80.1839000000000
vertex 95.4838800000000 156.3085600000000 80.9006100000000
endloop
endfacet
facet normal 0.3654888933982 0.7234351342872 0.5857127924857
outer loop
vertex 96.2107400000000 155.4205400000000 81.5438700000000
vertex 96.6447400000000 156.0742500000000 80.4656300000000
vertex 95.4838800000000 156.3085600000000 80.9006100000000
endloop
endfacet
facet normal 0.9166948009483 -0.0071386000717 0.3995243200400
outer loop
vertex 100.0107100000000 151.1485600000000 80.6636800000000
vertex 99.6566300000000 151.9822200000000 81.4910000000000
vertex 99.5461200000000 150.9081400000000 81.7253700000000
endloop
endfacet
facet normal 0.2062426224180 -0.5881158471983 0.7820381902262
outer loop
vertex 98.1321600000000 150.5589000000000 82.3063400000000
vertex 98.8957600000000 150.1105400000000 81.7677800000000
vertex 98.8793900000000 150.8608600000000 82.3363600000000
endloop
endfacet
facet normal -0.4376279145835 -0.6968683041167 0.5682045187208
outer loop
vertex 96.9495700000000 149.9561400000000 81.0274600000000
vertex 97.7565600000000 149.0842100000000 80.5796300000000
vertex 97.9331500000000 149.7827700000000 81.5723800000000
endloop
endfacet
facet normal -0.0710135718345 0.6287857743295 0.7743290790202
outer loop
vertex 95.4838800000000 156.3085600000000 80.9006100000000
vertex 94.4465200000000 156.2688500000000 80.8377200000000
vertex 95.1293200000000 155.4747500000000 81.5451800000000
endloop
endfacet
facet normal 0.0311916410795 0.6029697980546 0.7971540027879
outer loop
vertex 96.2107400000000 155.4205400000000 81.5438700000000
vertex 95.4838800000000 156.3085600000000 80.9006100000000
vertex 95.1293200000000 155.4747500000000 81.5451800000000
endloop
endfacet
facet normal 0.3712431665391 0.7587204082414 0.5352773612025
outer loop
vertex 96.2107400000000 155.4205400000000 81.5438700000000
vertex 96.9455300000000 154.8137000000000 81.8944100000000
vertex 97.3111500000000 155.1946300000000 81.1008900000000
endloop
endfacet
facet normal 0.4674149515397 0.6934843033509 0.5482725454398
outer loop
vertex 97.3111500000000 155.1946300000000 81.1008900000000
vertex 96.9455300000000 154.8137000000000 81.8944100000000
vertex 97.8188300000000 154.3679500000000 81.7137100000000
endloop
endfacet
facet normal 0.5269828168193 0.6907112789385 0.4951838445712
outer loop
vertex 98.4762400000000 154.7018000000000 80.5484100000000
vertex 97.3111500000000 155.1946300000000 81.1008900000000
vertex 97.8188300000000 154.3679500000000 81.7137100000000
endloop
endfacet
facet normal 0.5612604485534 0.6560328142266 0.5045866184785
outer loop
vertex 98.8333000000000 153.6954200000000 81.4596800000000
vertex 98.4762400000000 154.7018000000000 80.5484100000000
vertex 97.8188300000000 154.3679500000000 81.7137100000000
endloop
endfacet
facet normal 0.5685204180149 0.6861435000591 0.4538630097582
outer loop
vertex 98.8333000000000 153.6954200000000 81.4596800000000
vertex 97.8188300000000 154.3679500000000 81.7137100000000
vertex 98.2172500000000 153.5448100000000 82.4590500000000
endloop
endfacet
facet normal 0.0927702373658 -0.6965840101383 0.7114523173613
outer loop
vertex 97.9331500000000 149.7827700000000 81.5723800000000
vertex 98.8957600000000 150.1105400000000 81.7677800000000
vertex 98.1321600000000 150.5589000000000 82.3063400000000
endloop
endfacet
facet normal -0.6490147971842 -0.5802855373479 0.4919842357036
outer loop
vertex 96.2161200000000 151.1107600000000 81.4217600000000
vertex 96.9495700000000 149.9561400000000 81.0274600000000
vertex 97.1819000000000 150.5607500000000 82.0470700000000
endloop
endfacet
facet normal 0.0382681608329 0.7473718419127 0.6633030060104
outer loop
vertex 96.2107400000000 155.4205400000000 81.5438700000000
vertex 95.1293200000000 155.4747500000000 81.5451800000000
vertex 95.6734500000000 154.9295300000000 82.1281100000000
endloop
endfacet
facet normal 0.4692440798994 0.7023258906293 0.5353020986613
outer loop
vertex 96.9455300000000 154.8137000000000 81.8944100000000
vertex 97.0618300000000 154.1916900000000 82.6085500000000
vertex 97.8188300000000 154.3679500000000 81.7137100000000
endloop
endfacet
facet normal 0.3193904124943 0.7397251679635 0.5922807107176
outer loop
vertex 97.0618300000000 154.1916900000000 82.6085500000000
vertex 96.9455300000000 154.8137000000000 81.8944100000000
vertex 96.3544500000000 154.7801700000000 82.2550300000000
endloop
endfacet
facet normal 0.4648870409271 0.7072681539100 0.5325897085401
outer loop
vertex 97.8188300000000 154.3679500000000 81.7137100000000
vertex 97.0618300000000 154.1916900000000 82.6085500000000
vertex 98.2172500000000 153.5448100000000 82.4590500000000
endloop
endfacet
facet normal 0.6640047198814 0.5613741416670 0.4939198366565
outer loop
vertex 98.8333000000000 153.6954200000000 81.4596800000000
vertex 98.2172500000000 153.5448100000000 82.4590500000000
vertex 99.1257000000000 152.7802800000000 82.1067100000000
endloop
endfacet
facet normal 0.7709807336864 0.5130822307522 0.3772735516448
outer loop
vertex 99.4749400000000 152.9080600000000 81.2192400000000
vertex 98.8333000000000 153.6954200000000 81.4596800000000
vertex 99.1257000000000 152.7802800000000 82.1067100000000
endloop
endfacet
facet normal 0.8770913338427 0.2855024343580 0.3862630607159
outer loop
vertex 99.6566300000000 151.9822200000000 81.4910000000000
vertex 99.4749400000000 152.9080600000000 81.2192400000000
vertex 99.1257000000000 152.7802800000000 82.1067100000000
endloop
endfacet
facet normal 0.6643629302790 -0.2453727204421 0.7059845075736
outer loop
vertex 98.8793900000000 150.8608600000000 82.3363600000000
vertex 99.5461200000000 150.9081400000000 81.7253700000000
vertex 99.1370900000000 151.7047900000000 82.3871700000000
endloop
endfacet
facet normal 0.8619781325874 0.0218283654412 0.5064752919969
outer loop
vertex 99.5461200000000 150.9081400000000 81.7253700000000
vertex 99.6566300000000 151.9822200000000 81.4910000000000
vertex 99.1370900000000 151.7047900000000 82.3871700000000
endloop
endfacet
facet normal -0.2023164721270 -0.6449992580911 0.7369151933351
outer loop
vertex 97.9331500000000 149.7827700000000 81.5723800000000
vertex 98.1321600000000 150.5589000000000 82.3063400000000
vertex 97.1819000000000 150.5607500000000 82.0470700000000
endloop
endfacet
facet normal -0.4237354241038 -0.7334658604737 0.5314848275154
outer loop
vertex 96.9495700000000 149.9561400000000 81.0274600000000
vertex 97.9331500000000 149.7827700000000 81.5723800000000
vertex 97.1819000000000 150.5607500000000 82.0470700000000
endloop
endfacet
facet normal -0.2968535573362 -0.5100059912751 0.8073238844233
outer loop
vertex 96.7204900000000 151.5158200000000 82.4807500000000
vertex 97.1819000000000 150.5607500000000 82.0470700000000
vertex 97.5530900000000 151.1698500000000 82.5683400000000
endloop
endfacet
facet normal 0.6149718288271 -0.4676876124507 0.6348841996059
outer loop
vertex 98.8957600000000 150.1105400000000 81.7677800000000
vertex 99.5461200000000 150.9081400000000 81.7253700000000
vertex 98.8793900000000 150.8608600000000 82.3363600000000
endloop
endfacet
facet normal -0.4572051620954 0.3954258368001 0.7966190101575
outer loop
vertex 95.1293200000000 155.4747500000000 81.5451800000000
vertex 94.9547200000000 154.3292800000000 82.0135600000000
vertex 95.6734500000000 154.9295300000000 82.1281100000000
endloop
endfacet
facet normal 0.0399537151145 0.7465327892396 0.6641479468000
outer loop
vertex 96.3544500000000 154.7801700000000 82.2550300000000
vertex 96.2107400000000 155.4205400000000 81.5438700000000
vertex 95.6734500000000 154.9295300000000 82.1281100000000
endloop
endfacet
facet normal 0.0636096265761 0.5689913570354 0.8198796564289
outer loop
vertex 95.9606200000000 154.2607200000000 82.6460800000000
vertex 97.0618300000000 154.1916900000000 82.6085500000000
vertex 96.3544500000000 154.7801700000000 82.2550300000000
endloop
endfacet
facet normal 0.5899754001532 0.3703919482402 0.7174530172024
outer loop
vertex 99.1257000000000 152.7802800000000 82.1067100000000
vertex 98.2172500000000 153.5448100000000 82.4590500000000
vertex 98.3902900000000 152.4279800000000 82.8933300000000
endloop
endfacet
facet normal -0.5948718269749 -0.6143852577579 0.5183225487293
outer loop
vertex 95.7834700000000 152.1741200000000 82.1856500000000
vertex 96.2161200000000 151.1107600000000 81.4217600000000
vertex 96.7204900000000 151.5158200000000 82.4807500000000
endloop
endfacet
facet normal 0.8353103450498 0.1469949414001 0.5297632628406
outer loop
vertex 99.6566300000000 151.9822200000000 81.4910000000000
vertex 99.1257000000000 152.7802800000000 82.1067100000000
vertex 99.1370900000000 151.7047900000000 82.3871700000000
endloop
endfacet
facet normal -0.6514417660403 -0.5513730991777 0.5211634397782
outer loop
vertex 96.2161200000000 151.1107600000000 81.4217600000000
vertex 97.1819000000000 150.5607500000000 82.0470700000000
vertex 96.7204900000000 151.5158200000000 82.4807500000000
endloop
endfacet
facet normal -0.4658980982574 0.4080239574284 0.7851467456499
outer loop
vertex 94.9547200000000 154.3292800000000 82.0135600000000
vertex 95.9606200000000 154.2607200000000 82.6460800000000
vertex 95.6734500000000 154.9295300000000 82.1281100000000
endloop
endfacet
facet normal -0.5116321881778 -0.3836138054947 0.7688126899670
outer loop
vertex 96.5188700000000 152.5588400000000 82.8670100000000
vertex 95.7834700000000 152.1741200000000 82.1856500000000
vertex 96.7204900000000 151.5158200000000 82.4807500000000
endloop
endfacet
facet normal 0.6719382337228 0.1935364444724 0.7148724744473
outer loop
vertex 99.1370900000000 151.7047900000000 82.3871700000000
vertex 99.1257000000000 152.7802800000000 82.1067100000000
vertex 98.3902900000000 152.4279800000000 82.8933300000000
endloop
endfacet
facet normal -0.2381026478503 -0.3429592844691 0.9086726904024
outer loop
vertex 96.7204900000000 151.5158200000000 82.4807500000000
vertex 97.5530900000000 151.1698500000000 82.5683400000000
vertex 97.4716800000000 152.0075500000000 82.8631800000000
endloop
endfacet
facet normal -0.0580191094841 -0.3364530966421 0.9399112174534
outer loop
vertex 97.4716800000000 152.0075500000000 82.8631800000000
vertex 97.5530900000000 151.1698500000000 82.5683400000000
vertex 98.2908300000000 151.4092900000000 82.6995900000000
endloop
endfacet
facet normal -0.0144666219011 0.6083532126789 0.7935345521615
outer loop
vertex 95.9606200000000 154.2607200000000 82.6460800000000
vertex 96.3544500000000 154.7801700000000 82.2550300000000
vertex 95.6734500000000 154.9295300000000 82.1281100000000
endloop
endfacet
facet normal -0.0269260406614 -0.4154333636601 0.9092250044364
outer loop
vertex 97.5530900000000 151.1698500000000 82.5683400000000
vertex 98.1321600000000 150.5589000000000 82.3063400000000
vertex 98.2908300000000 151.4092900000000 82.6995900000000
endloop
endfacet
facet normal 0.3941053517179 -0.1746680007798 0.9023148348835
outer loop
vertex 98.8793900000000 150.8608600000000 82.3363600000000
vertex 99.1370900000000 151.7047900000000 82.3871700000000
vertex 98.2908300000000 151.4092900000000 82.6995900000000
endloop
endfacet
facet normal 0.1409398019278 -0.4370827719880 0.8883099811799
outer loop
vertex 98.1321600000000 150.5589000000000 82.3063400000000
vertex 98.8793900000000 150.8608600000000 82.3363600000000
vertex 98.2908300000000 151.4092900000000 82.6995900000000
endloop
endfacet
facet normal -0.5096212795021 0.2132086429297 0.8335635704964
outer loop
vertex 95.6076800000000 153.2750700000000 82.6824100000000
vertex 95.9606200000000 154.2607200000000 82.6460800000000
vertex 94.9547200000000 154.3292800000000 82.0135600000000
endloop
endfacet
facet normal -0.4870472991707 -0.4226313581651 0.7643086179456
outer loop
vertex 96.5188700000000 152.5588400000000 82.8670100000000
vertex 95.6076800000000 153.2750700000000 82.6824100000000
vertex 95.7834700000000 152.1741200000000 82.1856500000000
endloop
endfacet
facet normal -0.2135213616283 -0.3753012933163 0.9019742609208
outer loop
vertex 96.5188700000000 152.5588400000000 82.8670100000000
vertex 96.7204900000000 151.5158200000000 82.4807500000000
vertex 97.4716800000000 152.0075500000000 82.8631800000000
endloop
endfacet
facet normal 0.4020319372473 -0.2088027282973 0.8914997151367
outer loop
vertex 99.1370900000000 151.7047900000000 82.3871700000000
vertex 98.3902900000000 152.4279800000000 82.8933300000000
vertex 98.2908300000000 151.4092900000000 82.6995900000000
endloop
endfacet
facet normal -0.2202634503797 -0.5532778101261 0.8033477934549
outer loop
vertex 97.1819000000000 150.5607500000000 82.0470700000000
vertex 98.1321600000000 150.5589000000000 82.3063400000000
vertex 97.5530900000000 151.1698500000000 82.5683400000000
endloop
endfacet
facet normal 0.3480043746024 0.4289294897229 0.8336140882348
outer loop
vertex 97.0618300000000 154.1916900000000 82.6085500000000
vertex 97.3708800000000 153.0747600000000 83.0542400000000
vertex 98.2172500000000 153.5448100000000 82.4590500000000
endloop
endfacet
facet normal -0.1594003432065 -0.0934175653773 0.9827841518180
outer loop
vertex 97.3708800000000 153.0747600000000 83.0542400000000
vertex 96.4667600000000 153.5006400000000 82.9480800000000
vertex 96.5188700000000 152.5588400000000 82.8670100000000
endloop
endfacet
facet normal 0.3776554803669 0.3858224356169 0.8417347481977
outer loop
vertex 98.2172500000000 153.5448100000000 82.4590500000000
vertex 97.3708800000000 153.0747600000000 83.0542400000000
vertex 98.3902900000000 152.4279800000000 82.8933300000000
endloop
endfacet
facet normal 0.0463295855053 -0.1717948503167 0.9840427322589
outer loop
vertex 98.3902900000000 152.4279800000000 82.8933300000000
vertex 97.3708800000000 153.0747600000000 83.0542400000000
vertex 97.4716800000000 152.0075500000000 82.8631800000000
endloop
endfacet
facet normal -0.1029388012258 -0.1847022763331 0.9773887007325
outer loop
vertex 97.3708800000000 153.0747600000000 83.0542400000000
vertex 96.5188700000000 152.5588400000000 82.8670100000000
vertex 97.4716800000000 152.0075500000000 82.8631800000000
endloop
endfacet
facet normal 0.0556160479559 -0.1917851534186 0.9798598420886
outer loop
vertex 98.3902900000000 152.4279800000000 82.8933300000000
vertex 97.4716800000000 152.0075500000000 82.8631800000000
vertex 98.2908300000000 151.4092900000000 82.6995900000000
endloop
endfacet
facet normal 0.9711506429589 -0.2215140625945 -0.0883059950032
outer loop
vertex 101.3082000000000 149.0233500000000 69.6543400000000
vertex 101.6493800000000 150.5846600000000 69.4899690000000
vertex 101.5253400000000 149.5611000000000 70.6934140000000
endloop
endfacet
endsolid WRAP
