solid WRAP
facet normal 0.8820049007663 -0.0507352303045 0.4685011114502
outer loop
vertex 182.4260000000000 161.9163700000000 73.3725750000000
vertex 183.0339000000000 162.2773700000000 72.2672300000000
vertex 182.7334000000000 162.9613100000000 72.9070200000000
endloop
endfacet
facet normal 0.2449680634884 0.3335290569047 0.9103565323932
outer loop
vertex 182.4260000000000 161.9163700000000 73.3725750000000
vertex 182.7334000000000 162.9613100000000 72.9070200000000
vertex 182.0305000000000 163.0544900000000 73.0620250000000
endloop
endfacet
facet normal -0.9155073626910 0.1403321198909 0.3770320476902
outer loop
vertex 180.6662000000000 162.5821100000000 70.4896710000000
vertex 180.2431000000000 161.1936000000000 69.9791080000000
vertex 180.8205000000000 161.5080900000000 71.2640940000000
endloop
endfacet
facet normal -0.9019209269046 0.1674206892682 0.3981318304489
outer loop
vertex 180.2431000000000 161.1936000000000 69.9791080000000
vertex 179.6573000000000 159.6824100000000 69.2875260000000
vertex 180.5078000000000 159.8210800000000 71.1559210000000
endloop
endfacet
facet normal -0.9251650161835 0.1739249588802 0.3373719038521
outer loop
vertex 181.1752000000000 163.7103100000000 71.3038670000000
vertex 180.6662000000000 162.5821100000000 70.4896710000000
vertex 181.0415000000000 162.6927500000000 71.4618070000000
endloop
endfacet
facet normal -0.9152620752115 0.1455641647039 0.3756413284420
outer loop
vertex 180.8205000000000 161.5080900000000 71.2640940000000
vertex 180.2431000000000 161.1936000000000 69.9791080000000
vertex 180.5078000000000 159.8210800000000 71.1559210000000
endloop
endfacet
facet normal -0.9381097397167 0.1208360237836 0.3245747550332
outer loop
vertex 181.0415000000000 162.6927500000000 71.4618070000000
vertex 180.8205000000000 161.5080900000000 71.2640940000000
vertex 181.1180000000000 162.0137500000000 71.9356980000000
endloop
endfacet
facet normal -0.9309686802143 0.1158918365100 0.3462172709302
outer loop
vertex 180.6662000000000 162.5821100000000 70.4896710000000
vertex 180.8205000000000 161.5080900000000 71.2640940000000
vertex 181.0415000000000 162.6927500000000 71.4618070000000
endloop
endfacet
facet normal -0.9096824420479 0.0745590391259 0.4085569780513
outer loop
vertex 179.6573000000000 159.6824100000000 69.2875260000000
vertex 179.9684000000000 158.4188000000000 70.2108140000000
vertex 180.5078000000000 159.8210800000000 71.1559210000000
endloop
endfacet
facet normal -0.9452193746417 0.1800844626794 0.2722681033530
outer loop
vertex 179.9684000000000 158.4188000000000 70.2108140000000
vertex 180.4043000000000 157.9986000000000 72.0020360000000
vertex 180.5078000000000 159.8210800000000 71.1559210000000
endloop
endfacet
facet normal -0.9275062633653 0.1732777772265 0.3312203848462
outer loop
vertex 181.1752000000000 163.7103100000000 71.3038670000000
vertex 181.0415000000000 162.6927500000000 71.4618070000000
vertex 181.4217000000000 163.0529900000000 72.3380100000000
endloop
endfacet
facet normal -0.8821863215537 0.2729163030790 0.3837498997748
outer loop
vertex 181.1752000000000 163.7103100000000 71.3038670000000
vertex 181.4217000000000 163.0529900000000 72.3380100000000
vertex 181.8419000000000 164.0879700000000 72.5679300000000
endloop
endfacet
facet normal -0.9280418797147 0.1371401335501 0.3463103424177
outer loop
vertex 181.0415000000000 162.6927500000000 71.4618070000000
vertex 181.1180000000000 162.0137500000000 71.9356980000000
vertex 181.4217000000000 163.0529900000000 72.3380100000000
endloop
endfacet
facet normal -0.9246992259262 0.2021340412557 0.3226037367068
outer loop
vertex 181.2007000000000 160.7539700000000 72.5575020000000
vertex 180.5078000000000 159.8210800000000 71.1559210000000
vertex 180.9683000000000 159.3874400000000 72.7475870000000
endloop
endfacet
facet normal -0.7549834935869 0.1655688358037 0.6344973483174
outer loop
vertex 181.4217000000000 163.0529900000000 72.3380100000000
vertex 182.0305000000000 163.0544900000000 73.0620250000000
vertex 181.8419000000000 164.0879700000000 72.5679300000000
endloop
endfacet
facet normal -0.9360466814278 0.1044094381511 0.3360286883778
outer loop
vertex 181.1180000000000 162.0137500000000 71.9356980000000
vertex 180.8205000000000 161.5080900000000 71.2640940000000
vertex 181.2007000000000 160.7539700000000 72.5575020000000
endloop
endfacet
facet normal -0.9106215728482 0.1121420685149 0.3977342172011
outer loop
vertex 181.4217000000000 163.0529900000000 72.3380100000000
vertex 181.1180000000000 162.0137500000000 71.9356980000000
vertex 181.5578000000000 162.0338000000000 72.9369770000000
endloop
endfacet
facet normal -0.9221595745362 0.1480142294235 0.3573702659420
outer loop
vertex 180.8205000000000 161.5080900000000 71.2640940000000
vertex 180.5078000000000 159.8210800000000 71.1559210000000
vertex 181.2007000000000 160.7539700000000 72.5575020000000
endloop
endfacet
facet normal -0.9246518788664 0.2023001836420 0.3226353027912
outer loop
vertex 180.5078000000000 159.8210800000000 71.1559210000000
vertex 180.4043000000000 157.9986000000000 72.0020360000000
vertex 180.9683000000000 159.3874400000000 72.7475870000000
endloop
endfacet
facet normal 0.8763100603417 -0.0618938649772 0.4777549870195
outer loop
vertex 182.7334000000000 162.9613100000000 72.9070200000000
vertex 183.0339000000000 162.2773700000000 72.2672300000000
vertex 183.1221000000000 163.5100200000000 72.2651430000000
endloop
endfacet
facet normal 0.8266574648396 0.0678510816533 0.5585997373284
outer loop
vertex 182.7334000000000 162.9613100000000 72.9070200000000
vertex 183.1221000000000 163.5100200000000 72.2651430000000
vertex 182.6641000000000 163.9537600000000 72.8890260000000
endloop
endfacet
facet normal -0.7381047519689 0.2658596163335 0.6200967985113
outer loop
vertex 182.0305000000000 163.0544900000000 73.0620250000000
vertex 181.4217000000000 163.0529900000000 72.3380100000000
vertex 181.5578000000000 162.0338000000000 72.9369770000000
endloop
endfacet
facet normal -0.9369015489339 0.1992883845973 0.2872274836603
outer loop
vertex 181.2007000000000 160.7539700000000 72.5575020000000
vertex 180.9683000000000 159.3874400000000 72.7475870000000
vertex 181.4488000000000 159.9628700000000 73.9156670000000
endloop
endfacet
facet normal -0.9377512771979 0.2532045240627 0.2377183440710
outer loop
vertex 180.9683000000000 159.3874400000000 72.7475870000000
vertex 180.4043000000000 157.9986000000000 72.0020360000000
vertex 181.0447000000000 158.4800300000000 74.0154930000000
endloop
endfacet
facet normal -0.2847365102246 0.3706853201286 0.8840347918415
outer loop
vertex 181.8419000000000 164.0879700000000 72.5679300000000
vertex 182.0305000000000 163.0544900000000 73.0620250000000
vertex 182.6641000000000 163.9537600000000 72.8890260000000
endloop
endfacet
facet normal 0.8472306671842 0.1412902479463 0.5120910684808
outer loop
vertex 183.0339000000000 162.2773700000000 72.2672300000000
vertex 182.4260000000000 161.9163700000000 73.3725750000000
vertex 182.9261000000001 161.0461900000000 72.7852730000000
endloop
endfacet
facet normal -0.9080751008909 0.1359153320403 0.3961396643337
outer loop
vertex 181.1180000000000 162.0137500000000 71.9356980000000
vertex 181.2007000000000 160.7539700000000 72.5575020000000
vertex 181.5578000000000 162.0338000000000 72.9369770000000
endloop
endfacet
facet normal -0.4364995293911 0.0925093703861 0.8949358509034
outer loop
vertex 182.4260000000000 161.9163700000000 73.3725750000000
vertex 182.0305000000000 163.0544900000000 73.0620250000000
vertex 181.5578000000000 162.0338000000000 72.9369770000000
endloop
endfacet
facet normal -0.9299321307959 0.2702140661424 0.2494205095260
outer loop
vertex 181.4488000000000 159.9628700000000 73.9156670000000
vertex 180.9683000000000 159.3874400000000 72.7475870000000
vertex 181.0447000000000 158.4800300000000 74.0154930000000
endloop
endfacet
facet normal -0.9252090391331 0.1555268638375 0.3461208293808
outer loop
vertex 181.5578000000000 162.0338000000000 72.9369770000000
vertex 181.2007000000000 160.7539700000000 72.5575020000000
vertex 181.7023000000000 161.1617400000000 73.7150910000000
endloop
endfacet
facet normal -0.2875816005896 0.6106779004862 0.7378138822630
outer loop
vertex 182.4260000000000 161.9163700000000 73.3725750000000
vertex 181.5578000000000 162.0338000000000 72.9369770000000
vertex 181.7023000000000 161.1617400000000 73.7150910000000
endloop
endfacet
facet normal -0.9179622843524 0.2461439773005 0.3110601018214
outer loop
vertex 181.2007000000000 160.7539700000000 72.5575020000000
vertex 181.4488000000000 159.9628700000000 73.9156670000000
vertex 181.7023000000000 161.1617400000000 73.7150910000000
endloop
endfacet
facet normal 0.9674547256955 0.2370540133050 0.0885254116365
outer loop
vertex 182.9623000000000 159.7969500000000 73.3126230000000
vertex 182.6648000000000 160.8124400000000 73.8445810000000
vertex 182.8130000000000 160.0164800000000 74.3563970000000
endloop
endfacet
facet normal 0.2194005051262 0.0329991276828 0.9750766513062
outer loop
vertex 182.0305000000000 163.0544900000000 73.0620250000000
vertex 182.7334000000000 162.9613100000000 72.9070200000000
vertex 182.6641000000000 163.9537600000000 72.8890260000000
endloop
endfacet
facet normal 0.9009674080887 0.3201223781531 0.2928811918978
outer loop
vertex 182.9261000000001 161.0461900000000 72.7852730000000
vertex 182.4260000000000 161.9163700000000 73.3725750000000
vertex 182.6648000000000 160.8124400000000 73.8445810000000
endloop
endfacet
facet normal 0.7386149365647 0.3937377591075 0.5471915135823
outer loop
vertex 182.6648000000000 160.8124400000000 73.8445810000000
vertex 182.4260000000000 161.9163700000000 73.3725750000000
vertex 182.2570000000000 161.2516900000000 74.0789740000000
endloop
endfacet
facet normal -0.4691645693395 0.6964134119153 0.5430404833720
outer loop
vertex 182.4260000000000 161.9163700000000 73.3725750000000
vertex 181.7023000000000 161.1617400000000 73.7150910000000
vertex 182.2570000000000 161.2516900000000 74.0789740000000
endloop
endfacet
facet normal -0.5109352932644 0.5784538739609 0.6358743915243
outer loop
vertex 182.2570000000000 161.2516900000000 74.0789740000000
vertex 181.7023000000000 161.1617400000000 73.7150910000000
vertex 182.1475000000000 160.4753700000000 74.6972060000000
endloop
endfacet
facet normal -0.7983033538294 0.2597103697624 0.5433804184018
outer loop
vertex 181.7023000000000 161.1617400000000 73.7150910000000
vertex 181.4488000000000 159.9628700000000 73.9156670000000
vertex 182.1475000000000 160.4753700000000 74.6972060000000
endloop
endfacet
facet normal 0.9762985088411 0.1923602202043 0.0991905606276
outer loop
vertex 182.9623000000000 159.7969500000000 73.3126230000000
vertex 182.8130000000000 160.0164800000000 74.3563970000000
vertex 183.0105000000000 158.9779100000000 74.4265710000000
endloop
endfacet
facet normal 0.6415952017886 0.4957972937284 0.5852697160912
outer loop
vertex 182.8130000000000 160.0164800000000 74.3563970000000
vertex 182.6648000000000 160.8124400000000 73.8445810000000
vertex 182.1475000000000 160.4753700000000 74.6972060000000
endloop
endfacet
facet normal 0.7262598046132 0.3626299306867 0.5839916348488
outer loop
vertex 182.6648000000000 160.8124400000000 73.8445810000000
vertex 182.2570000000000 161.2516900000000 74.0789740000000
vertex 182.1475000000000 160.4753700000000 74.6972060000000
endloop
endfacet
facet normal -0.7710392094411 0.5423870160058 0.3336388202425
outer loop
vertex 182.1475000000000 160.4753700000000 74.6972060000000
vertex 181.4488000000000 159.9628700000000 73.9156670000000
vertex 181.6063000000000 159.4472900000000 75.1178130000000
endloop
endfacet
facet normal -0.9328751561822 0.2702559715373 0.2381294875197
outer loop
vertex 181.4488000000000 159.9628700000000 73.9156670000000
vertex 181.0447000000000 158.4800300000000 74.0154930000000
vertex 181.6063000000000 159.4472900000000 75.1178130000000
endloop
endfacet
facet normal 0.9529332908477 0.2964416845592 0.0635646981418
outer loop
vertex 183.0025000000000 158.7637900000000 75.5450780000000
vertex 183.0105000000000 158.9779100000000 74.4265710000000
vertex 182.7494000000000 159.6504900000000 75.2042060000000
endloop
endfacet
facet normal 0.9682625137726 0.1947174024877 0.1566934510160
outer loop
vertex 183.0105000000000 158.9779100000000 74.4265710000000
vertex 182.8130000000000 160.0164800000000 74.3563970000000
vertex 182.7494000000000 159.6504900000000 75.2042060000000
endloop
endfacet
facet normal -0.6733121880757 0.5545189929072 0.4890392457604
outer loop
vertex 182.1475000000000 160.4753700000000 74.6972060000000
vertex 181.6063000000000 159.4472900000000 75.1178130000000
vertex 182.1794000000000 159.7315100000000 75.5845850000000
endloop
endfacet
facet normal 0.4692755591959 0.6849672627246 0.5573152595587
outer loop
vertex 182.7494000000000 159.6504900000000 75.2042060000000
vertex 182.1475000000000 160.4753700000000 74.6972060000000
vertex 182.1794000000000 159.7315100000000 75.5845850000000
endloop
endfacet
facet normal 0.6459146162500 0.6820679687557 0.3428958945687
outer loop
vertex 182.8130000000000 160.0164800000000 74.3563970000000
vertex 182.1475000000000 160.4753700000000 74.6972060000000
vertex 182.7494000000000 159.6504900000000 75.2042060000000
endloop
endfacet
facet normal -0.9283229036830 0.3162541804661 0.1954478954485
outer loop
vertex 181.6063000000000 159.4472900000000 75.1178130000000
vertex 181.0447000000000 158.4800300000000 74.0154930000000
vertex 181.3072000000000 158.2327700000000 75.6623860000000
endloop
endfacet
facet normal 0.8355004574989 0.4987549752875 0.2306132263014
outer loop
vertex 182.9312000000000 158.4338300000000 76.5170100000000
vertex 183.0025000000000 158.7637900000000 75.5450780000000
vertex 182.5869000000000 159.2079300000000 76.0902200000000
endloop
endfacet
facet normal -0.0562945723270 0.6705545102189 0.7397212785581
outer loop
vertex 182.5869000000000 159.2079300000000 76.0902200000000
vertex 182.1794000000000 159.7315100000000 75.5845850000000
vertex 181.8754000000000 159.0784900000000 76.1534100000000
endloop
endfacet
facet normal -0.6472794966987 0.6492351469347 0.3994032763238
outer loop
vertex 182.1794000000000 159.7315100000000 75.5845850000000
vertex 181.6063000000000 159.4472900000000 75.1178130000000
vertex 181.8754000000000 159.0784900000000 76.1534100000000
endloop
endfacet
facet normal 0.8584881344304 0.3781973534280 0.3463594735275
outer loop
vertex 183.0025000000000 158.7637900000000 75.5450780000000
vertex 182.7494000000000 159.6504900000000 75.2042060000000
vertex 182.5869000000000 159.2079300000000 76.0902200000000
endloop
endfacet
facet normal -0.8582998794884 0.3705455673525 0.3549891538986
outer loop
vertex 181.6063000000000 159.4472900000000 75.1178130000000
vertex 181.3072000000000 158.2327700000000 75.6623860000000
vertex 181.8754000000000 159.0784900000000 76.1534100000000
endloop
endfacet
facet normal 0.4214988039900 0.7779901309515 0.4659078389306
outer loop
vertex 182.7494000000000 159.6504900000000 75.2042060000000
vertex 182.1794000000000 159.7315100000000 75.5845850000000
vertex 182.5869000000000 159.2079300000000 76.0902200000000
endloop
endfacet
facet normal -0.8629319293534 0.4652086326325 0.1973053811395
outer loop
vertex 181.8754000000000 159.0784900000000 76.1534100000000
vertex 181.3072000000000 158.2327700000000 75.6623860000000
vertex 181.6027000000000 158.2420500000000 76.9329000000000
endloop
endfacet
facet normal 0.9537149434314 0.1399850271440 0.2661428166440
outer loop
vertex 182.9623000000000 159.7969500000000 73.3126230000000
vertex 182.9261000000001 161.0461900000000 72.7852730000000
vertex 182.6648000000000 160.8124400000000 73.8445810000000
endloop
endfacet
facet normal 0.6934005384380 0.5590460138882 0.4546022961332
outer loop
vertex 182.9312000000000 158.4338300000000 76.5170100000000
vertex 182.5869000000000 159.2079300000000 76.0902200000000
vertex 182.3614000000000 158.7668500000000 76.9765900000000
endloop
endfacet
facet normal -0.1268985357829 0.9005379685905 0.4158462801842
outer loop
vertex 182.5869000000000 159.2079300000000 76.0902200000000
vertex 181.8754000000000 159.0784900000000 76.1534100000000
vertex 182.3614000000000 158.7668500000000 76.9765900000000
endloop
endfacet
facet normal -0.4969374101505 0.6727900052067 0.5480938051893
outer loop
vertex 181.8754000000000 159.0784900000000 76.1534100000000
vertex 181.6027000000000 158.2420500000000 76.9329000000000
vertex 182.3614000000000 158.7668500000000 76.9765900000000
endloop
endfacet
facet normal 0.6490234387512 0.7003046529469 0.2972237692589
outer loop
vertex 182.9312000000000 158.4338300000000 76.5170100000000
vertex 182.3614000000000 158.7668500000000 76.9765900000000
vertex 182.8223000000000 158.1527600000000 77.4170500000000
endloop
endfacet
endsolid WRAP
