solid WRAP
facet normal 0.9230271621448 -0.3712865049132 0.1008324809393
outer loop
vertex 200.2521386301413 192.1179332551953 124.1920533705579
vertex 198.1645605792448 187.1925757391652 125.1656728390624
vertex 199.8587759726236 189.9694011440430 119.8815717010367
endloop
endfacet
facet normal 0.9003345495840 -0.4265263775703 0.0864462148511
outer loop
vertex 197.0400315020345 183.7712334454628 119.9966743409061
vertex 198.1645605792448 187.1925757391652 125.1656728390624
vertex 194.5281381564259 179.5089437559516 125.1277883319972
endloop
endfacet
facet normal 0.9426525491236 -0.3328954967754 -0.0242231265013
outer loop
vertex 201.9670258771603 193.5968709782540 103.1274419791516
vertex 204.0859828848918 199.7113705660603 101.5566640288909
vertex 203.6465726986270 197.8741810663481 109.7051158389108
endloop
endfacet
facet normal 0.9279238274259 -0.3556877807547 0.1115507647532
outer loop
vertex 199.8587759726236 189.9694011440430 119.8815717010367
vertex 201.8438968511094 193.4945908366288 114.6088685844478
vertex 202.2544836623703 196.3812743106125 120.3978450619762
endloop
endfacet
facet normal 0.8845145677980 -0.4658526152829 -0.0248056482916
outer loop
vertex 194.5281381564259 179.5089437559516 125.1277883319972
vertex 192.6521631211100 175.7189422766074 129.4112826502062
vertex 191.5243085319936 173.8211983414518 124.8343073675086
endloop
endfacet
facet normal 0.9075103059144 -0.4191237679327 -0.0275737522492
outer loop
vertex 201.9670258771603 193.5968709782540 103.1274419791516
vertex 201.4492298364672 192.0223015932720 110.0192936392757
vertex 199.6300367801663 188.1879202433976 108.4287923685602
endloop
endfacet
facet normal 0.8833526868924 -0.4679208162431 0.0271687372986
outer loop
vertex 194.5281381564259 179.5089437559516 125.1277883319972
vertex 191.5243085319936 173.8211983414518 124.8343073675086
vertex 193.9307136025534 177.9798606261158 118.2171527999266
endloop
endfacet
facet normal 0.8709991577914 -0.4851813801507 -0.0771977686318
outer loop
vertex 200.1005642629773 189.7608310974008 101.3088825970329
vertex 197.2591878397411 184.2939052236182 103.6096507690192
vertex 197.3636295415145 185.3245010938032 98.3108280227010
endloop
endfacet
facet normal 0.9082568604221 -0.4116579428843 0.0748813298256
outer loop
vertex 199.8587759726236 189.9694011440430 119.8815717010367
vertex 198.1645605792448 187.1925757391652 125.1656728390624
vertex 197.0400315020345 183.7712334454628 119.9966743409061
endloop
endfacet
facet normal 0.8750914181696 -0.4822622870989 0.0404734022293
outer loop
vertex 197.0400315020345 183.7712334454628 119.9966743409061
vertex 193.9307136025534 177.9798606261158 118.2171527999266
vertex 195.6657578200468 180.7488325205895 113.6968610514007
endloop
endfacet
facet normal 0.8795443409637 -0.4758005508344 -0.0039481773433
outer loop
vertex 198.8659680947943 186.6601864871744 114.2290974195071
vertex 195.6657578200468 180.7488325205895 113.6968610514007
vertex 197.3842629555302 183.9598888868642 109.5630748551071
endloop
endfacet
facet normal 0.8304577869913 -0.5393848337082 -0.1392977573084
outer loop
vertex 197.3636295415145 185.3245010938032 98.3108280227010
vertex 194.0925328043955 180.3260236343575 98.1643445151457
vertex 195.3107232375026 182.8331398715036 95.7189013864821
endloop
endfacet
facet normal 0.8544306663894 -0.5195608086090 0.0021914586197
outer loop
vertex 193.9307136025534 177.9798606261158 118.2171527999266
vertex 190.4084864096910 172.1893466561261 118.6619739129990
vertex 192.5028733829041 175.6167967840360 114.6739007651572
endloop
endfacet
facet normal 0.8167030681382 -0.5683507774078 -0.0998673736194
outer loop
vertex 190.4144421122642 174.6045331349116 100.6466929654192
vertex 194.0925328043955 180.3260236343575 98.1643445151457
vertex 192.5369668419303 177.0250370457533 104.2292161309501
endloop
endfacet
facet normal 0.8767151725059 -0.4800466545978 0.0304255765329
outer loop
vertex 197.0400315020345 183.7712334454628 119.9966743409061
vertex 194.5281381564259 179.5089437559516 125.1277883319972
vertex 193.9307136025534 177.9798606261158 118.2171527999266
endloop
endfacet
facet normal 0.9112580252735 -0.4102503768312 0.0361031810863
outer loop
vertex 192.6521631211100 175.7189422766074 129.4112826502062
vertex 194.5281381564259 179.5089437559516 125.1277883319972
vertex 195.0005489153817 181.0656006658427 130.8926816819226
endloop
endfacet
facet normal 0.8536686817459 -0.5205486122421 -0.0167010209004
outer loop
vertex 193.9307136025534 177.9798606261158 118.2171527999266
vertex 191.5243085319936 173.8211983414518 124.8343073675086
vertex 190.4084864096910 172.1893466561261 118.6619739129990
endloop
endfacet
facet normal 0.8556621076574 -0.5155933373543 -0.0447869176782
outer loop
vertex 197.3842629555302 183.9598888868642 109.5630748551071
vertex 195.6657578200468 180.7488325205895 113.6968610514007
vertex 193.9535645263666 178.2735579681520 109.4808117044731
endloop
endfacet
facet normal 0.9303181165596 -0.3550126498280 0.0920555292369
outer loop
vertex 200.2521386301413 192.1179332551953 124.1920533705579
vertex 199.8587759726236 189.9694011440430 119.8815717010367
vertex 202.2544836623703 196.3812743106125 120.3978450619762
endloop
endfacet
facet normal 0.8074421482814 -0.5819134861065 -0.0970251094615
outer loop
vertex 188.3606327197269 168.5811957147672 123.2598384489924
vertex 185.9908920713519 165.9535501744369 119.2983267794755
vertex 190.4084864096910 172.1893466561261 118.6619739129990
endloop
endfacet
facet normal 0.9684938142721 -0.2460650523016 0.0383630258509
outer loop
vertex 203.6465726986270 197.8741810663481 109.7051158389108
vertex 205.2116415712458 203.9038066228865 108.8689097941404
vertex 204.0355359667458 200.2544536259723 115.1528970836985
endloop
endfacet
facet normal 0.9339258446375 -0.3497131078971 0.0740490302647
outer loop
vertex 200.9397979093358 195.2388297650735 130.2884218924668
vertex 199.4957766485482 191.8022196035073 132.2706376608384
vertex 199.7015697033838 191.5410929669620 128.4418925825378
endloop
endfacet
facet normal 0.8709597128100 -0.4852814307500 -0.0770137106699
outer loop
vertex 199.8201983650159 190.1032174758435 95.9807254416272
vertex 200.1005642629773 189.7608310974008 101.3088825970329
vertex 197.3636295415145 185.3245010938032 98.3108280227010
endloop
endfacet
facet normal 0.9473454951574 -0.3126940966198 0.0689848877956
outer loop
vertex 201.8438968511094 193.4945908366288 114.6088685844478
vertex 203.6465726986270 197.8741810663481 109.7051158389108
vertex 204.0355359667458 200.2544536259723 115.1528970836985
endloop
endfacet
facet normal 0.8346060230004 -0.5435655954005 -0.0892705431165
outer loop
vertex 197.3636295415145 185.3245010938032 98.3108280227010
vertex 197.2591878397411 184.2939052236182 103.6096507690192
vertex 194.0925328043955 180.3260236343575 98.1643445151457
endloop
endfacet
facet normal 0.8780611026933 -0.4762174237705 -0.0471769566031
outer loop
vertex 200.1005642629773 189.7608310974008 101.3088825970329
vertex 199.6300367801663 188.1879202433976 108.4287923685602
vertex 197.2591878397411 184.2939052236182 103.6096507690192
endloop
endfacet
facet normal 0.8316390734778 -0.5472643472008 -0.0942241250844
outer loop
vertex 192.5369668419303 177.0250370457533 104.2292161309501
vertex 193.9535645263666 178.2735579681520 109.4808117044731
vertex 191.2431144399338 174.1374444484489 109.5809056741613
endloop
endfacet
facet normal 0.9277710923683 -0.3644497143139 0.0801074647094
outer loop
vertex 200.2521386301413 192.1179332551953 124.1920533705579
vertex 202.2544836623703 196.3812743106125 120.3978450619762
vertex 201.4221292739762 195.4840043729598 125.9556862610818
endloop
endfacet
facet normal 0.9518469886981 -0.2851162937753 0.1126765686826
outer loop
vertex 202.2544836623703 196.3812743106125 120.3978450619762
vertex 204.0355359667458 200.2544536259723 115.1528970836985
vertex 203.7470610979906 201.4162767705510 120.5296906018879
endloop
endfacet
facet normal 0.9078394337300 -0.4113476589872 0.0813674751393
outer loop
vertex 199.8587759726236 189.9694011440430 119.8815717010367
vertex 197.0400315020345 183.7712334454628 119.9966743409061
vertex 198.8659680947943 186.6601864871744 114.2290974195071
endloop
endfacet
facet normal 0.8773217903371 -0.4783856277653 0.0381269897489
outer loop
vertex 197.0400315020345 183.7712334454628 119.9966743409061
vertex 195.6657578200468 180.7488325205895 113.6968610514007
vertex 198.8659680947943 186.6601864871744 114.2290974195071
endloop
endfacet
facet normal 0.8585170884914 -0.5124052277411 -0.0197304676023
outer loop
vertex 191.5243085319936 173.8211983414518 124.8343073675086
vertex 188.3606327197269 168.5811957147672 123.2598384489924
vertex 190.4084864096910 172.1893466561261 118.6619739129990
endloop
endfacet
facet normal 0.8395470170702 -0.5164977877596 -0.1684958200311
outer loop
vertex 197.3636295415145 185.3245010938032 98.3108280227010
vertex 195.3107232375026 182.8331398715036 95.7189013864821
vertex 196.2729483528860 185.6079721477570 92.0074650635911
endloop
endfacet
facet normal 0.8479395796737 -0.5290161158030 -0.0337700820771
outer loop
vertex 195.6657578200468 180.7488325205895 113.6968610514007
vertex 192.5028733829041 175.6167967840360 114.6739007651572
vertex 193.9535645263666 178.2735579681520 109.4808117044731
endloop
endfacet
facet normal 0.8334836791726 -0.5506067381678 -0.0462296056352
outer loop
vertex 191.2431144399338 174.1374444484489 109.5809056741613
vertex 192.5028733829041 175.6167967840360 114.6739007651572
vertex 189.7565428904348 171.4931383816726 114.2735611864504
endloop
endfacet
facet normal 0.8178033680748 -0.5664179429846 -0.1018251689445
outer loop
vertex 190.4144421122642 174.6045331349116 100.6466929654192
vertex 192.5369668419303 177.0250370457533 104.2292161309501
vertex 188.4173475942685 170.3115372380155 108.4875764155233
endloop
endfacet
facet normal 0.8118289731570 -0.5797433558677 -0.0695079827799
outer loop
vertex 191.2431144399338 174.1374444484489 109.5809056741613
vertex 189.7565428904348 171.4931383816726 114.2735611864504
vertex 188.4173475942685 170.3115372380155 108.4875764155233
endloop
endfacet
facet normal 0.9677601322534 -0.2518317661904 -0.0045921627124
outer loop
vertex 203.6465726986270 197.8741810663481 109.7051158389108
vertex 204.0859828848918 199.7113705660603 101.5566640288909
vertex 205.2116415712458 203.9038066228865 108.8689097941404
endloop
endfacet
facet normal 0.9453150571800 -0.3136762298648 0.0893681458158
outer loop
vertex 202.2544836623703 196.3812743106125 120.3978450619762
vertex 201.8438968511094 193.4945908366288 114.6088685844478
vertex 204.0355359667458 200.2544536259723 115.1528970836985
endloop
endfacet
facet normal 0.8407870231063 -0.5144368321666 -0.1686176962435
outer loop
vertex 199.8201983650159 190.1032174758435 95.9807254416272
vertex 197.3636295415145 185.3245010938032 98.3108280227010
vertex 196.2729483528860 185.6079721477570 92.0074650635911
endloop
endfacet
facet normal 0.9795165414958 -0.1869796786690 0.0747391778181
outer loop
vertex 204.0355359667458 200.2544536259723 115.1528970836985
vertex 205.2116415712458 203.9038066228865 108.8689097941404
vertex 205.2030443050313 206.1024054623263 114.4819561406012
endloop
endfacet
facet normal 0.8518106774335 -0.5238144269896 0.0060840683646
outer loop
vertex 195.6657578200468 180.7488325205895 113.6968610514007
vertex 193.9307136025534 177.9798606261158 118.2171527999266
vertex 192.5028733829041 175.6167967840360 114.6739007651572
endloop
endfacet
facet normal 0.9897060925393 -0.1364747728493 0.0430869674756
outer loop
vertex 205.2030443050313 206.1024054623263 114.4819561406012
vertex 205.9226905814732 210.5474820534213 112.0311573866597
vertex 205.4713067514942 208.8292321271143 116.9569985550579
endloop
endfacet
facet normal 0.9800169904330 -0.1882990038316 0.0641107137583
outer loop
vertex 204.0355359667458 200.2544536259723 115.1528970836985
vertex 205.2030443050313 206.1024054623263 114.4819561406012
vertex 204.7058149378385 204.6404768727309 117.7889467895710
endloop
endfacet
facet normal 0.9899556329777 -0.1311186793405 0.0528747261336
outer loop
vertex 205.2116415712458 203.9038066228865 108.8689097941404
vertex 205.9226905814732 210.5474820534213 112.0311573866597
vertex 205.2030443050313 206.1024054623263 114.4819561406012
endloop
endfacet
facet normal 0.8322456333417 -0.5478917861586 -0.0847454803726
outer loop
vertex 194.0925328043955 180.3260236343575 98.1643445151457
vertex 197.2591878397411 184.2939052236182 103.6096507690192
vertex 192.5369668419303 177.0250370457533 104.2292161309501
endloop
endfacet
facet normal 0.8555926406715 -0.5155208806051 -0.0468983463336
outer loop
vertex 197.2591878397411 184.2939052236182 103.6096507690192
vertex 197.3842629555302 183.9598888868642 109.5630748551071
vertex 193.9535645263666 178.2735579681520 109.4808117044731
endloop
endfacet
facet normal 0.9247970988549 -0.3754297153464 0.0616672910423
outer loop
vertex 197.7613539721074 187.4237749986973 131.9556416030772
vertex 197.0544623599215 186.3871750565660 136.2457747754694
vertex 196.0923630815064 183.7598730462091 134.6789697033549
endloop
endfacet
facet normal 0.9157361523198 -0.4012081014340 0.0214326544833
outer loop
vertex 195.0005489153817 181.0656006658427 130.8926816819226
vertex 197.7613539721074 187.4237749986973 131.9556416030772
vertex 196.0923630815064 183.7598730462091 134.6789697033549
endloop
endfacet
facet normal 0.9049233860396 -0.4242209921441 -0.0339148230551
outer loop
vertex 200.1005642629773 189.7608310974008 101.3088825970329
vertex 201.9670258771603 193.5968709782540 103.1274419791516
vertex 199.6300367801663 188.1879202433976 108.4287923685602
endloop
endfacet
facet normal 0.9126430569333 -0.4018272466979 0.0749500796698
outer loop
vertex 201.8438968511094 193.4945908366288 114.6088685844478
vertex 199.8587759726236 189.9694011440430 119.8815717010367
vertex 198.8659680947943 186.6601864871744 114.2290974195071
endloop
endfacet
facet normal 0.9362653569567 -0.3498586016317 0.0317197135409
outer loop
vertex 203.6465726986270 197.8741810663481 109.7051158389108
vertex 201.8438968511094 193.4945908366288 114.6088685844478
vertex 201.4492298364672 192.0223015932720 110.0192936392757
endloop
endfacet
facet normal 0.9025726179320 -0.4305024475679 0.0055056332502
outer loop
vertex 199.6300367801663 188.1879202433976 108.4287923685602
vertex 201.4492298364672 192.0223015932720 110.0192936392757
vertex 198.8659680947943 186.6601864871744 114.2290974195071
endloop
endfacet
facet normal 0.8822571112840 -0.4707039257248 -0.0077591169676
outer loop
vertex 199.6300367801663 188.1879202433976 108.4287923685602
vertex 198.8659680947943 186.6601864871744 114.2290974195071
vertex 197.3842629555302 183.9598888868642 109.5630748551071
endloop
endfacet
facet normal 0.8771630325975 -0.4780559511183 -0.0452495507675
outer loop
vertex 197.2591878397411 184.2939052236182 103.6096507690192
vertex 199.6300367801663 188.1879202433976 108.4287923685602
vertex 197.3842629555302 183.9598888868642 109.5630748551071
endloop
endfacet
facet normal 0.8142922716069 -0.5698227816818 -0.1105897548495
outer loop
vertex 192.5369668419303 177.0250370457533 104.2292161309501
vertex 191.2431144399338 174.1374444484489 109.5809056741613
vertex 188.4173475942685 170.3115372380155 108.4875764155233
endloop
endfacet
facet normal 0.8349476886698 -0.5482960649176 -0.0472629070291
outer loop
vertex 193.9535645263666 178.2735579681520 109.4808117044731
vertex 192.5028733829041 175.6167967840360 114.6739007651572
vertex 191.2431144399338 174.1374444484489 109.5809056741613
endloop
endfacet
facet normal 0.8333826785238 -0.5515021761045 -0.0363133706583
outer loop
vertex 192.5028733829041 175.6167967840360 114.6739007651572
vertex 190.4084864096910 172.1893466561261 118.6619739129990
vertex 189.7565428904348 171.4931383816726 114.2735611864504
endloop
endfacet
facet normal 0.8311934758555 -0.5479911946470 -0.0939311252175
outer loop
vertex 192.5369668419303 177.0250370457533 104.2292161309501
vertex 197.2591878397411 184.2939052236182 103.6096507690192
vertex 193.9535645263666 178.2735579681520 109.4808117044731
endloop
endfacet
facet normal 0.9238206778663 -0.3723497077224 0.0889440852771
outer loop
vertex 197.7613539721074 187.4237749986973 131.9556416030772
vertex 199.4957766485482 191.8022196035073 132.2706376608384
vertex 198.4847302501061 190.1403469880036 135.8147495096056
endloop
endfacet
facet normal 0.9348067049920 -0.3482116820788 0.0698931238805
outer loop
vertex 197.0544623599215 186.3871750565660 136.2457747754694
vertex 197.7613539721074 187.4237749986973 131.9556416030772
vertex 198.4847302501061 190.1403469880036 135.8147495096056
endloop
endfacet
facet normal 0.9252262037999 -0.3719101599857 0.0750953041239
outer loop
vertex 199.7015697033838 191.5410929669620 128.4418925825378
vertex 199.4957766485482 191.8022196035073 132.2706376608384
vertex 197.7613539721074 187.4237749986973 131.9556416030772
endloop
endfacet
facet normal 0.7896617558693 -0.6132154664646 -0.0200275561677
outer loop
vertex 189.7565428904348 171.4931383816726 114.2735611864504
vertex 190.4084864096910 172.1893466561261 118.6619739129990
vertex 187.6462042724356 168.7654122544240 114.5846401262966
endloop
endfacet
facet normal 0.7865385441649 -0.6149544490406 -0.0564636533365
outer loop
vertex 188.4173475942685 170.3115372380155 108.4875764155233
vertex 189.7565428904348 171.4931383816726 114.2735611864504
vertex 187.6462042724356 168.7654122544240 114.5846401262966
endloop
endfacet
facet normal 0.8114521569185 -0.5811510402262 -0.0617160066459
outer loop
vertex 190.4084864096910 172.1893466561261 118.6619739129990
vertex 185.9908920713519 165.9535501744369 119.2983267794755
vertex 187.6462042724356 168.7654122544240 114.5846401262966
endloop
endfacet
facet normal 0.9359509204616 -0.3519856590388 -0.0100980353625
outer loop
vertex 201.9670258771603 193.5968709782540 103.1274419791516
vertex 203.6465726986270 197.8741810663481 109.7051158389108
vertex 201.4492298364672 192.0223015932720 110.0192936392757
endloop
endfacet
facet normal 0.9145808790285 -0.4012898044803 0.0500830164397
outer loop
vertex 201.4492298364672 192.0223015932720 110.0192936392757
vertex 201.8438968511094 193.4945908366288 114.6088685844478
vertex 198.8659680947943 186.6601864871744 114.2290974195071
endloop
endfacet
facet normal 0.9834659265309 -0.1648307614007 0.0750039428885
outer loop
vertex 205.2030443050313 206.1024054623263 114.4819561406012
vertex 205.4713067514942 208.8292321271143 116.9569985550579
vertex 204.7058149378385 204.6404768727309 117.7889467895710
endloop
endfacet
facet normal 0.9233437839846 -0.3778448477585 0.0683339417805
outer loop
vertex 198.1645605792448 187.1925757391652 125.1656728390624
vertex 200.2521386301413 192.1179332551953 124.1920533705579
vertex 199.7015697033838 191.5410929669620 128.4418925825378
endloop
endfacet
facet normal 0.9299359828993 -0.3607002449550 0.0715150403657
outer loop
vertex 199.7015697033838 191.5410929669620 128.4418925825378
vertex 200.2521386301413 192.1179332551953 124.1920533705579
vertex 201.4221292739762 195.4840043729598 125.9556862610818
endloop
endfacet
facet normal 0.9735117143864 -0.2070543972956 0.0969712251810
outer loop
vertex 203.7470610979906 201.4162767705510 120.5296906018879
vertex 204.0355359667458 200.2544536259723 115.1528970836985
vertex 204.7058149378385 204.6404768727309 117.7889467895710
endloop
endfacet
facet normal 0.9563974229800 -0.2851674186024 0.0631150749419
outer loop
vertex 202.2544836623703 196.3812743106125 120.3978450619762
vertex 203.7470610979906 201.4162767705510 120.5296906018879
vertex 202.7759762074051 198.9139401744234 123.9386736294262
endloop
endfacet
facet normal 0.9030269716594 -0.4275787940424 0.0414567647176
outer loop
vertex 194.5281381564259 179.5089437559516 125.1277883319972
vertex 198.1645605792448 187.1925757391652 125.1656728390624
vertex 195.0005489153817 181.0656006658427 130.8926816819226
endloop
endfacet
facet normal 0.9432994950348 -0.3196008784532 0.0896735254075
outer loop
vertex 201.4221292739762 195.4840043729598 125.9556862610818
vertex 202.2544836623703 196.3812743106125 120.3978450619762
vertex 202.7759762074051 198.9139401744234 123.9386736294262
endloop
endfacet
facet normal 0.9723982082619 -0.2176269064306 0.0841442461879
outer loop
vertex 203.7470610979906 201.4162767705510 120.5296906018879
vertex 204.7058149378385 204.6404768727309 117.7889467895710
vertex 204.7374159283976 206.0311460104644 121.0205198089224
endloop
endfacet
facet normal 0.9736162032021 -0.2165817425597 0.0718598472877
outer loop
vertex 203.7470610979906 201.4162767705510 120.5296906018879
vertex 204.7374159283976 206.0311460104644 121.0205198089224
vertex 203.7262910119589 202.7136999641086 124.7214650039995
endloop
endfacet
facet normal 0.9839091222852 -0.1674107611320 0.0624217601578
outer loop
vertex 204.7058149378385 204.6404768727309 117.7889467895710
vertex 205.4713067514942 208.8292321271143 116.9569985550579
vertex 204.7374159283976 206.0311460104644 121.0205198089224
endloop
endfacet
facet normal 0.9109408431698 -0.4069025518085 0.0679491985004
outer loop
vertex 195.0005489153817 181.0656006658427 130.8926816819226
vertex 198.1645605792448 187.1925757391652 125.1656728390624
vertex 197.7613539721074 187.4237749986973 131.9556416030772
endloop
endfacet
facet normal 0.9623918566277 -0.2581349367866 0.0846656288406
outer loop
vertex 202.7759762074051 198.9139401744234 123.9386736294262
vertex 203.7470610979906 201.4162767705510 120.5296906018879
vertex 203.7262910119589 202.7136999641086 124.7214650039995
endloop
endfacet
facet normal 0.9613096599047 -0.2594772065909 0.0924949568015
outer loop
vertex 202.7759762074051 198.9139401744234 123.9386736294262
vertex 203.7262910119589 202.7136999641086 124.7214650039995
vertex 202.4424706217851 199.0551983422396 127.8011049255300
endloop
endfacet
facet normal 0.9436067986767 -0.3177095056368 0.0930960768194
outer loop
vertex 201.4221292739762 195.4840043729598 125.9556862610818
vertex 202.7759762074051 198.9139401744234 123.9386736294262
vertex 202.4424706217851 199.0551983422396 127.8011049255300
endloop
endfacet
facet normal 0.9450115556543 -0.3151507903884 0.0873678373172
outer loop
vertex 200.9397979093358 195.2388297650735 130.2884218924668
vertex 201.4221292739762 195.4840043729598 125.9556862610818
vertex 202.4424706217851 199.0551983422396 127.8011049255300
endloop
endfacet
facet normal 0.9315901958599 -0.3537452800100 0.0836898073148
outer loop
vertex 200.9397979093358 195.2388297650735 130.2884218924668
vertex 199.7015697033838 191.5410929669620 128.4418925825378
vertex 201.4221292739762 195.4840043729598 125.9556862610818
endloop
endfacet
facet normal 0.9235568567954 -0.3774388714972 0.0676951294344
outer loop
vertex 198.1645605792448 187.1925757391652 125.1656728390624
vertex 199.7015697033838 191.5410929669620 128.4418925825378
vertex 197.7613539721074 187.4237749986973 131.9556416030772
endloop
endfacet
endsolid WRAP
