solid WRAP
facet normal -0.9818523322798 -0.1004093670812 -0.1608849172515
outer loop
vertex 77.3278655518679 206.7753756928282 84.3300581512829
vertex 76.3237579430624 210.3838045108587 88.2059052750680
vertex 76.8123780622047 211.4689231930136 84.5467127682812
endloop
endfacet
facet normal -0.9884901482008 -0.0435023414402 -0.1448957321638
outer loop
vertex 76.8123780622047 211.4689231930136 84.5467127682812
vertex 76.3237579430624 210.3838045108587 88.2059052750680
vertex 76.2635418043925 214.2581340937659 87.4535066577898
endloop
endfacet
facet normal -0.9839749210830 0.0523428913658 -0.1704510968084
outer loop
vertex 76.2635418043925 214.2581340937659 87.4535066577898
vertex 76.7809461345565 217.6499916508588 85.5082375482890
vertex 77.2744561145362 215.1908034874049 81.9041395166846
endloop
endfacet
facet normal -0.9836206536735 -0.0057956127289 -0.1801577656947
outer loop
vertex 76.8123780622047 211.4689231930136 84.5467127682812
vertex 76.2635418043925 214.2581340937659 87.4535066577898
vertex 77.2744561145362 215.1908034874049 81.9041395166846
endloop
endfacet
facet normal -0.9878542029162 0.0126883146685 -0.1548647166129
outer loop
vertex 76.8123780622047 211.4689231930136 84.5467127682812
vertex 77.2744561145362 215.1908034874049 81.9041395166846
vertex 77.3830168786072 210.9163038297315 80.8614332934845
endloop
endfacet
facet normal -0.9807381342965 -0.1704537240233 -0.0953846942821
outer loop
vertex 76.3237579430624 210.3838045108587 88.2059052750680
vertex 77.3278655518679 206.7753756928282 84.3300581512829
vertex 77.5072371055802 203.1529830607212 88.9590376160387
endloop
endfacet
facet normal -0.9852785573760 -0.1018749586759 -0.1372867698285
outer loop
vertex 77.3278655518679 206.7753756928282 84.3300581512829
vertex 76.8123780622047 211.4689231930136 84.5467127682812
vertex 77.3830168786072 210.9163038297315 80.8614332934845
endloop
endfacet
facet normal -0.9667109168181 -0.2183426175846 -0.1334035406238
outer loop
vertex 77.5072371055802 203.1529830607212 88.9590376160387
vertex 77.3278655518679 206.7753756928282 84.3300581512829
vertex 78.4603588831305 201.0080482193231 85.5628568439462
endloop
endfacet
facet normal -0.9026408778465 0.2878270944519 -0.3199922019987
outer loop
vertex 77.2744561145362 215.1908034874049 81.9041395166846
vertex 76.7809461345565 217.6499916508588 85.5082375482890
vertex 78.1862919348941 219.1688297398486 82.9101748217442
endloop
endfacet
facet normal -0.9959505072181 0.0890537680510 0.0123293782495
outer loop
vertex 75.7801700611770 219.3777066083125 103.1923687941851
vertex 75.4635931744313 215.9458082570040 102.4079471485660
vertex 75.5722211138454 216.0107153464442 110.7139483432071
endloop
endfacet
facet normal -0.9973277017698 0.0665622057091 -0.0301152461988
outer loop
vertex 76.2635418043925 214.2581340937659 87.4535066577898
vertex 75.9816234019100 211.7038217645142 91.1441412617948
vertex 76.3338250359231 217.0350935935312 91.2637074755475
endloop
endfacet
facet normal -0.9830743219103 0.1621966689536 -0.0851887209721
outer loop
vertex 76.8170910243818 222.2533359802544 96.7014523771643
vertex 75.7801700611770 219.3777066083125 103.1923687941851
vertex 76.6323064111767 224.2296399686073 102.5966803644585
endloop
endfacet
facet normal -0.9914445897908 0.1271493222935 0.0295072061504
outer loop
vertex 75.7801700611770 219.3777066083125 103.1923687941851
vertex 75.5722211138454 216.0107153464442 110.7139483432071
vertex 76.3662632332960 222.9150045461978 107.6425993036094
endloop
endfacet
facet normal -0.9961410009329 0.0760260793089 -0.0438536375376
outer loop
vertex 75.8775146108967 217.0206791092174 97.5783663773747
vertex 75.6860710590974 213.1474024548170 95.2121939769145
vertex 75.4644928302280 212.7438128375355 99.5456958962534
endloop
endfacet
facet normal -0.9930534798795 0.0677617880180 -0.0961931711911
outer loop
vertex 76.3338250359231 217.0350935935312 91.2637074755475
vertex 75.9816234019100 211.7038217645142 91.1441412617948
vertex 75.6860710590974 213.1474024548170 95.2121939769145
endloop
endfacet
facet normal -0.9924992381646 0.1056230334834 -0.0615551544580
outer loop
vertex 75.4635931744313 215.9458082570040 102.4079471485660
vertex 75.7801700611770 219.3777066083125 103.1923687941851
vertex 75.8775146108967 217.0206791092174 97.5783663773747
endloop
endfacet
facet normal -0.9850484068955 0.1721318394048 -0.0070898473721
outer loop
vertex 76.6323064111767 224.2296399686073 102.5966803644585
vertex 75.7801700611770 219.3777066083125 103.1923687941851
vertex 76.3662632332960 222.9150045461978 107.6425993036094
endloop
endfacet
facet normal -0.9913581713726 0.1140435774154 -0.0648308453064
outer loop
vertex 76.7809461345565 217.6499916508588 85.5082375482890
vertex 76.2635418043925 214.2581340937659 87.4535066577898
vertex 76.3338250359231 217.0350935935312 91.2637074755475
endloop
endfacet
facet normal -0.9972893015682 -0.0486697822144 -0.0551842484489
outer loop
vertex 75.6860710590974 213.1474024548170 95.2121939769145
vertex 75.9816234019100 211.7038217645142 91.1441412617948
vertex 75.7566917588116 209.0008583155488 97.5929844306950
endloop
endfacet
facet normal -0.9837890470063 0.1647985914792 -0.0707144627139
outer loop
vertex 76.8170910243818 222.2533359802544 96.7014523771643
vertex 76.3338250359231 217.0350935935312 91.2637074755475
vertex 75.8775146108967 217.0206791092174 97.5783663773747
endloop
endfacet
facet normal -0.9931107153195 0.0927974022071 -0.0715524231683
outer loop
vertex 75.8775146108967 217.0206791092174 97.5783663773747
vertex 76.3338250359231 217.0350935935312 91.2637074755475
vertex 75.6860710590974 213.1474024548170 95.2121939769145
endloop
endfacet
facet normal -0.9361756247226 0.3116509522957 -0.1626311274279
outer loop
vertex 78.3502627856860 222.6492178833698 86.0546127794656
vertex 76.7809461345565 217.6499916508588 85.5082375482890
vertex 77.3533732268981 221.6418383547712 89.8626962986624
endloop
endfacet
facet normal -0.9782926484953 0.1998938346166 -0.0546438357211
outer loop
vertex 76.7809461345565 217.6499916508588 85.5082375482890
vertex 76.3338250359231 217.0350935935312 91.2637074755475
vertex 77.3533732268981 221.6418383547712 89.8626962986624
endloop
endfacet
facet normal -0.9830679871959 0.1622473866272 -0.0851652398764
outer loop
vertex 75.7801700611770 219.3777066083125 103.1923687941851
vertex 76.8170910243818 222.2533359802544 96.7014523771643
vertex 75.8775146108967 217.0206791092174 97.5783663773747
endloop
endfacet
facet normal -0.9954459717158 0.0633750265629 -0.0712104163941
outer loop
vertex 75.4635931744313 215.9458082570040 102.4079471485660
vertex 75.8775146108967 217.0206791092174 97.5783663773747
vertex 75.4644928302280 212.7438128375355 99.5456958962534
endloop
endfacet
facet normal -0.9908227379896 -0.1204995772218 -0.0612384991020
outer loop
vertex 76.3237579430624 210.3838045108587 88.2059052750680
vertex 76.6946790789780 205.6875620857726 91.4453401762648
vertex 75.9816234019100 211.7038217645142 91.1441412617948
endloop
endfacet
facet normal -0.9745747775846 -0.1741890993051 -0.1409331777092
outer loop
vertex 76.3237579430624 210.3838045108587 88.2059052750680
vertex 77.5072371055802 203.1529830607212 88.9590376160387
vertex 76.6946790789780 205.6875620857726 91.4453401762648
endloop
endfacet
facet normal -0.9972593203810 -0.0488753655201 -0.0555431954291
outer loop
vertex 75.4644928302280 212.7438128375355 99.5456958962534
vertex 75.6860710590974 213.1474024548170 95.2121939769145
vertex 75.7566917588116 209.0008583155488 97.5929844306950
endloop
endfacet
facet normal -0.9943643750477 -0.0348959641614 -0.1001087474757
outer loop
vertex 76.2635418043925 214.2581340937659 87.4535066577898
vertex 76.3237579430624 210.3838045108587 88.2059052750680
vertex 75.9816234019100 211.7038217645142 91.1441412617948
endloop
endfacet
facet normal -0.9889119098186 -0.1214832811743 -0.0854110473776
outer loop
vertex 75.9816234019100 211.7038217645142 91.1441412617948
vertex 76.6946790789780 205.6875620857726 91.4453401762648
vertex 75.7566917588116 209.0008583155488 97.5929844306950
endloop
endfacet
facet normal -0.8995523301095 0.3154079631554 -0.3021976541483
outer loop
vertex 78.1862919348941 219.1688297398486 82.9101748217442
vertex 76.7809461345565 217.6499916508588 85.5082375482890
vertex 78.3502627856860 222.6492178833698 86.0546127794656
endloop
endfacet
facet normal -0.9777189031626 0.1879567593170 -0.0934772861479
outer loop
vertex 76.3338250359231 217.0350935935312 91.2637074755475
vertex 76.8170910243818 222.2533359802544 96.7014523771643
vertex 77.3533732268981 221.6418383547712 89.8626962986624
endloop
endfacet
endsolid WRAP
