solid WRAP
facet normal 0.1968631593324 -0.7940703227805 0.5750627956814
outer loop
vertex 96.4355300000000 184.6325000000000 77.9306500000000
vertex 96.7361900000000 183.7621000000000 76.6258400000000
vertex 98.0474500000000 184.4731000000000 77.1587300000000
endloop
endfacet
facet normal 0.4054759979565 -0.8932637578551 0.1940852235069
outer loop
vertex 98.0474500000000 184.4731000000000 77.1587300000000
vertex 96.7361900000000 183.7621000000000 76.6258400000000
vertex 97.5929900000000 183.8943000000000 75.4442850000000
endloop
endfacet
facet normal 0.3877704227763 -0.7738678554718 0.5007620607508
outer loop
vertex 95.7677600000000 181.2612000000000 70.2197450000000
vertex 97.2550900000000 182.3057000000000 70.6821650000000
vertex 95.7561900000000 182.3934000000000 71.9783840000000
endloop
endfacet
facet normal 0.6113166420920 -0.5091263695149 0.6058731739944
outer loop
vertex 93.6146500000000 179.7552000000000 70.8126860000000
vertex 94.6167200000000 179.9471000000000 69.9628700000000
vertex 94.3105600000000 180.9594000000000 71.1224350000000
endloop
endfacet
facet normal 0.6039448633321 -0.5354271504129 0.5903967891642
outer loop
vertex 94.3105600000000 180.9594000000000 71.1224350000000
vertex 93.8045300000000 181.8927000000000 72.4864810000000
vertex 92.7938700000000 179.9167000000000 71.7283110000000
endloop
endfacet
facet normal 0.5705401652791 -0.5319055593931 0.6257478691055
outer loop
vertex 92.7938700000000 179.9167000000000 71.7283110000000
vertex 93.8045300000000 181.8927000000000 72.4864810000000
vertex 92.3089200000000 181.2886000000000 73.3366340000000
endloop
endfacet
facet normal 0.2979331868497 -0.8653175651148 0.4030649174481
outer loop
vertex 95.7561900000000 182.3934000000000 71.9783840000000
vertex 97.2550900000000 182.3057000000000 70.6821650000000
vertex 97.7549900000000 183.2092000000000 72.2523280000000
endloop
endfacet
facet normal 0.5137130408792 -0.5745255946531 0.6371964004286
outer loop
vertex 94.6167200000000 179.9471000000000 69.9628700000000
vertex 95.7677600000000 181.2612000000000 70.2197450000000
vertex 94.3105600000000 180.9594000000000 71.1224350000000
endloop
endfacet
facet normal 0.5964508263724 -0.5051375262214 0.6237647724284
outer loop
vertex 93.6146500000000 179.7552000000000 70.8126860000000
vertex 94.3105600000000 180.9594000000000 71.1224350000000
vertex 92.7938700000000 179.9167000000000 71.7283110000000
endloop
endfacet
facet normal 0.4547655304621 -0.7474791908541 0.4842139728918
outer loop
vertex 95.7677600000000 181.2612000000000 70.2197450000000
vertex 95.7561900000000 182.3934000000000 71.9783840000000
vertex 94.3105600000000 180.9594000000000 71.1224350000000
endloop
endfacet
facet normal 0.3423036469078 -0.7114287785058 0.6137567159936
outer loop
vertex 94.3105600000000 180.9594000000000 71.1224350000000
vertex 95.7561900000000 182.3934000000000 71.9783840000000
vertex 93.8045300000000 181.8927000000000 72.4864810000000
endloop
endfacet
facet normal 0.6396923636479 -0.4787912351660 0.6012924687860
outer loop
vertex 92.7938700000000 179.9167000000000 71.7283110000000
vertex 92.3089200000000 181.2886000000000 73.3366340000000
vertex 92.1568000000000 180.0295000000000 72.4958850000000
endloop
endfacet
facet normal 0.7188314804629 -0.3390458963363 0.6069012958242
outer loop
vertex 92.1568000000000 180.0295000000000 72.4958850000000
vertex 91.9149600000000 180.6538000000000 73.1310930000000
vertex 91.4614300000000 179.5910000000000 73.0745330000000
endloop
endfacet
facet normal 0.5367197097448 -0.7276418973550 0.4271641632734
outer loop
vertex 92.3089200000000 181.2886000000000 73.3366340000000
vertex 93.8045300000000 181.8927000000000 72.4864810000000
vertex 93.5330900000000 182.5323000000001 73.9170480000000
endloop
endfacet
facet normal 0.4821331782970 -0.5260544828784 0.7005813867273
outer loop
vertex 92.1568000000000 180.0295000000000 72.4958850000000
vertex 92.3089200000000 181.2886000000000 73.3366340000000
vertex 91.9149600000000 180.6538000000000 73.1310930000000
endloop
endfacet
facet normal 0.6491158486037 -0.5682261392886 0.5057347819961
outer loop
vertex 92.3089200000000 181.2886000000000 73.3366340000000
vertex 91.4046600000000 181.5825000000000 74.8274770000000
vertex 91.0160300000000 180.2515000000000 73.8308220000000
endloop
endfacet
facet normal 0.5407727375746 -0.5996309888047 0.5899216249309
outer loop
vertex 91.0160300000000 180.2515000000000 73.8308220000000
vertex 91.4046600000000 181.5825000000000 74.8274770000000
vertex 90.6458700000000 180.8850000000000 74.8140690000000
endloop
endfacet
facet normal 0.3357019067003 -0.9367130635263 0.0993622989720
outer loop
vertex 93.5367800000000 182.9473000000000 76.8810300000000
vertex 92.7300700000000 182.4667000000000 75.0758160000000
vertex 94.3106100000000 183.0562000000000 75.2932230000000
endloop
endfacet
facet normal 0.3213893416272 -0.9408970360615 0.1068721601689
outer loop
vertex 92.7300700000000 182.4667000000000 75.0758160000000
vertex 93.5367800000000 182.9473000000000 76.8810300000000
vertex 91.8032000000000 182.3100000000000 76.4835500000000
endloop
endfacet
facet normal 0.3243642681354 -0.8561520659375 0.4022330935515
outer loop
vertex 93.8045300000000 181.8927000000000 72.4864810000000
vertex 95.7561900000000 182.3934000000000 71.9783840000000
vertex 94.9756300000000 182.9287000000000 73.7472190000000
endloop
endfacet
facet normal 0.2841590506249 -0.8756927514529 0.3904047118066
outer loop
vertex 94.9756300000000 182.9287000000000 73.7472190000000
vertex 95.7561900000000 182.3934000000000 71.9783840000000
vertex 96.7426200000000 183.4932000000000 73.7272970000000
endloop
endfacet
facet normal 0.3050478761899 -0.8742336451389 0.3777053440702
outer loop
vertex 95.7561900000000 182.3934000000000 71.9783840000000
vertex 97.7549900000000 183.2092000000000 72.2523280000000
vertex 96.7426200000000 183.4932000000000 73.7272970000000
endloop
endfacet
facet normal 0.6488036769168 -0.5669825123309 0.5075279495064
outer loop
vertex 91.9149600000000 180.6538000000000 73.1310930000000
vertex 92.3089200000000 181.2886000000000 73.3366340000000
vertex 91.0160300000000 180.2515000000000 73.8308220000000
endloop
endfacet
facet normal 0.5765177537467 -0.7345100367392 0.3579417348455
outer loop
vertex 92.3089200000000 181.2886000000000 73.3366340000000
vertex 93.5330900000000 182.5323000000001 73.9170480000000
vertex 92.7300700000000 182.4667000000000 75.0758160000000
endloop
endfacet
facet normal 0.1737621752193 -0.9380194803128 0.2998769097761
outer loop
vertex 96.7426200000000 183.4932000000000 73.7272970000000
vertex 97.7549900000000 183.2092000000000 72.2523280000000
vertex 98.7405700000000 183.9279000000000 73.9293430000000
endloop
endfacet
facet normal 0.2813556273554 -0.9388582417872 0.1984545610049
outer loop
vertex 94.3106100000000 183.0562000000000 75.2932230000000
vertex 93.5330900000000 182.5323000000001 73.9170480000000
vertex 94.9756300000000 182.9287000000000 73.7472190000000
endloop
endfacet
facet normal 0.5067952192758 -0.8275293951768 0.2415651171784
outer loop
vertex 91.4046600000000 181.5825000000000 74.8274770000000
vertex 92.7300700000000 182.4667000000000 75.0758160000000
vertex 91.8032000000000 182.3100000000000 76.4835500000000
endloop
endfacet
facet normal 0.3234861565591 -0.9305626013345 0.1714932987383
outer loop
vertex 92.7300700000000 182.4667000000000 75.0758160000000
vertex 93.5330900000000 182.5323000000001 73.9170480000000
vertex 94.3106100000000 183.0562000000000 75.2932230000000
endloop
endfacet
facet normal 0.4456628709911 -0.7875734787334 0.4255732851294
outer loop
vertex 91.4046600000000 181.5825000000000 74.8274770000000
vertex 92.3089200000000 181.2886000000000 73.3366340000000
vertex 92.7300700000000 182.4667000000000 75.0758160000000
endloop
endfacet
facet normal 0.3019734782823 -0.9395327140150 0.1615249135885
outer loop
vertex 94.9756300000000 182.9287000000000 73.7472190000000
vertex 96.7426200000000 183.4932000000000 73.7272970000000
vertex 95.9268300000000 183.4988000000000 75.2850030000000
endloop
endfacet
facet normal 0.2681369579112 -0.9460072413849 0.1821342116392
outer loop
vertex 97.5929900000000 183.8943000000000 75.4442850000000
vertex 98.7405700000000 183.9279000000000 73.9293430000000
vertex 99.2845600000000 184.4546000000000 75.8641700000000
endloop
endfacet
facet normal 0.1983836559983 -0.9716343137256 0.1287271743798
outer loop
vertex 97.5929900000000 183.8943000000000 75.4442850000000
vertex 96.7426200000000 183.4932000000000 73.7272970000000
vertex 98.7405700000000 183.9279000000000 73.9293430000000
endloop
endfacet
facet normal 0.2602114910756 -0.9466723569993 0.1900037589246
outer loop
vertex 94.3106100000000 183.0562000000000 75.2932230000000
vertex 94.9756300000000 182.9287000000000 73.7472190000000
vertex 95.9268300000000 183.4988000000000 75.2850030000000
endloop
endfacet
facet normal 0.5963546625410 -0.6576060631267 0.4603426791039
outer loop
vertex 90.6458700000000 180.8850000000000 74.8140690000000
vertex 91.4046600000000 181.5825000000000 74.8274770000000
vertex 90.4952400000000 181.4893000000000 75.8724550000000
endloop
endfacet
facet normal 0.4122137348247 -0.8665231011629 0.2814561279720
outer loop
vertex 91.4046600000000 181.5825000000000 74.8274770000000
vertex 91.8032000000000 182.3100000000000 76.4835500000000
vertex 90.4952400000000 181.4893000000000 75.8724550000000
endloop
endfacet
facet normal 0.2478826129738 -0.9359090606335 0.2502567489786
outer loop
vertex 98.0474500000000 184.4731000000000 77.1587300000000
vertex 97.5929900000000 183.8943000000000 75.4442850000000
vertex 99.2845600000000 184.4546000000000 75.8641700000000
endloop
endfacet
facet normal 0.2640532880905 -0.9633539788926 0.0471696131044
outer loop
vertex 94.3106100000000 183.0562000000000 75.2932230000000
vertex 95.9268300000000 183.4988000000000 75.2850030000000
vertex 95.3182900000000 183.4112000000000 76.9025100000000
endloop
endfacet
facet normal 0.2475070270424 -0.9680312460698 0.0406912545545
outer loop
vertex 95.9268300000000 183.4988000000000 75.2850030000000
vertex 96.7361900000000 183.7621000000000 76.6258400000000
vertex 95.3182900000000 183.4112000000000 76.9025100000000
endloop
endfacet
facet normal 0.2256455290596 -0.9726671101696 0.0547977007705
outer loop
vertex 97.5929900000000 183.8943000000000 75.4442850000000
vertex 96.7361900000000 183.7621000000000 76.6258400000000
vertex 95.9268300000000 183.4988000000000 75.2850030000000
endloop
endfacet
facet normal 0.2186492378913 -0.9686436324094 0.1179916275092
outer loop
vertex 96.7426200000000 183.4932000000000 73.7272970000000
vertex 97.5929900000000 183.8943000000000 75.4442850000000
vertex 95.9268300000000 183.4988000000000 75.2850030000000
endloop
endfacet
facet normal 0.2509651634749 -0.9663731262069 0.0560309527593
outer loop
vertex 93.5367800000000 182.9473000000000 76.8810300000000
vertex 94.3106100000000 183.0562000000000 75.2932230000000
vertex 95.3182900000000 183.4112000000000 76.9025100000000
endloop
endfacet
facet normal 0.1800738280117 -0.7224459116517 0.6675667166680
outer loop
vertex 93.5367800000000 182.9473000000000 76.8810300000000
vertex 95.3182900000000 183.4112000000000 76.9025100000000
vertex 94.3441200000000 184.5757000000000 78.4255200000000
endloop
endfacet
facet normal 0.1774515507018 -0.7237334807843 0.6668738980837
outer loop
vertex 95.3182900000000 183.4112000000000 76.9025100000000
vertex 96.4355300000000 184.6325000000000 77.9306500000000
vertex 94.3441200000000 184.5757000000000 78.4255200000000
endloop
endfacet
facet normal 0.2915887485262 -0.8250745673733 0.4839710321979
outer loop
vertex 90.4952400000000 181.4893000000000 75.8724550000000
vertex 91.8032000000000 182.3100000000000 76.4835500000000
vertex 90.2044900000000 182.4724000000000 77.7236200000000
endloop
endfacet
facet normal 0.1869749277133 -0.8331897791953 0.5204182627956
outer loop
vertex 91.8032000000000 182.3100000000000 76.4835500000000
vertex 93.5367800000000 182.9473000000000 76.8810300000000
vertex 92.2165700000000 183.5045000000000 78.2474300000000
endloop
endfacet
facet normal 0.3172853114603 -0.7306751701746 0.6045195007789
outer loop
vertex 93.5367800000000 182.9473000000000 76.8810300000000
vertex 94.3441200000000 184.5757000000000 78.4255200000000
vertex 92.2165700000000 183.5045000000000 78.2474300000000
endloop
endfacet
facet normal 0.2946682191703 -0.8218830885550 0.4875231577661
outer loop
vertex 90.2044900000000 182.4724000000000 77.7236200000000
vertex 91.8032000000000 182.3100000000000 76.4835500000000
vertex 92.2165700000000 183.5045000000000 78.2474300000000
endloop
endfacet
facet normal 0.2858288855185 -0.8534484050470 0.4358069161062
outer loop
vertex 93.5330900000000 182.5323000000001 73.9170480000000
vertex 93.8045300000000 181.8927000000000 72.4864810000000
vertex 94.9756300000000 182.9287000000000 73.7472190000000
endloop
endfacet
facet normal 0.6669894493927 -0.3204221583734 0.6726475413039
outer loop
vertex 91.4614300000000 179.5910000000000 73.0745330000000
vertex 91.9149600000000 180.6538000000000 73.1310930000000
vertex 91.0160300000000 180.2515000000000 73.8308220000000
endloop
endfacet
facet normal 0.3005284198282 -0.7600219784975 0.5762371569729
outer loop
vertex 96.7361900000000 183.7621000000000 76.6258400000000
vertex 96.4355300000000 184.6325000000000 77.9306500000000
vertex 95.3182900000000 183.4112000000000 76.9025100000000
endloop
endfacet
endsolid WRAP
