solid WRAP
facet normal -0.9623299458228 -0.2429545246616 0.1220416909056
outer loop
vertex 95.3024600000000 151.3617100000000 59.5008600000000
vertex 95.8565200000000 149.2636900000000 59.6931310000000
vertex 95.7469600000000 150.4020300000000 61.0953730000000
endloop
endfacet
facet normal -0.9697506394824 -0.2436245727222 0.0151909443239
outer loop
vertex 95.1848000000000 156.2746700000000 65.6304627000000
vertex 95.6492800000000 154.3576100000000 64.5368410000000
vertex 95.6615800000000 154.4172300000000 66.2781962000000
endloop
endfacet
facet normal -0.9873854908768 -0.1190471986665 0.1043918430511
outer loop
vertex 95.6492800000000 154.3576100000000 64.5368410000000
vertex 95.7019300000000 152.8439000000000 63.3086120000000
vertex 95.9224800000000 152.7574800000000 65.2961218000000
endloop
endfacet
facet normal -0.9919162245910 -0.0989553522780 0.0794357705868
outer loop
vertex 95.7019300000000 152.8439000000000 63.3086120000000
vertex 95.6492800000000 154.3576100000000 64.5368410000000
vertex 95.5633200000000 154.2623600000000 63.3448010000000
endloop
endfacet
facet normal -0.9211246777812 -0.2217894568165 0.3199043057347
outer loop
vertex 94.6069700000000 154.4187600000000 60.5353110000000
vertex 95.2962300000000 152.5205000000000 61.2038870000000
vertex 95.2201900000000 154.3015700000000 62.2197540000000
endloop
endfacet
facet normal -0.9504822264766 -0.3104961694829 0.0132539008773
outer loop
vertex 93.2392500000000 156.7632600000000 54.6707400000000
vertex 93.8069700000000 155.0372300000000 54.9485500000000
vertex 93.3482400000000 156.5072900000000 56.4902310000000
endloop
endfacet
facet normal -0.9510328556322 -0.3089703798380 0.0085913846872
outer loop
vertex 93.8069700000000 155.0372300000000 54.9485500000000
vertex 93.4350900000000 156.1317900000000 53.1463400000000
vertex 93.9987300000000 154.3900800000000 52.9023000000000
endloop
endfacet
facet normal -0.9502422277689 -0.3114348461006 0.0069314644325
outer loop
vertex 93.8069700000000 155.0372300000000 54.9485500000000
vertex 93.2392500000000 156.7632600000000 54.6707400000000
vertex 93.4350900000000 156.1317900000000 53.1463400000000
endloop
endfacet
facet normal -0.9675812909633 -0.2524796855229 -0.0063603282965
outer loop
vertex 92.4605500000000 159.6027200000000 54.3719100000000
vertex 92.8798700000000 158.0213700000000 53.3550700000000
vertex 92.8323900000000 158.1523400000000 55.3791000000000
endloop
endfacet
facet normal -0.9750707691916 -0.2207701668881 -0.0223053464516
outer loop
vertex 92.4605500000000 159.6027200000000 54.3719100000000
vertex 92.1859400000000 160.9198200000000 53.3402200000000
vertex 92.5000500000000 159.5829800000000 52.8405600000000
endloop
endfacet
facet normal -0.9733972998649 -0.2165454349892 0.0748716982647
outer loop
vertex 96.3308400000000 147.0556000000000 58.1843430000000
vertex 95.9891100000000 147.9976900000000 56.4662870000000
vertex 96.3268700000000 146.5213400000000 56.5875320000000
endloop
endfacet
facet normal -0.9621358106622 -0.2690188616384 0.0438581112703
outer loop
vertex 95.9891100000000 147.9976900000000 56.4662870000000
vertex 96.3308400000000 147.0556000000000 58.1843430000000
vertex 95.8666900000000 148.7002300000000 58.0899740000000
endloop
endfacet
facet normal -0.9444634826012 -0.3278180047245 0.0228929205484
outer loop
vertex 95.0004500000000 151.5456800000000 53.7935100000000
vertex 94.4642000000000 153.1321700000000 54.3880800000000
vertex 94.5568000000000 152.7344900000000 52.5137300000000
endloop
endfacet
facet normal -0.9458073804648 -0.3239812488419 0.0220124841190
outer loop
vertex 94.4642000000000 153.1321700000000 54.3880800000000
vertex 93.9987300000000 154.3900800000000 52.9023000000000
vertex 94.5568000000000 152.7344900000000 52.5137300000000
endloop
endfacet
facet normal -0.9761491647597 -0.2164707472917 -0.0165294799051
outer loop
vertex 92.1859400000000 160.9198200000000 53.3402200000000
vertex 92.4605500000000 159.6027200000000 54.3719100000000
vertex 92.0910500000000 161.2125400000000 55.1104800000000
endloop
endfacet
facet normal -0.9010785038835 -0.3067625861626 0.3065195680050
outer loop
vertex 94.3941600000000 156.1686600000000 61.6600360000000
vertex 95.2201900000000 154.3015700000000 62.2197540000000
vertex 95.2383100000000 155.4890400000000 63.4614330000000
endloop
endfacet
facet normal -0.9592910679009 -0.2823916547886 -0.0039497279953
outer loop
vertex 93.6531700000000 155.4955500000000 51.3980600000000
vertex 93.1709500000000 157.1312000000000 51.5741300000000
vertex 93.3831900000000 156.4298500000000 50.1703500000000
endloop
endfacet
facet normal -0.9595448994050 -0.2810159273660 -0.0174251138461
outer loop
vertex 93.6531700000000 155.4955500000000 51.3980600000000
vertex 93.4350900000000 156.1317900000000 53.1463400000000
vertex 93.1709500000000 157.1312000000000 51.5741300000000
endloop
endfacet
facet normal -0.9598050785893 -0.2801618744122 -0.0168385046831
outer loop
vertex 93.4350900000000 156.1317900000000 53.1463400000000
vertex 92.8798700000000 158.0213700000000 53.3550700000000
vertex 93.1709500000000 157.1312000000000 51.5741300000000
endloop
endfacet
facet normal -0.9282728205768 -0.2881365445197 -0.2351316701139
outer loop
vertex 94.2127300000000 157.9274400000000 71.1015480000000
vertex 94.3464500000000 156.9407000000000 71.7828140000000
vertex 93.9415400000000 157.9138700000000 72.1888040000000
endloop
endfacet
facet normal -0.9555258845382 -0.2949046821624 0.0012298032779
outer loop
vertex 95.0004500000000 151.5456800000000 53.7935100000000
vertex 95.3704200000000 150.3508700000000 54.7374400000000
vertex 94.9951300000000 151.5716300000000 55.8827700000000
endloop
endfacet
facet normal -0.9060687589807 -0.2765349063658 0.3202621575528
outer loop
vertex 94.3941600000000 156.1686600000000 61.6600360000000
vertex 95.2383100000000 155.4890400000000 63.4614330000000
vertex 94.6928600000000 157.4014300000000 63.5695550000000
endloop
endfacet
facet normal -0.9516844370754 -0.3069981846902 -0.0069890503867
outer loop
vertex 93.9987300000000 154.3900800000000 52.9023000000000
vertex 93.4350900000000 156.1317900000000 53.1463400000000
vertex 93.6531700000000 155.4955500000000 51.3980600000000
endloop
endfacet
facet normal -0.9526626544062 -0.2909379499025 0.0882551766541
outer loop
vertex 94.0561800000000 159.4952300000000 63.5992940000000
vertex 94.6928600000000 157.4014300000000 63.5695550000000
vertex 94.5448900000000 158.4401500000000 65.3965025000000
endloop
endfacet
facet normal -0.9657099376675 -0.2577848649378 0.0308428224921
outer loop
vertex 95.8666900000000 148.7002300000000 58.0899740000000
vertex 95.3850000000000 150.4796000000000 57.8799360000000
vertex 95.5515800000000 149.6668500000000 56.3026910000000
endloop
endfacet
facet normal -0.9852015507520 -0.1626443331600 0.0540807293485
outer loop
vertex 96.6885400000000 143.9997600000000 55.0742700000000
vertex 96.4721500000000 145.3631600000000 55.2325800000000
vertex 96.5762000000000 144.1160300000000 53.3774200000000
endloop
endfacet
facet normal -0.9460387597503 -0.3200834098965 0.0505695141280
outer loop
vertex 94.9951300000000 151.5716300000000 55.8827700000000
vertex 94.8372300000000 152.3403200000000 57.7943050000000
vertex 94.3685600000000 153.4851900000000 56.2731100000000
endloop
endfacet
facet normal -0.9753702619683 -0.2080531315387 0.0732580816344
outer loop
vertex 96.3268700000000 146.5213400000000 56.5875320000000
vertex 96.4721500000000 145.3631600000000 55.2325800000000
vertex 96.5769500000000 145.4446900000000 56.8594500000000
endloop
endfacet
facet normal -0.9777969254529 -0.2078779469343 0.0264562233360
outer loop
vertex 95.9891100000000 147.9976900000000 56.4662870000000
vertex 95.7484900000000 148.9053200000000 54.7048400000000
vertex 96.1285600000000 147.1112900000000 54.6554000000000
endloop
endfacet
facet normal -0.9614262783977 -0.2723149378153 0.0387825456755
outer loop
vertex 95.3850000000000 150.4796000000000 57.8799360000000
vertex 94.9951300000000 151.5716300000000 55.8827700000000
vertex 95.5515800000000 149.6668500000000 56.3026910000000
endloop
endfacet
facet normal -0.9590481868382 -0.2829600875167 -0.0126555993483
outer loop
vertex 94.9951300000000 151.5716300000000 55.8827700000000
vertex 95.3704200000000 150.3508700000000 54.7374400000000
vertex 95.5515800000000 149.6668500000000 56.3026910000000
endloop
endfacet
facet normal -0.9667663575261 -0.2537535582961 -0.0311759780567
outer loop
vertex 93.1709500000000 157.1312000000000 51.5741300000000
vertex 92.8798700000000 158.0213700000000 53.3550700000000
vertex 92.7229900000000 158.8493500000000 51.4806600000000
endloop
endfacet
facet normal -0.9582370801540 -0.2756369480365 0.0761969231343
outer loop
vertex 95.6492800000000 154.3576100000000 64.5368410000000
vertex 95.1848000000000 156.2746700000000 65.6304627000000
vertex 95.2383100000000 155.4890400000000 63.4614330000000
endloop
endfacet
facet normal -0.9673562227818 -0.2534156414467 0.0015655399677
outer loop
vertex 95.9891100000000 147.9976900000000 56.4662870000000
vertex 95.5515800000000 149.6668500000000 56.3026910000000
vertex 95.7484900000000 148.9053200000000 54.7048400000000
endloop
endfacet
facet normal -0.9471656648023 -0.3207409114110 0.0015719945408
outer loop
vertex 94.4642000000000 153.1321700000000 54.3880800000000
vertex 95.0004500000000 151.5456800000000 53.7935100000000
vertex 94.9951300000000 151.5716300000000 55.8827700000000
endloop
endfacet
facet normal -0.9858336094589 -0.1601421876594 -0.0498655611910
outer loop
vertex 92.5478300000000 159.9512500000000 49.5866600000000
vertex 92.3458500000000 160.5525400000000 51.6487400000000
vertex 92.1844700000000 161.9205500000000 50.4458600000000
endloop
endfacet
facet normal -0.9437415024616 -0.3302958743830 0.0160191103701
outer loop
vertex 93.8069700000000 155.0372300000000 54.9485500000000
vertex 93.9987300000000 154.3900800000000 52.9023000000000
vertex 94.4642000000000 153.1321700000000 54.3880800000000
endloop
endfacet
facet normal -0.9392003582381 -0.3354383884587 0.0733742095949
outer loop
vertex 93.9043100000000 154.8853300000000 56.7315400000000
vertex 94.3685600000000 153.4851900000000 56.2731100000000
vertex 94.3155200000000 153.9854800000000 57.8813220000000
endloop
endfacet
facet normal -0.9548073625545 -0.2972187349787 -0.0019809062278
outer loop
vertex 95.3704200000000 150.3508700000000 54.7374400000000
vertex 95.0004500000000 151.5456800000000 53.7935100000000
vertex 95.4775700000000 150.0183000000000 52.9899700000000
endloop
endfacet
facet normal -0.9885390683746 -0.1183848468762 -0.0936778433102
outer loop
vertex 92.0286700000000 163.7749800000000 49.5955000000000
vertex 91.9371300000000 163.2256200000000 51.2557300000000
vertex 91.7500300000000 164.6893100000000 51.3803800000000
endloop
endfacet
facet normal -0.9871704268483 -0.1271960429644 -0.0965179517516
outer loop
vertex 92.0286700000000 163.7749800000000 49.5955000000000
vertex 92.1844700000000 161.9205500000000 50.4458600000000
vertex 91.9371300000000 163.2256200000000 51.2557300000000
endloop
endfacet
facet normal -0.9655515744855 -0.2597050576075 -0.0162308367520
outer loop
vertex 93.3831900000000 156.4298500000000 50.1703500000000
vertex 93.1709500000000 157.1312000000000 51.5741300000000
vertex 92.9959100000000 157.8880600000000 49.8767300000000
endloop
endfacet
facet normal -0.9859896566449 -0.1510607360916 -0.0707463850713
outer loop
vertex 92.3308100000000 161.9245800000000 48.3977200000000
vertex 92.5478300000000 159.9512500000000 49.5866600000000
vertex 92.1844700000000 161.9205500000000 50.4458600000000
endloop
endfacet
facet normal -0.9755255075133 -0.2169219931675 -0.0359837890049
outer loop
vertex 92.5478300000000 159.9512500000000 49.5866600000000
vertex 92.9959100000000 157.8880600000000 49.8767300000000
vertex 92.7229900000000 158.8493500000000 51.4806600000000
endloop
endfacet
facet normal -0.9673969131045 -0.2529302280590 -0.0130196870148
outer loop
vertex 92.9959100000000 157.8880600000000 49.8767300000000
vertex 93.1709500000000 157.1312000000000 51.5741300000000
vertex 92.7229900000000 158.8493500000000 51.4806600000000
endloop
endfacet
facet normal -0.9764942240589 -0.2129144807358 -0.0335626916772
outer loop
vertex 92.5478300000000 159.9512500000000 49.5866600000000
vertex 92.7229900000000 158.8493500000000 51.4806600000000
vertex 92.3458500000000 160.5525400000000 51.6487400000000
endloop
endfacet
facet normal -0.8987307222239 -0.2597924028295 0.3532576911589
outer loop
vertex 93.7985600000000 158.2742800000000 61.9371090000000
vertex 93.3650600000000 159.8298300000000 61.9782130000000
vertex 92.9773900000000 159.2687700000000 60.5793190000000
endloop
endfacet
facet normal -0.9010438969001 -0.3066971667208 0.3066867192829
outer loop
vertex 94.6069700000000 154.4187600000000 60.5353110000000
vertex 95.2201900000000 154.3015700000000 62.2197540000000
vertex 94.3941600000000 156.1686600000000 61.6600360000000
endloop
endfacet
facet normal -0.9465938994849 -0.3221609387686 0.0131270327878
outer loop
vertex 94.5568000000000 152.7344900000000 52.5137300000000
vertex 93.9987300000000 154.3900800000000 52.9023000000000
vertex 94.1629900000000 153.8296400000000 50.9929300000000
endloop
endfacet
facet normal -0.9477768366280 -0.3165477563365 0.0389433679818
outer loop
vertex 94.7059300000000 152.1027800000000 50.7659400000000
vertex 95.2454300000000 150.5231900000000 51.0563600000000
vertex 95.0045500000000 151.3880700000000 52.2240900000000
endloop
endfacet
facet normal -0.9881471150176 -0.1179448390934 -0.0982562670456
outer loop
vertex 91.7500300000000 164.6893100000000 51.3803800000000
vertex 91.9371300000000 163.2256200000000 51.2557300000000
vertex 91.7471000000000 163.6375400000000 52.6723700000000
endloop
endfacet
facet normal -0.9871139654174 -0.1447558238060 -0.0682038910342
outer loop
vertex 91.9371300000000 163.2256200000000 51.2557300000000
vertex 92.1844700000000 161.9205500000000 50.4458600000000
vertex 92.0334900000000 162.1217900000000 52.2038800000000
endloop
endfacet
facet normal -0.9828393173108 -0.1727711054211 -0.0646298807025
outer loop
vertex 92.1844700000000 161.9205500000000 50.4458600000000
vertex 92.3458500000000 160.5525400000000 51.6487400000000
vertex 92.0334900000000 162.1217900000000 52.2038800000000
endloop
endfacet
facet normal -0.9894938847370 -0.1110134909935 -0.0926167203341
outer loop
vertex 91.7500300000000 164.6893100000000 51.3803800000000
vertex 91.7471000000000 163.6375400000000 52.6723700000000
vertex 91.5261400000000 165.2594800000000 53.0889400000000
endloop
endfacet
facet normal -0.9465496394521 -0.3211803477311 0.0297819456131
outer loop
vertex 95.0004500000000 151.5456800000000 53.7935100000000
vertex 94.5568000000000 152.7344900000000 52.5137300000000
vertex 95.0045500000000 151.3880700000000 52.2240900000000
endloop
endfacet
facet normal -0.9525067844858 -0.3031982390723 0.0283134832182
outer loop
vertex 94.7059300000000 152.1027800000000 50.7659400000000
vertex 94.5568000000000 152.7344900000000 52.5137300000000
vertex 94.1629900000000 153.8296400000000 50.9929300000000
endloop
endfacet
facet normal -0.9810325676035 -0.1671092827285 0.0982323211948
outer loop
vertex 96.6885400000000 143.9997600000000 55.0742700000000
vertex 96.7730800000000 144.3440600000000 56.5042700000000
vertex 96.4721500000000 145.3631600000000 55.2325800000000
endloop
endfacet
facet normal -0.9655508361620 -0.2598036563879 0.0146165288088
outer loop
vertex 93.6531700000000 155.4955500000000 51.3980600000000
vertex 93.3831900000000 156.4298500000000 50.1703500000000
vertex 93.7424600000000 155.0613100000000 49.5779900000000
endloop
endfacet
facet normal -0.9503255466164 -0.3047215606783 0.0634517604639
outer loop
vertex 94.3685600000000 153.4851900000000 56.2731100000000
vertex 94.8372300000000 152.3403200000000 57.7943050000000
vertex 94.3155200000000 153.9854800000000 57.8813220000000
endloop
endfacet
facet normal -0.9502951286722 -0.3095694530164 0.0332554082967
outer loop
vertex 95.2454300000000 150.5231900000000 51.0563600000000
vertex 95.4775700000000 150.0183000000000 52.9899700000000
vertex 95.0045500000000 151.3880700000000 52.2240900000000
endloop
endfacet
facet normal -0.9585430252967 -0.2819144976037 0.0414666696993
outer loop
vertex 95.4775700000000 150.0183000000000 52.9899700000000
vertex 95.2454300000000 150.5231900000000 51.0563600000000
vertex 95.6992400000000 149.0298200000000 51.3938300000000
endloop
endfacet
facet normal -0.9596200510016 -0.2812174340725 -0.0067906177476
outer loop
vertex 93.4350900000000 156.1317900000000 53.1463400000000
vertex 93.2392500000000 156.7632600000000 54.6707400000000
vertex 92.8798700000000 158.0213700000000 53.3550700000000
endloop
endfacet
facet normal -0.9835015825925 -0.1593721076600 -0.0855871972786
outer loop
vertex 91.7471000000000 163.6375400000000 52.6723700000000
vertex 91.9371300000000 163.2256200000000 51.2557300000000
vertex 92.0334900000000 162.1217900000000 52.2038800000000
endloop
endfacet
facet normal -0.9496986371148 -0.3118349401040 0.0288352005821
outer loop
vertex 95.4775700000000 150.0183000000000 52.9899700000000
vertex 95.0004500000000 151.5456800000000 53.7935100000000
vertex 95.0045500000000 151.3880700000000 52.2240900000000
endloop
endfacet
facet normal -0.9888017779557 -0.1490991715650 -0.0063624641706
outer loop
vertex 96.3569600000000 145.6426900000000 51.6738600000000
vertex 96.5762000000000 144.1160300000000 53.3774200000000
vertex 96.3161400000000 145.8324200000000 53.5716000000000
endloop
endfacet
facet normal -0.9775464179105 -0.1977156452240 0.0728802062563
outer loop
vertex 96.4721500000000 145.3631600000000 55.2325800000000
vertex 96.7730800000000 144.3440600000000 56.5042700000000
vertex 96.5769500000000 145.4446900000000 56.8594500000000
endloop
endfacet
facet normal -0.9758511289402 -0.2167414061386 0.0271613146076
outer loop
vertex 95.6992400000000 149.0298200000000 51.3938300000000
vertex 96.0500500000000 147.4565700000000 51.4435300000000
vertex 95.9191100000000 148.2425800000000 53.0113100000000
endloop
endfacet
facet normal -0.9703871965847 -0.2411158015111 0.0145553758510
outer loop
vertex 95.4775700000000 150.0183000000000 52.9899700000000
vertex 95.6992400000000 149.0298200000000 51.3938300000000
vertex 95.9191100000000 148.2425800000000 53.0113100000000
endloop
endfacet
facet normal -0.9834929200460 -0.1807479061465 0.0084776555125
outer loop
vertex 95.9191100000000 148.2425800000000 53.0113100000000
vertex 96.0500500000000 147.4565700000000 51.4435300000000
vertex 96.1716300000000 146.8620500000000 52.8725600000000
endloop
endfacet
facet normal -0.9861880487910 -0.1649221616916 0.0152909451888
outer loop
vertex 96.0500500000000 147.4565700000000 51.4435300000000
vertex 96.3569600000000 145.6426900000000 51.6738600000000
vertex 96.1716300000000 146.8620500000000 52.8725600000000
endloop
endfacet
facet normal -0.9902717222534 -0.1146584145503 -0.0788375803667
outer loop
vertex 91.5261400000000 165.2594800000000 53.0889400000000
vertex 91.7471000000000 163.6375400000000 52.6723700000000
vertex 91.5697300000000 164.0677000000000 54.2746900000000
endloop
endfacet
facet normal -0.9898985008963 -0.1417184971595 -0.0041018881120
outer loop
vertex 96.3161400000000 145.8324200000000 53.5716000000000
vertex 96.1285600000000 147.1112900000000 54.6554000000000
vertex 96.1716300000000 146.8620500000000 52.8725600000000
endloop
endfacet
facet normal -0.9866998342566 -0.1550302147128 0.0488781096619
outer loop
vertex 96.5762000000000 144.1160300000000 53.3774200000000
vertex 96.4721500000000 145.3631600000000 55.2325800000000
vertex 96.3161400000000 145.8324200000000 53.5716000000000
endloop
endfacet
facet normal -0.9674595618360 -0.2527770326280 -0.0112146327603
outer loop
vertex 95.7484900000000 148.9053200000000 54.7048400000000
vertex 95.3704200000000 150.3508700000000 54.7374400000000
vertex 95.4775700000000 150.0183000000000 52.9899700000000
endloop
endfacet
facet normal -0.9704343400700 -0.2413423848273 -0.0033233866435
outer loop
vertex 95.7484900000000 148.9053200000000 54.7048400000000
vertex 95.4775700000000 150.0183000000000 52.9899700000000
vertex 95.9191100000000 148.2425800000000 53.0113100000000
endloop
endfacet
facet normal -0.9850039144550 -0.1592967954347 -0.0662708040733
outer loop
vertex 91.5697300000000 164.0677000000000 54.2746900000000
vertex 91.7471000000000 163.6375400000000 52.6723700000000
vertex 91.8534300000000 162.4831000000000 53.8669100000000
endloop
endfacet
facet normal -0.9896118052046 -0.1435982316091 -0.0069298541451
outer loop
vertex 96.3569600000000 145.6426900000000 51.6738600000000
vertex 96.3161400000000 145.8324200000000 53.5716000000000
vertex 96.1716300000000 146.8620500000000 52.8725600000000
endloop
endfacet
facet normal -0.9836533507094 -0.1800669246108 0.0014100707158
outer loop
vertex 96.1285600000000 147.1112900000000 54.6554000000000
vertex 95.9191100000000 148.2425800000000 53.0113100000000
vertex 96.1716300000000 146.8620500000000 52.8725600000000
endloop
endfacet
facet normal -0.9792313408751 -0.2018431519098 -0.0191134265637
outer loop
vertex 92.1859400000000 160.9198200000000 53.3402200000000
vertex 92.0910500000000 161.2125400000000 55.1104800000000
vertex 91.8534300000000 162.4831000000000 53.8669100000000
endloop
endfacet
facet normal -0.9828877956906 -0.1794409726522 0.0416235319985
outer loop
vertex 96.4721500000000 145.3631600000000 55.2325800000000
vertex 96.1285600000000 147.1112900000000 54.6554000000000
vertex 96.3161400000000 145.8324200000000 53.5716000000000
endloop
endfacet
facet normal -0.9844996336953 -0.1753510137441 -0.0035345767336
outer loop
vertex 91.5697300000000 164.0677000000000 54.2746900000000
vertex 91.8534300000000 162.4831000000000 53.8669100000000
vertex 91.7585500000000 162.9805400000001 55.6161200000000
endloop
endfacet
facet normal -0.9828132184920 -0.1846009675875 -0.0008126027485
outer loop
vertex 91.8534300000000 162.4831000000000 53.8669100000000
vertex 92.0910500000000 161.2125400000000 55.1104800000000
vertex 91.7585500000000 162.9805400000001 55.6161200000000
endloop
endfacet
facet normal -0.9674499521030 -0.2530586397514 0.0013838435882
outer loop
vertex 95.5515800000000 149.6668500000000 56.3026910000000
vertex 95.3704200000000 150.3508700000000 54.7374400000000
vertex 95.7484900000000 148.9053200000000 54.7048400000000
endloop
endfacet
facet normal -0.9802804801090 -0.1863901940700 -0.0656420282430
outer loop
vertex 92.0334900000000 162.1217900000000 52.2038800000000
vertex 92.1859400000000 160.9198200000000 53.3402200000000
vertex 91.8534300000000 162.4831000000000 53.8669100000000
endloop
endfacet
facet normal -0.9668598778257 -0.2552292747533 0.0063240777775
outer loop
vertex 92.4145200000000 159.7552900000000 56.1852300000000
vertex 92.8323900000000 158.1523400000000 55.3791000000000
vertex 92.8049400000000 158.3013200000000 57.1949780000000
endloop
endfacet
facet normal -0.9466783364795 -0.3135164950673 0.0742127654864
outer loop
vertex 93.3482400000000 156.5072900000000 56.4902310000000
vertex 93.9043100000000 154.8853300000000 56.7315400000000
vertex 93.8168600000000 155.4621400000000 58.0527740000000
endloop
endfacet
facet normal -0.9555649882289 -0.2766166072840 0.1018764243869
outer loop
vertex 95.3850000000000 150.4796000000000 57.8799360000000
vertex 95.3024600000000 151.3617100000000 59.5008600000000
vertex 94.8372300000000 152.3403200000000 57.7943050000000
endloop
endfacet
facet normal -0.9591700937485 -0.2808156799118 0.0336939931461
outer loop
vertex 94.9951300000000 151.5716300000000 55.8827700000000
vertex 95.3850000000000 150.4796000000000 57.8799360000000
vertex 94.8372300000000 152.3403200000000 57.7943050000000
endloop
endfacet
facet normal -0.9762685679591 -0.2116501194942 -0.0458684001590
outer loop
vertex 92.7229900000000 158.8493500000000 51.4806600000000
vertex 92.5000500000000 159.5829800000000 52.8405600000000
vertex 92.3458500000000 160.5525400000000 51.6487400000000
endloop
endfacet
facet normal -0.9761576102991 -0.2120819068642 -0.0462340203312
outer loop
vertex 92.5000500000000 159.5829800000000 52.8405600000000
vertex 92.1859400000000 160.9198200000000 53.3402200000000
vertex 92.3458500000000 160.5525400000000 51.6487400000000
endloop
endfacet
facet normal -0.9829604160320 -0.1778134501307 0.0465961099960
outer loop
vertex 96.4721500000000 145.3631600000000 55.2325800000000
vertex 96.3268700000000 146.5213400000000 56.5875320000000
vertex 96.1285600000000 147.1112900000000 54.6554000000000
endloop
endfacet
facet normal -0.9572186594605 -0.2888833956428 0.0166979550390
outer loop
vertex 93.2392500000000 156.7632600000000 54.6707400000000
vertex 93.3482400000000 156.5072900000000 56.4902310000000
vertex 92.8323900000000 158.1523400000000 55.3791000000000
endloop
endfacet
facet normal -0.9680810390211 -0.2506131206828 -0.0034879262367
outer loop
vertex 92.4605500000000 159.6027200000000 54.3719100000000
vertex 92.8323900000000 158.1523400000000 55.3791000000000
vertex 92.4145200000000 159.7552900000000 56.1852300000000
endloop
endfacet
facet normal -0.9748420553147 -0.2034169525301 0.0911290876350
outer loop
vertex 96.3268700000000 146.5213400000000 56.5875320000000
vertex 96.5769500000000 145.4446900000000 56.8594500000000
vertex 96.5555300000000 145.9544600000000 57.7682130000000
endloop
endfacet
facet normal -0.9752494148578 -0.2210218030247 -0.0061596596731
outer loop
vertex 92.0910500000000 161.2125400000000 55.1104800000000
vertex 92.4605500000000 159.6027200000000 54.3719100000000
vertex 92.4145200000000 159.7552900000000 56.1852300000000
endloop
endfacet
facet normal -0.9459701993017 -0.3222749782797 0.0357661908509
outer loop
vertex 94.5568000000000 152.7344900000000 52.5137300000000
vertex 94.7059300000000 152.1027800000000 50.7659400000000
vertex 95.0045500000000 151.3880700000000 52.2240900000000
endloop
endfacet
facet normal -0.9692457348280 -0.2446167359162 -0.0269324716173
outer loop
vertex 92.8798700000000 158.0213700000000 53.3550700000000
vertex 92.5000500000000 159.5829800000000 52.8405600000000
vertex 92.7229900000000 158.8493500000000 51.4806600000000
endloop
endfacet
facet normal -0.9675601804877 -0.2501636557289 0.0352908272349
outer loop
vertex 95.9891100000000 147.9976900000000 56.4662870000000
vertex 95.8666900000000 148.7002300000000 58.0899740000000
vertex 95.5515800000000 149.6668500000000 56.3026910000000
endloop
endfacet
facet normal -0.9810534079153 -0.1919699156705 0.0261105782250
outer loop
vertex 91.7585500000000 162.9805400000001 55.6161200000000
vertex 92.0910500000000 161.2125400000000 55.1104800000000
vertex 92.0815400000000 161.5578300000000 57.2917980000000
endloop
endfacet
facet normal -0.9697600671878 -0.2430774410929 -0.0218808071093
outer loop
vertex 92.8798700000000 158.0213700000000 53.3550700000000
vertex 92.4605500000000 159.6027200000000 54.3719100000000
vertex 92.5000500000000 159.5829800000000 52.8405600000000
endloop
endfacet
facet normal -0.9465039409251 -0.3217790643595 0.0242595043906
outer loop
vertex 93.8069700000000 155.0372300000000 54.9485500000000
vertex 94.3685600000000 153.4851900000000 56.2731100000000
vertex 93.9043100000000 154.8853300000000 56.7315400000000
endloop
endfacet
facet normal -0.9467766047349 -0.3209695652481 0.0243433545582
outer loop
vertex 93.3482400000000 156.5072900000000 56.4902310000000
vertex 93.8069700000000 155.0372300000000 54.9485500000000
vertex 93.9043100000000 154.8853300000000 56.7315400000000
endloop
endfacet
facet normal -0.9602850712332 -0.2789848822378 -0.0044740864293
outer loop
vertex 92.8798700000000 158.0213700000000 53.3550700000000
vertex 93.2392500000000 156.7632600000000 54.6707400000000
vertex 92.8323900000000 158.1523400000000 55.3791000000000
endloop
endfacet
facet normal -0.9877039202497 -0.1558153597192 0.0127491018907
outer loop
vertex 91.5697300000000 164.0677000000000 54.2746900000000
vertex 91.7585500000000 162.9805400000001 55.6161200000000
vertex 91.5209400000000 164.4930100000000 55.6928100000000
endloop
endfacet
facet normal -0.9799114276568 -0.1975962067750 0.0270061662538
outer loop
vertex 92.0910500000000 161.2125400000000 55.1104800000000
vertex 92.4145200000000 159.7552900000000 56.1852300000000
vertex 92.0815400000000 161.5578300000000 57.2917980000000
endloop
endfacet
facet normal -0.9643936709610 -0.2513629499513 0.0822284306190
outer loop
vertex 95.8666900000000 148.7002300000000 58.0899740000000
vertex 95.8565200000000 149.2636900000000 59.6931310000000
vertex 95.3850000000000 150.4796000000000 57.8799360000000
endloop
endfacet
facet normal -0.9839109284875 -0.1639883287186 -0.0709021357006
outer loop
vertex 91.7471000000000 163.6375400000000 52.6723700000000
vertex 92.0334900000000 162.1217900000000 52.2038800000000
vertex 91.8534300000000 162.4831000000000 53.8669100000000
endloop
endfacet
facet normal -0.9841944248471 -0.1586113157216 0.0787641074661
outer loop
vertex 91.5209400000000 164.4930100000000 55.6928100000000
vertex 91.7585500000000 162.9805400000001 55.6161200000000
vertex 91.7277400000000 164.0953800000000 57.4761450000000
endloop
endfacet
facet normal -0.8970180490767 -0.3083985402648 0.3166211616320
outer loop
vertex 93.7985600000000 158.2742800000000 61.9371090000000
vertex 92.9773900000000 159.2687700000000 60.5793190000000
vertex 93.4512100000000 157.5203000000000 60.2186340000000
endloop
endfacet
facet normal -0.9828185534165 -0.1763036760698 -0.0546324524854
outer loop
vertex 92.3458500000000 160.5525400000000 51.6487400000000
vertex 92.1859400000000 160.9198200000000 53.3402200000000
vertex 92.0334900000000 162.1217900000000 52.2038800000000
endloop
endfacet
facet normal -0.9873481776344 -0.1426866619949 0.0691671353371
outer loop
vertex 91.7585500000000 162.9805400000001 55.6161200000000
vertex 92.0815400000000 161.5578300000000 57.2917980000000
vertex 91.7277400000000 164.0953800000000 57.4761450000000
endloop
endfacet
facet normal -0.9823518544475 -0.1455035687482 0.1175310407730
outer loop
vertex 91.7277400000000 164.0953800000000 57.4761450000000
vertex 92.0815400000000 161.5578300000000 57.2917980000000
vertex 92.1966000000000 162.6979700000000 59.6649910000000
endloop
endfacet
facet normal -0.9464848054211 -0.3147251071916 0.0715165715776
outer loop
vertex 92.8049400000000 158.3013200000000 57.1949780000000
vertex 93.3482400000000 156.5072900000000 56.4902310000000
vertex 93.3170100000000 157.0415300000000 58.4279640000000
endloop
endfacet
facet normal -0.9782336074976 -0.2067551311935 -0.0176444010228
outer loop
vertex 96.1285600000000 147.1112900000000 54.6554000000000
vertex 95.7484900000000 148.9053200000000 54.7048400000000
vertex 95.9191100000000 148.2425800000000 53.0113100000000
endloop
endfacet
facet normal -0.9439703782684 -0.3297391007212 0.0138582252585
outer loop
vertex 93.8069700000000 155.0372300000000 54.9485500000000
vertex 94.4642000000000 153.1321700000000 54.3880800000000
vertex 94.3685600000000 153.4851900000000 56.2731100000000
endloop
endfacet
facet normal -0.9559778386636 -0.2932814526136 0.0096104909796
outer loop
vertex 92.8323900000000 158.1523400000000 55.3791000000000
vertex 93.3482400000000 156.5072900000000 56.4902310000000
vertex 92.8049400000000 158.3013200000000 57.1949780000000
endloop
endfacet
facet normal -0.9669629467590 -0.2293480258933 0.1112750763380
outer loop
vertex 92.4303900000000 160.4753900000000 59.2214090000000
vertex 92.4366100000000 159.7424500000001 57.7648040000000
vertex 92.8159600000000 158.7000500000000 58.9128150000000
endloop
endfacet
facet normal -0.9819250599680 -0.1888767264036 0.0121966729053
outer loop
vertex 92.0815400000000 161.5578300000000 57.2917980000000
vertex 92.4145200000000 159.7552900000000 56.1852300000000
vertex 92.4366100000000 159.7424500000001 57.7648040000000
endloop
endfacet
facet normal -0.9559506722275 -0.2935013203460 0.0039098878450
outer loop
vertex 93.9987300000000 154.3900800000000 52.9023000000000
vertex 93.6531700000000 155.4955500000000 51.3980600000000
vertex 94.1629900000000 153.8296400000000 50.9929300000000
endloop
endfacet
facet normal -0.9705411144431 -0.2277496337624 0.0786132908392
outer loop
vertex 96.3308400000000 147.0556000000000 58.1843430000000
vertex 96.3268700000000 146.5213400000000 56.5875320000000
vertex 96.5555300000000 145.9544600000000 57.7682130000000
endloop
endfacet
facet normal -0.9609506977554 -0.2629149383482 0.0863104378208
outer loop
vertex 95.8565200000000 149.2636900000000 59.6931310000000
vertex 95.8666900000000 148.7002300000000 58.0899740000000
vertex 96.2135800000000 147.8257600000000 59.2883570000000
endloop
endfacet
facet normal -0.9595836600638 -0.2727177313709 0.0694567371429
outer loop
vertex 92.4366100000000 159.7424500000001 57.7648040000000
vertex 92.8049400000000 158.3013200000000 57.1949780000000
vertex 92.8159600000000 158.7000500000000 58.9128150000000
endloop
endfacet
facet normal -0.9862224071577 -0.1252960302175 0.1080105014888
outer loop
vertex 92.1966000000000 162.6979700000000 59.6649910000000
vertex 92.0815400000000 161.5578300000000 57.2917980000000
vertex 92.4303900000000 160.4753900000000 59.2214090000000
endloop
endfacet
facet normal -0.9414833413492 -0.3272884789382 0.0805690357161
outer loop
vertex 93.9043100000000 154.8853300000000 56.7315400000000
vertex 94.3155200000000 153.9854800000000 57.8813220000000
vertex 93.8168600000000 155.4621400000000 58.0527740000000
endloop
endfacet
facet normal -0.9652304683251 -0.2470864026137 0.0853138479990
outer loop
vertex 95.8565200000000 149.2636900000000 59.6931310000000
vertex 95.3024600000000 151.3617100000000 59.5008600000000
vertex 95.3850000000000 150.4796000000000 57.8799360000000
endloop
endfacet
facet normal -0.9602740509042 -0.2662065771449 0.0837126361123
outer loop
vertex 95.8666900000000 148.7002300000000 58.0899740000000
vertex 96.3308400000000 147.0556000000000 58.1843430000000
vertex 96.2135800000000 147.8257600000000 59.2883570000000
endloop
endfacet
facet normal -0.9819174783677 -0.1707580769795 0.0817297058749
outer loop
vertex 92.4303900000000 160.4753900000000 59.2214090000000
vertex 92.0815400000000 161.5578300000000 57.2917980000000
vertex 92.4366100000000 159.7424500000001 57.7648040000000
endloop
endfacet
facet normal -0.9458703180216 -0.3164566101343 0.0720038567575
outer loop
vertex 93.3482400000000 156.5072900000000 56.4902310000000
vertex 93.8168600000000 155.4621400000000 58.0527740000000
vertex 93.3170100000000 157.0415300000000 58.4279640000000
endloop
endfacet
facet normal -0.9337521025226 -0.3311052560349 0.1359276294971
outer loop
vertex 93.8168600000000 155.4621400000000 58.0527740000000
vertex 94.3155200000000 153.9854800000000 57.8813220000000
vertex 94.2817000000000 154.5792000000000 59.0952350000000
endloop
endfacet
facet normal -0.9352488040425 -0.3239882032886 0.1426229948742
outer loop
vertex 93.8168600000000 155.4621400000000 58.0527740000000
vertex 94.2817000000000 154.5792000000000 59.0952350000000
vertex 93.9303800000000 155.8483000000000 59.6743970000000
endloop
endfacet
facet normal -0.9660859415820 -0.1443519892618 0.2141038455372
outer loop
vertex 92.1966000000000 162.6979700000000 59.6649910000000
vertex 92.4303900000000 160.4753900000000 59.2214090000000
vertex 92.7531400000000 160.9965600000000 61.0291120000000
endloop
endfacet
facet normal -0.9478396596680 -0.3091003978089 0.0778262400145
outer loop
vertex 92.8049400000000 158.3013200000000 57.1949780000000
vertex 93.3170100000000 157.0415300000000 58.4279640000000
vertex 92.8159600000000 158.7000500000000 58.9128150000000
endloop
endfacet
facet normal -0.9331492183348 -0.3294823211631 0.1437843397668
outer loop
vertex 93.3170100000000 157.0415300000000 58.4279640000000
vertex 93.8168600000000 155.4621400000000 58.0527740000000
vertex 93.9303800000000 155.8483000000000 59.6743970000000
endloop
endfacet
facet normal -0.9429932945373 -0.3059665768471 0.1309507552864
outer loop
vertex 94.3155200000000 153.9854800000000 57.8813220000000
vertex 94.8372300000000 152.3403200000000 57.7943050000000
vertex 94.7722000000000 153.2001700000000 59.3350560000000
endloop
endfacet
facet normal -0.9577405042305 -0.2664714121645 0.1082871786288
outer loop
vertex 94.8372300000000 152.3403200000000 57.7943050000000
vertex 95.3024600000000 151.3617100000000 59.5008600000000
vertex 94.7722000000000 153.2001700000000 59.3350560000000
endloop
endfacet
facet normal -0.9413320848089 -0.3127747870155 0.1267510896074
outer loop
vertex 94.2817000000000 154.5792000000000 59.0952350000000
vertex 94.3155200000000 153.9854800000000 57.8813220000000
vertex 94.7722000000000 153.2001700000000 59.3350560000000
endloop
endfacet
facet normal -0.9933742943753 -0.1142611478175 -0.0123248275341
outer loop
vertex 96.1038000000000 151.3137700000000 66.4093168000000
vertex 96.0078500000000 151.9530600000000 68.2160970000000
vertex 95.8955100000000 153.0501900000000 67.0993540000000
endloop
endfacet
facet normal -0.9841763183756 -0.1654191608774 -0.0635096493706
outer loop
vertex 95.8955100000000 153.0501900000000 67.0993540000000
vertex 96.0078500000000 151.9530600000000 68.2160970000000
vertex 95.7515300000000 153.3641800000000 68.5127100000000
endloop
endfacet
facet normal -0.9351163693953 -0.3185224221206 0.1552444597897
outer loop
vertex 93.4512100000000 157.5203000000000 60.2186340000000
vertex 93.3170100000000 157.0415300000000 58.4279640000000
vertex 93.9303800000000 155.8483000000000 59.6743970000000
endloop
endfacet
facet normal -0.9316630399499 -0.3274694002905 0.1573777997835
outer loop
vertex 93.3170100000000 157.0415300000000 58.4279640000000
vertex 93.4512100000000 157.5203000000000 60.2186340000000
vertex 92.8159600000000 158.7000500000000 58.9128150000000
endloop
endfacet
facet normal -0.9264252276109 -0.3349235149009 0.1719375956924
outer loop
vertex 94.2817000000000 154.5792000000000 59.0952350000000
vertex 94.6069700000000 154.4187600000000 60.5353110000000
vertex 93.9303800000000 155.8483000000000 59.6743970000000
endloop
endfacet
facet normal -0.9496667254545 -0.3130876733383 0.0104508070532
outer loop
vertex 94.4642000000000 153.1321700000000 54.3880800000000
vertex 94.9951300000000 151.5716300000000 55.8827700000000
vertex 94.3685600000000 153.4851900000000 56.2731100000000
endloop
endfacet
facet normal -0.9365128544426 -0.3021716667291 0.1778649973713
outer loop
vertex 94.6069700000000 154.4187600000000 60.5353110000000
vertex 94.2817000000000 154.5792000000000 59.0952350000000
vertex 94.7722000000000 153.2001700000000 59.3350560000000
endloop
endfacet
facet normal -0.9445467779179 -0.2863633068209 0.1607091809186
outer loop
vertex 95.2962300000000 152.5205000000000 61.2038870000000
vertex 94.6069700000000 154.4187600000000 60.5353110000000
vertex 94.7722000000000 153.2001700000000 59.3350560000000
endloop
endfacet
facet normal -0.9504668829163 -0.2585849278562 0.1724718515150
outer loop
vertex 95.3024600000000 151.3617100000000 59.5008600000000
vertex 95.2962300000000 152.5205000000000 61.2038870000000
vertex 94.7722000000000 153.2001700000000 59.3350560000000
endloop
endfacet
facet normal -0.9530344341189 -0.0768721646859 0.2929437449070
outer loop
vertex 92.1966000000000 162.6979700000000 59.6649910000000
vertex 92.7531400000000 160.9965600000000 61.0291120000000
vertex 92.8599600000000 162.6688200000000 61.8154520000000
endloop
endfacet
facet normal -0.9526388896948 -0.1004139931435 0.2870473407332
outer loop
vertex 95.7019300000000 152.8439000000000 63.3086120000000
vertex 95.5633200000000 154.2623600000000 63.3448010000000
vertex 95.2201900000000 154.3015700000000 62.2197540000000
endloop
endfacet
facet normal -0.9003251902897 -0.3445629601343 0.2658776377081
outer loop
vertex 94.3941600000000 156.1686600000000 61.6600360000000
vertex 93.4512100000000 157.5203000000000 60.2186340000000
vertex 93.9303800000000 155.8483000000000 59.6743970000000
endloop
endfacet
facet normal -0.9667874763797 -0.2129360892690 0.1413513261423
outer loop
vertex 95.3024600000000 151.3617100000000 59.5008600000000
vertex 95.7469600000000 150.4020300000000 61.0953730000000
vertex 95.2962300000000 152.5205000000000 61.2038870000000
endloop
endfacet
facet normal -0.9616725509605 -0.2134254041314 0.1721496488540
outer loop
vertex 95.2962300000000 152.5205000000000 61.2038870000000
vertex 95.7469600000000 150.4020300000000 61.0953730000000
vertex 95.8188100000000 151.1621200000000 62.4390800000000
endloop
endfacet
facet normal -0.9385930339822 -0.0958931423473 0.3314326806619
outer loop
vertex 92.8599600000000 162.6688200000000 61.8154520000000
vertex 92.7531400000000 160.9965600000000 61.0291120000000
vertex 93.3453100000000 161.1290700000000 62.7444330000000
endloop
endfacet
facet normal -0.9189131918101 -0.2106507292324 0.3335038473410
outer loop
vertex 92.7531400000000 160.9965600000000 61.0291120000000
vertex 93.3650600000000 159.8298300000000 61.9782130000000
vertex 93.3453100000000 161.1290700000000 62.7444330000000
endloop
endfacet
facet normal -0.9238257030089 -0.2800793418441 0.2609628953171
outer loop
vertex 94.6069700000000 154.4187600000000 60.5353110000000
vertex 94.3941600000000 156.1686600000000 61.6600360000000
vertex 93.9303800000000 155.8483000000000 59.6743970000000
endloop
endfacet
facet normal -0.9062087350988 -0.2613254249826 0.3324075069674
outer loop
vertex 93.7985600000000 158.2742800000000 61.9371090000000
vertex 94.0561800000000 159.4952300000000 63.5992940000000
vertex 93.3650600000000 159.8298300000000 61.9782130000000
endloop
endfacet
facet normal -0.8954118395656 -0.2969340731116 0.3317646662788
outer loop
vertex 94.3941600000000 156.1686600000000 61.6600360000000
vertex 94.6928600000000 157.4014300000000 63.5695550000000
vertex 93.7985600000000 158.2742800000000 61.9371090000000
endloop
endfacet
facet normal -0.9664639717335 -0.2296922278215 -0.1148428135303
outer loop
vertex 95.7515300000000 153.3641800000000 68.5127100000000
vertex 95.7087600000000 152.9035900000000 69.7938490000000
vertex 95.3709600000000 154.4428800000000 69.5579490000000
endloop
endfacet
facet normal -0.9133153303932 -0.2170904400340 0.3445676248787
outer loop
vertex 93.3650600000000 159.8298300000000 61.9782130000000
vertex 94.0561800000000 159.4952300000000 63.5992940000000
vertex 93.3453100000000 161.1290700000000 62.7444330000000
endloop
endfacet
facet normal -0.9641652538082 -0.1613027570314 0.2106342420477
outer loop
vertex 95.2962300000000 152.5205000000000 61.2038870000000
vertex 95.7019300000000 152.8439000000000 63.3086120000000
vertex 95.2201900000000 154.3015700000000 62.2197540000000
endloop
endfacet
facet normal -0.8973112239510 -0.2777260638324 0.3430755031181
outer loop
vertex 94.6928600000000 157.4014300000000 63.5695550000000
vertex 94.0561800000000 159.4952300000000 63.5992940000000
vertex 93.7985600000000 158.2742800000000 61.9371090000000
endloop
endfacet
facet normal -0.9522727446067 -0.1349902667877 0.2737777342148
outer loop
vertex 92.8599600000000 162.6688200000000 61.8154520000000
vertex 93.3453100000000 161.1290700000000 62.7444330000000
vertex 93.3746100000000 162.6270600000000 63.5849530000000
endloop
endfacet
facet normal -0.9610924099755 -0.1766078391583 0.2123936219273
outer loop
vertex 95.7019300000000 152.8439000000000 63.3086120000000
vertex 95.2962300000000 152.5205000000000 61.2038870000000
vertex 95.8188100000000 151.1621200000000 62.4390800000000
endloop
endfacet
facet normal -0.9318342779307 -0.2944892354461 0.2120400166944
outer loop
vertex 93.3453100000000 161.1290700000000 62.7444330000000
vertex 94.0561800000000 159.4952300000000 63.5992940000000
vertex 93.7259100000000 161.1680900000000 64.4712160000000
endloop
endfacet
facet normal -0.9846416206328 -0.1408662517205 0.1031386350683
outer loop
vertex 95.9224800000000 152.7574800000000 65.2961218000000
vertex 95.7019300000000 152.8439000000000 63.3086120000000
vertex 96.1278000000000 150.5228000000000 64.2041510000000
endloop
endfacet
facet normal -0.9486436345064 -0.2727085955834 -0.1603286518540
outer loop
vertex 94.4309700000000 158.1636100000000 69.7043140000000
vertex 94.4881900000000 158.6896200000000 68.4710420000000
vertex 94.8344200000000 157.3883100000000 68.6358880000000
endloop
endfacet
facet normal -0.9833738650699 -0.1325289624228 0.1241447365640
outer loop
vertex 95.7019300000000 152.8439000000000 63.3086120000000
vertex 95.8188100000000 151.1621200000000 62.4390800000000
vertex 96.1278000000000 150.5228000000000 64.2041510000000
endloop
endfacet
facet normal -0.9677111392071 -0.2365003645277 0.0871936272487
outer loop
vertex 93.7259100000000 161.1680900000000 64.4712160000000
vertex 94.0561800000000 159.4952300000000 63.5992940000000
vertex 94.0966200000000 159.9844500000000 65.3750539000000
endloop
endfacet
facet normal -0.9561122622692 -0.2761752809583 0.0978598800641
outer loop
vertex 94.0561800000000 159.4952300000000 63.5992940000000
vertex 94.5448900000000 158.4401500000000 65.3965025000000
vertex 94.0966200000000 159.9844500000000 65.3750539000000
endloop
endfacet
facet normal -0.9576485009420 -0.2774862508233 0.0768812672085
outer loop
vertex 95.2383100000000 155.4890400000000 63.4614330000000
vertex 95.1848000000000 156.2746700000000 65.6304627000000
vertex 94.6928600000000 157.4014300000000 63.5695550000000
endloop
endfacet
facet normal -0.9476961143478 -0.2753512313096 -0.1614118157585
outer loop
vertex 94.4881900000000 158.6896200000000 68.4710420000000
vertex 94.4309700000000 158.1636100000000 69.7043140000000
vertex 94.2642400000000 158.9769500000000 69.2957640000000
endloop
endfacet
facet normal -0.9709396395280 -0.1023847188225 0.2163182510673
outer loop
vertex 93.3746100000000 162.6270600000000 63.5849530000000
vertex 93.3453100000000 161.1290700000000 62.7444330000000
vertex 93.7259100000000 161.1680900000000 64.4712160000000
endloop
endfacet
facet normal -0.9941850154626 -0.1043464576603 0.0266077395380
outer loop
vertex 96.1038000000000 151.3137700000000 66.4093168000000
vertex 95.9224800000000 152.7574800000000 65.2961218000000
vertex 96.1278000000000 150.5228000000000 64.2041510000000
endloop
endfacet
facet normal -0.9583153115560 -0.2746987247100 0.0785644593946
outer loop
vertex 94.6928600000000 157.4014300000000 63.5695550000000
vertex 95.1848000000000 156.2746700000000 65.6304627000000
vertex 94.5448900000000 158.4401500000000 65.3965025000000
endloop
endfacet
facet normal -0.9676933056830 -0.2518685116361 0.0114855989230
outer loop
vertex 92.4145200000000 159.7552900000000 56.1852300000000
vertex 92.8049400000000 158.3013200000000 57.1949780000000
vertex 92.4366100000000 159.7424500000001 57.7648040000000
endloop
endfacet
facet normal -0.9665271377231 -0.2453018018092 0.0751818999091
outer loop
vertex 93.7259100000000 161.1680900000000 64.4712160000000
vertex 94.0966200000000 159.9844500000000 65.3750539000000
vertex 93.8552100000000 161.2224400000000 66.3108092000000
endloop
endfacet
facet normal -0.9601850929814 -0.2783934300581 0.0232741340701
outer loop
vertex 94.0966200000000 159.9844500000000 65.3750539000000
vertex 94.5448900000000 158.4401500000000 65.3965025000000
vertex 94.2541400000000 159.5863200000000 67.1113840000000
endloop
endfacet
facet normal -0.9560561152518 -0.2913610306730 0.0326412973824
outer loop
vertex 94.2541400000000 159.5863200000000 67.1113840000000
vertex 94.5448900000000 158.4401500000000 65.3965025000000
vertex 94.7855300000000 157.8434200000000 67.1182930000000
endloop
endfacet
facet normal -0.9703662334914 -0.2403337903791 0.0250807117468
outer loop
vertex 95.1848000000000 156.2746700000000 65.6304627000000
vertex 95.6615800000000 154.4172300000000 66.2781962000000
vertex 95.4065300000000 155.5463700000000 67.2302660000000
endloop
endfacet
facet normal -0.9605398719401 -0.2630804169071 0.0902875885896
outer loop
vertex 95.5633200000000 154.2623600000000 63.3448010000000
vertex 95.6492800000000 154.3576100000000 64.5368410000000
vertex 95.2383100000000 155.4890400000000 63.4614330000000
endloop
endfacet
facet normal -0.9594257828712 -0.2794931851863 0.0372253488412
outer loop
vertex 94.5448900000000 158.4401500000000 65.3965025000000
vertex 95.1848000000000 156.2746700000000 65.6304627000000
vertex 94.7855300000000 157.8434200000000 67.1182930000000
endloop
endfacet
facet normal -0.9926439738407 -0.1209751580754 0.0047908586292
outer loop
vertex 95.9224800000000 152.7574800000000 65.2961218000000
vertex 96.1038000000000 151.3137700000000 66.4093168000000
vertex 95.8955100000000 153.0501900000000 67.0993540000000
endloop
endfacet
facet normal -0.9867353023698 -0.1619276832650 0.0115268577522
outer loop
vertex 95.6615800000000 154.4172300000000 66.2781962000000
vertex 95.9224800000000 152.7574800000000 65.2961218000000
vertex 95.8955100000000 153.0501900000000 67.0993540000000
endloop
endfacet
facet normal -0.9749716211729 -0.2190178120367 0.0382300394729
outer loop
vertex 93.8552100000000 161.2224400000000 66.3108092000000
vertex 94.0966200000000 159.9844500000000 65.3750539000000
vertex 94.2541400000000 159.5863200000000 67.1113840000000
endloop
endfacet
facet normal -0.9636538572855 -0.2662371620182 0.0221137264899
outer loop
vertex 94.7855300000000 157.8434200000000 67.1182930000000
vertex 95.1848000000000 156.2746700000000 65.6304627000000
vertex 95.1354900000000 156.6077300000000 67.4915320000000
endloop
endfacet
facet normal -0.9798513546030 -0.1977629910265 -0.0279485645946
outer loop
vertex 95.4065300000000 155.5463700000000 67.2302660000000
vertex 95.6615800000000 154.4172300000000 66.2781962000000
vertex 95.6054400000000 154.4634600000000 67.9192920000000
endloop
endfacet
facet normal -0.9823011106725 -0.1851449692500 -0.0283878201533
outer loop
vertex 95.6615800000000 154.4172300000000 66.2781962000000
vertex 95.8955100000000 153.0501900000000 67.0993540000000
vertex 95.6054400000000 154.4634600000000 67.9192920000000
endloop
endfacet
facet normal -0.9561309699334 -0.2916232070235 -0.0277393846284
outer loop
vertex 94.4881900000000 158.6896200000000 68.4710420000000
vertex 94.2541400000000 159.5863200000000 67.1113840000000
vertex 94.7855300000000 157.8434200000000 67.1182930000000
endloop
endfacet
facet normal -0.9675650918612 -0.2518727888871 0.0194394246292
outer loop
vertex 95.1848000000000 156.2746700000000 65.6304627000000
vertex 95.4065300000000 155.5463700000000 67.2302660000000
vertex 95.1354900000000 156.6077300000000 67.4915320000000
endloop
endfacet
facet normal -0.9475550879744 -0.3163351092724 -0.0455132276971
outer loop
vertex 94.2541400000000 159.5863200000000 67.1113840000000
vertex 94.4881900000000 158.6896200000000 68.4710420000000
vertex 93.9979900000000 160.0856000000000 68.9740610000000
endloop
endfacet
facet normal -0.9748722363255 -0.2203395471676 0.0327811957642
outer loop
vertex 96.3268700000000 146.5213400000000 56.5875320000000
vertex 95.9891100000000 147.9976900000000 56.4662870000000
vertex 96.1285600000000 147.1112900000000 54.6554000000000
endloop
endfacet
facet normal -0.9655927243054 -0.2404285226351 -0.0991202112187
outer loop
vertex 95.4065300000000 155.5463700000000 67.2302660000000
vertex 95.6054400000000 154.4634600000000 67.9192920000000
vertex 95.1477500000000 155.9120900000000 68.8641060000000
endloop
endfacet
facet normal -0.9755731878693 -0.2048854122042 -0.0792396553280
outer loop
vertex 94.2541400000000 159.5863200000000 67.1113840000000
vertex 93.9979900000000 160.0856000000000 68.9740610000000
vertex 93.9124700000000 160.8120600000000 68.1485900000000
endloop
endfacet
facet normal -0.9637652765613 -0.2624594487273 -0.0476605651305
outer loop
vertex 94.8344200000000 157.3883100000000 68.6358880000000
vertex 94.4881900000000 158.6896200000000 68.4710420000000
vertex 94.7855300000000 157.8434200000000 67.1182930000000
endloop
endfacet
facet normal -0.9561644884854 -0.2875368573316 -0.0554258661224
outer loop
vertex 94.8344200000000 157.3883100000000 68.6358880000000
vertex 94.7855300000000 157.8434200000000 67.1182930000000
vertex 95.1354900000000 156.6077300000000 67.4915320000000
endloop
endfacet
facet normal -0.9694961074191 -0.2220142592335 -0.1038603215682
outer loop
vertex 95.1354900000000 156.6077300000000 67.4915320000000
vertex 95.4065300000000 155.5463700000000 67.2302660000000
vertex 95.1477500000000 155.9120900000000 68.8641060000000
endloop
endfacet
facet normal -0.9842217408116 -0.1651214579145 -0.0635804140439
outer loop
vertex 95.8955100000000 153.0501900000000 67.0993540000000
vertex 95.7515300000000 153.3641800000000 68.5127100000000
vertex 95.6054400000000 154.4634600000000 67.9192920000000
endloop
endfacet
facet normal -0.9695483191528 -0.2218300503418 -0.1037664955237
outer loop
vertex 94.8344200000000 157.3883100000000 68.6358880000000
vertex 95.1354900000000 156.6077300000000 67.4915320000000
vertex 95.1477500000000 155.9120900000000 68.8641060000000
endloop
endfacet
facet normal -0.9683042851575 -0.2484870383078 -0.0253180397862
outer loop
vertex 93.8552100000000 161.2224400000000 66.3108092000000
vertex 94.2541400000000 159.5863200000000 67.1113840000000
vertex 93.9124700000000 160.8120600000000 68.1485900000000
endloop
endfacet
facet normal -0.9685452719658 -0.2049204018974 -0.1411654527101
outer loop
vertex 95.7515300000000 153.3641800000000 68.5127100000000
vertex 95.3709600000000 154.4428800000000 69.5579490000000
vertex 95.6054400000000 154.4634600000000 67.9192920000000
endloop
endfacet
facet normal -0.9478688576122 -0.2745678447738 -0.1617316523912
outer loop
vertex 94.4881900000000 158.6896200000000 68.4710420000000
vertex 94.2642400000000 158.9769500000000 69.2957640000000
vertex 93.9979900000000 160.0856000000000 68.9740610000000
endloop
endfacet
facet normal -0.9667209106085 -0.2134628439109 -0.1410116848414
outer loop
vertex 95.6054400000000 154.4634600000000 67.9192920000000
vertex 95.3709600000000 154.4428800000000 69.5579490000000
vertex 95.1477500000000 155.9120900000000 68.8641060000000
endloop
endfacet
facet normal -0.9866279497281 -0.1625060510115 0.0125328448458
outer loop
vertex 95.6615800000000 154.4172300000000 66.2781962000000
vertex 95.6492800000000 154.3576100000000 64.5368410000000
vertex 95.9224800000000 152.7574800000000 65.2961218000000
endloop
endfacet
facet normal -0.9567313161536 -0.2305175162317 -0.1775580564247
outer loop
vertex 94.8344200000000 157.3883100000000 68.6358880000000
vertex 95.1477500000000 155.9120900000000 68.8641060000000
vertex 94.6322200000000 157.0326600000000 70.1871250000000
endloop
endfacet
facet normal -0.9607615771953 -0.2235254409513 -0.1642363206868
outer loop
vertex 95.1477500000000 155.9120900000000 68.8641060000000
vertex 95.3709600000000 154.4428800000000 69.5579490000000
vertex 94.7887800000000 155.8592500000000 71.0359500000000
endloop
endfacet
facet normal -0.9521476718566 -0.2465472615797 -0.1806357073937
outer loop
vertex 94.4309700000000 158.1636100000000 69.7043140000000
vertex 94.8344200000000 157.3883100000000 68.6358880000000
vertex 94.6322200000000 157.0326600000000 70.1871250000000
endloop
endfacet
facet normal -0.9553121088629 -0.2460106613697 -0.1638826688590
outer loop
vertex 94.6322200000000 157.0326600000000 70.1871250000000
vertex 95.1477500000000 155.9120900000000 68.8641060000000
vertex 94.7887800000000 155.8592500000000 71.0359500000000
endloop
endfacet
facet normal -0.9440957073917 -0.2805228702646 -0.1731768302718
outer loop
vertex 94.2642400000000 158.9769500000000 69.2957640000000
vertex 94.4309700000000 158.1636100000000 69.7043140000000
vertex 94.0460200000000 158.9452000000000 70.5368490000000
endloop
endfacet
facet normal -0.9652659316016 -0.2306405282555 -0.1227461934859
outer loop
vertex 95.3709600000000 154.4428800000000 69.5579490000000
vertex 95.7087600000000 152.9035900000000 69.7938490000000
vertex 95.2193200000000 154.1722900000000 71.2588730000000
endloop
endfacet
facet normal -0.9569712835168 -0.2609955266398 -0.1268357110523
outer loop
vertex 94.7887800000000 155.8592500000000 71.0359500000000
vertex 95.3709600000000 154.4428800000000 69.5579490000000
vertex 95.2193200000000 154.1722900000000 71.2588730000000
endloop
endfacet
facet normal -0.9274168957628 -0.2846494020894 -0.2426368054187
outer loop
vertex 93.9415400000000 157.9138700000000 72.1888040000000
vertex 94.3464500000000 156.9407000000000 71.7828140000000
vertex 94.0362500000000 157.0291600000000 72.8646970000000
endloop
endfacet
facet normal -0.9459415532905 -0.2614439729684 -0.1919417275031
outer loop
vertex 94.4309700000000 158.1636100000000 69.7043140000000
vertex 94.2127300000000 157.9274400000000 71.1015480000000
vertex 94.0460200000000 158.9452000000000 70.5368490000000
endloop
endfacet
facet normal -0.9492362181028 -0.2502691256851 -0.1905674866571
outer loop
vertex 94.2127300000000 157.9274400000000 71.1015480000000
vertex 94.4309700000000 158.1636100000000 69.7043140000000
vertex 94.6322200000000 157.0326600000000 70.1871250000000
endloop
endfacet
facet normal -0.9488445167721 -0.2560958032967 -0.1846862813676
outer loop
vertex 94.3464500000000 156.9407000000000 71.7828140000000
vertex 94.2127300000000 157.9274400000000 71.1015480000000
vertex 94.6322200000000 157.0326600000000 70.1871250000000
endloop
endfacet
facet normal -0.9477546116219 -0.2600760328953 -0.1847204733179
outer loop
vertex 94.3464500000000 156.9407000000000 71.7828140000000
vertex 94.6322200000000 157.0326600000000 70.1871250000000
vertex 94.7887800000000 155.8592500000000 71.0359500000000
endloop
endfacet
facet normal -0.9482664746786 -0.2650967777308 -0.1746836896719
outer loop
vertex 94.7887800000000 155.8592500000000 71.0359500000000
vertex 95.2193200000000 154.1722900000000 71.2588730000000
vertex 94.5953900000000 155.4446300000000 72.7149830000000
endloop
endfacet
facet normal -0.9477358616538 -0.2667586877240 -0.1750329656352
outer loop
vertex 94.3464500000000 156.9407000000000 71.7828140000000
vertex 94.7887800000000 155.8592500000000 71.0359500000000
vertex 94.5953900000000 155.4446300000000 72.7149830000000
endloop
endfacet
facet normal -0.9224016246151 -0.3028428093447 -0.2397112340623
outer loop
vertex 94.0362500000000 157.0291600000000 72.8646970000000
vertex 94.3464500000000 156.9407000000000 71.7828140000000
vertex 94.5953900000000 155.4446300000000 72.7149830000000
endloop
endfacet
facet normal -0.9368065714953 -0.2932287977356 0.1908148835435
outer loop
vertex 93.4512100000000 157.5203000000000 60.2186340000000
vertex 92.9773900000000 159.2687700000000 60.5793190000000
vertex 92.8159600000000 158.7000500000000 58.9128150000000
endloop
endfacet
facet normal -0.9907304904567 -0.1158009496781 -0.0710157400376
outer loop
vertex 92.0286700000000 163.7749800000000 49.5955000000000
vertex 92.3308100000000 161.9245800000000 48.3977200000000
vertex 92.1844700000000 161.9205500000000 50.4458600000000
endloop
endfacet
facet normal -0.9234227773823 -0.2705430306359 0.2722073525568
outer loop
vertex 95.2201900000000 154.3015700000000 62.2197540000000
vertex 95.5633200000000 154.2623600000000 63.3448010000000
vertex 95.2383100000000 155.4890400000000 63.4614330000000
endloop
endfacet
facet normal -0.9025031693720 -0.2964004399072 0.3124656917107
outer loop
vertex 94.3941600000000 156.1686600000000 61.6600360000000
vertex 93.7985600000000 158.2742800000000 61.9371090000000
vertex 93.4512100000000 157.5203000000000 60.2186340000000
endloop
endfacet
facet normal -0.9830515905049 -0.1596048357647 -0.0901990399408
outer loop
vertex 95.7515300000000 153.3641800000000 68.5127100000000
vertex 96.0078500000000 151.9530600000000 68.2160970000000
vertex 95.7087600000000 152.9035900000000 69.7938490000000
endloop
endfacet
facet normal -0.9556682193804 -0.2377472800383 0.1737080461601
outer loop
vertex 92.9773900000000 159.2687700000000 60.5793190000000
vertex 92.4303900000000 160.4753900000000 59.2214090000000
vertex 92.8159600000000 158.7000500000000 58.9128150000000
endloop
endfacet
facet normal -0.9542761270280 -0.2979397950828 0.0242683310172
outer loop
vertex 93.6531700000000 155.4955500000000 51.3980600000000
vertex 93.7424600000000 155.0613100000000 49.5779900000000
vertex 94.1629900000000 153.8296400000000 50.9929300000000
endloop
endfacet
facet normal -0.9182667414915 -0.2070471839637 0.3375168959969
outer loop
vertex 92.9773900000000 159.2687700000000 60.5793190000000
vertex 93.3650600000000 159.8298300000000 61.9782130000000
vertex 92.7531400000000 160.9965600000000 61.0291120000000
endloop
endfacet
facet normal -0.9574604810531 -0.1824659032759 0.2235522788147
outer loop
vertex 92.4303900000000 160.4753900000000 59.2214090000000
vertex 92.9773900000000 159.2687700000000 60.5793190000000
vertex 92.7531400000000 160.9965600000000 61.0291120000000
endloop
endfacet
endsolid WRAP
