solid WRAP
facet normal 0.8786161538849 -0.4748392016351 -0.0506101444676
outer loop
vertex 198.2760374816857 188.9458419380694 90.8107309500296
vertex 198.4895841231019 189.6086865401103 88.2989998687964
vertex 199.9600733237893 192.1463642395607 90.0181554637518
endloop
endfacet
facet normal 0.9796141487088 -0.1635981958023 -0.1165836608608
outer loop
vertex 204.8640616972605 204.2836686718981 95.0826571527114
vertex 204.7874261843624 207.3129955742727 90.1877546917766
vertex 205.5348035374422 208.1182019333099 95.3377998823387
endloop
endfacet
facet normal 0.9600241681784 -0.2507088728033 -0.1244936046996
outer loop
vertex 203.7941367703378 202.1274907687215 89.9158824233483
vertex 202.3890628477956 198.7527426025305 85.8769149905206
vertex 203.6639632961768 203.3109976293811 86.5286774881338
endloop
endfacet
facet normal 0.8862833530811 -0.4550040284373 -0.0864473953174
outer loop
vertex 199.9600733237893 192.1463642395607 90.0181554637518
vertex 198.4895841231019 189.6086865401103 88.2989998687964
vertex 199.7920823417993 192.6103040547455 85.8539803102361
endloop
endfacet
facet normal 0.9022713689522 -0.3807184220238 -0.2023854241316
outer loop
vertex 202.3890628477956 198.7527426025305 85.8769149905206
vertex 199.7920823417993 192.6103040547455 85.8539803102361
vertex 201.3191806510133 197.7738580643176 82.9486176582429
endloop
endfacet
facet normal 0.9053824040211 -0.4180097265340 -0.0745021544120
outer loop
vertex 200.1005642629773 189.7608310974008 101.3088825970329
vertex 199.8201983650159 190.1032174758435 95.9807254416272
vertex 202.1357859502546 195.0234883310861 96.5145513462006
endloop
endfacet
facet normal 0.8598042656252 -0.4888992435310 -0.1473572342558
outer loop
vertex 198.2760374816857 188.9458419380694 90.8107309500296
vertex 199.9600733237893 192.1463642395607 90.0181554637518
vertex 199.8201983650159 190.1032174758435 95.9807254416272
endloop
endfacet
facet normal 0.8973478872310 -0.4331664173944 -0.0844607845316
outer loop
vertex 199.9600733237893 192.1463642395607 90.0181554637518
vertex 199.7920823417993 192.6103040547455 85.8539803102361
vertex 201.4091260454328 195.2204181187807 89.6478947840850
endloop
endfacet
facet normal 0.9600413895902 -0.2507423383240 -0.1242932421554
outer loop
vertex 203.6639632961768 203.3109976293811 86.5286774881338
vertex 202.3890628477956 198.7527426025305 85.8769149905206
vertex 203.0399783163549 202.4577794761205 83.4302508513811
endloop
endfacet
facet normal 0.9573883286968 -0.2670752504819 -0.1099017682072
outer loop
vertex 202.3890628477956 198.7527426025305 85.8769149905206
vertex 203.7941367703378 202.1274907687215 89.9158824233483
vertex 202.8022370785995 198.4596628939610 90.1884245376078
endloop
endfacet
facet normal 0.9953263473063 -0.0957925151070 -0.0122170539608
outer loop
vertex 206.4495341803770 213.5112085899251 102.5560069340095
vertex 206.3914507367011 212.3391506863177 107.0139059315615
vertex 205.9467361508414 208.2727633321901 102.6669764298070
endloop
endfacet
facet normal 0.9091465022693 -0.4112892094859 -0.0655272734966
outer loop
vertex 201.9670258771603 193.5968709782540 103.1274419791516
vertex 200.1005642629773 189.7608310974008 101.3088825970329
vertex 202.1357859502546 195.0234883310861 96.5145513462006
endloop
endfacet
facet normal 0.9906362389559 -0.1282751237088 0.0467475636245
outer loop
vertex 206.3914507367011 212.3391506863177 107.0139059315615
vertex 205.9226905814732 210.5474820534213 112.0311573866597
vertex 205.2116415712458 203.9038066228865 108.8689097941404
endloop
endfacet
facet normal 0.9754248171519 -0.1801962299834 -0.1267901604382
outer loop
vertex 204.7874261843624 207.3129955742727 90.1877546917766
vertex 204.8640616972605 204.2836686718981 95.0826571527114
vertex 203.7941367703378 202.1274907687215 89.9158824233483
endloop
endfacet
facet normal 0.9709648551663 -0.2388952391348 -0.0125025897576
outer loop
vertex 205.2116415712458 203.9038066228865 108.8689097941404
vertex 204.0859828848918 199.7113705660603 101.5566640288909
vertex 205.3218278241750 204.7314344104242 101.6120645435888
endloop
endfacet
facet normal 0.9397760821710 -0.3382614158317 -0.0489911210213
outer loop
vertex 204.0859828848918 199.7113705660603 101.5566640288909
vertex 201.9670258771603 193.5968709782540 103.1274419791516
vertex 202.1357859502546 195.0234883310861 96.5145513462006
endloop
endfacet
facet normal 0.9907822466361 -0.1334196316525 0.0234465699094
outer loop
vertex 205.9467361508414 208.2727633321901 102.6669764298070
vertex 206.3914507367011 212.3391506863177 107.0139059315615
vertex 205.2116415712458 203.9038066228865 108.8689097941404
endloop
endfacet
facet normal 0.8943022677867 -0.4344574594603 -0.1070988783833
outer loop
vertex 202.1357859502546 195.0234883310861 96.5145513462006
vertex 199.9600733237893 192.1463642395607 90.0181554637518
vertex 201.4091260454328 195.2204181187807 89.6478947840850
endloop
endfacet
facet normal 0.9032211805022 -0.4120555171111 -0.1200072910719
outer loop
vertex 199.8201983650159 190.1032174758435 95.9807254416272
vertex 199.9600733237893 192.1463642395607 90.0181554637518
vertex 202.1357859502546 195.0234883310861 96.5145513462006
endloop
endfacet
facet normal 0.9433796321121 -0.3258910337421 -0.0618862169024
outer loop
vertex 204.0859828848918 199.7113705660603 101.5566640288909
vertex 202.1357859502546 195.0234883310861 96.5145513462006
vertex 203.6310610830167 199.8353898220091 93.9688561272004
endloop
endfacet
facet normal 0.9206709198354 -0.3144603033824 -0.2312569457684
outer loop
vertex 202.3890628477956 198.7527426025305 85.8769149905206
vertex 201.3191806510133 197.7738580643176 82.9486176582429
vertex 203.0399783163549 202.4577794761205 83.4302508513811
endloop
endfacet
facet normal 0.9850132049463 -0.1724146955391 -0.0047073180824
outer loop
vertex 205.9467361508414 208.2727633321901 102.6669764298070
vertex 205.2116415712458 203.9038066228865 108.8689097941404
vertex 205.3218278241750 204.7314344104242 101.6120645435888
endloop
endfacet
facet normal 0.9650535082589 -0.2428354466269 -0.0985021424068
outer loop
vertex 203.7941367703378 202.1274907687215 89.9158824233483
vertex 204.8640616972605 204.2836686718981 95.0826571527114
vertex 203.6310610830167 199.8353898220091 93.9688561272004
endloop
endfacet
facet normal 0.9656988981007 -0.2521493052537 -0.0620190782523
outer loop
vertex 204.8640616972605 204.2836686718981 95.0826571527114
vertex 204.0859828848918 199.7113705660603 101.5566640288909
vertex 203.6310610830167 199.8353898220091 93.9688561272004
endloop
endfacet
facet normal 0.8299653799761 -0.5433381593638 -0.1262581190273
outer loop
vertex 198.2760374816857 188.9458419380694 90.8107309500296
vertex 199.8201983650159 190.1032174758435 95.9807254416272
vertex 196.2729483528860 185.6079721477570 92.0074650635911
endloop
endfacet
facet normal 0.9382439167139 -0.3357415297800 -0.0835223199536
outer loop
vertex 202.1357859502546 195.0234883310861 96.5145513462006
vertex 202.8022370785995 198.4596628939610 90.1884245376078
vertex 203.6310610830167 199.8353898220091 93.9688561272004
endloop
endfacet
facet normal 0.9782516006183 -0.1307862843612 -0.1609930237951
outer loop
vertex 203.6639632961768 203.3109976293811 86.5286774881338
vertex 203.0399783163549 202.4577794761205 83.4302508513811
vertex 204.1093001888565 207.6307804392981 85.7254326528624
endloop
endfacet
facet normal 0.9194333003901 -0.3764503285977 -0.1136994117505
outer loop
vertex 201.4091260454328 195.2204181187807 89.6478947840850
vertex 202.3890628477956 198.7527426025305 85.8769149905206
vertex 202.8022370785995 198.4596628939610 90.1884245376078
endloop
endfacet
facet normal 0.9570455465458 -0.2671825642293 -0.1125935131730
outer loop
vertex 202.8022370785995 198.4596628939610 90.1884245376078
vertex 203.7941367703378 202.1274907687215 89.9158824233483
vertex 203.6310610830167 199.8353898220091 93.9688561272004
endloop
endfacet
facet normal 0.9927274947654 -0.0968003185614 -0.0715668880367
outer loop
vertex 206.4495341803770 213.5112085899251 102.5560069340095
vertex 205.9467361508414 208.2727633321901 102.6669764298070
vertex 205.9346417068712 211.8350302419286 97.6809407292820
endloop
endfacet
facet normal 0.9881784825094 -0.0797411663934 -0.1309375159673
outer loop
vertex 205.5348035374422 208.1182019333099 95.3377998823387
vertex 204.7874261843624 207.3129955742727 90.1877546917766
vertex 205.4049789558333 210.6952432332707 92.7885981911059
endloop
endfacet
facet normal 0.9840585780006 -0.1683103612157 -0.0574485628269
outer loop
vertex 204.8640616972605 204.2836686718981 95.0826571527114
vertex 205.5348035374422 208.1182019333099 95.3377998823387
vertex 205.3218278241750 204.7314344104242 101.6120645435888
endloop
endfacet
facet normal 0.9141134987305 -0.3860177053691 -0.1240437123773
outer loop
vertex 199.7920823417993 192.6103040547455 85.8539803102361
vertex 202.3890628477956 198.7527426025305 85.8769149905206
vertex 201.4091260454328 195.2204181187807 89.6478947840850
endloop
endfacet
facet normal 0.9859885144449 -0.1584766534070 -0.0520749431842
outer loop
vertex 205.5348035374422 208.1182019333099 95.3377998823387
vertex 205.9467361508414 208.2727633321901 102.6669764298070
vertex 205.3218278241750 204.7314344104242 101.6120645435888
endloop
endfacet
facet normal 0.9780691282561 -0.1820446624331 -0.1011954605307
outer loop
vertex 204.7874261843624 207.3129955742727 90.1877546917766
vertex 203.7941367703378 202.1274907687215 89.9158824233483
vertex 203.6639632961768 203.3109976293811 86.5286774881338
endloop
endfacet
facet normal 0.9788016068915 -0.1302909643084 -0.1580242986574
outer loop
vertex 204.7874261843624 207.3129955742727 90.1877546917766
vertex 203.6639632961768 203.3109976293811 86.5286774881338
vertex 204.1093001888565 207.6307804392981 85.7254326528624
endloop
endfacet
facet normal 0.9196796464078 -0.3774822297005 -0.1081504241490
outer loop
vertex 202.1357859502546 195.0234883310861 96.5145513462006
vertex 201.4091260454328 195.2204181187807 89.6478947840850
vertex 202.8022370785995 198.4596628939610 90.1884245376078
endloop
endfacet
facet normal 0.9698443510525 -0.2381872570583 -0.0516600939464
outer loop
vertex 204.0859828848918 199.7113705660603 101.5566640288909
vertex 204.8640616972605 204.2836686718981 95.0826571527114
vertex 205.3218278241750 204.7314344104242 101.6120645435888
endloop
endfacet
facet normal 0.9942323989145 -0.0458281534312 -0.0969624530512
outer loop
vertex 205.9346417068712 211.8350302419286 97.6809407292820
vertex 205.5348035374422 208.1182019333099 95.3377998823387
vertex 205.4049789558333 210.6952432332707 92.7885981911059
endloop
endfacet
facet normal 0.9958589616161 -0.0728122533241 -0.0544362410050
outer loop
vertex 205.9467361508414 208.2727633321901 102.6669764298070
vertex 205.5348035374422 208.1182019333099 95.3377998823387
vertex 205.9346417068712 211.8350302419286 97.6809407292820
endloop
endfacet
endsolid WRAP
