solid WRAP
facet normal 0.8990839297573 -0.4356295723681 0.0433008421460
outer loop
vertex 178.6694768621883 146.6993246894241 136.4739965511228
vertex 179.5104425062281 148.4179995781353 136.3032587811692
vertex 179.7734688103118 149.2319281363394 139.0304257550922
endloop
endfacet
facet normal 0.8609710044313 -0.4782114448409 -0.1733284268426
outer loop
vertex 189.2861478577753 169.2706277470908 128.0483382895854
vertex 187.0005688051289 163.8951133677665 131.5262167681271
vertex 185.8465950478462 163.8131010481490 126.0203760216307
endloop
endfacet
facet normal 0.8648201858374 -0.4778879480071 -0.1539777754016
outer loop
vertex 181.4267386013864 153.2164410782300 132.9134222080524
vertex 183.5518471411426 156.0347118956651 136.1023181582858
vertex 180.8827856760501 150.9958924281265 136.7500276293924
endloop
endfacet
facet normal 0.9191336723195 -0.3912144372745 -0.0463093562511
outer loop
vertex 190.1598955727258 170.0244573607122 132.9436983466381
vertex 190.4892499540816 170.1858452710874 138.1172408202278
vertex 188.4014114879159 165.6074518539027 135.3560486413068
endloop
endfacet
facet normal 0.8844342129197 -0.4484597858361 -0.1290734035533
outer loop
vertex 180.8827856760501 150.9958924281265 136.7500276293924
vertex 179.5104425062281 148.4179995781353 136.3032587811692
vertex 179.4423428597438 149.3129158069187 132.7272811991612
endloop
endfacet
facet normal 0.8575504170511 -0.5059410999665 -0.0929025595999
outer loop
vertex 189.2861478577753 169.2706277470908 128.0483382895854
vertex 185.8465950478462 163.8131010481490 126.0203760216307
vertex 188.3606327197269 168.5811957147672 123.2598384489924
endloop
endfacet
facet normal 0.8646235581500 -0.4931414508127 -0.0961124975348
outer loop
vertex 191.5243085319936 173.8211983414518 124.8343073675086
vertex 189.2861478577753 169.2706277470908 128.0483382895854
vertex 188.3606327197269 168.5811957147672 123.2598384489924
endloop
endfacet
facet normal 0.8360552184448 -0.5277165549416 -0.1500896710362
outer loop
vertex 188.3606327197269 168.5811957147672 123.2598384489924
vertex 185.8465950478462 163.8131010481490 126.0203760216307
vertex 185.9908920713519 165.9535501744369 119.2983267794755
endloop
endfacet
facet normal 0.8237195023866 -0.4997296721254 -0.2678739184496
outer loop
vertex 182.2470741028948 156.2273925706002 129.7648884097617
vertex 182.7130719205574 158.9853254921333 126.0528083763694
vertex 184.5052686192134 160.1196993450510 129.4476409321967
endloop
endfacet
facet normal 0.8886310157539 -0.4576921102085 -0.0292035972617
outer loop
vertex 192.6521631211100 175.7189422766074 129.4112826502062
vertex 189.2861478577753 169.2706277470908 128.0483382895854
vertex 191.5243085319936 173.8211983414518 124.8343073675086
endloop
endfacet
facet normal 0.8618188659579 -0.4249058038820 -0.2769897111924
outer loop
vertex 181.4267386013864 153.2164410782300 132.9134222080524
vertex 179.4423428597438 149.3129158069187 132.7272811991612
vertex 180.0970873334015 152.5284006070519 129.8318414709538
endloop
endfacet
facet normal 0.8862072168315 -0.4442429058983 -0.1314724662993
outer loop
vertex 181.4267386013864 153.2164410782300 132.9134222080524
vertex 180.8827856760501 150.9958924281265 136.7500276293924
vertex 179.4423428597438 149.3129158069187 132.7272811991612
endloop
endfacet
facet normal 0.9254521590577 -0.3150971129486 -0.2103618565872
outer loop
vertex 179.4423428597438 149.3129158069187 132.7272811991612
vertex 178.7189166770178 146.5693557879479 133.6542150151091
vertex 178.3130153914539 147.6941826983447 130.1836622021298
endloop
endfacet
facet normal 0.8510328886215 -0.5247541318654 -0.0193939056102
outer loop
vertex 182.1557950301524 153.6174759551770 140.2463151642470
vertex 183.5518471411426 156.0347118956651 136.1023181582858
vertex 185.2097023479776 158.6045299894044 139.3181037772582
endloop
endfacet
facet normal 0.9171057853779 -0.3986190110072 0.0044567353664
outer loop
vertex 190.1598955727258 170.0244573607122 132.9436983466381
vertex 192.6521631211100 175.7189422766074 129.4112826502062
vertex 193.0260463610965 176.6513896103942 135.8735805420840
endloop
endfacet
facet normal 0.8425828598918 -0.4018226430394 -0.3585982260934
outer loop
vertex 178.6112037560472 151.7642009704576 127.1968387087228
vertex 180.0970873334015 152.5284006070519 129.8318414709538
vertex 178.7154651297348 149.8561108039219 129.5799031471682
endloop
endfacet
facet normal 0.8785696223421 -0.4715058732253 -0.0761421710464
outer loop
vertex 185.2097023479776 158.6045299894044 139.3181037772582
vertex 183.5518471411426 156.0347118956651 136.1023181582858
vertex 186.2099709728675 161.0460972484643 135.7404848209385
endloop
endfacet
facet normal 0.8454107808754 -0.4784972401799 -0.2373204641825
outer loop
vertex 181.4267386013864 153.2164410782300 132.9134222080524
vertex 182.2470741028948 156.2273925706002 129.7648884097617
vertex 184.1248863224084 158.0196006886319 132.8407127346662
endloop
endfacet
facet normal 0.8349340501780 -0.4898348489291 -0.2508923128116
outer loop
vertex 182.2470741028948 156.2273925706002 129.7648884097617
vertex 181.4267386013864 153.2164410782300 132.9134222080524
vertex 180.0970873334015 152.5284006070519 129.8318414709538
endloop
endfacet
facet normal 0.9239333055784 -0.2778841485833 -0.2629213700122
outer loop
vertex 178.6112037560472 151.7642009704576 127.1968387087228
vertex 178.7154651297348 149.8561108039219 129.5799031471682
vertex 177.8774641905831 148.7521790322653 127.8018360493670
endloop
endfacet
facet normal 0.9780600014929 0.0059781167094 -0.2082375941089
outer loop
vertex 177.8774641905831 148.7521790322653 127.8018360493670
vertex 177.3085433139837 147.9064643354911 125.1054231514983
vertex 177.1745852158460 150.3668054297318 124.5468743843751
endloop
endfacet
facet normal 0.9263838169088 -0.2508797497414 -0.2808422598884
outer loop
vertex 178.7154651297348 149.8561108039219 129.5799031471682
vertex 178.3130153914539 147.6941826983447 130.1836622021298
vertex 177.8774641905831 148.7521790322653 127.8018360493670
endloop
endfacet
facet normal 0.9553358682304 -0.2818849536337 -0.0887369809457
outer loop
vertex 179.4423428597438 149.3129158069187 132.7272811991612
vertex 179.5104425062281 148.4179995781353 136.3032587811692
vertex 178.7189166770178 146.5693557879479 133.6542150151091
endloop
endfacet
facet normal 0.9780420562399 0.0318086465971 -0.2059658860773
outer loop
vertex 178.3130153914539 147.6941826983447 130.1836622021298
vertex 178.1749591330176 145.7382879295489 129.2260318094667
vertex 177.7439124404772 147.1312091904853 127.3942971442449
endloop
endfacet
facet normal 0.8227910807383 -0.5394022082112 0.1790533306989
outer loop
vertex 178.6694768621883 146.6993246894241 136.4739965511228
vertex 179.7734688103118 149.2319281363394 139.0304257550922
vertex 178.5227560407373 147.1450075711000 138.4908421042150
endloop
endfacet
facet normal 0.8721313862396 -0.4869526916669 0.0475806811023
outer loop
vertex 179.7734688103118 149.2319281363394 139.0304257550922
vertex 180.8827856760501 150.9958924281265 136.7500276293924
vertex 182.1557950301524 153.6174759551770 140.2463151642470
endloop
endfacet
facet normal 0.9342351653888 -0.2460233853358 -0.2582191890987
outer loop
vertex 179.4423428597438 149.3129158069187 132.7272811991612
vertex 178.3130153914539 147.6941826983447 130.1836622021298
vertex 178.7154651297348 149.8561108039219 129.5799031471682
endloop
endfacet
facet normal 0.9805591864864 -0.0321198432872 -0.1935768515717
outer loop
vertex 177.8774641905831 148.7521790322653 127.8018360493670
vertex 178.3130153914539 147.6941826983447 130.1836622021298
vertex 177.7439124404772 147.1312091904853 127.3942971442449
endloop
endfacet
facet normal 0.9961561085762 -0.0300232814017 -0.0822897923212
outer loop
vertex 178.1749591330176 145.7382879295489 129.2260318094667
vertex 178.3130153914539 147.6941826983447 130.1836622021298
vertex 178.3240459547448 145.7382867163942 131.0307973873756
endloop
endfacet
facet normal 0.8143688075599 -0.4792641568201 -0.3272755922171
outer loop
vertex 182.2470741028948 156.2273925706002 129.7648884097617
vertex 180.0970873334015 152.5284006070519 129.8318414709538
vertex 180.0454767217260 154.9933148380691 126.0937835713039
endloop
endfacet
facet normal 0.8617674852203 -0.4862808183999 -0.1445260082936
outer loop
vertex 183.5518471411426 156.0347118956651 136.1023181582858
vertex 181.4267386013864 153.2164410782300 132.9134222080524
vertex 184.1248863224084 158.0196006886319 132.8407127346662
endloop
endfacet
facet normal 0.8990590707761 -0.4363550329064 0.0358757928472
outer loop
vertex 179.5104425062281 148.4179995781353 136.3032587811692
vertex 178.6694768621883 146.6993246894241 136.4739965511228
vertex 178.7189166770178 146.5693557879479 133.6542150151091
endloop
endfacet
facet normal 0.8930773603937 -0.4378020871205 -0.1036443962074
outer loop
vertex 186.2099709728675 161.0460972484643 135.7404848209385
vertex 188.4014114879159 165.6074518539027 135.3560486413068
vertex 188.5408331693093 164.7374998833208 140.2321553495218
endloop
endfacet
facet normal 0.8809238730591 -0.4676201586651 -0.0728321157499
outer loop
vertex 185.2097023479776 158.6045299894044 139.3181037772582
vertex 186.2099709728675 161.0460972484643 135.7404848209385
vertex 188.5408331693093 164.7374998833208 140.2321553495218
endloop
endfacet
facet normal 0.8936029383969 -0.4393627374330 -0.0918377560913
outer loop
vertex 187.0005688051289 163.8951133677665 131.5262167681271
vertex 189.2861478577753 169.2706277470908 128.0483382895854
vertex 190.1598955727258 170.0244573607122 132.9436983466381
endloop
endfacet
facet normal 0.8364471935789 -0.5030132443127 -0.2175632514924
outer loop
vertex 182.2470741028948 156.2273925706002 129.7648884097617
vertex 184.5052686192134 160.1196993450510 129.4476409321967
vertex 184.1248863224084 158.0196006886319 132.8407127346662
endloop
endfacet
facet normal 0.9898180836288 -0.0518340228271 -0.1325646838304
outer loop
vertex 178.3130153914539 147.6941826983447 130.1836622021298
vertex 178.7189166770178 146.5693557879479 133.6542150151091
vertex 178.3240459547448 145.7382867163942 131.0307973873756
endloop
endfacet
facet normal 0.8770542174469 -0.4769081567534 0.0577452134878
outer loop
vertex 179.7734688103118 149.2319281363394 139.0304257550922
vertex 179.5104425062281 148.4179995781353 136.3032587811692
vertex 180.8827856760501 150.9958924281265 136.7500276293924
endloop
endfacet
facet normal 0.8931076879793 -0.4291750210121 -0.1347867167471
outer loop
vertex 187.0005688051289 163.8951133677665 131.5262167681271
vertex 190.1598955727258 170.0244573607122 132.9436983466381
vertex 188.4014114879159 165.6074518539027 135.3560486413068
endloop
endfacet
facet normal 0.8110263783951 -0.5280968260863 -0.2516941712176
outer loop
vertex 182.7130719205574 158.9853254921333 126.0528083763694
vertex 185.8465950478462 163.8131010481490 126.0203760216307
vertex 184.5052686192134 160.1196993450510 129.4476409321967
endloop
endfacet
facet normal 0.8640073744946 -0.4656904378888 -0.1913731247533
outer loop
vertex 184.5052686192134 160.1196993450510 129.4476409321967
vertex 187.0005688051289 163.8951133677665 131.5262167681271
vertex 184.1248863224084 158.0196006886319 132.8407127346662
endloop
endfacet
facet normal 0.8847829859559 -0.4652382090368 0.0266922575911
outer loop
vertex 180.8827856760501 150.9958924281265 136.7500276293924
vertex 183.5518471411426 156.0347118956651 136.1023181582858
vertex 182.1557950301524 153.6174759551770 140.2463151642470
endloop
endfacet
facet normal 0.8714044518211 -0.4718881570365 -0.1340740414662
outer loop
vertex 186.2099709728675 161.0460972484643 135.7404848209385
vertex 183.5518471411426 156.0347118956651 136.1023181582858
vertex 184.1248863224084 158.0196006886319 132.8407127346662
endloop
endfacet
facet normal 0.8649231699363 -0.4214906274470 -0.2724950661600
outer loop
vertex 180.0970873334015 152.5284006070519 129.8318414709538
vertex 179.4423428597438 149.3129158069187 132.7272811991612
vertex 178.7154651297348 149.8561108039219 129.5799031471682
endloop
endfacet
facet normal 0.8628644955285 -0.4746217509503 -0.1737787555522
outer loop
vertex 185.8465950478462 163.8131010481490 126.0203760216307
vertex 187.0005688051289 163.8951133677665 131.5262167681271
vertex 184.5052686192134 160.1196993450510 129.4476409321967
endloop
endfacet
facet normal 0.9799138177600 -0.0312152777968 -0.1969632356436
outer loop
vertex 177.3085433139837 147.9064643354911 125.1054231514983
vertex 177.8774641905831 148.7521790322653 127.8018360493670
vertex 177.7439124404772 147.1312091904853 127.3942971442449
endloop
endfacet
facet normal 0.8748940982882 -0.4612459300787 -0.1476905845551
outer loop
vertex 187.0005688051289 163.8951133677665 131.5262167681271
vertex 186.2099709728675 161.0460972484643 135.7404848209385
vertex 184.1248863224084 158.0196006886319 132.8407127346662
endloop
endfacet
facet normal 0.8894894250401 -0.4382495298388 -0.1294059980754
outer loop
vertex 187.0005688051289 163.8951133677665 131.5262167681271
vertex 188.4014114879159 165.6074518539027 135.3560486413068
vertex 186.2099709728675 161.0460972484643 135.7404848209385
endloop
endfacet
facet normal 0.8905707718193 -0.4457895969001 -0.0903068971718
outer loop
vertex 190.1598955727258 170.0244573607122 132.9436983466381
vertex 189.2861478577753 169.2706277470908 128.0483382895854
vertex 192.6521631211100 175.7189422766074 129.4112826502062
endloop
endfacet
facet normal 0.9242256404129 -0.3789411902208 -0.0470163796718
outer loop
vertex 190.4892499540816 170.1858452710874 138.1172408202278
vertex 190.1598955727258 170.0244573607122 132.9436983466381
vertex 193.0260463610965 176.6513896103942 135.8735805420840
endloop
endfacet
facet normal 0.9257711823145 -0.3667448399391 -0.0919017974473
outer loop
vertex 188.4014114879159 165.6074518539027 135.3560486413068
vertex 190.4892499540816 170.1858452710874 138.1172408202278
vertex 188.5408331693093 164.7374998833208 140.2321553495218
endloop
endfacet
facet normal 0.9150262215229 -0.4033600554769 0.0052611378304
outer loop
vertex 193.0260463610965 176.6513896103942 135.8735805420840
vertex 192.6521631211100 175.7189422766074 129.4112826502062
vertex 195.0005489153817 181.0656006658427 130.8926816819226
endloop
endfacet
facet normal 0.9192877549658 -0.3932649327342 0.0158970516629
outer loop
vertex 193.0260463610965 176.6513896103942 135.8735805420840
vertex 195.0005489153817 181.0656006658427 130.8926816819226
vertex 194.7507709527012 180.6849114345699 135.9191544718422
endloop
endfacet
facet normal 0.9187650053855 -0.3944894282588 0.0157783354955
outer loop
vertex 195.0005489153817 181.0656006658427 130.8926816819226
vertex 196.0923630815064 183.7598730462091 134.6789697033549
vertex 194.7507709527012 180.6849114345699 135.9191544718422
endloop
endfacet
facet normal 0.8249187066545 -0.5276976316994 0.2025940199276
outer loop
vertex 182.1557950301524 153.6174759551770 140.2463151642470
vertex 180.8944360740188 153.3811620581242 144.7667660405146
vertex 179.3405646586160 149.6289620547597 141.3204182293312
endloop
endfacet
facet normal 0.8566403989704 -0.5095926715293 0.0805141973534
outer loop
vertex 182.1557950301524 153.6174759551770 140.2463151642470
vertex 185.2097023479776 158.6045299894044 139.3181037772582
vertex 184.4463319735419 158.0933871734225 144.2049346955674
endloop
endfacet
facet normal 0.8219849573490 -0.5143249512714 0.2445620052086
outer loop
vertex 179.7734688103118 149.2319281363394 139.0304257550922
vertex 182.1557950301524 153.6174759551770 140.2463151642470
vertex 179.3405646586160 149.6289620547597 141.3204182293312
endloop
endfacet
facet normal 0.8020371879635 -0.5442691079465 0.2459826970716
outer loop
vertex 178.5227560407373 147.1450075711000 138.4908421042150
vertex 179.7734688103118 149.2319281363394 139.0304257550922
vertex 179.3405646586160 149.6289620547597 141.3204182293312
endloop
endfacet
facet normal 0.8701737650789 -0.4853291174255 0.0851661103220
outer loop
vertex 185.2097023479776 158.6045299894044 139.3181037772582
vertex 188.5408331693093 164.7374998833208 140.2321553495218
vertex 184.4463319735419 158.0933871734225 144.2049346955674
endloop
endfacet
facet normal 0.7946054712860 -0.5760985414155 0.1916053641769
outer loop
vertex 180.8944360740188 153.3811620581242 144.7667660405146
vertex 182.1557950301524 153.6174759551770 140.2463151642470
vertex 184.4463319735419 158.0933871734225 144.2049346955674
endloop
endfacet
facet normal 0.9267339606513 -0.3717681338990 0.0543380234525
outer loop
vertex 196.0923630815064 183.7598730462091 134.6789697033549
vertex 197.0544623599215 186.3871750565660 136.2457747754694
vertex 195.6386868292551 183.1590683158968 138.3058431918382
endloop
endfacet
facet normal 0.9228609904077 -0.3815753233311 0.0522289671395
outer loop
vertex 194.7507709527012 180.6849114345699 135.9191544718422
vertex 196.0923630815064 183.7598730462091 134.6789697033549
vertex 195.6386868292551 183.1590683158968 138.3058431918382
endloop
endfacet
facet normal 0.9256400892601 -0.3757065407932 0.0451111999366
outer loop
vertex 194.7507709527012 180.6849114345699 135.9191544718422
vertex 195.6386868292551 183.1590683158968 138.3058431918382
vertex 193.7772679227411 178.7545031944911 139.8172203533869
endloop
endfacet
facet normal 0.9187731992805 -0.3932574134590 0.0347046833079
outer loop
vertex 193.0260463610965 176.6513896103942 135.8735805420840
vertex 194.7507709527012 180.6849114345699 135.9191544718422
vertex 193.7772679227411 178.7545031944911 139.8172203533869
endloop
endfacet
facet normal 0.9480641553589 -0.3075757909427 0.0810647281469
outer loop
vertex 188.5408331693093 164.7374998833208 140.2321553495218
vertex 190.4892499540816 170.1858452710874 138.1172408202278
vertex 189.9649125453960 169.5170212717147 141.7117934517015
endloop
endfacet
facet normal 0.9037620107059 -0.3942925853990 0.1665760640195
outer loop
vertex 188.4103347194748 167.3469747324562 145.0095969181629
vertex 189.9649125453960 169.5170212717147 141.7117934517015
vertex 190.3751342744342 171.5228224725861 144.2339428919005
endloop
endfacet
facet normal 0.9283027441136 -0.3656705318684 0.0673726754275
outer loop
vertex 189.9649125453960 169.5170212717147 141.7117934517015
vertex 190.4892499540816 170.1858452710874 138.1172408202278
vertex 191.7211825306325 173.8142473612000 140.8363451097131
endloop
endfacet
facet normal 0.9268393160974 -0.3524122876628 0.1295162601389
outer loop
vertex 190.3751342744342 171.5228224725861 144.2339428919005
vertex 189.9649125453960 169.5170212717147 141.7117934517015
vertex 191.7211825306325 173.8142473612000 140.8363451097131
endloop
endfacet
facet normal 0.8839680161982 -0.4011240145799 0.2402083913314
outer loop
vertex 184.4463319735419 158.0933871734225 144.2049346955674
vertex 188.5408331693093 164.7374998833208 140.2321553495218
vertex 185.8278171858461 162.3155892218661 146.1717181659234
endloop
endfacet
facet normal 0.9248225680459 -0.3794945473980 0.0262127092884
outer loop
vertex 193.0260463610965 176.6513896103942 135.8735805420840
vertex 193.7772679227411 178.7545031944911 139.8172203533869
vertex 191.7211825306325 173.8142473612000 140.8363451097131
endloop
endfacet
facet normal 0.9351826795604 -0.3512872540269 0.0450624123680
outer loop
vertex 190.4892499540816 170.1858452710874 138.1172408202278
vertex 193.0260463610965 176.6513896103942 135.8735805420840
vertex 191.7211825306325 173.8142473612000 140.8363451097131
endloop
endfacet
facet normal 0.9173498641972 -0.3382884458814 0.2098336341975
outer loop
vertex 188.5408331693093 164.7374998833208 140.2321553495218
vertex 189.9649125453960 169.5170212717147 141.7117934517015
vertex 188.4103347194748 167.3469747324562 145.0095969181629
endloop
endfacet
facet normal 0.8848165508017 -0.3983249056206 0.2417373388404
outer loop
vertex 188.5408331693093 164.7374998833208 140.2321553495218
vertex 188.4103347194748 167.3469747324562 145.0095969181629
vertex 185.8278171858461 162.3155892218661 146.1717181659234
endloop
endfacet
facet normal 0.7811847023614 -0.5995234408533 -0.1741324342678
outer loop
vertex 185.9908920713519 165.9535501744369 119.2983267794755
vertex 185.8465950478462 163.8131010481490 126.0203760216307
vertex 182.8447088725986 161.1018378764665 121.8881089019919
endloop
endfacet
facet normal 0.8974817795980 -0.2860594279059 -0.3357029326589
outer loop
vertex 178.6112037560472 151.7642009704576 127.1968387087228
vertex 177.8774641905831 148.7521790322653 127.8018360493670
vertex 177.1745852158460 150.3668054297318 124.5468743843751
endloop
endfacet
facet normal 0.8185701904579 -0.4742762714915 -0.3240445364357
outer loop
vertex 180.0970873334015 152.5284006070519 129.8318414709538
vertex 178.6112037560472 151.7642009704576 127.1968387087228
vertex 180.0454767217260 154.9933148380691 126.0937835713039
endloop
endfacet
facet normal 0.8128586449351 -0.5292294420707 -0.2432632750742
outer loop
vertex 185.8465950478462 163.8131010481490 126.0203760216307
vertex 182.7130719205574 158.9853254921333 126.0528083763694
vertex 182.8447088725986 161.1018378764665 121.8881089019919
endloop
endfacet
facet normal 0.7927039530934 -0.5327526621363 -0.2963022843936
outer loop
vertex 182.7130719205574 158.9853254921333 126.0528083763694
vertex 182.2470741028948 156.2273925706002 129.7648884097617
vertex 180.0454767217260 154.9933148380691 126.0937835713039
endloop
endfacet
facet normal 0.8116525936934 -0.4761167359651 -0.3384271278795
outer loop
vertex 180.0454767217260 154.9933148380691 126.0937835713039
vertex 178.6112037560472 151.7642009704576 127.1968387087228
vertex 177.7057039850675 153.2058156375670 122.9970332249430
endloop
endfacet
facet normal 0.8911373132710 -0.3342312169722 -0.3068611778923
outer loop
vertex 178.6112037560472 151.7642009704576 127.1968387087228
vertex 177.1745852158460 150.3668054297318 124.5468743843751
vertex 177.7057039850675 153.2058156375670 122.9970332249430
endloop
endfacet
facet normal 0.7558385569653 -0.5930458352783 -0.2774972307317
outer loop
vertex 182.8447088725986 161.1018378764665 121.8881089019919
vertex 182.7130719205574 158.9853254921333 126.0528083763694
vertex 179.4360677975161 157.0295289728881 121.3067823217453
endloop
endfacet
facet normal 0.8037921839825 -0.5036844691694 -0.3165755525717
outer loop
vertex 180.0454767217260 154.9933148380691 126.0937835713039
vertex 177.7057039850675 153.2058156375670 122.9970332249430
vertex 179.4360677975161 157.0295289728881 121.3067823217453
endloop
endfacet
facet normal 0.7849274594205 -0.5278450756445 -0.3244510125819
outer loop
vertex 182.7130719205574 158.9853254921333 126.0528083763694
vertex 180.0454767217260 154.9933148380691 126.0937835713039
vertex 179.4360677975161 157.0295289728881 121.3067823217453
endloop
endfacet
endsolid WRAP
