solid WRAP
facet normal -0.7379872788244 0.3295753756573 0.5888589373133
outer loop
vertex 93.5679400000000 158.8362500000000 79.0455000000000
vertex 93.5860900000000 157.9312700000000 79.5747500000000
vertex 94.0812200000000 158.4606600000000 79.8989800000000
endloop
endfacet
facet normal 0.6658016672771 0.7143241027210 0.2155208020654
outer loop
vertex 96.5165000000000 158.6402500000000 73.9104670000000
vertex 95.6591500000000 159.2304000000000 74.6030530000000
vertex 96.4163600000000 158.3722500000000 75.1080880000000
endloop
endfacet
facet normal 0.6754168899868 0.6963361292026 0.2427509420942
outer loop
vertex 95.6591500000000 159.2304000000000 74.6030530000000
vertex 96.5165000000000 158.6402500000000 73.9104670000000
vertex 95.8193200000000 159.4773000000000 73.4491670000000
endloop
endfacet
facet normal 0.7571211640560 0.6093571840346 0.2354811355585
outer loop
vertex 95.6591500000000 159.2304000000000 74.6030530000000
vertex 95.8193200000000 159.4773000000000 73.4491670000000
vertex 95.1865200000000 160.0016400000000 74.1269110000000
endloop
endfacet
facet normal 0.6576840637495 0.7167425673707 0.2318011311640
outer loop
vertex 96.4163600000000 158.3722500000000 75.1080880000000
vertex 95.6591500000000 159.2304000000000 74.6030530000000
vertex 95.4864900000000 158.9894900000000 75.8378450000000
endloop
endfacet
facet normal 0.7806898388851 0.5954664680566 0.1895865524816
outer loop
vertex 95.6591500000000 159.2304000000000 74.6030530000000
vertex 95.1865200000000 160.0016400000000 74.1269110000000
vertex 94.8794300000000 160.0414000000000 75.2665820000000
endloop
endfacet
facet normal 0.8005072697321 0.5437071652390 0.2521321668765
outer loop
vertex 100.8616900000000 155.7024200000000 69.3093320000000
vertex 100.8293200000000 156.4270700000000 67.8494430000000
vertex 99.8880700000000 157.3314500000000 68.8876270000000
endloop
endfacet
facet normal 0.8444163567187 0.4894062356047 0.2178131149798
outer loop
vertex 101.4054300000000 158.4710300000000 62.6081650000000
vertex 100.4339200000000 160.1328700000000 62.6405050000000
vertex 100.6986500000000 158.9672200000000 64.2333110000000
endloop
endfacet
facet normal 0.8689176015419 0.4289655804585 0.2469225232995
outer loop
vertex 101.5593400000000 157.3502200000000 64.0136820000000
vertex 101.4054300000000 158.4710300000000 62.6081650000000
vertex 100.6986500000000 158.9672200000000 64.2333110000000
endloop
endfacet
facet normal 0.8627899838091 0.4212800603566 0.2794933891609
outer loop
vertex 101.5593400000000 157.3502200000000 64.0136820000000
vertex 100.6986500000000 158.9672200000000 64.2333110000000
vertex 100.9168600000000 157.8254900000000 65.2806298000000
endloop
endfacet
facet normal 0.8460798508662 0.4428543675491 0.2966966381692
outer loop
vertex 99.8913500000000 159.1548700000001 66.2553718000000
vertex 100.6986500000000 158.9672200000000 64.2333110000000
vertex 99.7140900000000 160.6755800000000 64.4910210000000
endloop
endfacet
facet normal 0.8752515598829 0.4341779713201 0.2131295290261
outer loop
vertex 100.4339200000000 160.1328700000000 62.6405050000000
vertex 99.4926900000000 161.9611700000000 62.7812900000000
vertex 99.7140900000000 160.6755800000000 64.4910210000000
endloop
endfacet
facet normal 0.8618447988734 0.4667751367638 0.1983545168482
outer loop
vertex 100.6986500000000 158.9672200000000 64.2333110000000
vertex 100.4339200000000 160.1328700000000 62.6405050000000
vertex 99.7140900000000 160.6755800000000 64.4910210000000
endloop
endfacet
facet normal 0.8330159472296 0.4886027747753 0.2595221765920
outer loop
vertex 99.4926900000000 161.9611700000000 62.7812900000000
vertex 98.4854900000000 162.5722600000000 64.8637070000000
vertex 99.7140900000000 160.6755800000000 64.4910210000000
endloop
endfacet
facet normal 0.8690328168080 0.4005307862652 0.2904428559366
outer loop
vertex 101.5593400000000 157.3502200000000 64.0136820000000
vertex 100.9168600000000 157.8254900000000 65.2806298000000
vertex 101.5593900000000 156.3772300000000 65.3553194000000
endloop
endfacet
facet normal 0.8204842647534 0.4665725970588 0.3303264793592
outer loop
vertex 99.7140900000000 160.6755800000000 64.4910210000000
vertex 98.4854900000000 162.5722600000000 64.8637070000000
vertex 98.8912100000000 161.0323400000000 66.0310297000000
endloop
endfacet
facet normal 0.8490818651175 0.4298862750757 0.3070142941788
outer loop
vertex 100.9168600000000 157.8254900000000 65.2806298000000
vertex 99.8913500000000 159.1548700000001 66.2553718000000
vertex 100.7976800000000 157.1927000000000 66.4962778000000
endloop
endfacet
facet normal 0.8681273885612 0.4002853631526 0.2934731082666
outer loop
vertex 101.5593900000000 156.3772300000000 65.3553194000000
vertex 100.9168600000000 157.8254900000000 65.2806298000000
vertex 100.7976800000000 157.1927000000000 66.4962778000000
endloop
endfacet
facet normal 0.8466332614851 0.3827821765917 0.3697160069985
outer loop
vertex 98.4854900000000 162.5722600000000 64.8637070000000
vertex 97.0890000000000 164.1410900000000 66.4373330000000
vertex 97.7795400000000 162.1398200000000 66.9280241000000
endloop
endfacet
facet normal 0.8173549860965 0.4744631607686 0.3268264612553
outer loop
vertex 99.8913500000000 159.1548700000001 66.2553718000000
vertex 99.7140900000000 160.6755800000000 64.4910210000000
vertex 98.8912100000000 161.0323400000000 66.0310297000000
endloop
endfacet
facet normal 0.7883489612904 0.4898591288835 0.3722149232390
outer loop
vertex 98.8912100000000 161.0323400000000 66.0310297000000
vertex 98.4854900000000 162.5722600000000 64.8637070000000
vertex 97.7795400000000 162.1398200000000 66.9280241000000
endloop
endfacet
facet normal 0.8331313233804 0.4894881884276 0.2574752636515
outer loop
vertex 100.8293200000000 156.4270700000000 67.8494430000000
vertex 100.7976800000000 157.1927000000000 66.4962778000000
vertex 100.1121000000000 157.8089400000000 67.5431200000000
endloop
endfacet
facet normal 0.7752776510322 0.5019920876898 0.3833386332040
outer loop
vertex 99.8913500000000 159.1548700000001 66.2553718000000
vertex 98.4032500000000 160.4905200000000 67.5158890000000
vertex 99.1006900000000 158.8918800000000 68.1988230000000
endloop
endfacet
facet normal 0.8626610716464 0.4485841615713 0.2336410183449
outer loop
vertex 100.7976800000000 157.1927000000000 66.4962778000000
vertex 100.8293200000000 156.4270700000000 67.8494430000000
vertex 101.5749000000000 155.5845900000000 66.7141130000000
endloop
endfacet
facet normal 0.8139805101556 0.4912093631083 0.3100791684095
outer loop
vertex 99.8880700000000 157.3314500000000 68.8876270000000
vertex 100.8293200000000 156.4270700000000 67.8494430000000
vertex 100.1121000000000 157.8089400000000 67.5431200000000
endloop
endfacet
facet normal 0.8502198450369 0.4300029695105 0.3036834887142
outer loop
vertex 100.7976800000000 157.1927000000000 66.4962778000000
vertex 99.8913500000000 159.1548700000001 66.2553718000000
vertex 100.1121000000000 157.8089400000000 67.5431200000000
endloop
endfacet
facet normal 0.8489757174642 0.4360595227908 0.2984833726351
outer loop
vertex 100.9168600000000 157.8254900000000 65.2806298000000
vertex 100.6986500000000 158.9672200000000 64.2333110000000
vertex 99.8913500000000 159.1548700000001 66.2553718000000
endloop
endfacet
facet normal 0.7769209645040 0.4646378274837 0.4248593934298
outer loop
vertex 99.8913500000000 159.1548700000001 66.2553718000000
vertex 98.8912100000000 161.0323400000000 66.0310297000000
vertex 98.4032500000000 160.4905200000000 67.5158890000000
endloop
endfacet
facet normal 0.8575200188516 0.4485702499338 0.2518812183213
outer loop
vertex 101.5593900000000 156.3772300000000 65.3553194000000
vertex 100.7976800000000 157.1927000000000 66.4962778000000
vertex 101.5749000000000 155.5845900000000 66.7141130000000
endloop
endfacet
facet normal 0.7490447150515 0.4549327158527 0.4816308118261
outer loop
vertex 98.4032500000000 160.4905200000000 67.5158890000000
vertex 97.7795400000000 162.1398200000000 66.9280241000000
vertex 97.1421400000000 161.5472800000000 68.4790190000000
endloop
endfacet
facet normal 0.7792541664165 0.4952504921730 0.3840441304394
outer loop
vertex 100.1121000000000 157.8089400000000 67.5431200000000
vertex 99.8913500000000 159.1548700000001 66.2553718000000
vertex 99.1006900000000 158.8918800000000 68.1988230000000
endloop
endfacet
facet normal 0.8645930705617 0.4412654159267 0.2403407061730
outer loop
vertex 101.5749000000000 155.5845900000000 66.7141130000000
vertex 100.8293200000000 156.4270700000000 67.8494430000000
vertex 101.5936700000000 154.8023700000000 68.0827460000000
endloop
endfacet
facet normal 0.7990963276487 0.3665768556367 0.4765149190214
outer loop
vertex 97.1421400000000 161.5472800000000 68.4790190000000
vertex 96.6651200000000 162.9856300000000 68.1724580000000
vertex 96.1429700000000 162.3466600000000 69.5396340000000
endloop
endfacet
facet normal 0.8029861746565 0.3664796766125 0.4700062232997
outer loop
vertex 97.7795400000000 162.1398200000000 66.9280241000000
vertex 96.6651200000000 162.9856300000000 68.1724580000000
vertex 97.1421400000000 161.5472800000000 68.4790190000000
endloop
endfacet
facet normal 0.8018645935071 0.3880790599963 0.4543212705477
outer loop
vertex 97.7795400000000 162.1398200000000 66.9280241000000
vertex 97.0890000000000 164.1410900000000 66.4373330000000
vertex 96.6651200000000 162.9856300000000 68.1724580000000
endloop
endfacet
facet normal 0.7876558469126 0.4484510819125 0.4224806432914
outer loop
vertex 98.8912100000000 161.0323400000000 66.0310297000000
vertex 97.7795400000000 162.1398200000000 66.9280241000000
vertex 98.4032500000000 160.4905200000000 67.5158890000000
endloop
endfacet
facet normal 0.7990440022352 0.3721087097580 0.4722962953636
outer loop
vertex 97.1421400000000 161.5472800000000 68.4790190000000
vertex 96.1429700000000 162.3466600000000 69.5396340000000
vertex 96.6394800000000 161.2127700000000 69.5929840000000
endloop
endfacet
facet normal 0.7812778910432 0.5356650858112 0.3204181218502
outer loop
vertex 99.8880700000000 157.3314500000000 68.8876270000000
vertex 100.1121000000000 157.8089400000000 67.5431200000000
vertex 99.1006900000000 158.8918800000000 68.1988230000000
endloop
endfacet
facet normal 0.7467525906632 0.4245179361051 0.5120010647086
outer loop
vertex 98.4032500000000 160.4905200000000 67.5158890000000
vertex 97.1421400000000 161.5472800000000 68.4790190000000
vertex 97.5483300000000 160.0553100000000 69.1236360000000
endloop
endfacet
facet normal 0.6910221104150 0.5893553104441 0.4185077788632
outer loop
vertex 99.1006900000000 158.8918800000000 68.1988230000000
vertex 97.5483300000000 160.0553100000000 69.1236360000000
vertex 98.5931500000000 158.3740700000001 69.7660470000000
endloop
endfacet
facet normal 0.6896158099246 0.5173390666947 0.5067448320146
outer loop
vertex 99.1006900000000 158.8918800000000 68.1988230000000
vertex 98.4032500000000 160.4905200000000 67.5158890000000
vertex 97.5483300000000 160.0553100000000 69.1236360000000
endloop
endfacet
facet normal 0.7753764366497 0.4162715989822 0.4748782342550
outer loop
vertex 97.1421400000000 161.5472800000000 68.4790190000000
vertex 96.6394800000000 161.2127700000000 69.5929840000000
vertex 97.5483300000000 160.0553100000000 69.1236360000000
endloop
endfacet
facet normal 0.7988774347766 0.5439337165026 0.2567702402082
outer loop
vertex 100.8616900000000 155.7024200000000 69.3093320000000
vertex 99.8880700000000 157.3314500000000 68.8876270000000
vertex 99.7624400000000 156.6997800000000 70.6166030000000
endloop
endfacet
facet normal 0.7111759144284 0.6420935760646 0.2862597741799
outer loop
vertex 99.8880700000000 157.3314500000000 68.8876270000000
vertex 98.5931500000000 158.3740700000001 69.7660470000000
vertex 99.7624400000000 156.6997800000000 70.6166030000000
endloop
endfacet
facet normal 0.7246032421293 0.5493290814441 0.4161582652976
outer loop
vertex 99.8880700000000 157.3314500000000 68.8876270000000
vertex 99.1006900000000 158.8918800000000 68.1988230000000
vertex 98.5931500000000 158.3740700000001 69.7660470000000
endloop
endfacet
facet normal 0.8753989214690 0.4404434321705 0.1992142348044
outer loop
vertex 100.8293200000000 156.4270700000000 67.8494430000000
vertex 100.8616900000000 155.7024200000000 69.3093320000000
vertex 101.5936700000000 154.8023700000000 68.0827460000000
endloop
endfacet
facet normal 0.8024959850617 0.3732983924583 0.4654551580420
outer loop
vertex 96.6394800000000 161.2127700000000 69.5929840000000
vertex 96.1429700000000 162.3466600000000 69.5396340000000
vertex 96.0088700000000 161.5057800000000 70.4452290000000
endloop
endfacet
facet normal 0.7866630300940 0.4433472413611 0.4296562587242
outer loop
vertex 96.6394800000000 161.2127700000000 69.5929840000000
vertex 96.0088700000000 161.5057800000000 70.4452290000000
vertex 96.6054500000000 160.5433500000000 70.3460410000000
endloop
endfacet
facet normal 0.7866037888744 0.4434050983527 0.4297050128671
outer loop
vertex 97.5483300000000 160.0553100000000 69.1236360000000
vertex 96.6394800000000 161.2127700000000 69.5929840000000
vertex 96.6054500000000 160.5433500000000 70.3460410000000
endloop
endfacet
facet normal 0.8259559544815 0.3468674349207 0.4443869303299
outer loop
vertex 96.1429700000000 162.3466600000000 69.5396340000000
vertex 95.4697700000000 162.4107100000000 70.7408770000000
vertex 96.0088700000000 161.5057800000000 70.4452290000000
endloop
endfacet
facet normal 0.7508415310790 0.5554340478426 0.3573933599050
outer loop
vertex 97.5483300000000 160.0553100000000 69.1236360000000
vertex 96.6054500000000 160.5433500000000 70.3460410000000
vertex 97.3570100000000 159.3749600000000 70.5829260000000
endloop
endfacet
facet normal 0.7198357808353 0.5881920635482 0.3686007935533
outer loop
vertex 98.5931500000000 158.3740700000001 69.7660470000000
vertex 97.5483300000000 160.0553100000000 69.1236360000000
vertex 97.3570100000000 159.3749600000000 70.5829260000000
endloop
endfacet
facet normal 0.7132862283188 0.6295818154641 0.3079764506056
outer loop
vertex 98.5931500000000 158.3740700000001 69.7660470000000
vertex 97.3570100000000 159.3749600000000 70.5829260000000
vertex 98.1838100000000 158.0653100000000 71.3452790000000
endloop
endfacet
facet normal 0.7124818712792 0.5973925003577 0.3680920857814
outer loop
vertex 96.9844400000000 159.1067900000000 71.7393000000000
vertex 97.3570100000000 159.3749600000000 70.5829260000000
vertex 96.4046300000000 160.0688100000000 71.3002810000000
endloop
endfacet
facet normal 0.6757968123047 0.6397449313556 0.3660943748320
outer loop
vertex 98.1838100000000 158.0653100000000 71.3452790000000
vertex 97.3570100000000 159.3749600000000 70.5829260000000
vertex 96.9844400000000 159.1067900000000 71.7393000000000
endloop
endfacet
facet normal 0.7657176490974 0.4248807896664 0.4828589819328
outer loop
vertex 96.6054500000000 160.5433500000000 70.3460410000000
vertex 96.0088700000000 161.5057800000000 70.4452290000000
vertex 95.9707900000000 160.8944900000000 71.0435070000000
endloop
endfacet
facet normal 0.8174291618184 0.4762812056027 0.3239842258484
outer loop
vertex 100.8616900000000 155.7024200000000 69.3093320000000
vertex 99.7624400000000 156.6997800000000 70.6166030000000
vertex 100.8713900000000 154.7367500000000 70.7044660000000
endloop
endfacet
facet normal 0.8066544872958 0.3177395155707 0.4983474073079
outer loop
vertex 96.0088700000000 161.5057800000000 70.4452290000000
vertex 95.4697700000000 162.4107100000000 70.7408770000000
vertex 95.4328900000000 161.5584900000000 71.3439370000000
endloop
endfacet
facet normal 0.7453579632836 0.5209892573651 0.4159467517361
outer loop
vertex 96.4046300000000 160.0688100000000 71.3002810000000
vertex 96.6054500000000 160.5433500000000 70.3460410000000
vertex 95.9707900000000 160.8944900000000 71.0435070000000
endloop
endfacet
facet normal 0.8666999145347 0.2626074991448 0.4241091363533
outer loop
vertex 95.4328900000000 161.5584900000000 71.3439370000000
vertex 95.4697700000000 162.4107100000000 70.7408770000000
vertex 94.9956500000000 162.3675800000000 71.7364840000000
endloop
endfacet
facet normal 0.7768452717963 0.4150618055206 0.4735347096947
outer loop
vertex 95.9707900000000 160.8944900000000 71.0435070000000
vertex 96.0088700000000 161.5057800000000 70.4452290000000
vertex 95.4328900000000 161.5584900000000 71.3439370000000
endloop
endfacet
facet normal 0.7198601883076 0.5491257905088 0.4245729330608
outer loop
vertex 97.3570100000000 159.3749600000000 70.5829260000000
vertex 96.6054500000000 160.5433500000000 70.3460410000000
vertex 96.4046300000000 160.0688100000000 71.3002810000000
endloop
endfacet
facet normal 0.6997302893658 0.6448654754051 0.3074508753844
outer loop
vertex 99.7624400000000 156.6997800000000 70.6166030000000
vertex 98.5931500000000 158.3740700000001 69.7660470000000
vertex 98.1838100000000 158.0653100000000 71.3452790000000
endloop
endfacet
facet normal 0.7780844542805 0.4182780788287 0.4686448877118
outer loop
vertex 95.9707900000000 160.8944900000000 71.0435070000000
vertex 95.4328900000000 161.5584900000000 71.3439370000000
vertex 95.5861800000000 160.6931700000000 71.8617530000000
endloop
endfacet
facet normal 0.7161024122952 0.5207889930048 0.4647323529410
outer loop
vertex 96.4046300000000 160.0688100000000 71.3002810000000
vertex 95.9707900000000 160.8944900000000 71.0435070000000
vertex 95.5861800000000 160.6931700000000 71.8617530000000
endloop
endfacet
facet normal 0.8439324172637 0.4868371195104 0.2253168749968
outer loop
vertex 100.8713900000000 154.7367500000000 70.7044660000000
vertex 99.7624400000000 156.6997800000000 70.6166030000000
vertex 100.1616700000000 155.3814800000000 71.9696940000000
endloop
endfacet
facet normal 0.8008663936367 0.3836689940870 0.4597946525566
outer loop
vertex 95.0627700000000 161.4886900000000 72.3529520000000
vertex 94.9956500000000 162.3675800000000 71.7364840000000
vertex 94.5635400000000 162.2277100000000 72.6058420000000
endloop
endfacet
facet normal 0.8852995351095 0.3104506985171 0.3462153909419
outer loop
vertex 95.4328900000000 161.5584900000000 71.3439370000000
vertex 94.9956500000000 162.3675800000000 71.7364840000000
vertex 95.0627700000000 161.4886900000000 72.3529520000000
endloop
endfacet
facet normal 0.8707089325527 0.3804579786111 0.3116370986967
outer loop
vertex 95.5861800000000 160.6931700000000 71.8617530000000
vertex 95.0627700000000 161.4886900000000 72.3529520000000
vertex 95.2223500000000 160.5148800000000 73.0959510000000
endloop
endfacet
facet normal 0.8678980024043 0.3591203896414 0.3431990722109
outer loop
vertex 95.5861800000000 160.6931700000000 71.8617530000000
vertex 95.4328900000000 161.5584900000000 71.3439370000000
vertex 95.0627700000000 161.4886900000000 72.3529520000000
endloop
endfacet
facet normal 0.7174951667267 0.6623699477078 0.2155614485416
outer loop
vertex 99.0994000000000 156.8265000000000 72.1043160000000
vertex 98.1838100000000 158.0653100000000 71.3452790000000
vertex 98.1986800000000 157.6435800000000 72.5916620000000
endloop
endfacet
facet normal 0.6802733281358 0.6786843857441 0.2767954182682
outer loop
vertex 98.1838100000000 158.0653100000000 71.3452790000000
vertex 96.9844400000000 159.1067900000000 71.7393000000000
vertex 97.4740900000000 158.3916500000000 72.2893760000000
endloop
endfacet
facet normal 0.6481665660386 0.7236395718946 0.2371199541539
outer loop
vertex 98.1986800000000 157.6435800000000 72.5916620000000
vertex 98.1838100000000 158.0653100000000 71.3452790000000
vertex 97.4740900000000 158.3916500000000 72.2893760000000
endloop
endfacet
facet normal 0.7764260877113 0.5496567576196 0.3082855480304
outer loop
vertex 95.5861800000000 160.6931700000000 71.8617530000000
vertex 95.2223500000000 160.5148800000000 73.0959510000000
vertex 96.0467100000000 159.7844300000000 72.3221300000000
endloop
endfacet
facet normal 0.7139987560273 0.5687211982827 0.4083650021920
outer loop
vertex 96.4046300000000 160.0688100000000 71.3002810000000
vertex 95.5861800000000 160.6931700000000 71.8617530000000
vertex 96.0467100000000 159.7844300000000 72.3221300000000
endloop
endfacet
facet normal 0.6876081484621 0.6006114179796 0.4079962729744
outer loop
vertex 96.9844400000000 159.1067900000000 71.7393000000000
vertex 96.4046300000000 160.0688100000000 71.3002810000000
vertex 96.0467100000000 159.7844300000000 72.3221300000000
endloop
endfacet
facet normal 0.6551283383049 0.6882570258579 0.3116233731721
outer loop
vertex 97.4740900000000 158.3916500000000 72.2893760000000
vertex 96.9844400000000 159.1067900000000 71.7393000000000
vertex 96.6784100000000 158.9330100000000 72.7664830000000
endloop
endfacet
facet normal 0.7813676670830 0.5462950027475 0.3017057155745
outer loop
vertex 100.1616700000000 155.3814800000000 71.9696940000000
vertex 99.7624400000000 156.6997800000000 70.6166030000000
vertex 99.0994000000000 156.8265000000000 72.1043160000000
endloop
endfacet
facet normal 0.6765645973442 0.6659685595456 0.3142391180569
outer loop
vertex 96.9844400000000 159.1067900000000 71.7393000000000
vertex 96.0467100000000 159.7844300000000 72.3221300000000
vertex 96.6784100000000 158.9330100000000 72.7664830000000
endloop
endfacet
facet normal 0.6971276466706 0.6706069315050 0.2535732392526
outer loop
vertex 99.7624400000000 156.6997800000000 70.6166030000000
vertex 98.1838100000000 158.0653100000000 71.3452790000000
vertex 99.0994000000000 156.8265000000000 72.1043160000000
endloop
endfacet
facet normal 0.8264708030936 0.4367392398766 0.3552532167142
outer loop
vertex 95.0627700000000 161.4886900000000 72.3529520000000
vertex 94.5635400000000 162.2277100000000 72.6058420000000
vertex 94.6510800000000 161.4430000000000 73.3668890000000
endloop
endfacet
facet normal 0.7761196645011 0.5509575486875 0.3067312274923
outer loop
vertex 95.2223500000000 160.5148800000000 73.0959510000000
vertex 95.8193200000000 159.4773000000000 73.4491670000000
vertex 96.0467100000000 159.7844300000000 72.3221300000000
endloop
endfacet
facet normal 0.6746086033544 0.6663168355265 0.3176871211965
outer loop
vertex 96.0467100000000 159.7844300000000 72.3221300000000
vertex 95.8193200000000 159.4773000000000 73.4491670000000
vertex 96.6784100000000 158.9330100000000 72.7664830000000
endloop
endfacet
facet normal 0.6385505607430 0.7336164543172 0.2325082349721
outer loop
vertex 97.4740900000000 158.3916500000000 72.2893760000000
vertex 96.6784100000000 158.9330100000000 72.7664830000000
vertex 97.4033800000000 158.1512800000000 73.2419930000000
endloop
endfacet
facet normal 0.6506130367452 0.7234733053295 0.2308442178024
outer loop
vertex 98.1986800000000 157.6435800000000 72.5916620000000
vertex 97.4740900000000 158.3916500000000 72.2893760000000
vertex 97.4033800000000 158.1512800000000 73.2419930000000
endloop
endfacet
facet normal 0.6152075763998 0.7384546878718 0.2760512849098
outer loop
vertex 96.6784100000000 158.9330100000000 72.7664830000000
vertex 96.5165000000000 158.6402500000000 73.9104670000000
vertex 97.4033800000000 158.1512800000000 73.2419930000000
endloop
endfacet
facet normal 0.8380251966224 0.4110775240174 0.3587882928326
outer loop
vertex 95.2223500000000 160.5148800000000 73.0959510000000
vertex 95.0627700000000 161.4886900000000 72.3529520000000
vertex 94.6510800000000 161.4430000000000 73.3668890000000
endloop
endfacet
facet normal 0.6452083958063 0.7324816290097 0.2172021849435
outer loop
vertex 98.1986800000000 157.6435800000000 72.5916620000000
vertex 97.4033800000000 158.1512800000000 73.2419930000000
vertex 98.1279000000000 157.3861900000000 73.6699260000000
endloop
endfacet
facet normal 0.7129396768291 0.6770544522115 0.1825220149555
outer loop
vertex 99.0994000000000 156.8265000000000 72.1043160000000
vertex 98.1986800000000 157.6435800000000 72.5916620000000
vertex 98.7575300000000 156.9274000000000 73.0653940000000
endloop
endfacet
facet normal 0.7811421623704 0.5856599280776 0.2163778427001
outer loop
vertex 99.0994000000000 156.8265000000000 72.1043160000000
vertex 98.7575300000000 156.9274000000000 73.0653940000000
vertex 99.4131600000000 156.0692100000000 73.0213380000000
endloop
endfacet
facet normal 0.7986582792713 0.5688098396629 0.1964696395225
outer loop
vertex 100.1616700000000 155.3814800000000 71.9696940000000
vertex 99.0994000000000 156.8265000000000 72.1043160000000
vertex 99.4131600000000 156.0692100000000 73.0213380000000
endloop
endfacet
facet normal 0.7823816735596 0.5870365956038 0.2080070967540
outer loop
vertex 99.4131600000000 156.0692100000000 73.0213380000000
vertex 98.7575300000000 156.9274000000000 73.0653940000000
vertex 98.8350300000000 156.5150800000000 73.9375390000000
endloop
endfacet
facet normal 0.0391581176523 0.6979142148432 0.7151100548459
outer loop
vertex 94.6510800000000 161.4430000000000 73.3668890000000
vertex 94.5635400000000 162.2277100000000 72.6058420000000
vertex 93.8966100000000 161.7627400000000 73.0961510000000
endloop
endfacet
facet normal 0.6600872372461 0.6999965705075 0.2725612600913
outer loop
vertex 95.8193200000000 159.4773000000000 73.4491670000000
vertex 96.5165000000000 158.6402500000000 73.9104670000000
vertex 96.6784100000000 158.9330100000000 72.7664830000000
endloop
endfacet
facet normal 0.5961457343477 0.7698913608339 0.2277664504099
outer loop
vertex 97.4033800000000 158.1512800000000 73.2419930000000
vertex 96.5165000000000 158.6402500000000 73.9104670000000
vertex 97.3261300000000 157.8757800000000 74.3754230000000
endloop
endfacet
facet normal 0.6429530767066 0.7330273053337 0.2219961954377
outer loop
vertex 98.1279000000000 157.3861900000000 73.6699260000000
vertex 97.4033800000000 158.1512800000000 73.2419930000000
vertex 97.3261300000000 157.8757800000000 74.3754230000000
endloop
endfacet
facet normal 0.6990517258942 0.6838100709308 0.2091183191831
outer loop
vertex 98.1986800000000 157.6435800000000 72.5916620000000
vertex 98.1279000000000 157.3861900000000 73.6699260000000
vertex 98.7575300000000 156.9274000000000 73.0653940000000
endloop
endfacet
facet normal 0.7861280213821 0.5798888867733 0.2138495101577
outer loop
vertex 99.4131600000000 156.0692100000000 73.0213380000000
vertex 98.8350300000000 156.5150800000000 73.9375390000000
vertex 99.5561500000000 155.5158400000000 73.9962510000000
endloop
endfacet
facet normal 0.8523731336175 0.4439967613569 0.2762732650684
outer loop
vertex 95.2223500000000 160.5148800000000 73.0959510000000
vertex 94.6510800000000 161.4430000000000 73.3668890000000
vertex 94.7219800000000 160.7557500000000 74.2526190000000
endloop
endfacet
facet normal 0.8401067976401 0.4733650378057 0.2648511082514
outer loop
vertex 95.1865200000000 160.0016400000000 74.1269110000000
vertex 95.2223500000000 160.5148800000000 73.0959510000000
vertex 94.7219800000000 160.7557500000000 74.2526190000000
endloop
endfacet
facet normal 0.7786426183276 0.5504966153561 0.3011131837123
outer loop
vertex 95.1865200000000 160.0016400000000 74.1269110000000
vertex 95.8193200000000 159.4773000000000 73.4491670000000
vertex 95.2223500000000 160.5148800000000 73.0959510000000
endloop
endfacet
facet normal 0.5988533294477 0.7694026501912 0.2222481758938
outer loop
vertex 96.5165000000000 158.6402500000000 73.9104670000000
vertex 96.4163600000000 158.3722500000000 75.1080880000000
vertex 97.3261300000000 157.8757800000000 74.3754230000000
endloop
endfacet
facet normal 0.1339947764853 0.8052525150851 0.5775930979710
outer loop
vertex 94.6510800000000 161.4430000000000 73.3668890000000
vertex 93.8966100000000 161.7627400000000 73.0961510000000
vertex 93.8531800000000 161.0349400000000 74.1208900000000
endloop
endfacet
facet normal 0.7140481541926 0.6553180703864 0.2463604272590
outer loop
vertex 98.7575300000000 156.9274000000000 73.0653940000000
vertex 98.1279000000000 157.3861900000000 73.6699260000000
vertex 98.8350300000000 156.5150800000000 73.9375390000000
endloop
endfacet
facet normal 0.1620517300571 0.7858630722094 0.5967901377562
outer loop
vertex 94.6510800000000 161.4430000000000 73.3668890000000
vertex 93.8531800000000 161.0349400000000 74.1208900000000
vertex 94.7219800000000 160.7557500000000 74.2526190000000
endloop
endfacet
facet normal 0.6347606403739 0.7452352696896 0.2042139129511
outer loop
vertex 98.1279000000000 157.3861900000000 73.6699260000000
vertex 97.3261300000000 157.8757800000000 74.3754230000000
vertex 98.1535000000000 157.0624200000000 74.7718830000000
endloop
endfacet
facet normal 0.7375600530480 0.6523373912404 0.1745310749910
outer loop
vertex 98.8350300000000 156.5150800000000 73.9375390000000
vertex 98.1279000000000 157.3861900000000 73.6699260000000
vertex 98.1535000000000 157.0624200000000 74.7718830000000
endloop
endfacet
facet normal 0.7966921476056 0.5840760475137 0.1553602029620
outer loop
vertex 99.5561500000000 155.5158400000000 73.9962510000000
vertex 98.8350300000000 156.5150800000000 73.9375390000000
vertex 98.9650200000000 156.0166100000000 75.1449420000000
endloop
endfacet
facet normal 0.2897843826178 0.9513139442360 0.1050085286677
outer loop
vertex 94.7219800000000 160.7557500000000 74.2526190000000
vertex 93.8531800000000 161.0349400000000 74.1208900000000
vertex 94.1090100000000 160.8343000000000 75.2325720000000
endloop
endfacet
facet normal 0.6611101257156 0.6578424451727 0.3608001094865
outer loop
vertex 94.8794300000000 160.0414000000000 75.2665820000000
vertex 94.7219800000000 160.7557500000000 74.2526190000000
vertex 94.1090100000000 160.8343000000000 75.2325720000000
endloop
endfacet
facet normal 0.8475238871605 0.4868467342176 0.2113847631076
outer loop
vertex 94.8794300000000 160.0414000000000 75.2665820000000
vertex 95.1865200000000 160.0016400000000 74.1269110000000
vertex 94.7219800000000 160.7557500000000 74.2526190000000
endloop
endfacet
facet normal 0.7873171003273 0.5750819180266 0.2222893859163
outer loop
vertex 95.4864900000000 158.9894900000000 75.8378450000000
vertex 95.6591500000000 159.2304000000000 74.6030530000000
vertex 94.8794300000000 160.0414000000000 75.2665820000000
endloop
endfacet
facet normal 0.7432222650205 0.6428488210430 0.1853808459937
outer loop
vertex 98.8350300000000 156.5150800000000 73.9375390000000
vertex 98.1535000000000 157.0624200000000 74.7718830000000
vertex 98.9650200000000 156.0166100000000 75.1449420000000
endloop
endfacet
facet normal -0.7220115255853 0.6325502776641 0.2803203580710
outer loop
vertex 94.1090100000000 160.8343000000000 75.2325720000000
vertex 93.8531800000000 161.0349400000000 74.1208900000000
vertex 93.5750200000000 160.3407300000000 74.9709460000000
endloop
endfacet
facet normal 0.6295949474795 0.7460817493306 0.2167307671377
outer loop
vertex 98.1535000000000 157.0624200000000 74.7718830000000
vertex 97.3261300000000 157.8757800000000 74.3754230000000
vertex 97.2942300000000 157.5634100000000 75.5434050000000
endloop
endfacet
facet normal 0.5988062798493 0.7694691520181 0.2221446900236
outer loop
vertex 97.3261300000000 157.8757800000000 74.3754230000000
vertex 96.4163600000000 158.3722500000000 75.1080880000000
vertex 97.2942300000000 157.5634100000000 75.5434050000000
endloop
endfacet
facet normal 0.6297160463115 0.7505459459861 0.2003459108182
outer loop
vertex 98.1369200000000 156.7569300000000 75.9159850000000
vertex 97.2942300000000 157.5634100000000 75.5434050000000
vertex 97.3419100000000 157.2260700000000 76.6573000000000
endloop
endfacet
facet normal 0.6523089624551 0.7262534752606 0.2169076005414
outer loop
vertex 96.4163600000000 158.3722500000000 75.1080880000000
vertex 95.4864900000000 158.9894900000000 75.8378450000000
vertex 96.3474800000000 158.0364000000000 76.4397300000000
endloop
endfacet
facet normal 0.7087393646461 0.6940647270589 0.1263434511703
outer loop
vertex 94.8794300000000 160.0414000000000 75.2665820000000
vertex 94.1090100000000 160.8343000000000 75.2325720000000
vertex 94.3389400000000 160.4356200000000 76.1328900000000
endloop
endfacet
facet normal -0.7069439915349 0.6948279108616 0.1320771256518
outer loop
vertex 94.1090100000000 160.8343000000000 75.2325720000000
vertex 93.5750200000000 160.3407300000000 74.9709460000000
vertex 93.5328700000000 160.1003600000000 76.0098700000000
endloop
endfacet
facet normal -0.4003148796933 0.7956794064579 0.4545792331760
outer loop
vertex 94.3389400000000 160.4356200000000 76.1328900000000
vertex 94.1090100000000 160.8343000000000 75.2325720000000
vertex 93.5328700000000 160.1003600000000 76.0098700000000
endloop
endfacet
facet normal 0.5975299035482 0.7696278076060 0.2250134487654
outer loop
vertex 97.2942300000000 157.5634100000000 75.5434050000000
vertex 96.4163600000000 158.3722500000000 75.1080880000000
vertex 96.3474800000000 158.0364000000000 76.4397300000000
endloop
endfacet
facet normal 0.7442286270736 0.6425501159863 0.1823543229271
outer loop
vertex 98.9650200000000 156.0166100000000 75.1449420000000
vertex 98.1535000000000 157.0624200000000 74.7718830000000
vertex 98.1369200000000 156.7569300000000 75.9159850000000
endloop
endfacet
facet normal 0.7296838237196 0.6690227821635 0.1413153719455
outer loop
vertex 98.9650200000000 156.0166100000000 75.1449420000000
vertex 98.1369200000000 156.7569300000000 75.9159850000000
vertex 98.7351600000000 156.0280600000000 76.2776200000000
endloop
endfacet
facet normal 0.6260959098837 0.7510438637956 0.2096116081755
outer loop
vertex 98.1535000000000 157.0624200000000 74.7718830000000
vertex 97.2942300000000 157.5634100000000 75.5434050000000
vertex 98.1369200000000 156.7569300000000 75.9159850000000
endloop
endfacet
facet normal 0.5893320081897 0.7798631559903 0.2109531750222
outer loop
vertex 97.3419100000000 157.2260700000000 76.6573000000000
vertex 97.2942300000000 157.5634100000000 75.5434050000000
vertex 96.3474800000000 158.0364000000000 76.4397300000000
endloop
endfacet
facet normal 0.7816087149086 0.5827512790369 0.2224607011583
outer loop
vertex 94.8794300000000 160.0414000000000 75.2665820000000
vertex 94.3389400000000 160.4356200000000 76.1328900000000
vertex 94.7681200000000 159.6919900000000 76.5729700000000
endloop
endfacet
facet normal 0.7880028711296 0.5746966369853 0.2208511954446
outer loop
vertex 95.4864900000000 158.9894900000000 75.8378450000000
vertex 94.8794300000000 160.0414000000000 75.2665820000000
vertex 94.7681200000000 159.6919900000000 76.5729700000000
endloop
endfacet
facet normal 0.6180537741292 0.7656543888141 0.1782775621730
outer loop
vertex 98.1369200000000 156.7569300000000 75.9159850000000
vertex 97.3419100000000 157.2260700000000 76.6573000000000
vertex 98.1508300000000 156.4754600000000 77.0766000000000
endloop
endfacet
facet normal 0.7248596731162 0.6714293665935 0.1541462291647
outer loop
vertex 98.7351600000000 156.0280600000000 76.2776200000000
vertex 98.1369200000000 156.7569300000000 75.9159850000000
vertex 98.1508300000000 156.4754600000000 77.0766000000000
endloop
endfacet
facet normal 0.5920786076656 0.7818909506896 0.1951652212219
outer loop
vertex 97.3624600000000 156.9621900000000 77.6521400000000
vertex 97.3419100000000 157.2260700000000 76.6573000000000
vertex 96.7108300000000 157.5348900000000 77.3346000000000
endloop
endfacet
facet normal 0.5931376387844 0.7807045775571 0.1966929181203
outer loop
vertex 97.3419100000000 157.2260700000000 76.6573000000000
vertex 96.3474800000000 158.0364000000000 76.4397300000000
vertex 96.7108300000000 157.5348900000000 77.3346000000000
endloop
endfacet
facet normal 0.7195229352291 0.6108184172606 0.3304354805625
outer loop
vertex 94.7681200000000 159.6919900000000 76.5729700000000
vertex 94.3389400000000 160.4356200000000 76.1328900000000
vertex 94.0664800000000 160.2013800000000 77.1591700000000
endloop
endfacet
facet normal 0.7723316067433 0.6121084170693 0.1697856736542
outer loop
vertex 95.4864900000000 158.9894900000000 75.8378450000000
vertex 94.7681200000000 159.6919900000000 76.5729700000000
vertex 95.3852700000000 158.7627500000000 77.1157200000000
endloop
endfacet
facet normal 0.6703144219584 0.7197156200023 0.1807982357194
outer loop
vertex 96.3474800000000 158.0364000000000 76.4397300000000
vertex 95.4864900000000 158.9894900000000 75.8378450000000
vertex 95.3852700000000 158.7627500000000 77.1157200000000
endloop
endfacet
facet normal 0.6737577762567 0.7134593820181 0.1924218520438
outer loop
vertex 96.3474800000000 158.0364000000000 76.4397300000000
vertex 95.3852700000000 158.7627500000000 77.1157200000000
vertex 96.0329400000000 158.0344500000000 77.5483100000000
endloop
endfacet
facet normal 0.6194427175212 0.7648044679480 0.1771012295744
outer loop
vertex 96.7108300000000 157.5348900000000 77.3346000000000
vertex 96.3474800000000 158.0364000000000 76.4397300000000
vertex 96.0329400000000 158.0344500000000 77.5483100000000
endloop
endfacet
facet normal 0.7001589862633 0.6648413955319 0.2603138735104
outer loop
vertex 94.7681200000000 159.6919900000000 76.5729700000000
vertex 94.0664800000000 160.2013800000000 77.1591700000000
vertex 94.6185600000000 159.3710100000000 77.7950200000000
endloop
endfacet
facet normal 0.6216939997625 0.7533105943136 0.2145220714850
outer loop
vertex 98.1508300000000 156.4754600000000 77.0766000000000
vertex 97.3624600000000 156.9621900000000 77.6521400000000
vertex 97.8669100000000 156.4929200000000 77.8381000000000
endloop
endfacet
facet normal -0.3953764574495 0.9126865615002 0.1033474593377
outer loop
vertex 94.3389400000000 160.4356200000000 76.1328900000000
vertex 93.5328700000000 160.1003600000000 76.0098700000000
vertex 94.0664800000000 160.2013800000000 77.1591700000000
endloop
endfacet
facet normal -0.6911730671113 0.7000214215790 0.1795822948693
outer loop
vertex 94.0664800000000 160.2013800000000 77.1591700000000
vertex 93.3759600000000 159.4994500000000 77.2376700000000
vertex 93.7660200000000 159.6259300000000 78.2459000000000
endloop
endfacet
facet normal -0.6754577302132 0.6927407850174 0.2527193294324
outer loop
vertex 94.0664800000000 160.2013800000000 77.1591700000000
vertex 93.5328700000000 160.1003600000000 76.0098700000000
vertex 93.3759600000000 159.4994500000000 77.2376700000000
endloop
endfacet
facet normal 0.7297181179775 0.6340756508983 0.2558506150731
outer loop
vertex 95.3852700000000 158.7627500000000 77.1157200000000
vertex 94.7681200000000 159.6919900000000 76.5729700000000
vertex 94.6185600000000 159.3710100000000 77.7950200000000
endloop
endfacet
facet normal 0.7232039437793 0.6495544538363 0.2346381622914
outer loop
vertex 95.3852700000000 158.7627500000000 77.1157200000000
vertex 94.6185600000000 159.3710100000000 77.7950200000000
vertex 95.3069100000000 158.3763400000000 78.4269500000000
endloop
endfacet
facet normal 0.6443111715877 0.7222770457751 0.2513542983790
outer loop
vertex 96.0329400000000 158.0344500000000 77.5483100000000
vertex 95.3852700000000 158.7627500000000 77.1157200000000
vertex 95.3069100000000 158.3763400000000 78.4269500000000
endloop
endfacet
facet normal 0.6127462432048 0.7669099710913 0.1907646132782
outer loop
vertex 98.1508300000000 156.4754600000000 77.0766000000000
vertex 97.3419100000000 157.2260700000000 76.6573000000000
vertex 97.3624600000000 156.9621900000000 77.6521400000000
endloop
endfacet
facet normal 0.4827124356965 0.7117214037124 0.5103345450992
outer loop
vertex 94.6185600000000 159.3710100000000 77.7950200000000
vertex 94.0664800000000 160.2013800000000 77.1591700000000
vertex 93.7660200000000 159.6259300000000 78.2459000000000
endloop
endfacet
facet normal 0.6233554752320 0.7469931276542 0.2311476124380
outer loop
vertex 96.7108300000000 157.5348900000000 77.3346000000000
vertex 96.0329400000000 158.0344500000000 77.5483100000000
vertex 96.4612900000000 157.4210900000000 78.3753200000000
endloop
endfacet
facet normal 0.5792514463499 0.7836029091656 0.2245756946972
outer loop
vertex 97.3624600000000 156.9621900000000 77.6521400000000
vertex 96.7108300000000 157.5348900000000 77.3346000000000
vertex 96.4612900000000 157.4210900000000 78.3753200000000
endloop
endfacet
facet normal 0.6267719049634 0.7451059164435 0.2279784034277
outer loop
vertex 96.0329400000000 158.0344500000000 77.5483100000000
vertex 95.3069100000000 158.3763400000000 78.4269500000000
vertex 96.4612900000000 157.4210900000000 78.3753200000000
endloop
endfacet
facet normal 0.5892895086825 0.7695612648739 0.2459945823844
outer loop
vertex 97.3624600000000 156.9621900000000 77.6521400000000
vertex 96.4612900000000 157.4210900000000 78.3753200000000
vertex 97.5271200000000 156.5264900000000 78.6207200000000
endloop
endfacet
facet normal 0.7008750336543 0.6384128507013 0.3181245341994
outer loop
vertex 94.8843800000000 158.2933600000000 79.5243700000000
vertex 95.3069100000000 158.3763400000000 78.4269500000000
vertex 94.4409000000000 159.0566300000000 78.9696900000000
endloop
endfacet
facet normal 0.4129084840640 0.8622798591630 0.2932235124780
outer loop
vertex 94.6185600000000 159.3710100000000 77.7950200000000
vertex 93.7660200000000 159.6259300000000 78.2459000000000
vertex 94.4409000000000 159.0566300000000 78.9696900000000
endloop
endfacet
facet normal -0.8248081372717 0.5042167231892 0.2558457205948
outer loop
vertex 93.7660200000000 159.6259300000000 78.2459000000000
vertex 93.3759600000000 159.4994500000000 77.2376700000000
vertex 93.3458600000000 158.9821900000000 78.1600400000000
endloop
endfacet
facet normal 0.6957129077076 0.6606381891119 0.2820296671204
outer loop
vertex 95.3069100000000 158.3763400000000 78.4269500000000
vertex 94.6185600000000 159.3710100000000 77.7950200000000
vertex 94.4409000000000 159.0566300000000 78.9696900000000
endloop
endfacet
facet normal 0.6143988355367 0.7533609116575 0.2344384944452
outer loop
vertex 97.8669100000000 156.4929200000000 77.8381000000000
vertex 97.3624600000000 156.9621900000000 77.6521400000000
vertex 97.5271200000000 156.5264900000000 78.6207200000000
endloop
endfacet
facet normal -0.8192034109201 0.4963669661077 0.2872727040531
outer loop
vertex 93.5679400000000 158.8362500000000 79.0455000000000
vertex 93.7660200000000 159.6259300000000 78.2459000000000
vertex 93.3458600000000 158.9821900000000 78.1600400000000
endloop
endfacet
facet normal -0.7696476045758 0.4317847409956 0.4703238269683
outer loop
vertex 94.0812200000000 158.4606600000000 79.8989800000000
vertex 93.5860900000000 157.9312700000000 79.5747500000000
vertex 93.8976800000000 157.7970000000000 80.2079100000000
endloop
endfacet
facet normal 0.5634637148132 0.7600983359026 0.3236652002409
outer loop
vertex 97.5271200000000 156.5264900000000 78.6207200000000
vertex 96.4612900000000 157.4210900000000 78.3753200000000
vertex 96.6167200000000 156.8290400000000 79.4951100000000
endloop
endfacet
facet normal 0.6116842117294 0.7216794559893 0.3240697269477
outer loop
vertex 96.4612900000000 157.4210900000000 78.3753200000000
vertex 95.3069100000000 158.3763400000000 78.4269500000000
vertex 95.6667600000000 157.6090000000000 79.4565400000000
endloop
endfacet
facet normal 0.5959531152856 0.7411337977791 0.3091287404480
outer loop
vertex 96.6167200000000 156.8290400000000 79.4951100000000
vertex 96.4612900000000 157.4210900000000 78.3753200000000
vertex 95.6667600000000 157.6090000000000 79.4565400000000
endloop
endfacet
facet normal 0.5343974267466 0.5470788851600 0.6443012367664
outer loop
vertex 95.6667600000000 157.6090000000000 79.4565400000000
vertex 94.8843800000000 158.2933600000000 79.5243700000000
vertex 94.7639400000000 157.4426700000000 80.3465900000000
endloop
endfacet
facet normal 0.4387179026717 0.5916342819154 0.6763841204062
outer loop
vertex 94.8843800000000 158.2933600000000 79.5243700000000
vertex 94.0812200000000 158.4606600000000 79.8989800000000
vertex 94.7639400000000 157.4426700000000 80.3465900000000
endloop
endfacet
facet normal -0.1228511284807 0.7211642684290 0.6817842020554
outer loop
vertex 93.7660200000000 159.6259300000000 78.2459000000000
vertex 93.5679400000000 158.8362500000000 79.0455000000000
vertex 94.4409000000000 159.0566300000000 78.9696900000000
endloop
endfacet
facet normal 0.6425511070777 0.7047804427538 0.3006868841585
outer loop
vertex 95.3069100000000 158.3763400000000 78.4269500000000
vertex 94.8843800000000 158.2933600000000 79.5243700000000
vertex 95.6667600000000 157.6090000000000 79.4565400000000
endloop
endfacet
facet normal -0.1747232141116 0.8581634547622 0.4827289957741
outer loop
vertex 93.5679400000000 158.8362500000000 79.0455000000000
vertex 94.0812200000000 158.4606600000000 79.8989800000000
vertex 94.4409000000000 159.0566300000000 78.9696900000000
endloop
endfacet
facet normal 0.4213628403715 0.6804848232202 0.5994945889005
outer loop
vertex 94.0812200000000 158.4606600000000 79.8989800000000
vertex 94.8843800000000 158.2933600000000 79.5243700000000
vertex 94.4409000000000 159.0566300000000 78.9696900000000
endloop
endfacet
facet normal 0.4445178181803 0.6837674595040 0.5786760498273
outer loop
vertex 95.6667600000000 157.6090000000000 79.4565400000000
vertex 94.7639400000000 157.4426700000000 80.3465900000000
vertex 95.8288600000000 156.8880500000000 80.1839000000000
endloop
endfacet
facet normal 0.5211324534502 0.6613936731606 0.5394250411912
outer loop
vertex 96.6167200000000 156.8290400000000 79.4951100000000
vertex 95.6667600000000 157.6090000000000 79.4565400000000
vertex 95.8288600000000 156.8880500000000 80.1839000000000
endloop
endfacet
facet normal 0.0247516310507 0.4162489823611 0.9089137150707
outer loop
vertex 94.0812200000000 158.4606600000000 79.8989800000000
vertex 93.8976800000000 157.7970000000000 80.2079100000000
vertex 94.7639400000000 157.4426700000000 80.3465900000000
endloop
endfacet
endsolid WRAP
